g exclamationMark01
v 0.03542596 0.5262999 -0.2330304
v 0.3313886 0.528871 -0.2281219
v 0.3281162 0.6786988 -0.2610793
v 0.03682846 0.6774834 -0.2747765
v -0.261565 0.5313019 -0.2288699
v 0.03430402 0.2387052 -0.1627212
v 0.3320898 0.237069 -0.1603838
v -0.2612378 0.2392194 -0.1628147
v -0.262874 0.6781846 -0.270055
v 0.3916937 2.107322 -0.566111
v 0.4080088 2.335266 -0.6245462
v 0.03388327 2.338773 -0.6187494
v 0.0371089 2.097786 -0.5759282
v 0.3840737 1.875498 -0.5183812
v -0.3220104 2.111109 -0.5654566
v 0.03565973 1.874984 -0.52343
v 0.3690208 1.65106 -0.4687346
v -0.3151852 1.87288 -0.5235234
v 0.03364956 1.653912 -0.4695293
v 0.3632708 1.417366 -0.4214723
v -0.3020489 1.647835 -0.4730822
v 0.03626746 1.417927 -0.427269
v 0.3517708 1.189422 -0.3727139
v -0.2874635 1.425734 -0.4207243
v 0.03575325 1.192087 -0.3771082
v 0.3367646 0.964891 -0.3230674
v -0.2796566 1.189609 -0.3774355
v 0.03579998 0.9644703 -0.3283032
v 0.3225999 0.8891123 -0.302171
v -0.2637154 0.9703138 -0.3232076
v 0.03720242 0.8716285 -0.2991323
v -0.2593679 0.8806975 -0.3006283
v -0.3353804 2.338352 -0.6207596
v 0.03715569 0.6345218 0.2477744
v 0.3368581 0.7785528 0.1996238
v 0.3315288 0.6264811 0.2386117
v 0.03313535 0.7669594 0.20514
v -0.2607236 0.622227 0.2380975
v 0.03589344 0.3321548 0.312427
v 0.3253113 0.3302381 0.2992908
v -0.2618455 0.3314535 0.3076587
v -0.261752 0.7728496 0.2040648
v 0.3872994 2.197453 -0.1019486
v 0.03640771 2.439094 -0.1535586
v 0.4001551 2.425958 -0.1515951
v 0.03472477 2.204371 -0.08371681
v 0.3880005 1.982084 -0.04856223
v -0.3233194 2.200491 -0.09942418
v 0.03393006 1.973623 -0.05005819
v 0.3666834 1.745632 -0.003029525
v -0.3165876 1.983206 -0.04243821
v 0.03304183 1.743201 -0.003497005
v 0.3611671 1.524326 0.04815972
v -0.3042929 1.755075 0.005946159
v 0.03458452 1.534564 0.07363749
v 0.352285 1.302179 0.1249202
v -0.2923253 1.527505 0.05475122
v 0.03584671 1.297224 0.1012656
v 0.3345207 1.066709 0.1448817
v -0.2751688 1.289884 0.09560907
v 0.03439754 1.074188 0.175642
v 0.3234414 0.9745679 0.1616175
v -0.2625468 1.061146 0.143526
v 0.03673494 0.9767651 0.1775586
v -0.2602561 0.9760638 0.173398
v -0.3368295 2.436242 -0.1529976
v 0.3315288 0.6264811 0.2386117
v 0.3368581 0.7785528 0.1996238
v 0.3456 0.5778163 0.00585264
v 0.3466285 0.7282051 -0.03266782
v 0.3253113 0.3302381 0.2992908
v 0.3427483 0.2830225 0.06620449
v 0.03589344 0.3321548 0.312427
v 0.3253113 0.3302381 0.2992908
v 0.03509873 0.2862481 0.07901347
v 0.3427483 0.2830225 0.06620449
v -0.2618455 0.3314535 0.3076587
v -0.275683 0.2856871 0.07419842
v -0.2612378 0.2392194 -0.1628147
v 0.03430402 0.2387052 -0.1627212
v 0.3320898 0.237069 -0.1603838
v 0.3466285 0.7282051 -0.03266782
v 0.3368581 0.7785528 0.1996238
v 0.03491175 0.7233433 -0.02878773
v 0.03313535 0.7669594 0.20514
v -0.261752 0.7728496 0.2040648
v 0.03491175 0.7233433 -0.02878773
v -0.2764777 0.7262416 -0.02916175
v 0.3281162 0.6786988 -0.2610793
v 0.03682846 0.6774834 -0.2747765
v -0.262874 0.6781846 -0.270055
v -0.2752622 0.5767879 0.004590452
v -0.2607236 0.622227 0.2380975
v -0.275683 0.2856871 0.07419842
v -0.2618455 0.3314535 0.3076587
v -0.2764777 0.7262416 -0.02916175
v -0.261752 0.7728496 0.2040648
v 0.4044092 2.152201 -0.3348479
v 0.3872994 2.197453 -0.1019486
v 0.4195088 2.381313 -0.3845879
v 0.4001551 2.425958 -0.1515951
v 0.3880005 1.982084 -0.04856223
v 0.4008096 1.929679 -0.2796851
v 0.4044092 2.152201 -0.3348479
v 0.3666834 1.745632 -0.003029525
v 0.4008096 1.929679 -0.2796851
v 0.3611671 1.524326 0.04815972
v 0.3818298 1.698416 -0.2354614
v 0.3759863 1.471688 -0.1829632
v 0.3653745 1.249821 -0.1062495
v 0.352285 1.302179 0.1249202
v 0.3345207 1.066709 0.1448817
v 0.3653745 1.249821 -0.1062495
v 0.3482646 1.016314 -0.08675545
v 0.3234414 0.9745679 0.1616175
v 0.3482646 1.016314 -0.08675545
v 0.3351284 0.9315596 -0.07179606
v 0.3818298 1.698416 -0.2354614
v 0.4008096 1.929679 -0.2796851
v 0.4195088 2.381313 -0.3845879
v 0.4001551 2.425958 -0.1515951
v 0.03519225 2.38912 -0.3852892
v 0.03640771 2.439094 -0.1535586
v -0.3368295 2.436242 -0.1529976
v -0.3516487 2.387671 -0.3851022
v 0.4080088 2.335266 -0.6245462
v 0.03388327 2.338773 -0.6187494
v -0.3353804 2.338352 -0.6207596
v -0.2721301 0.9292689 -0.05912727
v -0.2602561 0.9760638 0.173398
v 0.03706217 0.9257161 -0.05393827
v 0.03673494 0.9767651 0.1775586
v 0.3234414 0.9745679 0.1616175
v 0.3351284 0.9315596 -0.07179606
v -0.2593679 0.8806975 -0.3006283
v 0.03720242 0.8716285 -0.2991323
v 0.03706217 0.9257161 -0.05393827
v 0.3225999 0.8891123 -0.302171
v -0.2755895 1.015846 -0.08937335
v -0.2625468 1.061146 0.143526
v -0.2721301 0.9292689 -0.05912727
v -0.2602561 0.9760638 0.173398
v -0.2904087 1.240705 -0.1363553
v -0.2751688 1.289884 0.09560907
v -0.3035449 1.477859 -0.1771196
v -0.2923253 1.527505 0.05475122
v -0.3035449 1.477859 -0.1771196
v -0.3173356 1.703278 -0.2253637
v -0.3042929 1.755075 0.005946159
v -0.3306121 1.93024 -0.2734208
v -0.3165876 1.983206 -0.04243821
v -0.3233194 2.200491 -0.09942418
v -0.3375775 2.1558 -0.332417
v -0.3516487 2.387671 -0.3851022
v -0.3368295 2.436242 -0.1529976
v -0.3375775 2.1558 -0.332417
v -0.3306121 1.93024 -0.2734208
v -0.3220104 2.111109 -0.5654566
v -0.3151852 1.87288 -0.5235234
v -0.3306121 1.93024 -0.2734208
v -0.3173356 1.703278 -0.2253637
v -0.3020489 1.647835 -0.4730822
v -0.3035449 1.477859 -0.1771196
v -0.2874635 1.425734 -0.4207243
v -0.2904087 1.240705 -0.1363553
v -0.2796566 1.189609 -0.3774355
v -0.2755895 1.015846 -0.08937335
v -0.2637154 0.9703138 -0.3232076
v -0.2593679 0.8806975 -0.3006283
v -0.2721301 0.9292689 -0.05912727
v -0.3375775 2.1558 -0.332417
v -0.3353804 2.338352 -0.6207596
v -0.3516487 2.387671 -0.3851022
v 0.3482646 1.016314 -0.08675545
v 0.3367646 0.964891 -0.3230674
v 0.3351284 0.9315596 -0.07179606
v 0.3225999 0.8891123 -0.302171
v 0.3517708 1.189422 -0.3727139
v 0.3482646 1.016314 -0.08675545
v 0.3653745 1.249821 -0.1062495
v 0.3759863 1.471688 -0.1829632
v 0.3632708 1.417366 -0.4214723
v 0.3690208 1.65106 -0.4687346
v 0.3759863 1.471688 -0.1829632
v 0.3818298 1.698416 -0.2354614
v 0.3840737 1.875498 -0.5183812
v 0.3818298 1.698416 -0.2354614
v 0.4008096 1.929679 -0.2796851
v 0.3916937 2.107322 -0.566111
v 0.4008096 1.929679 -0.2796851
v 0.4044092 2.152201 -0.3348479
v 0.4044092 2.152201 -0.3348479
v 0.4195088 2.381313 -0.3845879
v 0.4080088 2.335266 -0.6245462
v -0.261565 0.5313019 -0.2288699
v -0.2752622 0.5767879 0.004590452
v -0.2612378 0.2392194 -0.1628147
v -0.275683 0.2856871 0.07419842
v -0.2764777 0.7262416 -0.02916175
v -0.262874 0.6781846 -0.270055
v 0.3456 0.5778163 0.00585264
v 0.3313886 0.528871 -0.2281219
v 0.3427483 0.2830225 0.06620449
v 0.3320898 0.237069 -0.1603838
v 0.3281162 0.6786988 -0.2610793
v 0.3466285 0.7282051 -0.03266782
vt 0.5003052 0.6665852
vt 0.9998779 0.6665852
vt 0.9998779 0.9998779
vt 0.5003052 0.9998779
vt 0 0.6665852
vt 0.5003052 0
vt 0.9998779 0
vt 0 0
vt 0 0.9998779
vt 0.9837626 5.333415
vt 0.9998779 6
vt 0.5003052 6
vt 0.5003052 5.333415
vt 0.9676474 4.666829
vt 0.01611525 5.333415
vt 0.5003052 4.666829
vt 0.9507996 4.000244
vt 0.03296301 4.666829
vt 0.5003052 4.000244
vt 0.9346843 3.333659
vt 0.04907825 4.000244
vt 0.5003052 3.333659
vt 0.9185691 2.666341
vt 0.0651935 3.333659
vt 0.5003052 2.666341
vt 0.9017214 1.999756
vt 0.08204126 2.666341
vt 0.5003052 1.999756
vt 0.8958613 1.749969
vt 0.0981565 1.999756
vt 0.5003052 1.749969
vt 0.1040166 1.749969
vt 0 6
vt 0.5003052 0.6665852
vt 0.9998779 0.9998779
vt 0.9998779 0.6665852
vt 0.5003052 0.9998779
vt 0 0.6665852
vt 0.5003052 0
vt 0.9998779 0
vt 0 0
vt 0 0.9998779
vt 0.9837626 5.333415
vt 0.5003052 6
vt 0.9998779 6
vt 0.5003052 5.333415
vt 0.9676474 4.666829
vt 0.01611525 5.333415
vt 0.5003052 4.666829
vt 0.9507996 4.000244
vt 0.03296301 4.666829
vt 0.5003052 4.000244
vt 0.9346843 3.333659
vt 0.04907825 4.000244
vt 0.5003052 3.333659
vt 0.9185691 2.666341
vt 0.0651935 3.333659
vt 0.5003052 2.666341
vt 0.9017214 1.999756
vt 0.08204126 2.666341
vt 0.5003052 1.999756
vt 0.8958613 1.749969
vt 0.0981565 1.999756
vt 0.5003052 1.749969
vt 0.1040166 1.749969
vt 0 6
vt 0.9998779 0.6665852
vt 0.9998779 0.9998779
vt 0.9998779 0.6665852
vt 0.9998779 0.9998779
vt 0.9998779 0
vt 0.9998779 0
vt 0.5003052 0
vt 0.9998779 0
vt 0.5003052 0
vt 0.9998779 0
vt 0 0
vt 0 0
vt 0 0
vt 0.5003052 0
vt 0.9998779 0
vt 0.9998779 0.9998779
vt 0.9998779 0.9998779
vt 0.5003052 0.9998779
vt 0.5003052 0.9998779
vt 0 0.9998779
vt 0.5003052 0.9998779
vt 0 0.9998779
vt 0.9998779 0.9998779
vt 0.5003052 0.9998779
vt 0 0.9998779
vt 0 0.6665852
vt 0 0.6665852
vt 0 0
vt 0 0
vt 0 0.9998779
vt 0 0.9998779
vt 0.9837626 5.333415
vt 0.9837626 5.333415
vt 0.9998779 6
vt 0.9998779 6
vt 0.9676474 4.666829
vt 0.9676474 4.666829
vt 0.9837626 5.333415
vt 0.9507996 4.000244
vt 0.9676474 4.666829
vt 0.9346843 3.333659
vt 0.9507996 4.000244
vt 0.9346843 3.333659
vt 0.9185691 2.666341
vt 0.9185691 2.666341
vt 0.9017214 1.999756
vt 0.9185691 2.666341
vt 0.9017214 1.999756
vt 0.8958613 1.749969
vt 0.9017214 1.999756
vt 0.8958613 1.749969
vt 0.9507996 4.000244
vt 0.9676474 4.666829
vt 0.9998779 6
vt 0.9998779 6
vt 0.5003052 6
vt 0.5003052 6
vt 0 6
vt 0 6
vt 0.9998779 6
vt 0.5003052 6
vt 0 6
vt 0.1040166 1.749969
vt 0.1040166 1.749969
vt 0.5003052 1.749969
vt 0.5003052 1.749969
vt 0.8958613 1.749969
vt 0.8958613 1.749969
vt 0.1040166 1.749969
vt 0.5003052 1.749969
vt 0.5003052 1.749969
vt 0.8958613 1.749969
vt 0.0981565 1.999756
vt 0.0981565 1.999756
vt 0.1040166 1.749969
vt 0.1040166 1.749969
vt 0.08204126 2.666341
vt 0.08204126 2.666341
vt 0.0651935 3.333659
vt 0.0651935 3.333659
vt 0.0651935 3.333659
vt 0.04907825 4.000244
vt 0.04907825 4.000244
vt 0.03296301 4.666829
vt 0.03296301 4.666829
vt 0.01611525 5.333415
vt 0.01611525 5.333415
vt 0 6
vt 0 6
vt 0.01611525 5.333415
vt 0.03296301 4.666829
vt 0.01611525 5.333415
vt 0.03296301 4.666829
vt 0.03296301 4.666829
vt 0.04907825 4.000244
vt 0.04907825 4.000244
vt 0.0651935 3.333659
vt 0.0651935 3.333659
vt 0.08204126 2.666341
vt 0.08204126 2.666341
vt 0.0981565 1.999756
vt 0.0981565 1.999756
vt 0.1040166 1.749969
vt 0.1040166 1.749969
vt 0.01611525 5.333415
vt 0 6
vt 0 6
vt 0.9017214 1.999756
vt 0.9017214 1.999756
vt 0.8958613 1.749969
vt 0.8958613 1.749969
vt 0.9185691 2.666341
vt 0.9017214 1.999756
vt 0.9185691 2.666341
vt 0.9346843 3.333659
vt 0.9346843 3.333659
vt 0.9507996 4.000244
vt 0.9346843 3.333659
vt 0.9507996 4.000244
vt 0.9676474 4.666829
vt 0.9507996 4.000244
vt 0.9676474 4.666829
vt 0.9837626 5.333415
vt 0.9676474 4.666829
vt 0.9837626 5.333415
vt 0.9837626 5.333415
vt 0.9998779 6
vt 0.9998779 6
vt 0 0.6665852
vt 0 0.6665852
vt 0 0
vt 0 0
vt 0 0.9998779
vt 0 0.9998779
vt 0.9998779 0.6665852
vt 0.9998779 0.6665852
vt 0.9998779 0
vt 0.9998779 0
vt 0.9998779 0.9998779
vt 0.9998779 0.9998779
vn -0.003921509 0.003921509 -0.9999846
vn -0.003921509 0.003921509 -0.9999846
vn -0.003921509 0.003921509 -0.9999846
vn -0.003921509 0.003921509 -0.9999846
vn -0.003921509 0.003921509 -0.9999846
vn -0.003921509 0.003921509 -0.9999846
vn -0.003921509 0.003921509 -0.9999846
vn -0.003921509 0.003921509 -0.9999846
vn -0.003921509 0.003921509 -0.9999846
vn -0.003921509 0.003921509 -0.9999846
vn -0.003921509 0.003921509 -0.9999846
vn -0.003921509 0.003921509 -0.9999846
vn -0.003921509 0.003921509 -0.9999846
vn -0.003921509 0.003921509 -0.9999846
vn -0.003921509 0.003921509 -0.9999846
vn -0.003921509 0.003921509 -0.9999846
vn -0.003921509 0.003921509 -0.9999846
vn -0.003921509 0.003921509 -0.9999846
vn -0.003921509 0.003921509 -0.9999846
vn -0.003921509 0.003921509 -0.9999846
vn -0.003921509 0.003921509 -0.9999846
vn -0.003921509 0.003921509 -0.9999846
vn -0.003921509 0.003921509 -0.9999846
vn -0.003921509 0.003921509 -0.9999846
vn -0.003921509 0.003921509 -0.9999846
vn -0.003921509 0.003921509 -0.9999846
vn -0.003921509 0.003921509 -0.9999846
vn -0.003921509 0.003921509 -0.9999846
vn -0.003921509 0.003921509 -0.9999846
vn -0.003921509 0.003921509 -0.9999846
vn -0.003921509 0.003921509 -0.9999846
vn -0.003921509 0.003921509 -0.9999846
vn -0.003921509 0.003921509 -0.9999846
vn -0.003921509 0.003921509 0.9999846
vn -0.003921509 0.003921509 0.9999846
vn -0.003921509 0.003921509 0.9999846
vn -0.003921509 0.003921509 0.9999846
vn -0.003921509 0.003921509 0.9999846
vn -0.003921509 0.003921509 0.9999846
vn -0.003921509 0.003921509 0.9999846
vn -0.003921509 0.003921509 0.9999846
vn -0.003921509 0.003921509 0.9999846
vn -0.003921509 0.003921509 0.9999846
vn -0.003921509 0.003921509 0.9999846
vn -0.003921509 0.003921509 0.9999846
vn -0.003921509 0.003921509 0.9999846
vn -0.003921509 0.003921509 0.9999846
vn -0.003921509 0.003921509 0.9999846
vn -0.003921509 0.003921509 0.9999846
vn -0.003921509 0.003921509 0.9999846
vn -0.003921509 0.003921509 0.9999846
vn -0.003921509 0.003921509 0.9999846
vn -0.003921509 0.003921509 0.9999846
vn -0.003921509 0.003921509 0.9999846
vn -0.003921509 0.003921509 0.9999846
vn -0.003921509 0.003921509 0.9999846
vn -0.003921509 0.003921509 0.9999846
vn -0.003921509 0.003921509 0.9999846
vn -0.003921509 0.003921509 0.9999846
vn -0.003921509 0.003921509 0.9999846
vn -0.003921509 0.003921509 0.9999846
vn -0.003921509 0.003921509 0.9999846
vn -0.003921509 0.003921509 0.9999846
vn -0.003921509 0.003921509 0.9999846
vn -0.003921509 0.003921509 0.9999846
vn -0.003921509 0.003921509 0.9999846
vn 0.9999924 0.003921509 0
vn 0.9999924 0.003921509 0
vn 0.9998079 -0.01960411 0
vn 0.9999924 0.003921509 0
vn 0.9999924 0.003921509 0
vn 0.9999924 0.003921509 0
vn -0.003921509 -0.9999924 0
vn -0.003921509 -0.9999924 0
vn 0.003921568 -0.9843062 0.1764254
vn -0.003921509 -0.9764631 0.2156487
vn -0.003921509 -0.9999924 0
vn -0.003921509 -0.9843062 0.1764254
vn -0.003921509 -0.9999924 0
vn -0.003921509 -0.9999924 0
vn -0.003921509 -0.9999924 0
vn -0.01960766 0.9764631 -0.2147916
vn -0.003921509 0.9999923 -0.000345267
vn -0.01960766 0.9764631 -0.2147916
vn -0.003921509 0.9999923 -0.000345267
vn -0.003921509 0.9999923 -0.000345267
vn 0.01960772 0.9843061 -0.1753769
vn 0.01176465 0.9843061 -0.176077
vn -0.003921509 0.9999923 -0.000345267
vn -0.003921509 0.9999923 -0.000345267
vn -0.003921509 0.9999923 -0.000345267
vn -0.9999309 0.0117638 0
vn -0.9999923 0.003921509 -0.0003449296
vn -0.9999309 0.0117638 0
vn -0.9999923 0.003921509 -0.0003449296
vn -0.9999923 0.003921509 -0.0003449296
vn -0.9999923 0.003921509 -0.0003449296
vn 0.9921493 -0.05098003 0.1141964
vn 0.9990709 -0.04309721 0
vn 0.9921493 -0.05098003 0.1141964
vn 0.9990709 -0.04309721 0
vn 0.9990709 -0.04309721 0
vn 0.9998079 0.01960405 0
vn 0.9999924 0.003921509 0
vn 0.9990709 -0.04309721 0
vn 0.9921493 -0.07450926 0.1004398
vn 0.9990709 -0.04309721 0
vn 0.9999309 -0.01176392 0
vn 0.9999309 -0.01176392 0
vn 0.9998079 -0.01960411 0
vn 0.9990709 -0.04309721 0
vn 0.9990709 -0.04309721 0
vn 0.9921493 -0.06666619 0.1058083
vn 0.9921493 -0.06666619 0.1058083
vn 0.9990709 -0.04309721 0
vn 0.9843062 -0.1372539 0.1109173
vn 0.9843062 -0.1372539 0.1109173
vn 0.9921493 -0.06666619 0.1058083
vn 0.9921493 -0.06666619 0.1058083
vn 0.01960772 0.9843061 -0.1753769
vn -0.003921509 0.9999923 -0.000345267
vn 0.01960772 0.9843061 -0.1753769
vn -0.003921509 0.9999923 -0.000345267
vn -0.003921509 0.9999923 -0.000345267
vn -0.003921509 0.9764631 -0.215649
vn -0.003921509 0.9999923 -0.000345267
vn -0.003921509 0.9999923 -0.000345267
vn -0.003921509 0.9999923 -0.000345267
vn -0.01176453 -0.9764631 0.2153633
vn -0.003921509 -0.9999924 0
vn -0.01176453 -0.9764631 0.2153633
vn -0.003921509 -0.9999924 0
vn -0.003921509 -0.9999924 0
vn 0.0274508 -0.9843062 0.1743208
vn -0.003921509 -0.9999924 0
vn -0.003921509 -0.9999924 0
vn 0.03529388 -0.9764631 0.2127771
vn -0.003921509 -0.9999924 0
vn -0.9998079 -0.01960411 0
vn -0.9990709 -0.04309721 0
vn -0.9998079 -0.01960411 0
vn -0.9990709 -0.04309721 0
vn -0.9990709 -0.04309721 0
vn -0.9990709 -0.04309721 0
vn -0.9990709 -0.04309721 0
vn -0.9990709 -0.04309721 0
vn -0.9982743 -0.05872206 0
vn -0.9993777 -0.03527219 0
vn -0.9990709 -0.04309721 0
vn -0.9993777 -0.03527219 0
vn -0.9990709 -0.04309721 0
vn -0.9990709 -0.04309721 0
vn -0.9999309 -0.01176392 0
vn -0.9990709 -0.04309721 0
vn -0.9990709 -0.04309721 0
vn -0.9990709 -0.04309721 0
vn -0.9990709 -0.04309721 0
vn -0.9990709 -0.04309721 0
vn -0.9990709 -0.04309721 0
vn -0.9977852 -0.06651905 0
vn -0.9977852 -0.06651905 0
vn -0.9990709 -0.04309721 0
vn -0.9972357 -0.07430387 0
vn -0.9990709 -0.04309721 0
vn -0.9977852 -0.06651905 0
vn -0.9990709 -0.04309721 0
vn -0.9972357 -0.07430387 0
vn -0.9990709 -0.04309721 0
vn -0.9990709 -0.04309721 0
vn -0.998703 -0.05091431 0
vn -0.9921492 -0.07450926 -0.1004404
vn -0.9990709 -0.04309721 0
vn -0.9921492 -0.07450926 -0.1004404
vn 0.9843062 -0.15294 -0.08803764
vn 0.9990709 -0.04309721 0
vn 0.9843062 -0.15294 -0.08803764
vn 0.9990709 -0.04309721 0
vn 0.9990709 -0.04309721 0
vn 0.9972357 -0.07430387 0
vn 0.9972357 -0.07430387 0
vn 0.9982743 -0.05872205 0
vn 0.9990709 -0.04309721 0
vn 0.9990709 -0.04309721 0
vn 0.9993777 -0.03527218 0
vn 0.9993777 -0.03527218 0
vn 0.9990709 -0.04309721 0
vn 0.9921493 -0.09019542 -0.08662891
vn 0.9921493 -0.09019542 -0.08662891
vn 0.9990709 -0.04309721 0
vn 0.9996234 -0.02744067 0
vn 0.9996234 -0.02744067 0
vn 0.9972357 -0.07430387 0
vn 0.9972357 -0.07430387 0
vn 0.9990709 -0.04309721 0
vn -0.9999923 0.003921509 -0.0003449296
vn -0.9999309 -0.01176392 0
vn -0.9999923 0.003921509 -0.0003449296
vn -0.9999309 -0.01176392 0
vn -0.9998079 -0.01960411 0
vn -0.9999923 0.003921509 -0.0003449296
vn 0.9998079 -0.01960411 0
vn 0.9999924 0.003921509 0
vn 0.9998079 -0.01960411 0
vn 0.9999924 0.003921509 0
vn 0.9999924 0.003921509 0
vn 0.9996234 -0.02744067 0
g exclamationMark01_0
f 3/3/3 2/2/2 1/1/1
f 1/1/1 4/4/4 3/3/3
f 4/4/4 1/1/1 5/5/5
f 6/6/6 1/1/1 2/2/2
f 2/2/2 7/7/7 6/6/6
f 1/1/1 6/6/6 8/8/8
f 8/8/8 5/5/5 1/1/1
f 5/5/5 9/9/9 4/4/4
f 12/12/12 11/11/11 10/10/10
f 10/10/10 13/13/13 12/12/12
f 13/13/13 10/10/10 14/14/14
f 12/12/12 13/13/13 15/15/15
f 14/14/14 16/16/16 13/13/13
f 16/16/16 14/14/14 17/17/17
f 13/13/13 16/16/16 18/18/18
f 18/18/18 15/15/15 13/13/13
f 17/17/17 19/19/19 16/16/16
f 19/19/19 17/17/17 20/20/20
f 16/16/16 19/19/19 21/21/21
f 21/21/21 18/18/18 16/16/16
f 20/20/20 22/22/22 19/19/19
f 22/22/22 20/20/20 23/23/23
f 19/19/19 22/22/22 24/24/24
f 24/24/24 21/21/21 19/19/19
f 23/23/23 25/25/25 22/22/22
f 25/25/25 23/23/23 26/26/26
f 22/22/22 25/25/25 27/27/27
f 27/27/27 24/24/24 22/22/22
f 26/26/26 28/28/28 25/25/25
f 28/28/28 26/26/26 29/29/29
f 25/25/25 28/28/28 30/30/30
f 30/30/30 27/27/27 25/25/25
f 29/29/29 31/31/31 28/28/28
f 28/28/28 31/31/31 32/32/32
f 32/32/32 30/30/30 28/28/28
f 15/15/15 33/33/33 12/12/12
f 36/36/36 35/35/35 34/34/34
f 37/37/37 34/34/34 35/35/35
f 34/34/34 37/37/37 38/38/38
f 34/34/34 39/39/39 36/36/36
f 40/40/40 36/36/36 39/39/39
f 39/39/39 34/34/34 41/41/41
f 38/38/38 41/41/41 34/34/34
f 42/42/42 38/38/38 37/37/37
f 45/45/45 44/44/44 43/43/43
f 46/46/46 43/43/43 44/44/44
f 43/43/43 46/46/46 47/47/47
f 46/46/46 44/44/44 48/48/48
f 49/49/49 47/47/47 46/46/46
f 47/47/47 49/49/49 50/50/50
f 49/49/49 46/46/46 51/51/51
f 48/48/48 51/51/51 46/46/46
f 52/52/52 50/50/50 49/49/49
f 50/50/50 52/52/52 53/53/53
f 52/52/52 49/49/49 54/54/54
f 51/51/51 54/54/54 49/49/49
f 55/55/55 53/53/53 52/52/52
f 53/53/53 55/55/55 56/56/56
f 55/55/55 52/52/52 57/57/57
f 54/54/54 57/57/57 52/52/52
f 58/58/58 56/56/56 55/55/55
f 56/56/56 58/58/58 59/59/59
f 58/58/58 55/55/55 60/60/60
f 57/57/57 60/60/60 55/55/55
f 61/61/61 59/59/59 58/58/58
f 59/59/59 61/61/61 62/62/62
f 61/61/61 58/58/58 63/63/63
f 60/60/60 63/63/63 58/58/58
f 64/64/64 62/62/62 61/61/61
f 64/64/64 61/61/61 65/65/65
f 63/63/63 65/65/65 61/61/61
f 66/66/66 48/48/48 44/44/44
f 69/69/69 68/68/68 67/67/67
f 69/69/69 70/70/70 68/68/68
f 69/69/69 67/67/67 71/71/71
f 69/69/69 71/71/71 72/72/72
f 75/75/75 74/74/74 73/73/73
f 75/75/75 76/76/76 74/74/74
f 75/75/75 73/73/73 77/77/77
f 75/75/75 77/77/77 78/78/78
f 79/79/79 75/75/75 78/78/78
f 79/79/79 80/80/80 75/75/75
f 75/75/75 81/81/81 76/76/76
f 75/75/75 80/80/80 81/81/81
f 84/84/84 83/83/83 82/82/82
f 84/84/84 85/85/85 83/83/83
f 87/87/87 86/86/86 85/85/85
f 87/87/87 88/88/88 86/86/86
f 89/89/89 87/87/87 82/82/82
f 89/89/89 90/90/90 87/87/87
f 87/87/87 91/91/91 88/88/88
f 87/87/87 90/90/90 91/91/91
f 94/94/94 93/93/93 92/92/92
f 94/94/94 95/95/95 93/93/93
f 96/96/96 92/92/92 93/93/93
f 96/96/96 93/93/93 97/97/97
f 100/100/100 99/99/99 98/98/98
f 100/100/100 101/101/101 99/99/99
f 103/103/103 99/99/99 102/102/102
f 103/103/103 104/104/104 99/99/99
f 106/106/106 102/102/102 105/105/105
f 108/108/108 105/105/105 107/107/107
f 108/108/108 107/107/107 109/109/109
f 110/110/110 109/109/109 107/107/107
f 110/110/110 107/107/107 111/111/111
f 113/113/113 111/111/111 112/112/112
f 113/113/113 112/112/112 114/114/114
f 116/116/116 112/112/112 115/115/115
f 116/116/116 115/115/115 117/117/117
f 119/119/119 105/105/105 118/118/118
f 122/122/122 121/121/121 120/120/120
f 122/122/122 123/123/123 121/121/121
f 122/122/122 124/124/124 123/123/123
f 122/122/122 125/125/125 124/124/124
f 126/126/126 122/122/122 120/120/120
f 126/126/126 127/127/127 122/122/122
f 122/122/122 128/128/128 125/125/125
f 122/122/122 127/127/127 128/128/128
f 131/131/131 130/130/130 129/129/129
f 131/131/131 132/132/132 130/130/130
f 131/131/131 133/133/133 132/132/132
f 131/131/131 134/134/134 133/133/133
f 135/135/135 131/131/131 129/129/129
f 135/135/135 136/136/136 131/131/131
f 136/136/136 134/134/134 137/137/137
f 136/136/136 138/138/138 134/134/134
f 141/141/141 140/140/140 139/139/139
f 141/141/141 142/142/142 140/140/140
f 143/143/143 139/139/139 140/140/140
f 143/143/143 140/140/140 144/144/144
f 145/145/145 143/143/143 144/144/144
f 147/147/147 144/144/144 146/146/146
f 148/148/148 145/145/145 146/146/146
f 148/148/148 146/146/146 149/149/149
f 150/150/150 148/148/148 149/149/149
f 150/150/150 149/149/149 151/151/151
f 150/150/150 151/151/151 152/152/152
f 150/150/150 152/152/152 153/153/153
f 154/154/154 153/153/153 152/152/152
f 154/154/154 152/152/152 155/155/155
f 158/158/158 157/157/157 156/156/156
f 158/158/158 159/159/159 157/157/157
f 159/159/159 161/161/161 160/160/160
f 159/159/159 162/162/162 161/161/161
f 162/162/162 163/163/163 161/161/161
f 162/162/162 164/164/164 163/163/163
f 164/164/164 165/165/165 163/163/163
f 164/164/164 166/166/166 165/165/165
f 166/166/166 167/167/167 165/165/165
f 166/166/166 168/168/168 167/167/167
f 167/167/167 168/168/168 169/169/169
f 167/167/167 169/169/169 170/170/170
f 172/172/172 158/158/158 171/171/171
f 172/172/172 171/171/171 173/173/173
f 176/176/176 175/175/175 174/174/174
f 176/176/176 177/177/177 175/175/175
f 179/179/179 175/175/175 178/178/178
f 179/179/179 178/178/178 180/180/180
f 178/178/178 181/181/181 180/180/180
f 178/178/178 182/182/182 181/181/181
f 184/184/184 182/182/182 183/183/183
f 184/184/184 183/183/183 185/185/185
f 187/187/187 183/183/183 186/186/186
f 187/187/187 186/186/186 188/188/188
f 190/190/190 186/186/186 189/189/189
f 190/190/190 189/189/189 191/191/191
f 189/189/189 193/193/193 192/192/192
f 189/189/189 194/194/194 193/193/193
f 197/197/197 196/196/196 195/195/195
f 197/197/197 198/198/198 196/196/196
f 199/199/199 195/195/195 196/196/196
f 199/199/199 200/200/200 195/195/195
f 203/203/203 202/202/202 201/201/201
f 203/203/203 204/204/204 202/202/202
f 201/201/201 202/202/202 205/205/205
f 201/201/201 205/205/205 206/206/206
