g alluringPoolPool
v -0.00616461 -0.04103839 -0.001021266
v -0.1703638 -0.02451521 -0.002720952
v -0.05151731 -0.01853412 -0.1462447
v -0.00616461 -0.04103839 -0.001021266
v -0.05151731 -0.01853412 -0.1462447
v 0.1247516 -0.01631814 -0.1479874
v -0.06666356 0.002937376 -0.3192865
v -0.2641674 -0.005646944 -0.2720619
v -0.2327346 0.01836336 -0.4183396
v -0.01214564 0.02634525 -0.5236965
v 0.0623163 -0.0009136796 -0.3568294
v -0.2327346 0.01836336 -0.4183396
v -0.3095847 0.03221875 -0.5271819
v -0.00616461 -0.04103839 -0.001021266
v 0.1247516 -0.01631814 -0.1479874
v 0.1809047 -0.02367616 0.02159053
v -0.00616461 -0.04103839 -0.001021266
v 0.1809047 -0.02367616 0.02159053
v 0.05700225 -0.01758748 0.1795936
v 0.2915542 -0.005152106 0.07113862
v 0.2695878 0.00569129 0.2471279
v 0.2915542 -0.005152106 0.07113862
v -0.00616461 -0.04103839 -0.001021266
v 0.05700225 -0.01758748 0.1795936
v -0.09058779 -0.03034568 0.1336815
v -0.09314805 0.005519152 0.3625966
v 0.08221728 0.00489521 0.2912758
v 0.2460293 0.02806646 0.3811422
v 0.2695878 0.00569129 0.2471279
v 0.4540322 0.01541585 0.2454497
v 0.05700225 -0.01758748 0.1795936
v -0.09058779 -0.03034568 0.1336815
v -0.00616461 -0.04103839 -0.001021266
v -0.09058779 -0.03034568 0.1336815
v -0.1703638 -0.02451521 -0.002720952
v -0.4525276 0.02236509 0.2641889
v -0.4694166 0.027421 -0.03325009
v -0.3459443 0.009994209 0.1222787
v -0.4965895 0.02602255 -0.2824105
v -0.2641674 -0.005646944 -0.2720619
v -0.4694166 0.027421 -0.03325009
v -0.324774 -0.01040167 -0.1091751
v -0.3459443 0.009994209 0.1222787
v -0.0001189709 0.02765763 0.5305179
v -0.2317449 0.0277437 0.4232462
v -0.09314805 0.005519152 0.3625966
v -0.2317449 0.0277437 0.4232462
v -0.2301744 0.009822071 0.2434274
v -0.09314805 0.005519152 0.3625966
v -0.3459443 0.009994209 0.1222787
v -0.1703638 -0.02451521 -0.002720952
v 0.4562913 0.02367747 -0.2660809
v 0.4460934 0.01911634 0.008939981
v 0.3112185 0.01010174 -0.114274
v 0.4540322 0.01541585 0.2454497
v 0.2695878 0.00569129 0.2471279
v 0.4460934 0.01911634 0.008939981
v 0.2915542 -0.005152106 0.07113862
v 0.3112185 0.01010174 -0.114274
v -0.01214564 0.02634525 -0.5236965
v 0.2280216 0.02010602 -0.3981589
v 0.0623163 -0.0009136796 -0.3568294
v 0.2280216 0.02010602 -0.3981589
v 0.1964597 0.005433083 -0.2505043
v 0.0623163 -0.0009136796 -0.3568294
v 0.3112185 0.01010174 -0.114274
v 0.1964597 0.005433083 -0.2505043
v 0.1809047 -0.02367616 0.02159053
v 0.1247516 -0.01631814 -0.1479874
v 0.0623163 -0.0009136796 -0.3568294
v -0.4965895 0.02602255 -0.2824105
v -0.2327346 0.01836336 -0.4183396
v -0.2641674 -0.005646944 -0.2720619
v -0.6157371 0.03751135 0.3587241
v -0.6056038 0.02417231 -0.0005264282
v -0.4525276 0.02236509 0.2641889
v -0.6056038 0.02417231 -0.0005264282
v -0.4694166 0.027421 -0.03325009
v -0.4525276 0.02236509 0.2641889
v -0.4965895 0.02602255 -0.2824105
v 0.002914548 0.03077728 0.706163
v -0.3021837 0.02948642 0.5302168
v -0.0001189709 0.02765763 0.5305179
v -0.2317449 0.0277437 0.4232462
v -0.4525276 0.02236509 0.2641889
v 0.6131541 0.03013182 0.3503979
v 0.3081634 0.03026092 0.5280867
v 0.4540322 0.01541585 0.2454497
v 0.3081634 0.03026092 0.5280867
v 0.2460293 0.02806646 0.3811422
v 0.4540322 0.01541585 0.2454497
v 0.6157789 0.02445197 -0.3587012
v 0.6007617 0.04028672 0.002722263
v 0.4562913 0.02367747 -0.2660809
v 0.6007617 0.04028672 0.002722263
v 0.4460934 0.01911634 0.008939981
v 0.4562913 0.02367747 -0.2660809
v 0.4540322 0.01541585 0.2454497
v 0.6131541 0.03013182 0.3503979
v -0.00696063 0.03441322 -0.703795
v 0.3048072 0.02877641 -0.5315063
v -0.01214564 0.02634525 -0.5236965
v 0.2280216 0.02010602 -0.3981589
v 0.4562913 0.02367747 -0.2660809
v 0.3112185 0.01010174 -0.114274
v 0.6157789 0.02445197 -0.3587012
v 0.4562913 0.02367747 -0.2660809
v -0.6222561 0.04103971 -0.345147
v -0.3095847 0.03221875 -0.5271819
v -0.4965895 0.02602255 -0.2824105
v -0.2327346 0.01836336 -0.4183396
v 0.0623163 -0.0009136796 -0.3568294
v -0.06666356 0.002937376 -0.3192865
v 0.1247516 -0.01631814 -0.1479874
v -0.3459443 0.009994209 0.1222787
v -0.324774 -0.01040167 -0.1091751
v -0.1703638 -0.02451521 -0.002720952
v -0.324774 -0.01040167 -0.1091751
v -0.05151731 -0.01853412 -0.1462447
v -0.1703638 -0.02451521 -0.002720952
v -0.2641674 -0.005646944 -0.2720619
v -0.09314805 0.005519152 0.3625966
v -0.2301744 0.009822071 0.2434274
v -0.09058779 -0.03034568 0.1336815
v -0.2301744 0.009822071 0.2434274
v -0.1703638 -0.02451521 -0.002720952
v -0.09058779 -0.03034568 0.1336815
v 0.3112185 0.01010174 -0.114274
v 0.2915542 -0.005152106 0.07113862
v 0.1809047 -0.02367616 0.02159053
v -0.4525276 0.02236509 0.2641889
v -0.3459443 0.009994209 0.1222787
v -0.2317449 0.0277437 0.4232462
v -0.6157371 0.03751135 0.3587241
v -0.3021837 0.02948642 0.5302168
v -0.0001189709 0.02765763 0.5305179
v -0.09314805 0.005519152 0.3625966
v 0.2460293 0.02806646 0.3811422
v 0.002914548 0.03077728 0.706163
v -0.0001189709 0.02765763 0.5305179
v 0.3081634 0.03026092 0.5280867
v 0.2460293 0.02806646 0.3811422
v 0.2695878 0.00569129 0.2471279
v 0.2915542 -0.005152106 0.07113862
v 0.4460934 0.01911634 0.008939981
v -0.00696063 0.03441322 -0.703795
v -0.01214564 0.02634525 -0.5236965
v -0.3095847 0.03221875 -0.5271819
v -0.2641674 -0.005646944 -0.2720619
v -0.324774 -0.01040167 -0.1091751
v -0.4694166 0.027421 -0.03325009
v -0.6222561 0.04103971 -0.345147
v -0.4965895 0.02602255 -0.2824105
v -0.6056038 0.02417231 -0.0005264282
vt 0.4995112 0.7644184
vt 1 0.6324536
vt 0 0.6324536
vt 0.4995112 0.7644184
vt 1 0.6324536
vt 0 0.6324536
vt 0.4995112 0.5004888
vt 1 0.5004888
vt 0.4995112 0.3675464
vt 0 0.3675464
vt 0 0.5004888
vt 0.4995112 0.3675464
vt 0.4995112 0.2355816
vt 0.4995112 0.7644184
vt 1 0.6324536
vt 0 0.6324536
vt 0.4995112 0.7644184
vt 1 0.6324536
vt 0 0.6324536
vt 0.4995112 0.5004888
vt 0 0.5004888
vt 0.4995112 0.5004888
vt 0.4995112 0.7644184
vt 1 0.6324536
vt 0 0.6324536
vt 0 0.5004888
vt 0.4995112 0.5004888
vt 0.4995112 0.3675464
vt 1 0.5004888
vt 1 0.3675464
vt 1 0.6324536
vt 0 0.6324536
vt 0.4995112 0.7644184
vt 1 0.6324536
vt 0 0.6324536
vt 1 0.3675464
vt 0.4995112 0.3675464
vt 1 0.5004888
vt 0 0.3675464
vt 0 0.5004888
vt 0.4995112 0.3675464
vt 0.4995112 0.5004888
vt 1 0.5004888
vt 1 0.3675464
vt 0.4995112 0.3675464
vt 1 0.5004888
vt 0.4995112 0.3675464
vt 0.4995112 0.5004888
vt 1 0.5004888
vt 0 0.5004888
vt 0 0.6324536
vt 1 0.3675464
vt 0.4995112 0.3675464
vt 1 0.5004888
vt 0 0.3675464
vt 0 0.5004888
vt 0.4995112 0.3675464
vt 0.4995112 0.5004888
vt 1 0.5004888
vt 1 0.3675464
vt 0.4995112 0.3675464
vt 1 0.5004888
vt 0.4995112 0.3675464
vt 0.4995112 0.5004888
vt 1 0.5004888
vt 0 0.5004888
vt 0.4995112 0.5004888
vt 0 0.6324536
vt 1 0.6324536
vt 1 0.5004888
vt 1 0.3675464
vt 0.4995112 0.3675464
vt 1 0.5004888
vt 1 0.2355816
vt 0.4995112 0.2355816
vt 1 0.3675464
vt 0.4995112 0.2355816
vt 0.4995112 0.3675464
vt 1 0.3675464
vt 0 0.3675464
vt 1 0.2355816
vt 0.4995112 0.2355816
vt 1 0.3675464
vt 0.4995112 0.3675464
vt 0 0.3675464
vt 1 0.2355816
vt 0.4995112 0.2355816
vt 1 0.3675464
vt 0.4995112 0.2355816
vt 0.4995112 0.3675464
vt 1 0.3675464
vt 1 0.2355816
vt 0.4995112 0.2355816
vt 1 0.3675464
vt 0.4995112 0.2355816
vt 0.4995112 0.3675464
vt 1 0.3675464
vt 0 0.3675464
vt 0 0.2355816
vt 1 0.2355816
vt 0.4995112 0.2355816
vt 1 0.3675464
vt 0.4995112 0.3675464
vt 0 0.3675464
vt 0 0.5004888
vt 0 0.2355816
vt 0 0.3675464
vt 1 0.2355816
vt 0.4995112 0.2355816
vt 1 0.3675464
vt 0.4995112 0.3675464
vt 0 0.5004888
vt 0.4995112 0.5004888
vt 0 0.6324536
vt 1 0.5004888
vt 0.4995112 0.5004888
vt 1 0.6324536
vt 0.4995112 0.5004888
vt 0 0.6324536
vt 1 0.6324536
vt 0 0.5004888
vt 1 0.5004888
vt 0.4995112 0.5004888
vt 1 0.6324536
vt 0.4995112 0.5004888
vt 0 0.6324536
vt 1 0.6324536
vt 1 0.5004888
vt 0.4995112 0.5004888
vt 1 0.6324536
vt 0 0.3675464
vt 0 0.5004888
vt 0.4995112 0.3675464
vt 0 0.2355816
vt 0.4995112 0.2355816
vt 0 0.3675464
vt 0 0.5004888
vt 0.4995112 0.3675464
vt 0 0.2355816
vt 0 0.3675464
vt 0.4995112 0.2355816
vt 0.4995112 0.3675464
vt 0 0.5004888
vt 0.4995112 0.5004888
vt 0.4995112 0.3675464
vt 0 0.2355816
vt 0 0.3675464
vt 0.4995112 0.2355816
vt 0 0.5004888
vt 0.4995112 0.5004888
vt 0.4995112 0.3675464
vt 0 0.2355816
vt 0 0.3675464
vt 0.4995112 0.2355816
vn 0.09873448 0.9895427 0.1051507
vn 0.09873448 0.9895427 0.1051507
vn 0.09873448 0.9895427 0.1051507
vn -0.01009324 0.9895427 0.1438865
vn -0.01009324 0.9895427 0.1438865
vn -0.01009324 0.9895427 0.1438865
vn -0.004910976 0.9843605 0.1760975
vn -0.004910976 0.9843605 0.1760975
vn -0.004910976 0.9843605 0.1760975
vn 0.03654721 0.9895427 0.1395331
vn 0.03654721 0.9895427 0.1395331
vn 0.01581812 0.994725 0.1013507
vn 0.01581812 0.994725 0.1013507
vn -0.1033742 0.9895427 0.100593
vn -0.1033742 0.9895427 0.100593
vn -0.1033742 0.9895427 0.100593
vn -0.07746279 0.9895427 -0.1216746
vn -0.07746279 0.9895427 -0.1216746
vn -0.07746279 0.9895427 -0.1216746
vn -0.1085564 0.9843605 -0.1387443
vn -0.08782732 0.994725 -0.05299595
vn -0.08782732 0.994725 -0.05299595
vn -0.05155143 0.994725 -0.08868288
vn -0.05155143 0.994725 -0.08868288
vn -0.05155143 0.994725 -0.08868288
vn -0.06191596 0.9843605 -0.1649269
vn -0.04636914 0.9843605 -0.169954
vn -0.05155143 0.9843605 -0.1684546
vn -0.05155143 0.9843605 -0.1684546
vn -0.05155143 0.9843605 -0.1684546
vn -0.04636914 0.9791782 -0.1976359
vn -0.02564007 0.9791782 -0.2013768
vn 0.09873448 0.994725 -0.02781489
vn 0.09873448 0.994725 -0.02781489
vn 0.09873448 0.994725 -0.02781489
vn 0.1298281 0.9895427 0.0628476
vn 0.1298281 0.9895427 0.0628476
vn 0.1298281 0.9895427 0.0628476
vn 0.1350104 0.9895427 -0.05076775
vn 0.1350104 0.9895427 -0.05076775
vn 0.2179267 0.9739959 -0.06196653
vn 0.2179267 0.9739959 -0.06196653
vn 0.2179267 0.9739959 -0.06196653
vn 0.08318765 0.9791782 -0.1851753
vn 0.08318765 0.9791782 -0.1851753
vn 0.08318765 0.9791782 -0.1851753
vn 0.1142813 0.9895427 -0.0880055
vn 0.1142813 0.9895427 -0.0880055
vn 0.1142813 0.9895427 -0.0880055
vn 0.1142813 0.9895427 -0.0880055
vn 0.1142813 0.9895427 -0.0880055
vn -0.07746279 0.994725 0.06724379
vn -0.07746279 0.994725 0.06724379
vn -0.07746279 0.994725 0.06724379
vn -0.05148783 0.9986737 0
vn -0.05148783 0.9986737 0
vn -0.1292855 0.9895427 0.06395645
vn -0.1292855 0.9895427 0.06395645
vn -0.1292855 0.9895427 0.06395645
vn -0.07746279 0.9791782 0.1876422
vn -0.07746279 0.9791782 0.1876422
vn -0.07746279 0.9791782 0.1876422
vn -0.1085564 0.9895427 0.09497729
vn -0.1085564 0.9895427 0.09497729
vn -0.1085564 0.9895427 0.09497729
vn -0.1551969 0.9843605 0.08335713
vn -0.1344678 0.9843605 0.1138107
vn -0.1603791 0.9843605 0.07289018
vn -0.1344678 0.9843605 0.1138107
vn -0.1344678 0.9843605 0.1138107
vn 0.1246458 0.9739959 0.1891965
vn 0.1246458 0.9739959 0.1891965
vn 0.1246458 0.9739959 0.1891965
vn 0.07282311 0.994725 -0.07224253
vn 0.07282311 0.994725 -0.07224253
vn 0.07282311 0.994725 -0.07224253
vn -0.02045539 0.9997908 0
vn -0.02045539 0.9997908 0
vn -0.02045539 0.9997908 0
vn -0.02563402 0.9996714 0
vn 0.005453587 0.9999073 -0.01247986
vn 0.005453587 0.9999073 -0.01247986
vn 0.005453587 0.9999073 -0.01247986
vn 0.005453587 0.9999073 -0.01247986
vn -0.01009324 0.9999073 -0.009144688
vn -0.04118687 0.994725 -0.09394594
vn -0.04118687 0.994725 -0.09394594
vn -0.04118687 0.994725 -0.09394594
vn 0.04169706 0.9991303 0
vn 0.04169706 0.9991303 0
vn 0.04169706 0.9991303 0
vn -0.03081056 0.9995252 0
vn -0.03081056 0.9995252 0
vn -0.03081056 0.9995252 0
vn -0.1344678 0.9895427 0.05218788
vn -0.1344678 0.9895427 0.05218788
vn -0.1344678 0.9895427 0.05218788
vn -0.1136016 0.9935264 0
vn -0.1136016 0.9935264 0
vn -0.004910976 0.9999073 0.01270235
vn -0.004910976 0.9999073 0.01270235
vn -0.004910976 0.9999073 0.01270235
vn -0.004910976 0.9999073 0.01270235
vn -0.04115579 0.9991527 0
vn -0.04115579 0.9991527 0
vn 0.005453587 0.9999073 0.01247986
vn 0.005453587 0.9999073 0.01247986
vn 0.07800539 0.994725 0.06661326
vn 0.07800539 0.994725 0.06661326
vn 0.07800539 0.994725 0.06661326
vn 0.06764084 0.994725 0.07711598
vn 0.04691175 0.994725 0.09122206
vn 0.04691175 0.994725 0.09122206
vn 0.04691175 0.994725 0.09122206
vn 0.1401927 0.9895427 -0.0339294
vn 0.1401927 0.9895427 -0.0339294
vn 0.1401927 0.9895427 -0.0339294
vn 0.04172948 0.994725 0.09370612
vn 0.04172948 0.994725 0.09370612
vn 0.04172948 0.994725 0.09370612
vn 0.03652621 0.9993327 0
vn 0.1609217 0.9739959 -0.159487
vn 0.1609217 0.9739959 -0.159487
vn 0.1609217 0.9739959 -0.159487
vn 0.2127445 0.9739959 -0.07792141
vn 0.2127445 0.9739959 -0.07792141
vn 0.2127445 0.9739959 -0.07792141
vn -0.1914728 0.9791782 0.06744073
vn -0.1914728 0.9791782 0.06744073
vn -0.1914728 0.9791782 0.06744073
vn 0.02617611 0.9996573 0
vn 0.02617611 0.9996573 0
vn 0.02617611 0.9996573 0
vn 0.05727631 0.994725 -0.08509763
vn 0.05727631 0.994725 -0.08509763
vn -0.06191596 0.994725 -0.08178383
vn -0.06191596 0.994725 -0.08178383
vn -0.06191596 0.994725 -0.08178383
vn -0.01009324 0.9999073 -0.009144688
vn -0.01009324 0.9999073 -0.009144688
vn -0.01009324 0.9999073 -0.009144688
vn -0.01009324 0.9999073 -0.009144688
vn -0.1862905 0.9791782 -0.0806592
vn -0.1862905 0.9791782 -0.0806592
vn -0.1862905 0.9791782 -0.0806592
vn 0.0209977 0.9997795 0
vn 0.0209977 0.9997795 0
vn 0.0209977 0.9997795 0
vn 0.3215722 0.9377199 0.1314252
vn 0.3215722 0.9377199 0.1314252
vn 0.3215722 0.9377199 0.1314252
vn 0.09873448 0.994725 0.02781489
vn 0.09873448 0.994725 0.02781489
vn 0.09873448 0.994725 0.02781489
g alluringPoolPool_0
f 3/3/3 2/2/2 1/1/1
f 6/6/6 5/5/5 4/4/4
f 5/5/5 6/6/6 7/7/7
f 5/5/5 7/7/7 8/8/8
f 8/8/8 7/7/7 9/9/9
f 9/9/9 11/11/11 10/10/10
f 13/13/13 12/12/12 10/10/10
f 16/16/16 15/15/15 14/14/14
f 19/19/19 18/18/18 17/17/17
f 18/18/18 19/19/19 20/20/20
f 22/22/22 19/19/19 21/21/21
f 25/25/25 24/24/24 23/23/23
f 27/27/27 25/25/25 26/26/26
f 28/28/28 27/27/27 26/26/26
f 29/29/29 27/27/27 28/28/28
f 29/29/29 28/28/28 30/30/30
f 31/31/31 27/27/27 29/29/29
f 31/31/31 32/32/32 27/27/27
f 35/35/35 34/34/34 33/33/33
f 38/38/38 37/37/37 36/36/36
f 37/37/37 40/40/40 39/39/39
f 43/43/43 42/42/42 41/41/41
f 46/46/46 45/45/45 44/44/44
f 49/49/49 48/48/48 47/47/47
f 47/47/47 48/48/48 50/50/50
f 48/48/48 51/51/51 50/50/50
f 54/54/54 53/53/53 52/52/52
f 53/53/53 56/56/56 55/55/55
f 59/59/59 58/58/58 57/57/57
f 62/62/62 61/61/61 60/60/60
f 65/65/65 64/64/64 63/63/63
f 63/63/63 67/67/67 66/66/66
f 67/67/67 68/68/68 66/66/66
f 69/69/69 68/68/68 67/67/67
f 69/69/69 67/67/67 70/70/70
f 73/73/73 72/72/72 71/71/71
f 76/76/76 75/75/75 74/74/74
f 79/79/79 78/78/78 77/77/77
f 77/77/77 78/78/78 80/80/80
f 83/83/83 82/82/82 81/81/81
f 83/83/83 84/84/84 82/82/82
f 82/82/82 84/84/84 85/85/85
f 88/88/88 87/87/87 86/86/86
f 91/91/91 90/90/90 89/89/89
f 94/94/94 93/93/93 92/92/92
f 97/97/97 96/96/96 95/95/95
f 95/95/95 96/96/96 98/98/98
f 95/95/95 98/98/98 99/99/99
f 102/102/102 101/101/101 100/100/100
f 102/102/102 103/103/103 101/101/101
f 101/101/101 103/103/103 104/104/104
f 103/103/103 105/105/105 104/104/104
f 101/101/101 107/107/107 106/106/106
f 110/110/110 109/109/109 108/108/108
f 110/110/110 111/111/111 109/109/109
f 111/111/111 113/113/113 112/112/112
f 113/113/113 114/114/114 112/112/112
f 117/117/117 116/116/116 115/115/115
f 120/120/120 119/119/119 118/118/118
f 118/118/118 119/119/119 121/121/121
f 124/124/124 123/123/123 122/122/122
f 127/127/127 126/126/126 125/125/125
f 130/130/130 129/129/129 128/128/128
f 133/133/133 132/132/132 131/131/131
f 135/135/135 131/131/131 134/134/134
f 138/138/138 137/137/137 136/136/136
f 141/141/141 140/140/140 139/139/139
f 141/141/141 142/142/142 140/140/140
f 145/145/145 144/144/144 143/143/143
f 148/148/148 147/147/147 146/146/146
f 151/151/151 150/150/150 149/149/149
f 154/154/154 153/153/153 152/152/152
