g aztecTempleNoLM
v 9.912649 -0.1286464 -9.569207
v 2.411858 -0.1286464 -9.569207
v 2.411781 -0.1286464 16.95583
v 9.912644 -0.1286464 16.95583
v -2.411858 -0.1286464 -9.569207
v -2.411848 -0.1286464 16.95583
v -9.912633 -0.1286464 -9.569207
v -9.912623 -0.1286464 16.95583
v 9.912644 -0.1286464 16.95583
v 9.912644 11.91946 16.95583
v 9.912649 11.91946 -9.569207
v 9.912649 -0.1286464 -9.569207
v 9.912649 11.91946 -9.569207
v 1.928733 5.303423 -9.569207
v 2.411858 -0.1286464 -9.569207
v 9.912649 -0.1286464 -9.569207
v -1.928733 5.303423 -9.569207
v 1.928733 5.303423 -9.569207
v 9.912649 11.91946 -9.569207
v -9.912649 11.91946 -9.569207
v -9.912623 -0.1286464 16.95583
v -9.912633 -0.1286464 -9.569207
v -9.912649 11.91946 -9.569207
v -9.912644 11.91946 16.95583
v -9.912649 11.91946 -9.569207
v -9.912633 -0.1286464 -9.569207
v -2.411858 -0.1286464 -9.569207
v -1.928733 5.303423 -9.569207
v 9.912649 11.91946 -9.569207
v 9.912644 11.91946 16.95583
v -9.912644 11.91946 16.95583
v -9.912649 11.91946 -9.569207
v 9.912659 11.91946 16.95583
v 9.912659 -0.1286464 16.95583
v 2.411781 -0.1286464 16.95583
v 1.928743 5.303423 16.95583
v -1.928724 5.303423 16.95583
v -9.912639 11.91946 16.95583
v 9.912659 11.91946 16.95583
v 1.928743 5.303423 16.95583
v -9.912639 11.91946 16.95583
v -1.928724 5.303423 16.95583
v -2.411848 -0.1286464 16.95583
v -9.912623 -0.1286464 16.95583
v 9.912649 -0.1286464 -9.569207
v 9.912644 -0.1286464 16.95583
v 2.411781 -0.1286464 16.95583
v 2.411858 -0.1286464 -9.569207
v -2.411858 -0.1286464 -9.569207
v -2.411848 -0.1286464 16.95583
v -9.912633 -0.1286464 -9.569207
v -9.912623 -0.1286464 16.95583
v 9.912644 -0.1286464 16.95583
v 9.912649 -0.1286464 -9.569207
v 9.912649 11.91946 -9.569207
v 9.912644 11.91946 16.95583
v 9.912649 11.91946 -9.569207
v 9.912649 -0.1286464 -9.569207
v 2.411858 -0.1286464 -9.569207
v 1.928733 5.303423 -9.569207
v -1.928733 5.303423 -9.569207
v -9.912649 11.91946 -9.569207
v 9.912649 11.91946 -9.569207
v 1.928733 5.303423 -9.569207
v -9.912623 -0.1286464 16.95583
v -9.912644 11.91946 16.95583
v -9.912649 11.91946 -9.569207
v -9.912633 -0.1286464 -9.569207
v -9.912649 11.91946 -9.569207
v -1.928733 5.303423 -9.569207
v -2.411858 -0.1286464 -9.569207
v -9.912633 -0.1286464 -9.569207
v 9.912649 11.91946 -9.569207
v -9.912649 11.91946 -9.569207
v -9.912644 11.91946 16.95583
v 9.912644 11.91946 16.95583
v 9.912659 11.91946 16.95583
v 1.928743 5.303423 16.95583
v 2.411781 -0.1286464 16.95583
v 9.912659 -0.1286464 16.95583
v -1.928724 5.303423 16.95583
v 1.928743 5.303423 16.95583
v 9.912659 11.91946 16.95583
v -9.912639 11.91946 16.95583
v -9.912639 11.91946 16.95583
v -9.912623 -0.1286464 16.95583
v -2.411848 -0.1286464 16.95583
v -1.928724 5.303423 16.95583
vt 0.1613034 0.4497668
vt 0.1487489 0.4497668
vt 0.1488101 0.5158073
vt 0.1613034 0.5158073
vt 0.1407227 0.4497668
vt 0.1416015 0.5158073
vt 0.1282831 0.4497668
vt 0.1282831 0.5158073
vt 0.1431991 0.45844
vt 0.1431991 0.45844
vt 0.0879624 0.4908991
vt 0.1431991 0.5114691
vt 0.0879624 0.4908991
vt 0.04993528 0.4703182
vt 0.04889387 0.4703182
vt 0.0327253 0.4703182
vt 0.04993528 0.4703182
vt 0.04993528 0.4703182
vt 0.0879624 0.4908991
vt 0.08796212 0.4908929
vt 0.1431991 0.45844
vt 0.1431991 0.5114691
vt 0.08796212 0.4908929
vt 0.1431991 0.45844
vt 0.08796212 0.4908929
vt 0.0327253 0.4703182
vt 0.04889387 0.4703182
vt 0.04993528 0.4703182
vt 0.0879624 0.4908991
vt 0.1431991 0.45844
vt 0.1431991 0.45844
vt 0.08796212 0.4908929
vt 0.0879624 0.4908991
vt 0.0327253 0.4703182
vt 0.04889387 0.4703182
vt 0.04993528 0.4703182
vt 0.04993528 0.4703182
vt 0.08796212 0.4908929
vt 0.0879624 0.4908991
vt 0.04993528 0.4703182
vt 0.08796212 0.4908929
vt 0.04993528 0.4703182
vt 0.04889387 0.4703182
vt 0.0327253 0.4703182
vt 0.1613034 0.4497668
vt 0.1613034 0.5158073
vt 0.1488101 0.5158073
vt 0.1487489 0.4497668
vt 0.1407227 0.4497668
vt 0.1416015 0.5158073
vt 0.1282831 0.4497668
vt 0.1282831 0.5158073
vt 0.1431991 0.45844
vt 0.1431991 0.5114691
vt 0.0879624 0.4908991
vt 0.1431991 0.45844
vt 0.0879624 0.4908991
vt 0.0327253 0.4703182
vt 0.04889387 0.4703182
vt 0.04993528 0.4703182
vt 0.04993528 0.4703182
vt 0.08796212 0.4908929
vt 0.0879624 0.4908991
vt 0.04993528 0.4703182
vt 0.1431991 0.45844
vt 0.1431991 0.45844
vt 0.08796212 0.4908929
vt 0.1431991 0.5114691
vt 0.08796212 0.4908929
vt 0.04993528 0.4703182
vt 0.04889387 0.4703182
vt 0.0327253 0.4703182
vt 0.0879624 0.4908991
vt 0.08796212 0.4908929
vt 0.1431991 0.45844
vt 0.1431991 0.45844
vt 0.0879624 0.4908991
vt 0.04993528 0.4703182
vt 0.04889387 0.4703182
vt 0.0327253 0.4703182
vt 0.04993528 0.4703182
vt 0.04993528 0.4703182
vt 0.0879624 0.4908991
vt 0.08796212 0.4908929
vt 0.08796212 0.4908929
vt 0.0327253 0.4703182
vt 0.04889387 0.4703182
vt 0.04993528 0.4703182
vn 0 -1 0
vn 0 -1 0
vn 0 -1 0
vn 0 -1 0
vn 0 -1 0
vn 0 -1 0
vn 0 -1 0
vn 0 -1 0
vn 1 0 1.610728E-07
vn 1 0 1.610728E-07
vn 1 0 1.610728E-07
vn 1 0 1.610728E-07
vn 0 0 -1
vn 0 0 -1
vn 0 0 -1
vn 0 0 -1
vn 0 0 -1
vn 0 0 -1
vn 0 0 -1
vn 0 0 -1
vn -1 -1.486343E-06 2.646196E-07
vn -1 -1.486343E-06 2.646196E-07
vn -1 -1.486343E-06 2.646196E-07
vn -1 -1.486343E-06 2.646196E-07
vn 0 0 -1
vn 0 0 -1
vn 0 0 -1
vn 0 0 -1
vn 0 1 0
vn 0 1 0
vn 0 1 0
vn 0 1 0
vn 1.825666E-07 0 1
vn 1.825666E-07 0 1
vn 1.825666E-07 0 1
vn 1.825666E-07 0 1
vn 0 0 1
vn 0 0 1
vn 0 0 1
vn 0 0 1
vn -1.825675E-07 0 1
vn -1.825675E-07 0 1
vn -1.825675E-07 0 1
vn -1.825675E-07 0 1
vn 0 1 0
vn 0 1 0
vn 0 1 0
vn 0 1 0
vn 0 1 0
vn 0 1 0
vn 0 1 0
vn 0 1 0
vn -1 0 -1.610728E-07
vn -1 0 -1.610728E-07
vn -1 0 -1.610728E-07
vn -1 0 -1.610728E-07
vn 0 0 1
vn 0 0 1
vn 0 0 1
vn 0 0 1
vn 0 0 1
vn 0 0 1
vn 0 0 1
vn 0 0 1
vn 1 1.486343E-06 -2.646196E-07
vn 1 1.486343E-06 -2.646196E-07
vn 1 1.486343E-06 -2.646196E-07
vn 1 1.486343E-06 -2.646196E-07
vn 0 0 1
vn 0 0 1
vn 0 0 1
vn 0 0 1
vn 0 -1 0
vn 0 -1 0
vn 0 -1 0
vn 0 -1 0
vn -1.825666E-07 0 -1
vn -1.825666E-07 0 -1
vn -1.825666E-07 0 -1
vn -1.825666E-07 0 -1
vn 0 0 -1
vn 0 0 -1
vn 0 0 -1
vn 0 0 -1
vn 1.825675E-07 0 -1
vn 1.825675E-07 0 -1
vn 1.825675E-07 0 -1
vn 1.825675E-07 0 -1
g aztecTempleNoLM_0
f 3/3/3 2/2/2 1/1/1
f 4/4/4 3/3/3 1/1/1
f 5/5/5 2/2/2 3/3/3
f 6/6/6 5/5/5 3/3/3
f 7/7/7 5/5/5 6/6/6
f 8/8/8 7/7/7 6/6/6
f 11/11/11 10/10/10 9/9/9
f 12/12/12 11/11/11 9/9/9
f 15/15/15 14/14/14 13/13/13
f 16/16/16 15/15/15 13/13/13
f 19/19/19 18/18/18 17/17/17
f 20/20/20 19/19/19 17/17/17
f 23/23/23 22/22/22 21/21/21
f 24/24/24 23/23/23 21/21/21
f 27/27/27 26/26/26 25/25/25
f 28/28/28 27/27/27 25/25/25
f 31/31/31 30/30/30 29/29/29
f 32/32/32 31/31/31 29/29/29
f 35/35/35 34/34/34 33/33/33
f 36/36/36 35/35/35 33/33/33
f 39/39/39 38/38/38 37/37/37
f 40/40/40 39/39/39 37/37/37
f 43/43/43 42/42/42 41/41/41
f 44/44/44 43/43/43 41/41/41
f 47/47/47 46/46/46 45/45/45
f 48/48/48 47/47/47 45/45/45
f 48/48/48 49/49/49 47/47/47
f 49/49/49 50/50/50 47/47/47
f 49/49/49 51/51/51 50/50/50
f 51/51/51 52/52/52 50/50/50
f 55/55/55 54/54/54 53/53/53
f 56/56/56 55/55/55 53/53/53
f 59/59/59 58/58/58 57/57/57
f 60/60/60 59/59/59 57/57/57
f 63/63/63 62/62/62 61/61/61
f 64/64/64 63/63/63 61/61/61
f 67/67/67 66/66/66 65/65/65
f 68/68/68 67/67/67 65/65/65
f 71/71/71 70/70/70 69/69/69
f 72/72/72 71/71/71 69/69/69
f 75/75/75 74/74/74 73/73/73
f 76/76/76 75/75/75 73/73/73
f 79/79/79 78/78/78 77/77/77
f 80/80/80 79/79/79 77/77/77
f 83/83/83 82/82/82 81/81/81
f 84/84/84 83/83/83 81/81/81
f 87/87/87 86/86/86 85/85/85
f 88/88/88 87/87/87 85/85/85
