g aztecTempleWaterFall
v -9.274981 5.78855 3.916374
v -9.831069 5.817329 3.837288
v -9.799979 5.833188 3.811801
v -9.243893 5.804409 3.878366
v -9.151954 5.762157 3.891172
v -9.183043 5.746299 3.93159
v -9.151954 5.762157 3.461465
v -9.243893 5.804409 3.474274
v -9.79998 5.833188 3.540837
v -9.183043 5.746299 3.421047
v -9.274981 5.78855 3.436264
v -9.831069 5.817329 3.51535
v -9.145599 3.590293 3.997641
v -9.145599 4.788002 3.971783
v -9.114511 4.788002 3.925002
v -9.11451 3.590293 3.946766
v -9.11451 5.668158 3.900081
v -9.145599 5.6523 3.942175
v -9.145599 1.684834 4.0261
v -9.11451 1.684834 3.97072
v -9.183043 5.746299 3.93159
v -9.151954 5.762157 3.891172
v -9.11451 1.684834 3.381919
v -9.11451 3.590293 3.405872
v -9.11451 4.788002 3.427637
v -9.11451 5.668158 3.452557
v -9.151954 5.762157 3.461465
v -9.145599 1.684834 3.326536
v -9.145599 3.590293 3.354996
v -9.145599 4.788002 3.380855
v -9.145599 5.6523 3.410462
v -9.183043 5.746299 3.421047
v 9.34894 5.78855 3.44345
v 9.905027 5.817329 3.522535
v 9.873939 5.833188 3.548022
v 9.317851 5.804409 3.481457
v 9.225912 5.762157 3.468651
v 9.257002 5.746299 3.428234
v 9.225912 5.762157 3.898358
v 9.317851 5.804409 3.885549
v 9.873939 5.833188 3.818987
v 9.257002 5.746299 3.938777
v 9.34894 5.78855 3.923559
v 9.905027 5.817329 3.844474
v 9.219558 3.590293 3.362183
v 9.219558 4.788002 3.388041
v 9.188469 4.788002 3.434822
v 9.188468 3.590293 3.413058
v 9.188468 5.668158 3.459742
v 9.219558 5.6523 3.417649
v 9.219558 1.684834 3.333723
v 9.188468 1.684834 3.389104
v 9.257002 5.746299 3.428234
v 9.225912 5.762157 3.468651
v 9.188468 1.684834 3.977904
v 9.188468 3.590293 3.953951
v 9.188468 4.788002 3.932186
v 9.188468 5.668158 3.907267
v 9.225912 5.762157 3.898358
v 9.219558 1.684834 4.033287
v 9.219558 3.590293 4.004828
v 9.219558 4.788002 3.978968
v 9.219558 5.6523 3.949362
v 9.257002 5.746299 3.938777
v -3.841542 3.011749 -8.781566
v -3.762456 3.040528 -9.337653
v -3.440518 3.040528 -9.337653
v -3.361433 3.011749 -8.781566
v -3.346216 2.969497 -8.689628
v -3.856759 2.969497 -8.689628
v -3.92281 1.709373 -8.652184
v -3.896951 2.357213 -8.652184
v -3.306023 2.357213 -8.652184
v -3.280164 1.709373 -8.652184
v -3.335631 2.875498 -8.652184
v -3.867343 2.875498 -8.652184
v -3.951269 1.061533 -8.652184
v -3.251705 1.061533 -8.652184
v -3.856759 2.969497 -8.689628
v -3.346216 2.969497 -8.689628
v 3.337817 3.011749 -8.781566
v 3.416902 3.040528 -9.337653
v 3.738841 3.040528 -9.337653
v 3.817926 3.011749 -8.781566
v 3.833143 2.969497 -8.689628
v 3.3226 2.969497 -8.689628
v 3.256549 1.709373 -8.652184
v 3.282408 2.357213 -8.652184
v 3.873336 2.357213 -8.652184
v 3.899194 1.709373 -8.652184
v 3.843728 2.875498 -8.652184
v 3.312015 2.875498 -8.652184
v 3.228089 1.061533 -8.652184
v 3.927653 1.061533 -8.652184
v 3.3226 2.969497 -8.689628
v 3.833143 2.969497 -8.689628
vt 0 0.7971874
vt 9.014867E-08 0.9999999
vt 0.07916678 0.9999999
vt 0.0791667 0.7971874
vt 0.0791667 0.75
vt 0 0.75
vt 0.9208332 0.75
vt 0.9208332 0.7971876
vt 0.9208331 1
vt 1 0.75
vt 1 0.7971876
vt 0.9999999 1
vt 0 0.25
vt 0 0.5
vt 0.07916667 0.5
vt 0.0791667 0.25
vt 0.07916701 0.700005
vt 0 0.700005
vt 0 0
vt 0.0791667 0
vt 0 0.75
vt 0.0791667 0.75
vt 0.9208332 0
vt 0.9208332 0.25
vt 0.9208329 0.5
vt 0.9208333 0.7000051
vt 0.9208332 0.75
vt 1 0
vt 1 0.25
vt 0.9999996 0.5
vt 1 0.7000051
vt 1 0.75
vt 0 0.7971874
vt 9.014867E-08 0.9999999
vt 0.07916678 0.9999999
vt 0.0791667 0.7971874
vt 0.0791667 0.75
vt 0 0.75
vt 0.9208332 0.75
vt 0.9208332 0.7971876
vt 0.9208331 1
vt 1 0.75
vt 1 0.7971876
vt 0.9999999 1
vt 0 0.25
vt 0 0.5
vt 0.07916667 0.5
vt 0.0791667 0.25
vt 0.07916701 0.700005
vt 0 0.700005
vt 0 0
vt 0.0791667 0
vt 0 0.75
vt 0.0791667 0.75
vt 0.9208332 0
vt 0.9208332 0.25
vt 0.9208329 0.5
vt 0.9208333 0.7000051
vt 0.9208332 0.75
vt 1 0
vt 1 0.25
vt 0.9999996 0.5
vt 1 0.7000051
vt 1 0.75
vt 0 0.7971874
vt 9.014867E-08 0.9999999
vt 0.9999999 1
vt 1 0.7971876
vt 1 0.75
vt 0 0.75
vt 0 0.25
vt 0 0.5
vt 0.9999996 0.5
vt 1 0.25
vt 1 0.7000051
vt 0 0.700005
vt 0 0
vt 1 0
vt 0 0.75
vt 1 0.75
vt 0 0.7971874
vt 9.014867E-08 0.9999999
vt 0.9999999 1
vt 1 0.7971876
vt 1 0.75
vt 0 0.75
vt 0 0.25
vt 0 0.5
vt 0.9999996 0.5
vt 1 0.25
vt 1 0.7000051
vt 0 0.700005
vt 0 0
vt 1 0
vt 0 0.75
vt 1 0.75
vn 0.02521978 0.8907362 0.4538203
vn -0.01088562 0.8987662 0.4382932
vn 0.04373915 0.9972336 0.06010019
vn 0.1257527 0.9911739 0.04195971
vn 0.4103783 0.9104008 0.05253556
vn 0.2809797 0.7914342 0.5428466
vn 0.4103776 0.910401 -0.05253731
vn 0.1257532 0.9911738 -0.04195976
vn 0.04373928 0.9972336 -0.06009992
vn 0.2809833 0.791447 -0.5428258
vn 0.02522409 0.8907433 -0.4538062
vn -0.01088316 0.898773 -0.4382792
vn 0.8434814 0.01067711 0.5370523
vn 0.8434814 0.01067711 0.5370523
vn 0.9985613 0.001066411 0.05361145
vn 0.998445 0.001108635 0.05573539
vn 0.9980265 0.03650208 0.05109252
vn 0.8107715 0.04401509 0.5837056
vn 0.8630624 0.006946343 0.5050493
vn 0.9987017 0.0007005628 0.05093597
vn 0.6838953 0.3393944 0.6458319
vn 0.9248329 0.3750092 0.06365647
vn 0.9987017 0.0007004969 -0.05093577
vn 0.9987704 0.0006817151 -0.04957007
vn 0.9985613 0.001066476 -0.05361067
vn 0.9980265 0.03650203 -0.05109213
vn 0.924833 0.3750089 -0.0636562
vn 0.863071 0.006945519 -0.5050349
vn 0.863071 0.006945519 -0.5050349
vn 0.8434871 0.01067753 -0.5370432
vn 0.8107759 0.04401406 -0.5836995
vn 0.6839043 0.3393939 -0.6458225
vn -0.02522064 0.8907354 -0.4538219
vn 0.01088538 0.8987653 -0.4382949
vn -0.04373918 0.9972336 -0.06010015
vn -0.1257527 0.9911739 -0.04195966
vn -0.4103787 0.9104007 -0.0525355
vn -0.2809841 0.7914332 -0.5428458
vn -0.4103774 0.9104011 0.05253715
vn -0.125753 0.9911739 0.04195971
vn -0.04373931 0.9972336 0.06009993
vn -0.2809812 0.7914476 0.5428262
vn -0.02522399 0.8907424 0.453808
vn 0.01088294 0.8987719 0.4382813
vn -0.8434831 0.01067671 -0.5370497
vn -0.8434831 0.01067671 -0.5370497
vn -0.9985613 0.0010658 -0.0536114
vn -0.998445 0.001108025 -0.05573536
vn -0.9980265 0.03650144 -0.05109268
vn -0.8107702 0.04401527 -0.5837074
vn -0.8630633 0.006946323 -0.505048
vn -0.9987017 0.0007005624 -0.05093596
vn -0.6838951 0.3393909 -0.6458338
vn -0.9248388 0.3749947 -0.06365675
vn -0.9987017 0.0007005389 0.05093577
vn -0.9987704 0.000681756 0.04957007
vn -0.9985613 0.001065832 0.05361067
vn -0.9980267 0.03650146 0.05109202
vn -0.9248387 0.3749949 0.06365651
vn -0.863071 0.006945936 0.5050349
vn -0.863071 0.006945936 0.5050349
vn -0.8434871 0.01067683 0.5370433
vn -0.8107755 0.04401467 0.5837001
vn -0.6839031 0.3393945 0.6458234
vn 0 0.9913765 0.1310443
vn 0 0.9986635 0.05168393
vn 0 0.9986635 0.05168393
vn 0 0.9913765 0.1310443
vn 0 0.9086408 0.4175785
vn 0 0.9086409 0.4175784
vn 0 0 1
vn 0 0 1
vn 0 0 1
vn 0 0 1
vn 0 0.05239562 0.9986264
vn 0 0.05239572 0.9986264
vn 0 0 1
vn 0 0 1
vn 0 0.3700622 0.929007
vn 0 0.3700622 0.929007
vn 0 0.9913765 0.1310443
vn 0 0.9986635 0.05168393
vn 0 0.9986635 0.05168393
vn 0 0.9913765 0.1310443
vn 0 0.9086408 0.4175785
vn 0 0.9086409 0.4175784
vn 0 0 1
vn 0 0 1
vn 0 0 1
vn 0 0 1
vn 0 0.05239562 0.9986264
vn 0 0.05239572 0.9986264
vn 0 0 1
vn 0 0 1
vn 0 0.3700622 0.929007
vn 0 0.3700622 0.929007
g aztecTempleWaterFall_0
f 3/3/3 2/2/2 1/1/1
f 4/4/4 3/3/3 1/1/1
f 5/5/5 4/4/4 1/1/1
f 6/6/6 5/5/5 1/1/1
f 5/5/5 7/7/7 4/4/4
f 7/7/7 8/8/8 4/4/4
f 4/4/4 8/8/8 3/3/3
f 8/8/8 9/9/9 3/3/3
f 7/7/7 10/10/10 8/8/8
f 10/10/10 11/11/11 8/8/8
f 8/8/8 11/11/11 9/9/9
f 11/11/11 12/12/12 9/9/9
f 15/15/15 14/14/14 13/13/13
f 16/16/16 15/15/15 13/13/13
f 15/15/15 17/17/17 14/14/14
f 17/17/17 18/18/18 14/14/14
f 16/16/16 13/13/13 19/19/19
f 20/20/20 16/16/16 19/19/19
f 18/18/18 17/17/17 21/21/21
f 17/17/17 22/22/22 21/21/21
f 20/20/20 23/23/23 16/16/16
f 23/23/23 24/24/24 16/16/16
f 16/16/16 24/24/24 15/15/15
f 24/24/24 25/25/25 15/15/15
f 15/15/15 25/25/25 17/17/17
f 25/25/25 26/26/26 17/17/17
f 17/17/17 26/26/26 22/22/22
f 26/26/26 27/27/27 22/22/22
f 23/23/23 28/28/28 24/24/24
f 28/28/28 29/29/29 24/24/24
f 24/24/24 29/29/29 25/25/25
f 29/29/29 30/30/30 25/25/25
f 25/25/25 30/30/30 26/26/26
f 30/30/30 31/31/31 26/26/26
f 26/26/26 31/31/31 27/27/27
f 31/31/31 32/32/32 27/27/27
f 35/35/35 34/34/34 33/33/33
f 36/36/36 35/35/35 33/33/33
f 37/37/37 36/36/36 33/33/33
f 38/38/38 37/37/37 33/33/33
f 37/37/37 39/39/39 36/36/36
f 39/39/39 40/40/40 36/36/36
f 36/36/36 40/40/40 35/35/35
f 40/40/40 41/41/41 35/35/35
f 39/39/39 42/42/42 40/40/40
f 42/42/42 43/43/43 40/40/40
f 40/40/40 43/43/43 41/41/41
f 43/43/43 44/44/44 41/41/41
f 47/47/47 46/46/46 45/45/45
f 48/48/48 47/47/47 45/45/45
f 47/47/47 49/49/49 46/46/46
f 49/49/49 50/50/50 46/46/46
f 48/48/48 45/45/45 51/51/51
f 52/52/52 48/48/48 51/51/51
f 50/50/50 49/49/49 53/53/53
f 49/49/49 54/54/54 53/53/53
f 52/52/52 55/55/55 48/48/48
f 55/55/55 56/56/56 48/48/48
f 48/48/48 56/56/56 47/47/47
f 56/56/56 57/57/57 47/47/47
f 47/47/47 57/57/57 49/49/49
f 57/57/57 58/58/58 49/49/49
f 49/49/49 58/58/58 54/54/54
f 58/58/58 59/59/59 54/54/54
f 55/55/55 60/60/60 56/56/56
f 60/60/60 61/61/61 56/56/56
f 56/56/56 61/61/61 57/57/57
f 61/61/61 62/62/62 57/57/57
f 57/57/57 62/62/62 58/58/58
f 62/62/62 63/63/63 58/58/58
f 58/58/58 63/63/63 59/59/59
f 63/63/63 64/64/64 59/59/59
f 67/67/67 66/66/66 65/65/65
f 68/68/68 67/67/67 65/65/65
f 69/69/69 68/68/68 65/65/65
f 70/70/70 69/69/69 65/65/65
f 73/73/73 72/72/72 71/71/71
f 74/74/74 73/73/73 71/71/71
f 73/73/73 75/75/75 72/72/72
f 75/75/75 76/76/76 72/72/72
f 74/74/74 71/71/71 77/77/77
f 78/78/78 74/74/74 77/77/77
f 76/76/76 75/75/75 79/79/79
f 75/75/75 80/80/80 79/79/79
f 83/83/83 82/82/82 81/81/81
f 84/84/84 83/83/83 81/81/81
f 85/85/85 84/84/84 81/81/81
f 86/86/86 85/85/85 81/81/81
f 89/89/89 88/88/88 87/87/87
f 90/90/90 89/89/89 87/87/87
f 89/89/89 91/91/91 88/88/88
f 91/91/91 92/92/92 88/88/88
f 90/90/90 87/87/87 93/93/93
f 94/94/94 90/90/90 93/93/93
f 92/92/92 91/91/91 95/95/95
f 91/91/91 96/96/96 95/95/95
