g bastardWood
v 0.0260765 -0.03257111 -0.4719773
v -0.2121826 -0.3413585 0.2545985
v 0.2576709 -0.1071044 -0.3356834
v -0.2121826 -0.3413585 0.2545985
v 0.003422707 -0.2154096 0.4297362
v 0.2576709 -0.1071044 -0.3356834
v 0.2576709 -0.1071044 -0.3356834
v 0.003422707 -0.2154096 0.4297362
v 0.3633164 0.072193 -0.2116365
v 0.003422707 -0.2154096 0.4297362
v 0.01092243 0.008267552 0.5062798
v 0.3633164 0.072193 -0.2116365
v 0.3525385 0.2938136 -0.1523656
v 0.3633164 0.072193 -0.2116365
v -0.09679517 0.1878124 0.4969554
v 0.3633164 0.072193 -0.2116365
v 0.01092243 0.008267552 0.5062798
v -0.09679517 0.1878124 0.4969554
v 0.3525385 0.2938136 -0.1523656
v -0.09679517 0.1878124 0.4969554
v 0.1932506 0.4558848 -0.1966526
v -0.09679517 0.1878124 0.4969554
v -0.3140551 0.2523254 0.3840576
v 0.1932506 0.4558848 -0.1966526
v 0.02743727 0.4845383 -0.3004425
v 0.1932506 0.4558848 -0.1966526
v -0.4850177 0.2171927 0.2670774
v 0.1932506 0.4558848 -0.1966526
v -0.3140551 0.2523254 0.3840576
v -0.4850177 0.2171927 0.2670774
v 0.02743727 0.4845383 -0.3004425
v -0.4850177 0.2171927 0.2670774
v -0.09444472 0.3572905 -0.417268
v -0.4850177 0.2171927 0.2670774
v -0.5271243 -0.05046219 0.1544425
v -0.09444472 0.3572905 -0.417268
v -0.09444472 0.3572905 -0.417268
v -0.5271243 -0.05046219 0.1544425
v -0.08875421 0.09846523 -0.4862654
v -0.5271243 -0.05046219 0.1544425
v -0.3987477 -0.2524752 0.1695965
v -0.08875421 0.09846523 -0.4862654
v 0.0260765 -0.03257111 -0.4719773
v -0.08875421 0.09846523 -0.4862654
v -0.2121826 -0.3413585 0.2545985
v -0.08875421 0.09846523 -0.4862654
v -0.3987477 -0.2524752 0.1695965
v -0.2121826 -0.3413585 0.2545985
v -0.4495912 -0.03654519 0.1792611
v -0.4183553 0.1498035 0.2592994
v -0.2362435 0.01559719 0.3295648
v -0.302705 0.1884154 0.3430178
v -0.1194335 0.1339845 0.438303
v -0.04128179 0.003783196 0.4450759
v -0.04678676 -0.161025 0.388743
v -0.3509506 -0.1920136 0.1909978
v -0.2125228 -0.2577637 0.2538099
v 0.2906232 0.2674794 -0.17621
v 0.1654012 0.3940623 -0.2100438
v 0.1228151 0.1887092 -0.3060866
v 0.2987415 0.09161493 -0.2225227
v 0.1228151 0.1887092 -0.3060866
v 0.2189198 -0.04373562 -0.3159367
v 0.03951415 0.01490131 -0.4238863
v 0.1654012 0.3940623 -0.2100438
v 0.04132336 0.4159739 -0.2892315
v 0.1228151 0.1887092 -0.3060866
v -0.05046698 0.3202558 -0.3766767
v -0.04667851 0.1100782 -0.4313087
v -0.4850177 0.2171927 0.2670774
v -0.4430502 0.1611381 0.2755513
v -0.4769149 -0.04447788 0.187766
v -0.5271243 -0.05046219 0.1544425
v -0.3140551 0.2523254 0.3840576
v -0.3142715 0.1989923 0.3671871
v -0.09679517 0.1878124 0.4969554
v -0.1229282 0.1421646 0.4666472
v 0.01092243 0.008267552 0.5062798
v -0.03778705 0.0002420843 0.4740078
v 0.003422707 -0.2154096 0.4297362
v -0.04378685 -0.1785914 0.4128503
v -0.3711611 -0.2110025 0.2003377
v -0.3987477 -0.2524752 0.1695965
v -0.2213059 -0.2822885 0.2684073
v -0.2121826 -0.3413585 0.2545985
v 0.0260765 -0.03257111 -0.4719773
v 0.04418406 0.007602632 -0.4475143
v -0.04879698 0.1112534 -0.4565603
v -0.08875421 0.09846523 -0.4862654
v -0.08875421 0.09846523 -0.4862654
v -0.04879698 0.1112534 -0.4565603
v -0.05301848 0.3329358 -0.3985264
v -0.09444472 0.3572905 -0.417268
v 0.04588503 0.4361071 -0.3041227
v 0.02743727 0.4845383 -0.3004425
v 0.1798439 0.4126029 -0.2191208
v 0.1932506 0.4558848 -0.1966526
v 0.1932506 0.4558848 -0.1966526
v 0.1798439 0.4126029 -0.2191208
v 0.313107 0.2776389 -0.1828283
v 0.3525385 0.2938136 -0.1523656
v 0.3218592 0.09095004 -0.2321873
v 0.3633164 0.072193 -0.2116365
v 0.2359294 -0.05480739 -0.3328536
v 0.2576709 -0.1071044 -0.3356834
v 0.04418406 0.007602632 -0.4475143
v 0.0260765 -0.03257111 -0.4719773
v -0.4430502 0.1611381 0.2755513
v -0.4183553 0.1498035 0.2592994
v -0.4495912 -0.03654519 0.1792611
v -0.4769149 -0.04447788 0.187766
v -0.04378685 -0.1785914 0.4128503
v -0.04678676 -0.161025 0.388743
v -0.04128179 0.003783196 0.4450759
v -0.03778705 0.0002420843 0.4740078
v -0.03778705 0.0002420843 0.4740078
v -0.04128179 0.003783196 0.4450759
v -0.1194335 0.1339845 0.438303
v -0.1229282 0.1421646 0.4666472
v -0.1229282 0.1421646 0.4666472
v -0.1194335 0.1339845 0.438303
v -0.302705 0.1884154 0.3430178
v -0.3142715 0.1989923 0.3671871
v -0.3142715 0.1989923 0.3671871
v -0.302705 0.1884154 0.3430178
v -0.4183553 0.1498035 0.2592994
v -0.4430502 0.1611381 0.2755513
v -0.4769149 -0.04447788 0.187766
v -0.4495912 -0.03654519 0.1792611
v -0.3509506 -0.1920136 0.1909978
v -0.3711611 -0.2110025 0.2003377
v -0.3711611 -0.2110025 0.2003377
v -0.3509506 -0.1920136 0.1909978
v -0.2125228 -0.2577637 0.2538099
v -0.2213059 -0.2822885 0.2684073
v -0.2213059 -0.2822885 0.2684073
v -0.2125228 -0.2577637 0.2538099
v -0.04678676 -0.161025 0.388743
v -0.04378685 -0.1785914 0.4128503
v 0.04418406 0.007602632 -0.4475143
v 0.03951415 0.01490131 -0.4238863
v -0.04667851 0.1100782 -0.4313087
v -0.04879698 0.1112534 -0.4565603
v -0.04879698 0.1112534 -0.4565603
v -0.04667851 0.1100782 -0.4313087
v -0.05046698 0.3202558 -0.3766767
v -0.05301848 0.3329358 -0.3985264
v -0.05301848 0.3329358 -0.3985264
v -0.05046698 0.3202558 -0.3766767
v 0.04132336 0.4159739 -0.2892315
v 0.04588503 0.4361071 -0.3041227
v 0.04588503 0.4361071 -0.3041227
v 0.04132336 0.4159739 -0.2892315
v 0.1654012 0.3940623 -0.2100438
v 0.1798439 0.4126029 -0.2191208
v 0.1798439 0.4126029 -0.2191208
v 0.1654012 0.3940623 -0.2100438
v 0.2906232 0.2674794 -0.17621
v 0.313107 0.2776389 -0.1828283
v 0.313107 0.2776389 -0.1828283
v 0.2906232 0.2674794 -0.17621
v 0.2987415 0.09161493 -0.2225227
v 0.3218592 0.09095004 -0.2321873
v 0.3218592 0.09095004 -0.2321873
v 0.2987415 0.09161493 -0.2225227
v 0.2189198 -0.04373562 -0.3159367
v 0.2359294 -0.05480739 -0.3328536
v 0.2359294 -0.05480739 -0.3328536
v 0.2189198 -0.04373562 -0.3159367
v 0.03951415 0.01490131 -0.4238863
v 0.04418406 0.007602632 -0.4475143
v 0.03951415 0.01490131 -0.4238863
v 0.1228151 0.1887092 -0.3060866
v -0.04667851 0.1100782 -0.4313087
vt 0.05632152 0.5236605
vt 0.0741249 0.5219914
vt 0.08358295 0.5208787
vt 0.0741249 0.5219914
vt 0.09582278 0.537013
vt 0.08358295 0.5208787
vt 0.08358295 0.5208787
vt 0.09582278 0.537013
vt 0.09582278 0.5420202
vt 0.09582278 0.537013
vt 0.09637914 0.5570418
vt 0.09582278 0.5420202
vt 0.09415371 0.5648308
vt 0.09582278 0.5420202
vt 0.08525202 0.571507
vt 0.09582278 0.5420202
vt 0.09637914 0.5570418
vt 0.08525202 0.571507
vt 0.09415371 0.5648308
vt 0.08525202 0.571507
vt 0.07579397 0.5787397
vt 0.08525202 0.571507
vt 0.0641105 0.5737325
vt 0.07579397 0.5787397
vt 0.05632152 0.5781834
vt 0.07579397 0.5787397
vt 0.04686347 0.571507
vt 0.07579397 0.5787397
vt 0.0641105 0.5737325
vt 0.04686347 0.571507
vt 0.05632152 0.5781834
vt 0.04686347 0.571507
vt 0.04185627 0.5626054
vt 0.04686347 0.571507
vt 0.04296897 0.5425766
vt 0.04185627 0.5626054
vt 0.04185627 0.5626054
vt 0.04296897 0.5425766
vt 0.04352533 0.5359003
vt 0.04296897 0.5425766
vt 0.05576516 0.5264422
vt 0.04352533 0.5359003
vt 0.05632152 0.5236605
vt 0.04352533 0.5359003
vt 0.0741249 0.5219914
vt 0.04352533 0.5359003
vt 0.05576516 0.5264422
vt 0.0741249 0.5219914
vt 0.0123694 0.2966672
vt 0.02015839 0.3417321
vt 0.06800499 0.3183651
vt 0.0502016 0.3561973
vt 0.0980482 0.3511901
vt 0.1186334 0.3239287
vt 0.1175207 0.2849838
vt 0.03851813 0.2643986
vt 0.0741249 0.2549405
vt 0.1136262 0.3411757
vt 0.07579397 0.3695498
vt 0.06299779 0.3111325
vt 0.1169643 0.2938855
vt 0.06299779 0.3111325
vt 0.093041 0.2527151
vt 0.03684906 0.2582787
vt 0.07579397 0.3695498
vt 0.03740542 0.3684371
vt 0.06299779 0.3111325
vt 0.009587625 0.3378376
vt 0.0123694 0.2810893
vt 0.04686347 0.571507
vt 0.05131432 0.5670562
vt 0.04797618 0.5442456
vt 0.04296897 0.5425766
vt 0.0641105 0.5737325
vt 0.0641105 0.5687253
vt 0.08525202 0.571507
vt 0.0830266 0.5670562
vt 0.09637914 0.5570418
vt 0.09137193 0.5553727
vt 0.09582278 0.537013
vt 0.09081558 0.5392384
vt 0.05854694 0.5308931
vt 0.05576516 0.5264422
vt 0.07356855 0.5269986
vt 0.0741249 0.5219914
vt 0.05632152 0.5236605
vt 0.05799058 0.5281113
vt 0.04797618 0.5381257
vt 0.04352533 0.5359003
vt 0.04352533 0.5359003
vt 0.04797618 0.5381257
vt 0.04686347 0.5609363
vt 0.04185627 0.5626054
vt 0.05854694 0.5737325
vt 0.05632152 0.5781834
vt 0.0741249 0.5737325
vt 0.07579397 0.5787397
vt 0.07579397 0.5787397
vt 0.0741249 0.5737325
vt 0.08970287 0.562049
vt 0.09415371 0.5648308
vt 0.09081558 0.5431329
vt 0.09582278 0.5420202
vt 0.08135753 0.5258859
vt 0.08358295 0.5208787
vt 0.05799058 0.5281113
vt 0.05632152 0.5236605
vt 0.05131432 0.5670562
vt 0.05242702 0.5659435
vt 0.04964525 0.5442456
vt 0.04797618 0.5442456
vt 0.09081558 0.5392384
vt 0.08970287 0.5403512
vt 0.09025922 0.5548164
vt 0.09137193 0.5553727
vt 0.09137193 0.5553727
vt 0.09025922 0.5548164
vt 0.08191388 0.5653871
vt 0.0830266 0.5670562
vt 0.0830266 0.5670562
vt 0.08191388 0.5653871
vt 0.0641105 0.5670562
vt 0.0641105 0.5687253
vt 0.0641105 0.5687253
vt 0.0641105 0.5670562
vt 0.05242702 0.5659435
vt 0.05131432 0.5670562
vt 0.04797618 0.5442456
vt 0.04964525 0.5442456
vt 0.05965965 0.5320058
vt 0.05854694 0.5308931
vt 0.05854694 0.5308931
vt 0.05965965 0.5320058
vt 0.07301219 0.5286676
vt 0.07356855 0.5269986
vt 0.07356855 0.5269986
vt 0.07301219 0.5286676
vt 0.08970287 0.5403512
vt 0.09081558 0.5392384
vt 0.05799058 0.5281113
vt 0.05854694 0.5297804
vt 0.04964525 0.538682
vt 0.04797618 0.5381257
vt 0.04797618 0.5381257
vt 0.04964525 0.538682
vt 0.04853254 0.5603799
vt 0.04686347 0.5609363
vt 0.04686347 0.5609363
vt 0.04853254 0.5603799
vt 0.0591033 0.5720634
vt 0.05854694 0.5737325
vt 0.05854694 0.5737325
vt 0.0591033 0.5720634
vt 0.07356855 0.5726198
vt 0.0741249 0.5737325
vt 0.0741249 0.5737325
vt 0.07356855 0.5726198
vt 0.0880338 0.5614926
vt 0.08970287 0.562049
vt 0.08970287 0.562049
vt 0.0880338 0.5614926
vt 0.08970287 0.5436893
vt 0.09081558 0.5431329
vt 0.09081558 0.5431329
vt 0.08970287 0.5436893
vt 0.08024482 0.5275549
vt 0.08135753 0.5258859
vt 0.08135753 0.5258859
vt 0.08024482 0.5275549
vt 0.05854694 0.5297804
vt 0.05799058 0.5281113
vt 0.03684906 0.2582787
vt 0.06299779 0.3111325
vt 0.0123694 0.2810893
vn -0.05722862 -0.909638 -0.4114408
vn -0.05722862 -0.909638 -0.4114408
vn -0.05722862 -0.909638 -0.4114408
vn 0.4801077 -0.8772096 0
vn 0.4801077 -0.8772096 0
vn 0.4801077 -0.8772096 0
vn 0.7848811 -0.5899483 0.1895329
vn 0.7848811 -0.5899483 0.1895329
vn 0.7848811 -0.5899483 0.1895329
vn 0.8862461 -0.1766908 0.4281919
vn 0.8862461 -0.1766908 0.4281919
vn 0.8862461 -0.1766908 0.4281919
vn 0.8238676 -0.1065149 0.5566837
vn 0.8238676 -0.1065149 0.5566837
vn 0.8238676 -0.1065149 0.5566837
vn 0.7692865 0.4860807 0.4146371
vn 0.7692865 0.4860807 0.4146371
vn 0.7692865 0.4860807 0.4146371
vn 0.5509617 0.6732163 0.4931744
vn 0.5509617 0.6732163 0.4931744
vn 0.5509617 0.6732163 0.4931744
vn 0.07532567 0.9227303 0.3780144
vn 0.07532567 0.9227303 0.3780144
vn 0.07532567 0.9227303 0.3780144
vn -0.07282323 0.9227303 0.3785045
vn -0.07282323 0.9227303 0.3785045
vn -0.07282323 0.9227303 0.3785045
vn -0.267756 0.9617168 0.0583731
vn -0.267756 0.9617168 0.0583731
vn -0.267756 0.9617168 0.0583731
vn -0.6108378 0.766784 -0.1972803
vn -0.6108378 0.766784 -0.1972803
vn -0.6108378 0.766784 -0.1972803
vn -0.8525544 0.3145398 -0.4173916
vn -0.8525544 0.3145398 -0.4173916
vn -0.8525544 0.3145398 -0.4173916
vn -0.8291625 0.1274044 -0.5442955
vn -0.8291625 0.1274044 -0.5442955
vn -0.8291625 0.1274044 -0.5442955
vn -0.6732163 -0.4729886 -0.5683851
vn -0.6732163 -0.4729886 -0.5683851
vn -0.6732163 -0.4729886 -0.5683851
vn -0.642027 -0.6133402 -0.4600165
vn -0.642027 -0.6133402 -0.4600165
vn -0.642027 -0.6133402 -0.4600165
vn -0.1585937 -0.8394622 -0.5197607
vn -0.1585937 -0.8394622 -0.5197607
vn -0.1585937 -0.8394622 -0.5197607
vn -0.5094727 -0.2624612 0.8194826
vn -0.5094727 -0.2624612 0.8194826
vn -0.5094727 -0.2624612 0.8194826
vn -0.5016754 -0.2546639 0.8267213
vn -0.5016754 -0.2624612 0.824279
vn -0.5016754 -0.2624612 0.824279
vn -0.5016754 -0.2624612 0.824279
vn -0.5094727 -0.2624612 0.8194826
vn -0.5016754 -0.2702585 0.8217555
vn 0.5041778 0.2755533 -0.818459
vn 0.5041778 0.2755533 -0.818459
vn 0.5041778 0.2755533 -0.818459
vn 0.5197725 0.2365668 -0.8208975
vn 0.5509617 0.2599587 -0.7930086
vn 0.5275698 0.2521614 -0.8112242
vn 0.558759 0.267756 -0.7849172
vn 0.5509617 0.2599587 -0.7930086
vn 0.5197725 0.2443641 -0.8186103
vn 0.5119752 0.2287695 -0.827977
vn 0.5119752 0.2287695 -0.827977
vn 0.5119752 0.2287695 -0.827977
vn -0.5094727 -0.2624612 0.8194826
vn -0.5094727 -0.2624612 0.8194826
vn -0.5094727 -0.2624612 0.8194826
vn -0.5094727 -0.2624612 0.8194826
vn -0.5016754 -0.2546639 0.8267213
vn -0.5016754 -0.2546639 0.8267213
vn -0.5016754 -0.2624612 0.824279
vn -0.5016754 -0.2624612 0.824279
vn -0.5016754 -0.2624612 0.824279
vn -0.5016754 -0.2624612 0.824279
vn -0.5016754 -0.2624612 0.824279
vn -0.5016754 -0.2624612 0.824279
vn -0.5094727 -0.2624612 0.8194826
vn -0.5094727 -0.2624612 0.8194826
vn -0.5016754 -0.2702585 0.8217555
vn -0.5016754 -0.2702585 0.8217555
vn 0.4651912 0.3301346 -0.8213454
vn 0.4651912 0.3301346 -0.8213454
vn 0.4651912 0.3301346 -0.8213454
vn 0.4651912 0.3301346 -0.8213454
vn 0.5197725 0.2287695 -0.8231046
vn 0.5197725 0.2287695 -0.8231046
vn 0.5197725 0.2287695 -0.8231046
vn 0.5197725 0.2287695 -0.8231046
vn 0.5197725 0.2521614 -0.8162421
vn 0.5197725 0.2521614 -0.8162421
vn 0.5431644 0.2599587 -0.7983696
vn 0.5431644 0.2599587 -0.7983696
vn 0.5041778 0.2755533 -0.818459
vn 0.5041778 0.2755533 -0.818459
vn 0.5041778 0.2755533 -0.818459
vn 0.5041778 0.2755533 -0.818459
vn 0.5197725 0.2443641 -0.8186103
vn 0.5197725 0.2443641 -0.8186103
vn 0.5197725 0.2599587 -0.8137924
vn 0.5197725 0.2599587 -0.8137924
vn 0.5509617 0.2521614 -0.7955223
vn 0.5509617 0.2521614 -0.7955223
vn 0.3716235 -0.4184074 0.8287528
vn 0.3716235 -0.4184074 0.8287528
vn 0.3716235 -0.4184074 0.8287528
vn 0.3716235 -0.4184074 0.8287528
vn -0.992906 -0.005149901 0.1187902
vn -0.992906 -0.005149901 0.1187902
vn -0.992906 -0.005149901 0.1187902
vn -0.992906 -0.005149901 0.1187902
vn -0.859354 -0.5113814 0
vn -0.859354 -0.5113814 0
vn -0.859354 -0.5113814 0
vn -0.859354 -0.5113814 0
vn -0.3769184 -0.9018407 0.2112247
vn -0.3769184 -0.9018407 0.2112247
vn -0.3769184 -0.9018407 0.2112247
vn -0.3769184 -0.9018407 0.2112247
vn -0.04163402 -0.8940434 0.4460414
vn -0.04163402 -0.8940434 0.4460414
vn -0.04163402 -0.8940434 0.4460414
vn -0.04163402 -0.8940434 0.4460414
vn 0.2312719 0.2209721 0.9474622
vn 0.2312719 0.2209721 0.9474622
vn 0.2312719 0.2209721 0.9474622
vn 0.2312719 0.2209721 0.9474622
vn -0.1196072 0.540662 0.8326936
vn -0.1196072 0.540662 0.8326936
vn -0.1196072 0.540662 0.8326936
vn -0.1196072 0.540662 0.8326936
vn -0.6966081 0.5328646 0.4804086
vn -0.6966081 0.5328646 0.4804086
vn -0.6966081 0.5328646 0.4804086
vn -0.6966081 0.5328646 0.4804086
vn 0.7458945 0.6654189 -0.0293101
vn 0.7458945 0.6654189 -0.0293101
vn 0.7458945 0.6654189 -0.0293101
vn 0.7458945 0.6654189 -0.0293101
vn 0.9954085 0.04163402 -0.08618908
vn 0.9954085 0.04163402 -0.08618908
vn 0.9954085 0.04163402 -0.08618908
vn 0.9954085 0.04163402 -0.08618908
vn 0.8160703 -0.4495966 -0.3631696
vn 0.8160703 -0.4495966 -0.3631696
vn 0.8160703 -0.4495966 -0.3631696
vn 0.8160703 -0.4495966 -0.3631696
vn 0.3482316 -0.6133402 -0.7089066
vn 0.3482316 -0.6133402 -0.7089066
vn 0.3482316 -0.6133402 -0.7089066
vn 0.3482316 -0.6133402 -0.7089066
vn -0.1118098 -0.3638262 -0.9247319
vn -0.1118098 -0.3638262 -0.9247319
vn -0.1118098 -0.3638262 -0.9247319
vn -0.1118098 -0.3638262 -0.9247319
vn -0.3691211 0.2209721 -0.9027297
vn -0.3691211 0.2209721 -0.9027297
vn -0.3691211 0.2209721 -0.9027297
vn -0.3691211 0.2209721 -0.9027297
vn -0.2755533 0.6498243 -0.7083775
vn -0.2755533 0.6498243 -0.7083775
vn -0.2755533 0.6498243 -0.7083775
vn -0.2755533 0.6498243 -0.7083775
vn 0.4028128 0.8915409 -0.2071149
vn 0.4028128 0.8915409 -0.2071149
vn 0.4028128 0.8915409 -0.2071149
vn 0.4028128 0.8915409 -0.2071149
vn 0.4495966 0.3457292 -0.8236105
vn 0.4495966 0.3457292 -0.8236105
vn 0.4495966 0.3457292 -0.8236105
g bastardWood_0
f 3/3/3 2/2/2 1/1/1
f 6/6/6 5/5/5 4/4/4
f 9/9/9 8/8/8 7/7/7
f 12/12/12 11/11/11 10/10/10
f 15/15/15 14/14/14 13/13/13
f 18/18/18 17/17/17 16/16/16
f 21/21/21 20/20/20 19/19/19
f 24/24/24 23/23/23 22/22/22
f 27/27/27 26/26/26 25/25/25
f 30/30/30 29/29/29 28/28/28
f 33/33/33 32/32/32 31/31/31
f 36/36/36 35/35/35 34/34/34
f 39/39/39 38/38/38 37/37/37
f 42/42/42 41/41/41 40/40/40
f 45/45/45 44/44/44 43/43/43
f 48/48/48 47/47/47 46/46/46
f 51/51/51 50/50/50 49/49/49
f 52/52/52 50/50/50 51/51/51
f 53/53/53 52/52/52 51/51/51
f 54/54/54 53/53/53 51/51/51
f 54/54/54 51/51/51 55/55/55
f 51/51/51 49/49/49 56/56/56
f 51/51/51 56/56/56 57/57/57
f 51/51/51 57/57/57 55/55/55
f 60/60/60 59/59/59 58/58/58
f 62/62/62 58/58/58 61/61/61
f 62/62/62 61/61/61 63/63/63
f 62/62/62 63/63/63 64/64/64
f 66/66/66 65/65/65 62/62/62
f 68/68/68 66/66/66 67/67/67
f 69/69/69 68/68/68 67/67/67
f 72/72/72 71/71/71 70/70/70
f 73/73/73 72/72/72 70/70/70
f 70/70/70 71/71/71 74/74/74
f 71/71/71 75/75/75 74/74/74
f 74/74/74 75/75/75 76/76/76
f 75/75/75 77/77/77 76/76/76
f 76/76/76 77/77/77 78/78/78
f 77/77/77 79/79/79 78/78/78
f 78/78/78 79/79/79 80/80/80
f 79/79/79 81/81/81 80/80/80
f 82/82/82 72/72/72 73/73/73
f 83/83/83 82/82/82 73/73/73
f 84/84/84 82/82/82 83/83/83
f 85/85/85 84/84/84 83/83/83
f 81/81/81 84/84/84 85/85/85
f 80/80/80 81/81/81 85/85/85
f 88/88/88 87/87/87 86/86/86
f 89/89/89 88/88/88 86/86/86
f 92/92/92 91/91/91 90/90/90
f 93/93/93 92/92/92 90/90/90
f 94/94/94 92/92/92 93/93/93
f 95/95/95 94/94/94 93/93/93
f 96/96/96 94/94/94 95/95/95
f 97/97/97 96/96/96 95/95/95
f 100/100/100 99/99/99 98/98/98
f 101/101/101 100/100/100 98/98/98
f 102/102/102 100/100/100 101/101/101
f 103/103/103 102/102/102 101/101/101
f 104/104/104 102/102/102 103/103/103
f 105/105/105 104/104/104 103/103/103
f 106/106/106 104/104/104 105/105/105
f 107/107/107 106/106/106 105/105/105
f 110/110/110 109/109/109 108/108/108
f 111/111/111 110/110/110 108/108/108
f 114/114/114 113/113/113 112/112/112
f 115/115/115 114/114/114 112/112/112
f 118/118/118 117/117/117 116/116/116
f 119/119/119 118/118/118 116/116/116
f 122/122/122 121/121/121 120/120/120
f 123/123/123 122/122/122 120/120/120
f 126/126/126 125/125/125 124/124/124
f 127/127/127 126/126/126 124/124/124
f 130/130/130 129/129/129 128/128/128
f 131/131/131 130/130/130 128/128/128
f 134/134/134 133/133/133 132/132/132
f 135/135/135 134/134/134 132/132/132
f 138/138/138 137/137/137 136/136/136
f 139/139/139 138/138/138 136/136/136
f 142/142/142 141/141/141 140/140/140
f 143/143/143 142/142/142 140/140/140
f 146/146/146 145/145/145 144/144/144
f 147/147/147 146/146/146 144/144/144
f 150/150/150 149/149/149 148/148/148
f 151/151/151 150/150/150 148/148/148
f 154/154/154 153/153/153 152/152/152
f 155/155/155 154/154/154 152/152/152
f 158/158/158 157/157/157 156/156/156
f 159/159/159 158/158/158 156/156/156
f 162/162/162 161/161/161 160/160/160
f 163/163/163 162/162/162 160/160/160
f 166/166/166 165/165/165 164/164/164
f 167/167/167 166/166/166 164/164/164
f 170/170/170 169/169/169 168/168/168
f 171/171/171 170/170/170 168/168/168
f 174/174/174 173/173/173 172/172/172
