g boatB_COL
v -4.285698 0.01862526 5.150024
v -4.720073 0.01862526 -2.859217
v -2.634309 0.01862526 -2.755119
v -2.674119 0.01862526 5.359396
v 2.634214 0.02157402 -2.755119
v 2.674025 0.02157402 5.318996
v 2.634214 0.02157402 -2.755119
v 5.756226 0.01862526 -3.021701
v 5.622345 0.01862526 4.95805
v 2.674025 0.02157402 5.318996
v -2.65672 0.6735783 5.362345
v -4.285698 0.7352104 5.150024
v -4.285698 0.01862526 5.150024
v -2.674119 0.01862526 5.359396
v 2.674025 0.02157402 5.318996
v 2.656921 0.6726933 5.321945
v 5.622345 0.01862526 4.95805
v 5.622345 0.7473011 4.95805
v 2.656921 0.6726933 5.321945
v 2.674025 0.02157402 5.318996
v -2.634309 0.6735783 5.632761
v -4.285698 0.7352104 5.416901
v -4.285698 0.7352104 5.150024
v -2.65672 0.6735783 5.362345
v 2.656921 0.6726933 5.321945
v 2.634214 0.6726933 5.59236
v 5.622345 0.7473011 4.95805
v 5.622345 0.7473011 5.224632
v 2.634214 0.6726933 5.59236
v 2.656921 0.6726933 5.321945
v -4.285698 0.01862526 5.150024
v -5.928242 0.01862526 4.500084
v -5.90406 0.01862526 -2.804662
v -4.720073 0.01862526 -2.859217
v -4.285698 0.7352104 5.150024
v -5.928242 0.8157158 4.500084
v -5.928242 0.01862526 4.500084
v -4.285698 0.01862526 5.150024
v -4.285698 0.7352104 5.416901
v -5.928242 0.8157158 4.953037
v -5.928242 0.8157158 4.500084
v -4.285698 0.7352104 5.150024
v -5.90406 0.01862526 -2.804662
v -5.90406 0.7912397 -2.804662
v -4.720073 0.7912397 -2.859217
v -4.720073 0.01862526 -2.859217
v -5.90406 0.7912397 -2.804662
v -6.026146 0.7912397 -3.084218
v -5.014963 0.7912397 -3.288872
v -4.720073 0.7912397 -2.859217
v 5.756226 0.01862526 -3.021701
v 6.648861 0.01862526 -2.511539
v 7.223309 0.01862526 4.078095
v 5.622345 0.01862526 4.95805
v 5.622345 0.01862526 4.95805
v 7.223309 0.01862526 4.078095
v 7.223309 0.8012657 4.078095
v 5.622345 0.7473011 4.95805
v 5.622345 0.7473011 4.95805
v 7.223309 0.8012657 4.078095
v 7.184973 0.8012657 4.515123
v 5.622345 0.7473011 5.224632
v 5.756226 0.01862526 -3.021701
v 5.756226 0.8802967 -3.021701
v 6.648861 0.8847198 -2.511539
v 6.648861 0.01862526 -2.511539
v 5.756226 0.8802967 -3.021701
v 5.985061 0.8802967 -3.356992
v 6.834052 0.8802967 -2.804366
v 6.648861 0.8847198 -2.511539
v 5.756226 0.01862526 -3.021701
v 5.983292 4.673004E-05 -3.360236
v 5.985061 0.8802967 -3.356992
v 5.756226 0.8802967 -3.021701
v -4.720073 0.7912397 -2.859217
v -5.014963 0.7912397 -3.288872
v -5.015554 -0.006145477 -3.289757
v -4.720073 0.01862526 -2.859217
v -7.564592 1.324403 -0.746027
v -5.90406 0.01862526 -2.804662
v -5.928242 0.01862526 4.500084
v -7.731501 1.42673 0.9655199
v -7.564592 1.324403 2.677068
v -5.928242 0.8157158 4.500084
v -7.564592 1.324403 2.677068
v -5.928242 0.01862526 4.500084
v -5.928242 0.8157158 4.953037
v -7.216326 1.07522 4.199295
v -7.564592 1.324403 2.677068
v -5.928242 0.8157158 4.500084
v -5.90406 0.01862526 -2.804662
v -7.564592 1.324403 -0.746027
v -5.90406 0.7912397 -2.804662
v -5.90406 0.7912397 -2.804662
v -7.564592 1.324403 -0.746027
v -7.216326 1.07522 -2.26796
v -6.026146 0.7912397 -3.084218
v 6.648861 0.01862526 -2.511539
v 8.918047 0.3214779 -0.2635851
v 9.002091 0.3214779 2.253309
v 7.223309 0.01862526 4.078095
v 7.223309 0.01862526 4.078095
v 9.002091 0.3214779 2.253309
v 9.407861 1.115914 2.096723
v 7.223309 0.8012657 4.078095
v 7.223309 0.8012657 4.078095
v 9.407861 1.115914 2.096723
v 9.419362 1.083181 2.644925
v 7.184973 0.8012657 4.515123
v 6.648861 0.8847198 -2.511539
v 9.339151 1.157495 -0.2635851
v 8.918047 0.3214779 -0.2635851
v 6.648861 0.01862526 -2.511539
v 6.834052 0.8802967 -2.804366
v 9.372475 1.162212 -0.7613611
v 9.339151 1.157495 -0.2635851
v 6.648861 0.8847198 -2.511539
v 8.918047 0.3214779 -0.2635851
v 9.339151 1.157495 -0.2635851
v 9.407861 1.115914 2.096723
v 9.002091 0.3214779 2.253309
v -2.634309 0.6735783 5.632761
v -2.634309 -1.084268 5.632761
v -4.285698 -1.084268 5.416901
v -4.285698 0.7352104 5.416901
v 5.622345 0.7473011 5.224632
v 5.622345 -1.084268 5.224632
v 2.634214 -1.084268 5.59236
v 2.634214 0.6726933 5.59236
v 2.634214 0.6726933 5.59236
v 2.634214 -1.084268 5.59236
v -2.634309 -1.084268 5.632761
v -2.634309 0.6735783 5.632761
v -4.285698 0.7352104 5.416901
v -4.285698 -1.084268 5.416901
v -5.928242 -1.084268 4.953037
v -5.928242 0.8157158 4.953037
v 7.184973 0.8012657 4.515123
v 7.184973 -1.084268 4.515123
v 5.622345 -1.084268 5.224632
v 5.622345 0.7473011 5.224632
v -5.928242 0.8157158 4.953037
v -5.928242 -1.084268 4.953037
v -7.188606 -1.084268 4.162139
v -7.216326 1.07522 4.199295
v 9.419362 1.083181 2.644925
v 9.419362 -1.084268 2.644925
v 7.184973 -1.084268 4.515123
v 7.184973 0.8012657 4.515123
v -4.720073 0.01862526 -2.859217
v -5.015554 -0.006145477 -3.289757
v -2.634309 4.673004E-05 -3.30804
v -2.634309 0.01862526 -2.755119
v 2.634214 0.02157402 -2.755119
v 2.634214 4.673004E-05 -3.30804
v 5.983292 4.673004E-05 -3.360236
v 5.756226 0.01862526 -3.021701
v -2.634309 0.01862526 -2.755119
v -2.634309 4.673004E-05 -3.30804
v 2.634214 4.673004E-05 -3.30804
v 2.634214 0.02157402 -2.755119
v 9.407861 1.115914 2.096723
v 11.16866 1.328826 1.313197
v 9.419362 1.083181 2.644925
v 9.372475 1.162212 -0.7613611
v 11.15598 1.370701 0.5842266
v 9.339151 1.157495 -0.2635851
v 9.339151 1.157495 -0.2635851
v 11.15598 1.370701 0.5842266
v 11.16866 1.328826 1.313197
v 9.407861 1.115914 2.096723
v 5.985061 0.8802967 -3.356992
v 5.983292 4.673004E-05 -3.360236
v 6.834052 -1.084268 -2.804366
v 6.834052 0.8802967 -2.804366
v 6.834052 0.8802967 -2.804366
v 6.834052 -1.084268 -2.804366
v 9.372475 -1.084268 -0.7613611
v 9.372475 1.162212 -0.7613611
v 11.16866 1.328826 1.313197
v 10.65702 -1.084268 1.688298
v 9.419362 -1.084268 2.644925
v 9.419362 1.083181 2.644925
v 9.372475 1.162212 -0.7613611
v 9.372475 -1.084268 -0.7613611
v 10.64434 -1.084268 0.2091246
v 11.15598 1.370701 0.5842266
v 11.15598 1.370701 0.5842266
v 10.64434 -1.084268 0.2091246
v 10.65702 -1.084268 1.688298
v 11.16866 1.328826 1.313197
v -7.216326 1.07522 4.199295
v -7.968298 1.324403 2.702429
v -7.564592 1.324403 2.677068
v -7.564592 1.324403 -0.746027
v -7.968298 1.324403 -0.7713881
v -7.216326 1.07522 -2.26796
v -7.564592 1.324403 2.677068
v -7.968298 1.324403 2.702429
v -8.135206 1.42673 0.9655199
v -7.731501 1.42673 0.9655199
v -7.564592 1.324403 -0.746027
v -7.968298 1.324403 -0.7713881
v -7.216326 1.07522 4.199295
v -7.188606 -1.084268 4.162139
v -7.993954 -1.084268 2.585062
v -7.968298 1.324403 2.702429
v -7.968298 1.324403 -0.7713881
v -7.98658 -1.084268 -0.7295132
v -7.236673 -1.084268 -2.302167
v -7.216326 1.07522 -2.26796
v -7.968298 1.324403 2.702429
v -7.993954 -1.084268 2.585062
v -8.157028 -1.084268 0.9277744
v -8.135206 1.42673 0.9655199
v -7.968298 1.324403 -0.7713881
v -7.98658 -1.084268 -0.7295132
v -6.026146 0.7912397 -3.084218
v -6.026146 -1.084268 -3.084218
v -5.015554 -0.006145477 -3.289757
v -5.014963 0.7912397 -3.288872
v -7.216326 1.07522 -2.26796
v -7.236673 -1.084268 -2.302167
v -6.026146 -1.084268 -3.084218
v -6.026146 0.7912397 -3.084218
v -5.015554 -0.006145477 -3.289757
v -6.026146 -1.084268 -3.084218
v -2.634309 -1.084268 -3.30804
v -2.634309 4.673004E-05 -3.30804
v 2.634214 4.673004E-05 -3.30804
v 2.634214 -1.084268 -3.30804
v 6.834052 -1.084268 -2.804366
v 5.983292 4.673004E-05 -3.360236
v -2.634309 4.673004E-05 -3.30804
v -2.634309 -1.084268 -3.30804
v 2.634214 -1.084268 -3.30804
v 2.634214 4.673004E-05 -3.30804
vt 0 0
vt 0 1
vt 0.1925709 1
vt 0.1876833 0
vt 0.5004888 0.941349
vt 0.4672532 0.06549364
vt 0.8074291 1
vt 1 1
vt 1 0
vt 0.8123167 0
vt 0.6197459 1
vt 1 1
vt 1 0
vt 0.6236559 0
vt 0 0
vt 0 1
vt 0 0
vt 0 1
vt 0.3802541 1
vt 0.3763441 0
vt 0.6148583 1
vt 1 1
vt 1 0
vt 0.6197459 0
vt 0 0
vt 0 0.2375367
vt 0 0
vt 0 1
vt 0.3851417 1
vt 0.3802541 0
vt 0 0
vt 0 1
vt 1 1
vt 1 0
vt 0 0
vt 0 1
vt 1 1
vt 1 0
vt 0 0
vt 0 1
vt 1 1
vt 1 0
vt 0 0
vt 0 1
vt 1 1
vt 1 0
vt 0 0
vt 0 1
vt 1 1
vt 1 0
vt 0 0
vt 0 1
vt 1 1
vt 1 0
vt 0 0
vt 0 1
vt 1 1
vt 1 0
vt 0 0
vt 0 1
vt 1 1
vt 1 0
vt 0 0
vt 0 1
vt 1 1
vt 1 0
vt 0 0
vt 0 1
vt 1 1
vt 1 0
vt 0 0
vt 0 1
vt 1 1
vt 1 0
vt 0 0
vt 0 1
vt 1 1
vt 1 0
vt 1 1
vt 1 0
vt 0 0
vt 0.5004888 1
vt 0 1
vt 0 0
vt 0.5004888 1
vt 1 0
vt 0 0
vt 0 1
vt 1 1
vt 1 0
vt 0 0
vt 0.5004888 1
vt 1 0
vt 0 0
vt 0 1
vt 1 1
vt 1 0
vt 0 0
vt 0 1
vt 1 1
vt 1 0
vt 0 0
vt 0 1
vt 1 1
vt 1 0
vt 0 0
vt 0 1
vt 1 1
vt 1 0
vt 0 0
vt 0 1
vt 1 1
vt 1 0
vt 0 0
vt 0 1
vt 1 1
vt 1 0
vt 0 0
vt 0 1
vt 1 1
vt 1 0
vt 0 0
vt 0 1
vt 1 1
vt 1 0
vt 0 0
vt 0 1
vt 1 1
vt 1 0
vt 0 0
vt 0 1
vt 1 1
vt 1 0
vt 0 0
vt 0 1
vt 1 1
vt 1 0
vt 0 0
vt 0 1
vt 1 1
vt 1 0
vt 0 0
vt 0 1
vt 1 1
vt 1 0
vt 0 0
vt 0 1
vt 1 1
vt 1 0
vt 0 0
vt 0 1
vt 1 1
vt 1 0
vt 0 0
vt 0 1
vt 1 1
vt 1 0
vt 0 0
vt 0 1
vt 1 1
vt 1 0
vt 0 0
vt 0.5004888 1
vt 1 0
vt 0 0
vt 0.5004888 1
vt 1 0
vt 0 0
vt 0 1
vt 1 1
vt 1 0
vt 0 0
vt 0 1
vt 1 1
vt 1 0
vt 0 0
vt 0 1
vt 1 1
vt 1 0
vt 0 0
vt 0 1
vt 1 1
vt 1 0
vt 0 0
vt 0 1
vt 1 1
vt 1 0
vt 0 0
vt 0 1
vt 1 1
vt 1 0
vt 0 0
vt 0.5004888 1
vt 1 0
vt 0 0
vt 0.5004888 1
vt 1 0
vt 0 0
vt 0 1
vt 0.5004888 1
vt 0.5004888 0
vt 1 0
vt 1 1
vt 0 0
vt 0 1
vt 1 1
vt 1 0
vt 0 0
vt 0 1
vt 1 1
vt 1 0
vt 0 0
vt 0 1
vt 0.5004888 1
vt 0.5004888 0
vt 1 0
vt 1 1
vt 0 0
vt 0 1
vt 1 1
vt 1 0
vt 0 0
vt 0 1
vt 1 1
vt 1 0
vt 0 0
vt 0 1
vt 1 1
vt 1 0
vt 0 0
vt 0 1
vt 1 1
vt 1 0
vt 0 0
vt 0 1
vt 1 1
vt 1 0
vn 0.003161549 0.9999951 0
vn 0.003161549 0.9999951 0
vn 0.003161549 0.9999951 0
vn 0.003161549 0.9999951 0
vn 0.003161549 0.9999951 0
vn 0.003161549 0.9999951 0
vn 0.003161549 0.9999951 0
vn 0.003161549 0.9999951 0
vn 0.003161549 0.9999951 0
vn 0.003161549 0.9999951 0
vn 0.07369602 0.004675567 -0.9972697
vn 0.2852994 -0.00316155 -0.9584332
vn 0.2852994 -0.00316155 -0.9584332
vn 0.07369602 0.004675567 -0.9972697
vn -0.07521003 0.004675567 -0.9971567
vn -0.07521003 0.004675567 -0.9971567
vn -0.2868134 -0.00316155 -0.9579812
vn -0.2868134 -0.00316155 -0.9579812
vn -0.07521003 0.004675567 -0.9971567
vn -0.07521003 0.004675567 -0.9971567
vn 0.003161549 0.9999951 0
vn 0.03448983 0.9994051 0
vn 0.03448983 0.9994051 0
vn 0.01099811 0.9999395 0
vn -0.01251182 0.9999217 0
vn -0.004675539 0.9999891 0
vn -0.04381953 0.9990394 0
vn -0.04381953 0.9990394 0
vn -0.004675539 0.9999891 0
vn -0.01251182 0.9999217 0
vn 0.003161549 0.9999951 0
vn 0.003161549 0.9999951 0
vn 0.003161549 0.9999951 0
vn 0.003161549 0.9999951 0
vn 0.4106939 -0.00316155 -0.9117678
vn 0.4106939 -0.00316155 -0.9117678
vn 0.4106939 -0.00316155 -0.9117678
vn 0.4106939 -0.00316155 -0.9117678
vn 0.05792452 0.9983209 0
vn 0.05792452 0.9983209 0
vn 0.05792452 0.9983209 0
vn 0.05792452 0.9983209 0
vn 0.1520676 -0.00316155 0.988365
vn 0.1520676 -0.00316155 0.988365
vn 0.1520676 -0.00316155 0.988365
vn 0.1520676 -0.00316155 0.988365
vn 0.003161549 0.9999951 0
vn 0.003161549 0.9999951 0
vn 0.003161549 0.9999951 0
vn 0.003161549 0.9999951 0
vn 0.003161549 0.9999951 0
vn 0.003161549 0.9999951 0
vn 0.003161549 0.9999951 0
vn 0.003161549 0.9999951 0
vn -0.412208 -0.00316155 -0.9110843
vn -0.412208 -0.00316155 -0.9110843
vn -0.412208 -0.00316155 -0.9110843
vn -0.412208 -0.00316155 -0.9110843
vn -0.03600109 0.9993517 0
vn -0.03600109 0.9993517 0
vn -0.03600109 0.9993517 0
vn -0.03600109 0.9993517 0
vn -0.2006046 -0.00316155 0.9796672
vn -0.2006046 -0.00316155 0.9796672
vn -0.2006046 -0.00316155 0.9796672
vn -0.2006046 -0.00316155 0.9796672
vn -0.004675539 0.9999891 0
vn -0.004675539 0.9999891 0
vn -0.004675539 0.9999891 0
vn -0.004675539 0.9999891 0
vn -0.9294607 0.004675567 -0.3688915
vn -0.9294607 0.004675567 -0.3688915
vn -0.9294607 0.004675567 -0.3688915
vn -0.9294607 0.004675567 -0.3688915
vn 0.943621 -0.00316155 -0.3310128
vn 0.943621 -0.00316155 -0.3310128
vn 0.943621 -0.00316155 -0.3310128
vn 0.943621 -0.00316155 -0.3310128
vn 0.4727309 0.8812068 0
vn 0.4727309 0.8812068 0
vn 0.4727309 0.8812068 0
vn 0.6144602 0.7883918 0.02961558
vn 0.4727309 0.8812068 0
vn 0.6458088 -0.00316155 -0.7634926
vn 0.6458088 -0.00316155 -0.7634926
vn 0.6458088 -0.00316155 -0.7634926
vn 0.08153319 0.992158 0.09473569
vn 0.08153319 0.992158 0.09473569
vn 0.08153319 0.992158 0.09473569
vn 0.08153319 0.992158 0.09473569
vn 0.6301345 -0.00316155 0.7764796
vn 0.6301345 -0.00316155 0.7764796
vn 0.6301345 -0.00316155 0.7764796
vn 0.08937031 0.992158 -0.0873812
vn 0.08937031 0.992158 -0.0873812
vn 0.08937031 0.992158 -0.0873812
vn 0.08937031 0.992158 -0.0873812
vn -0.1065587 0.992158 0.06532803
vn -0.1065587 0.992158 0.06532803
vn -0.1065587 0.992158 0.06532803
vn -0.1065587 0.992158 0.06532803
vn -0.5689513 -0.00316155 -0.8223652
vn -0.5689513 -0.00316155 -0.8223652
vn -0.5689513 -0.00316155 -0.8223652
vn -0.5689513 -0.00316155 -0.8223652
vn -0.08304721 0.992158 0.09341115
vn -0.08304721 0.992158 0.09341115
vn -0.08304721 0.992158 0.09341115
vn -0.08304721 0.992158 0.09341115
vn -0.5689513 -0.00316155 0.8223652
vn -0.5689513 -0.00316155 0.8223652
vn -0.5689513 -0.00316155 0.8223652
vn -0.5689513 -0.00316155 0.8223652
vn -0.09088439 0.992158 -0.08580527
vn -0.09088439 0.992158 -0.08580527
vn -0.09088439 0.992158 -0.08580527
vn -0.09088439 0.992158 -0.08580527
vn -0.9999951 -0.003161549 0
vn -0.9999951 -0.003161549 0
vn -0.9999951 -0.003161549 0
vn -0.9999951 -0.003161549 0
vn -0.2868134 -0.00316155 0.9579812
vn -0.2868134 -0.00316155 0.9579812
vn -0.2868134 -0.00316155 0.9579812
vn -0.2868134 -0.00316155 0.9579812
vn 0.2852994 -0.00316155 0.9584332
vn 0.2852994 -0.00316155 0.9584332
vn 0.2852994 -0.00316155 0.9584332
vn 0.2852994 -0.00316155 0.9584332
vn 0.00316155 -0.00316155 0.99999
vn 0.00316155 -0.00316155 0.99999
vn 0.00316155 -0.00316155 0.99999
vn 0.00316155 -0.00316155 0.99999
vn -0.310325 -0.00316155 0.9506253
vn -0.310325 -0.00316155 0.9506253
vn -0.310325 -0.00316155 0.9506253
vn -0.310325 -0.00316155 0.9506253
vn 0.3323224 -0.00316155 0.9431605
vn 0.3323224 -0.00316155 0.9431605
vn 0.3323224 -0.00316155 0.9431605
vn 0.3323224 -0.00316155 0.9431605
vn -0.5376026 -0.00316155 0.8431924
vn -0.5376026 -0.00316155 0.8431924
vn -0.5376026 -0.00316155 0.8431924
vn -0.5376026 -0.00316155 0.8431924
vn 0.5596 -0.00316155 0.8287567
vn 0.5596 -0.00316155 0.8287567
vn 0.5596 -0.00316155 0.8287567
vn 0.5596 -0.00316155 0.8287567
vn -0.004675539 0.9999891 0
vn -0.004675539 0.9999891 0
vn -0.004675539 0.9999891 0
vn -0.004675539 0.9999891 0
vn 0.003161549 0.9999951 0
vn 0.003161549 0.9999951 0
vn 0.003161549 0.9999951 0
vn 0.003161549 0.9999951 0
vn 0.003161549 0.9999951 0
vn 0.003161549 0.9999951 0
vn 0.003161549 0.9999951 0
vn 0.003161549 0.9999951 0
vn -0.7256945 0.6786715 0.1130152
vn -0.7256945 0.6786715 0.1130152
vn -0.7256945 0.6786715 0.1130152
vn -0.7335317 0.6786715 -0.0365543
vn -0.7335317 0.6786715 -0.0365543
vn -0.7335317 0.6786715 -0.0365543
vn -0.7413688 0.6629972 0.1039568
vn -0.7413688 0.6629972 0.1039568
vn -0.7413688 0.6629972 0.1039568
vn -0.7413688 0.6629972 0.1039568
vn 0.2696251 0.004675567 -0.962954
vn 0.2696251 0.004675567 -0.962954
vn 0.2696251 0.004675567 -0.962954
vn 0.2696251 0.004675567 -0.962954
vn 0.6222973 -0.00316155 -0.7827746
vn 0.6222973 -0.00316155 -0.7827746
vn 0.6222973 -0.00316155 -0.7827746
vn 0.6222973 -0.00316155 -0.7827746
vn 0.6379716 -0.00316155 0.7700534
vn 0.6379716 -0.00316155 0.7700534
vn 0.6379716 -0.00316155 0.7700534
vn 0.6379716 -0.00316155 0.7700534
vn 0.7006689 -0.00316155 -0.7134795
vn 0.7006689 -0.00316155 -0.7134795
vn 0.7006689 -0.00316155 -0.7134795
vn 0.7006689 -0.00316155 -0.7134795
vn 0.9984811 -0.00316155 -0.05500446
vn 0.9984811 -0.00316155 -0.05500446
vn 0.9984811 -0.00316155 -0.05500446
vn 0.9984811 -0.00316155 -0.05500446
vn 0.6928318 0.5767884 0.4327809
vn 0.6928318 0.5767884 0.4327809
vn 0.6928318 0.5767884 0.4327809
vn 0.6458088 0.5767884 -0.5002461
vn 0.6458088 0.5767884 -0.5002461
vn 0.6458088 0.5767884 -0.5002461
vn 0.8173363 0.5761608 0
vn 0.8173363 0.5761608 0
vn 0.003161549 0.9999951 0
vn 0.003161549 0.9999951 0
vn 0.8173363 0.5761608 0
vn 0.8173363 0.5761608 0
vn -0.6943459 -0.00316155 0.7196345
vn -0.6943459 -0.00316155 0.7196345
vn -0.6943459 -0.00316155 0.7196345
vn -0.6943459 -0.00316155 0.7196345
vn -0.6943459 -0.00316155 -0.7196345
vn -0.6943459 -0.00316155 -0.7196345
vn -0.6943459 -0.00316155 -0.7196345
vn -0.6943459 -0.00316155 -0.7196345
vn -0.992158 -0.00316155 0.12495
vn -0.992158 -0.00316155 0.12495
vn -0.9999891 0.004675539 0
vn -0.9999891 0.004675539 0
vn -0.992158 -0.00316155 0.12495
vn -0.992158 -0.00316155 0.12495
vn -0.2006046 -0.00316155 -0.9796672
vn -0.2006046 -0.00316155 -0.9796672
vn -0.2006046 -0.00316155 -0.9796672
vn -0.2006046 -0.00316155 -0.9796672
vn -0.553277 -0.00316155 -0.8329914
vn -0.553277 -0.00316155 -0.8329914
vn -0.553277 -0.00316155 -0.8329914
vn -0.553277 -0.00316155 -0.8329914
vn -0.04386145 -0.08937031 -0.9950323
vn -0.04386145 -0.08937031 -0.9950323
vn -0.04386145 -0.08937031 -0.9950323
vn -0.04386145 -0.08937031 -0.9950323
vn 0.0345102 -0.167742 -0.9852267
vn 0.0345102 -0.167742 -0.9852267
vn 0.0345102 -0.167742 -0.9852267
vn 0.0345102 -0.167742 -0.9852267
vn 0.00316155 -0.00316155 -0.99999
vn 0.00316155 -0.00316155 -0.99999
vn 0.00316155 -0.00316155 -0.99999
vn 0.00316155 -0.00316155 -0.99999
g boatB_COL_0
f 3/3/3 2/2/2 1/1/1
f 4/4/4 3/3/3 1/1/1
f 5/5/5 3/3/3 4/4/4
f 6/6/6 5/5/5 4/4/4
f 9/9/9 8/8/8 7/7/7
f 10/10/10 9/9/9 7/7/7
f 13/13/13 12/12/12 11/11/11
f 14/14/14 13/13/13 11/11/11
f 14/14/14 11/11/11 15/15/15
f 11/11/11 16/16/16 15/15/15
f 19/19/19 18/18/18 17/17/17
f 20/20/20 19/19/19 17/17/17
f 23/23/23 22/22/22 21/21/21
f 24/24/24 23/23/23 21/21/21
f 24/24/24 21/21/21 25/25/25
f 21/21/21 26/26/26 25/25/25
f 29/29/29 28/28/28 27/27/27
f 30/30/30 29/29/29 27/27/27
f 33/33/33 32/32/32 31/31/31
f 34/34/34 33/33/33 31/31/31
f 37/37/37 36/36/36 35/35/35
f 38/38/38 37/37/37 35/35/35
f 41/41/41 40/40/40 39/39/39
f 42/42/42 41/41/41 39/39/39
f 45/45/45 44/44/44 43/43/43
f 46/46/46 45/45/45 43/43/43
f 49/49/49 48/48/48 47/47/47
f 50/50/50 49/49/49 47/47/47
f 53/53/53 52/52/52 51/51/51
f 54/54/54 53/53/53 51/51/51
f 57/57/57 56/56/56 55/55/55
f 58/58/58 57/57/57 55/55/55
f 61/61/61 60/60/60 59/59/59
f 62/62/62 61/61/61 59/59/59
f 65/65/65 64/64/64 63/63/63
f 66/66/66 65/65/65 63/63/63
f 69/69/69 68/68/68 67/67/67
f 70/70/70 69/69/69 67/67/67
f 73/73/73 72/72/72 71/71/71
f 74/74/74 73/73/73 71/71/71
f 77/77/77 76/76/76 75/75/75
f 78/78/78 77/77/77 75/75/75
f 81/81/81 80/80/80 79/79/79
f 79/79/79 82/82/82 81/81/81
f 82/82/82 83/83/83 81/81/81
f 86/86/86 85/85/85 84/84/84
f 89/89/89 88/88/88 87/87/87
f 90/90/90 89/89/89 87/87/87
f 93/93/93 92/92/92 91/91/91
f 96/96/96 95/95/95 94/94/94
f 97/97/97 96/96/96 94/94/94
f 100/100/100 99/99/99 98/98/98
f 101/101/101 100/100/100 98/98/98
f 104/104/104 103/103/103 102/102/102
f 105/105/105 104/104/104 102/102/102
f 108/108/108 107/107/107 106/106/106
f 109/109/109 108/108/108 106/106/106
f 112/112/112 111/111/111 110/110/110
f 113/113/113 112/112/112 110/110/110
f 116/116/116 115/115/115 114/114/114
f 117/117/117 116/116/116 114/114/114
f 120/120/120 119/119/119 118/118/118
f 121/121/121 120/120/120 118/118/118
f 124/124/124 123/123/123 122/122/122
f 125/125/125 124/124/124 122/122/122
f 128/128/128 127/127/127 126/126/126
f 129/129/129 128/128/128 126/126/126
f 132/132/132 131/131/131 130/130/130
f 133/133/133 132/132/132 130/130/130
f 136/136/136 135/135/135 134/134/134
f 137/137/137 136/136/136 134/134/134
f 140/140/140 139/139/139 138/138/138
f 141/141/141 140/140/140 138/138/138
f 144/144/144 143/143/143 142/142/142
f 145/145/145 144/144/144 142/142/142
f 148/148/148 147/147/147 146/146/146
f 149/149/149 148/148/148 146/146/146
f 152/152/152 151/151/151 150/150/150
f 153/153/153 152/152/152 150/150/150
f 156/156/156 155/155/155 154/154/154
f 157/157/157 156/156/156 154/154/154
f 160/160/160 159/159/159 158/158/158
f 161/161/161 160/160/160 158/158/158
f 164/164/164 163/163/163 162/162/162
f 167/167/167 166/166/166 165/165/165
f 170/170/170 169/169/169 168/168/168
f 171/171/171 170/170/170 168/168/168
f 174/174/174 173/173/173 172/172/172
f 175/175/175 174/174/174 172/172/172
f 178/178/178 177/177/177 176/176/176
f 179/179/179 178/178/178 176/176/176
f 182/182/182 181/181/181 180/180/180
f 183/183/183 182/182/182 180/180/180
f 186/186/186 185/185/185 184/184/184
f 187/187/187 186/186/186 184/184/184
f 190/190/190 189/189/189 188/188/188
f 191/191/191 190/190/190 188/188/188
f 194/194/194 193/193/193 192/192/192
f 197/197/197 196/196/196 195/195/195
f 200/200/200 199/199/199 198/198/198
f 201/201/201 200/200/200 198/198/198
f 201/201/201 202/202/202 200/200/200
f 202/202/202 203/203/203 200/200/200
f 206/206/206 205/205/205 204/204/204
f 207/207/207 206/206/206 204/204/204
f 210/210/210 209/209/209 208/208/208
f 211/211/211 210/210/210 208/208/208
f 214/214/214 213/213/213 212/212/212
f 215/215/215 214/214/214 212/212/212
f 215/215/215 216/216/216 214/214/214
f 216/216/216 217/217/217 214/214/214
f 220/220/220 219/219/219 218/218/218
f 221/221/221 220/220/220 218/218/218
f 224/224/224 223/223/223 222/222/222
f 225/225/225 224/224/224 222/222/222
f 228/228/228 227/227/227 226/226/226
f 229/229/229 228/228/228 226/226/226
f 232/232/232 231/231/231 230/230/230
f 233/233/233 232/232/232 230/230/230
f 236/236/236 235/235/235 234/234/234
f 237/237/237 236/236/236 234/234/234
