g bookPage01
v 248.7096 0.7753296 -133.2399
v 248.7096 0.3460999 -186.5382
v 298.4556 0.3460999 -133.2399
v 298.4556 0.3460999 -186.5382
v 198.971 0.3460999 -186.5382
v 198.971 0.8419495 -133.2399
v 149.225 0.3460999 -186.5382
v 149.225 0.8419495 -133.2399
v 99.48634 0.3460999 -186.5382
v 99.48634 0.3460999 -133.2399
v 49.74033 0.3460999 -186.5382
v 49.74033 -0.4827576 -133.2399
v 99.48634 -0.4531555 -79.94168
v 49.74033 0.3460999 -79.94168
v 99.48634 -0.4531555 -26.65085
v 49.74033 0.3460999 -26.65085
v 99.48634 1.078766 26.6474
v 149.225 1.078766 26.6474
v 149.225 0.3460999 -26.65085
v 198.971 0.3460999 26.6474
v 198.971 -0.3273315 79.94565
v 149.225 0.3460999 79.94565
v 198.971 0.3460999 133.2365
v 149.225 -0.2385254 133.2365
v 198.971 0.3460999 186.5347
v 149.225 0.3460999 186.5347
v 99.48634 0.9603577 133.2365
v 99.48634 0.3460999 186.5347
v 49.74033 0.3460999 133.2365
v 49.74033 0.3460999 186.5347
v 248.7096 0.3460999 186.5347
v 248.7096 0.6347351 133.2365
v 298.4556 0.3460999 186.5347
v 298.4556 0.3460999 133.2365
v 49.74033 -0.127533 79.94565
v 99.48634 0.3460999 79.94565
v 248.7096 0.5385132 79.94565
v 298.4556 0.3460999 79.94565
v 49.74033 0.3460999 26.6474
v 99.48634 1.078766 26.6474
v 248.7096 0.3460999 26.6474
v 298.4556 0.3460999 26.6474
v 198.971 0.6273193 -26.65085
v 248.7096 -0.009124756 -26.65085
v 298.4556 0.3460999 -26.65085
v 149.225 0.3460999 -79.94168
v 198.971 0.3460999 -79.94168
v 248.7096 -0.5567627 -79.94168
v 298.4556 0.3460999 -79.94168
v 248.7096 -0.5567627 -79.94168
v 24.87473 0.3460999 -26.65085
v 24.87473 0.3460999 26.6474
v 0.001708984 0.3460999 -26.65085
v 0.001708984 0.3460999 26.6474
v 24.87473 0.3460999 79.94565
v 0.001708984 0.3460999 79.94565
v 24.87473 0.3460999 133.2365
v 0.001708984 0.3460999 133.2365
v 24.87473 0.3460999 186.5347
v 0.001708984 0.3460999 186.5347
v 0.001708984 0.3460999 -79.94168
v 24.87473 0.3460999 -79.94168
v 0.001708984 0.3460999 -133.2399
v 24.87473 0.3460999 -133.2399
v 0.001708984 0.3460999 -186.5382
v 24.87473 0.3460999 -186.5382
v 49.74033 -0.4827576 -133.2399
v 49.74033 0.3460999 -186.5382
v 248.7096 0.1166992 -133.2399
v 298.4556 -0.3125305 -133.2399
v 248.7096 -0.3125305 -186.5382
v 298.4556 -0.3125305 -186.5382
v 198.971 -0.3125305 -186.5382
v 198.971 0.1832886 -133.2399
v 149.225 -0.3125305 -186.5382
v 149.225 0.1832886 -133.2399
v 99.48634 -0.3125305 -186.5382
v 99.48634 -0.3125305 -133.2399
v 49.74033 -0.3125305 -186.5382
v 49.74033 -1.133972 -133.2399
v 298.4556 -0.3125305 -79.94168
v 248.7096 -1.215393 -79.94168
v 298.4556 -0.3125305 -26.65085
v 248.7096 -0.6603699 -26.65085
v 298.4556 -0.3125305 26.6474
v 248.7096 -0.3125305 26.6474
v 298.4556 -0.3125305 79.94565
v 248.7096 -0.1201172 79.94565
v 298.4556 -0.3125305 133.2365
v 248.7096 -0.02392578 133.2365
v 298.4556 -0.3125305 186.5347
v 248.7096 -0.3125305 186.5347
v 198.971 -0.3125305 133.2365
v 198.971 -0.3125305 186.5347
v 149.225 -0.8971863 133.2365
v 149.225 -0.3125305 186.5347
v 99.48634 0.3016968 133.2365
v 99.48634 -0.3125305 186.5347
v 49.74033 -0.3125305 133.2365
v 49.74033 -0.3125305 186.5347
v 198.971 -0.9859619 79.94565
v 149.225 -0.3125305 79.94565
v 99.48634 -0.3125305 79.94565
v 49.74033 -0.7787781 79.94565
v 149.225 0.420105 26.6474
v 198.971 -0.3125305 26.6474
v 99.48634 0.420105 26.6474
v 49.74033 -0.3125305 26.6474
v 198.971 -0.02392578 -26.65085
v 149.225 -0.3125305 -26.65085
v 99.48634 -1.10437 -26.65085
v 49.74033 -0.3125305 -26.65085
v 198.971 -0.3125305 -79.94168
v 149.225 -0.3125305 -79.94168
v 99.48634 -1.10437 -79.94168
v 49.74033 -0.3125305 -79.94168
v 24.87473 -0.3125305 -26.65085
v 24.87473 -0.3125305 -79.94168
v 0.001708984 -0.3125305 -26.65085
v 0.001708984 -0.3125305 26.6474
v 24.87473 -0.3125305 26.6474
v 0.001708984 -0.3125305 79.94565
v 24.87473 -0.3125305 79.94565
v 0.001708984 -0.3125305 133.2365
v 24.87473 -0.3125305 133.2365
v 24.87473 -0.3125305 186.5347
v 0.001708984 -0.3125305 186.5347
v 0.001708984 -0.3125305 -79.94168
v 24.87473 -0.3125305 -133.2399
v 0.001708984 -0.3125305 -133.2399
v 24.87473 -0.3125305 -186.5382
v 0.001708984 -0.3125305 -186.5382
v 49.74033 -0.3125305 -186.5382
v 49.74033 -1.133972 -133.2399
v 248.7096 0.3460999 186.5347
v 298.4556 0.3460999 186.5347
v 248.7096 -0.3125305 186.5347
v 298.4556 -0.3125305 186.5347
v 198.971 -0.3125305 186.5347
v 198.971 0.3460999 186.5347
v 149.225 -0.3125305 186.5347
v 149.225 0.3460999 186.5347
v 99.48634 -0.3125305 186.5347
v 99.48634 0.3460999 186.5347
v 49.74033 -0.3125305 186.5347
v 49.74033 0.3460999 186.5347
v 24.87473 0.3460999 186.5347
v 24.87473 -0.3125305 186.5347
v 0.001708984 0.3460999 186.5347
v 0.001708984 -0.3125305 186.5347
v 298.4556 -0.3125305 -133.2399
v 298.4556 0.3460999 -133.2399
v 298.4556 -0.3125305 -186.5382
v 298.4556 0.3460999 -186.5382
v 298.4556 0.3460999 -79.94168
v 298.4556 -0.3125305 -79.94168
v 298.4556 0.3460999 -26.65085
v 298.4556 -0.3125305 -26.65085
v 298.4556 0.3460999 26.6474
v 298.4556 -0.3125305 26.6474
v 298.4556 0.3460999 79.94565
v 298.4556 -0.3125305 79.94565
v 298.4556 0.3460999 133.2365
v 298.4556 -0.3125305 133.2365
v 298.4556 0.3460999 186.5347
v 298.4556 -0.3125305 186.5347
v 298.4556 -0.3125305 -186.5382
v 298.4556 0.3460999 -186.5382
v 248.7096 -0.3125305 -186.5382
v 248.7096 0.3460999 -186.5382
v 198.971 0.3460999 -186.5382
v 198.971 -0.3125305 -186.5382
v 149.225 0.3460999 -186.5382
v 149.225 -0.3125305 -186.5382
v 99.48634 0.3460999 -186.5382
v 99.48634 -0.3125305 -186.5382
v 49.74033 0.3460999 -186.5382
v 49.74033 -0.3125305 -186.5382
v 24.87473 0.3460999 -186.5382
v 24.87473 -0.3125305 -186.5382
v 0.001708984 0.3460999 -186.5382
v 0.001708984 -0.3125305 -186.5382
v 0.001708984 -0.3125305 -186.5382
v 0.001708984 0.3460999 -186.5382
v 0.001708984 -0.3125305 -133.2399
v 0.001708984 0.3460999 -133.2399
v 0.001708984 -0.3125305 -79.94168
v 0.001708984 0.3460999 -79.94168
v 0.001708984 -0.3125305 -26.65085
v 0.001708984 0.3460999 -26.65085
v 0.001708984 -0.3125305 26.6474
v 0.001708984 0.3460999 26.6474
v 0.001708984 -0.3125305 79.94565
v 0.001708984 0.3460999 79.94565
v 0.001708984 -0.3125305 133.2365
v 0.001708984 0.3460999 133.2365
v 0.001708984 -0.3125305 186.5347
v 0.001708984 0.3460999 186.5347
vt 0.6666667 0.8572825
vt 0.6666667 1
vt 0.799609 0.8572825
vt 0.799609 1
vt 0.5337244 1
vt 0.5337244 0.8572825
vt 0.3998045 1
vt 0.3998045 0.8572825
vt 0.2668622 1
vt 0.2668622 0.8572825
vt 0.1329423 1
vt 0.1329423 0.8572825
vt 0.2668622 0.714565
vt 0.1329423 0.714565
vt 0.2668622 0.5718475
vt 0.1329423 0.5718475
vt 0.2668622 0.4281525
vt 0.3998045 0.4281525
vt 0.3998045 0.5718475
vt 0.5337244 0.4281525
vt 0.5337244 0.285435
vt 0.3998045 0.285435
vt 0.5337244 0.1427175
vt 0.3998045 0.1427175
vt 0.5337244 0
vt 0.3998045 0
vt 0.2668622 0.1427175
vt 0.2668622 0
vt 0.1329423 0.1427175
vt 0.1329423 0
vt 0.6666667 0
vt 0.6666667 0.1427175
vt 0.799609 0
vt 0.799609 0.1427175
vt 0.1329423 0.285435
vt 0.2668622 0.285435
vt 0.6666667 0.285435
vt 0.799609 0.285435
vt 0.1329423 0.4281525
vt 0.2668622 0.4281525
vt 0.6666667 0.4281525
vt 0.799609 0.4281525
vt 0.5337244 0.5718475
vt 0.6666667 0.5718475
vt 0.799609 0.5718475
vt 0.3998045 0.714565
vt 0.5337244 0.714565
vt 0.6666667 0.714565
vt 0.799609 0.714565
vt 0.6666667 0.714565
vt 0.06647117 0.5718475
vt 0.06647117 0.4281525
vt 0 0.5718475
vt 0 0.4281525
vt 0.06647117 0.285435
vt 0 0.285435
vt 0.06647117 0.1427175
vt 0 0.1427175
vt 0.06647117 0
vt 0 0
vt 0 0.714565
vt 0.06647117 0.714565
vt 0 0.8572825
vt 0.06647117 0.8572825
vt 0 1
vt 0.06647117 1
vt 0.1329423 0.8572825
vt 0.1329423 1
vt 0.1329423 0.8572825
vt 0 0.8572825
vt 0.1329423 1
vt 0 1
vt 0.2668622 1
vt 0.2668622 0.8572825
vt 0.3998045 1
vt 0.3998045 0.8572825
vt 0.5337244 1
vt 0.5337244 0.8572825
vt 0.6666667 1
vt 0.6666667 0.8572825
vt 0 0.714565
vt 0.1329423 0.714565
vt 0 0.5718475
vt 0.1329423 0.5718475
vt 0 0.4281525
vt 0.1329423 0.4281525
vt 0 0.285435
vt 0.1329423 0.285435
vt 0 0.1427175
vt 0.1329423 0.1427175
vt 0 0
vt 0.1329423 0
vt 0.2668622 0.1427175
vt 0.2668622 0
vt 0.3998045 0.1427175
vt 0.3998045 0
vt 0.5337244 0.1427175
vt 0.5337244 0
vt 0.6666667 0.1427175
vt 0.6666667 0
vt 0.2668622 0.285435
vt 0.3998045 0.285435
vt 0.5337244 0.285435
vt 0.6666667 0.285435
vt 0.3998045 0.4281525
vt 0.2668622 0.4281525
vt 0.5337244 0.4281525
vt 0.6666667 0.4281525
vt 0.2668622 0.5718475
vt 0.3998045 0.5718475
vt 0.5337244 0.5718475
vt 0.6666667 0.5718475
vt 0.2668622 0.714565
vt 0.3998045 0.714565
vt 0.5337244 0.714565
vt 0.6666667 0.714565
vt 0.7331378 0.5718475
vt 0.7331378 0.714565
vt 0.799609 0.5718475
vt 0.799609 0.4281525
vt 0.7331378 0.4281525
vt 0.799609 0.285435
vt 0.7331378 0.285435
vt 0.799609 0.1427175
vt 0.7331378 0.1427175
vt 0.7331378 0
vt 0.799609 0
vt 0.799609 0.714565
vt 0.7331378 0.8572825
vt 0.799609 0.8572825
vt 0.7331378 1
vt 0.799609 1
vt 0.6666667 1
vt 0.6666667 0.8572825
vt 0.9012707 0.2756598
vt 0.9012707 0.14174
vt 0.9002932 0.2756598
vt 0.9002932 0.14174
vt 0.9002932 0.4095797
vt 0.9012707 0.4095797
vt 0.9002932 0.542522
vt 0.9012707 0.542522
vt 0.9002932 0.6764418
vt 0.9012707 0.6764418
vt 0.9002932 0.8103617
vt 0.9012707 0.8103617
vt 0.9012707 0.8768328
vt 0.9002932 0.8768328
vt 0.9012707 0.943304
vt 0.9002932 0.943304
vt 0.9002932 0.1573803
vt 0.9012707 0.1573803
vt 0.9002932 0.04203324
vt 0.9012707 0.04203324
vt 0.9012707 0.2717498
vt 0.9002932 0.2717498
vt 0.9012707 0.3870968
vt 0.9002932 0.3870968
vt 0.9012707 0.5014663
vt 0.9002932 0.5014663
vt 0.9012707 0.6168133
vt 0.9002932 0.6168133
vt 0.9012707 0.7311828
vt 0.9002932 0.7311828
vt 0.9012707 0.8465298
vt 0.9002932 0.8465298
vt 0.9002932 0.14174
vt 0.8993157 0.14174
vt 0.9002932 0.2756598
vt 0.8993157 0.2756598
vt 0.8993157 0.4095797
vt 0.9002932 0.4095797
vt 0.8993157 0.542522
vt 0.9002932 0.542522
vt 0.8993157 0.6764418
vt 0.9002932 0.6764418
vt 0.8993157 0.8103617
vt 0.9002932 0.8103617
vt 0.8993157 0.8768328
vt 0.9002932 0.8768328
vt 0.8993157 0.943304
vt 0.9002932 0.943304
vt 0.9002932 0.8465298
vt 0.9012707 0.8465298
vt 0.9002932 0.7311828
vt 0.9012707 0.7311828
vt 0.9002932 0.6168133
vt 0.9012707 0.6168133
vt 0.9002932 0.5014663
vt 0.9012707 0.5014663
vt 0.9002932 0.3870968
vt 0.9012707 0.3870968
vt 0.9002932 0.2717498
vt 0.9012707 0.2717498
vt 0.9002932 0.1573803
vt 0.9012707 0.1573803
vt 0.9002932 0.04203324
vt 0.9012707 0.04203324
vn 0.01176392 0.9999309 0
vn 0.01176392 0.9999309 0
vn 0.01176392 0.9999309 0
vn -0.003921509 0.9999923 -0.000345267
vn -0.003921509 0.9999923 -0.000345267
vn -0.003921509 0.9999923 -0.000345267
vn -0.003921509 0.9999923 -0.000345267
vn -0.0117638 0.9999309 0
vn -0.003921509 0.9999923 -0.000345267
vn -0.01960405 0.9998079 0
vn -0.01960405 0.9998079 0
vn -0.01960405 0.9998079 0
vn 0.01960411 0.9998079 0
vn 0.01960411 0.9998079 0
vn 0.01960411 0.9998079 0
vn -0.0117638 0.9999309 0
vn 0.01960411 0.9998079 0
vn -0.003921509 0.9999923 -0.000345267
vn -0.01960405 0.9998079 0
vn 0.01176392 0.9999309 0
vn 0.01176392 0.9999309 0
vn -0.003921509 0.9999923 -0.000345267
vn -0.0117638 0.9999309 0
vn 0.02744067 0.9996234 0
vn -0.003921509 0.9999923 -0.000345267
vn -0.003921509 0.9999923 -0.000345267
vn -0.0117638 0.9999309 0
vn -0.003921509 0.9999923 -0.000345267
vn -0.003921509 0.9999923 -0.000345267
vn -0.003921509 0.9999923 -0.000345267
vn -0.003921509 0.9999923 -0.000345267
vn -0.003921509 0.9999923 -0.000345267
vn -0.003921509 0.9999923 -0.000345267
vn 0.003921568 0.9999923 -0.000345267
vn -0.0117638 0.9999309 0
vn -0.0117638 0.9999309 0
vn -0.01960405 0.9998079 0
vn 0.003921568 0.9999923 -0.000345267
vn -0.0117638 0.9999309 0
vn -0.0117638 0.9999309 0
vn -0.003921509 0.9999923 -0.000345267
vn -0.003921509 0.9999923 -0.000345267
vn -0.003921509 0.9999923 -0.000345267
vn 0.01176392 0.9999309 0
vn -0.003921509 0.9999923 -0.000345267
vn -0.01960405 0.9998079 0
vn -0.003921509 0.9999923 -0.000345267
vn 0.01960411 0.9998079 0
vn -0.01960405 0.9998079 0
vn -0.01960405 0.9998079 0
vn -0.003921509 0.9999923 -0.000345267
vn -0.003921509 0.9999923 -0.000345267
vn -0.003921509 0.9999923 -0.000345267
vn -0.003921509 0.9999923 -0.000345267
vn -0.003921509 0.9999923 -0.000345267
vn -0.003921509 0.9999923 -0.000345267
vn -0.003921509 0.9999923 -0.000345267
vn -0.003921509 0.9999923 -0.000345267
vn -0.003921509 0.9999923 -0.000345267
vn -0.003921509 0.9999923 -0.000345267
vn -0.003921509 0.9999923 -0.000345267
vn -0.003921509 0.9999923 -0.000345267
vn -0.003921509 0.9999923 -0.000345267
vn -0.003921509 0.9999923 -0.000345267
vn -0.003921509 0.9999923 -0.000345267
vn -0.003921509 0.9999923 -0.000345267
vn 0.03527219 0.9993777 0
vn 0.03527219 0.9993777 0
vn -0.0117638 -0.9999309 0
vn -0.0117638 -0.9999309 0
vn -0.0117638 -0.9999309 0
vn -0.003921509 -0.9999924 0
vn -0.003921509 -0.9999924 0
vn -0.003921509 -0.9999924 0
vn -0.003921509 -0.9999924 0
vn 0.01176392 -0.9999309 0
vn -0.003921509 -0.9999924 0
vn 0.01960411 -0.9998079 0
vn 0.01960411 -0.9998079 0
vn 0.01960411 -0.9998079 0
vn 0.01960411 -0.9998079 0
vn 0.003921568 -0.9999924 0
vn 0.003921568 -0.9999924 0
vn -0.003921509 -0.9999924 0
vn -0.003921509 -0.9999924 0
vn -0.003921509 -0.9999924 0
vn -0.003921509 -0.9999924 0
vn -0.003921509 -0.9999924 0
vn -0.003921509 -0.9999924 0
vn -0.003921509 -0.9999924 0
vn -0.003921509 -0.9999924 0
vn -0.003921509 -0.9999924 0
vn -0.003921509 -0.9999924 0
vn -0.003921509 -0.9999924 0
vn -0.003921509 -0.9999924 0
vn -0.003921509 -0.9999924 0
vn -0.003921509 -0.9999924 0
vn -0.003921509 -0.9999924 0
vn -0.003921509 -0.9999924 0
vn -0.003921509 -0.9999924 0
vn 0.003921568 -0.9999924 0
vn 0.01176392 -0.9999309 0
vn -0.02744055 -0.9996234 0
vn 0.01176392 -0.9999309 0
vn -0.0117638 -0.9999309 0
vn 0.01960411 -0.9998079 0
vn -0.003921509 -0.9999924 0
vn 0.01176392 -0.9999309 0
vn -0.003921509 -0.9999924 0
vn -0.0117638 -0.9999309 0
vn -0.003921509 -0.9999924 0
vn 0.01176392 -0.9999309 0
vn -0.0117638 -0.9999309 0
vn 0.003921568 -0.9999924 0
vn 0.01960411 -0.9998079 0
vn -0.01960405 -0.9998079 0
vn -0.003921509 -0.9999924 0
vn -0.003921509 -0.9999924 0
vn -0.003921509 -0.9999924 0
vn -0.003921509 -0.9999924 0
vn -0.003921509 -0.9999924 0
vn -0.003921509 -0.9999924 0
vn -0.003921509 -0.9999924 0
vn -0.003921509 -0.9999924 0
vn -0.003921509 -0.9999924 0
vn -0.003921509 -0.9999924 0
vn -0.003921509 -0.9999924 0
vn -0.003921509 -0.9999924 0
vn -0.003921509 -0.9999924 0
vn -0.003921509 -0.9999924 0
vn -0.003921509 -0.9999924 0
vn -0.003921509 -0.9999924 0
vn -0.03527213 -0.9993777 0
vn -0.03527213 -0.9993777 0
vn -0.003921509 0.003921509 0.9999846
vn -0.003921509 0.003921509 0.9999846
vn -0.003921509 0.003921509 0.9999846
vn -0.003921509 0.003921509 0.9999846
vn -0.003921509 0.003921509 0.9999846
vn -0.003921509 0.003921509 0.9999846
vn -0.003921509 0.003921509 0.9999846
vn -0.003921509 0.003921509 0.9999846
vn -0.003921509 0.003921509 0.9999846
vn -0.003921509 0.003921509 0.9999846
vn -0.003921509 0.003921509 0.9999846
vn -0.003921509 0.003921509 0.9999846
vn -0.003921509 0.003921509 0.9999846
vn -0.003921509 0.003921509 0.9999846
vn -0.003921509 0.003921509 0.9999846
vn -0.003921509 0.003921509 0.9999846
vn 0.9999924 0.003921509 0
vn 0.9999924 0.003921509 0
vn 0.9999924 0.003921509 0
vn 0.9999924 0.003921509 0
vn 0.9999924 0.003921509 0
vn 0.9999924 0.003921509 0
vn 0.9999924 0.003921509 0
vn 0.9999924 0.003921509 0
vn 0.9999924 0.003921509 0
vn 0.9999924 -0.003921568 0
vn 0.9999924 0.003921509 0
vn 0.9999924 0.003921509 0
vn 0.9999924 0.003921509 0
vn 0.9999924 0.003921509 0
vn 0.9999924 0.003921509 0
vn 0.9999924 0.003921509 0
vn -0.003921509 0.003921509 -0.9999846
vn -0.003921509 0.003921509 -0.9999846
vn -0.003921509 0.003921509 -0.9999846
vn -0.003921509 0.003921509 -0.9999846
vn -0.003921509 0.003921509 -0.9999846
vn -0.003921509 0.003921509 -0.9999846
vn -0.003921509 0.003921509 -0.9999846
vn -0.003921509 0.003921509 -0.9999846
vn -0.003921509 0.003921509 -0.9999846
vn -0.003921509 0.003921509 -0.9999846
vn -0.003921509 0.003921509 -0.9999846
vn -0.003921509 0.003921509 -0.9999846
vn -0.003921509 0.003921509 -0.9999846
vn -0.003921509 0.003921509 -0.9999846
vn -0.003921509 0.003921509 -0.9999846
vn -0.003921509 0.003921509 -0.9999846
vn -0.9999923 0.003921509 -0.0003449296
vn -0.9999923 0.003921509 -0.0003449296
vn -0.9999923 0.003921509 -0.0003449296
vn -0.9999923 0.003921509 -0.0003449296
vn -0.9999923 0.003921509 -0.0003449296
vn -0.9999923 0.003921509 -0.0003449296
vn -0.9999923 0.003921509 -0.0003449296
vn -0.9999923 0.003921509 -0.0003449296
vn -0.9999923 0.003921509 -0.0003449296
vn -0.9999923 0.003921509 -0.0003449296
vn -0.9999923 0.003921509 -0.0003449296
vn -0.9999923 0.003921509 -0.0003449296
vn -0.9999923 0.003921509 -0.0003449296
vn -0.9999923 0.003921509 -0.0003449296
vn -0.9999923 0.003921509 -0.0003449296
vn -0.9999923 0.003921509 -0.0003449296
g bookPage01_0
f 3/3/3 2/2/2 1/1/1
f 3/3/3 4/4/4 2/2/2
f 1/1/1 2/2/2 5/5/5
f 1/1/1 5/5/5 6/6/6
f 6/6/6 5/5/5 7/7/7
f 6/6/6 7/7/7 8/8/8
f 8/8/8 7/7/7 9/9/9
f 8/8/8 9/9/9 10/10/10
f 10/10/10 9/9/9 11/11/11
f 10/10/10 11/11/11 12/12/12
f 13/13/13 10/10/10 12/12/12
f 13/13/13 12/12/12 14/14/14
f 15/15/15 13/13/13 14/14/14
f 15/15/15 14/14/14 16/16/16
f 17/17/17 15/15/15 16/16/16
f 18/18/18 15/15/15 17/17/17
f 18/18/18 19/19/19 15/15/15
f 19/19/19 13/13/13 15/15/15
f 20/20/20 19/19/19 18/18/18
f 21/21/21 20/20/20 18/18/18
f 21/21/21 18/18/18 22/22/22
f 23/23/23 21/21/21 22/22/22
f 23/23/23 22/22/22 24/24/24
f 25/25/25 23/23/23 24/24/24
f 25/25/25 24/24/24 26/26/26
f 26/26/26 24/24/24 27/27/27
f 26/26/26 27/27/27 28/28/28
f 28/28/28 27/27/27 29/29/29
f 28/28/28 29/29/29 30/30/30
f 31/31/31 23/23/23 25/25/25
f 31/31/31 32/32/32 23/23/23
f 32/32/32 21/21/21 23/23/23
f 33/33/33 32/32/32 31/31/31
f 33/33/33 34/34/34 32/32/32
f 27/27/27 35/35/35 29/29/29
f 27/27/27 36/36/36 35/35/35
f 24/24/24 36/36/36 27/27/27
f 24/24/24 22/22/22 36/36/36
f 32/32/32 37/37/37 21/21/21
f 34/34/34 37/37/37 32/32/32
f 34/34/34 38/38/38 37/37/37
f 36/36/36 39/39/39 35/35/35
f 36/36/36 40/40/40 39/39/39
f 22/22/22 40/40/40 36/36/36
f 22/22/22 18/18/18 40/40/40
f 38/38/38 41/41/41 37/37/37
f 37/37/37 41/41/41 20/20/20
f 37/37/37 20/20/20 21/21/21
f 38/38/38 42/42/42 41/41/41
f 40/40/40 16/16/16 39/39/39
f 41/41/41 43/43/43 20/20/20
f 20/20/20 43/43/43 19/19/19
f 41/41/41 44/44/44 43/43/43
f 42/42/42 44/44/44 41/41/41
f 42/42/42 45/45/45 44/44/44
f 43/43/43 46/46/46 19/19/19
f 19/19/19 46/46/46 13/13/13
f 43/43/43 47/47/47 46/46/46
f 44/44/44 47/47/47 43/43/43
f 44/44/44 48/48/48 47/47/47
f 45/45/45 48/48/48 44/44/44
f 45/45/45 49/49/49 48/48/48
f 46/46/46 10/10/10 13/13/13
f 46/46/46 8/8/8 10/10/10
f 47/47/47 8/8/8 46/46/46
f 47/47/47 6/6/6 8/8/8
f 48/48/48 6/6/6 47/47/47
f 48/48/48 1/1/1 6/6/6
f 49/49/49 1/1/1 50/50/50
f 49/49/49 3/3/3 1/1/1
f 52/52/52 16/16/16 51/51/51
f 52/52/52 51/51/51 53/53/53
f 52/52/52 53/53/53 54/54/54
f 55/55/55 52/52/52 54/54/54
f 55/55/55 54/54/54 56/56/56
f 57/57/57 55/55/55 56/56/56
f 57/57/57 56/56/56 58/58/58
f 59/59/59 57/57/57 58/58/58
f 59/59/59 58/58/58 60/60/60
f 51/51/51 61/61/61 53/53/53
f 51/51/51 62/62/62 61/61/61
f 62/62/62 63/63/63 61/61/61
f 62/62/62 64/64/64 63/63/63
f 64/64/64 65/65/65 63/63/63
f 64/64/64 66/66/66 65/65/65
f 59/59/59 29/29/29 57/57/57
f 59/59/59 30/30/30 29/29/29
f 57/57/57 35/35/35 55/55/55
f 57/57/57 29/29/29 35/35/35
f 55/55/55 35/35/35 39/39/39
f 55/55/55 39/39/39 52/52/52
f 52/52/52 39/39/39 16/16/16
f 62/62/62 67/67/67 64/64/64
f 62/62/62 14/14/14 67/67/67
f 51/51/51 14/14/14 62/62/62
f 51/51/51 16/16/16 14/14/14
f 64/64/64 11/11/11 66/66/66
f 64/64/64 67/67/67 68/68/68
g bookPage01_1
f 71/71/71 70/70/70 69/69/69
f 71/71/71 72/72/72 70/70/70
f 73/73/73 71/71/71 69/69/69
f 73/73/73 69/69/69 74/74/74
f 75/75/75 73/73/73 74/74/74
f 75/75/75 74/74/74 76/76/76
f 77/77/77 75/75/75 76/76/76
f 77/77/77 76/76/76 78/78/78
f 79/79/79 77/77/77 78/78/78
f 79/79/79 78/78/78 80/80/80
f 69/69/69 70/70/70 81/81/81
f 69/69/69 81/81/81 82/82/82
f 74/74/74 69/69/69 82/82/82
f 82/82/82 81/81/81 83/83/83
f 82/82/82 83/83/83 84/84/84
f 84/84/84 83/83/83 85/85/85
f 84/84/84 85/85/85 86/86/86
f 86/86/86 85/85/85 87/87/87
f 86/86/86 87/87/87 88/88/88
f 88/88/88 87/87/87 89/89/89
f 88/88/88 89/89/89 90/90/90
f 90/90/90 89/89/89 91/91/91
f 90/90/90 91/91/91 92/92/92
f 93/93/93 90/90/90 92/92/92
f 93/93/93 92/92/92 94/94/94
f 95/95/95 93/93/93 94/94/94
f 95/95/95 94/94/94 96/96/96
f 97/97/97 95/95/95 96/96/96
f 97/97/97 96/96/96 98/98/98
f 99/99/99 97/97/97 98/98/98
f 99/99/99 98/98/98 100/100/100
f 101/101/101 90/90/90 93/93/93
f 101/101/101 88/88/88 90/90/90
f 102/102/102 93/93/93 95/95/95
f 102/102/102 101/101/101 93/93/93
f 103/103/103 95/95/95 97/97/97
f 103/103/103 102/102/102 95/95/95
f 104/104/104 97/97/97 99/99/99
f 104/104/104 103/103/103 97/97/97
f 105/105/105 101/101/101 102/102/102
f 105/105/105 106/106/106 101/101/101
f 106/106/106 88/88/88 101/101/101
f 106/106/106 86/86/86 88/88/88
f 107/107/107 102/102/102 103/103/103
f 107/107/107 105/105/105 102/102/102
f 108/108/108 103/103/103 104/104/104
f 108/108/108 107/107/107 103/103/103
f 109/109/109 86/86/86 106/106/106
f 109/109/109 84/84/84 86/86/86
f 110/110/110 106/106/106 105/105/105
f 110/110/110 109/109/109 106/106/106
f 111/111/111 105/105/105 107/107/107
f 111/111/111 110/110/110 105/105/105
f 112/112/112 107/107/107 108/108/108
f 112/112/112 111/111/111 107/107/107
f 113/113/113 84/84/84 109/109/109
f 113/113/113 82/82/82 84/84/84
f 114/114/114 109/109/109 110/110/110
f 114/114/114 113/113/113 109/109/109
f 115/115/115 110/110/110 111/111/111
f 115/115/115 114/114/114 110/110/110
f 116/116/116 111/111/111 112/112/112
f 116/116/116 115/115/115 111/111/111
f 74/74/74 82/82/82 113/113/113
f 76/76/76 113/113/113 114/114/114
f 76/76/76 74/74/74 113/113/113
f 78/78/78 114/114/114 115/115/115
f 78/78/78 76/76/76 114/114/114
f 80/80/80 115/115/115 116/116/116
f 80/80/80 78/78/78 115/115/115
f 117/117/117 116/116/116 112/112/112
f 117/117/117 118/118/118 116/116/116
f 119/119/119 118/118/118 117/117/117
f 120/120/120 119/119/119 117/117/117
f 120/120/120 117/117/117 121/121/121
f 121/121/121 117/117/117 112/112/112
f 122/122/122 120/120/120 121/121/121
f 122/122/122 121/121/121 123/123/123
f 124/124/124 122/122/122 123/123/123
f 124/124/124 123/123/123 125/125/125
f 124/124/124 125/125/125 126/126/126
f 124/124/124 126/126/126 127/127/127
f 119/119/119 128/128/128 118/118/118
f 128/128/128 129/129/129 118/118/118
f 128/128/128 130/130/130 129/129/129
f 130/130/130 131/131/131 129/129/129
f 130/130/130 132/132/132 131/131/131
f 129/129/129 131/131/131 133/133/133
f 129/129/129 133/133/133 134/134/134
f 118/118/118 129/129/129 134/134/134
f 118/118/118 134/134/134 116/116/116
f 123/123/123 121/121/121 108/108/108
f 121/121/121 112/112/112 108/108/108
f 125/125/125 100/100/100 126/126/126
f 125/125/125 99/99/99 100/100/100
f 125/125/125 104/104/104 99/99/99
f 123/123/123 108/108/108 104/104/104
f 125/125/125 123/123/123 104/104/104
g bookPage01_2
f 137/137/137 136/136/136 135/135/135
f 137/137/137 138/138/138 136/136/136
f 139/139/139 137/137/137 135/135/135
f 139/139/139 135/135/135 140/140/140
f 141/141/141 139/139/139 140/140/140
f 141/141/141 140/140/140 142/142/142
f 143/143/143 141/141/141 142/142/142
f 143/143/143 142/142/142 144/144/144
f 145/145/145 143/143/143 144/144/144
f 145/145/145 144/144/144 146/146/146
f 145/145/145 146/146/146 147/147/147
f 145/145/145 147/147/147 148/148/148
f 148/148/148 147/147/147 149/149/149
f 148/148/148 149/149/149 150/150/150
f 153/153/153 152/152/152 151/151/151
f 153/153/153 154/154/154 152/152/152
f 151/151/151 152/152/152 155/155/155
f 151/151/151 155/155/155 156/156/156
f 156/156/156 155/155/155 157/157/157
f 156/156/156 157/157/157 158/158/158
f 158/158/158 157/157/157 159/159/159
f 158/158/158 159/159/159 160/160/160
f 160/160/160 159/159/159 161/161/161
f 160/160/160 161/161/161 162/162/162
f 162/162/162 161/161/161 163/163/163
f 162/162/162 163/163/163 164/164/164
f 164/164/164 163/163/163 165/165/165
f 164/164/164 165/165/165 166/166/166
f 169/169/169 168/168/168 167/167/167
f 169/169/169 170/170/170 168/168/168
f 169/169/169 171/171/171 170/170/170
f 169/169/169 172/172/172 171/171/171
f 172/172/172 173/173/173 171/171/171
f 172/172/172 174/174/174 173/173/173
f 174/174/174 175/175/175 173/173/173
f 174/174/174 176/176/176 175/175/175
f 176/176/176 177/177/177 175/175/175
f 176/176/176 178/178/178 177/177/177
f 178/178/178 179/179/179 177/177/177
f 178/178/178 180/180/180 179/179/179
f 180/180/180 181/181/181 179/179/179
f 180/180/180 182/182/182 181/181/181
f 185/185/185 184/184/184 183/183/183
f 185/185/185 186/186/186 184/184/184
f 187/187/187 186/186/186 185/185/185
f 187/187/187 188/188/188 186/186/186
f 189/189/189 188/188/188 187/187/187
f 189/189/189 190/190/190 188/188/188
f 191/191/191 190/190/190 189/189/189
f 191/191/191 192/192/192 190/190/190
f 193/193/193 192/192/192 191/191/191
f 193/193/193 194/194/194 192/192/192
f 195/195/195 194/194/194 193/193/193
f 195/195/195 196/196/196 194/194/194
f 197/197/197 196/196/196 195/195/195
f 197/197/197 198/198/198 196/196/196
