g brokenSanctumCOL
v -1.493669 -0.06382561 1.20695
v -0.4846487 1.19523 0.5417285
v 0.5987529 1.19523 0.5417285
v 1.14946 -0.06382561 1.23719
v -0.4846487 1.668663 0.5417285
v -0.4846487 2.086285 -0.5417237
v 0.5987529 2.086285 -0.5417237
v 0.5987529 1.668663 0.5417285
v -0.4846487 1.138911 -0.5417237
v -1.630458 -0.06382561 -1.162296
v 1.238809 -0.06382561 -1.109225
v 0.5987529 1.138911 -0.5417237
v -1.630458 -0.06382561 -1.162296
v -1.493669 -0.06382561 1.20695
v 1.14946 -0.06382561 1.23719
v 1.238809 -0.06382561 -1.109225
v 1.14946 -0.06382561 1.23719
v 0.5987529 1.19523 0.5417285
v 0.5987529 1.138911 -0.5417237
v 1.238809 -0.06382561 -1.109225
v -1.630458 -0.06382561 -1.162296
v -0.4846487 1.138911 -0.5417237
v -0.4846487 1.19523 0.5417285
v -1.493669 -0.06382561 1.20695
v -0.4846487 1.138911 -0.5417237
v -0.4846487 2.086285 -0.5417237
v -0.4846487 1.668663 0.5417285
v -0.4846487 1.19523 0.5417285
v -0.4846487 2.086285 -0.5417237
v -0.4846487 1.138911 -0.5417237
v 0.5987529 1.138911 -0.5417237
v 0.5987529 2.086285 -0.5417237
v 0.5987529 1.19523 0.5417285
v 0.5987529 1.668663 0.5417285
v 0.5987529 2.086285 -0.5417237
v 0.5987529 1.138911 -0.5417237
v -0.4846487 1.19523 0.5417285
v -0.4846487 1.668663 0.5417285
v 0.5987529 1.668663 0.5417285
v 0.5987529 1.19523 0.5417285
vt 0.3753666 0
vt 0.3753666 0.1974585
vt 0.6246334 0.1974585
vt 0.6246334 0
vt 0.3753666 0.2502444
vt 0.3753666 0.5004888
vt 0.6246334 0.5004888
vt 0.6246334 0.2502444
vt 0.3753666 0.544477
vt 0.3753666 0.7497556
vt 0.6246334 0.7497556
vt 0.6246334 0.544477
vt 0.3753666 0.7497556
vt 0.3753666 1
vt 0.6246334 1
vt 0.6246334 0.7497556
vt 0.6246334 0
vt 0.6246334 0.1974585
vt 0.8748778 0.2062561
vt 0.8748778 0
vt 0.1251222 0
vt 0.1251222 0.2062561
vt 0.3753666 0.1974585
vt 0.3753666 0
vt 0.1251222 0.2062561
vt 0.1251222 0.2502444
vt 0.3753666 0.2502444
vt 0.3753666 0.1974585
vt 0.3753666 0.5004888
vt 0.3753666 0.544477
vt 0.6246334 0.544477
vt 0.6246334 0.5004888
vt 0.6246334 0.1974585
vt 0.6246334 0.2502444
vt 0.8748778 0.2502444
vt 0.8748778 0.2062561
vt 0.3753666 0.1974585
vt 0.3753666 0.2502444
vt 0.6246334 0.2502444
vt 0.6246334 0.1974585
vn -0.003921509 0.4745061 0.8802435
vn -0.003921509 0.4745061 0.8802435
vn -0.003921509 0.4745061 0.8802435
vn -0.003921509 0.4745061 0.8802435
vn -0.003921509 0.9294046 0.3690416
vn -0.003921509 0.9294046 0.3690416
vn -0.003921509 0.9294046 0.3690416
vn -0.003921509 0.9294046 0.3690416
vn 0.01176465 0.4431338 -0.8963783
vn 0.01176465 0.4431338 -0.8963783
vn 0.01176465 0.4431338 -0.8963783
vn 0.01176465 0.4431338 -0.8963783
vn -0.003921509 -0.9999924 0
vn -0.003921509 -0.9999924 0
vn -0.003921509 -0.9999924 0
vn -0.003921509 -0.9999924 0
vn 0.8980324 0.4352907 0.06371731
vn 0.8980324 0.4352907 0.06371731
vn 0.8980324 0.4352907 0.06371731
vn 0.8980324 0.4352907 0.06371731
vn -0.7490138 0.6548969 0.1004414
vn -0.7490138 0.6548969 0.1004414
vn -0.7490138 0.6548969 0.1004414
vn -0.7490138 0.6548969 0.1004414
vn -0.9999923 0.003921509 -0.0003449296
vn -0.9999923 0.003921509 -0.0003449296
vn -0.9999923 0.003921509 -0.0003449296
vn -0.9999923 0.003921509 -0.0003449296
vn -0.003921509 0.003921509 -0.9999846
vn -0.003921509 0.003921509 -0.9999846
vn -0.003921509 0.003921509 -0.9999846
vn -0.003921509 0.003921509 -0.9999846
vn 0.9999924 0.003921509 0
vn 0.9999924 0.003921509 0
vn 0.9999924 0.003921509 0
vn 0.9999924 0.003921509 0
vn -0.003921509 0.003921509 0.9999846
vn -0.003921509 0.003921509 0.9999846
vn -0.003921509 0.003921509 0.9999846
vn -0.003921509 0.003921509 0.9999846
g brokenSanctumCOL_0
f 3/3/3 2/2/2 1/1/1
f 4/4/4 3/3/3 1/1/1
f 7/7/7 6/6/6 5/5/5
f 8/8/8 7/7/7 5/5/5
f 11/11/11 10/10/10 9/9/9
f 12/12/12 11/11/11 9/9/9
f 15/15/15 14/14/14 13/13/13
f 16/16/16 15/15/15 13/13/13
f 19/19/19 18/18/18 17/17/17
f 20/20/20 19/19/19 17/17/17
f 23/23/23 22/22/22 21/21/21
f 24/24/24 23/23/23 21/21/21
f 27/27/27 26/26/26 25/25/25
f 28/28/28 27/27/27 25/25/25
f 31/31/31 30/30/30 29/29/29
f 32/32/32 31/31/31 29/29/29
f 35/35/35 34/34/34 33/33/33
f 36/36/36 35/35/35 33/33/33
f 39/39/39 38/38/38 37/37/37
f 40/40/40 39/39/39 37/37/37
