g caveWaterPlane
v -8.402548 -0.02883911 4.272512
v -7.797178 -0.02883911 -3.051758E-05
v -2.6016 -0.02883911 -0.5957975
v -2.896986 -0.02883911 4.609
v -7.797178 -0.02883911 8.545441
v -2.896986 -0.02883911 4.609
v -2.803646 -0.02883911 9.481535
v -7.797178 -0.02883911 -3.051758E-05
v -2.197508 -0.02883911 -6.055265
v -6.521139 -0.02883911 -5.345415
v 2.272856 -0.02883911 4.338197
v 4.068992 -0.02883911 0.3218603
v 9.770069 -0.02883911 -3.051758E-05
v 9.141268 -0.02883911 4.272512
v 0.8055258 -0.02883911 8.679113
v 6.074087 -0.02883911 8.545441
v 9.039861 -0.02883911 -4.272574
v 2.075036 -0.02883911 -4.272574
v 8.189808 -0.02883911 -9.622568
v 2.612416 -0.02883911 -9.56956
v 3.051758E-05 -0.02883911 12.81798
v 0.8055258 -0.02883911 8.679113
v 5.468717 -0.02883911 10.91084
v 0.7390738 -0.02883911 15.4031
v 3.051758E-05 -0.02883911 12.81798
v 5.468717 -0.02883911 10.91084
v 5.101884 -0.02883911 14.77468
vt 0 0.3753666
vt 0 0.5
vt 0.25 0.5
vt 0.25 0.3753666
vt 0 0.25
vt 0.25 0.3753666
vt 0.25 0.25
vt 0 0.5
vt 0.25 0.6253666
vt 0 0.6253666
vt 0.5 0.3753666
vt 0.5 0.5
vt 0.75 0.5
vt 0.75 0.3753666
vt 0.5 0.25
vt 0.75 0.25
vt 0.75 0.6253666
vt 0.5 0.6253666
vt 0.75 0.75
vt 0.5 0.75
vt 0.5 0.1253666
vt 0.5 0.25
vt 0.75 0.1253666
vt 0.5 0
vt 0.5 0.1253666
vt 0.75 0.1253666
vt 0.75 0
vn 0 1 0
vn 0 1 0
vn 0 1 0
vn 0 1 0
vn 0 1 0
vn 0 1 0
vn 0 1 0
vn 0 1 0
vn 0 1 0
vn 0 1 0
vn 0 1 0
vn 0 1 0
vn 0 1 0
vn 0 1 0
vn 0 1 0
vn 0 1 0
vn 0 1 0
vn 0 1 0
vn 0 1 0
vn 0 1 0
vn 0 1 0
vn 0 1 0
vn 0 1 0
vn 0 1 0
vn 0 1 0
vn 0 1 0
vn 0 1 0
g caveWaterPlane_0
f 3/3/3 2/2/2 1/1/1
f 4/4/4 3/3/3 1/1/1
f 6/6/6 1/1/1 5/5/5
f 7/7/7 6/6/6 5/5/5
f 3/3/3 9/9/9 8/8/8
f 9/9/9 10/10/10 8/8/8
f 13/13/13 12/12/12 11/11/11
f 14/14/14 13/13/13 11/11/11
f 14/14/14 11/11/11 15/15/15
f 16/16/16 14/14/14 15/15/15
f 13/13/13 17/17/17 12/12/12
f 17/17/17 18/18/18 12/12/12
f 17/17/17 19/19/19 18/18/18
f 19/19/19 20/20/20 18/18/18
f 16/16/16 22/22/22 21/21/21
f 23/23/23 16/16/16 21/21/21
f 26/26/26 25/25/25 24/24/24
f 27/27/27 26/26/26 24/24/24
