g cellarFloor
v -8.236115 0.0001153946 11.58339
v -8.236115 6.038672 11.58339
v -8.236115 6.038672 -9.10442
v -8.236115 0.0001153946 -9.10442
v -8.236115 6.038672 -9.10442
v 12.51458 6.038672 -9.10442
v 12.51458 0.0001153946 -9.10442
v -8.236115 0.0001153946 -9.10442
v 12.51458 0.0001153946 -9.10442
v 12.51458 0.0001153946 11.58339
v -8.236115 0.0001153946 11.58339
v -8.236115 0.0001153946 -9.10442
vt -1.883063 0.04286444
vt -1.883063 1.248111
vt 2.247197 1.248111
vt 2.247197 0.04286444
vt -1.214657 1.248111
vt 2.927938 1.248111
vt 2.927938 0.04286444
vt -1.214657 0.04286444
vt 0.0005751848 -1.150048
vt -1.150048 0.9996612
vt 0.9996612 2.150284
vt 2.150284 0.0005751848
vn 0.9999924 0.003921509 0
vn 0.9999924 0.003921509 0
vn 0.9999924 0.003921509 0
vn 0.9999924 0.003921509 0
vn -0.003921509 0.003921509 0.9999846
vn -0.003921509 0.003921509 0.9999846
vn -0.003921509 0.003921509 0.9999846
vn -0.003921509 0.003921509 0.9999846
vn -0.003921509 0.9999923 -0.000345267
vn -0.003921509 0.9999923 -0.000345267
vn -0.003921509 0.9999923 -0.000345267
vn -0.003921509 0.9999923 -0.000345267
g cellarFloor_0
f 3/3/3 2/2/2 1/1/1
f 4/4/4 3/3/3 1/1/1
f 7/7/7 6/6/6 5/5/5
f 8/8/8 7/7/7 5/5/5
g cellarFloor_1
f 11/11/11 10/10/10 9/9/9
f 12/12/12 11/11/11 9/9/9
