g chaosBG
v 88.46056 -34.98114 -38.13808
v 67.7049 -34.98114 -69.2009
v 67.7049 49.21947 -69.2009
v 88.46056 49.21947 -38.13808
v 36.64207 49.21947 -89.95657
v 36.64207 -34.98114 -89.95657
v -0.001342773 49.21947 -97.2452
v -0.001342773 -34.98114 -97.2452
v -36.64181 49.21947 -89.95657
v -36.64181 -34.98114 -89.95657
v -67.70463 49.21947 -69.2009
v -67.70463 -34.98114 -69.2009
v -88.46029 49.21947 -38.13808
v -88.46029 -34.98114 -38.13808
v -95.74892 49.21947 -1.497612
v -95.74892 -34.98114 -1.497612
v -95.0451 49.21947 35.14579
v -95.0451 -34.98114 35.14579
v 95.74919 -34.98114 -1.497612
v 95.74919 49.21947 -1.497612
v 95.04536 -34.98114 35.14579
v 95.04536 49.21947 35.14579
vt 0.2006711 0.01887794
vt 0.2998309 0.01887794
vt 0.2998309 0.9822843
vt 0.2006711 0.9822843
vt 0.3989908 0.9822843
vt 0.3989908 0.01887794
vt 0.4981507 0.9822843
vt 0.4981507 0.01887794
vt 0.5982828 0.9822843
vt 0.5982828 0.01887794
vt 0.6974427 0.9822843
vt 0.6974427 0.01887794
vt 0.7966025 0.9822843
vt 0.7966025 0.01887794
vt 0.8967346 0.9822843
vt 0.8967346 0.01887794
vt 0.9958945 0.9822843
vt 0.9958945 0.01887794
vt 0.100539 0.01887794
vt 0.100539 0.9822843
vt 0.001379132 0.01887794
vt 0.001379132 0.9822843
vn -0.9213991 0.003920853 0.388598
vn -0.7096733 0.003920853 0.70452
vn -0.7096733 0.003920853 0.70452
vn -0.9213991 0.003920853 0.388598
vn -0.3803222 0.003920853 0.9248458
vn -0.3803222 0.003920853 0.9248458
vn -0.003920853 0.003920853 0.9999846
vn -0.003920853 0.003920853 0.9999846
vn 0.3803222 0.003920853 0.9248458
vn 0.3803222 0.003920853 0.9248458
vn 0.7096734 0.003920853 0.7045199
vn 0.7096734 0.003920853 0.7045199
vn 0.9213992 0.003920853 0.3885977
vn 0.9213992 0.003920853 0.3885977
vn 0.9998161 0.003920853 0.0187704
vn 0.9998161 0.003920853 0.0187704
vn 0.9998161 0.003920853 -0.0187704
vn 0.9998161 0.003920853 -0.0187704
vn -0.9998161 0.003920853 0.0187704
vn -0.9998161 0.003920853 0.0187704
vn -0.9998161 0.003920853 -0.0187704
vn -0.9998161 0.003920853 -0.0187704
g chaosBG_0
f 3/3/3 2/2/2 1/1/1
f 4/4/4 3/3/3 1/1/1
f 3/3/3 5/5/5 2/2/2
f 5/5/5 6/6/6 2/2/2
f 5/5/5 7/7/7 6/6/6
f 7/7/7 8/8/8 6/6/6
f 7/7/7 9/9/9 8/8/8
f 9/9/9 10/10/10 8/8/8
f 9/9/9 11/11/11 10/10/10
f 11/11/11 12/12/12 10/10/10
f 11/11/11 13/13/13 12/12/12
f 13/13/13 14/14/14 12/12/12
f 13/13/13 15/15/15 14/14/14
f 15/15/15 16/16/16 14/14/14
f 15/15/15 17/17/17 16/16/16
f 17/17/17 18/18/18 16/16/16
f 4/4/4 1/1/1 19/19/19
f 20/20/20 4/4/4 19/19/19
f 20/20/20 19/19/19 21/21/21
f 22/22/22 20/20/20 21/21/21
