g chunk_lHip
v 0.2033951 0.02180374 0.1459854
v 0.2433338 0.02171084 -0.01045376
v 0.1522549 -0.1174153 0.06113875
v 0.1562209 0.02180374 -0.1284681
v 0.2433338 0.02171084 -0.01045376
v 0.1465613 0.1584407 -0.07886976
v 0.1562209 0.02180374 -0.1284681
v 0.116988 0.1192264 -0.250337
v 0.09751095 -0.06679526 -0.2095716
v 0.1562209 0.02180374 -0.1284681
v 0.1465613 0.1584407 -0.07886976
v 0.116988 0.1192264 -0.250337
v 0.1562209 0.02180374 -0.1284681
v 0.09751095 -0.06679526 -0.2095716
v 0.1688713 -0.1249572 -0.09001546
v -0.006441236 -0.1383692 0.2258907
v -0.00630191 0.0218966 0.264269
v 0.09198454 -0.06429677 0.1774348
v 0.1213256 -0.2451264 -0.0102866
v 0.06542063 -0.2261601 0.1294154
v 0.1522549 -0.1174153 0.06113875
v -0.1965032 0.1752707 -0.09738091
v -0.2433337 0.0218966 -0.01012868
v -0.1828497 -0.1254588 -0.09056346
v -0.1832491 0.02180374 0.1193286
v -0.2433337 0.0218966 -0.01012868
v -0.1864164 0.1706916 0.07177359
v -0.1832491 0.02180374 0.1193286
v -0.006441236 -0.1383692 0.2258907
v -0.1761066 -0.1223937 0.06661871
v -0.006431967 0.1645243 0.175893
v -0.1093903 0.1099569 0.1869179
v -0.0848698 0.2829381 0.1434311
v -0.1965032 0.1752707 -0.09738091
v -0.1828497 -0.1254588 -0.09056346
v -0.08740544 -0.2444019 -0.1694007
v -0.006431967 0.1881904 -0.2642691
v -0.006431967 0.1645243 0.175893
v -0.0848698 0.2829381 0.1434311
v 0.05267739 0.2442347 0.1022106
v -0.006431967 0.1881904 -0.2642691
v 0.119468 0.2864676 -0.0102866
v -0.08036506 0.2739101 -0.1543911
v -0.006431967 -0.1435798 -0.2613991
v -0.08740544 -0.2444019 -0.1694007
v 0.06024717 -0.2157946 -0.1389358
v -0.08740544 -0.2444019 -0.1694007
v -0.1407562 -0.2531141 -0.0102866
v -0.006366938 -0.3043472 -0.0102866
v -0.006366938 -0.3043472 -0.0102866
v 0.1213256 -0.2451264 -0.0102866
v 0.06024717 -0.2157946 -0.1389358
v -0.08740544 -0.2444019 -0.1694007
v -0.006366938 -0.3043472 -0.0102866
v 0.06024717 -0.2157946 -0.1389358
v -0.006376237 0.3043471 -0.0102866
v -0.1367159 0.2918082 -0.0102866
v -0.08036506 0.2739101 -0.1543911
v 0.119468 0.2864676 -0.0102866
v -0.006376237 0.3043471 -0.0102866
v -0.08036506 0.2739101 -0.1543911
v -0.0848698 0.2829381 0.1434311
v -0.1367159 0.2918082 -0.0102866
v -0.006376237 0.3043471 -0.0102866
v -0.006376237 0.3043471 -0.0102866
v 0.119468 0.2864676 -0.0102866
v 0.05267739 0.2442347 0.1022106
v -0.0848698 0.2829381 0.1434311
v -0.006376237 0.3043471 -0.0102866
v 0.05267739 0.2442347 0.1022106
v 0.06542063 -0.2261601 0.1294154
v 0.1213256 -0.2451264 -0.0102866
v -0.006366938 -0.3043472 -0.0102866
v -0.006366938 -0.3043472 -0.0102866
v -0.1407562 -0.2531141 -0.0102866
v -0.006441236 -0.1383692 0.2258907
v 0.06542063 -0.2261601 0.1294154
v -0.006366938 -0.3043472 -0.0102866
v -0.006441236 -0.1383692 0.2258907
v -0.1828497 -0.1254588 -0.09056346
v -0.1407562 -0.2531141 -0.0102866
v -0.08740544 -0.2444019 -0.1694007
v -0.08036506 0.2739101 -0.1543911
v -0.1367159 0.2918082 -0.0102866
v -0.1965032 0.1752707 -0.09738091
v -0.006431967 0.1881904 -0.2642691
v -0.08036506 0.2739101 -0.1543911
v -0.1965032 0.1752707 -0.09738091
v -0.006431967 0.1881904 -0.2642691
v -0.08740544 -0.2444019 -0.1694007
v -0.006431967 -0.1435798 -0.2613991
v -0.1093903 0.1099569 0.1869179
v -0.1832491 0.02180374 0.1193286
v -0.1864164 0.1706916 0.07177359
v -0.1864164 0.1706916 0.07177359
v -0.1367159 0.2918082 -0.0102866
v -0.0848698 0.2829381 0.1434311
v -0.1093903 0.1099569 0.1869179
v -0.1864164 0.1706916 0.07177359
v -0.0848698 0.2829381 0.1434311
v -0.006441236 -0.1383692 0.2258907
v -0.1407562 -0.2531141 -0.0102866
v -0.1761066 -0.1223937 0.06661871
v -0.006441236 -0.1383692 0.2258907
v -0.1832491 0.02180374 0.1193286
v -0.1093903 0.1099569 0.1869179
v -0.1093903 0.1099569 0.1869179
v -0.006431967 0.1645243 0.175893
v -0.00630191 0.0218966 0.264269
v -0.006441236 -0.1383692 0.2258907
v -0.1093903 0.1099569 0.1869179
v -0.00630191 0.0218966 0.264269
v -0.1965032 0.1752707 -0.09738091
v -0.1367159 0.2918082 -0.0102866
v -0.1864164 0.1706916 0.07177359
v -0.2433337 0.0218966 -0.01012868
v -0.1965032 0.1752707 -0.09738091
v -0.1864164 0.1706916 0.07177359
v -0.2433337 0.0218966 -0.01012868
v -0.1832491 0.02180374 0.1193286
v -0.1761066 -0.1223937 0.06661871
v -0.1761066 -0.1223937 0.06661871
v -0.1407562 -0.2531141 -0.0102866
v -0.1828497 -0.1254588 -0.09056346
v -0.2433337 0.0218966 -0.01012868
v -0.1761066 -0.1223937 0.06661871
v -0.1828497 -0.1254588 -0.09056346
v 0.1001952 0.1116287 0.1946084
v -0.006431967 0.1645243 0.175893
v 0.05267739 0.2442347 0.1022106
v 0.05267739 0.2442347 0.1022106
v 0.119468 0.2864676 -0.0102866
v 0.2033951 0.02180374 0.1459854
v 0.1001952 0.1116287 0.1946084
v 0.05267739 0.2442347 0.1022106
v 0.2033951 0.02180374 0.1459854
v 0.06542063 -0.2261601 0.1294154
v -0.006441236 -0.1383692 0.2258907
v 0.09198454 -0.06429677 0.1774348
v 0.09198454 -0.06429677 0.1774348
v 0.2033951 0.02180374 0.1459854
v 0.1522549 -0.1174153 0.06113875
v 0.06542063 -0.2261601 0.1294154
v 0.09198454 -0.06429677 0.1774348
v 0.1522549 -0.1174153 0.06113875
v -0.00630191 0.0218966 0.264269
v -0.006431967 0.1645243 0.175893
v 0.1001952 0.1116287 0.1946084
v 0.1001952 0.1116287 0.1946084
v 0.2033951 0.02180374 0.1459854
v 0.09198454 -0.06429677 0.1774348
v -0.00630191 0.0218966 0.264269
v 0.1001952 0.1116287 0.1946084
v 0.09198454 -0.06429677 0.1774348
v 0.09751095 -0.06679526 -0.2095716
v -0.006431967 -0.1435798 -0.2613991
v 0.06024717 -0.2157946 -0.1389358
v 0.1688713 -0.1249572 -0.09001546
v 0.06024717 -0.2157946 -0.1389358
v 0.1213256 -0.2451264 -0.0102866
v 0.1688713 -0.1249572 -0.09001546
v 0.119468 0.2864676 -0.0102866
v -0.006431967 0.1881904 -0.2642691
v 0.116988 0.1192264 -0.250337
v 0.1465613 0.1584407 -0.07886976
v 0.119468 0.2864676 -0.0102866
v 0.116988 0.1192264 -0.250337
v 0.116988 0.1192264 -0.250337
v -0.006431967 0.1881904 -0.2642691
v -0.006431967 -0.1435798 -0.2613991
v 0.116988 0.1192264 -0.250337
v -0.006431967 -0.1435798 -0.2613991
v 0.09751095 -0.06679526 -0.2095716
v 0.2033951 0.02180374 0.1459854
v 0.119468 0.2864676 -0.0102866
v 0.1465613 0.1584407 -0.07886976
v 0.2433338 0.02171084 -0.01045376
v 0.2033951 0.02180374 0.1459854
v 0.1465613 0.1584407 -0.07886976
v 0.2433338 0.02171084 -0.01045376
v 0.1562209 0.02180374 -0.1284681
v 0.1688713 -0.1249572 -0.09001546
v 0.1688713 -0.1249572 -0.09001546
v 0.1213256 -0.2451264 -0.0102866
v 0.1522549 -0.1174153 0.06113875
v 0.2433338 0.02171084 -0.01045376
v 0.1688713 -0.1249572 -0.09001546
v 0.1522549 -0.1174153 0.06113875
vt 0.9090909 0.5835777
vt 0.8181818 0.5835777
vt 0.8641251 0.6666667
vt 0.7272727 0.5835777
vt 0.8181818 0.5835777
vt 0.773216 0.5004888
vt 0.7272727 0.5835777
vt 0.6823069 0.5004888
vt 0.6363636 0.5835777
vt 0.7272727 0.5835777
vt 0.773216 0.5004888
vt 0.6823069 0.5004888
vt 0.7272727 0.5835777
vt 0.6363636 0.5835777
vt 0.6823069 0.6666667
vt 0.1818182 0.5835777
vt 0.1368524 0.5004888
vt 0.09090909 0.5835777
vt 0.09090909 0.7497556
vt 0.1368524 0.6666667
vt 0.0459433 0.6666667
vt 0.5004888 0.3333333
vt 0.3636364 0.4164223
vt 0.4095797 0.5004888
vt 0.2727273 0.4164223
vt 0.3636364 0.4164223
vt 0.3186706 0.3333333
vt 0.2727273 0.4164223
vt 0.1818182 0.5835777
vt 0.3186706 0.5004888
vt 0.09090909 0.4164223
vt 0.1818182 0.4164223
vt 0.1368524 0.3333333
vt 0.5004888 0.3333333
vt 0.4095797 0.5004888
vt 0.4545455 0.5835777
vt 0.6363636 0.4164223
vt 1 0.4164223
vt 0.9550342 0.3333333
vt 0.9090909 0.4164223
vt 0.6363636 0.4164223
vt 0.8181818 0.4164223
vt 0.6823069 0.3333333
vt 0.5454546 0.5835777
vt 0.4545455 0.5835777
vt 0.5004888 0.6666667
vt 0.4545455 0.5835777
vt 0.3636364 0.5835777
vt 0.4095797 0.6666667
vt 0.4095797 0.6666667
vt 0.4545455 0.7497556
vt 0.5004888 0.6666667
vt 0.4545455 0.5835777
vt 0.4095797 0.6666667
vt 0.5004888 0.6666667
vt 0.773216 0.3333333
vt 0.7272727 0.2502444
vt 0.6823069 0.3333333
vt 0.8181818 0.4164223
vt 0.773216 0.3333333
vt 0.6823069 0.3333333
vt 0.9550342 0.3333333
vt 0.9090909 0.2502444
vt 0.8641251 0.3333333
vt 0.8641251 0.3333333
vt 0.8181818 0.4164223
vt 0.9090909 0.4164223
vt 0.9550342 0.3333333
vt 0.8641251 0.3333333
vt 0.9090909 0.4164223
vt 0.2277615 0.6666667
vt 0.2727273 0.7497556
vt 0.3186706 0.6666667
vt 0.3186706 0.6666667
vt 0.3636364 0.5835777
vt 0.1818182 0.5835777
vt 0.2277615 0.6666667
vt 0.3186706 0.6666667
vt 0.1818182 0.5835777
vt 0.4095797 0.5004888
vt 0.3636364 0.5835777
vt 0.4545455 0.5835777
vt 0.5913978 0.3333333
vt 0.5454546 0.2502444
vt 0.5004888 0.3333333
vt 0.6363636 0.4164223
vt 0.5913978 0.3333333
vt 0.5004888 0.3333333
vt 0.6363636 0.4164223
vt 0.4545455 0.5835777
vt 0.5454546 0.5835777
vt 0.1818182 0.4164223
vt 0.2727273 0.4164223
vt 0.2277615 0.3333333
vt 0.2277615 0.3333333
vt 0.1818182 0.2502444
vt 0.1368524 0.3333333
vt 0.1818182 0.4164223
vt 0.2277615 0.3333333
vt 0.1368524 0.3333333
vt 0.1818182 0.5835777
vt 0.3636364 0.5835777
vt 0.3186706 0.5004888
vt 0.1818182 0.5835777
vt 0.2727273 0.4164223
vt 0.1818182 0.4164223
vt 0.1818182 0.4164223
vt 0.09090909 0.4164223
vt 0.1368524 0.5004888
vt 0.1818182 0.5835777
vt 0.1818182 0.4164223
vt 0.1368524 0.5004888
vt 0.4095797 0.3333333
vt 0.3636364 0.2502444
vt 0.3186706 0.3333333
vt 0.3636364 0.4164223
vt 0.4095797 0.3333333
vt 0.3186706 0.3333333
vt 0.3636364 0.4164223
vt 0.2727273 0.4164223
vt 0.3186706 0.5004888
vt 0.3186706 0.5004888
vt 0.3636364 0.5835777
vt 0.4095797 0.5004888
vt 0.3636364 0.4164223
vt 0.3186706 0.5004888
vt 0.4095797 0.5004888
vt 0.9550342 0.5004888
vt 1 0.4164223
vt 0.9090909 0.4164223
vt 0.9090909 0.4164223
vt 0.8181818 0.4164223
vt 0.9090909 0.5835777
vt 0.9550342 0.5004888
vt 0.9090909 0.4164223
vt 0.9090909 0.5835777
vt 0.1368524 0.6666667
vt 0.1818182 0.5835777
vt 0.09090909 0.5835777
vt 0.09090909 0.5835777
vt 0 0.5835777
vt 0.0459433 0.6666667
vt 0.1368524 0.6666667
vt 0.09090909 0.5835777
vt 0.0459433 0.6666667
vt 0.1368524 0.5004888
vt 0.09090909 0.4164223
vt 0.0459433 0.5004888
vt 0.0459433 0.5004888
vt 0 0.5835777
vt 0.09090909 0.5835777
vt 0.1368524 0.5004888
vt 0.0459433 0.5004888
vt 0.09090909 0.5835777
vt 0.6363636 0.5835777
vt 0.5454546 0.5835777
vt 0.5913978 0.6666667
vt 0.6823069 0.6666667
vt 0.5913978 0.6666667
vt 0.6363636 0.7497556
vt 0.6823069 0.6666667
vt 0.8181818 0.4164223
vt 0.6363636 0.4164223
vt 0.6823069 0.5004888
vt 0.773216 0.5004888
vt 0.8181818 0.4164223
vt 0.6823069 0.5004888
vt 0.6823069 0.5004888
vt 0.6363636 0.4164223
vt 0.5454546 0.5835777
vt 0.6823069 0.5004888
vt 0.5454546 0.5835777
vt 0.6363636 0.5835777
vt 0.9090909 0.5835777
vt 0.8181818 0.4164223
vt 0.773216 0.5004888
vt 0.8181818 0.5835777
vt 0.9090909 0.5835777
vt 0.773216 0.5004888
vt 0.8181818 0.5835777
vt 0.7272727 0.5835777
vt 0.773216 0.6666667
vt 0.773216 0.6666667
vt 0.8181818 0.7497556
vt 0.8641251 0.6666667
vt 0.8181818 0.5835777
vt 0.773216 0.6666667
vt 0.8641251 0.6666667
vn 0.8620393 -0.4544317 0.2244553
vn 0.8620393 -0.4544317 0.2244553
vn 0.8620393 -0.4544317 0.2244553
vn 0.7774415 0.2608044 -0.5723336
vn 0.7774415 0.2608044 -0.5723336
vn 0.7774415 0.2608044 -0.5723336
vn 0.8851114 -0.1852568 -0.4269166
vn 0.8851114 -0.1852568 -0.4269166
vn 0.8851114 -0.1852568 -0.4269166
vn 0.9697092 0.1377531 -0.2017129
vn 0.9697092 0.1377531 -0.2017129
vn 0.9697092 0.1377531 -0.2017129
vn 0.8389671 -0.06989616 -0.5396746
vn 0.8389671 -0.06989616 -0.5396746
vn 0.8389671 -0.06989616 -0.5396746
vn 0.5467201 -0.1929475 0.8147811
vn 0.5467201 -0.1929475 0.8147811
vn 0.5467201 -0.1929475 0.8147811
vn 0.8235857 -0.4159781 0.3855759
vn 0.8235857 -0.4159781 0.3855759
vn 0.8235857 -0.4159781 0.3855759
vn -0.8376076 -0.04682404 -0.5442619
vn -0.8376076 -0.04682404 -0.5442619
vn -0.8376076 -0.04682404 -0.5442619
vn -0.8991333 0.1146808 0.4223833
vn -0.8991333 0.1146808 0.4223833
vn -0.8991333 0.1146808 0.4223833
vn -0.668412 -0.2852361 0.6869249
vn -0.668412 -0.2852361 0.6869249
vn -0.668412 -0.2852361 0.6869249
vn -0.03008306 0.2454229 0.9689493
vn -0.03008306 0.2454229 0.9689493
vn -0.03008306 0.2454229 0.9689493
vn -0.668412 -0.04682404 -0.7423159
vn -0.668412 -0.04682404 -0.7423159
vn -0.668412 -0.04682404 -0.7423159
vn -0.6607212 -0.03913331 -0.7496106
vn 0.3698338 0.4684536 0.8023554
vn 0.3698338 0.4684536 0.8023554
vn 0.3698338 0.4684536 0.8023554
vn 0.2852361 0.8376076 -0.4658905
vn 0.2852361 0.8376076 -0.4658905
vn 0.2852361 0.8376076 -0.4658905
vn 0.2698546 -0.7543693 -0.5984191
vn 0.2698546 -0.7543693 -0.5984191
vn 0.2698546 -0.7543693 -0.5984191
vn -0.3530928 -0.923565 -0.1495098
vn -0.3530928 -0.923565 -0.1495098
vn -0.3530928 -0.923565 -0.1495098
vn 0.392906 -0.8389671 -0.376509
vn 0.392906 -0.8389671 -0.376509
vn 0.392906 -0.8389671 -0.376509
vn 0.2621639 -0.8543485 -0.4487301
vn 0.2621639 -0.8543485 -0.4487301
vn 0.2621639 -0.8543485 -0.4487301
vn -0.0916087 0.9837311 -0.1545347
vn -0.0916087 0.9837311 -0.1545347
vn -0.0916087 0.9837311 -0.1545347
vn 0.1391125 0.9529683 -0.2692566
vn 0.1391125 0.9529683 -0.2692566
vn 0.1391125 0.9529683 -0.2692566
vn -0.0916087 0.9914218 0.093224
vn -0.0916087 0.9914218 0.093224
vn -0.0916087 0.9914218 0.093224
vn 0.1314219 0.8991333 0.4174778
vn 0.1314219 0.8991333 0.4174778
vn 0.1314219 0.8991333 0.4174778
vn 0.339071 0.8914426 0.300601
vn 0.339071 0.8914426 0.300601
vn 0.339071 0.8914426 0.300601
vn 0.4005967 -0.86973 0.2882569
vn 0.4005967 -0.86973 0.2882569
vn 0.4005967 -0.86973 0.2882569
vn -0.2992579 -0.7774415 0.5531992
vn -0.2992579 -0.7774415 0.5531992
vn -0.2992579 -0.7774415 0.5531992
vn -0.2223508 -0.8005136 0.5565412
vn -0.2223508 -0.8005136 0.5565412
vn -0.2223508 -0.8005136 0.5565412
vn -0.8299169 -0.4621224 -0.3125393
vn -0.8299169 -0.4621224 -0.3125393
vn -0.8299169 -0.4621224 -0.3125393
vn -0.6991748 0.6222678 -0.3520474
vn -0.6991748 0.6222678 -0.3520474
vn -0.6991748 0.6222678 -0.3520474
vn -0.6299585 0.3454022 -0.6955931
vn -0.6299585 0.3454022 -0.6955931
vn -0.6299585 0.3454022 -0.6955931
vn -0.7453191 -0.008370459 -0.6666554
vn -0.7453191 -0.008370459 -0.6666554
vn -0.7453191 -0.008370459 -0.6666554
vn -0.7683912 0.1762065 0.6152449
vn -0.7683912 0.1762065 0.6152449
vn -0.7683912 0.1762065 0.6152449
vn -0.7914633 0.5299792 0.3044797
vn -0.7914633 0.5299792 0.3044797
vn -0.7914633 0.5299792 0.3044797
vn -0.7299377 0.2608044 0.6318006
vn -0.7299377 0.2608044 0.6318006
vn -0.7299377 0.2608044 0.6318006
vn -0.614577 -0.5159574 0.596727
vn -0.614577 -0.5159574 0.596727
vn -0.614577 -0.5159574 0.596727
vn -0.5915049 -0.1160404 0.7979077
vn -0.5915049 -0.1160404 0.7979077
vn -0.5915049 -0.1160404 0.7979077
vn -0.1838973 0.5145978 0.8374789
vn -0.1838973 0.5145978 0.8374789
vn -0.1838973 0.5145978 0.8374789
vn -0.6837934 -0.1698754 0.7096259
vn -0.6837934 -0.1698754 0.7096259
vn -0.6837934 -0.1698754 0.7096259
vn -0.9068241 0.4146186 0.07590506
vn -0.9068241 0.4146186 0.07590506
vn -0.9068241 0.4146186 0.07590506
vn -0.9452775 0.3223301 0.0505349
vn -0.9452775 0.3223301 0.0505349
vn -0.9452775 0.3223301 0.0505349
vn -0.8914426 -0.1929475 0.4100016
vn -0.8914426 -0.1929475 0.4100016
vn -0.8914426 -0.1929475 0.4100016
vn -0.9586359 -0.2846354 0
vn -0.9586359 -0.2846354 0
vn -0.9586359 -0.2846354 0
vn -0.9145147 -0.4005967 0.05643716
vn -0.9145147 -0.4005967 0.05643716
vn -0.9145147 -0.4005967 0.05643716
vn 0.1621847 0.5991957 0.784003
vn 0.1621847 0.5991957 0.784003
vn 0.1621847 0.5991957 0.784003
vn 0.6236273 0.53767 0.5674505
vn 0.6236273 0.53767 0.5674505
vn 0.6236273 0.53767 0.5674505
vn 0.7005343 0.5607421 0.4413841
vn 0.7005343 0.5607421 0.4413841
vn 0.7005343 0.5607421 0.4413841
vn 0.6005552 -0.3159989 0.7344918
vn 0.6005552 -0.3159989 0.7344918
vn 0.6005552 -0.3159989 0.7344918
vn 0.6005552 -0.5621016 0.568661
vn 0.6005552 -0.5621016 0.568661
vn 0.6005552 -0.5621016 0.568661
vn 0.7928229 -0.2929267 0.5344397
vn 0.7928229 -0.2929267 0.5344397
vn 0.7928229 -0.2929267 0.5344397
vn 0.1083497 0.5222885 0.8458576
vn 0.1083497 0.5222885 0.8458576
vn 0.1083497 0.5222885 0.8458576
vn 0.3467617 -0.1083497 0.9316741
vn 0.3467617 -0.1083497 0.9316741
vn 0.3467617 -0.1083497 0.9316741
vn 0.6082458 -0.1083497 0.7863188
vn 0.6082458 -0.1083497 0.7863188
vn 0.6082458 -0.1083497 0.7863188
vn 0.6390087 -0.4544317 -0.6206124
vn 0.6390087 -0.4544317 -0.6206124
vn 0.6390087 -0.4544317 -0.6206124
vn 0.6543901 -0.4544317 -0.604372
vn 0.6851529 -0.5697923 -0.4537645
vn 0.6851529 -0.5697923 -0.4537645
vn 0.6851529 -0.5697923 -0.4537645
vn 0.4621224 0.7222469 -0.5145894
vn 0.4621224 0.7222469 -0.5145894
vn 0.4621224 0.7222469 -0.5145894
vn 0.9158742 0.3146394 -0.249352
vn 0.9158742 0.3146394 -0.249352
vn 0.9158742 0.3146394 -0.249352
vn 0.1083497 -0.008370459 -0.9940776
vn 0.1083497 -0.008370459 -0.9940776
vn 0.1083497 -0.008370459 -0.9940776
vn 0.5697923 -0.2314011 -0.7885368
vn 0.5697923 -0.2314011 -0.7885368
vn 0.5697923 -0.2314011 -0.7885368
vn 0.9620185 0.2531137 -0.1022442
vn 0.9620185 0.2531137 -0.1022442
vn 0.9620185 0.2531137 -0.1022442
vn 0.7543693 0.6299585 0.1846057
vn 0.7543693 0.6299585 0.1846057
vn 0.7543693 0.6299585 0.1846057
vn 0.8005136 -0.08527756 -0.5932164
vn 0.8005136 -0.08527756 -0.5932164
vn 0.8005136 -0.08527756 -0.5932164
vn 0.9466371 -0.2929267 0.1344326
vn 0.9466371 -0.2929267 0.1344326
vn 0.9466371 -0.2929267 0.1344326
vn 0.8543485 -0.5005759 0.1396865
vn 0.8543485 -0.5005759 0.1396865
vn 0.8543485 -0.5005759 0.1396865
g chunk_lHip_0
f 3/3/3 2/2/2 1/1/1
f 6/6/6 5/5/5 4/4/4
f 9/9/9 8/8/8 7/7/7
f 12/12/12 11/11/11 10/10/10
f 15/15/15 14/14/14 13/13/13
f 18/18/18 17/17/17 16/16/16
f 21/21/21 20/20/20 19/19/19
f 24/24/24 23/23/23 22/22/22
f 27/27/27 26/26/26 25/25/25
f 30/30/30 29/29/29 28/28/28
f 33/33/33 32/32/32 31/31/31
f 36/36/36 35/35/35 34/34/34
f 36/36/36 34/34/34 37/37/37
f 40/40/40 39/39/39 38/38/38
f 43/43/43 42/42/42 41/41/41
f 46/46/46 45/45/45 44/44/44
f 49/49/49 48/48/48 47/47/47
f 52/52/52 51/51/51 50/50/50
f 55/55/55 54/54/54 53/53/53
f 58/58/58 57/57/57 56/56/56
f 61/61/61 60/60/60 59/59/59
f 64/64/64 63/63/63 62/62/62
f 67/67/67 66/66/66 65/65/65
f 70/70/70 69/69/69 68/68/68
f 73/73/73 72/72/72 71/71/71
f 76/76/76 75/75/75 74/74/74
f 79/79/79 78/78/78 77/77/77
f 82/82/82 81/81/81 80/80/80
f 85/85/85 84/84/84 83/83/83
f 88/88/88 87/87/87 86/86/86
f 91/91/91 90/90/90 89/89/89
f 94/94/94 93/93/93 92/92/92
f 97/97/97 96/96/96 95/95/95
f 100/100/100 99/99/99 98/98/98
f 103/103/103 102/102/102 101/101/101
f 106/106/106 105/105/105 104/104/104
f 109/109/109 108/108/108 107/107/107
f 112/112/112 111/111/111 110/110/110
f 115/115/115 114/114/114 113/113/113
f 118/118/118 117/117/117 116/116/116
f 121/121/121 120/120/120 119/119/119
f 124/124/124 123/123/123 122/122/122
f 127/127/127 126/126/126 125/125/125
f 130/130/130 129/129/129 128/128/128
f 133/133/133 132/132/132 131/131/131
f 136/136/136 135/135/135 134/134/134
f 139/139/139 138/138/138 137/137/137
f 142/142/142 141/141/141 140/140/140
f 145/145/145 144/144/144 143/143/143
f 148/148/148 147/147/147 146/146/146
f 151/151/151 150/150/150 149/149/149
f 154/154/154 153/153/153 152/152/152
f 157/157/157 156/156/156 155/155/155
f 158/158/158 157/157/157 155/155/155
f 161/161/161 160/160/160 159/159/159
f 164/164/164 163/163/163 162/162/162
f 167/167/167 166/166/166 165/165/165
f 170/170/170 169/169/169 168/168/168
f 173/173/173 172/172/172 171/171/171
f 176/176/176 175/175/175 174/174/174
f 179/179/179 178/178/178 177/177/177
f 182/182/182 181/181/181 180/180/180
f 185/185/185 184/184/184 183/183/183
f 188/188/188 187/187/187 186/186/186
