g ConfettiCurved
v 0.07964353 -0.03036667 -0.1429338
v 0.0976283 -0.01476033 -0.06300502
v 0.006739977 -0.001883597 -0.0453278
v -0.01199416 -0.02001913 -0.1360346
v 0.07689997 -0.03108439 0.147299
v 0.09828632 -0.01165728 0.07832403
v 0.004923758 0.001219449 0.08134133
v -0.02659488 -0.01465918 0.1409543
v -0.02659488 -0.01465918 0.1409543
v -0.09784305 -0.04437287 0.1226407
v -0.08852226 -0.02658019 0.06833349
v 0.004923758 0.001219439 0.08134132
v -0.01199416 -0.02001913 -0.1360346
v -0.1014366 -0.03414606 -0.1160023
v -0.08543527 -0.01946347 -0.0484803
v 0.006739977 -0.001883597 -0.04532781
v 0.09828638 -0.01165728 0.07832403
v 0.07690002 -0.03108439 0.147299
v -0.02659488 -0.01465918 0.1409543
v 0.004923758 0.001219439 0.08134132
v 0.09828632 -0.01165728 0.07832403
v 0.09762825 -0.01476032 -0.06300502
v 0.006739977 -0.001883597 -0.04532781
v 0.004923758 0.001219449 0.08134133
v -0.08852226 -0.02658019 0.06833349
v -0.08543532 -0.01946347 -0.04848029
v 0.006739977 -0.001883597 -0.0453278
v 0.004923758 0.001219439 0.08134132
v -0.0885222 -0.02658019 0.06833349
v -0.097843 -0.04437287 0.1226407
v -0.02659488 -0.01465918 0.1409543
v 0.004923758 0.001219449 0.08134133
v 0.0976283 -0.01476033 -0.06300502
v 0.09828638 -0.01165728 0.07832403
v 0.004923758 0.001219439 0.08134132
v 0.006739977 -0.001883597 -0.0453278
v -0.08543527 -0.01946347 -0.0484803
v -0.0885222 -0.02658019 0.06833349
v 0.004923758 0.001219449 0.08134133
v 0.006739977 -0.001883597 -0.04532781
v 0.09762825 -0.01476032 -0.06300502
v 0.07964348 -0.03036667 -0.1429338
v -0.01199416 -0.02001913 -0.1360346
v 0.006739977 -0.001883597 -0.04532781
v -0.08543532 -0.01946347 -0.04848029
v -0.1014366 -0.03414606 -0.1160023
v -0.01199416 -0.02001913 -0.1360346
v 0.006739977 -0.001883597 -0.0453278
vt 1 1
vt 1 0.766338
vt 0.5 0.741904
vt 0.5 1
vt 1 0
vt 1 0.1586901
vt 0.5 0.1925902
vt 0.5 0
vt 0.5 0
vt 0 0
vt 0 0.2219716
vt 0.5 0.1925902
vt 0.5 1
vt 0 1
vt 0 0.7230068
vt 0.5 0.741904
vt 1 0.1586901
vt 1 0
vt 0.5 0
vt 0.5 0.1925902
vt 1 0.1586901
vt 1 0.7663379
vt 0.5 0.741904
vt 0.5 0.1925902
vt 0 0.2219716
vt 0 0.7230068
vt 0.5 0.741904
vt 0.5 0.1925902
vt 0 0.2219716
vt 0 0
vt 0.5 0
vt 0.5 0.1925902
vt 1 0.766338
vt 1 0.1586901
vt 0.5 0.1925902
vt 0.5 0.741904
vt 0 0.7230068
vt 0 0.2219716
vt 0.5 0.1925902
vt 0.5 0.741904
vt 1 0.7663379
vt 1 1
vt 0.5 1
vt 0.5 0.741904
vt 0 0.7230068
vt 0 1
vt 0.5 1
vt 0.5 0.741904
vn 0.0950876 0.9724668 -0.2127597
vn 0.09508759 0.9724668 -0.2127597
vn 0.0950876 0.9724668 -0.2127597
vn 0.0950876 0.9724668 -0.2127597
vn -0.1346198 -0.9400045 -0.3134789
vn -0.1346198 -0.9400045 -0.3134789
vn -0.1346198 -0.9400045 -0.3134789
vn -0.1346198 -0.9400045 -0.3134789
vn -0.3509669 0.9246987 0.1474937
vn -0.3509669 0.9246987 0.1474936
vn -0.350967 0.9246987 0.1474937
vn -0.3509669 0.9246987 0.1474937
vn 0.1842172 -0.9696633 0.1606765
vn 0.1842172 -0.9696633 0.1606766
vn 0.1842173 -0.9696633 0.1606766
vn 0.1842172 -0.9696633 0.1606766
vn 0.1346197 0.9400045 0.3134788
vn 0.1346197 0.9400045 0.3134788
vn 0.1346197 0.9400045 0.3134788
vn 0.1346197 0.9400045 0.3134788
vn -0.1359311 -0.9904662 0.02234897
vn -0.1359311 -0.9904662 0.02234897
vn -0.1359311 -0.9904662 0.02234897
vn -0.1359311 -0.9904662 0.02234897
vn -0.2383855 0.9711059 0.01120764
vn -0.2383855 0.9711059 0.01120764
vn -0.2383855 0.9711059 0.01120764
vn -0.2383855 0.9711059 0.01120764
vn 0.3509672 -0.9246987 -0.1474936
vn 0.3509672 -0.9246987 -0.1474936
vn 0.3509672 -0.9246987 -0.1474936
vn 0.3509672 -0.9246987 -0.1474936
vn 0.135931 0.9904662 -0.02234899
vn 0.135931 0.9904662 -0.02234899
vn 0.135931 0.9904662 -0.02234899
vn 0.135931 0.9904662 -0.02234899
vn 0.2383857 -0.9711059 -0.0112076
vn 0.2383857 -0.9711059 -0.0112076
vn 0.2383856 -0.9711059 -0.0112076
vn 0.2383856 -0.9711059 -0.0112076
vn -0.09508765 -0.9724668 0.2127598
vn -0.09508765 -0.9724668 0.2127598
vn -0.09508765 -0.9724668 0.2127598
vn -0.09508765 -0.9724668 0.2127598
vn -0.1842172 0.9696633 -0.1606766
vn -0.1842172 0.9696633 -0.1606766
vn -0.1842172 0.9696633 -0.1606766
vn -0.1842172 0.9696633 -0.1606766
g ConfettiCurved_0
f 3/3/3 2/2/2 1/1/1
f 4/4/4 3/3/3 1/1/1
f 7/7/7 6/6/6 5/5/5
f 8/8/8 7/7/7 5/5/5
f 11/11/11 10/10/10 9/9/9
f 12/12/12 11/11/11 9/9/9
f 15/15/15 14/14/14 13/13/13
f 16/16/16 15/15/15 13/13/13
f 19/19/19 18/18/18 17/17/17
f 20/20/20 19/19/19 17/17/17
f 23/23/23 22/22/22 21/21/21
f 24/24/24 23/23/23 21/21/21
f 27/27/27 26/26/26 25/25/25
f 28/28/28 27/27/27 25/25/25
f 31/31/31 30/30/30 29/29/29
f 32/32/32 31/31/31 29/29/29
f 35/35/35 34/34/34 33/33/33
f 36/36/36 35/35/35 33/33/33
f 39/39/39 38/38/38 37/37/37
f 40/40/40 39/39/39 37/37/37
f 43/43/43 42/42/42 41/41/41
f 44/44/44 43/43/43 41/41/41
f 47/47/47 46/46/46 45/45/45
f 48/48/48 47/47/47 45/45/45
