g cryptdiorama_webs
v -4.87084 4.856732 -4.096271
v -4.87084 6.213951 -4.096271
v -3.528979 6.213951 -4.300568
v -3.528979 4.856732 -4.300568
v 3.839649 6.176449 -4.19842
v 4.895244 6.176449 -4.19842
v 4.895244 5.120675 -4.19842
v 3.839649 5.120675 -4.19842
v 5.489385 6.209487 5.090673
v 5.292945 6.209487 4.140264
v 5.292945 5.239075 4.140264
v 5.489385 5.239075 5.090673
v 0.1603355 4.01222 -4.19842
v 1.29915 4.219911 -4.19842
v 1.50684 3.081275 -4.19842
v 0.3682041 2.873406 -4.19842
v -1.344571 3.471119 -4.19842
v -0.9711566 4.358847 -4.19842
v -0.08342838 3.985433 -4.19842
v -0.4568419 3.097705 -4.19842
v -1.264923 3.627198 -4.88953
v -1.123129 4.307415 -4.88953
v -0.1630754 4.164729 -4.88953
v -0.3048692 3.484512 -4.88953
v -5.488731 6.213058 5.012991
v -5.296935 6.213058 4.085617
v -5.296935 5.266219 4.085617
v -5.488731 5.266219 5.012991
v -5.763391 2.363378 -0.373919
v -5.436765 2.363378 -1.304507
v -5.436765 1.377072 -1.304507
v -5.763391 1.377072 -0.373919
v -4.841553 1.359929 2.474991
v -4.841553 1.919246 2.474991
v -4.453853 1.919246 2.211048
v -4.453853 1.359929 2.211048
v 4.251815 1.903352 2.601962
v 4.622193 1.903352 2.438918
v 4.622193 1.324034 2.438918
v 4.251815 1.324034 2.601962
vt 0 0
vt 0 1
vt 1 1
vt 1 0
vt 0 0
vt 0 1
vt 1 1
vt 1 0
vt 0 0
vt 0 1
vt 1 1
vt 1 0
vt 0 0
vt 0 1
vt 1 1
vt 1 0
vt 0 0
vt 0 1
vt 1 1
vt 1 0
vt 0 0
vt 0 1
vt 1 1
vt 1 0
vt 0 0
vt 0 1
vt 1 1
vt 1 0
vt 0 0
vt 0 1
vt 1 1
vt 1 0
vt 0 0
vt 0 1
vt 1 1
vt 1 0
vt 0 0
vt 0 1
vt 1 1
vt 1 0
vn 0.1497746 1.072884E-06 0.9887202
vn 0.1497746 1.072884E-06 0.9887202
vn 0.1497746 1.072884E-06 0.9887202
vn 0.1497746 1.072884E-06 0.9887202
vn -1.072884E-06 1.072884E-06 1
vn -1.072884E-06 1.072884E-06 1
vn -1.072884E-06 1.072884E-06 1
vn -1.072884E-06 1.072884E-06 1
vn 0.9793015 1.072884E-06 -0.2024072
vn 0.9793015 1.072884E-06 -0.2024072
vn 0.9793015 1.072884E-06 -0.2024072
vn 0.9793015 1.072884E-06 -0.2024072
vn -1.072884E-06 1.072884E-06 1
vn -1.072884E-06 1.072884E-06 1
vn -1.072884E-06 1.072884E-06 1
vn -1.072884E-06 1.072884E-06 1
vn -1.072884E-06 1.072884E-06 1
vn -1.072884E-06 1.072884E-06 1
vn -1.072884E-06 1.072884E-06 1
vn -1.072884E-06 1.072884E-06 1
vn -1.072884E-06 1.072884E-06 1
vn -1.072884E-06 1.072884E-06 1
vn -1.072884E-06 1.072884E-06 1
vn -1.072884E-06 1.072884E-06 1
vn 0.9793015 1.072884E-06 0.2024072
vn 0.9793015 1.072884E-06 0.2024072
vn 0.9793015 1.072884E-06 0.2024072
vn 0.9793015 1.072884E-06 0.2024072
vn 0.9447379 1.072884E-06 0.3278268
vn 0.9447379 1.072884E-06 0.3278268
vn 0.9447379 1.072884E-06 0.3278268
vn 0.9447379 1.072884E-06 0.3278268
vn 0.564538 1.072884E-06 0.8254071
vn 0.564538 1.072884E-06 0.8254071
vn 0.564538 1.072884E-06 0.8254071
vn 0.564538 1.072884E-06 0.8254071
vn 0.4032412 1.072884E-06 0.9150937
vn 0.4032412 1.072884E-06 0.9150937
vn 0.4032412 1.072884E-06 0.9150937
vn 0.4032412 1.072884E-06 0.9150937
g cryptdiorama_webs_0
f 3/3/3 2/2/2 1/1/1
f 4/4/4 3/3/3 1/1/1
f 7/7/7 6/6/6 5/5/5
f 8/8/8 7/7/7 5/5/5
f 11/11/11 10/10/10 9/9/9
f 12/12/12 11/11/11 9/9/9
f 15/15/15 14/14/14 13/13/13
f 16/16/16 15/15/15 13/13/13
f 19/19/19 18/18/18 17/17/17
f 20/20/20 19/19/19 17/17/17
f 23/23/23 22/22/22 21/21/21
f 24/24/24 23/23/23 21/21/21
f 27/27/27 26/26/26 25/25/25
f 28/28/28 27/27/27 25/25/25
f 31/31/31 30/30/30 29/29/29
f 32/32/32 31/31/31 29/29/29
f 35/35/35 34/34/34 33/33/33
f 36/36/36 35/35/35 33/33/33
f 39/39/39 38/38/38 37/37/37
f 40/40/40 39/39/39 37/37/37
