g demonCaveLava
v -0.6847693 0.01637208 -0.03987849
v 0.001239061 0.01460719 0.2217728
v -0.6693736 0.05275834 0.6700495
v -0.2394966 0.06214595 -0.3889846
v 0.001239061 0.01460719 0.2217728
v -0.6847693 0.01637208 -0.03987849
v 0.04111767 0.05564976 -0.3363389
v 0.3341986 0.01145291 -0.3001779
v 0.001239061 0.01460719 0.2217728
v 0.04111767 0.05564976 -0.3363389
v 0.001239061 0.01460719 0.2217728
v 0.3341986 0.01145291 -0.3001779
v 0.8044799 0.01329291 -0.1552709
v 0.5692266 0.04934132 0.4844378
v 0.001239061 0.01460719 0.2217728
v 0.8044799 0.01329291 -0.1552709
v 0.3200421 0.04393399 0.7198038
v 0.001239061 0.01460719 0.2217728
v 0.5692266 0.04934132 0.4844378
v 0.001239061 0.01460719 0.2217728
v -0.3289791 0.03274405 0.7714732
v -0.6693736 0.05275834 0.6700495
v 0.3200421 0.04393399 0.7198038
v 0.01385605 0.03394568 0.7984719
v -0.3289791 0.03274405 0.7714732
v 0.001239061 0.01460719 0.2217728
v 0.8044799 0.01329291 -0.1552709
v 0.3341986 0.01145291 -0.3001779
v 0.4726845 0.04123044 -0.6840933
v 1.094782 0.06894255 -0.2403226
v 0.4726845 0.04123044 -0.6840933
v 0.3341986 0.01145291 -0.3001779
v 0.04111767 0.05564976 -0.3363389
v 0.06477439 0.05579996 -1.265937
v 0.06477439 0.05579996 -1.265937
v 0.04111767 0.05564976 -0.3363389
v -0.2394966 0.06214595 -0.3889846
v -0.4651746 0.05279589 -1.186743
v -0.6847693 0.01637208 -0.03987849
v -1.183852 0.06533778 -0.1373218
v -1.183852 0.06533778 -0.1373218
v -0.6847693 0.01637208 -0.03987849
v -0.6693736 0.05275834 0.6700495
v -1.100114 0.0266608 0.6923169
v -0.3289791 0.03274405 0.7714732
v -0.3120815 0.02061522 1.188959
v -1.100114 0.0266608 0.6923169
v -0.6693736 0.05275834 0.6700495
v 0.5524791 0.03180528 1.029632
v 0.1864002 0.02482092 1.194929
v 0.01385605 0.03394568 0.7984719
v 0.3200421 0.04393399 0.7198038
v 0.5524791 0.03180528 1.029632
v 0.3200421 0.04393399 0.7198038
v 0.5692266 0.04934132 0.4844378
v 0.8976049 0.03582311 0.723972
v 0.8976049 0.03582311 0.723972
v 0.5692266 0.04934132 0.4844378
v 0.8044799 0.01329291 -0.1552709
v 1.094782 0.06894255 -0.2403226
v 0.1864002 0.02482092 1.194929
v -0.3120815 0.02061522 1.188959
v -0.3289791 0.03274405 0.7714732
v 0.01385605 0.03394568 0.7984719
vt 0.7150081 0.8174291
vt 0.8131317 0.7801851
vt 0.7236028 0.7379274
vt 0.7787526 0.8675653
vt 0.8131317 0.7801851
vt 0.7150081 0.8174291
vt 0.8188616 0.860403
vt 0.8611192 0.8553894
vt 0.8131317 0.7801851
vt 0.8188616 0.860403
vt 0.8131317 0.7801851
vt 0.8611192 0.8553894
vt 0.928445 0.8339025
vt 0.8947821 0.7422249
vt 0.8131317 0.7801851
vt 0.928445 0.8339025
vt 0.8632679 0.6748991
vt 0.8131317 0.7801851
vt 0.8947821 0.7422249
vt 0.8131317 0.7801851
vt 0.7902123 0.6978185
vt 0.7236028 0.7379274
vt 0.8632679 0.6748991
vt 0.8267401 0.6863588
vt 0.7902123 0.6978185
vt 0.8131317 0.7801851
vt 0.928445 0.8339025
vt 0.8611192 0.8553894
vt 0.8811737 0.9098229
vt 0.9699864 0.8467946
vt 0.8811737 0.9098229
vt 0.8611192 0.8553894
vt 0.8188616 0.860403
vt 0.8224428 0.993622
vt 0.8224428 0.993622
vt 0.8188616 0.860403
vt 0.7787526 0.8675653
vt 0.7465222 0.9821623
vt 0.7150081 0.8174291
vt 0.6433849 0.8317537
vt 0.6433849 0.8317537
vt 0.7150081 0.8174291
vt 0.7236028 0.7379274
vt 0.6655881 0.6942374
vt 0.7902123 0.6978185
vt 0.7751715 0.6276278
vt 0.6655881 0.6942374
vt 0.7236028 0.7379274
vt 0.8847549 0.6390876
vt 0.8303213 0.6333577
vt 0.8267401 0.6863588
vt 0.8632679 0.6748991
vt 0.8847549 0.6390876
vt 0.8632679 0.6748991
vt 0.8947821 0.7422249
vt 0.9606754 0.6777641
vt 0.9606754 0.6777641
vt 0.8947821 0.7422249
vt 0.928445 0.8339025
vt 0.9699864 0.8467946
vt 0.8303213 0.6333577
vt 0.7751715 0.6276278
vt 0.7902123 0.6978185
vt 0.8267401 0.6863588
vn 0.02259303 0.9997447 0
vn 0.02259303 0.9997447 0
vn 0.02259303 0.9997447 0
vn -0.03098638 0.9955095 0.08944648
vn -0.03098638 0.9955095 0.08944648
vn -0.03098638 0.9955095 0.08944648
vn 0.009202078 0.9955095 0.09421329
vn 0.1386982 0.9865787 0.08616988
vn 0.1386982 0.9865787 0.08616988
vn 0.1386982 0.9865787 0.08616988
vn 0.0002713054 0.9999748 -0.007088492
vn 0.0002713054 0.9999748 -0.007088492
vn 0.0002713054 0.9999748 -0.007088492
vn -0.03098638 0.9955095 -0.08944648
vn -0.03098638 0.9955095 -0.08944648
vn -0.03098638 0.9955095 -0.08944648
vn -0.04879098 0.998809 0
vn -0.04879098 0.998809 0
vn -0.04879098 0.998809 0
vn 0.05822384 0.9983035 0
vn 0.05822384 0.9983035 0
vn 0.05822384 0.9983035 0
vn -0.0220508 0.9997569 0
vn -0.0220508 0.9997569 0
vn -0.0220508 0.9997569 0
vn -0.0220508 0.9997569 0
vn -0.084571 0.9910442 0.1033401
vn -0.084571 0.9910442 0.1033401
vn -0.084571 0.9910442 0.1033401
vn -0.084571 0.9910442 0.1033401
vn 0.05822384 0.9983035 0
vn 0.05822384 0.9983035 0
vn 0.05822384 0.9983035 0
vn 0.05822384 0.9983035 0
vn 0.004736692 0.9999748 -0.005281569
vn 0.004736692 0.9999748 -0.005281569
vn 0.004736692 0.9999748 -0.005281569
vn 0.004736692 0.9999748 -0.005281569
vn 0.01366653 0.9999067 0
vn 0.01366653 0.9999067 0
vn 0.02259303 0.9997447 0
vn 0.02259303 0.9997447 0
vn 0.02259303 0.9997447 0
vn 0.02259303 0.9997447 0
vn -0.01312484 0.9955095 0.09374746
vn -0.01312484 0.9955095 0.09374746
vn -0.01312484 0.9955095 0.09374746
vn -0.01312484 0.9955095 0.09374746
vn -0.01312404 0.9999139 0
vn -0.01312404 0.9999139 0
vn -0.01312404 0.9999139 0
vn -0.01312404 0.9999139 0
vn 0.01366653 0.9999067 0
vn 0.01366653 0.9999067 0
vn 0.01366653 0.9999067 0
vn 0.01366653 0.9999067 0
vn -0.0621254 0.9980683 0
vn -0.0621254 0.9980683 0
vn -0.0621254 0.9980683 0
vn -0.0621254 0.9980683 0
vn -0.008659361 0.9999626 0
vn -0.008659361 0.9999626 0
vn -0.008659361 0.9999626 0
vn -0.008659361 0.9999626 0
g demonCaveLava_0
f 3/3/3 2/2/2 1/1/1
f 6/6/6 5/5/5 4/4/4
f 4/4/4 5/5/5 7/7/7
f 10/10/10 9/9/9 8/8/8
f 13/13/13 12/12/12 11/11/11
f 16/16/16 15/15/15 14/14/14
f 19/19/19 18/18/18 17/17/17
f 22/22/22 21/21/21 20/20/20
f 25/25/25 24/24/24 23/23/23
f 26/26/26 25/25/25 23/23/23
f 29/29/29 28/28/28 27/27/27
f 30/30/30 29/29/29 27/27/27
f 33/33/33 32/32/32 31/31/31
f 34/34/34 33/33/33 31/31/31
f 37/37/37 36/36/36 35/35/35
f 38/38/38 37/37/37 35/35/35
f 39/39/39 37/37/37 38/38/38
f 40/40/40 39/39/39 38/38/38
f 43/43/43 42/42/42 41/41/41
f 44/44/44 43/43/43 41/41/41
f 47/47/47 46/46/46 45/45/45
f 48/48/48 47/47/47 45/45/45
f 51/51/51 50/50/50 49/49/49
f 52/52/52 51/51/51 49/49/49
f 55/55/55 54/54/54 53/53/53
f 56/56/56 55/55/55 53/53/53
f 59/59/59 58/58/58 57/57/57
f 60/60/60 59/59/59 57/57/57
f 63/63/63 62/62/62 61/61/61
f 64/64/64 63/63/63 61/61/61
