g dropstoneDio_lava
v 3.32095 -0.5685234 -35.84114
v 6.375469 -0.5685234 -39.43705
v 12.44986 -0.5685234 -38.20593
v 10.1522 -0.5685234 -33.37674
v 1.037365 -0.5685234 -31.99511
v 10.1522 -0.5685234 -33.37674
v 9.628138 -0.5685234 -28.97091
v -0.3334312 -0.5685234 -27.51349
v 6.183819 -0.5685234 -25.56448
v -0.4287148 -0.5685234 -23.29173
v -0.3334312 -0.5685234 -27.51349
v 4.660347 -0.5685234 -22.68862
v -0.1785927 -0.5685234 -18.65094
v 4.660347 -0.5685234 -22.68862
v 5.366318 -0.5685234 -18.23732
v -1.368568 -0.5685234 -14.84713
v 2.308548 -0.5685234 -14.30358
v -1.719391 -0.5685234 -10.77913
v 2.308548 -0.5685234 -14.30358
v 2.181866 -0.5685234 -9.374767
v -0.9538651 -0.5685234 -6.459927
v -1.719391 -0.5685234 -10.77913
v 2.181866 -0.5685234 -9.374767
v 0.8641205 -0.5685234 -6.249866
v 5.366318 -0.5685234 -18.23732
v 7.205959 -0.5685234 -13.4536
v 5.20282 -0.5685234 -11.78828
v 2.308548 -0.5685234 -14.30358
v 8.952484 -0.5685234 -9.723423
v 7.057621 -0.5685234 -8.330969
v 5.20282 -0.5685234 -11.78828
v 8.952484 -0.5685234 -9.723423
v 8.572428 -0.5685234 -3.331776
v 10.4857 -0.5685234 -5.331669
v 10.4857 -0.5685234 -5.331669
v 12.60145 -0.5685234 -2.396255
v 10.3471 -0.5685234 -0.4461708
v 8.572428 -0.5685234 -3.331776
v -28.385 3.340309 -33.88673
v -29.67025 3.191971 -32.28854
v -29.96694 3.371712 -33.8694
v -29.96694 3.371712 -33.8694
v -29.67025 3.191971 -32.28854
v -31.2706 3.155155 -33.81202
v -31.2706 3.155155 -33.81202
v -29.67025 3.191971 -32.28854
v -31.52289 3.44101 -32.28096
v -31.04972 3.580688 -31.05851
v -31.04972 3.580688 -31.05851
v -29.67025 3.191971 -32.28854
v -30.08171 3.419353 -30.61782
v -29.5479 3.339226 -30.07643
v -27.71584 3.29808 -31.10507
v -29.5479 3.339226 -30.07643
v -29.67025 3.191971 -32.28854
v -27.71584 3.29808 -31.10507
v -29.67025 3.191971 -32.28854
v -27.72558 3.63266 -32.06874
v -27.72558 3.63266 -32.06874
v -29.67025 3.191971 -32.28854
v -28.385 3.340309 -33.88673
v -28.80619 2.982994 -29.06836
v -26.95681 3.159485 -30.17604
v -26.88535 2.644085 -29.69096
v -28.44347 2.444851 -28.78467
v -28.97511 3.279675 -29.47115
v -27.36069 3.383621 -30.61457
v -26.95681 3.159485 -30.17604
v -28.80619 2.982994 -29.06836
v -27.71584 3.29808 -31.10507
v -27.36069 3.383621 -30.61457
v -28.97511 3.279675 -29.47115
v -29.5479 3.339226 -30.07643
v -24.58335 2.410202 -28.06137
v -26.46848 2.552048 -24.87692
v -28.44347 2.444851 -28.78467
v -26.88535 2.644085 -29.69096
v -26.46848 2.552048 -24.87692
v -24.58335 2.410202 -28.06137
v -23.17466 2.234791 -26.72739
v -23.3046 2.052887 -24.7459
v -25.55894 2.451347 -23.49854
v -21.34044 2.021484 -25.9283
v -19.82238 1.835247 -25.43563
v -21.07407 1.774612 -23.40217
v -23.3046 2.052887 -24.7459
v -23.3046 2.052887 -24.7459
v -23.17466 2.234791 -26.72739
v -16.4127 1.254879 -12.15859
v -16.36073 1.241882 -12.56897
v -14.88382 1.156345 -11.0076
v -14.97153 1.153095 -10.7185
v -13.87251 1.038322 -9.98329
v -16.36073 1.241882 -12.56897
v -16.4127 1.254879 -12.15859
v -17.92535 1.403217 -13.92785
v -17.77917 1.274368 -14.76376
v -18.76558 1.527737 -15.29216
v -18.34222 1.495255 -16.09125
v -17.77917 1.274368 -14.76376
v -17.92535 1.403217 -13.92785
v -12.49413 0.413559 -19.35799
v -13.34194 0.7156525 -18.44738
v -14.47345 1.106537 -18.53616
v -14.14753 0.9982567 -19.83225
v -10.48341 -0.524128 -18.28929
v -10.03513 -0.3140717 -18.41922
v -8.546314 -0.1202507 -17.16428
v -14.47345 1.106537 -18.53616
v -17.03314 0.8791542 -19.6969
v -15.37973 0.8390884 -21.59826
v -14.14753 0.9982567 -19.83225
v -25.55894 2.451347 -23.49854
v -23.3046 2.052887 -24.7459
v -21.07407 1.774612 -23.40217
v -23.72363 2.210972 -21.98265
v -22.7762 2.003078 -21.33298
v -19.82238 1.835247 -25.43563
v -17.06887 1.293858 -23.96847
v -19.30156 1.458439 -21.4326
v -21.07407 1.774612 -23.40217
v -17.03314 0.8791542 -19.6969
v -15.37973 0.8390884 -21.59826
v -18.76558 1.527737 -15.29216
v -19.95339 1.780025 -16.52653
v -18.601 1.616524 -18.27413
v -18.34222 1.495255 -16.09125
v -21.07407 1.774612 -23.40217
v -19.8711 1.774612 -20.75153
v -21.5126 1.895882 -19.32551
v -22.7762 2.003078 -21.33298
v -19.95339 1.780025 -16.52653
v -18.601 1.616524 -18.27413
v -10.03513 -0.3140717 -18.41922
v -10.48341 -0.524128 -18.28929
v -11.91376 -0.07694244 -18.70291
v -11.20779 0.01834488 -19.0245
v -11.20779 0.01834488 -19.0245
v -11.91376 -0.07694244 -18.70291
v -13.34194 0.7156525 -18.44738
v -12.49413 0.413559 -19.35799
v 15.87036 0.6593475 -5.425873
v 14.21371 0.5510712 -4.138447
v 13.96142 0.5304985 -5.10537
v 15.64298 0.6593475 -6.575783
v 19.27245 1.120613 -8.055943
v 17.52701 0.9127197 -6.704636
v 16.89792 0.9246292 -7.223286
v 17.99153 1.120613 -8.384024
v 15.64298 0.6593475 -6.575783
v 15.87036 0.6593475 -5.425873
v 18.6596 1.382645 -9.631386
v 19.9362 1.382645 -9.731003
v 19.27245 1.120613 -8.055943
v 17.99153 1.120613 -8.384024
v 18.55132 1.955437 -11.73956
v 19.76728 1.955437 -11.69516
v 19.9362 1.382645 -9.731003
v 18.6596 1.382645 -9.631386
v 18.70616 2.57262 -14.07728
v 19.57347 2.57262 -13.99499
v 16.32729 2.284599 -22.7276
v 17.1881 2.306255 -22.73518
v 18.10414 2.432941 -20.82408
v 17.27689 2.432941 -20.86089
v 17.27689 2.432941 -20.86089
v 18.10414 2.432941 -20.82408
v 18.24165 2.673317 -18.24165
v 17.33103 2.733955 -18.23515
v 17.33103 2.733955 -18.23515
v 18.24165 2.673317 -18.24165
v 18.81552 2.666821 -16.0566
v 17.90599 2.666821 -16.13239
v 17.90599 2.666821 -16.13239
v 18.81552 2.666821 -16.0566
v 19.57347 2.57262 -13.99499
v 18.70616 2.57262 -14.07728
v 14.21371 0.5510712 -4.138447
v 12.9945 0.5510712 -3.901318
v 13.08545 0.5304985 -4.899639
v 13.96142 0.5304985 -5.10537
vt 0.003910009 0.8729227
vt 0.003910009 0.9999999
vt 0.9951124 0.9999999
vt 0.9951124 0.8729227
vt 0.003910009 0.748778
vt 0.9951124 0.8729227
vt 0.9951124 0.748778
vt 0.003910009 0.6246334
vt 0.9951124 0.6246334
vt 0.003910009 0.5004887
vt 0.003910009 0.6246334
vt 0.9951124 0.5004887
vt 0.003910009 0.3753665
vt 0.9951124 0.5004887
vt 0.9951124 0.3753665
vt 0.003910009 0.2512218
vt 0.9951124 0.2512218
vt 0.003910009 0.1270772
vt 0.9951124 0.2512218
vt 0.9951124 0.1270772
vt 0.003910009 -5.960464E-08
vt 0.003910009 0.1270772
vt 0.9951124 0.1270772
vt 0.9951124 -5.960464E-08
vt 0.9951124 0.372434
vt 0.9951124 0.2795698
vt 0.003910009 0.2805474
vt 0.003910009 0.374389
vt 0.9951124 0.1867057
vt 0.003910009 0.1867057
vt 0.003910009 0.2805474
vt 0.9951124 0.1867057
vt 0.003910009 0.09384158
vt 0.9951124 0.09286407
vt 0.9951124 0.09286407
vt 0.9951124 -5.960464E-08
vt 0.003910009 -5.960464E-08
vt 0.003910009 0.09384158
vt 0.9951124 0.9286412
vt 0.9951124 0.9247311
vt 0.9951124 0.9687194
vt 0.9951124 0.9687194
vt 0.9951124 0.9247311
vt 0.9951124 0.9999999
vt 0.9951124 0.9999999
vt 0.9951124 0.9247311
vt 0.00684256 0.9726295
vt 0.00684256 0.9335288
vt 0.00684256 0.9335288
vt 0.9951124 0.9247311
vt 0.00684256 0.8973606
vt 0.00684256 0.8709677
vt 0.9951124 0.8475073
vt 0.00684256 0.8709677
vt 0.9951124 0.9247311
vt 0.9951124 0.8475073
vt 0.9951124 0.9247311
vt 0.9951124 0.8719452
vt 0.9951124 0.8719452
vt 0.9951124 0.9247311
vt 0.9951124 0.9286412
vt 0.00684256 0.8279569
vt 0.9951124 0.8064516
vt 0.9951124 0.7908113
vt 0.00684256 0.8093841
vt 0.00684256 0.8426197
vt 0.9951124 0.8279569
vt 0.9951124 0.8064516
vt 0.00684256 0.8279569
vt 0.9951124 0.8475073
vt 0.9951124 0.8279569
vt 0.00684256 0.8426197
vt 0.00684256 0.8709677
vt 0.9951124 0.6940371
vt 0.00684256 0.6695992
vt 0.00684256 0.8093841
vt 0.9951124 0.7908113
vt 0.00684256 0.6695992
vt 0.9951124 0.6940371
vt 0.9951124 0.6265884
vt 0.9990224 0.5835776
vt 0.00684256 0.6148582
vt 0.9804496 0.5601172
vt 0.9804496 0.5092863
vt 0.01564021 0.4946236
vt 0.01564021 0.5835776
vt 0.01564021 0.5835776
vt 0.9804496 0.6265884
vt 0.005865043 0.115347
vt 0.9941348 0.1241446
vt 0.9941348 0.04985331
vt 0.005865043 0.04594325
vt 0.9941348 -5.960464E-08
vt 0.9941348 0.1241446
vt 0.005865043 0.115347
vt 0.005865043 0.1955034
vt 0.9941348 0.2101661
vt 0.005865043 0.2492668
vt 0.9941348 0.2561094
vt 0.9941348 0.2101661
vt 0.005865043 0.1955034
vt 0.9804496 0.175953
vt 0.01564021 0.1788856
vt 0.01564021 0.2111436
vt 0.9804496 0.232649
vt 0.01564021 0.09677413
vt 0.9804496 0.08895399
vt 0.9804496 0.02248283
vt 0.01564021 0.2111436
vt 0.01564021 0.3020527
vt 0.9804496 0.3030303
vt 0.9804496 0.232649
vt 0.00684256 0.6148582
vt 0.9990224 0.5835776
vt 0.9990224 0.4946236
vt 0.00684256 0.5317693
vt 0.00684256 0.4916911
vt 0.9804496 0.5092863
vt 0.9804496 0.402737
vt 0.01564021 0.402737
vt 0.01564021 0.4946236
vt 0.01564021 0.3020527
vt 0.9804496 0.3030303
vt 0.005865043 0.2492668
vt 0.005865043 0.3088953
vt 0.9941348 0.3137829
vt 0.9941348 0.2561094
vt 0.9941348 0.4946236
vt 0.9941348 0.4037145
vt 0.005865043 0.4134897
vt 0.005865043 0.4916911
vt 0.005865043 0.3088953
vt 0.9941348 0.3137829
vt 0.9804496 0.08895399
vt 0.01564021 0.09677413
vt 0.01564021 0.1446725
vt 0.9804496 0.1339198
vt 0.9804496 0.1339198
vt 0.01564021 0.1446725
vt 0.01564021 0.1788856
vt 0.9804496 0.175953
vt 0.9931573 0.1642228
vt 0.9931573 0.05962848
vt 0.03128049 0.06744862
vt 0.03128049 0.1661779
vt 0.9931573 0.3040078
vt 0.9931573 0.2512218
vt 0.03128049 0.2424242
vt 0.03128049 0.3010752
vt 0.03128049 0.1661779
vt 0.9931573 0.1642228
vt 0.03128049 0.3695014
vt 0.9931573 0.3734115
vt 0.9931573 0.3040078
vt 0.03128049 0.3010752
vt 0.03128049 0.4682306
vt 0.9931573 0.4662756
vt 0.9931573 0.3734115
vt 0.03128049 0.3695014
vt 0.03128049 0.5777125
vt 0.9931573 0.5738025
vt 0.03128049 0.9833822
vt 0.9931573 0.9843597
vt 0.9931573 0.8944281
vt 0.03128049 0.8963831
vt 0.03128049 0.8963831
vt 0.9931573 0.8944281
vt 0.9931573 0.7732159
vt 0.03128049 0.7732159
vt 0.03128049 0.7732159
vt 0.9931573 0.7732159
vt 0.9931573 0.6705767
vt 0.03128049 0.6744868
vt 0.03128049 0.6744868
vt 0.9931573 0.6705767
vt 0.9931573 0.5738025
vt 0.03128049 0.5777125
vt 0.9931573 0.05962848
vt 0.9931573 0.01368518
vt 0.03128049 0.02443787
vt 0.03128049 0.06744862
vn 0.0003048182 0.9999999 0
vn 0.0003048182 0.9999999 0
vn 0.0003048182 0.9999999 0
vn 0.0003048182 0.9999999 0
vn 0.0003048182 0.9999999 0
vn 0.0003048182 0.9999999 0
vn 0.0003048182 0.9999999 0
vn 0.0003048182 0.9999999 0
vn 0.0003048182 0.9999999 0
vn 0.0003048182 0.9999999 0
vn 0.0003048182 0.9999999 0
vn 0.0003048182 0.9999999 0
vn 0.0003048182 0.9999999 0
vn 0.0003048182 0.9999999 0
vn 0.0003048182 0.9999999 0
vn 0.0003048182 0.9999999 0
vn 0.0003048182 0.9999999 0
vn 0.0003048182 0.9999999 0
vn 0.0003048182 0.9999999 0
vn 0.0003048182 0.9999999 0
vn 0.0003048182 0.9999999 0
vn 0.0003048182 0.9999999 0
vn 0.0003048182 0.9999999 0
vn 0.0003048182 0.9999999 0
vn 0.0003048182 0.9999999 0
vn 0.0003048182 0.9999999 0
vn 0.0003048182 0.9999999 0
vn 0.0003048182 0.9999999 0
vn 0.0003048182 0.9999999 0
vn 0.0003048182 0.9999999 0
vn 0.0003048182 0.9999999 0
vn 0.0003048182 0.9999999 0
vn 0.0003048182 0.9999999 0
vn 0.0003048182 0.9999999 0
vn 0.0003048182 0.9999999 0
vn 0.0003048182 0.9999999 0
vn 0.0003048182 0.9999999 0
vn 0.0003048182 0.9999999 0
vn 0.02181676 0.9946219 0.1012486
vn 0.02181676 0.9946219 0.1012486
vn 0.02181676 0.9946219 0.1012486
vn -0.1556567 0.978488 0.1353964
vn -0.1556567 0.978488 0.1353964
vn -0.1556567 0.978488 0.1353964
vn 0.1293764 0.978488 -0.1606952
vn 0.1293764 0.978488 -0.1606952
vn 0.1293764 0.978488 -0.1606952
vn 0.1293764 0.978488 -0.1606952
vn 0.1992902 0.978488 -0.05333453
vn 0.1992902 0.978488 -0.05333453
vn 0.1992902 0.978488 -0.05333453
vn 0.2208021 0.97311 -0.06559982
vn -0.01582713 0.9998748 0
vn -0.01582713 0.9998748 0
vn -0.01582713 0.9998748 0
vn -0.2417044 0.9139522 0.3259915
vn -0.2417044 0.9139522 0.3259915
vn -0.2417044 0.9139522 0.3259915
vn -0.2094365 0.97311 -0.0958814
vn -0.2094365 0.97311 -0.0958814
vn -0.2094365 0.97311 -0.0958814
vn 0.3391177 0.6396751 0.6897934
vn 0.3391177 0.6396751 0.6897934
vn 0.3391177 0.6396751 0.6897934
vn 0.3391177 0.6396751 0.6897934
vn 0.1992902 0.8870623 0.416418
vn 0.1992902 0.8870623 0.416418
vn 0.1992902 0.8870623 0.416418
vn 0.1992902 0.8870623 0.416418
vn -0.02120233 0.9997752 0
vn -0.02120233 0.9997752 0
vn -0.02120233 0.9997752 0
vn -0.02120233 0.9997752 0
vn 0.005682735 0.9999838 0
vn 0.005682735 0.9999838 0
vn 0.005682735 0.9999838 0
vn 0.005682735 0.9999838 0
vn 0.1347544 0.9892439 0.056901
vn 0.1347544 0.9892439 0.056901
vn 0.1293764 0.9892439 0.06825117
vn 0.1293764 0.9892439 0.06825117
vn 0.1347544 0.9892439 0.056901
vn 0.08097458 0.9946219 0.06457831
vn 0.08097458 0.9946219 0.06457831
vn 0.08097458 0.9946219 0.06457831
vn 0.08097458 0.9946219 0.06457831
vn 0.1293764 0.9892439 0.06825117
vn 0.1293764 0.9892439 0.06825117
vn 0.06470475 0.9979045 0
vn 0.06470475 0.9979045 0
vn 0.06470475 0.9979045 0
vn 0.06470475 0.9979045 0
vn 0.08097458 0.9946219 0.06457831
vn 0.1724003 0.983866 -0.04780982
vn 0.1724003 0.983866 -0.04780982
vn 0.1724003 0.983866 -0.04780982
vn 0.1724003 0.983866 -0.04780982
vn 0.2530005 0.9674662 0
vn 0.2530005 0.9674662 0
vn 0.2530005 0.9674662 0
vn 0.2530005 0.9674662 0
vn 0.3278452 0.9447315 0
vn 0.3278452 0.9447315 0
vn 0.3278452 0.9447315 0
vn 0.3278452 0.9447315 0
vn -0.3438861 0.8978183 0.2750722
vn -0.3438861 0.8978183 0.2750722
vn -0.3438861 0.8978183 0.2750722
vn -0.04271904 0.9946219 -0.09435206
vn -0.04271904 0.9946219 -0.09435206
vn -0.04271904 0.9946219 -0.09435206
vn -0.04271904 0.9946219 -0.09435206
vn 0.1560307 0.9877523 0
vn 0.1560307 0.9877523 0
vn 0.1560307 0.9877523 0
vn 0.1560307 0.9877523 0
vn 0.1560307 0.9877523 0
vn 0.1293764 0.9892439 0.06825117
vn 0.1293764 0.9892439 0.06825117
vn 0.1293764 0.9892439 0.06825117
vn 0.1293764 0.9892439 0.06825117
vn 0.1616443 0.983866 0.07667299
vn 0.1616443 0.983866 0.07667299
vn 0.1616443 0.983866 0.07667299
vn 0.1616443 0.983866 0.07667299
vn 0.1616443 0.983866 0.07667299
vn 0.1616443 0.983866 0.07667299
vn 0.08097458 0.9946219 -0.06457831
vn 0.08097458 0.9946219 -0.06457831
vn 0.08097458 0.9946219 -0.06457831
vn 0.08097458 0.9946219 -0.06457831
vn 0.09710851 0.9946219 0.03601633
vn 0.09710851 0.9946219 0.03601633
vn 0.01643878 0.8117705 0.5837451
vn 0.01643878 0.8117705 0.5837451
vn 0.01643878 0.8117705 0.5837451
vn 0.01643878 0.8117705 0.5837451
vn 0.3713856 0.8709283 0.321802
vn 0.3713856 0.8709283 0.321802
vn 0.3713856 0.8709283 0.321802
vn 0.3713856 0.8709283 0.321802
vn -0.06409886 0.9979435 0
vn -0.06409886 0.9979435 0
vn -0.06409886 0.9979435 0
vn -0.06409886 0.9979435 0
vn -0.04271904 0.9946219 0.09435206
vn -0.08036491 0.9946219 0.06533533
vn -0.09112087 0.9892439 0.1144267
vn -0.04271904 0.9946219 0.09435206
vn -0.1287668 0.9892439 0.06939437
vn -0.1287668 0.9892439 0.06939437
vn -0.01582912 0.983866 0.1782051
vn -0.01582912 0.983866 0.1782051
vn -0.01582912 0.983866 0.1782051
vn -0.01582912 0.983866 0.1782051
vn 0.005682826 0.9623541 0.2717393
vn 0.005682826 0.9623541 0.2717393
vn 0.005682826 0.9623541 0.2717393
vn 0.005682826 0.9623541 0.2717393
vn -0.01582912 0.967732 0.2514839
vn -0.01582912 0.967732 0.2514839
vn -0.01045057 0.9999455 0
vn -0.01045057 0.9999455 0
vn -0.01045057 0.9999455 0
vn -0.01045057 0.9999455 0
vn 0.03795069 0.9946219 -0.09636908
vn 0.03795069 0.9946219 -0.09636908
vn 0.03795069 0.9946219 -0.09636908
vn 0.03795069 0.9946219 -0.09636908
vn 0.03255545 0.99947 0
vn 0.03255545 0.99947 0
vn 0.03255545 0.99947 0
vn 0.03255545 0.99947 0
vn -0.005073095 0.9999872 0
vn -0.005073095 0.9999872 0
vn -0.005073095 0.9999872 0
vn -0.005073095 0.9999872 0
vn -0.005073095 0.9999872 0
vn -0.005073095 0.9999872 0
vn -0.005073095 0.9999872 0
vn -0.005073095 0.9999872 0
g dropstoneDio_lava_0
f 3/3/3 2/2/2 1/1/1
f 4/4/4 3/3/3 1/1/1
f 6/6/6 1/1/1 5/5/5
f 7/7/7 6/6/6 5/5/5
f 7/7/7 5/5/5 8/8/8
f 9/9/9 7/7/7 8/8/8
f 9/9/9 11/11/11 10/10/10
f 12/12/12 9/9/9 10/10/10
f 14/14/14 10/10/10 13/13/13
f 15/15/15 14/14/14 13/13/13
f 15/15/15 13/13/13 16/16/16
f 17/17/17 15/15/15 16/16/16
f 19/19/19 16/16/16 18/18/18
f 20/20/20 19/19/19 18/18/18
f 23/23/23 22/22/22 21/21/21
f 24/24/24 23/23/23 21/21/21
f 27/27/27 26/26/26 25/25/25
f 28/28/28 27/27/27 25/25/25
f 30/30/30 29/29/29 26/26/26
f 31/31/31 30/30/30 26/26/26
f 30/30/30 33/33/33 32/32/32
f 33/33/33 34/34/34 32/32/32
f 37/37/37 36/36/36 35/35/35
f 38/38/38 37/37/37 35/35/35
f 41/41/41 40/40/40 39/39/39
f 44/44/44 43/43/43 42/42/42
f 47/47/47 46/46/46 45/45/45
f 48/48/48 46/46/46 47/47/47
f 51/51/51 50/50/50 49/49/49
f 52/52/52 50/50/50 51/51/51
f 55/55/55 54/54/54 53/53/53
f 58/58/58 57/57/57 56/56/56
f 61/61/61 60/60/60 59/59/59
f 64/64/64 63/63/63 62/62/62
f 65/65/65 64/64/64 62/62/62
f 68/68/68 67/67/67 66/66/66
f 69/69/69 68/68/68 66/66/66
f 72/72/72 71/71/71 70/70/70
f 73/73/73 72/72/72 70/70/70
f 76/76/76 75/75/75 74/74/74
f 77/77/77 76/76/76 74/74/74
f 80/80/80 79/79/79 78/78/78
f 78/78/78 81/81/81 80/80/80
f 78/78/78 82/82/82 81/81/81
f 85/85/85 84/84/84 83/83/83
f 86/86/86 85/85/85 83/83/83
f 88/88/88 87/87/87 83/83/83
f 91/91/91 90/90/90 89/89/89
f 92/92/92 91/91/91 89/89/89
f 93/93/93 91/91/91 92/92/92
f 96/96/96 95/95/95 94/94/94
f 97/97/97 96/96/96 94/94/94
f 100/100/100 99/99/99 98/98/98
f 101/101/101 100/100/100 98/98/98
f 104/104/104 103/103/103 102/102/102
f 105/105/105 104/104/104 102/102/102
f 108/108/108 107/107/107 106/106/106
f 111/111/111 110/110/110 109/109/109
f 112/112/112 111/111/111 109/109/109
f 115/115/115 114/114/114 113/113/113
f 113/113/113 116/116/116 115/115/115
f 116/116/116 117/117/117 115/115/115
f 120/120/120 119/119/119 118/118/118
f 121/121/121 120/120/120 118/118/118
f 120/120/120 122/122/122 119/119/119
f 122/122/122 123/123/123 119/119/119
f 126/126/126 125/125/125 124/124/124
f 127/127/127 126/126/126 124/124/124
f 130/130/130 129/129/129 128/128/128
f 131/131/131 130/130/130 128/128/128
f 130/130/130 132/132/132 129/129/129
f 132/132/132 133/133/133 129/129/129
f 136/136/136 135/135/135 134/134/134
f 137/137/137 136/136/136 134/134/134
f 140/140/140 139/139/139 138/138/138
f 141/141/141 140/140/140 138/138/138
f 144/144/144 143/143/143 142/142/142
f 145/145/145 144/144/144 142/142/142
f 148/148/148 147/147/147 146/146/146
f 149/149/149 148/148/148 146/146/146
f 148/148/148 150/150/150 147/147/147
f 150/150/150 151/151/151 147/147/147
f 154/154/154 153/153/153 152/152/152
f 155/155/155 154/154/154 152/152/152
f 158/158/158 157/157/157 156/156/156
f 159/159/159 158/158/158 156/156/156
f 156/156/156 157/157/157 160/160/160
f 157/157/157 161/161/161 160/160/160
f 164/164/164 163/163/163 162/162/162
f 165/165/165 164/164/164 162/162/162
f 168/168/168 167/167/167 166/166/166
f 169/169/169 168/168/168 166/166/166
f 172/172/172 171/171/171 170/170/170
f 173/173/173 172/172/172 170/170/170
f 176/176/176 175/175/175 174/174/174
f 177/177/177 176/176/176 174/174/174
f 180/180/180 179/179/179 178/178/178
f 181/181/181 180/180/180 178/178/178
