g dualStick
v 0.01775055 -0.003740692 -0.03183062
v -0.01984512 -0.003740692 -0.03183062
v 0.0204779 -0.02609596 -0.03655483
v -0.02257263 -0.02609596 -0.03655485
v 0.0204779 -0.02609596 -0.03655483
v -0.02257263 -0.02609596 -0.03655485
v 0.01775055 -0.04845116 -0.03183062
v -0.01984512 -0.04845116 -0.03183062
v 0.01920136 0.4762366 -0.03434353
v -0.02129608 0.4762366 -0.03434353
v 0.02213943 0.452156 -0.03943238
v -0.02423401 0.452156 -0.03943241
v 0.02213943 0.452156 -0.03943238
v -0.02423401 0.452156 -0.03943241
v 0.01920136 0.4280755 -0.03434353
v -0.02129608 0.4280755 -0.03434353
v 0.01775055 -0.003740692 -0.03183062
v 0.01920136 0.4280755 -0.03434353
v -0.01984512 -0.003740692 -0.03183062
v -0.02129608 0.4280755 -0.03434353
v -0.01984512 -0.003740692 -0.03183062
v -0.02129608 0.4280755 -0.03434353
v -0.03864304 -0.003740692 0.0007281583
v -0.04154465 0.4280755 0.0007281585
v -0.03864304 -0.003740692 0.0007281583
v -0.04154465 0.4280755 0.0007281585
v -0.01984512 -0.003740692 0.03328695
v -0.02129608 0.4280755 0.03579986
v -0.01984512 -0.003740692 0.03328695
v -0.02129608 0.4280755 0.03579986
v 0.0177504 -0.003740692 0.03328695
v 0.01920136 0.4280755 0.03579986
v 0.0177504 -0.003740692 0.03328695
v 0.01920136 0.4280755 0.03579986
v 0.03654831 -0.003740692 0.000728164
v 0.03944992 0.4280755 0.0007281645
v 0.03654831 -0.003740692 0.000728164
v 0.03944992 0.4280755 0.0007281645
v 0.01775055 -0.003740692 -0.03183062
v 0.01920136 0.4280755 -0.03434353
v 0.01920136 0.4762366 -0.03434353
v 0.01775055 0.691286 -0.03183062
v -0.02129608 0.4762366 -0.03434353
v -0.01984512 0.691286 -0.03183062
v -0.02129608 0.4762366 -0.03434353
v -0.01984512 0.691286 -0.03183062
v -0.04154465 0.4762366 0.0007281585
v -0.03864304 0.691286 0.0007281583
v -0.04154465 0.4762366 0.0007281585
v -0.03864304 0.691286 0.0007281583
v -0.02129608 0.4762366 0.03579986
v -0.01984512 0.691286 0.03328695
v -0.02129608 0.4762366 0.03579986
v -0.01984512 0.691286 0.03328695
v 0.01920136 0.4762366 0.03579986
v 0.0177504 0.691286 0.03328695
v 0.01920136 0.4762366 0.03579986
v 0.0177504 0.691286 0.03328695
v 0.03944992 0.4762366 0.0007281645
v 0.03654831 0.691286 0.000728164
v 0.03944992 0.4762366 0.0007281645
v 0.03654831 0.691286 0.000728164
v 0.01920136 0.4762366 -0.03434353
v 0.01775055 0.691286 -0.03183062
v -0.01984512 -0.003740692 -0.03183062
v -0.03864304 -0.003740692 0.0007281583
v -0.02257263 -0.02609596 -0.03655485
v -0.04409805 -0.02609596 0.0007281573
v -0.02257263 -0.02609596 -0.03655485
v -0.04409805 -0.02609596 0.0007281573
v -0.01984512 -0.04845116 -0.03183062
v -0.03864304 -0.04845116 0.0007281583
v -0.03864304 -0.003740692 0.0007281583
v -0.01984512 -0.003740692 0.03328695
v -0.04409805 -0.02609596 0.0007281573
v -0.02257263 -0.02609596 0.03801116
v -0.04409805 -0.02609596 0.0007281573
v -0.02257263 -0.02609596 0.03801116
v -0.03864304 -0.04845116 0.0007281583
v -0.01984512 -0.04845116 0.03328695
v -0.01984512 -0.003740692 0.03328695
v 0.0177504 -0.003740692 0.03328695
v -0.02257263 -0.02609596 0.03801116
v 0.0204779 -0.02609596 0.03801118
v -0.02257263 -0.02609596 0.03801116
v 0.0204779 -0.02609596 0.03801118
v -0.01984512 -0.04845116 0.03328695
v 0.0177504 -0.04845116 0.03328695
v 0.0177504 -0.003740692 0.03328695
v 0.03654831 -0.003740692 0.000728164
v 0.0204779 -0.02609596 0.03801118
v 0.04200333 -0.02609596 0.0007281637
v 0.0204779 -0.02609596 0.03801118
v 0.04200333 -0.02609596 0.0007281637
v 0.0177504 -0.04845116 0.03328695
v 0.03654831 -0.04845116 0.000728164
v 0.01775055 -0.04845116 -0.03183062
v 0.03654831 -0.04845116 0.000728164
v 0.0204779 -0.02609596 -0.03655483
v 0.04200333 -0.02609596 0.0007281637
v 0.0204779 -0.02609596 -0.03655483
v 0.04200333 -0.02609596 0.0007281637
v 0.01775055 -0.003740692 -0.03183062
v 0.03654831 -0.003740692 0.000728164
v -0.02129608 0.4762366 -0.03434353
v -0.04154465 0.4762366 0.0007281585
v -0.02423401 0.452156 -0.03943241
v -0.04742081 0.452156 0.0007281573
v -0.02423401 0.452156 -0.03943241
v -0.04742081 0.452156 0.0007281573
v -0.02129608 0.4280755 -0.03434353
v -0.04154465 0.4280755 0.0007281585
v -0.04154465 0.4762366 0.0007281585
v -0.02129608 0.4762366 0.03579986
v -0.04742081 0.452156 0.0007281573
v -0.02423401 0.452156 0.04088871
v -0.04742081 0.452156 0.0007281573
v -0.02423401 0.452156 0.04088871
v -0.04154465 0.4280755 0.0007281585
v -0.02129608 0.4280755 0.03579986
v -0.02129608 0.4762366 0.03579986
v 0.01920136 0.4762366 0.03579986
v -0.02423401 0.452156 0.04088871
v 0.02213928 0.452156 0.04088871
v -0.02423401 0.452156 0.04088871
v 0.02213928 0.452156 0.04088871
v -0.02129608 0.4280755 0.03579986
v 0.01920136 0.4280755 0.03579986
v 0.01920136 0.4762366 0.03579986
v 0.03944992 0.4762366 0.0007281645
v 0.02213928 0.452156 0.04088871
v 0.04532608 0.452156 0.0007281643
v 0.02213928 0.452156 0.04088871
v 0.04532608 0.452156 0.0007281643
v 0.01920136 0.4280755 0.03579986
v 0.03944992 0.4280755 0.0007281645
v 0.01920136 0.4280755 -0.03434353
v 0.03944992 0.4280755 0.0007281645
v 0.02213943 0.452156 -0.03943238
v 0.04532608 0.452156 0.0007281643
v 0.02213943 0.452156 -0.03943238
v 0.04532608 0.452156 0.0007281643
v 0.01920136 0.4762366 -0.03434353
v 0.03944992 0.4762366 0.0007281645
v 0.0383963 -0.2790815 0.0007281641
v 0.03654831 -0.04845116 0.000728164
v 0.01867447 -0.2790813 -0.03343105
v 0.01775055 -0.04845116 -0.03183062
v 0.01867447 -0.2790815 0.03488738
v 0.0177504 -0.04845116 0.03328695
v 0.0383963 -0.2790815 0.0007281641
v 0.03654831 -0.04845116 0.000728164
v -0.0207692 -0.2790815 0.03488738
v -0.01984512 -0.04845116 0.03328695
v 0.01867447 -0.2790815 0.03488738
v 0.0177504 -0.04845116 0.03328695
v -0.04049103 -0.2790815 0.0007281582
v -0.03864304 -0.04845116 0.0007281583
v -0.0207692 -0.2790815 0.03488738
v -0.01984512 -0.04845116 0.03328695
v -0.0207692 -0.2790815 -0.03343105
v -0.01984512 -0.04845116 -0.03183062
v -0.04049103 -0.2790815 0.0007281582
v -0.03864304 -0.04845116 0.0007281583
v 0.01867447 -0.2790813 -0.03343105
v 0.01775055 -0.04845116 -0.03183062
v -0.0207692 -0.2790815 -0.03343105
v -0.01984512 -0.04845116 -0.03183062
v 0.01775055 0.691286 -0.03183062
v 0.0108223 0.691286 -0.01983062
v -0.01291687 0.691286 -0.01983062
v -0.01984512 0.691286 -0.03183062
v -0.02478668 0.691286 0.0007281597
v -0.03864304 0.691286 0.0007281583
v -0.01291687 0.691286 0.02128695
v -0.01984512 0.691286 0.03328695
v 0.01082214 0.691286 0.02128695
v 0.0177504 0.691286 0.03328695
v 0.02269196 0.691286 0.0007281402
v 0.03654831 0.691286 0.000728164
v 0.0383963 -0.2790815 0.0007281641
v 0.02453995 -0.2790815 0.0007281641
v 0.01174622 -0.2790815 0.02288738
v 0.01867447 -0.2790815 0.03488738
v -0.01384094 -0.2790814 0.02288738
v -0.0207692 -0.2790815 0.03488738
v -0.02663467 -0.2790815 0.0007281589
v -0.04049103 -0.2790815 0.0007281582
v -0.01384094 -0.2790815 -0.02143105
v -0.0207692 -0.2790815 -0.03343105
v 0.01174622 -0.2790813 -0.02143105
v 0.01867447 -0.2790813 -0.03343105
v -0.01291687 0.691286 -0.01983062
v -0.01384094 -0.2790815 -0.02143105
v -0.02663467 -0.2790815 0.0007281589
v -0.02478668 0.691286 0.0007281597
v -0.02478668 0.691286 0.0007281597
v -0.02663467 -0.2790815 0.0007281589
v -0.01384094 -0.2790814 0.02288738
v -0.01291687 0.691286 0.02128695
v -0.01291687 0.691286 0.02128695
v -0.01384094 -0.2790814 0.02288738
v 0.01174622 -0.2790815 0.02288738
v 0.01082214 0.691286 0.02128695
v 0.01082214 0.691286 0.02128695
v 0.01174622 -0.2790815 0.02288738
v 0.02453995 -0.2790815 0.0007281641
v 0.02269196 0.691286 0.0007281402
v 0.02269196 0.691286 0.0007281402
v 0.02453995 -0.2790815 0.0007281641
v 0.01174622 -0.2790813 -0.02143105
v 0.0108223 0.691286 -0.01983062
v 0.0108223 0.691286 -0.01983062
v 0.01174622 -0.2790813 -0.02143105
v -0.01384094 -0.2790815 -0.02143105
v -0.01291687 0.691286 -0.01983062
vt 0.05326566 0.5523987
vt 0.04963276 0.5523987
vt 0.05352924 0.5502385
vt 0.04936919 0.5502385
vt 0.05352924 0.5502385
vt 0.04936919 0.5502385
vt 0.05326566 0.5480783
vt 0.04963276 0.5480783
vt 0.05340585 0.5987794
vt 0.04949257 0.5987794
vt 0.05368975 0.5964525
vt 0.04920867 0.5964525
vt 0.05368975 0.5964525
vt 0.04920867 0.5964525
vt 0.05340585 0.5941255
vt 0.04949257 0.5941255
vt 0.1151577 0.310435
vt 0.1152475 0.3371485
vt 0.1128319 0.310435
vt 0.1127422 0.3371485
vt 0.1128319 0.310435
vt 0.1127422 0.3371485
vt 0.1116691 0.310435
vt 0.1114896 0.3371485
vt 0.1116691 0.310435
vt 0.1114896 0.3371485
vt 0.1128319 0.310435
vt 0.1127422 0.3371485
vt 0.1128319 0.310435
vt 0.1127422 0.3371485
vt 0.1151577 0.310435
vt 0.1152475 0.3371485
vt 0.1151577 0.310435
vt 0.1152475 0.3371485
vt 0.1163206 0.310435
vt 0.1165001 0.3371485
vt 0.1163206 0.310435
vt 0.1165001 0.3371485
vt 0.1151577 0.310435
vt 0.1152475 0.3371485
vt 0.1152475 0.3401278
vt 0.1151577 0.3534313
vt 0.1127422 0.3401278
vt 0.1128319 0.3534313
vt 0.1127422 0.3401278
vt 0.1128319 0.3534313
vt 0.1114896 0.3401278
vt 0.1116691 0.3534313
vt 0.1114896 0.3401278
vt 0.1116691 0.3534313
vt 0.1127422 0.3401278
vt 0.1128319 0.3534313
vt 0.1127422 0.3401278
vt 0.1128319 0.3534313
vt 0.1152475 0.3401278
vt 0.1151577 0.3534313
vt 0.1152475 0.3401278
vt 0.1151577 0.3534313
vt 0.1165001 0.3401278
vt 0.1163206 0.3534313
vt 0.1165001 0.3401278
vt 0.1163206 0.3534313
vt 0.1152475 0.3401278
vt 0.1151577 0.3534313
vt 0.04963276 0.5523987
vt 0.04781631 0.5523987
vt 0.04936919 0.5502385
vt 0.04728917 0.5502385
vt 0.04936919 0.5502385
vt 0.04728917 0.5502385
vt 0.04963276 0.5480783
vt 0.04781631 0.5480783
vt 0.04781631 0.5523987
vt 0.04963276 0.5523987
vt 0.04728917 0.5502385
vt 0.04936919 0.5502385
vt 0.04728917 0.5502385
vt 0.04936919 0.5502385
vt 0.04781631 0.5480783
vt 0.04963276 0.5480783
vt 0.04963276 0.5523987
vt 0.05326566 0.5523987
vt 0.04936919 0.5502385
vt 0.05352924 0.5502385
vt 0.04936919 0.5502385
vt 0.05352924 0.5502385
vt 0.04963276 0.5480783
vt 0.05326566 0.5480783
vt 0.05326566 0.5523987
vt 0.05508209 0.5523987
vt 0.05352924 0.5502385
vt 0.05560923 0.5502385
vt 0.05352924 0.5502385
vt 0.05560923 0.5502385
vt 0.05326566 0.5480783
vt 0.05508209 0.5480783
vt 0.05326566 0.5480783
vt 0.05508209 0.5480783
vt 0.05352924 0.5502385
vt 0.05560923 0.5502385
vt 0.05352924 0.5502385
vt 0.05560923 0.5502385
vt 0.05326566 0.5523987
vt 0.05508209 0.5523987
vt 0.04949257 0.5987794
vt 0.04753593 0.5987794
vt 0.04920867 0.5964525
vt 0.04696811 0.5964525
vt 0.04920867 0.5964525
vt 0.04696811 0.5964525
vt 0.04949257 0.5941255
vt 0.04753593 0.5941255
vt 0.04753593 0.5987794
vt 0.04949257 0.5987794
vt 0.04696811 0.5964525
vt 0.04920867 0.5964525
vt 0.04696811 0.5964525
vt 0.04920867 0.5964525
vt 0.04753593 0.5941255
vt 0.04949257 0.5941255
vt 0.04949257 0.5987794
vt 0.05340585 0.5987794
vt 0.04920867 0.5964525
vt 0.05368975 0.5964525
vt 0.04920867 0.5964525
vt 0.05368975 0.5964525
vt 0.04949257 0.5941255
vt 0.05340585 0.5941255
vt 0.05340585 0.5987794
vt 0.05536247 0.5987794
vt 0.05368975 0.5964525
vt 0.05593038 0.5964525
vt 0.05368975 0.5964525
vt 0.05593038 0.5964525
vt 0.05340585 0.5941255
vt 0.05536247 0.5941255
vt 0.05340585 0.5941255
vt 0.05536247 0.5941255
vt 0.05368975 0.5964525
vt 0.05593038 0.5964525
vt 0.05368975 0.5964525
vt 0.05593038 0.5964525
vt 0.05340585 0.5987794
vt 0.05536247 0.5987794
vt 0.1164349 0.2934017
vt 0.1163206 0.3076691
vt 0.1152149 0.2934017
vt 0.1151577 0.3076691
vt 0.1152149 0.2934017
vt 0.1151577 0.3076691
vt 0.1164349 0.2934017
vt 0.1163206 0.3076691
vt 0.1127748 0.2934017
vt 0.1128319 0.3076691
vt 0.1152149 0.2934017
vt 0.1151577 0.3076691
vt 0.1115547 0.2934017
vt 0.1116691 0.3076691
vt 0.1127748 0.2934017
vt 0.1128319 0.3076691
vt 0.1127748 0.2934017
vt 0.1128319 0.3076691
vt 0.1115547 0.2934017
vt 0.1116691 0.3076691
vt 0.1152149 0.2934017
vt 0.1151577 0.3076691
vt 0.1127748 0.2934017
vt 0.1128319 0.3076691
vt 0.1151577 0.3534313
vt 0.1147291 0.3534313
vt 0.1132605 0.3534313
vt 0.1128319 0.3534313
vt 0.1125263 0.3534313
vt 0.1116691 0.3534313
vt 0.1132605 0.3534313
vt 0.1128319 0.3534313
vt 0.1147291 0.3534313
vt 0.1151577 0.3534313
vt 0.1154634 0.3534313
vt 0.1163206 0.3534313
vt 0.1164349 0.2934017
vt 0.1155777 0.2934017
vt 0.1147863 0.2934017
vt 0.1152149 0.2934017
vt 0.1132034 0.2934017
vt 0.1127748 0.2934017
vt 0.1124119 0.2934017
vt 0.1115547 0.2934017
vt 0.1132034 0.2934017
vt 0.1127748 0.2934017
vt 0.1147863 0.2934017
vt 0.1152149 0.2934017
vt 0.0818412 0.5982622
vt 0.0817984 0.5533144
vt 0.08120579 0.5533144
vt 0.08129138 0.5982622
vt 0.08129138 0.5982622
vt 0.08120579 0.5533144
vt 0.0817984 0.5533144
vt 0.0818412 0.5982622
vt 0.0818412 0.5982622
vt 0.0817984 0.5533144
vt 0.08298358 0.5533144
vt 0.08294079 0.5982622
vt 0.08294079 0.5982622
vt 0.08298358 0.5533144
vt 0.08357623 0.5533144
vt 0.08349064 0.5982622
vt 0.08349064 0.5982622
vt 0.08357623 0.5533144
vt 0.08298358 0.5533144
vt 0.08294079 0.5982622
vt 0.08294079 0.5982622
vt 0.08298358 0.5533144
vt 0.0817984 0.5533144
vt 0.0818412 0.5982622
vn 0 0.206758 -0.9783921
vn 0 0.206758 -0.9783921
vn 0 0.206758 -0.9783921
vn 5.817089E-07 0.2067592 -0.9783919
vn 6.786625E-07 -0.2067587 -0.9783919
vn 6.786626E-07 -0.2067587 -0.9783919
vn 6.786626E-07 -0.2067587 -0.9783919
vn 0 -0.2067599 -0.9783917
vn 0 0.2067594 -0.9783918
vn 0 0.2067594 -0.9783918
vn 0 0.2067594 -0.9783918
vn 6.684455E-07 0.2067602 -0.9783916
vn 8.355626E-07 -0.2067605 -0.9783916
vn 8.355625E-07 -0.2067605 -0.9783916
vn 8.355626E-07 -0.2067605 -0.9783916
vn 0 -0.2067612 -0.9783915
vn 0 -0.005819316 -0.9999831
vn 0 -0.005819316 -0.9999831
vn 0 -0.005819316 -0.9999831
vn 0 -0.005819316 -0.9999831
vn -0.8660096 -0.005819579 -0.4999934
vn -0.8660096 -0.005819579 -0.4999934
vn -0.8660096 -0.00581958 -0.4999934
vn -0.8660117 -0.005819204 -0.49999
vn -0.8660098 -0.005819193 0.4999932
vn -0.8660098 -0.005819194 0.4999932
vn -0.8660098 -0.005819194 0.4999932
vn -0.8660117 -0.005819551 0.4999898
vn 0 -0.005819306 0.9999831
vn 0 -0.005819306 0.9999831
vn 0 -0.005819305 0.9999831
vn 0 -0.005819304 0.9999831
vn 0.8660098 -0.005819563 0.4999933
vn 0.8660098 -0.005819562 0.4999933
vn 0.8660098 -0.005819563 0.4999933
vn 0.8660117 -0.005819214 0.49999
vn 0.8660114 -0.005819203 -0.4999903
vn 0.8660114 -0.005819203 -0.4999903
vn 0.8660115 -0.005819204 -0.4999903
vn 0.8660117 -0.005819247 -0.4999899
vn 0 0.0116845 -0.9999318
vn 0 0.0116845 -0.9999318
vn 0 0.0116845 -0.9999318
vn 0 0.01168451 -0.9999318
vn -0.8659672 0.01168499 -0.4999643
vn -0.8659672 0.01168499 -0.4999642
vn -0.8659672 0.01168499 -0.4999642
vn -0.8659652 0.01168426 -0.4999678
vn -0.8659673 0.01168428 0.4999641
vn -0.8659673 0.01168428 0.4999641
vn -0.8659673 0.01168428 0.4999641
vn -0.8659652 0.01168501 0.4999677
vn 0 0.01168448 0.9999318
vn 0 0.01168448 0.9999318
vn 0 0.01168448 0.9999318
vn 0 0.01168448 0.9999318
vn 0.8659672 0.01168498 0.4999642
vn 0.8659672 0.01168498 0.4999642
vn 0.8659672 0.01168498 0.4999642
vn 0.8659652 0.01168426 0.4999676
vn 0.8659673 0.0116843 -0.4999641
vn 0.8659673 0.0116843 -0.4999642
vn 0.8659673 0.0116843 -0.4999642
vn 0.8659669 0.01168435 -0.4999648
vn -0.8473113 0.2067583 -0.4891979
vn -0.8473112 0.2067583 -0.4891979
vn -0.8473112 0.2067583 -0.4891979
vn -0.847312 0.2067566 -0.4891973
vn -0.8473116 -0.206759 -0.489197
vn -0.8473116 -0.206759 -0.489197
vn -0.8473116 -0.206759 -0.489197
vn -0.8473116 -0.2067572 -0.489198
vn -0.8473116 0.2067568 0.4891979
vn -0.8473117 0.2067568 0.4891979
vn -0.8473117 0.2067568 0.4891979
vn -0.8473118 0.2067574 0.4891973
vn -0.8473117 -0.2067576 0.4891974
vn -0.8473117 -0.2067576 0.4891974
vn -0.8473118 -0.2067576 0.4891973
vn -0.8473114 -0.2067581 0.4891978
vn 0 0.2067578 0.9783921
vn 0 0.2067578 0.9783921
vn 0 0.2067578 0.9783921
vn -6.786604E-07 0.2067589 0.9783919
vn -6.78663E-07 -0.2067586 0.978392
vn -6.786628E-07 -0.2067586 0.978392
vn -6.786628E-07 -0.2067586 0.978392
vn 0 -0.2067597 0.9783918
vn 0.8473114 0.2067582 0.4891978
vn 0.8473114 0.2067582 0.4891978
vn 0.8473114 0.2067582 0.4891978
vn 0.847312 0.2067566 0.4891972
vn 0.8473117 -0.2067586 0.489197
vn 0.8473117 -0.2067586 0.489197
vn 0.8473117 -0.2067586 0.489197
vn 0.8473116 -0.2067572 0.4891979
vn 0.8473142 -0.2067523 -0.4891954
vn 0.8473142 -0.2067523 -0.4891954
vn 0.8473142 -0.2067523 -0.4891954
vn 0.8473118 -0.2067574 -0.4891974
vn 0.8473128 0.2067519 -0.4891979
vn 0.8473128 0.2067519 -0.4891979
vn 0.8473128 0.2067519 -0.4891979
vn 0.8473133 0.206757 -0.489195
vn -0.8473135 0.2067558 -0.4891951
vn -0.8473136 0.2067558 -0.4891951
vn -0.8473135 0.2067558 -0.4891951
vn -0.8473114 0.2067616 -0.4891964
vn -0.8473114 -0.2067568 -0.4891983
vn -0.8473114 -0.2067568 -0.4891983
vn -0.8473114 -0.2067568 -0.4891983
vn -0.8473127 -0.2067624 -0.4891938
vn -0.8473126 0.2067618 0.4891943
vn -0.8473126 0.2067618 0.4891943
vn -0.8473126 0.2067618 0.4891943
vn -0.8473122 0.2067554 0.4891974
vn -0.847311 -0.2067618 0.489197
vn -0.847311 -0.2067618 0.489197
vn -0.847311 -0.2067618 0.489197
vn -0.8473139 -0.2067559 0.4891946
vn 0 0.2067602 0.9783917
vn 0 0.2067602 0.9783917
vn 0 0.2067601 0.9783917
vn 0 0.2067592 0.9783919
vn 0 -0.2067605 0.9783916
vn 0 -0.2067605 0.9783916
vn 0 -0.2067605 0.9783916
vn 0 -0.20676 0.9783917
vn 0.8473137 0.2067552 0.489195
vn 0.8473137 0.2067552 0.4891951
vn 0.8473137 0.2067552 0.4891951
vn 0.8473112 0.2067614 0.4891967
vn 0.8473114 -0.206756 0.4891987
vn 0.8473114 -0.206756 0.4891987
vn 0.8473114 -0.2067559 0.4891987
vn 0.8473127 -0.2067625 0.4891938
vn 0.8473126 -0.206761 -0.4891945
vn 0.8473126 -0.206761 -0.4891945
vn 0.8473126 -0.206761 -0.4891945
vn 0.8473122 -0.2067623 -0.4891945
vn 0.8473125 0.2067604 -0.489195
vn 0.8473125 0.2067604 -0.489195
vn 0.8473124 0.2067604 -0.489195
vn 0.8473127 0.2067619 -0.4891941
vn 0.8660045 0.006939094 -0.499988
vn 0.8660046 0.006939094 -0.499988
vn 0.8660045 0.006939094 -0.499988
vn 0.8660052 0.006938871 -0.4999868
vn 0.8660046 0.00693946 0.499988
vn 0.8660046 0.00693946 0.499988
vn 0.8660046 0.00693946 0.499988
vn 0.8660035 0.006939091 0.4999898
vn 0 0.006939217 0.9999759
vn 0 0.006939217 0.9999759
vn 0 0.006939217 0.9999759
vn 0 0.006939217 0.9999759
vn -0.8660046 0.006939112 0.4999879
vn -0.8660046 0.006939112 0.499988
vn -0.8660046 0.006939112 0.4999879
vn -0.8660035 0.006939442 0.4999897
vn -0.8660044 0.006939436 -0.4999881
vn -0.8660045 0.006939437 -0.4999881
vn -0.8660044 0.006939436 -0.4999881
vn -0.8660035 0.006939114 -0.4999899
vn 0 0.006939223 -0.9999759
vn 0 0.006939224 -0.9999759
vn 0 0.006939224 -0.9999759
vn 0 0.006939217 -0.9999759
vn 0 1 5.182927E-07
vn 0 1 5.182858E-07
vn 0 1 0
vn 0 1 0
vn 0 1 5.182872E-07
vn 0 1 5.182872E-07
vn 0 1 -1.554872E-06
vn 0 1 -1.554861E-06
vn 0 1 -2.073159E-06
vn 0 1 -2.073151E-06
vn 0 1 5.182872E-07
vn 0 1 5.182876E-07
vn -1.759791E-06 -1 -2.932985E-06
vn -1.759791E-06 -1 -2.932985E-06
vn -5.86599E-07 -1 -1.95533E-06
vn -5.865961E-07 -1 -1.95532E-06
vn 1.083207E-06 -1 -2.199745E-06
vn 1.083218E-06 -1 -2.199736E-06
vn 1.669808E-06 -1 -2.444154E-07
vn 1.669808E-06 -1 -2.444154E-07
vn 3.519594E-06 -1 0
vn 3.519575E-06 -1 0
vn 1.759805E-06 -1 -2.932982E-06
vn 1.759777E-06 -1 -2.932998E-06
vn 0.8660216 -0.001649317 0.5000039
vn 0.8660216 -0.001649317 0.5000039
vn 0.8660216 -0.001649317 0.5000039
vn 0.8660216 -0.001649317 0.5000039
vn 0.8660217 -0.001649315 -0.5000038
vn 0.8660218 -0.001649315 -0.5000037
vn 0.8660217 -0.001649315 -0.5000038
vn 0.8660217 -0.001649315 -0.5000038
vn 0 -0.001649298 -0.9999987
vn 0 -0.001649298 -0.9999987
vn 0 -0.001649298 -0.9999987
vn 0 -0.001649298 -0.9999987
vn -0.8660218 -0.001649324 -0.5000036
vn -0.8660218 -0.001649324 -0.5000036
vn -0.8660218 -0.001649324 -0.5000036
vn -0.8660218 -0.001649324 -0.5000036
vn -0.8660228 -0.001649242 0.5000017
vn -0.8660229 -0.001649242 0.5000017
vn -0.8660228 -0.001649242 0.5000017
vn -0.8660228 -0.001649242 0.5000017
vn 0 -0.001649302 0.9999987
vn 0 -0.001649302 0.9999987
vn 0 -0.001649302 0.9999987
vn 0 -0.001649302 0.9999987
g dualStick_0
f 3/3/3 2/2/2 1/1/1
f 3/3/3 4/4/4 2/2/2
f 7/7/7 6/6/6 5/5/5
f 7/7/7 8/8/8 6/6/6
f 11/11/11 10/10/10 9/9/9
f 11/11/11 12/12/12 10/10/10
f 15/15/15 14/14/14 13/13/13
f 15/15/15 16/16/16 14/14/14
f 19/19/19 18/18/18 17/17/17
f 19/19/19 20/20/20 18/18/18
f 23/23/23 22/22/22 21/21/21
f 23/23/23 24/24/24 22/22/22
f 27/27/27 26/26/26 25/25/25
f 27/27/27 28/28/28 26/26/26
f 31/31/31 30/30/30 29/29/29
f 31/31/31 32/32/32 30/30/30
f 35/35/35 34/34/34 33/33/33
f 35/35/35 36/36/36 34/34/34
f 39/39/39 38/38/38 37/37/37
f 39/39/39 40/40/40 38/38/38
f 43/43/43 42/42/42 41/41/41
f 43/43/43 44/44/44 42/42/42
f 47/47/47 46/46/46 45/45/45
f 47/47/47 48/48/48 46/46/46
f 51/51/51 50/50/50 49/49/49
f 51/51/51 52/52/52 50/50/50
f 55/55/55 54/54/54 53/53/53
f 55/55/55 56/56/56 54/54/54
f 59/59/59 58/58/58 57/57/57
f 59/59/59 60/60/60 58/58/58
f 63/63/63 62/62/62 61/61/61
f 63/63/63 64/64/64 62/62/62
f 67/67/67 66/66/66 65/65/65
f 67/67/67 68/68/68 66/66/66
f 71/71/71 70/70/70 69/69/69
f 71/71/71 72/72/72 70/70/70
f 75/75/75 74/74/74 73/73/73
f 75/75/75 76/76/76 74/74/74
f 79/79/79 78/78/78 77/77/77
f 79/79/79 80/80/80 78/78/78
f 83/83/83 82/82/82 81/81/81
f 83/83/83 84/84/84 82/82/82
f 87/87/87 86/86/86 85/85/85
f 87/87/87 88/88/88 86/86/86
f 91/91/91 90/90/90 89/89/89
f 91/91/91 92/92/92 90/90/90
f 95/95/95 94/94/94 93/93/93
f 95/95/95 96/96/96 94/94/94
f 99/99/99 98/98/98 97/97/97
f 99/99/99 100/100/100 98/98/98
f 103/103/103 102/102/102 101/101/101
f 103/103/103 104/104/104 102/102/102
f 107/107/107 106/106/106 105/105/105
f 107/107/107 108/108/108 106/106/106
f 111/111/111 110/110/110 109/109/109
f 111/111/111 112/112/112 110/110/110
f 115/115/115 114/114/114 113/113/113
f 115/115/115 116/116/116 114/114/114
f 119/119/119 118/118/118 117/117/117
f 119/119/119 120/120/120 118/118/118
f 123/123/123 122/122/122 121/121/121
f 123/123/123 124/124/124 122/122/122
f 127/127/127 126/126/126 125/125/125
f 127/127/127 128/128/128 126/126/126
f 131/131/131 130/130/130 129/129/129
f 131/131/131 132/132/132 130/130/130
f 135/135/135 134/134/134 133/133/133
f 135/135/135 136/136/136 134/134/134
f 139/139/139 138/138/138 137/137/137
f 139/139/139 140/140/140 138/138/138
f 143/143/143 142/142/142 141/141/141
f 143/143/143 144/144/144 142/142/142
f 147/147/147 146/146/146 145/145/145
f 147/147/147 148/148/148 146/146/146
f 151/151/151 150/150/150 149/149/149
f 151/151/151 152/152/152 150/150/150
f 155/155/155 154/154/154 153/153/153
f 155/155/155 156/156/156 154/154/154
f 159/159/159 158/158/158 157/157/157
f 159/159/159 160/160/160 158/158/158
f 163/163/163 162/162/162 161/161/161
f 163/163/163 164/164/164 162/162/162
f 167/167/167 166/166/166 165/165/165
f 167/167/167 168/168/168 166/166/166
f 171/171/171 170/170/170 169/169/169
f 172/172/172 171/171/171 169/169/169
f 173/173/173 171/171/171 172/172/172
f 174/174/174 173/173/173 172/172/172
f 175/175/175 173/173/173 174/174/174
f 176/176/176 175/175/175 174/174/174
f 177/177/177 175/175/175 176/176/176
f 178/178/178 177/177/177 176/176/176
f 179/179/179 177/177/177 178/178/178
f 180/180/180 179/179/179 178/178/178
f 170/170/170 179/179/179 180/180/180
f 169/169/169 170/170/170 180/180/180
f 183/183/183 182/182/182 181/181/181
f 184/184/184 183/183/183 181/181/181
f 185/185/185 183/183/183 184/184/184
f 186/186/186 185/185/185 184/184/184
f 187/187/187 185/185/185 186/186/186
f 188/188/188 187/187/187 186/186/186
f 189/189/189 187/187/187 188/188/188
f 190/190/190 189/189/189 188/188/188
f 191/191/191 189/189/189 190/190/190
f 192/192/192 191/191/191 190/190/190
f 182/182/182 191/191/191 192/192/192
f 181/181/181 182/182/182 192/192/192
f 195/195/195 194/194/194 193/193/193
f 196/196/196 195/195/195 193/193/193
f 199/199/199 198/198/198 197/197/197
f 200/200/200 199/199/199 197/197/197
f 203/203/203 202/202/202 201/201/201
f 204/204/204 203/203/203 201/201/201
f 207/207/207 206/206/206 205/205/205
f 208/208/208 207/207/207 205/205/205
f 211/211/211 210/210/210 209/209/209
f 212/212/212 211/211/211 209/209/209
f 215/215/215 214/214/214 213/213/213
f 216/216/216 215/215/215 213/213/213
