g EyeEye
v 0.8177413 1.790009 0.5230633
v 0.9403222 1.790065 0.2173308
v 0.8224474 1.481453 0.4081783
v -1.829863E-05 1.438877 0.9052012
v 9.23872E-05 1.590303 0.958076
v 0.09969628 1.49906 0.9107932
v 9.23872E-05 1.590303 0.958076
v 0.1878948 1.79012 0.9555845
v 9.23872E-05 1.989771 0.958076
v 0.09969628 2.081014 0.9107932
v 9.23872E-05 1.989771 0.958076
v -1.829863E-05 2.141197 0.9052012
v 0.8177413 1.790009 0.5230633
v 0.6317106 1.980746 0.7166791
v 0.8224474 2.098621 0.4081783
v -0.8177226 1.790009 0.5230633
v -0.9403034 1.790065 0.2173308
v -0.8224287 2.098621 0.4081783
v -1.829863E-05 1.438877 0.9052012
v -0.099733 1.49906 0.9107379
v 9.23872E-05 1.590303 0.958076
v -0.1879314 1.79012 0.9555845
v 9.23872E-05 1.590303 0.958076
v -0.099733 2.080959 0.9107379
v 9.23872E-05 1.989771 0.958076
v -1.829863E-05 2.141197 0.9052012
v 9.23872E-05 1.989771 0.958076
v -0.8177226 1.790009 0.5230633
v -0.6317472 1.599328 0.7166238
v -0.8224287 1.481453 0.4081783
v -1.829863E-05 2.295448 0.8354398
v -0.2308956 2.180452 0.8400905
v -0.1907551 2.489064 0.6494092
v -1.829863E-05 1.284626 0.8354398
v 0.1907738 1.09101 0.6494092
v -0.1907551 1.09101 0.6494092
v -1.829863E-05 2.295448 0.8354398
v -0.1907551 2.489064 0.6494092
v 0.1907738 2.489064 0.6494092
v -0.1907551 2.489064 0.6494092
v -0.3904058 2.61253 0.3262917
v 3.707409E-05 2.688105 0.3607295
v 3.707409E-05 2.688105 0.3607295
v 0.3904245 2.61253 0.3262917
v 0.1907738 2.489064 0.6494092
v -0.1907551 2.489064 0.6494092
v 3.707409E-05 2.688105 0.3607295
v 0.1907738 2.489064 0.6494092
v 0.1907738 1.09101 0.6494092
v 0.3904245 0.9675436 0.3262917
v 3.707409E-05 0.8919687 0.3607295
v 3.707409E-05 0.8919687 0.3607295
v -0.3904058 0.9675436 0.3262917
v -0.1907551 1.09101 0.6494092
v 0.1907738 1.09101 0.6494092
v 3.707409E-05 0.8919687 0.3607295
v -0.1907551 1.09101 0.6494092
v -0.6317472 1.980746 0.7166238
v -0.8177226 1.790009 0.5230633
v -0.8224287 2.098621 0.4081783
v -0.6990173 2.421738 0.2084169
v -0.3904058 2.61253 0.3262917
v -0.5549543 2.345111 0.5727823
v -0.8224287 2.098621 0.4081783
v -0.6990173 2.421738 0.2084169
v -0.5549543 2.345111 0.5727823
v -0.6317472 1.980746 0.7166238
v -0.8224287 2.098621 0.4081783
v -0.5549543 2.345111 0.5727823
v -0.2308956 2.180452 0.8400905
v -0.6317472 1.980746 0.7166238
v -0.5549543 2.345111 0.5727823
v -0.5549543 2.345111 0.5727823
v -0.3904058 2.61253 0.3262917
v -0.1907551 2.489064 0.6494092
v -0.2308956 2.180452 0.8400905
v -0.5549543 2.345111 0.5727823
v -0.1907551 2.489064 0.6494092
v -0.2308956 1.399622 0.8400905
v -1.829863E-05 1.284626 0.8354398
v -0.1907551 1.09101 0.6494092
v -0.3904058 0.9675436 0.3262917
v -0.6990173 1.158336 0.2084169
v -0.5549543 1.234963 0.5727823
v -0.1907551 1.09101 0.6494092
v -0.3904058 0.9675436 0.3262917
v -0.5549543 1.234963 0.5727823
v -0.2308956 1.399622 0.8400905
v -0.1907551 1.09101 0.6494092
v -0.5549543 1.234963 0.5727823
v -0.6317472 1.599328 0.7166238
v -0.2308956 1.399622 0.8400905
v -0.5549543 1.234963 0.5727823
v -0.5549543 1.234963 0.5727823
v -0.6990173 1.158336 0.2084169
v -0.8224287 1.481453 0.4081783
v -0.6317472 1.599328 0.7166238
v -0.5549543 1.234963 0.5727823
v -0.8224287 1.481453 0.4081783
v -0.6317472 1.599328 0.7166238
v -0.8177226 1.790009 0.5230633
v -0.6317472 1.980746 0.7166238
v -0.6317472 1.980746 0.7166238
v -0.2308956 2.180452 0.8400905
v -0.3429569 1.79012 0.9156655
v -0.6317472 1.599328 0.7166238
v -0.6317472 1.980746 0.7166238
v -0.3429569 1.79012 0.9156655
v -0.2308956 1.399622 0.8400905
v -0.6317472 1.599328 0.7166238
v -0.3429569 1.79012 0.9156655
v -0.1879314 1.79012 0.9555845
v 9.23872E-05 1.7894 0.9799457
v 9.23872E-05 1.590303 0.958076
v 9.23872E-05 1.989771 0.958076
v -0.9403034 1.790065 0.2173308
v -0.9403034 1.789954 -0.1820259
v -0.898059 2.133114 0.01751405
v -0.898059 2.133114 0.01751405
v -0.6990173 2.421738 0.2084169
v -0.8224287 2.098621 0.4081783
v -0.9403034 1.790065 0.2173308
v -0.898059 2.133114 0.01751405
v -0.8224287 2.098621 0.4081783
v -0.9403034 1.790065 0.2173308
v -0.8177226 1.790009 0.5230633
v -0.8224287 1.481453 0.4081783
v -0.8224287 1.481453 0.4081783
v -0.6990173 1.158336 0.2084169
v -0.898059 1.44696 0.01751405
v -0.9403034 1.790065 0.2173308
v -0.8224287 1.481453 0.4081783
v -0.898059 1.44696 0.01751405
v -0.9403034 1.789954 -0.1820259
v -0.9403034 1.790065 0.2173308
v -0.898059 1.44696 0.01751405
v 0.2309144 2.180452 0.8400905
v -1.829863E-05 2.295448 0.8354398
v 0.1907738 2.489064 0.6494092
v 0.3904245 2.61253 0.3262917
v 0.699036 2.421738 0.2084169
v 0.5550838 2.345111 0.5726161
v 0.1907738 2.489064 0.6494092
v 0.3904245 2.61253 0.3262917
v 0.5550838 2.345111 0.5726161
v 0.2309144 2.180452 0.8400905
v 0.1907738 2.489064 0.6494092
v 0.5550838 2.345111 0.5726161
v 0.6317106 1.980746 0.7166791
v 0.2309144 2.180452 0.8400905
v 0.5550838 2.345111 0.5726161
v 0.5550838 2.345111 0.5726161
v 0.699036 2.421738 0.2084169
v 0.8224474 2.098621 0.4081783
v 0.6317106 1.980746 0.7166791
v 0.5550838 2.345111 0.5726161
v 0.8224474 2.098621 0.4081783
v 0.1907738 1.09101 0.6494092
v -1.829863E-05 1.284626 0.8354398
v 0.2309144 1.399622 0.8400905
v 0.6317106 1.599328 0.7166791
v 0.8177413 1.790009 0.5230633
v 0.8224474 1.481453 0.4081783
v 0.6317106 1.599328 0.7166791
v 0.8224474 1.481453 0.4081783
v 0.5550838 1.234963 0.5726161
v 0.2309144 1.399622 0.8400905
v 0.6317106 1.599328 0.7166791
v 0.5550838 1.234963 0.5726161
v 0.1907738 1.09101 0.6494092
v 0.2309144 1.399622 0.8400905
v 0.5550838 1.234963 0.5726161
v 0.3904245 0.9675436 0.3262917
v 0.1907738 1.09101 0.6494092
v 0.5550838 1.234963 0.5726161
v 0.5550838 1.234963 0.5726161
v 0.8224474 1.481453 0.4081783
v 0.699036 1.158336 0.2084169
v 0.3904245 0.9675436 0.3262917
v 0.5550838 1.234963 0.5726161
v 0.699036 1.158336 0.2084169
v 0.6317106 1.980746 0.7166791
v 0.8177413 1.790009 0.5230633
v 0.6317106 1.599328 0.7166791
v 0.6317106 1.980746 0.7166791
v 0.6317106 1.599328 0.7166791
v 0.3429756 1.79012 0.9156655
v 0.2309144 2.180452 0.8400905
v 0.6317106 1.980746 0.7166791
v 0.3429756 1.79012 0.9156655
v 9.23872E-05 1.590303 0.958076
v 9.23872E-05 1.7894 0.9799457
v 0.1878948 1.79012 0.9555845
v 9.23872E-05 1.989771 0.958076
v 0.3429756 1.79012 0.9156655
v 0.6317106 1.599328 0.7166791
v 0.2309144 1.399622 0.8400905
v 0.9403222 1.790065 0.2173308
v 0.8177413 1.790009 0.5230633
v 0.8224474 2.098621 0.4081783
v 0.8224474 2.098621 0.4081783
v 0.699036 2.421738 0.2084169
v 0.8980777 2.133114 0.01751405
v 0.9403222 1.790065 0.2173308
v 0.8224474 2.098621 0.4081783
v 0.8980777 2.133114 0.01751405
v 0.9403222 1.789954 -0.1820259
v 0.9403222 1.790065 0.2173308
v 0.8980777 2.133114 0.01751405
v 0.9403222 1.790065 0.2173308
v 0.9403222 1.789954 -0.1820259
v 0.8980777 1.44696 0.01779091
v 0.8980777 1.44696 0.01779091
v 0.699036 1.158336 0.2084169
v 0.8224474 1.481453 0.4081783
v 0.9403222 1.790065 0.2173308
v 0.8980777 1.44696 0.01779091
v 0.8224474 1.481453 0.4081783
v -1.829863E-05 1.284626 0.8354398
v -1.829863E-05 1.438877 0.9052012
v 0.09969628 1.49906 0.9107932
v 0.2309144 1.399622 0.8400905
v -0.2308956 1.399622 0.8400905
v -0.099733 1.49906 0.9107379
v -0.3429569 1.79012 0.9156655
v -0.1879314 1.79012 0.9555845
v -0.2308956 2.180452 0.8400905
v -0.099733 2.080959 0.9107379
v -1.829863E-05 2.295448 0.8354398
v -1.829863E-05 2.141197 0.9052012
v 0.2309144 2.180452 0.8400905
v 0.09969628 2.081014 0.9107932
v 0.3429756 1.79012 0.9156655
v 0.1878948 1.79012 0.9555845
vt 0.6420004 0.8995793
vt 0.6198431 0.8995793
vt 0.6309217 0.9208134
vt 0.9392778 0.02067219
vt 0.9392778 0.04098306
vt 0.9522029 0.02898118
vt 0.9392778 0.04098306
vt 0.9642048 0.06683327
vt 0.9392778 0.09268348
vt 0.9522029 0.1046854
vt 0.9392778 0.09268348
vt 0.9392778 0.1129944
vt 0.6420004 0.8995793
vt 0.6530791 0.8792684
vt 0.6309217 0.8792684
vt 0.6576952 0.8469556
vt 0.6798525 0.8469556
vt 0.6687738 0.8266448
vt 0.9392778 0.02067219
vt 0.9263527 0.02898118
vt 0.9392778 0.04098306
vt 0.915274 0.06683327
vt 0.9392778 0.04098306
vt 0.9263527 0.1046854
vt 0.9392778 0.09268348
vt 0.9392778 0.1129944
vt 0.9392778 0.09268348
vt 0.6576952 0.8469556
vt 0.6466165 0.8672665
vt 0.6687738 0.8672665
vt 0.5903 0.8469556
vt 0.6124573 0.8469556
vt 0.6013787 0.8266448
vt 0.623536 0.9088115
vt 0.6355379 0.9291223
vt 0.6466165 0.9088115
vt 0.6761596 0.8386467
vt 0.665081 0.8183358
vt 0.6530791 0.8386467
vt 0.665081 0.8183358
vt 0.6530791 0.7980249
vt 0.6420004 0.8183358
vt 0.6420004 0.8183358
vt 0.6309217 0.8386467
vt 0.6530791 0.8386467
vt 0.665081 0.8183358
vt 0.6420004 0.8183358
vt 0.6530791 0.8386467
vt 0.6355379 0.9291223
vt 0.6466165 0.9494332
vt 0.6576952 0.9291223
vt 0.6576952 0.9291223
vt 0.6687738 0.9088115
vt 0.6466165 0.9088115
vt 0.6355379 0.9291223
vt 0.6576952 0.9291223
vt 0.6466165 0.9088115
vt 0.6355379 0.8469556
vt 0.6576952 0.8469556
vt 0.6466165 0.8266448
vt 0.6355379 0.8063339
vt 0.6124573 0.8063339
vt 0.623536 0.8266448
vt 0.6466165 0.8266448
vt 0.6355379 0.8063339
vt 0.623536 0.8266448
vt 0.6355379 0.8469556
vt 0.6466165 0.8266448
vt 0.623536 0.8266448
vt 0.6124573 0.8469556
vt 0.6355379 0.8469556
vt 0.623536 0.8266448
vt 0.623536 0.8266448
vt 0.6124573 0.8063339
vt 0.6013787 0.8266448
vt 0.6124573 0.8469556
vt 0.623536 0.8266448
vt 0.6013787 0.8266448
vt 0.6355379 0.8875774
vt 0.623536 0.9088115
vt 0.6466165 0.9088115
vt 0.6687738 0.9088115
vt 0.6798525 0.8875774
vt 0.6576952 0.8875774
vt 0.6466165 0.9088115
vt 0.6687738 0.9088115
vt 0.6576952 0.8875774
vt 0.6355379 0.8875774
vt 0.6466165 0.9088115
vt 0.6576952 0.8875774
vt 0.6466165 0.8672665
vt 0.6355379 0.8875774
vt 0.6576952 0.8875774
vt 0.6576952 0.8875774
vt 0.6798525 0.8875774
vt 0.6687738 0.8672665
vt 0.6466165 0.8672665
vt 0.6576952 0.8875774
vt 0.6687738 0.8672665
vt 0.6466165 0.8672665
vt 0.6576952 0.8469556
vt 0.6355379 0.8469556
vt 0.6355379 0.8469556
vt 0.6124573 0.8469556
vt 0.623536 0.8672665
vt 0.6466165 0.8672665
vt 0.6355379 0.8469556
vt 0.623536 0.8672665
vt 0.6355379 0.8875774
vt 0.6466165 0.8672665
vt 0.623536 0.8672665
vt 0.915274 0.06683327
vt 0.9392778 0.06683327
vt 0.9392778 0.04098306
vt 0.9392778 0.09268348
vt 0.6798525 0.8469556
vt 0.7020098 0.8469556
vt 0.6909311 0.8266448
vt 0.6909311 0.8266448
vt 0.6798525 0.8063339
vt 0.6687738 0.8266448
vt 0.6798525 0.8469556
vt 0.6909311 0.8266448
vt 0.6687738 0.8266448
vt 0.6798525 0.8469556
vt 0.6576952 0.8469556
vt 0.6687738 0.8672665
vt 0.6687738 0.8672665
vt 0.6798525 0.8875774
vt 0.6909311 0.8672665
vt 0.6798525 0.8469556
vt 0.6687738 0.8672665
vt 0.6909311 0.8672665
vt 0.7020098 0.8469556
vt 0.6798525 0.8469556
vt 0.6909311 0.8672665
vt 0.665081 0.8589575
vt 0.6761596 0.8386467
vt 0.6530791 0.8386467
vt 0.6309217 0.8386467
vt 0.6198431 0.8589575
vt 0.6420004 0.8589575
vt 0.6530791 0.8386467
vt 0.6309217 0.8386467
vt 0.6420004 0.8589575
vt 0.665081 0.8589575
vt 0.6530791 0.8386467
vt 0.6420004 0.8589575
vt 0.6530791 0.8792684
vt 0.665081 0.8589575
vt 0.6420004 0.8589575
vt 0.6420004 0.8589575
vt 0.6198431 0.8589575
vt 0.6309217 0.8792684
vt 0.6530791 0.8792684
vt 0.6420004 0.8589575
vt 0.6309217 0.8792684
vt 0.6124573 0.9291223
vt 0.623536 0.9088115
vt 0.6013787 0.9088115
vt 0.5792213 0.9088115
vt 0.557064 0.9088115
vt 0.5681427 0.9291223
vt 0.5792213 0.9088115
vt 0.5681427 0.9291223
vt 0.5903 0.9291223
vt 0.6013787 0.9088115
vt 0.5792213 0.9088115
vt 0.5903 0.9291223
vt 0.6124573 0.9291223
vt 0.6013787 0.9088115
vt 0.5903 0.9291223
vt 0.6013787 0.9494332
vt 0.6124573 0.9291223
vt 0.5903 0.9291223
vt 0.5903 0.9291223
vt 0.5681427 0.9291223
vt 0.5792213 0.9494332
vt 0.6013787 0.9494332
vt 0.5903 0.9291223
vt 0.5792213 0.9494332
vt 0.5681427 0.8875774
vt 0.557064 0.9088115
vt 0.5792213 0.9088115
vt 0.5681427 0.8875774
vt 0.5792213 0.9088115
vt 0.5903 0.8875774
vt 0.5792213 0.8672665
vt 0.5681427 0.8875774
vt 0.5903 0.8875774
vt 0.9392778 0.04098306
vt 0.9392778 0.06683327
vt 0.9642048 0.06683327
vt 0.9392778 0.09268348
vt 0.5903 0.8875774
vt 0.5792213 0.9088115
vt 0.6013787 0.9088115
vt 0.6198431 0.8995793
vt 0.6420004 0.8995793
vt 0.6309217 0.8792684
vt 0.6309217 0.8792684
vt 0.6198431 0.8589575
vt 0.6087644 0.8792684
vt 0.6198431 0.8995793
vt 0.6309217 0.8792684
vt 0.6087644 0.8792684
vt 0.5976858 0.8995793
vt 0.6198431 0.8995793
vt 0.6087644 0.8792684
vt 0.6198431 0.8995793
vt 0.5976858 0.8995793
vt 0.6087644 0.9208134
vt 0.6087644 0.9208134
vt 0.6198431 0.9411243
vt 0.6309217 0.9208134
vt 0.6198431 0.8995793
vt 0.6087644 0.9208134
vt 0.6309217 0.9208134
vt 0.6706203 0.01974896
vt 0.6706203 0.01974896
vt 0.81095 0.0723726
vt 0.81095 0.0723726
vt 0.5302906 0.0723726
vt 0.5302906 0.0723726
vt 0.5145958 0.2496312
vt 0.5145958 0.2496312
vt 0.5302906 0.4268897
vt 0.5302906 0.4268897
vt 0.6706203 0.4795133
vt 0.6706203 0.4795133
vt 0.81095 0.4268897
vt 0.81095 0.4268897
vt 0.8266448 0.2496312
vt 0.8266448 0.2496312
vn 0.9224447 -0.1206577 0.3667935
vn 0.9224447 -0.1206577 0.3667935
vn 0.9224447 -0.1206577 0.3667935
vn -0.003891766 -0.4008939 0.9161162
vn 0.1440107 -0.3230505 0.9353605
vn 0.2374228 -0.2919132 0.9265081
vn 0.2452071 -0.2218541 0.9437448
vn 0.2841288 0.003891766 0.9587782
vn 0.2452071 0.2218533 0.943745
vn 0.2374228 0.2919123 0.9265083
vn 0.1440107 0.3230497 0.9353608
vn -0.003891766 0.4008931 0.9161166
vn 0.7978953 0.1985003 0.5691755
vn 0.7978953 0.1985003 0.5691755
vn 0.7978953 0.1985003 0.5691755
vn -0.9224439 0.1206568 0.3667959
vn -0.9224439 0.1206568 0.3667959
vn -0.9224439 0.1206568 0.3667959
vn -0.003891766 -0.4008939 0.9161162
vn -0.237422 -0.2919132 0.9265082
vn -0.1440098 -0.3230505 0.9353606
vn -0.2763437 0.003891766 0.961051
vn -0.2452062 -0.2218541 0.943745
vn -0.237422 0.2919123 0.9265085
vn -0.2452062 0.2218533 0.9437452
vn -0.003891766 0.4008931 0.9161166
vn -0.1440098 0.3230497 0.935361
vn -0.7978945 -0.1985011 0.5691763
vn -0.7978945 -0.1985011 0.5691763
vn -0.7978945 -0.1985011 0.5691763
vn -0.003891766 0.4943051 0.8692797
vn -0.2996967 0.3464028 0.8889247
vn -0.2452062 0.5332268 0.8096561
vn -0.003891766 -0.6966988 0.7173532
vn -0.003891766 -0.6966988 0.7173532
vn -0.003891766 -0.6966988 0.7173532
vn -0.003891766 0.696698 0.7173541
vn -0.003891766 0.696698 0.7173541
vn -0.003891766 0.696698 0.7173541
vn -0.2062846 0.8679535 0.4517779
vn -0.2062846 0.8679535 0.4517779
vn -0.2062846 0.8679535 0.4517779
vn 0.2062854 0.8601692 0.4664283
vn 0.2062854 0.8601692 0.4664283
vn 0.2062854 0.8601692 0.4664283
vn -0.003891766 0.8212475 0.5705589
vn -0.003891766 0.8212475 0.5705589
vn -0.003891766 0.8212475 0.5705589
vn 0.2062854 -0.86017 0.4664268
vn 0.2062854 -0.86017 0.4664268
vn 0.2062854 -0.86017 0.4664268
vn -0.2062846 -0.8679543 0.4517764
vn -0.2062846 -0.8679543 0.4517764
vn -0.2062846 -0.8679543 0.4517764
vn -0.003891766 -0.8212483 0.5705577
vn -0.003891766 -0.8212483 0.5705577
vn -0.003891766 -0.8212483 0.5705577
vn -0.7978945 0.1985003 0.5691766
vn -0.7978945 0.1985003 0.5691766
vn -0.7978945 0.1985003 0.5691766
vn -0.5877173 0.7122667 0.3837506
vn -0.5877173 0.7122667 0.3837506
vn -0.5877173 0.7122667 0.3837506
vn -0.743404 0.5332268 0.4037568
vn -0.743404 0.5332268 0.4037568
vn -0.743404 0.5332268 0.4037568
vn -0.7122667 0.3853244 0.5866867
vn -0.7122667 0.3853244 0.5866867
vn -0.7122667 0.3853244 0.5866867
vn -0.4475992 0.4086775 0.7953852
vn -0.4475992 0.4086775 0.7953852
vn -0.4475992 0.4086775 0.7953852
vn -0.4086775 0.743404 0.529465
vn -0.4086775 0.743404 0.529465
vn -0.4086775 0.743404 0.529465
vn -0.3697557 0.5254425 0.7662838
vn -0.3697557 0.5254425 0.7662838
vn -0.3697557 0.5254425 0.7662838
vn -0.2996967 -0.3464035 0.8889243
vn -0.003891766 -0.494306 0.8692793
vn -0.2452062 -0.5332277 0.8096555
vn -0.5877173 -0.7122675 0.3837491
vn -0.5877173 -0.7122675 0.3837491
vn -0.5877173 -0.7122675 0.3837491
vn -0.4086775 -0.7434049 0.5294638
vn -0.4086775 -0.7434049 0.5294638
vn -0.4086775 -0.7434049 0.5294638
vn -0.3697557 -0.5254434 0.7662832
vn -0.3697557 -0.5254434 0.7662832
vn -0.3697557 -0.5254434 0.7662832
vn -0.4475992 -0.4086783 0.7953848
vn -0.4475992 -0.4086783 0.7953848
vn -0.4475992 -0.4086783 0.7953848
vn -0.743404 -0.5332277 0.4037557
vn -0.743404 -0.5332277 0.4037557
vn -0.743404 -0.5332277 0.4037557
vn -0.7122667 -0.3853253 0.5866861
vn -0.7122667 -0.3853253 0.5866861
vn -0.7122667 -0.3853253 0.5866861
vn -0.7200511 0.003891766 0.6939102
vn -0.7200511 0.003891766 0.6939102
vn -0.7200511 0.003891766 0.6939102
vn -0.4086775 0.284128 0.8673258
vn -0.2996967 0.3464028 0.8889247
vn -0.3619714 0.003891766 0.9321811
vn -0.5643642 0.003891766 0.8255168
vn -0.5643642 0.003891766 0.8255168
vn -0.5643642 0.003891766 0.8255168
vn -0.2996967 -0.3464035 0.8889243
vn -0.4086775 -0.2841288 0.8673255
vn -0.3619714 0.003891766 0.9321811
vn -0.1284412 0.003891766 0.9917095
vn -0.1284412 -0.003892601 0.9917095
vn -0.1284412 -0.105089 0.9861335
vn -0.1284412 0.1050881 0.9861336
vn -0.9925029 0.1206568 -0.01949006
vn -0.9925029 0.1206568 -0.01949006
vn -0.9925029 0.1206568 -0.01949006
vn -0.8679535 0.4553834 0.1981984
vn -0.8679535 0.4553834 0.1981984
vn -0.8679535 0.4553834 0.1981984
vn -0.9535812 0.237422 0.1852395
vn -0.9535812 0.237422 0.1852395
vn -0.9535812 0.237422 0.1852395
vn -0.9224439 -0.1206577 0.3667957
vn -0.9224439 -0.1206577 0.3667957
vn -0.9224439 -0.1206577 0.3667957
vn -0.8679535 -0.4553843 0.1981963
vn -0.8679535 -0.4553843 0.1981963
vn -0.8679535 -0.4553843 0.1981963
vn -0.9535812 -0.2374228 0.1852385
vn -0.9535812 -0.2374228 0.1852385
vn -0.9535812 -0.2374228 0.1852385
vn -0.9925029 -0.1206577 0.01948489
vn -0.9925029 -0.1206577 0.01948489
vn -0.9925029 -0.1206577 0.01948489
vn 0.2996975 0.3464028 0.8889244
vn -0.003891766 0.4943051 0.8692797
vn 0.2452071 0.5332268 0.8096558
vn 0.5877181 0.7122667 0.3837494
vn 0.5877181 0.7122667 0.3837494
vn 0.5877181 0.7122667 0.3837494
vn 0.4086783 0.743404 0.5294644
vn 0.4086783 0.743404 0.5294644
vn 0.4086783 0.743404 0.5294644
vn 0.3697566 0.5254425 0.7662834
vn 0.3697566 0.5254425 0.7662834
vn 0.3697566 0.5254425 0.7662834
vn 0.4475999 0.4086775 0.7953848
vn 0.4475999 0.4086775 0.7953848
vn 0.4475999 0.4086775 0.7953848
vn 0.7434049 0.5332268 0.4037553
vn 0.7434049 0.5332268 0.4037553
vn 0.7434049 0.5332268 0.4037553
vn 0.7122675 0.3853244 0.5866857
vn 0.7122675 0.3853244 0.5866857
vn 0.7122675 0.3853244 0.5866857
vn 0.2452071 -0.5332277 0.8096552
vn -0.003891766 -0.494306 0.8692793
vn 0.2996975 -0.3464035 0.8889241
vn 0.7978953 -0.1985011 0.5691752
vn 0.7978953 -0.1985011 0.5691752
vn 0.7978953 -0.1985011 0.5691752
vn 0.7122675 -0.3853253 0.5866851
vn 0.7122675 -0.3853253 0.5866851
vn 0.7122675 -0.3853253 0.5866851
vn 0.4475999 -0.4086783 0.7953844
vn 0.4475999 -0.4086783 0.7953844
vn 0.4475999 -0.4086783 0.7953844
vn 0.3697566 -0.5254434 0.7662828
vn 0.3697566 -0.5254434 0.7662828
vn 0.3697566 -0.5254434 0.7662828
vn 0.4086783 -0.7434049 0.5294632
vn 0.4086783 -0.7434049 0.5294632
vn 0.4086783 -0.7434049 0.5294632
vn 0.7434049 -0.5332277 0.4037542
vn 0.7434049 -0.5332277 0.4037542
vn 0.7434049 -0.5332277 0.4037542
vn 0.5877181 -0.7122675 0.3837478
vn 0.5877181 -0.7122675 0.3837478
vn 0.5877181 -0.7122675 0.3837478
vn 0.7200519 0.003891766 0.6939093
vn 0.7200519 0.003891766 0.6939093
vn 0.7200519 0.003891766 0.6939093
vn 0.564365 0.003891766 0.8255162
vn 0.564365 0.003891766 0.8255162
vn 0.564365 0.003891766 0.8255162
vn 0.2996975 0.3464028 0.8889244
vn 0.4086783 0.284128 0.8673254
vn 0.3619722 0.003891766 0.9321808
vn 0.128442 -0.105089 0.9861333
vn 0.128442 -0.003892601 0.9917094
vn 0.128442 0.003891766 0.9917094
vn 0.128442 0.1050881 0.9861335
vn 0.3619722 0.003891766 0.9321808
vn 0.4086783 -0.2841288 0.8673251
vn 0.2996975 -0.3464035 0.8889241
vn 0.9224447 0.1206568 0.3667938
vn 0.9224447 0.1206568 0.3667938
vn 0.9224447 0.1206568 0.3667938
vn 0.8679543 0.4553834 0.1981949
vn 0.8679543 0.4553834 0.1981949
vn 0.8679543 0.4553834 0.1981949
vn 0.953582 0.237422 0.1852351
vn 0.953582 0.237422 0.1852351
vn 0.953582 0.237422 0.1852351
vn 0.9925038 0.1206568 -0.01944719
vn 0.9925038 0.1206568 -0.01944719
vn 0.9925038 0.1206568 -0.01944719
vn 0.9925038 -0.1206577 0.01944202
vn 0.9925038 -0.1206577 0.01944202
vn 0.9925038 -0.1206577 0.01944202
vn 0.86017 -0.4553843 0.229636
vn 0.86017 -0.4553843 0.229636
vn 0.86017 -0.4553843 0.229636
vn 0.953582 -0.2374228 0.1852341
vn 0.953582 -0.2374228 0.1852341
vn 0.953582 -0.2374228 0.1852341
vn -0.003891766 -0.494306 0.8692793
vn -0.003891766 -0.4008939 0.9161162
vn 0.2374228 -0.2919132 0.9265081
vn 0.2996975 -0.3464035 0.8889241
vn -0.2996967 -0.3464035 0.8889243
vn -0.237422 -0.2919132 0.9265082
vn -0.3619714 0.003891766 0.9321811
vn -0.2763437 0.003891766 0.961051
vn -0.2996967 0.3464028 0.8889247
vn -0.237422 0.2919123 0.9265085
vn -0.003891766 0.4943051 0.8692797
vn -0.003891766 0.4008931 0.9161166
vn 0.2996975 0.3464028 0.8889244
vn 0.2374228 0.2919123 0.9265083
vn 0.3619722 0.003891766 0.9321808
vn 0.2841288 0.003891766 0.9587782
g EyeEye_0
f 3/3/3 2/2/2 1/1/1
f 6/6/6 5/5/5 4/4/4
f 6/6/6 8/8/8 7/7/7
f 8/8/8 10/10/10 9/9/9
f 10/10/10 12/12/12 11/11/11
f 15/15/15 14/14/14 13/13/13
f 18/18/18 17/17/17 16/16/16
f 21/21/21 20/20/20 19/19/19
f 23/23/23 22/22/22 20/20/20
f 22/22/22 25/25/25 24/24/24
f 27/27/27 26/26/26 24/24/24
f 30/30/30 29/29/29 28/28/28
f 33/33/33 32/32/32 31/31/31
f 36/36/36 35/35/35 34/34/34
f 39/39/39 38/38/38 37/37/37
f 42/42/42 41/41/41 40/40/40
f 45/45/45 44/44/44 43/43/43
f 48/48/48 47/47/47 46/46/46
f 51/51/51 50/50/50 49/49/49
f 54/54/54 53/53/53 52/52/52
f 57/57/57 56/56/56 55/55/55
f 60/60/60 59/59/59 58/58/58
f 63/63/63 62/62/62 61/61/61
f 66/66/66 65/65/65 64/64/64
f 69/69/69 68/68/68 67/67/67
f 72/72/72 71/71/71 70/70/70
f 75/75/75 74/74/74 73/73/73
f 78/78/78 77/77/77 76/76/76
f 81/81/81 80/80/80 79/79/79
f 84/84/84 83/83/83 82/82/82
f 87/87/87 86/86/86 85/85/85
f 90/90/90 89/89/89 88/88/88
f 93/93/93 92/92/92 91/91/91
f 96/96/96 95/95/95 94/94/94
f 99/99/99 98/98/98 97/97/97
f 102/102/102 101/101/101 100/100/100
f 105/105/105 104/104/104 103/103/103
f 108/108/108 107/107/107 106/106/106
f 111/111/111 110/110/110 109/109/109
f 114/114/114 113/113/113 112/112/112
f 113/113/113 115/115/115 112/112/112
f 118/118/118 117/117/117 116/116/116
f 121/121/121 120/120/120 119/119/119
f 124/124/124 123/123/123 122/122/122
f 127/127/127 126/126/126 125/125/125
f 130/130/130 129/129/129 128/128/128
f 133/133/133 132/132/132 131/131/131
f 136/136/136 135/135/135 134/134/134
f 139/139/139 138/138/138 137/137/137
f 142/142/142 141/141/141 140/140/140
f 145/145/145 144/144/144 143/143/143
f 148/148/148 147/147/147 146/146/146
f 151/151/151 150/150/150 149/149/149
f 154/154/154 153/153/153 152/152/152
f 157/157/157 156/156/156 155/155/155
f 160/160/160 159/159/159 158/158/158
f 163/163/163 162/162/162 161/161/161
f 166/166/166 165/165/165 164/164/164
f 169/169/169 168/168/168 167/167/167
f 172/172/172 171/171/171 170/170/170
f 175/175/175 174/174/174 173/173/173
f 178/178/178 177/177/177 176/176/176
f 181/181/181 180/180/180 179/179/179
f 184/184/184 183/183/183 182/182/182
f 187/187/187 186/186/186 185/185/185
f 190/190/190 189/189/189 188/188/188
f 193/193/193 192/192/192 191/191/191
f 193/193/193 194/194/194 192/192/192
f 197/197/197 196/196/196 195/195/195
f 200/200/200 199/199/199 198/198/198
f 203/203/203 202/202/202 201/201/201
f 206/206/206 205/205/205 204/204/204
f 209/209/209 208/208/208 207/207/207
f 212/212/212 211/211/211 210/210/210
f 215/215/215 214/214/214 213/213/213
f 218/218/218 217/217/217 216/216/216
f 221/221/221 220/220/220 219/219/219
f 222/222/222 221/221/221 219/219/219
f 219/219/219 220/220/220 223/223/223
f 220/220/220 224/224/224 223/223/223
f 223/223/223 224/224/224 225/225/225
f 224/224/224 226/226/226 225/225/225
f 225/225/225 226/226/226 227/227/227
f 226/226/226 228/228/228 227/227/227
f 227/227/227 228/228/228 229/229/229
f 228/228/228 230/230/230 229/229/229
f 229/229/229 230/230/230 231/231/231
f 230/230/230 232/232/232 231/231/231
f 231/231/231 232/232/232 233/233/233
f 232/232/232 234/234/234 233/233/233
f 234/234/234 221/221/221 222/222/222
f 233/233/233 234/234/234 222/222/222
