g floodedCrypt_roof2
v 3.382652 5.748616 -5.039247
v 3.382652 5.748616 -13.34592
v -3.316318 5.748616 -13.34592
v -3.316318 5.748616 -5.039247
v 3.72606 5.562839 -4.719543
v 3.382652 5.562839 -5.039247
v -3.316318 5.562839 -5.039247
v -3.639874 5.562839 -4.719543
v -3.639874 5.562839 -4.719543
v -3.316318 5.562839 -5.039247
v -3.316318 5.562839 -13.34592
v -3.639874 5.562839 -13.66918
v -3.639874 5.562839 -13.66918
v -3.316318 5.562839 -13.34592
v 3.382652 5.562839 -13.34592
v 3.72606 5.562839 -13.66918
v 3.72606 5.562839 -13.66918
v 3.382652 5.562839 -13.34592
v 3.382652 5.562839 -5.039247
v 3.72606 5.562839 -4.719543
v -3.316318 5.748616 -5.039247
v -3.316318 5.562839 -5.039247
v 3.382652 5.562839 -5.039247
v 3.382652 5.748616 -5.039247
v -3.316318 5.748616 -13.34592
v -3.316318 5.562839 -13.34592
v -3.316318 5.562839 -5.039247
v -3.316318 5.748616 -5.039247
v 3.382652 5.748616 -13.34592
v 3.382652 5.562839 -13.34592
v -3.316318 5.562839 -13.34592
v -3.316318 5.748616 -13.34592
v 3.382652 5.748616 -5.039247
v 3.382652 5.562839 -5.039247
v 3.382652 5.562839 -13.34592
v 3.382652 5.748616 -13.34592
vt 0.8218802 1.245775
vt 0.8218802 2.039333
vt 0.1820585 2.039333
vt 0.1820585 1.245775
vt 0.06314914 0.9726314
vt 0.06215408 0.9711388
vt 0.03180484 0.9711388
vt 0.03130731 0.9726314
vt 0.03130731 0.9726314
vt 0.03180484 0.9711388
vt 0.03180484 0.9069576
vt 0.03130731 0.905465
vt 0.03130731 0.905465
vt 0.03180484 0.9069576
vt 0.06215408 0.9069576
vt 0.06314914 0.905465
vt 0.06314914 0.905465
vt 0.06215408 0.9069576
vt 0.06215408 0.9711388
vt 0.06314914 0.9726314
vt 0.09797614 0.905465
vt 0.09747861 0.905465
vt 0.09747861 0.9492475
vt 0.09797614 0.9492475
vt 0.09598602 0.905465
vt 0.0954885 0.905465
vt 0.0954885 0.9701437
vt 0.09598602 0.9701437
vt 0.09698109 0.905465
vt 0.09648355 0.905465
vt 0.09648355 0.9492475
vt 0.09698109 0.9492475
vt 0.06364667 0.9701437
vt 0.06414419 0.9701437
vt 0.06414419 0.905465
vt 0.06364667 0.905465
vn -0.003921509 -0.9999924 0
vn -0.003921509 -0.9999924 0
vn -0.003921509 -0.9999924 0
vn -0.003921509 -0.9999924 0
vn -0.003921509 -0.9999924 0
vn -0.003921509 -0.9999924 0
vn -0.003921509 -0.9999924 0
vn -0.003921509 -0.9999924 0
vn -0.003921509 -0.9999924 0
vn -0.003921509 -0.9999924 0
vn -0.003921509 -0.9999924 0
vn -0.003921509 -0.9999924 0
vn -0.003921509 -0.9999924 0
vn -0.003921509 -0.9999924 0
vn -0.003921509 -0.9999924 0
vn -0.003921509 -0.9999924 0
vn -0.003921509 -0.9999924 0
vn -0.003921509 -0.9999924 0
vn -0.003921509 -0.9999924 0
vn -0.003921509 -0.9999924 0
vn -0.003921509 0.003921509 -0.9999846
vn -0.003921509 0.003921509 -0.9999846
vn -0.003921509 0.003921509 -0.9999846
vn -0.003921509 0.003921509 -0.9999846
vn 0.9999924 0.003921509 0
vn 0.9999924 0.003921509 0
vn 0.9999924 0.003921509 0
vn 0.9999924 0.003921509 0
vn -0.003921509 0.003921509 0.9999846
vn -0.003921509 0.003921509 0.9999846
vn -0.003921509 0.003921509 0.9999846
vn -0.003921509 0.003921509 0.9999846
vn -0.9999923 0.003921509 -0.0003449296
vn -0.9999923 0.003921509 -0.0003449296
vn -0.9999923 0.003921509 -0.0003449296
vn -0.9999923 0.003921509 -0.0003449296
g floodedCrypt_roof2_0
f 3/3/3 2/2/2 1/1/1
f 4/4/4 3/3/3 1/1/1
g floodedCrypt_roof2_1
f 7/7/7 6/6/6 5/5/5
f 8/8/8 7/7/7 5/5/5
f 11/11/11 10/10/10 9/9/9
f 12/12/12 11/11/11 9/9/9
f 15/15/15 14/14/14 13/13/13
f 16/16/16 15/15/15 13/13/13
f 19/19/19 18/18/18 17/17/17
f 20/20/20 19/19/19 17/17/17
f 23/23/23 22/22/22 21/21/21
f 24/24/24 23/23/23 21/21/21
f 27/27/27 26/26/26 25/25/25
f 28/28/28 27/27/27 25/25/25
f 31/31/31 30/30/30 29/29/29
f 32/32/32 31/31/31 29/29/29
f 35/35/35 34/34/34 33/33/33
f 36/36/36 35/35/35 33/33/33
