g floodedCrypt_moss2
v 0.4197578 5.607719 -13.61846
v 0.4230137 3.856575 -13.61846
v -3.079275 3.849766 -13.61846
v -3.082827 5.60091 -13.61846
v 0.02666855 3.999542 -13.6377
v 0.02341175 5.750687 -13.6377
v 3.525701 5.757496 -13.6377
v 3.529253 4.006351 -13.6377
v -2.970346 4.195791 -13.35502
v -2.970346 5.553255 -13.35502
v -1.628572 5.553255 -13.55926
v -1.628572 4.195791 -13.55926
v 2.037702 5.440773 -13.51693
v 3.093538 5.440773 -13.51693
v 3.093538 4.384937 -13.51693
v 2.037702 4.384937 -13.51693
v 0.44699 4.106104 -13.64096
v 1.32493 4.328104 -13.64096
v 1.485067 3.111242 -13.64096
v 0.6071272 2.888947 -13.64096
v -1.62058 3.248884 -13.64096
v -1.083633 4.524946 -13.64096
v 0.1924286 3.988295 -13.64096
v -0.3442221 2.711937 -13.64096
v -2.799849 1.278106 -11.85696
v -2.799849 2.001238 -11.85696
v -2.298423 2.001238 -12.19854
v -2.298423 1.278106 -12.19854
v 2.371592 1.892013 -11.743
v 2.742185 1.892013 -11.90609
v 2.742185 1.312738 -11.90609
v 2.371592 1.312738 -11.743
vt 0 0.5004888
vt 0 1
vt 1 1
vt 1 0.5004888
vt 0 0
vt 0 0.5004888
vt 1 0.5004888
vt 1 0
vt 0 0
vt 0 1
vt 1 1
vt 1 0
vt 0 0
vt 0 1
vt 1 1
vt 1 0
vt 0 0
vt 0 1
vt 1 1
vt 1 0
vt 0 0
vt 0 1
vt 1 1
vt 1 0
vt 0 0
vt 0 1
vt 1 1
vt 1 0
vt 0 0
vt 0 1
vt 1 1
vt 1 0
vn -1.132488E-06 1.132488E-06 1
vn -1.132488E-06 1.132488E-06 1
vn -1.132488E-06 1.132488E-06 1
vn -1.132488E-06 1.132488E-06 1
vn -1.132488E-06 1.132488E-06 1
vn -1.132488E-06 1.132488E-06 1
vn -1.132488E-06 1.132488E-06 1
vn -1.132488E-06 1.132488E-06 1
vn 0.1500745 1.132488E-06 0.9886747
vn 0.1500745 1.132488E-06 0.9886747
vn 0.1500745 1.132488E-06 0.9886747
vn 0.1500745 1.132488E-06 0.9886747
vn -1.132488E-06 1.132488E-06 1
vn -1.132488E-06 1.132488E-06 1
vn -1.132488E-06 1.132488E-06 1
vn -1.132488E-06 1.132488E-06 1
vn -1.132488E-06 1.132488E-06 1
vn -1.132488E-06 1.132488E-06 1
vn -1.132488E-06 1.132488E-06 1
vn -1.132488E-06 1.132488E-06 1
vn -1.132488E-06 1.132488E-06 1
vn -1.132488E-06 1.132488E-06 1
vn -1.132488E-06 1.132488E-06 1
vn -1.132488E-06 1.132488E-06 1
vn 0.5627826 1.132488E-06 0.826605
vn 0.5627826 1.132488E-06 0.826605
vn 0.5627826 1.132488E-06 0.826605
vn 0.5627826 1.132488E-06 0.826605
vn 0.4038789 1.132488E-06 0.9148124
vn 0.4038789 1.132488E-06 0.9148124
vn 0.4038789 1.132488E-06 0.9148124
vn 0.4038789 1.132488E-06 0.9148124
g floodedCrypt_moss2_0
f 3/3/3 2/2/2 1/1/1
f 4/4/4 3/3/3 1/1/1
f 7/7/7 6/6/6 5/5/5
f 8/8/8 7/7/7 5/5/5
g floodedCrypt_moss2_1
f 11/11/11 10/10/10 9/9/9
f 12/12/12 11/11/11 9/9/9
f 15/15/15 14/14/14 13/13/13
f 16/16/16 15/15/15 13/13/13
f 19/19/19 18/18/18 17/17/17
f 20/20/20 19/19/19 17/17/17
f 23/23/23 22/22/22 21/21/21
f 24/24/24 23/23/23 21/21/21
f 27/27/27 26/26/26 25/25/25
f 28/28/28 27/27/27 25/25/25
f 31/31/31 30/30/30 29/29/29
f 32/32/32 31/31/31 29/29/29
