g fxmeshStar
v 0.1201901 0.01034811 -0.1401585
v -0.0477457 0.1715169 5.722046E-08
v 0.1067628 0.01034811 -0.4755283
v 0.1067628 0.01034811 -0.4755283
v -0.0477457 0.1715169 5.722046E-08
v -0.1464071 0.01034811 -0.2267813
v -0.1464071 0.01034811 -0.2267813
v -0.0477457 0.1715169 5.722046E-08
v -0.4522543 0.01034811 -0.2938926
v -0.4522543 0.01034811 -0.2938926
v -0.0477457 0.1715169 5.722046E-08
v -0.311173 0.01034811 7.143328E-08
v -0.311173 0.01034811 7.143328E-08
v -0.0477457 0.1715169 5.722046E-08
v -0.4522542 0.01034811 0.2938927
v -0.4522542 0.01034811 0.2938927
v -0.0477457 0.1715169 5.722046E-08
v -0.1464071 0.01034811 0.2267814
v -0.1464071 0.01034811 0.2267814
v -0.0477457 0.1715169 5.722046E-08
v 0.1067628 0.01034811 0.4755283
v 0.1067628 0.01034811 0.4755283
v -0.0477457 0.1715169 5.722046E-08
v 0.1201901 0.01034811 0.1401585
v 0.1201901 0.01034811 0.1401585
v -0.0477457 0.1715169 5.722046E-08
v 0.4522543 0.01034811 5.722046E-08
v 0.4522543 0.01034811 5.722046E-08
v -0.0477457 0.1715169 5.722046E-08
v 0.1201901 0.01034811 -0.1401585
v 0.1201901 -0.01034808 -0.1401585
v 0.1067628 -0.01034808 -0.4755283
v -0.0477457 -0.1715169 5.722046E-08
v 0.1067628 -0.01034808 -0.4755283
v -0.1464071 -0.01034808 -0.2267813
v -0.0477457 -0.1715169 5.722046E-08
v -0.1464071 -0.01034808 -0.2267813
v -0.4522543 -0.01034808 -0.2938926
v -0.0477457 -0.1715169 5.722046E-08
v -0.4522543 -0.01034808 -0.2938926
v -0.311173 -0.01034808 7.143328E-08
v -0.0477457 -0.1715169 5.722046E-08
v -0.311173 -0.01034808 7.143328E-08
v -0.4522542 -0.01034808 0.2938927
v -0.0477457 -0.1715169 5.722046E-08
v -0.4522542 -0.01034808 0.2938927
v -0.1464071 -0.01034808 0.2267814
v -0.0477457 -0.1715169 5.722046E-08
v -0.1464071 -0.01034808 0.2267814
v 0.1067628 -0.01034808 0.4755283
v -0.0477457 -0.1715169 5.722046E-08
v 0.1067628 -0.01034808 0.4755283
v 0.1201901 -0.01034808 0.1401585
v -0.0477457 -0.1715169 5.722046E-08
v 0.1201901 -0.01034808 0.1401585
v 0.4522543 -0.01034808 5.722046E-08
v -0.0477457 -0.1715169 5.722046E-08
v 0.4522543 -0.01034808 5.722046E-08
v 0.1201901 -0.01034808 -0.1401585
v -0.0477457 -0.1715169 5.722046E-08
v 0.1201901 -0.01034808 -0.1401585
v 0.1201901 0.01034811 -0.1401585
v 0.1067628 0.01034811 -0.4755283
v 0.1067628 -0.01034808 -0.4755283
v 0.1067628 -0.01034808 -0.4755283
v 0.1067628 0.01034811 -0.4755283
v -0.1464071 0.01034811 -0.2267813
v -0.1464071 -0.01034808 -0.2267813
v -0.1464071 -0.01034808 -0.2267813
v -0.1464071 0.01034811 -0.2267813
v -0.4522543 0.01034811 -0.2938926
v -0.4522543 -0.01034808 -0.2938926
v -0.4522543 -0.01034808 -0.2938926
v -0.4522543 0.01034811 -0.2938926
v -0.311173 0.01034811 7.143328E-08
v -0.311173 -0.01034808 7.143328E-08
v -0.311173 -0.01034808 7.143328E-08
v -0.311173 0.01034811 7.143328E-08
v -0.4522542 0.01034811 0.2938927
v -0.4522542 -0.01034808 0.2938927
v -0.4522542 -0.01034808 0.2938927
v -0.4522542 0.01034811 0.2938927
v -0.1464071 0.01034811 0.2267814
v -0.1464071 -0.01034808 0.2267814
v -0.1464071 -0.01034808 0.2267814
v -0.1464071 0.01034811 0.2267814
v 0.1067628 0.01034811 0.4755283
v 0.1067628 -0.01034808 0.4755283
v 0.1067628 -0.01034808 0.4755283
v 0.1067628 0.01034811 0.4755283
v 0.1201901 0.01034811 0.1401585
v 0.1201901 -0.01034808 0.1401585
v 0.1201901 -0.01034808 0.1401585
v 0.1201901 0.01034811 0.1401585
v 0.4522543 0.01034811 5.722046E-08
v 0.4522543 -0.01034808 5.722046E-08
v 0.4522543 -0.01034808 5.722046E-08
v 0.4522543 0.01034811 5.722046E-08
v 0.1201901 0.01034811 -0.1401585
v 0.1201901 -0.01034808 -0.1401585
vt 0.6264089 0.9355915
vt 0.5 0.8375
vt 0.5482839 0.9923526
vt 0.5482839 0.9923526
vt 0.5 0.8375
vt 0.4517161 0.9923526
vt 0.4517161 0.9923526
vt 0.5 0.8375
vt 0.3735911 0.9355915
vt 0.3735911 0.9355915
vt 0.5 0.8375
vt 0.34375 0.84375
vt 0.34375 0.84375
vt 0.5 0.8375
vt 0.3735911 0.7519085
vt 0.3735911 0.7519085
vt 0.5 0.8375
vt 0.4517161 0.6951474
vt 0.4517161 0.6951474
vt 0.5 0.8375
vt 0.5482839 0.6951474
vt 0.5482839 0.6951474
vt 0.5 0.8375
vt 0.6264089 0.7519085
vt 0.6264089 0.7519085
vt 0.5 0.8375
vt 0.65625 0.84375
vt 0.65625 0.84375
vt 0.5 0.8375
vt 0.6264089 0.9355915
vt 0.6264089 0.9355915
vt 0.5482839 0.9923526
vt 0.5 0.8375
vt 0.5482839 0.9923526
vt 0.4517161 0.9923526
vt 0.5 0.8375
vt 0.4517161 0.9923526
vt 0.3735911 0.9355915
vt 0.5 0.8375
vt 0.3735911 0.9355915
vt 0.34375 0.84375
vt 0.5 0.8375
vt 0.34375 0.84375
vt 0.3735911 0.7519085
vt 0.5 0.8375
vt 0.3735911 0.7519085
vt 0.4517161 0.6951474
vt 0.5 0.8375
vt 0.4517161 0.6951474
vt 0.5482839 0.6951474
vt 0.5 0.8375
vt 0.5482839 0.6951474
vt 0.6264089 0.7519085
vt 0.5 0.8375
vt 0.6264089 0.7519085
vt 0.65625 0.84375
vt 0.5 0.8375
vt 0.65625 0.84375
vt 0.6264089 0.9355915
vt 0.5 0.8375
vt 0.6264089 0.9355915
vt 0.6264089 0.9355915
vt 0.5482839 0.9923526
vt 0.5482839 0.9923526
vt 0.5482839 0.9923526
vt 0.5482839 0.9923526
vt 0.4517161 0.9923526
vt 0.4517161 0.9923526
vt 0.4517161 0.9923526
vt 0.4517161 0.9923526
vt 0.3735911 0.9355915
vt 0.3735911 0.9355915
vt 0.3735911 0.9355915
vt 0.3735911 0.9355915
vt 0.34375 0.84375
vt 0.34375 0.84375
vt 0.34375 0.84375
vt 0.34375 0.84375
vt 0.3735911 0.7519085
vt 0.3735911 0.7519085
vt 0.3735911 0.7519085
vt 0.3735911 0.7519085
vt 0.4517161 0.6951474
vt 0.4517161 0.6951474
vt 0.4517161 0.6951474
vt 0.4517161 0.6951474
vt 0.5482839 0.6951474
vt 0.5482839 0.6951474
vt 0.5482839 0.6951474
vt 0.5482839 0.6951474
vt 0.6264089 0.7519085
vt 0.6264089 0.7519085
vt 0.6264089 0.7519085
vt 0.6264089 0.7519085
vt 0.65625 0.84375
vt 0.65625 0.84375
vt 0.65625 0.84375
vt 0.65625 0.84375
vt 0.6264089 0.9355915
vt 0.6264089 0.9355915
vn 0.6802388 0.7324845 -0.02723489
vn 0.6802388 0.7324845 -0.02723489
vn 0.6802388 0.7324845 -0.02723489
vn -0.4011253 0.8200148 -0.4082575
vn -0.4011253 0.8200148 -0.4082575
vn -0.4011253 0.8200148 -0.4082575
vn 0.1343348 0.7792034 -0.612206
vn 0.1343348 0.7792034 -0.612206
vn 0.1343348 0.7792035 -0.6122059
vn -0.5062417 0.8274428 0.243018
vn -0.5062417 0.8274428 0.243018
vn -0.5062417 0.8274428 0.243018
vn -0.5062419 0.8274428 -0.2430179
vn -0.5062419 0.8274426 -0.2430179
vn -0.5062418 0.8274428 -0.2430179
vn 0.1343349 0.7792034 0.612206
vn 0.1343349 0.7792034 0.612206
vn 0.1343349 0.7792034 0.612206
vn -0.4011252 0.8200148 0.4082576
vn -0.4011252 0.8200149 0.4082576
vn -0.4011252 0.8200149 0.4082576
vn 0.6802387 0.7324845 0.02723485
vn 0.6802387 0.7324845 0.02723485
vn 0.6802388 0.7324845 0.02723486
vn 0.2481639 0.7698883 0.5879512
vn 0.2481639 0.7698883 0.5879512
vn 0.2481639 0.7698883 0.5879512
vn 0.248164 0.7698884 -0.5879511
vn 0.248164 0.7698884 -0.5879511
vn 0.248164 0.7698885 -0.5879511
vn 0.6802388 -0.7324843 -0.02723489
vn 0.6802388 -0.7324843 -0.02723489
vn 0.6802388 -0.7324843 -0.02723489
vn -0.4011252 -0.8200148 -0.4082576
vn -0.4011253 -0.8200148 -0.4082576
vn -0.4011253 -0.8200148 -0.4082576
vn 0.1343348 -0.7792034 -0.612206
vn 0.1343348 -0.7792034 -0.612206
vn 0.1343348 -0.7792034 -0.612206
vn -0.5062418 -0.8274428 0.2430181
vn -0.5062418 -0.8274428 0.2430181
vn -0.5062418 -0.8274428 0.2430181
vn -0.506242 -0.8274426 -0.243018
vn -0.5062419 -0.8274426 -0.243018
vn -0.5062419 -0.8274426 -0.243018
vn 0.1343349 -0.7792033 0.6122061
vn 0.1343349 -0.7792034 0.6122061
vn 0.1343349 -0.7792033 0.6122061
vn -0.4011251 -0.8200148 0.4082577
vn -0.4011252 -0.8200148 0.4082577
vn -0.4011252 -0.8200148 0.4082577
vn 0.6802387 -0.7324845 0.02723481
vn 0.6802388 -0.7324845 0.02723482
vn 0.6802388 -0.7324845 0.02723481
vn 0.2481639 -0.7698883 0.5879513
vn 0.2481639 -0.7698883 0.5879514
vn 0.2481639 -0.7698883 0.5879513
vn 0.248164 -0.7698883 -0.5879512
vn 0.248164 -0.7698883 -0.5879512
vn 0.248164 -0.7698883 -0.5879512
vn 0.9991995 0 -0.04000523
vn 0.9991995 0 -0.04000523
vn 0.9991995 0 -0.04000523
vn 0.9991995 0 -0.04000523
vn -0.7008485 0 -0.7133101
vn -0.7008485 0 -0.7133101
vn -0.7008485 0 -0.7133101
vn -0.7008485 0 -0.7133101
vn 0.2143282 0 -0.9767617
vn 0.2143282 0 -0.9767617
vn 0.2143282 0 -0.9767617
vn 0.2143282 0 -0.9767617
vn -0.9015077 0 0.432763
vn -0.9015077 0 0.432763
vn -0.9015077 0 0.432763
vn -0.9015077 0 0.432763
vn -0.9015079 0 -0.4327627
vn -0.9015079 0 -0.4327627
vn -0.9015079 0 -0.4327627
vn -0.9015079 0 -0.4327627
vn 0.2143285 0 0.9767617
vn 0.2143285 0 0.9767617
vn 0.2143285 0 0.9767617
vn 0.2143285 0 0.9767617
vn -0.7008483 0 0.7133104
vn -0.7008483 0 0.7133104
vn -0.7008483 0 0.7133104
vn -0.7008483 0 0.7133104
vn 0.9991995 0 0.04000512
vn 0.9991995 0 0.04000512
vn 0.9991995 0 0.04000512
vn 0.9991995 0 0.04000512
vn 0.3888628 0 0.9212956
vn 0.3888628 0 0.9212956
vn 0.3888628 0 0.9212956
vn 0.3888628 0 0.9212956
vn 0.3888628 0 -0.9212956
vn 0.3888628 0 -0.9212956
vn 0.3888628 0 -0.9212956
vn 0.3888628 0 -0.9212956
g fxmeshStar_0
f 3/3/3 2/2/2 1/1/1
f 6/6/6 5/5/5 4/4/4
f 9/9/9 8/8/8 7/7/7
f 12/12/12 11/11/11 10/10/10
f 15/15/15 14/14/14 13/13/13
f 18/18/18 17/17/17 16/16/16
f 21/21/21 20/20/20 19/19/19
f 24/24/24 23/23/23 22/22/22
f 27/27/27 26/26/26 25/25/25
f 30/30/30 29/29/29 28/28/28
f 33/33/33 32/32/32 31/31/31
f 36/36/36 35/35/35 34/34/34
f 39/39/39 38/38/38 37/37/37
f 42/42/42 41/41/41 40/40/40
f 45/45/45 44/44/44 43/43/43
f 48/48/48 47/47/47 46/46/46
f 51/51/51 50/50/50 49/49/49
f 54/54/54 53/53/53 52/52/52
f 57/57/57 56/56/56 55/55/55
f 60/60/60 59/59/59 58/58/58
f 63/63/63 62/62/62 61/61/61
f 64/64/64 63/63/63 61/61/61
f 67/67/67 66/66/66 65/65/65
f 68/68/68 67/67/67 65/65/65
f 71/71/71 70/70/70 69/69/69
f 72/72/72 71/71/71 69/69/69
f 75/75/75 74/74/74 73/73/73
f 76/76/76 75/75/75 73/73/73
f 79/79/79 78/78/78 77/77/77
f 80/80/80 79/79/79 77/77/77
f 83/83/83 82/82/82 81/81/81
f 84/84/84 83/83/83 81/81/81
f 87/87/87 86/86/86 85/85/85
f 88/88/88 87/87/87 85/85/85
f 91/91/91 90/90/90 89/89/89
f 92/92/92 91/91/91 89/89/89
f 95/95/95 94/94/94 93/93/93
f 96/96/96 95/95/95 93/93/93
f 99/99/99 98/98/98 97/97/97
f 100/100/100 99/99/99 97/97/97
