g fxmeshRing3
v -0.1727502 -0.2040096 1.00615
v -0.1727502 0.1414908 1.00615
v 0.1727502 0.1414908 1.00615
v 0.1727502 -0.2040096 1.00615
v 0.7849759 -0.07833822 0.6526803
v 0.7849759 0.267162 0.6526803
v 0.9577268 0.267162 0.3534689
v 0.9577268 -0.07833822 0.3534689
v 0.9577267 -0.2040096 -0.3534689
v 0.9577267 0.1414908 -0.3534689
v 0.7849759 0.1414908 -0.6526803
v 0.7849759 -0.2040096 -0.6526803
v 0.1727502 -0.07833824 -1.00615
v 0.1727502 0.267162 -1.00615
v -0.1727502 0.267162 -1.00615
v -0.1727502 -0.07833824 -1.00615
v -0.7849759 -0.2040096 -0.6526803
v -0.7849759 0.1414908 -0.6526803
v -0.9577267 0.1414908 -0.3534689
v -0.9577267 -0.2040096 -0.3534689
v -0.9577268 -0.07833822 0.3534689
v -0.9577268 0.267162 0.3534689
v -0.7849759 0.267162 0.6526803
v -0.7849759 -0.07833822 0.6526803
vt 0 0
vt 0 1
vt 1 1
vt 1 0
vt 0 0
vt 0 1
vt 1 1
vt 1 0
vt 0 0
vt 0 1
vt 1 1
vt 1 0
vt 0 0
vt 0 1
vt 1 1
vt 1 0
vt 0 0
vt 0 1
vt 1 1
vt 1 0
vt 0 0
vt 0 1
vt 1 1
vt 1 0
vn 0 0 1
vn 0 0 1
vn 0 0 1
vn 0 0 1
vn 0.8660253 0 0.5000001
vn 0.8660253 0 0.5000001
vn 0.8660253 0 0.5000001
vn 0.8660253 0 0.5000001
vn 0.8660253 0 -0.5000001
vn 0.8660253 0 -0.5000001
vn 0.8660253 0 -0.5000001
vn 0.8660253 0 -0.5000001
vn 0 0 -1
vn 0 0 -1
vn 0 0 -1
vn 0 0 -1
vn -0.8660253 0 -0.5000001
vn -0.8660253 0 -0.5000001
vn -0.8660253 0 -0.5000001
vn -0.8660253 0 -0.5000001
vn -0.8660253 0 0.5000001
vn -0.8660253 0 0.5000001
vn -0.8660253 0 0.5000001
vn -0.8660253 0 0.5000001
g fxmeshRing3_0
f 3/3/3 2/2/2 1/1/1
f 4/4/4 3/3/3 1/1/1
f 7/7/7 6/6/6 5/5/5
f 8/8/8 7/7/7 5/5/5
f 11/11/11 10/10/10 9/9/9
f 12/12/12 11/11/11 9/9/9
f 15/15/15 14/14/14 13/13/13
f 16/16/16 15/15/15 13/13/13
f 19/19/19 18/18/18 17/17/17
f 20/20/20 19/19/19 17/17/17
f 23/23/23 22/22/22 21/21/21
f 24/24/24 23/23/23 21/21/21
