g fxMeshGodRayPlanar
v 3.83693E-15 8.637485 0.5
v 3.83693E-15 8.637485 -0.5
v -2.220446E-16 -0.5 -0.5
v -2.220446E-16 -0.5 0.5
v -0.5 8.637485 3.695702E-16
v 0.5 8.637485 5.916148E-16
v 0.5 -0.5 8.326673E-17
v -0.5 -0.5 -1.387779E-16
vt 2.980232E-08 1
vt 1 1
vt 1 0
vt 0 2.980232E-08
vt 2.980232E-08 1
vt 1 1
vt 1 0
vt 0 2.980232E-08
vn 1 0 0
vn 1 0 0
vn 1 0 0
vn 1 0 0
vn 0 0 1
vn 0 0 1
vn 0 0 1
vn 0 0 1
g fxMeshGodRayPlanar_0
f 3/3/3 2/2/2 1/1/1
f 4/4/4 3/3/3 1/1/1
f 7/7/7 6/6/6 5/5/5
f 8/8/8 7/7/7 5/5/5
