g generatorRing2
v 0.7766433 0.03624737 0.2833809
v 0.9402328 0.03624737 1.740456E-05
v 1.134961 0.03624737 1.740456E-05
v 0.9226719 0.03624737 0.3676869
v 0.7766433 0.03624737 -0.2833808
v 0.9226719 0.03624737 -0.3676867
v -0.7766433 0.03624737 -0.2833808
v -0.9402329 0.03624737 -1.728535E-05
v -1.134961 0.03624737 -1.728535E-05
v -0.9226719 0.03624737 -0.3676867
v -0.7766433 0.03624737 0.2833809
v -0.9226719 0.03624737 0.3676869
v -0.142894 0.03624737 -0.8142588
v -0.4701078 0.03624737 -0.8142588
v -0.5674717 0.03624737 -0.9829053
v -0.142894 0.03624737 -0.9829053
v -0.633732 0.03624737 -0.5308953
v -0.7797606 0.03624737 -0.6152012
v 0.142894 0.03624737 0.8142588
v 0.4701077 0.03624737 0.8142588
v 0.5674717 0.03624737 0.9829053
v 0.142894 0.03624737 0.9829053
v 0.6337319 0.03624737 0.5308954
v 0.7797606 0.03624737 0.6152012
v 0.6337319 0.03624737 -0.5308953
v 0.4701077 0.03624737 -0.8142588
v 0.5674717 0.03624737 -0.9829053
v 0.7797606 0.03624737 -0.6152012
v 0.142894 0.03624737 -0.8142588
v 0.142894 0.03624737 -0.9829053
v -0.633732 0.03624737 0.5308954
v -0.4701078 0.03624737 0.8142588
v -0.5674717 0.03624737 0.9829053
v -0.7797606 0.03624737 0.6152012
v -0.142894 0.03624737 0.8142588
v -0.142894 0.03624737 0.9829053
v 0.9226719 -0.03624737 0.3676869
v 1.134961 -0.03624737 1.740456E-05
v 0.9402328 -0.03624737 1.740456E-05
v 0.7766433 -0.03624737 0.2833809
v 0.7766433 -0.03624737 -0.2833808
v 0.9226719 -0.03624737 -0.3676867
v -0.9226719 -0.03624737 -0.3676867
v -1.134961 -0.03624737 -1.728535E-05
v -0.9402329 -0.03624737 -1.728535E-05
v -0.7766433 -0.03624737 -0.2833808
v -0.7766433 -0.03624737 0.2833809
v -0.9226719 -0.03624737 0.3676869
v -0.142894 -0.03624737 -0.9829053
v -0.5674717 -0.03624737 -0.9829053
v -0.4701078 -0.03624737 -0.8142588
v -0.142894 -0.03624737 -0.8142588
v -0.633732 -0.03624737 -0.5308953
v -0.7797606 -0.03624737 -0.6152012
v 0.142894 -0.03624737 0.9829053
v 0.5674717 -0.03624737 0.9829053
v 0.4701077 -0.03624737 0.8142588
v 0.142894 -0.03624737 0.8142588
v 0.6337319 -0.03624737 0.5308954
v 0.7797606 -0.03624737 0.6152012
v 0.7797606 -0.03624737 -0.6152012
v 0.5674717 -0.03624737 -0.9829053
v 0.4701077 -0.03624737 -0.8142588
v 0.6337319 -0.03624737 -0.5308953
v 0.142894 -0.03624737 -0.8142588
v 0.142894 -0.03624737 -0.9829053
v -0.7797606 -0.03624737 0.6152012
v -0.5674717 -0.03624737 0.9829053
v -0.4701078 -0.03624737 0.8142588
v -0.633732 -0.03624737 0.5308954
v -0.142894 -0.03624737 0.8142588
v -0.142894 -0.03624737 0.9829053
v 0.9226719 0.03624737 0.3676869
v 1.134961 0.03624737 1.740456E-05
v 1.134961 -0.03624737 1.740456E-05
v 0.9226719 -0.03624737 0.3676869
v 0.9402328 -0.03624737 1.740456E-05
v 0.9402328 0.03624737 1.740456E-05
v 0.7766433 0.03624737 0.2833809
v 0.7766433 -0.03624737 0.2833809
v -0.9226719 0.03624737 -0.3676867
v -1.134961 0.03624737 -1.728535E-05
v -1.134961 -0.03624737 -1.728535E-05
v -0.9226719 -0.03624737 -0.3676867
v -0.9402329 -0.03624737 -1.728535E-05
v -0.9402329 0.03624737 -1.728535E-05
v -0.7766433 0.03624737 -0.2833808
v -0.7766433 -0.03624737 -0.2833808
v -0.142894 0.03624737 -0.9829053
v -0.5674717 0.03624737 -0.9829053
v -0.5674717 -0.03624737 -0.9829053
v -0.142894 -0.03624737 -0.9829053
v -0.4701078 -0.03624737 -0.8142588
v -0.4701078 0.03624737 -0.8142588
v -0.142894 0.03624737 -0.8142588
v -0.142894 -0.03624737 -0.8142588
v 0.142894 0.03624737 0.9829053
v 0.5674717 0.03624737 0.9829053
v 0.5674717 -0.03624737 0.9829053
v 0.142894 -0.03624737 0.9829053
v 0.4701077 -0.03624737 0.8142588
v 0.4701077 0.03624737 0.8142588
v 0.142894 0.03624737 0.8142588
v 0.142894 -0.03624737 0.8142588
v 0.7797606 0.03624737 -0.6152012
v 0.5674717 0.03624737 -0.9829053
v 0.5674717 -0.03624737 -0.9829053
v 0.7797606 -0.03624737 -0.6152012
v 0.4701077 -0.03624737 -0.8142588
v 0.4701077 0.03624737 -0.8142588
v 0.6337319 0.03624737 -0.5308953
v 0.6337319 -0.03624737 -0.5308953
v -0.7797606 0.03624737 0.6152012
v -0.5674717 0.03624737 0.9829053
v -0.5674717 -0.03624737 0.9829053
v -0.7797606 -0.03624737 0.6152012
v -0.4701078 -0.03624737 0.8142588
v -0.4701078 0.03624737 0.8142588
v -0.633732 0.03624737 0.5308954
v -0.633732 -0.03624737 0.5308954
v 0.6337319 0.03624737 0.5308954
v 0.4701077 0.03624737 0.8142588
v 0.4701077 -0.03624737 0.8142588
v 0.6337319 -0.03624737 0.5308954
v 0.5674717 -0.03624737 0.9829053
v 0.5674717 0.03624737 0.9829053
v 0.7797606 0.03624737 0.6152012
v 0.7797606 -0.03624737 0.6152012
v -0.633732 0.03624737 -0.5308953
v -0.4701078 0.03624737 -0.8142588
v -0.4701078 -0.03624737 -0.8142588
v -0.633732 -0.03624737 -0.5308953
v -0.5674717 -0.03624737 -0.9829053
v -0.5674717 0.03624737 -0.9829053
v -0.7797606 0.03624737 -0.6152012
v -0.7797606 -0.03624737 -0.6152012
v 0.142894 0.03624737 -0.8142588
v 0.4701077 0.03624737 -0.8142588
v 0.4701077 -0.03624737 -0.8142588
v 0.142894 -0.03624737 -0.8142588
v 0.5674717 -0.03624737 -0.9829053
v 0.5674717 0.03624737 -0.9829053
v 0.142894 0.03624737 -0.9829053
v 0.142894 -0.03624737 -0.9829053
v -0.142894 0.03624737 0.8142588
v -0.4701078 0.03624737 0.8142588
v -0.4701078 -0.03624737 0.8142588
v -0.142894 -0.03624737 0.8142588
v -0.5674717 -0.03624737 0.9829053
v -0.5674717 0.03624737 0.9829053
v -0.142894 0.03624737 0.9829053
v -0.142894 -0.03624737 0.9829053
v 0.7766433 0.03624737 -0.2833808
v 0.9402328 0.03624737 1.740456E-05
v 0.9402328 -0.03624737 1.740456E-05
v 0.7766433 -0.03624737 -0.2833808
v 1.134961 -0.03624737 1.740456E-05
v 1.134961 0.03624737 1.740456E-05
v 0.9226719 0.03624737 -0.3676867
v 0.9226719 -0.03624737 -0.3676867
v -0.7766433 0.03624737 0.2833809
v -0.9402329 0.03624737 -1.728535E-05
v -0.9402329 -0.03624737 -1.728535E-05
v -0.7766433 -0.03624737 0.2833809
v -1.134961 -0.03624737 -1.728535E-05
v -1.134961 0.03624737 -1.728535E-05
v -0.9226719 0.03624737 0.3676869
v -0.9226719 -0.03624737 0.3676869
v 0.7797606 0.03624737 0.6152012
v 0.6337319 0.03624737 0.5308954
v 0.6337319 -0.03624737 0.5308954
v 0.7797606 -0.03624737 0.6152012
v 0.7766433 -0.03624737 0.2833809
v 0.7766433 0.03624737 0.2833809
v 0.9226719 0.03624737 0.3676869
v 0.9226719 -0.03624737 0.3676869
v -0.7797606 0.03624737 -0.6152012
v -0.633732 0.03624737 -0.5308953
v -0.633732 -0.03624737 -0.5308953
v -0.7797606 -0.03624737 -0.6152012
v -0.7766433 -0.03624737 -0.2833808
v -0.7766433 0.03624737 -0.2833808
v -0.9226719 0.03624737 -0.3676867
v -0.9226719 -0.03624737 -0.3676867
v 0.142894 0.03624737 -0.9829053
v 0.142894 0.03624737 -0.8142588
v 0.142894 -0.03624737 -0.8142588
v 0.142894 -0.03624737 -0.9829053
v -0.142894 -0.03624737 -0.8142588
v -0.142894 0.03624737 -0.8142588
v -0.142894 0.03624737 -0.9829053
v -0.142894 -0.03624737 -0.9829053
v -0.142894 0.03624737 0.9829053
v -0.142894 0.03624737 0.8142588
v -0.142894 -0.03624737 0.8142588
v -0.142894 -0.03624737 0.9829053
v 0.142894 -0.03624737 0.8142588
v 0.142894 0.03624737 0.8142588
v 0.142894 0.03624737 0.9829053
v 0.142894 -0.03624737 0.9829053
v 0.9226719 0.03624737 -0.3676867
v 0.7766433 0.03624737 -0.2833808
v 0.7766433 -0.03624737 -0.2833808
v 0.9226719 -0.03624737 -0.3676867
v 0.6337319 -0.03624737 -0.5308953
v 0.6337319 0.03624737 -0.5308953
v 0.7797606 0.03624737 -0.6152012
v 0.7797606 -0.03624737 -0.6152012
v -0.9226719 0.03624737 0.3676869
v -0.7766433 0.03624737 0.2833809
v -0.7766433 -0.03624737 0.2833809
v -0.9226719 -0.03624737 0.3676869
v -0.633732 -0.03624737 0.5308954
v -0.633732 0.03624737 0.5308954
v -0.7797606 0.03624737 0.6152012
v -0.7797606 -0.03624737 0.6152012
vt 0.9727094 0.5488763
vt 0.9791591 0.5617756
vt 0.9883729 0.5617756
vt 0.9791591 0.5451908
vt 0.9727094 0.5746748
vt 0.9791591 0.5783604
vt 0.9026848 0.5746748
vt 0.8953139 0.5617756
vt 0.8861001 0.5617756
vt 0.8962352 0.5783604
vt 0.9026848 0.5488763
vt 0.8962352 0.5451908
vt 0.9312475 0.5986307
vt 0.9165055 0.5986307
vt 0.9118986 0.6060017
vt 0.9312475 0.6060017
vt 0.9091345 0.5857314
vt 0.9026848 0.5894169
vt 0.9441468 0.5249205
vt 0.9588888 0.5249205
vt 0.9625744 0.5175495
vt 0.9441468 0.5175495
vt 0.9662598 0.5378198
vt 0.9727094 0.5341343
vt 0.9662598 0.5857314
vt 0.9588888 0.5986307
vt 0.9625744 0.6060017
vt 0.9727094 0.5894169
vt 0.9441468 0.5986307
vt 0.9441468 0.6060017
vt 0.9091345 0.5378198
vt 0.9165055 0.5249205
vt 0.9118986 0.5175495
vt 0.9026848 0.5341343
vt 0.9312475 0.5249205
vt 0.9312475 0.5175495
vt 0.9791591 0.5451908
vt 0.9883729 0.5617756
vt 0.9791591 0.5617756
vt 0.9727094 0.5488763
vt 0.9727094 0.5746748
vt 0.9791591 0.5783604
vt 0.8962352 0.5783604
vt 0.8861001 0.5617756
vt 0.8953139 0.5617756
vt 0.9026848 0.5746748
vt 0.9026848 0.5488763
vt 0.8962352 0.5451908
vt 0.9312475 0.6060017
vt 0.9118986 0.6060017
vt 0.9165055 0.5986307
vt 0.9312475 0.5986307
vt 0.9091345 0.5857314
vt 0.9026848 0.5894169
vt 0.9441468 0.5175495
vt 0.9625744 0.5175495
vt 0.9588888 0.5249205
vt 0.9441468 0.5249205
vt 0.9662598 0.5378198
vt 0.9727094 0.5341343
vt 0.9727094 0.5894169
vt 0.9625744 0.6060017
vt 0.9588888 0.5986307
vt 0.9662598 0.5857314
vt 0.9441468 0.5986307
vt 0.9441468 0.6060017
vt 0.9026848 0.5341343
vt 0.9118986 0.5175495
vt 0.9165055 0.5249205
vt 0.9091345 0.5378198
vt 0.9312475 0.5249205
vt 0.9312475 0.5175495
vt 0.9791591 0.5451908
vt 0.9883729 0.5617756
vt 0.9883729 0.5617756
vt 0.9791591 0.5451908
vt 0.9791591 0.5617756
vt 0.9791591 0.5617756
vt 0.9727094 0.5488763
vt 0.9727094 0.5488763
vt 0.8962352 0.5783604
vt 0.8861001 0.5617756
vt 0.8861001 0.5617756
vt 0.8962352 0.5783604
vt 0.8953139 0.5617756
vt 0.8953139 0.5617756
vt 0.9026848 0.5746748
vt 0.9026848 0.5746748
vt 0.9312475 0.6060017
vt 0.9118986 0.6060017
vt 0.9118986 0.6060017
vt 0.9312475 0.6060017
vt 0.9165055 0.5986307
vt 0.9165055 0.5986307
vt 0.9312475 0.5986307
vt 0.9312475 0.5986307
vt 0.9441468 0.5175495
vt 0.9625744 0.5175495
vt 0.9625744 0.5175495
vt 0.9441468 0.5175495
vt 0.9588888 0.5249205
vt 0.9588888 0.5249205
vt 0.9441468 0.5249205
vt 0.9441468 0.5249205
vt 0.9727094 0.5894169
vt 0.9625744 0.6060017
vt 0.9625744 0.6060017
vt 0.9727094 0.5894169
vt 0.9588888 0.5986307
vt 0.9588888 0.5986307
vt 0.9662598 0.5857314
vt 0.9662598 0.5857314
vt 0.9026848 0.5341343
vt 0.9118986 0.5175495
vt 0.9118986 0.5175495
vt 0.9026848 0.5341343
vt 0.9165055 0.5249205
vt 0.9165055 0.5249205
vt 0.9091345 0.5378198
vt 0.9091345 0.5378198
vt 0.9662598 0.5378198
vt 0.9588888 0.5249205
vt 0.9588888 0.5249205
vt 0.9662598 0.5378198
vt 0.9625744 0.5175495
vt 0.9625744 0.5175495
vt 0.9727094 0.5341343
vt 0.9727094 0.5341343
vt 0.9091345 0.5857314
vt 0.9165055 0.5986307
vt 0.9165055 0.5986307
vt 0.9091345 0.5857314
vt 0.9118986 0.6060017
vt 0.9118986 0.6060017
vt 0.9026848 0.5894169
vt 0.9026848 0.5894169
vt 0.9441468 0.5986307
vt 0.9588888 0.5986307
vt 0.9588888 0.5986307
vt 0.9441468 0.5986307
vt 0.9625744 0.6060017
vt 0.9625744 0.6060017
vt 0.9441468 0.6060017
vt 0.9441468 0.6060017
vt 0.9312475 0.5249205
vt 0.9165055 0.5249205
vt 0.9165055 0.5249205
vt 0.9312475 0.5249205
vt 0.9118986 0.5175495
vt 0.9118986 0.5175495
vt 0.9312475 0.5175495
vt 0.9312475 0.5175495
vt 0.9727094 0.5746748
vt 0.9791591 0.5617756
vt 0.9791591 0.5617756
vt 0.9727094 0.5746748
vt 0.9883729 0.5617756
vt 0.9883729 0.5617756
vt 0.9791591 0.5783604
vt 0.9791591 0.5783604
vt 0.9026848 0.5488763
vt 0.8953139 0.5617756
vt 0.8953139 0.5617756
vt 0.9026848 0.5488763
vt 0.8861001 0.5617756
vt 0.8861001 0.5617756
vt 0.8962352 0.5451908
vt 0.8962352 0.5451908
vt 0.9727094 0.5341343
vt 0.9662598 0.5378198
vt 0.9662598 0.5378198
vt 0.9727094 0.5341343
vt 0.9727094 0.5488763
vt 0.9727094 0.5488763
vt 0.9791591 0.5451908
vt 0.9791591 0.5451908
vt 0.9026848 0.5894169
vt 0.9091345 0.5857314
vt 0.9091345 0.5857314
vt 0.9026848 0.5894169
vt 0.9026848 0.5746748
vt 0.9026848 0.5746748
vt 0.8962352 0.5783604
vt 0.8962352 0.5783604
vt 0.9441468 0.6060017
vt 0.9441468 0.5986307
vt 0.9441468 0.5986307
vt 0.9441468 0.6060017
vt 0.9312475 0.5986307
vt 0.9312475 0.5986307
vt 0.9312475 0.6060017
vt 0.9312475 0.6060017
vt 0.9312475 0.5175495
vt 0.9312475 0.5249205
vt 0.9312475 0.5249205
vt 0.9312475 0.5175495
vt 0.9441468 0.5249205
vt 0.9441468 0.5249205
vt 0.9441468 0.5175495
vt 0.9441468 0.5175495
vt 0.9791591 0.5783604
vt 0.9727094 0.5746748
vt 0.9727094 0.5746748
vt 0.9791591 0.5783604
vt 0.9662598 0.5857314
vt 0.9662598 0.5857314
vt 0.9727094 0.5894169
vt 0.9727094 0.5894169
vt 0.8962352 0.5451908
vt 0.9026848 0.5488763
vt 0.9026848 0.5488763
vt 0.8962352 0.5451908
vt 0.9091345 0.5378198
vt 0.9091345 0.5378198
vt 0.9026848 0.5341343
vt 0.9026848 0.5341343
vn -0.003921509 0.9999923 -0.000345267
vn -0.003921509 0.9999923 -0.000345267
vn -0.003921509 0.9999923 -0.000345267
vn -0.003921509 0.9999923 -0.000345267
vn -0.003921509 0.9999923 -0.000345267
vn -0.003921509 0.9999923 -0.000345267
vn -0.003921509 0.9999923 -0.000345267
vn -0.003921509 0.9999923 -0.000345267
vn -0.003921509 0.9999923 -0.000345267
vn -0.003921509 0.9999923 -0.000345267
vn -0.003921509 0.9999923 -0.000345267
vn -0.003921509 0.9999923 -0.000345267
vn -0.003921509 0.9999923 -0.000345267
vn -0.003921509 0.9999923 -0.000345267
vn -0.003921509 0.9999923 -0.000345267
vn -0.003921509 0.9999923 -0.000345267
vn -0.003921509 0.9999923 -0.000345267
vn -0.003921509 0.9999923 -0.000345267
vn -0.003921509 0.9999923 -0.000345267
vn -0.003921509 0.9999923 -0.000345267
vn -0.003921509 0.9999923 -0.000345267
vn -0.003921509 0.9999923 -0.000345267
vn -0.003921509 0.9999923 -0.000345267
vn -0.003921509 0.9999923 -0.000345267
vn -0.003921509 0.9999923 -0.000345267
vn -0.003921509 0.9999923 -0.000345267
vn -0.003921509 0.9999923 -0.000345267
vn -0.003921509 0.9999923 -0.000345267
vn -0.003921509 0.9999923 -0.000345267
vn -0.003921509 0.9999923 -0.000345267
vn -0.003921509 0.9999923 -0.000345267
vn -0.003921509 0.9999923 -0.000345267
vn -0.003921509 0.9999923 -0.000345267
vn -0.003921509 0.9999923 -0.000345267
vn -0.003921509 0.9999923 -0.000345267
vn -0.003921509 0.9999923 -0.000345267
vn -0.003921509 -0.9999924 0
vn -0.003921509 -0.9999924 0
vn -0.003921509 -0.9999924 0
vn -0.003921509 -0.9999924 0
vn -0.003921509 -0.9999924 0
vn -0.003921509 -0.9999924 0
vn -0.003921509 -0.9999924 0
vn -0.003921509 -0.9999924 0
vn -0.003921509 -0.9999924 0
vn -0.003921509 -0.9999924 0
vn -0.003921509 -0.9999924 0
vn -0.003921509 -0.9999924 0
vn -0.003921509 -0.9999924 0
vn -0.003921509 -0.9999924 0
vn -0.003921509 -0.9999924 0
vn -0.003921509 -0.9999924 0
vn -0.003921509 -0.9999924 0
vn -0.003921509 -0.9999924 0
vn -0.003921509 -0.9999924 0
vn -0.003921509 -0.9999924 0
vn -0.003921509 -0.9999924 0
vn -0.003921509 -0.9999924 0
vn -0.003921509 -0.9999924 0
vn -0.003921509 -0.9999924 0
vn -0.003921509 -0.9999924 0
vn -0.003921509 -0.9999924 0
vn -0.003921509 -0.9999924 0
vn -0.003921509 -0.9999924 0
vn -0.003921509 -0.9999924 0
vn -0.003921509 -0.9999924 0
vn -0.003921509 -0.9999924 0
vn -0.003921509 -0.9999924 0
vn -0.003921509 -0.9999924 0
vn -0.003921509 -0.9999924 0
vn -0.003921509 -0.9999924 0
vn -0.003921509 -0.9999924 0
vn 0.8666601 0.003921509 0.4988837
vn 0.8666601 0.003921509 0.4988837
vn 0.8666601 0.003921509 0.4988837
vn 0.8666601 0.003921509 0.4988837
vn -0.86666 0.003921509 -0.4988838
vn -0.86666 0.003921509 -0.4988838
vn -0.86666 0.003921509 -0.4988838
vn -0.86666 0.003921509 -0.4988838
vn -0.86666 -0.003921568 -0.4988838
vn -0.86666 -0.003921568 -0.4988838
vn -0.86666 -0.003921568 -0.4988838
vn -0.86666 -0.003921568 -0.4988838
vn 0.8666601 0.003921509 0.4988837
vn 0.8666601 0.003921509 0.4988837
vn 0.8666601 0.003921509 0.4988837
vn 0.8666601 0.003921509 0.4988837
vn 0.003921568 0.003921509 -0.9999846
vn 0.003921568 0.003921509 -0.9999846
vn 0.003921568 0.003921509 -0.9999846
vn 0.003921568 0.003921509 -0.9999846
vn -0.003921509 0.003921509 0.9999846
vn -0.003921509 0.003921509 0.9999846
vn -0.003921509 0.003921509 0.9999846
vn -0.003921509 0.003921509 0.9999846
vn -0.003921509 0.003921509 0.9999846
vn -0.003921509 0.003921509 0.9999846
vn -0.003921509 0.003921509 0.9999846
vn -0.003921509 0.003921509 0.9999846
vn -0.003921509 0.003921509 -0.9999846
vn -0.003921509 0.003921509 -0.9999846
vn -0.003921509 0.003921509 -0.9999846
vn -0.003921509 0.003921509 -0.9999846
vn 0.8666601 0.003921509 -0.4988837
vn 0.8666601 0.003921509 -0.4988837
vn 0.8666601 0.003921509 -0.4988837
vn 0.8666601 0.003921509 -0.4988837
vn -0.86666 0.003921509 0.4988838
vn -0.86666 0.003921509 0.4988838
vn -0.86666 0.003921509 0.4988838
vn -0.86666 0.003921509 0.4988838
vn -0.86666 0.003921509 0.4988838
vn -0.86666 0.003921509 0.4988838
vn -0.86666 0.003921509 0.4988838
vn -0.86666 0.003921509 0.4988838
vn 0.8666601 0.003921509 -0.4988837
vn 0.8666601 0.003921509 -0.4988837
vn 0.8666601 0.003921509 -0.4988837
vn 0.8666601 0.003921509 -0.4988837
vn -0.86666 0.003921509 -0.4988838
vn -0.86666 0.003921509 -0.4988838
vn -0.86666 0.003921509 -0.4988838
vn -0.86666 0.003921509 -0.4988838
vn 0.8666601 0.003921509 0.4988837
vn 0.8666601 0.003921509 0.4988837
vn 0.8666601 0.003921509 0.4988837
vn 0.8666601 0.003921509 0.4988837
vn 0.8666601 0.003921509 0.4988837
vn 0.8666601 0.003921509 0.4988837
vn 0.8666601 0.003921509 0.4988837
vn 0.8666601 0.003921509 0.4988837
vn -0.86666 0.003921509 -0.4988838
vn -0.86666 0.003921509 -0.4988838
vn -0.86666 0.003921509 -0.4988838
vn -0.86666 0.003921509 -0.4988838
vn -0.003921509 0.003921509 0.9999846
vn -0.003921509 0.003921509 0.9999846
vn -0.003921509 0.003921509 0.9999846
vn -0.003921509 0.003921509 0.9999846
vn 0.003921568 0.003921509 -0.9999846
vn 0.003921568 0.003921509 -0.9999846
vn 0.003921568 0.003921509 -0.9999846
vn 0.003921568 0.003921509 -0.9999846
vn 0.003921568 0.003921509 -0.9999846
vn 0.003921568 0.003921509 -0.9999846
vn 0.003921568 0.003921509 -0.9999846
vn 0.003921568 0.003921509 -0.9999846
vn -0.003921509 0.003921509 0.9999846
vn -0.003921509 0.003921509 0.9999846
vn -0.003921509 0.003921509 0.9999846
vn -0.003921509 0.003921509 0.9999846
vn -0.86666 0.003921509 0.4988838
vn -0.86666 0.003921509 0.4988838
vn -0.86666 0.003921509 0.4988838
vn -0.86666 0.003921509 0.4988838
vn 0.8666601 0.003921509 -0.4988837
vn 0.8666601 0.003921509 -0.4988837
vn 0.8666601 0.003921509 -0.4988837
vn 0.8666601 0.003921509 -0.4988837
vn 0.8666601 0.003921509 -0.4988837
vn 0.8666601 0.003921509 -0.4988837
vn 0.8666601 0.003921509 -0.4988837
vn 0.8666601 0.003921509 -0.4988837
vn -0.86666 0.003921509 0.4988838
vn -0.86666 0.003921509 0.4988838
vn -0.86666 0.003921509 0.4988838
vn -0.86666 0.003921509 0.4988838
vn 0.4980354 0.003921509 -0.8671478
vn 0.4980354 0.003921509 -0.8671478
vn 0.4980354 0.003921509 -0.8671478
vn 0.4980354 0.003921509 -0.8671478
vn -0.4980353 0.003921509 0.8671479
vn -0.4980353 0.003921509 0.8671479
vn -0.4980353 0.003921509 0.8671479
vn -0.4980353 0.003921509 0.8671479
vn -0.4980353 0.003921509 0.8671479
vn -0.4980353 0.003921509 0.8671479
vn -0.4980353 0.003921509 0.8671479
vn -0.4980353 0.003921509 0.8671479
vn 0.4980354 -0.003921568 -0.8671478
vn 0.4980354 -0.003921568 -0.8671478
vn 0.4980354 -0.003921568 -0.8671478
vn 0.4980354 -0.003921568 -0.8671478
vn -0.9999923 0.003921509 -0.0003449296
vn -0.9999923 0.003921509 -0.0003449296
vn -0.9999923 0.003921509 -0.0003449296
vn -0.9999923 0.003921509 -0.0003449296
vn 0.9999924 0.003921509 0
vn 0.9999924 0.003921509 0
vn 0.9999924 0.003921509 0
vn 0.9999924 0.003921509 0
vn 0.9999924 0.003921509 0
vn 0.9999924 0.003921509 0
vn 0.9999924 0.003921509 0
vn 0.9999924 0.003921509 0
vn -0.9999923 0.003921509 -0.0003449296
vn -0.9999923 0.003921509 -0.0003449296
vn -0.9999923 0.003921509 -0.0003449296
vn -0.9999923 0.003921509 -0.0003449296
vn -0.4980353 0.003921509 -0.8671479
vn -0.4980353 0.003921509 -0.8671479
vn -0.4980353 0.003921509 -0.8671479
vn -0.4980353 0.003921509 -0.8671479
vn 0.4980354 0.003921509 0.8671478
vn 0.4980354 0.003921509 0.8671478
vn 0.4980354 0.003921509 0.8671478
vn 0.4980354 0.003921509 0.8671478
vn 0.4980354 0.003921509 0.8671478
vn 0.4980354 0.003921509 0.8671478
vn 0.4980354 0.003921509 0.8671478
vn 0.4980354 0.003921509 0.8671478
vn -0.4980353 0.003921509 -0.8671479
vn -0.4980353 0.003921509 -0.8671479
vn -0.4980353 0.003921509 -0.8671479
vn -0.4980353 0.003921509 -0.8671479
g generatorRing2_0
f 3/3/3 2/2/2 1/1/1
f 4/4/4 3/3/3 1/1/1
f 5/5/5 2/2/2 3/3/3
f 6/6/6 5/5/5 3/3/3
f 9/9/9 8/8/8 7/7/7
f 10/10/10 9/9/9 7/7/7
f 11/11/11 8/8/8 9/9/9
f 12/12/12 11/11/11 9/9/9
f 15/15/15 14/14/14 13/13/13
f 16/16/16 15/15/15 13/13/13
f 17/17/17 14/14/14 15/15/15
f 18/18/18 17/17/17 15/15/15
f 21/21/21 20/20/20 19/19/19
f 22/22/22 21/21/21 19/19/19
f 23/23/23 20/20/20 21/21/21
f 24/24/24 23/23/23 21/21/21
f 27/27/27 26/26/26 25/25/25
f 28/28/28 27/27/27 25/25/25
f 29/29/29 26/26/26 27/27/27
f 30/30/30 29/29/29 27/27/27
f 33/33/33 32/32/32 31/31/31
f 34/34/34 33/33/33 31/31/31
f 35/35/35 32/32/32 33/33/33
f 36/36/36 35/35/35 33/33/33
f 39/39/39 38/38/38 37/37/37
f 40/40/40 39/39/39 37/37/37
f 39/39/39 41/41/41 38/38/38
f 41/41/41 42/42/42 38/38/38
f 45/45/45 44/44/44 43/43/43
f 46/46/46 45/45/45 43/43/43
f 45/45/45 47/47/47 44/44/44
f 47/47/47 48/48/48 44/44/44
f 51/51/51 50/50/50 49/49/49
f 52/52/52 51/51/51 49/49/49
f 51/51/51 53/53/53 50/50/50
f 53/53/53 54/54/54 50/50/50
f 57/57/57 56/56/56 55/55/55
f 58/58/58 57/57/57 55/55/55
f 57/57/57 59/59/59 56/56/56
f 59/59/59 60/60/60 56/56/56
f 63/63/63 62/62/62 61/61/61
f 64/64/64 63/63/63 61/61/61
f 63/63/63 65/65/65 62/62/62
f 65/65/65 66/66/66 62/62/62
f 69/69/69 68/68/68 67/67/67
f 70/70/70 69/69/69 67/67/67
f 69/69/69 71/71/71 68/68/68
f 71/71/71 72/72/72 68/68/68
f 75/75/75 74/74/74 73/73/73
f 76/76/76 75/75/75 73/73/73
f 79/79/79 78/78/78 77/77/77
f 80/80/80 79/79/79 77/77/77
f 83/83/83 82/82/82 81/81/81
f 84/84/84 83/83/83 81/81/81
f 87/87/87 86/86/86 85/85/85
f 88/88/88 87/87/87 85/85/85
f 91/91/91 90/90/90 89/89/89
f 92/92/92 91/91/91 89/89/89
f 95/95/95 94/94/94 93/93/93
f 96/96/96 95/95/95 93/93/93
f 99/99/99 98/98/98 97/97/97
f 100/100/100 99/99/99 97/97/97
f 103/103/103 102/102/102 101/101/101
f 104/104/104 103/103/103 101/101/101
f 107/107/107 106/106/106 105/105/105
f 108/108/108 107/107/107 105/105/105
f 111/111/111 110/110/110 109/109/109
f 112/112/112 111/111/111 109/109/109
f 115/115/115 114/114/114 113/113/113
f 116/116/116 115/115/115 113/113/113
f 119/119/119 118/118/118 117/117/117
f 120/120/120 119/119/119 117/117/117
f 123/123/123 122/122/122 121/121/121
f 124/124/124 123/123/123 121/121/121
f 127/127/127 126/126/126 125/125/125
f 128/128/128 127/127/127 125/125/125
f 131/131/131 130/130/130 129/129/129
f 132/132/132 131/131/131 129/129/129
f 135/135/135 134/134/134 133/133/133
f 136/136/136 135/135/135 133/133/133
f 139/139/139 138/138/138 137/137/137
f 140/140/140 139/139/139 137/137/137
f 143/143/143 142/142/142 141/141/141
f 144/144/144 143/143/143 141/141/141
f 147/147/147 146/146/146 145/145/145
f 148/148/148 147/147/147 145/145/145
f 151/151/151 150/150/150 149/149/149
f 152/152/152 151/151/151 149/149/149
f 155/155/155 154/154/154 153/153/153
f 156/156/156 155/155/155 153/153/153
f 159/159/159 158/158/158 157/157/157
f 160/160/160 159/159/159 157/157/157
f 163/163/163 162/162/162 161/161/161
f 164/164/164 163/163/163 161/161/161
f 167/167/167 166/166/166 165/165/165
f 168/168/168 167/167/167 165/165/165
f 171/171/171 170/170/170 169/169/169
f 172/172/172 171/171/171 169/169/169
f 175/175/175 174/174/174 173/173/173
f 176/176/176 175/175/175 173/173/173
f 179/179/179 178/178/178 177/177/177
f 180/180/180 179/179/179 177/177/177
f 183/183/183 182/182/182 181/181/181
f 184/184/184 183/183/183 181/181/181
f 187/187/187 186/186/186 185/185/185
f 188/188/188 187/187/187 185/185/185
f 191/191/191 190/190/190 189/189/189
f 192/192/192 191/191/191 189/189/189
f 195/195/195 194/194/194 193/193/193
f 196/196/196 195/195/195 193/193/193
f 199/199/199 198/198/198 197/197/197
f 200/200/200 199/199/199 197/197/197
f 203/203/203 202/202/202 201/201/201
f 204/204/204 203/203/203 201/201/201
f 207/207/207 206/206/206 205/205/205
f 208/208/208 207/207/207 205/205/205
f 211/211/211 210/210/210 209/209/209
f 212/212/212 211/211/211 209/209/209
f 215/215/215 214/214/214 213/213/213
f 216/216/216 215/215/215 213/213/213
