g generatorShard
v -0.1210424 -0.8559956 -0.06555641
v -0.1213298 -0.3506401 -0.3959118
v -0.4131534 -0.3710685 -0.1494906
v 0.0003265142 0.3186391 -0.4415492
v -0.01495564 0.8559957 -0.02409869
v -0.2088429 0.3460163 -0.3254834
v -0.1213298 -0.3506401 -0.3959118
v -0.1210424 -0.8559956 -0.06555641
v 0.2842085 -0.3745952 -0.4215649
v -0.1794019 -0.4749087 0.3672808
v -0.1210424 -0.8559956 -0.06555641
v -0.3658963 -0.4276516 0.1449452
v -0.1210424 -0.8559956 -0.06555641
v -0.1794019 -0.4749087 0.3672808
v 0.1411573 -0.5030435 0.3660007
v -0.1430905 0.1971397 0.4415494
v -0.1555514 0.4564919 0.2918367
v 0.1631531 0.274752 0.280891
v -0.01495564 0.8559957 -0.02409869
v -0.3658963 -0.4276516 0.1449452
v -0.1210424 -0.8559956 -0.06555641
v -0.4131534 -0.3710685 -0.1494906
v 0.2842085 -0.3745952 -0.4215649
v -0.1210424 -0.8559956 -0.06555641
v 0.1435868 -0.673472 -0.05403602
v -0.01495564 0.8559957 -0.02409869
v 0.188127 0.4144856 -0.1743078
v 0.3422806 0.4040623 0.008424819
v 0.1631531 0.274752 0.280891
v -0.01495564 0.8559957 -0.02409869
v 0.324778 0.3342609 0.1573538
v -0.3915754 0.333216 -0.1043757
v -0.3406611 0.1614029 0.0502221
v -0.4131534 -0.3710685 -0.1494906
v -0.3313612 0.07600582 -0.3167059
v -0.1213298 -0.3506401 -0.3959118
v -0.1213298 -0.3506401 -0.3959118
v 0.0003265142 0.3186391 -0.4415492
v -0.3313612 0.07600582 -0.3167059
v -0.2088429 0.3460163 -0.3254834
v -0.1213298 -0.3506401 -0.3959118
v 0.2842085 -0.3745952 -0.4215649
v 0.0003265142 0.3186391 -0.4415492
v 0.2842085 -0.3745952 -0.4215649
v 0.188127 0.4144856 -0.1743078
v 0.0003265142 0.3186391 -0.4415492
v 0.2842085 -0.3745952 -0.4215649
v 0.4131532 -0.3921762 -0.01534742
v 0.188127 0.4144856 -0.1743078
v 0.3422806 0.4040623 0.008424819
v 0.188127 0.4144856 -0.1743078
v 0.4131532 -0.3921762 -0.01534742
v -0.3658963 -0.4276516 0.1449452
v -0.4131534 -0.3710685 -0.1494906
v -0.3441355 0.1803163 0.2435607
v -0.3658963 -0.4276516 0.1449452
v -0.3441355 0.1803163 0.2435607
v -0.1794019 -0.4749087 0.3672808
v -0.1794019 -0.4749087 0.3672808
v -0.1430905 0.1971397 0.4415494
v 0.1751437 -0.2220873 0.4019987
v 0.1411573 -0.5030435 0.3660007
v -0.1430905 0.1971397 0.4415494
v 0.1631531 0.274752 0.280891
v 0.1751437 -0.2220873 0.4019987
v 0.1751437 -0.2220873 0.4019987
v 0.1631531 0.274752 0.280891
v 0.4131532 -0.3921762 -0.01534742
v 0.1411573 -0.5030435 0.3660007
v 0.1751437 -0.2220873 0.4019987
v 0.1631531 0.274752 0.280891
v 0.324778 0.3342609 0.1573538
v 0.4131532 -0.3921762 -0.01534742
v -0.3313612 0.07600582 -0.3167059
v -0.2088429 0.3460163 -0.3254834
v -0.3915754 0.333216 -0.1043757
v -0.01495564 0.8559957 -0.02409869
v -0.3441355 0.1803163 0.2435607
v -0.1430905 0.1971397 0.4415494
v -0.1794019 -0.4749087 0.3672808
v -0.3406611 0.1614029 0.0502221
v -0.2901909 0.3957813 0.1609327
v -0.3441355 0.1803163 0.2435607
v -0.3441355 0.1803163 0.2435607
v -0.4131534 -0.3710685 -0.1494906
v -0.3406611 0.1614029 0.0502221
v 0.1435868 -0.673472 -0.05403602
v -0.1210424 -0.8559956 -0.06555641
v 0.1411573 -0.5030435 0.3660007
v -0.2901909 0.3957813 0.1609327
v -0.1555514 0.4564919 0.2918367
v -0.3441355 0.1803163 0.2435607
v -0.1555514 0.4564919 0.2918367
v -0.1430905 0.1971397 0.4415494
v -0.3441355 0.1803163 0.2435607
v -0.01495564 0.8559957 -0.02409869
v 0.0003265142 0.3186391 -0.4415492
v 0.188127 0.4144856 -0.1743078
v -0.2901909 0.3957813 0.1609327
v -0.3406611 0.1614029 0.0502221
v -0.3915754 0.333216 -0.1043757
v -0.01495564 0.8559957 -0.02409869
v -0.2901909 0.3957813 0.1609327
v 0.324778 0.3342609 0.1573538
v -0.01495564 0.8559957 -0.02409869
v 0.3422806 0.4040623 0.008424819
v 0.3422806 0.4040623 0.008424819
v 0.4131532 -0.3921762 -0.01534742
v 0.324778 0.3342609 0.1573538
v 0.4131532 -0.3921762 -0.01534742
v 0.2842085 -0.3745952 -0.4215649
v 0.1435868 -0.673472 -0.05403602
v 0.1411573 -0.5030435 0.3660007
v -0.01495564 0.8559957 -0.02409869
v -0.1555514 0.4564919 0.2918367
v -0.2901909 0.3957813 0.1609327
vt 0.9665698 0.1067187
vt 0.9628435 0.07504492
vt 0.9544593 0.08436075
vt 0.9479382 0.03591843
vt 0.9125381 0.01449202
vt 0.939554 0.03964476
vt 0.9628435 0.07504492
vt 0.9665698 0.1067187
vt 0.9675015 0.07318175
vt 0.9348961 0.09740291
vt 0.9665698 0.1067187
vt 0.9414171 0.09181341
vt 0.9665698 0.1067187
vt 0.9348961 0.09740291
vt 0.9442119 0.09367657
vt 0.9125381 0.06479751
vt 0.9125381 0.04709743
vt 0.9227855 0.05175534
vt 0.9125381 0.01449202
vt 0.9414171 0.09181341
vt 0.9665698 0.1067187
vt 0.9544593 0.08436075
vt 0.9675015 0.07318175
vt 0.9665698 0.1067187
vt 0.961912 0.09460816
vt 0.9125381 0.01449202
vt 0.9321013 0.0377816
vt 0.9283749 0.03871318
vt 0.9227855 0.05175534
vt 0.9125381 0.01449202
vt 0.9246486 0.04616584
vt 0.9330329 0.04523426
vt 0.9255802 0.05455009
vt 0.9544593 0.08436075
vt 0.9404855 0.04616584
vt 0.9628435 0.07504492
vt 0.9628435 0.07504492
vt 0.9479382 0.03591843
vt 0.9404855 0.04616584
vt 0.939554 0.03964476
vt 0.9628435 0.07504492
vt 0.9675015 0.07318175
vt 0.9479382 0.03591843
vt 0.9675015 0.07318175
vt 0.9321013 0.0377816
vt 0.9479382 0.03591843
vt 0.9675015 0.07318175
vt 0.9535277 0.07877125
vt 0.9321013 0.0377816
vt 0.9283749 0.03871318
vt 0.9321013 0.0377816
vt 0.9535277 0.07877125
vt 0.9414171 0.09181341
vt 0.9544593 0.08436075
vt 0.9227855 0.06572908
vt 0.9414171 0.09181341
vt 0.9227855 0.06572908
vt 0.9348961 0.09740291
vt 0.9348961 0.09740291
vt 0.9125381 0.06479751
vt 0.9348961 0.07970283
vt 0.9442119 0.09367657
vt 0.9125381 0.06479751
vt 0.9227855 0.05175534
vt 0.9348961 0.07970283
vt 0.9348961 0.07970283
vt 0.9227855 0.05175534
vt 0.9535277 0.07877125
vt 0.9442119 0.09367657
vt 0.9348961 0.07970283
vt 0.9227855 0.05175534
vt 0.9246486 0.04616584
vt 0.9535277 0.07877125
vt 0.9404855 0.04616584
vt 0.939554 0.03964476
vt 0.9330329 0.04523426
vt 0.9125381 0.01449202
vt 0.9227855 0.06572908
vt 0.9125381 0.06479751
vt 0.9348961 0.09740291
vt 0.9255802 0.05455009
vt 0.9209223 0.04709743
vt 0.9227855 0.06572908
vt 0.9227855 0.06572908
vt 0.9544593 0.08436075
vt 0.9255802 0.05455009
vt 0.961912 0.09460816
vt 0.9665698 0.1067187
vt 0.9442119 0.09367657
vt 0.9209223 0.04709743
vt 0.9125381 0.04709743
vt 0.9227855 0.06572908
vt 0.9125381 0.04709743
vt 0.9125381 0.06479751
vt 0.9227855 0.06572908
vt 0.9125381 0.01449202
vt 0.9479382 0.03591843
vt 0.9321013 0.0377816
vt 0.9209223 0.04709743
vt 0.9255802 0.05455009
vt 0.9330329 0.04523426
vt 0.9125381 0.01449202
vt 0.9209223 0.04709743
vt 0.9246486 0.04616584
vt 0.9125381 0.01449202
vt 0.9283749 0.03871318
vt 0.9283749 0.03871318
vt 0.9535277 0.07877125
vt 0.9246486 0.04616584
vt 0.9535277 0.07877125
vt 0.9675015 0.07318175
vt 0.961912 0.09460816
vt 0.9442119 0.09367657
vt 0.9125381 0.01449202
vt 0.9125381 0.04709743
vt 0.9209223 0.04709743
vn -0.9583232 -0.00228548 -0.2856772
vn -0.9583232 -0.00228548 -0.2856772
vn -0.8646054 -0.02571499 -0.5017931
vn -0.3960157 0.4350649 -0.8086348
vn -0.3725862 0.4897336 -0.7882516
vn -0.3725862 0.4897336 -0.7882516
vn -0.08362263 -0.4943046 -0.8652573
vn -0.08362263 -0.4943046 -0.8652573
vn -0.08362263 -0.4943046 -0.8652573
vn -0.7005989 -0.5255439 0.4826642
vn -0.7005989 -0.5255439 0.4826642
vn -0.7005989 -0.5255439 0.4826642
vn -0.068003 -0.7676486 0.6372529
vn -0.068003 -0.7676486 0.6372529
vn -0.068003 -0.7676486 0.6372529
vn 0.6192619 0.3101076 0.7213515
vn 0.3068687 0.4897336 0.8160837
vn 0.6192619 0.3101076 0.7213515
vn 0.5958323 0.3725862 0.7114516
vn -0.9505134 -0.2287705 -0.2102101
vn -0.9505134 -0.2287705 -0.2102101
vn -0.880225 -0.1194329 -0.4592817
vn 0.4474456 -0.7676486 -0.4588116
vn 0.4474456 -0.7676486 -0.4588116
vn 0.4474456 -0.7676486 -0.4588116
vn 0.5177341 0.2554387 -0.8165185
vn 0.5177341 0.2320094 -0.8234823
vn 0.5177341 0.2554387 -0.8165185
vn 0.05695426 0.2788683 0.958639
vn 0.03352481 0.3491567 0.9364645
vn 0.03352481 0.3491567 0.9364645
vn -0.9427035 -0.1194329 0.3115217
vn -0.8567955 -0.07257396 0.5105237
vn -0.9739429 -0.1428624 0.1761406
vn -0.9817527 -0.158482 0.1050957
vn -0.9817527 -0.1741017 -0.07648696
vn -0.4819238 0.02895385 -0.8757346
vn -0.4819238 0.02895385 -0.8757346
vn -0.4819238 0.02895385 -0.8757346
vn -0.4819238 0.02895385 -0.8757346
vn -0.068003 -0.05695426 -0.9960581
vn -0.068003 -0.05695426 -0.9960581
vn -0.068003 -0.05695426 -0.9960581
vn 0.8223174 0.3257273 -0.466579
vn 0.8223174 0.3257273 -0.466579
vn 0.8223174 0.3257273 -0.466579
vn 0.9828334 0.1844951 0
vn 0.9842177 0.1769619 0
vn 0.9828334 0.1844951 0
vn 0.5255439 -0.0100953 -0.8507066
vn 0.5255439 0.02895385 -0.8502736
vn 0.5255439 -0.0100953 -0.8507066
vn -0.997363 -0.07257328 0
vn -0.997363 -0.07257328 0
vn -0.997363 -0.07257328 0
vn -0.7708874 -0.0881936 0.6308363
vn -0.7708874 -0.0881936 0.6308363
vn -0.7708874 -0.0881936 0.6308363
vn -0.005524337 -0.111623 0.9937353
vn -0.005524337 -0.111623 0.9937353
vn -0.02114397 -0.111623 0.9935256
vn -0.005524337 -0.111623 0.9937353
vn 0.658311 0.1929602 0.727594
vn 0.658311 0.1929602 0.727594
vn 0.4083965 0.2241995 0.8848429
vn 0.884796 0.1304815 0.4473373
vn 0.9004156 0.1304815 0.4150015
vn 0.9082254 0.1304815 0.3976194
vn 0.9082254 0.1304815 0.3976194
vn 0.8223174 -0.1662918 0.5441886
vn 0.1897213 -0.1975312 0.9617626
vn 0.1975312 -0.2365803 0.9513208
vn 0.1975312 -0.2365803 0.9513208
vn -0.7708874 0.6225007 -0.1350016
vn -0.880225 0.4194452 -0.2219677
vn -0.8880348 0.4116353 -0.2048185
vn -0.8958446 0.3960157 -0.2015786
vn -0.7005989 -0.04133463 0.7123571
vn -0.7005989 -0.04133463 0.7123571
vn -0.7005989 -0.04133463 0.7123571
vn -0.9192742 0.3803961 -0.1011627
vn -0.9727796 0.2317322 0
vn -0.9113683 0.4115919 0
vn -0.8021267 0.1226718 -0.584418
vn -0.9427035 -0.1272427 -0.3084142
vn -0.6146908 0.20077 -0.7627887
vn 0.3927768 -0.8535566 0.3422973
vn 0.3927768 -0.8535566 0.3422973
vn 0.3927768 -0.8535566 0.3422973
vn -0.7240284 0.3960157 0.5647605
vn -0.7240284 0.3960157 0.5647605
vn -0.6225007 0.5053533 0.5975876
vn -0.6693596 0.3413469 0.6598788
vn -0.6459301 0.4350649 0.6272901
vn -0.6225007 0.5053533 0.5975876
vn 0.8301272 0.3101076 -0.4633812
vn 0.8457468 0.2710585 -0.4596081
vn 0.8457468 0.2710585 -0.4596081
vn -0.9348938 0.03676361 0.3530184
vn -0.8177463 0.1695307 0.5500457
vn -0.8021267 0.2241995 0.5534685
vn -0.8021267 0.2241995 0.5534685
vn -0.8099366 0.5600221 0.1742929
vn 0.7598387 0.5522122 0.3430843
vn 0.7598387 0.5522122 0.3430843
vn 0.7598387 0.5522122 0.3430843
vn 0.9941335 -0.06476408 0.08662654
vn 0.9941335 -0.06476408 0.08662654
vn 0.9941335 -0.06476408 0.08662654
vn 0.8769861 -0.4708751 0.0957699
vn 0.8769861 -0.4708751 0.0957699
vn 0.8769861 -0.4708751 0.0957699
vn 0.8769861 -0.4708751 0.0957699
vn -0.6225007 0.5053533 0.5975876
vn -0.6849793 0.5834516 0.4363344
vn -0.6849793 0.5834516 0.4363344
g generatorShard_0
f 3/3/3 2/2/2 1/1/1
f 6/6/6 5/5/5 4/4/4
f 9/9/9 8/8/8 7/7/7
f 12/12/12 11/11/11 10/10/10
f 15/15/15 14/14/14 13/13/13
f 18/18/18 17/17/17 16/16/16
f 18/18/18 19/19/19 17/17/17
f 22/22/22 21/21/21 20/20/20
f 25/25/25 24/24/24 23/23/23
f 28/28/28 27/27/27 26/26/26
f 31/31/31 30/30/30 29/29/29
f 34/34/34 33/33/33 32/32/32
f 35/35/35 34/34/34 32/32/32
f 35/35/35 36/36/36 34/34/34
f 39/39/39 38/38/38 37/37/37
f 39/39/39 40/40/40 38/38/38
f 43/43/43 42/42/42 41/41/41
f 46/46/46 45/45/45 44/44/44
f 49/49/49 48/48/48 47/47/47
f 52/52/52 51/51/51 50/50/50
f 55/55/55 54/54/54 53/53/53
f 58/58/58 57/57/57 56/56/56
f 61/61/61 60/60/60 59/59/59
f 62/62/62 61/61/61 59/59/59
f 65/65/65 64/64/64 63/63/63
f 68/68/68 67/67/67 66/66/66
f 68/68/68 70/70/70 69/69/69
f 73/73/73 72/72/72 71/71/71
f 76/76/76 75/75/75 74/74/74
f 75/75/75 76/76/76 77/77/77
f 80/80/80 79/79/79 78/78/78
f 83/83/83 82/82/82 81/81/81
f 86/86/86 85/85/85 84/84/84
f 89/89/89 88/88/88 87/87/87
f 92/92/92 91/91/91 90/90/90
f 95/95/95 94/94/94 93/93/93
f 98/98/98 97/97/97 96/96/96
f 101/101/101 100/100/100 99/99/99
f 101/101/101 103/103/103 102/102/102
f 106/106/106 105/105/105 104/104/104
f 109/109/109 108/108/108 107/107/107
f 112/112/112 111/111/111 110/110/110
f 113/113/113 112/112/112 110/110/110
f 116/116/116 115/115/115 114/114/114
