g golemPieces04
v 0.05744258 -0.1924556 0.2695935
v -0.06780157 -0.2018779 0.2618952
v -0.06401995 -0.1481889 0.2713516
v 0.2004402 -0.03204502 -0.1714778
v 0.2101558 -0.09017231 -0.09510576
v 0.2014794 -0.09038387 0.05809562
v 0.2004402 -0.03204502 -0.1714778
v 0.1890442 -0.08952297 -0.1799232
v 0.2101558 -0.09017231 -0.09510576
v 0.2004402 -0.03204502 -0.1714778
v 0.1409062 -0.08596996 -0.2543507
v 0.1890442 -0.08952297 -0.1799232
v 0.002947477 -0.153699 -0.2488693
v 0.01004987 -0.2006971 -0.260088
v 0.1409062 -0.08596996 -0.2543507
v 0.002947477 -0.153699 -0.2488693
v -0.1141347 -0.162241 -0.2606915
v 0.01004987 -0.2006971 -0.260088
v -0.1141347 -0.162241 -0.2606915
v -0.1170583 -0.2055424 -0.2355593
v 0.01004987 -0.2006971 -0.260088
v -0.1141347 -0.162241 -0.2606915
v -0.1976794 -0.1986064 -0.1673258
v -0.1170583 -0.2055424 -0.2355593
v -0.2146337 -0.1564249 0.1081863
v -0.2016451 -0.18913 0.08247505
v -0.1976794 -0.1986064 -0.1673258
v -0.164883 -0.1867332 0.2395826
v -0.2016451 -0.18913 0.08247505
v -0.2146337 -0.1564249 0.1081863
v -0.06401995 -0.1481889 0.2713516
v -0.06780157 -0.2018779 0.2618952
v -0.164883 -0.1867332 0.2395826
v -0.06401995 -0.1481889 0.2713516
v 0.1299008 -0.135367 0.2559516
v 0.05744258 -0.1924556 0.2695935
v 0.1586867 0.03201092 0.2444028
v -0.06401995 -0.1481889 0.2713516
v -0.06268875 0.01264652 0.2727383
v -0.06268875 0.01264652 0.2727383
v -0.06401995 -0.1481889 0.2713516
v -0.165897 -0.001568565 0.2514069
v -0.06401995 -0.1481889 0.2713516
v -0.164883 -0.1867332 0.2395826
v -0.165897 -0.001568565 0.2514069
v -0.165897 -0.001568565 0.2514069
v -0.164883 -0.1867332 0.2395826
v -0.2011114 -0.009274712 0.1192954
v -0.164883 -0.1867332 0.2395826
v -0.2146337 -0.1564249 0.1081863
v -0.2011114 -0.009274712 0.1192954
v -0.2011114 -0.009274712 0.1192954
v -0.2146337 -0.1564249 0.1081863
v -0.2103949 -0.02901569 -0.1588928
v -0.1968492 0.09991642 -0.1264595
v -0.2146337 -0.1564249 0.1081863
v -0.1976794 -0.1986064 -0.1673258
v -0.2103949 -0.02901569 -0.1588928
v -0.2103949 -0.02901569 -0.1588928
v -0.1976794 -0.1986064 -0.1673258
v -0.1052303 0.09019825 -0.2727383
v -0.1976794 -0.1986064 -0.1673258
v -0.1141347 -0.162241 -0.2606915
v -0.1052303 0.09019825 -0.2727383
v -0.1052303 0.09019825 -0.2727383
v -0.1141347 -0.162241 -0.2606915
v 0.002947477 -0.153699 -0.2488693
v 0.02326253 0.1298909 -0.2648515
v 0.1401184 0.02383869 -0.2476984
v 0.002947477 -0.153699 -0.2488693
v 0.1409062 -0.08596996 -0.2543507
v 0.2146337 0.03575062 -0.1697172
v 0.1401184 0.02383869 -0.2476984
v 0.2004402 -0.03204502 -0.1714778
v 0.1401184 0.02383869 -0.2476984
v 0.1409062 -0.08596996 -0.2543507
v 0.2004402 -0.03204502 -0.1714778
v 0.2138591 0.0502203 -0.07813371
v 0.2146337 0.03575062 -0.1697172
v 0.2004402 -0.03204502 -0.1714778
v 0.2092484 0.0475571 0.05902339
v 0.2138591 0.0502203 -0.07813371
v 0.2014794 -0.09038387 0.05809562
v 0.2138591 0.0502203 -0.07813371
v 0.2004402 -0.03204502 -0.1714778
v 0.2014794 -0.09038387 0.05809562
v 0.2092484 0.0475571 0.05902339
v 0.2014794 -0.09038387 0.05809562
v 0.208016 0.1556343 0.174653
v 0.2014794 -0.09038387 0.05809562
v 0.1796692 -0.08926518 0.2078588
v 0.208016 0.1556343 0.174653
v 0.208016 0.1556343 0.174653
v 0.1796692 -0.08926518 0.2078588
v 0.1586867 0.03201092 0.2444028
v 0.1796692 -0.08926518 0.2078588
v 0.1299008 -0.135367 0.2559516
v 0.1586867 0.03201092 0.2444028
v 0.1299008 -0.135367 0.2559516
v -0.06401995 -0.1481889 0.2713516
v 0.1586867 0.03201092 0.2444028
v 0.04014776 0.1130793 0.2310767
v 0.1586867 0.03201092 0.2444028
v -0.07138005 0.1550301 0.2563762
v 0.1586867 0.03201092 0.2444028
v -0.06268875 0.01264652 0.2727383
v -0.07138005 0.1550301 0.2563762
v -0.07138005 0.1550301 0.2563762
v -0.06268875 0.01264652 0.2727383
v -0.1534287 0.121918 0.2673902
v -0.06268875 0.01264652 0.2727383
v -0.165897 -0.001568565 0.2514069
v -0.1534287 0.121918 0.2673902
v -0.1534287 0.121918 0.2673902
v -0.165897 -0.001568565 0.2514069
v -0.2038074 0.1097734 0.1500246
v -0.165897 -0.001568565 0.2514069
v -0.2011114 -0.009274712 0.1192954
v -0.2038074 0.1097734 0.1500246
v -0.2038074 0.1097734 0.1500246
v -0.2011114 -0.009274712 0.1192954
v -0.1968492 0.09991642 -0.1264595
v -0.1968492 0.09991642 -0.1264595
v -0.2103949 -0.02901569 -0.1588928
v -0.1052303 0.09019825 -0.2727383
v 0.02326253 0.1298909 -0.2648515
v 0.002947477 -0.153699 -0.2488693
v 0.1401184 0.02383869 -0.2476984
v 0.208016 0.1556343 0.174653
v 0.1586867 0.03201092 0.2444028
v 0.1510294 0.145326 0.2210168
v 0.1510294 0.145326 0.2210168
v 0.1586867 0.03201092 0.2444028
v 0.04014776 0.1130793 0.2310767
v 0.01004987 -0.2006971 -0.260088
v -0.1170583 -0.2055424 -0.2355593
v 0.009523652 -0.1991694 0.004802041
v -0.1534287 0.121918 0.2673902
v -0.2038074 0.1097734 0.1500246
v -0.04750225 0.2055424 0.008359466
v 0.1299008 -0.135367 0.2559516
v 0.009523652 -0.1991694 0.004802041
v 0.05744258 -0.1924556 0.2695935
v 0.009523652 -0.1991694 0.004802041
v -0.06780157 -0.2018779 0.2618952
v 0.05744258 -0.1924556 0.2695935
v 0.009523652 -0.1991694 0.004802041
v -0.164883 -0.1867332 0.2395826
v -0.06780157 -0.2018779 0.2618952
v 0.009523652 -0.1991694 0.004802041
v -0.2016451 -0.18913 0.08247505
v -0.164883 -0.1867332 0.2395826
v -0.1976794 -0.1986064 -0.1673258
v -0.1170583 -0.2055424 -0.2355593
v 0.1409062 -0.08596996 -0.2543507
v 0.01004987 -0.2006971 -0.260088
v 0.009523652 -0.1991694 0.004802041
v 0.1890442 -0.08952297 -0.1799232
v 0.1409062 -0.08596996 -0.2543507
v 0.009523652 -0.1991694 0.004802041
v 0.2101558 -0.09017231 -0.09510576
v 0.1890442 -0.08952297 -0.1799232
v 0.009523652 -0.1991694 0.004802041
v 0.2014794 -0.09038387 0.05809562
v 0.2101558 -0.09017231 -0.09510576
v 0.009523652 -0.1991694 0.004802041
v 0.1796692 -0.08926518 0.2078588
v 0.2014794 -0.09038387 0.05809562
v 0.009523652 -0.1991694 0.004802041
v 0.1299008 -0.135367 0.2559516
v 0.1796692 -0.08926518 0.2078588
v 0.009523652 -0.1991694 0.004802041
v 0.1401184 0.02383869 -0.2476984
v 0.2146337 0.03575062 -0.1697172
v 0.1619742 0.1242778 -0.0671178
v 0.208016 0.1556343 0.174653
v -0.04750225 0.2055424 0.008359466
v 0.02326253 0.1298909 -0.2648515
v -0.04750225 0.2055424 0.008359466
v -0.1052303 0.09019825 -0.2727383
v 0.02326253 0.1298909 -0.2648515
v -0.04750225 0.2055424 0.008359466
v -0.1968492 0.09991642 -0.1264595
v -0.1052303 0.09019825 -0.2727383
v -0.04750225 0.2055424 0.008359466
v -0.2038074 0.1097734 0.1500246
v -0.1968492 0.09991642 -0.1264595
v -0.07138005 0.1550301 0.2563762
v -0.1534287 0.121918 0.2673902
v -0.04750225 0.2055424 0.008359466
v 0.04014776 0.1130793 0.2310767
v -0.07138005 0.1550301 0.2563762
v -0.04750225 0.2055424 0.008359466
v 0.1510294 0.145326 0.2210168
v 0.04014776 0.1130793 0.2310767
v -0.04750225 0.2055424 0.008359466
v 0.208016 0.1556343 0.174653
v 0.1510294 0.145326 0.2210168
v -0.04750225 0.2055424 0.008359466
v 0.208016 0.1556343 0.174653
v 0.1619742 0.1242778 -0.0671178
v 0.2092484 0.0475571 0.05902339
v 0.1619742 0.1242778 -0.0671178
v 0.2138591 0.0502203 -0.07813371
v 0.2092484 0.0475571 0.05902339
v 0.1619742 0.1242778 -0.0671178
v 0.2146337 0.03575062 -0.1697172
v 0.2138591 0.0502203 -0.07813371
v 0.02326253 0.1298909 -0.2648515
v 0.1401184 0.02383869 -0.2476984
v 0.1619742 0.1242778 -0.0671178
v 0.208016 0.1556343 0.174653
v 0.02326253 0.1298909 -0.2648515
v 0.1619742 0.1242778 -0.0671178
vt 0.1388452 0.7831572
vt 0.0946092 0.7831067
vt 0.09341742 0.8000498
vt 0.1633221 0.8068115
vt 0.1697744 0.7879366
vt 0.1704136 0.785925
vt 0.1633221 0.8068115
vt 0.1631624 0.7889963
vt 0.1697744 0.7879366
vt 0.1633221 0.8068115
vt 0.1494184 0.78984
vt 0.1631624 0.7889963
vt 0.1122284 0.8047171
vt 0.1103464 0.7898538
vt 0.1494184 0.78984
vt 0.1122284 0.8047171
vt 0.07722405 0.8029511
vt 0.1103464 0.7898538
vt 0.07722405 0.8029511
vt 0.07720017 0.7897009
vt 0.1103464 0.7898538
vt 0.07722405 0.8029511
vt 0.05473214 0.7887964
vt 0.07720017 0.7897009
vt 0.05268504 0.8006412
vt 0.05326247 0.7856044
vt 0.05473214 0.7887964
vt 0.06141287 0.7835516
vt 0.05326247 0.7856044
vt 0.05268504 0.8006412
vt 0.09341742 0.8000498
vt 0.0946092 0.7831067
vt 0.06141287 0.7835516
vt 0.09341742 0.8000498
vt 0.152186 0.7831724
vt 0.1388452 0.7831572
vt 0.154055 0.8601462
vt 0.09341742 0.8000498
vt 0.08994995 0.8493453
vt 0.08994995 0.8493453
vt 0.09341742 0.8000498
vt 0.06059127 0.8460828
vt 0.09341742 0.8000498
vt 0.06141287 0.7835516
vt 0.06059127 0.8460828
vt 0.06059127 0.8460828
vt 0.06141287 0.7835516
vt 0.051005 0.8443906
vt 0.06141287 0.7835516
vt 0.05268504 0.8006412
vt 0.051005 0.8443906
vt 0.051005 0.8443906
vt 0.05268504 0.8006412
vt 0.05423016 0.8401614
vt 0.05387932 0.8760612
vt 0.05268504 0.8006412
vt 0.05473214 0.7887964
vt 0.05423016 0.8401614
vt 0.05423016 0.8401614
vt 0.05473214 0.7887964
vt 0.07735878 0.8777072
vt 0.05473214 0.7887964
vt 0.07722405 0.8029511
vt 0.07735878 0.8777072
vt 0.07735878 0.8777072
vt 0.07722405 0.8029511
vt 0.1122284 0.8047171
vt 0.1228464 0.8885738
vt 0.1486125 0.8542098
vt 0.1122284 0.8047171
vt 0.1494184 0.78984
vt 0.1637867 0.8586444
vt 0.1486125 0.8542098
vt 0.1633221 0.8068115
vt 0.1486125 0.8542098
vt 0.1494184 0.78984
vt 0.1633221 0.8068115
vt 0.1710099 0.8620406
vt 0.1637867 0.8586444
vt 0.1633221 0.8068115
vt 0.1720754 0.8623801
vt 0.1710099 0.8620406
vt 0.1704136 0.785925
vt 0.1710099 0.8620406
vt 0.1633221 0.8068115
vt 0.1704136 0.785925
vt 0.1720754 0.8623801
vt 0.1704136 0.785925
vt 0.1655217 0.9164921
vt 0.1704136 0.785925
vt 0.1682715 0.7838556
vt 0.1655217 0.9164921
vt 0.1655217 0.9164921
vt 0.1682715 0.7838556
vt 0.154055 0.8601462
vt 0.1682715 0.7838556
vt 0.152186 0.7831724
vt 0.154055 0.8601462
vt 0.152186 0.7831724
vt 0.09341742 0.8000498
vt 0.154055 0.8601462
vt 0.133001 0.907984
vt 0.154055 0.8601462
vt 0.08669353 0.8956404
vt 0.154055 0.8601462
vt 0.08994995 0.8493453
vt 0.08669353 0.8956404
vt 0.08669353 0.8956404
vt 0.08994995 0.8493453
vt 0.06001705 0.8897868
vt 0.08994995 0.8493453
vt 0.06059127 0.8460828
vt 0.06001705 0.8897868
vt 0.06001705 0.8897868
vt 0.06059127 0.8460828
vt 0.04942721 0.8854771
vt 0.06059127 0.8460828
vt 0.051005 0.8443906
vt 0.04942721 0.8854771
vt 0.04942721 0.8854771
vt 0.051005 0.8443906
vt 0.05387932 0.8760612
vt 0.05387932 0.8760612
vt 0.05423016 0.8401614
vt 0.07735878 0.8777072
vt 0.1228464 0.8885738
vt 0.1122284 0.8047171
vt 0.1486125 0.8542098
vt 0.1655217 0.9164921
vt 0.154055 0.8601462
vt 0.1553613 0.9139443
vt 0.1553613 0.9139443
vt 0.154055 0.8601462
vt 0.133001 0.907984
vt 0.1103464 0.7898538
vt 0.07720017 0.7897009
vt 0.1146931 0.7864367
vt 0.06001705 0.8897868
vt 0.04942721 0.8854771
vt 0.1074744 0.9009846
vt 0.152186 0.7831724
vt 0.1146931 0.7864367
vt 0.1388452 0.7831572
vt 0.1146931 0.7864367
vt 0.0946092 0.7831067
vt 0.1388452 0.7831572
vt 0.1146931 0.7864367
vt 0.06141287 0.7835516
vt 0.0946092 0.7831067
vt 0.1146931 0.7864367
vt 0.05326247 0.7856044
vt 0.06141287 0.7835516
vt 0.05473214 0.7887964
vt 0.07720017 0.7897009
vt 0.1494184 0.78984
vt 0.1103464 0.7898538
vt 0.1146931 0.7864367
vt 0.1631624 0.7889963
vt 0.1494184 0.78984
vt 0.1146931 0.7864367
vt 0.1697744 0.7879366
vt 0.1631624 0.7889963
vt 0.1146931 0.7864367
vt 0.1704136 0.785925
vt 0.1697744 0.7879366
vt 0.1146931 0.7864367
vt 0.1682715 0.7838556
vt 0.1704136 0.785925
vt 0.1146931 0.7864367
vt 0.152186 0.7831724
vt 0.1682715 0.7838556
vt 0.1146931 0.7864367
vt 0.1486125 0.8542098
vt 0.1637867 0.8586444
vt 0.1646542 0.8875682
vt 0.1655217 0.9164921
vt 0.1074744 0.9009846
vt 0.1228464 0.8885738
vt 0.1074744 0.9009846
vt 0.07735878 0.8777072
vt 0.1228464 0.8885738
vt 0.1074744 0.9009846
vt 0.05387932 0.8760612
vt 0.07735878 0.8777072
vt 0.1074744 0.9009846
vt 0.04942721 0.8854771
vt 0.05387932 0.8760612
vt 0.08669353 0.8956404
vt 0.06001705 0.8897868
vt 0.1074744 0.9009846
vt 0.133001 0.907984
vt 0.08669353 0.8956404
vt 0.1074744 0.9009846
vt 0.1553613 0.9139443
vt 0.133001 0.907984
vt 0.1074744 0.9009846
vt 0.1655217 0.9164921
vt 0.1553613 0.9139443
vt 0.1074744 0.9009846
vt 0.1655217 0.9164921
vt 0.1646542 0.8875682
vt 0.1720754 0.8623801
vt 0.1646542 0.8875682
vt 0.1710099 0.8620406
vt 0.1720754 0.8623801
vt 0.1646542 0.8875682
vt 0.1637867 0.8586444
vt 0.1710099 0.8620406
vt 0.1228464 0.8885738
vt 0.1486125 0.8542098
vt 0.1646542 0.8875682
vt 0.1655217 0.9164921
vt 0.1228464 0.8885738
vt 0.1646542 0.8875682
vn -0.04771103 -0.170005 0.9842875
vn -0.04771103 -0.170005 0.9842875
vn -0.04771103 -0.170005 0.9842875
vn 0.9704593 0.2348449 0.05528484
vn 0.9704593 0.2348449 0.05528484
vn 0.9704593 0.2348449 0.05528485
vn 0.9584166 -0.1547957 -0.2397411
vn 0.9584166 -0.1547957 -0.2397411
vn 0.9584166 -0.1547957 -0.2397411
vn 0.8347294 -0.08557402 -0.5439706
vn 0.8347294 -0.08557401 -0.5439705
vn 0.8347294 -0.08557401 -0.5439706
vn -0.1413385 0.2095927 -0.9675196
vn -0.1413386 0.2095927 -0.9675196
vn -0.1413386 0.2095927 -0.9675196
vn 0.0799002 0.2428462 -0.9667686
vn 0.07990021 0.2428462 -0.9667686
vn 0.07990021 0.2428462 -0.9667686
vn -0.1472654 -0.4890491 -0.8597348
vn -0.1472653 -0.489049 -0.8597348
vn -0.1472654 -0.4890491 -0.8597348
vn -0.6201532 -0.3620525 -0.6959367
vn -0.6201532 -0.3620525 -0.6959367
vn -0.6201532 -0.3620525 -0.6959367
vn -0.9295982 -0.3685736 -0.000775612
vn -0.9295982 -0.3685736 -0.000775612
vn -0.9295982 -0.3685737 -0.0007756121
vn -0.8436629 -0.496201 0.2049817
vn -0.8436629 -0.4962011 0.2049817
vn -0.8436629 -0.4962011 0.2049817
vn -0.2438011 -0.1515473 0.9579115
vn -0.2438011 -0.1515473 0.9579115
vn -0.2438011 -0.1515473 0.9579115
vn 0.06850389 0.1487857 0.9864938
vn 0.06850388 0.1487857 0.9864938
vn 0.0685039 0.1487858 0.9864938
vn 0.1277832 -0.009608304 0.9917556
vn 0.1277831 -0.009608304 0.9917556
vn 0.1277832 -0.009608303 0.9917556
vn -0.2015059 -0.006776841 0.9794638
vn -0.2015059 -0.00677684 0.9794638
vn -0.2015059 -0.00677684 0.9794638
vn -0.2779415 -0.06273308 0.9585473
vn -0.2779415 -0.06273308 0.9585473
vn -0.2779416 -0.06273308 0.9585473
vn -0.9657158 -0.02180712 0.2586842
vn -0.9657158 -0.02180712 0.2586842
vn -0.9657158 -0.02180712 0.2586842
vn -0.9291545 0.05781777 0.3651427
vn -0.9291545 0.05781778 0.3651427
vn -0.9291543 0.05781776 0.3651427
vn -0.9956274 0.08946364 0.02687668
vn -0.9956274 0.08946365 0.02687669
vn -0.9956274 0.08946363 0.02687668
vn -0.9948484 0.0979161 0.02625089
vn -0.9961246 -0.07218815 -0.05024667
vn -0.9961246 -0.07218815 -0.05024667
vn -0.9961246 -0.07218814 -0.05024667
vn -0.7238936 -0.01998385 -0.6896221
vn -0.7238936 -0.01998385 -0.689622
vn -0.7238936 -0.01998385 -0.6896221
vn -0.7441105 -0.005632228 -0.6680328
vn -0.7441105 -0.005632228 -0.6680328
vn -0.7441105 -0.005632228 -0.6680327
vn 0.104019 -0.05106919 -0.9932633
vn 0.104019 -0.05106919 -0.9932633
vn 0.104019 -0.05106919 -0.9932633
vn 0.08015747 -0.06180926 -0.994864
vn -0.06894052 0.05983352 -0.9958249
vn -0.06894052 0.05983352 -0.9958249
vn -0.06894051 0.05983351 -0.9958249
vn 0.7266004 -0.1346217 -0.6737425
vn 0.7266004 -0.1346217 -0.6737425
vn 0.7266005 -0.1346216 -0.6737424
vn 0.7982476 0.04212737 -0.6008545
vn 0.7982476 0.04212738 -0.6008544
vn 0.7982476 0.04212738 -0.6008545
vn 0.9777527 -0.2057589 0.04077851
vn 0.9777527 -0.205759 0.04077852
vn 0.9777527 -0.205759 0.04077851
vn 0.9978796 -0.05641989 0.03244922
vn 0.9978796 -0.05641988 0.03244922
vn 0.9978796 -0.05641988 0.03244922
vn 0.9919432 -0.1216364 -0.03540013
vn 0.9919432 -0.1216364 -0.03540014
vn 0.9919432 -0.1216364 -0.03540014
vn 0.9963805 -0.05654459 0.0634705
vn 0.9963805 -0.05654459 0.06347049
vn 0.9963805 -0.05654459 0.06347049
vn 0.9850349 -0.09447027 0.1441579
vn 0.9850349 -0.09447028 0.1441579
vn 0.9850349 -0.09447027 0.1441579
vn 0.8340628 -0.02179938 0.5512387
vn 0.8340628 -0.02179938 0.5512387
vn 0.8340628 -0.02179938 0.5512387
vn 0.7294281 -0.07856099 0.6795313
vn 0.7294281 -0.07856099 0.6795313
vn 0.7294281 -0.07856099 0.6795313
vn 0.07537883 0.05573072 0.9955963
vn 0.07537883 0.05573071 0.9955963
vn 0.07537883 0.05573072 0.9955963
vn 0.395811 0.6801836 0.6169958
vn 0.395811 0.6801836 0.6169958
vn 0.395811 0.6801836 0.6169958
vn 0.115673 0.1203639 0.9859677
vn 0.115673 0.1203639 0.9859677
vn 0.115673 0.1203639 0.9859677
vn 0.08482876 0.1188622 0.9892805
vn 0.08482875 0.1188622 0.9892805
vn 0.08482875 0.1188622 0.9892805
vn -0.1870102 -0.1075044 0.9764579
vn -0.1870102 -0.1075044 0.9764579
vn -0.1870102 -0.1075045 0.9764579
vn -0.9196771 0.04232882 0.3903873
vn -0.9196771 0.04232882 0.3903873
vn -0.9196771 0.04232882 0.3903873
vn -0.9611003 -0.08923626 0.261387
vn -0.9611003 -0.08923627 0.261387
vn -0.9611003 -0.08923626 0.261387
vn -0.9995652 -0.01629357 -0.02457527
vn -0.9995652 -0.01629357 -0.02457527
vn -0.9995652 -0.01629357 -0.02457527
vn -0.8202893 0.2190828 -0.528326
vn -0.8202893 0.2190828 -0.528326
vn -0.8202893 0.2190828 -0.528326
vn 0.08926962 -0.06241607 -0.9940499
vn 0.08926962 -0.06241607 -0.9940499
vn 0.08926962 -0.06241608 -0.9940499
vn 0.5961561 0.2007193 0.7773736
vn 0.5961561 0.2007193 0.7773736
vn 0.5961561 0.2007193 0.7773736
vn 0.02946895 0.203942 0.9785392
vn 0.02946895 0.203942 0.9785392
vn 0.02946895 0.203942 0.9785392
vn 0.03921651 -0.9992137 0.005840543
vn 0.03921651 -0.9992137 0.005840542
vn 0.0392165 -0.9992137 0.005840542
vn -0.4509909 0.8867002 0.1018339
vn -0.4509909 0.8867002 0.1018339
vn -0.4509909 0.8867002 0.1018339
vn 0.6059204 -0.7904621 -0.08961095
vn 0.6059206 -0.790462 -0.08961093
vn 0.6059204 -0.7904621 -0.08961095
vn 0.07428999 -0.9971663 0.01183924
vn 0.07428999 -0.9971663 0.01183924
vn 0.07428999 -0.9971663 0.01183924
vn -0.1419879 -0.988442 -0.05311954
vn -0.1419879 -0.988442 -0.05311954
vn -0.1419879 -0.988442 -0.05311954
vn -0.03856754 -0.9989613 0.02426441
vn -0.03856754 -0.9989613 0.02426441
vn -0.03856754 -0.9989613 0.02426441
vn -0.03374256 -0.9987324 0.03735154
vn -0.0438894 -0.9978058 0.04957081
vn 0.6590953 -0.7520381 0.005646504
vn 0.6590953 -0.7520382 0.005646504
vn 0.6590953 -0.7520381 0.005646504
vn 0.3098612 -0.9188664 -0.2442756
vn 0.3098612 -0.9188664 -0.2442756
vn 0.3098612 -0.9188664 -0.2442756
vn 0.4298923 -0.8956722 -0.1138595
vn 0.4298923 -0.8956722 -0.1138594
vn 0.4298923 -0.8956722 -0.1138594
vn 0.4873207 -0.8728241 0.02639386
vn 0.4873207 -0.8728241 0.02639386
vn 0.4873207 -0.8728241 0.02639386
vn 0.4756158 -0.8763802 0.07581072
vn 0.4756158 -0.8763802 0.07581071
vn 0.4756158 -0.8763803 0.07581073
vn 0.6219272 -0.7765583 -0.1008153
vn 0.6219272 -0.7765583 -0.1008153
vn 0.6219273 -0.7765583 -0.1008153
vn 0.38082 0.7877212 -0.4842227
vn 0.38082 0.7877211 -0.4842227
vn 0.3808201 0.7877211 -0.4842227
vn 0.3008772 0.9362671 -0.1813193
vn 0.3008773 0.9362671 -0.1813193
vn 0.3008773 0.9362671 -0.1813194
vn -0.2616562 0.9105991 -0.3199145
vn -0.2616562 0.9105992 -0.3199145
vn -0.2616562 0.9105992 -0.3199145
vn -0.3659249 0.8849658 -0.2879834
vn -0.365925 0.8849657 -0.2879834
vn -0.365925 0.8849657 -0.2879834
vn -0.5503616 0.8337885 -0.04357689
vn -0.5503616 0.8337885 -0.04357689
vn -0.5503616 0.8337885 -0.04357689
vn -0.3519018 0.9232557 0.1541559
vn -0.3519018 0.9232557 0.1541559
vn -0.3519018 0.9232557 0.1541559
vn 0.3867237 0.8956564 0.2196458
vn 0.3867237 0.8956564 0.2196458
vn 0.3867237 0.8956564 0.2196458
vn -0.2126487 0.8699833 0.4448705
vn -0.2126487 0.8699831 0.4448705
vn -0.2126487 0.8699831 0.4448705
vn 0.0272314 0.9681901 0.2487295
vn 0.0272314 0.9681902 0.2487295
vn 0.0272314 0.9681901 0.2487295
vn 0.9482785 0.236889 -0.2113094
vn 0.9482785 0.2368889 -0.2113094
vn 0.9482785 0.236889 -0.2113094
vn 0.8210811 0.5695009 0.03865989
vn 0.8210811 0.5695009 0.03865989
vn 0.8210811 0.5695009 0.03865989
vn 0.8100768 0.5801576 -0.0848105
vn 0.8100768 0.5801575 -0.08481052
vn 0.8100768 0.5801576 -0.08481052
vn 0.6402709 0.6357675 -0.4311068
vn 0.6402708 0.6357675 -0.4311067
vn 0.6402709 0.6357675 -0.4311067
vn 0.290819 0.9402027 -0.1773224
vn 0.290819 0.9402027 -0.1773224
vn 0.290819 0.9402027 -0.1773224
g golemPieces04_0
f 3/3/3 2/2/2 1/1/1
f 6/6/6 5/5/5 4/4/4
f 9/9/9 8/8/8 7/7/7
f 12/12/12 11/11/11 10/10/10
f 15/15/15 14/14/14 13/13/13
f 18/18/18 17/17/17 16/16/16
f 21/21/21 20/20/20 19/19/19
f 24/24/24 23/23/23 22/22/22
f 27/27/27 26/26/26 25/25/25
f 30/30/30 29/29/29 28/28/28
f 33/33/33 32/32/32 31/31/31
f 36/36/36 35/35/35 34/34/34
f 39/39/39 38/38/38 37/37/37
f 42/42/42 41/41/41 40/40/40
f 45/45/45 44/44/44 43/43/43
f 48/48/48 47/47/47 46/46/46
f 51/51/51 50/50/50 49/49/49
f 54/54/54 53/53/53 52/52/52
f 55/55/55 54/54/54 52/52/52
f 58/58/58 57/57/57 56/56/56
f 61/61/61 60/60/60 59/59/59
f 64/64/64 63/63/63 62/62/62
f 67/67/67 66/66/66 65/65/65
f 67/67/67 65/65/65 68/68/68
f 71/71/71 70/70/70 69/69/69
f 74/74/74 73/73/73 72/72/72
f 77/77/77 76/76/76 75/75/75
f 80/80/80 79/79/79 78/78/78
f 83/83/83 82/82/82 81/81/81
f 86/86/86 85/85/85 84/84/84
f 89/89/89 88/88/88 87/87/87
f 92/92/92 91/91/91 90/90/90
f 95/95/95 94/94/94 93/93/93
f 98/98/98 97/97/97 96/96/96
f 101/101/101 100/100/100 99/99/99
f 104/104/104 103/103/103 102/102/102
f 107/107/107 106/106/106 105/105/105
f 110/110/110 109/109/109 108/108/108
f 113/113/113 112/112/112 111/111/111
f 116/116/116 115/115/115 114/114/114
f 119/119/119 118/118/118 117/117/117
f 122/122/122 121/121/121 120/120/120
f 125/125/125 124/124/124 123/123/123
f 128/128/128 127/127/127 126/126/126
f 131/131/131 130/130/130 129/129/129
f 134/134/134 133/133/133 132/132/132
f 137/137/137 136/136/136 135/135/135
f 140/140/140 139/139/139 138/138/138
f 143/143/143 142/142/142 141/141/141
f 146/146/146 145/145/145 144/144/144
f 149/149/149 148/148/148 147/147/147
f 152/152/152 151/151/151 150/150/150
f 151/151/151 153/153/153 150/150/150
f 153/153/153 154/154/154 150/150/150
f 157/157/157 156/156/156 155/155/155
f 160/160/160 159/159/159 158/158/158
f 163/163/163 162/162/162 161/161/161
f 166/166/166 165/165/165 164/164/164
f 169/169/169 168/168/168 167/167/167
f 172/172/172 171/171/171 170/170/170
f 175/175/175 174/174/174 173/173/173
f 178/178/178 177/177/177 176/176/176
f 181/181/181 180/180/180 179/179/179
f 184/184/184 183/183/183 182/182/182
f 187/187/187 186/186/186 185/185/185
f 190/190/190 189/189/189 188/188/188
f 193/193/193 192/192/192 191/191/191
f 196/196/196 195/195/195 194/194/194
f 199/199/199 198/198/198 197/197/197
f 202/202/202 201/201/201 200/200/200
f 205/205/205 204/204/204 203/203/203
f 208/208/208 207/207/207 206/206/206
f 211/211/211 210/210/210 209/209/209
f 214/214/214 213/213/213 212/212/212
