g harazuelPortalDioMain2
v 8.392334E-05 -0.0008735657 -34.00015
v 8.728325 -8.392334E-05 -36.06306
v 8.970184 -8.392334E-05 -33.99462
v 8.016186 -8.392334E-05 -38.02006
v 6.871704 -8.392334E-05 -39.7597
v 5.356533 -8.392334E-05 -41.18951
v 3.552872 -8.392334E-05 -42.23045
v 1.557934 -8.392334E-05 -42.82798
v -1.55777 -8.392334E-05 -42.82798
v -3.552708 -8.392334E-05 -42.23045
v -5.356369 -8.392334E-05 -41.18951
v -6.87154 -8.392334E-05 -39.7597
v -8.016022 -8.392334E-05 -38.02006
v -8.728161 -8.392334E-05 -36.06306
v -8.970016 -8.392334E-05 -33.99462
v 8.728325 -8.392334E-05 -31.92539
v 8.016186 -8.392334E-05 -29.96839
v 6.871704 -8.392334E-05 -28.22875
v 5.356533 -8.392334E-05 -26.79894
v -8.728161 -8.392334E-05 -31.92539
v -8.016022 -8.392334E-05 -29.96839
v -6.87154 -8.392334E-05 -28.22875
v -5.356369 -8.392334E-05 -26.79894
v -3.552708 -8.392334E-05 -25.758
v 3.552872 -8.392334E-05 -25.758
v -1.84547 -8.392334E-05 -26.10024
v -2.55761 -8.392334E-05 -26.35237
v -0.4725685 -8.392334E-05 -26.16742
v -0.5112991 -8.392334E-05 -25.57226
v -1.766434 -8.392334E-05 -25.57226
v 0.469574 -8.392334E-05 -26.16742
v 0.5114632 -8.392334E-05 -25.57226
v 1.737354 -8.392334E-05 -25.57226
v 1.896221 -8.392334E-05 -26.10577
v -1.751415 -8.392334E-05 -24.93679
v 8.392334E-05 -8.392334E-05 -24.93679
v 1.751579 -8.392334E-05 -24.93679
v 2.603615 -8.392334E-05 -26.36185
v -2.55761 -8.392334E-05 -26.35237
v -3.552708 -8.392334E-05 -25.758
v 8.392334E-05 -0.0008735657 -34.00015
v 3.552872 -8.392334E-05 -25.758
v 2.603615 -8.392334E-05 -26.36185
v 8.392334E-05 -0.0008735657 -34.00015
vt 0.9821498 0.5461826
vt 2.950659 1.012656
vt 3.005016 0.5461826
vt 2.789805 1.453616
vt 2.531886 1.846319
vt 2.190212 2.16858
vt 1.783087 2.403758
vt 1.333253 2.537987
vt 0.6304917 2.537987
vt 0.1806577 2.403758
vt -0.2259122 2.16858
vt -0.5675863 1.846319
vt -0.8260606 1.453616
vt -0.986359 1.012656
vt -1.041271 0.5461826
vt 2.950659 0.0791539
vt 2.789805 -0.3618053
vt 2.531886 -0.7545087
vt 2.190212 -1.076769
vt -0.986359 0.0791539
vt -0.8260606 -0.3618053
vt -0.5675863 -0.7545087
vt -0.2259122 -1.076769
vt 0.1806577 -1.311393
vt 1.783087 -1.311393
vt 0.5578306 -1.270903
vt 0.3936495 -1.212663
vt 0.8734353 -1.255372
vt 0.8645606 -1.39182
vt 0.5755799 -1.39182
vt 1.089755 -1.255372
vt 1.099739 -1.39182
vt 1.381509 -1.39182
vt 1.418117 -1.269793
vt 0.5789077 -1.538251
vt 0.9821498 -1.538251
vt 1.384837 -1.538251
vt 1.580634 -1.210444
vt 0.3936495 -1.212663
vt 0.1806577 -1.311393
vt 0.9821498 0.5461826
vt 1.783087 -1.311393
vt 1.580634 -1.210444
vt 0.9821498 0.5461826
vn 0.0001168846 0.9999999 0.000345267
vn 0.0001168846 0.9999999 0.000345267
vn 0.0001168846 0.9999999 0.000345267
vn 0.0001168846 0.9999999 0.000345267
vn 0.0001168846 0.9999999 0.000345267
vn 0.0001168846 0.9999999 0.000345267
vn 0.0001168846 0.9999999 0.000345267
vn 0.0001168846 0.9999999 0.000345267
vn 0.0001168846 0.9999999 0.000345267
vn 0.0001168846 0.9999999 0.000345267
vn 0.0001168846 0.9999999 0.000345267
vn 0.0001168846 0.9999999 0.000345267
vn 0.0001168846 0.9999999 0.000345267
vn 0.0001168846 0.9999999 0.000345267
vn 0.0001168846 0.9999999 -0.000345267
vn 0.0001168846 0.9999999 -0.000345267
vn 0.0001168846 0.9999999 -0.000345267
vn 0.0001168846 0.9999999 -0.000345267
vn 0.0001168846 0.9999999 -0.000345267
vn 0.0001168846 0.9999999 -0.000345267
vn 0.0001168846 0.9999999 -0.000345267
vn 0.0001168846 0.9999999 -0.000345267
vn 0.0001168846 0.9999999 -0.000345267
vn 0.0001168846 0.9999999 -0.000345267
vn 0.0001168846 0.9999999 -0.000345267
vn 0.0001168846 0.9999999 -0.000345267
vn 0.0001168846 0.9999999 -0.000345267
vn 0.0001168846 0.9999999 -0.000345267
vn 0.0001168846 0.9999999 -0.000345267
vn 0.0001168846 0.9999999 -0.000345267
vn 0.0001168846 0.9999999 -0.000345267
vn 0.0001168846 0.9999999 -0.000345267
vn 0.0001168846 0.9999999 -0.000345267
vn 0.0001168846 0.9999999 -0.000345267
vn 0.0001168846 0.9999999 0.000345267
vn 0.0001168846 0.9999999 0.000345267
vn 0.0001168846 0.9999999 0.000345267
vn 0.0001168846 0.9999999 -0.000345267
vn 0.0001168846 0.9999999 -0.000345267
vn 0.0001168846 0.9999999 -0.000345267
vn 0.0001168846 0.9999999 -0.000345267
vn 0.0001168846 0.9999999 -0.000345267
vn 0.0001168846 0.9999999 -0.000345267
vn 0.0001168846 0.9999999 -0.000345267
g harazuelPortalDioMain2_0
f 3/3/3 2/2/2 1/1/1
f 2/2/2 4/4/4 1/1/1
f 4/4/4 5/5/5 1/1/1
f 5/5/5 6/6/6 1/1/1
f 6/6/6 7/7/7 1/1/1
f 7/7/7 8/8/8 1/1/1
f 8/8/8 9/9/9 1/1/1
f 9/9/9 10/10/10 1/1/1
f 10/10/10 11/11/11 1/1/1
f 11/11/11 12/12/12 1/1/1
f 12/12/12 13/13/13 1/1/1
f 13/13/13 14/14/14 1/1/1
f 14/14/14 15/15/15 1/1/1
f 16/16/16 3/3/3 1/1/1
f 17/17/17 16/16/16 1/1/1
f 18/18/18 17/17/17 1/1/1
f 19/19/19 18/18/18 1/1/1
f 15/15/15 20/20/20 1/1/1
f 20/20/20 21/21/21 1/1/1
f 21/21/21 22/22/22 1/1/1
f 22/22/22 23/23/23 1/1/1
f 23/23/23 24/24/24 1/1/1
f 25/25/25 19/19/19 1/1/1
f 27/27/27 26/26/26 1/1/1
f 1/1/1 26/26/26 28/28/28
f 29/29/29 28/28/28 26/26/26
f 30/30/30 29/29/29 26/26/26
f 31/31/31 28/28/28 29/29/29
f 1/1/1 28/28/28 31/31/31
f 32/32/32 31/31/31 29/29/29
f 32/32/32 33/33/33 31/31/31
f 33/33/33 34/34/34 31/31/31
f 29/29/29 30/30/30 35/35/35
f 36/36/36 29/29/29 35/35/35
f 29/29/29 36/36/36 32/32/32
f 37/37/37 33/33/33 32/32/32
f 36/36/36 37/37/37 32/32/32
f 31/31/31 34/34/34 1/1/1
f 1/1/1 34/34/34 38/38/38
f 41/41/41 40/40/40 39/39/39
f 44/44/44 43/43/43 42/42/42
