g harazuelDio_basefloor
v 17.24237 -21.7848 -7.14232
v 0.0002822876 -21.7848 -0.0002822876
v 13.19698 -21.7848 -13.19698
v 7.14232 -21.7848 -17.24237
v 0.0002822876 -21.7848 -18.66324
v -7.141754 -21.7848 -17.24237
v -13.19705 -21.7848 -13.19698
v -17.24244 -21.7848 -7.14232
v -18.66331 -21.7848 -0.0002822876
v -17.24244 -21.7848 7.141754
v -13.19705 -21.7848 13.19705
v -7.141754 -21.7848 17.24244
v 0.0002822876 -21.7848 18.66331
v 7.14232 -21.7848 17.24244
v 13.19698 -21.7848 13.19705
v 17.24237 -21.7848 7.141754
v 18.66324 -21.7848 -0.0002822876
v 17.24237 20.08418 7.141754
v 0.0002822876 20.08418 -0.0002822876
v 13.19698 20.08418 13.19705
v 7.14232 20.08418 17.24244
v 0.0002822876 20.08418 18.66331
v -7.141754 20.08418 17.24244
v -13.19705 20.08418 13.19705
v -17.24244 20.08418 7.141754
v -18.66331 20.08418 -0.0002822876
v -17.24244 20.08418 -7.14232
v -13.19705 20.08418 -13.19698
v -7.141754 20.08418 -17.24237
v 0.0002822876 20.08418 -18.66324
v 7.14232 20.08418 -17.24237
v 13.19698 20.08418 -13.19698
v 17.24237 20.08418 -7.14232
v 18.66324 20.08418 -0.0002822876
vt 0.191333 0.6032586
vt 0.1517143 0.6032586
vt 0.224439 0.6032586
vt 0.2472333 0.6032586
vt 0.2548314 0.6032586
vt 0.2472333 0.6032586
vt 0.224439 0.6032586
vt 0.191333 0.6032586
vt 0.1517143 0.6032586
vt 0.1120957 0.6032586
vt 0.07844692 0.6032586
vt 0.05619534 0.6032586
vt 0.04805452 0.6032586
vt 0.05619534 0.6032586
vt 0.07844692 0.6032586
vt 0.1120957 0.6032586
vt 0.1517143 0.6032586
vt 0.191333 0.6032586
vt 0.1517143 0.6032586
vt 0.224439 0.6032586
vt 0.2472333 0.6032586
vt 0.2548314 0.6032586
vt 0.2472333 0.6032586
vt 0.224439 0.6032586
vt 0.191333 0.6032586
vt 0.1517143 0.6032586
vt 0.1120957 0.6032586
vt 0.07844692 0.6032586
vt 0.05619534 0.6032586
vt 0.04805452 0.6032586
vt 0.05619534 0.6032586
vt 0.07844692 0.6032586
vt 0.1120957 0.6032586
vt 0.1517143 0.6032586
vn -0.003921509 0.9999923 -0.000345267
vn -0.003921509 0.9999923 -0.000345267
vn -0.003921509 0.9999923 -0.000345267
vn -0.003921509 0.9999923 -0.000345267
vn -0.003921509 0.9999923 -0.000345267
vn -0.003921509 0.9999923 -0.000345267
vn -0.003921509 0.9999923 -0.000345267
vn -0.003921509 0.9999923 -0.000345267
vn -0.003921509 0.9999923 -0.000345267
vn -0.003921509 0.9999923 -0.000345267
vn -0.003921509 0.9999923 -0.000345267
vn -0.003921509 0.9999923 -0.000345267
vn -0.003921509 0.9999923 -0.000345267
vn -0.003921509 0.9999923 -0.000345267
vn -0.003921509 0.9999923 -0.000345267
vn -0.003921509 0.9999923 -0.000345267
vn -0.003921509 0.9999923 -0.000345267
vn -0.003921509 -0.9999924 0
vn -0.003921509 -0.9999924 0
vn -0.003921509 -0.9999924 0
vn -0.003921509 -0.9999924 0
vn -0.003921509 -0.9999924 0
vn -0.003921509 -0.9999924 0
vn -0.003921509 -0.9999924 0
vn -0.003921509 -0.9999924 0
vn -0.003921509 -0.9999924 0
vn -0.003921509 -0.9999924 0
vn -0.003921509 -0.9999924 0
vn -0.003921509 -0.9999924 0
vn -0.003921509 -0.9999924 0
vn -0.003921509 -0.9999924 0
vn -0.003921509 -0.9999924 0
vn -0.003921509 -0.9999924 0
vn -0.003921509 -0.9999924 0
g harazuelDio_basefloor_0
f 3/3/3 2/2/2 1/1/1
f 4/4/4 2/2/2 3/3/3
f 5/5/5 2/2/2 4/4/4
f 6/6/6 2/2/2 5/5/5
f 7/7/7 2/2/2 6/6/6
f 8/8/8 2/2/2 7/7/7
f 9/9/9 2/2/2 8/8/8
f 10/10/10 2/2/2 9/9/9
f 11/11/11 2/2/2 10/10/10
f 12/12/12 2/2/2 11/11/11
f 13/13/13 2/2/2 12/12/12
f 14/14/14 2/2/2 13/13/13
f 15/15/15 2/2/2 14/14/14
f 16/16/16 2/2/2 15/15/15
f 17/17/17 2/2/2 16/16/16
f 1/1/1 2/2/2 17/17/17
f 20/20/20 19/19/19 18/18/18
f 21/21/21 19/19/19 20/20/20
f 22/22/22 19/19/19 21/21/21
f 23/23/23 19/19/19 22/22/22
f 24/24/24 19/19/19 23/23/23
f 25/25/25 19/19/19 24/24/24
f 26/26/26 19/19/19 25/25/25
f 27/27/27 19/19/19 26/26/26
f 28/28/28 19/19/19 27/27/27
f 29/29/29 19/19/19 28/28/28
f 30/30/30 19/19/19 29/29/29
f 31/31/31 19/19/19 30/30/30
f 32/32/32 19/19/19 31/31/31
f 33/33/33 19/19/19 32/32/32
f 34/34/34 19/19/19 33/33/33
f 18/18/18 19/19/19 34/34/34
