g harazuelDio_stairsBlocker
v 9.809594 -0.5222912 -4.063555
v 9.809594 8.831804 -4.063555
v 7.508268 8.831804 -7.508268
v 7.508268 -0.5222912 -7.508268
v 4.063555 8.831804 -9.809594
v 4.063555 -0.5222912 -9.809594
v 4.063555 21.60879 -9.809594
v -0.0001373291 21.60879 -10.6177
v -0.0001373291 8.831804 -10.6177
v -4.063168 21.60879 -9.809594
v -4.063168 8.831804 -9.809594
v -7.507881 21.60879 -7.508268
v -7.507881 8.831804 -7.508268
v -4.063168 -0.5222912 -9.809594
v -7.507881 -0.5222912 -7.508268
v -9.809868 8.831804 -4.063555
v -9.809868 -0.5222912 -4.063555
v -10.61798 8.831804 0.0001373291
v -10.61798 -0.5222912 0.0001373291
v -9.809868 8.831804 4.063168
v -9.809868 -0.5222912 4.063168
v -7.507881 8.831804 7.507881
v -7.507881 -0.5222912 7.507881
v -4.063168 8.831804 9.809868
v -4.063168 -0.5222912 9.809868
v -4.063168 21.60879 9.809868
v -0.0001373291 21.60879 10.61798
v -0.0001373291 8.831804 10.61798
v -7.507881 21.60879 7.507881
v -9.809868 21.60879 4.063168
v -10.61798 21.60879 0.0001373291
v -9.809868 21.60879 -4.063555
v 4.063555 21.60879 9.809868
v 4.063555 8.831804 9.809868
v 7.508268 21.60879 7.507881
v 7.508268 8.831804 7.507881
v 4.063555 -0.5222912 9.809868
v 7.508268 -0.5222912 7.507881
v 9.809594 8.831804 4.063168
v 9.809594 -0.5222912 4.063168
v 10.6177 8.831804 0.0001373291
v 10.6177 -0.5222912 0.0001373291
v 9.809594 8.831804 -4.063555
v 9.809594 -0.5222912 -4.063555
v 9.809594 21.60879 -4.063555
v 10.6177 21.60879 0.0001373291
v 9.809594 21.60879 4.063168
v 7.508268 -0.5222912 -7.508268
v -0.0001373291 -0.5222912 0.0001373291
v 9.809594 -0.5222912 -4.063555
v 4.063555 -0.5222912 -9.809594
v -0.0001373291 -0.5222912 -10.6177
v -4.063168 -0.5222912 -9.809594
v -7.507881 -0.5222912 -7.508268
v -9.809868 -0.5222912 -4.063555
v -10.61798 -0.5222912 0.0001373291
v -9.809868 -0.5222912 4.063168
v -7.507881 -0.5222912 7.507881
v -4.063168 -0.5222912 9.809868
v -0.0001373291 -0.5222912 10.61798
v 4.063555 -0.5222912 9.809868
v 7.508268 -0.5222912 7.507881
v 9.809594 -0.5222912 4.063168
v 10.6177 -0.5222912 0.0001373291
v 9.809594 21.60879 -4.063555
v -0.0001373291 21.60879 0.0001373291
v 7.508268 21.60879 -7.508268
v 4.063555 21.60879 -9.809594
v -0.0001373291 21.60879 -10.6177
v -4.063168 21.60879 -9.809594
v -7.507881 21.60879 -7.508268
v -9.809868 21.60879 -4.063555
v -10.61798 21.60879 0.0001373291
v -9.809868 21.60879 4.063168
v -7.507881 21.60879 7.507881
v -4.063168 21.60879 9.809868
v -0.0001373291 21.60879 10.61798
v 4.063555 21.60879 9.809868
v 7.508268 21.60879 7.507881
v 9.809594 21.60879 4.063168
v 10.6177 21.60879 0.0001373291
v 7.508268 21.60879 -7.508268
v 9.809594 21.60879 -4.063555
v -4.063168 -0.5222912 9.809868
v -4.063168 -0.5222912 17.00151
v -0.0001373291 -0.5222912 17.00151
v -0.0001373291 -0.5222912 10.61798
v -0.0001373291 -0.5222912 10.61798
v -0.0001373291 -0.5222912 17.00151
v 4.063555 -0.5222912 17.00151
v 4.063555 -0.5222912 9.809868
v -4.063168 8.831804 9.809868
v -4.063168 8.831804 17.00151
v -4.063168 -0.5222912 17.00151
v -4.063168 -0.5222912 9.809868
v 4.063555 -0.5222912 9.809868
v 4.063555 -0.5222912 17.00151
v 4.063555 8.831804 17.00151
v 4.063555 8.831804 9.809868
v -0.0001373291 8.831804 10.61798
v -0.0001373291 8.831804 17.00151
v -4.063168 8.831804 17.00151
v -4.063168 8.831804 9.809868
v 4.063555 8.831804 9.809868
v 4.063555 8.831804 17.00151
v -0.0001373291 8.831804 17.00151
v -0.0001373291 8.831804 10.61798
v 4.063555 -0.5222912 -9.809594
v 2.900328 1.382915 -16.19577
v -0.7493896 1.382915 -14.40894
v -0.0001373291 -0.5222912 -10.6177
v -0.0001373291 -0.5222912 -10.6177
v -0.7493896 1.382915 -14.40894
v -4.398445 1.382915 -12.6221
v -4.063168 -0.5222912 -9.809594
v 4.063555 8.831804 -9.809594
v 2.900328 10.73635 -16.19577
v 2.900328 1.382915 -16.19577
v 4.063555 -0.5222912 -9.809594
v -4.063168 -0.5222912 -9.809594
v -4.398445 1.382915 -12.6221
v -4.398445 10.73635 -12.6221
v -4.063168 8.831804 -9.809594
v -4.063168 8.831804 -9.809594
v -4.398445 10.73635 -12.6221
v -0.7493896 10.73635 -14.40894
v -0.0001373291 8.831804 -10.6177
v -0.0001373291 8.831804 -10.6177
v -0.7493896 10.73635 -14.40894
v 2.900328 10.73635 -16.19577
v 4.063555 8.831804 -9.809594
v 2.900328 1.382915 -16.19577
v -0.4570961 4.011585 -21.72953
v -3.519577 4.011585 -19.0592
v -0.7493896 1.382915 -14.40894
v -0.7493896 1.382915 -14.40894
v -3.519577 4.011585 -19.0592
v -6.582722 4.011585 -16.38887
v -4.398445 1.382915 -12.6221
v 2.900328 10.73635 -16.19577
v -0.4570961 13.36502 -21.72953
v -0.4570961 4.011585 -21.72953
v 2.900328 1.382915 -16.19577
v -4.398445 1.382915 -12.6221
v -6.582722 4.011585 -16.38887
v -6.582722 13.36502 -16.38887
v -4.398445 10.73635 -12.6221
v -4.398445 10.73635 -12.6221
v -6.582722 13.36502 -16.38887
v -3.519577 13.36502 -19.0592
v -0.7493896 10.73635 -14.40894
v -0.7493896 10.73635 -14.40894
v -3.519577 13.36502 -19.0592
v -0.4570961 13.36502 -21.72953
v 2.900328 10.73635 -16.19577
vt 0.3753666 0.3128055
vt 0.3753666 0.4711632
vt 0.3910069 0.4711632
vt 0.3910069 0.3128055
vt 0.4066471 0.4711632
vt 0.4066471 0.3128055
vt 0.4066471 0.688172
vt 0.4222874 0.688172
vt 0.4222874 0.4711632
vt 0.4379277 0.688172
vt 0.4379277 0.4711632
vt 0.453568 0.688172
vt 0.453568 0.4711632
vt 0.4379277 0.3128055
vt 0.453568 0.3128055
vt 0.4692082 0.4711632
vt 0.4692082 0.3128055
vt 0.4848485 0.4711632
vt 0.4848485 0.3128055
vt 0.5004888 0.4711632
vt 0.5004888 0.3128055
vt 0.5151515 0.4711632
vt 0.5151515 0.3128055
vt 0.5307918 0.4711632
vt 0.5307918 0.3128055
vt 0.5307918 0.688172
vt 0.5464321 0.688172
vt 0.5464321 0.4711632
vt 0.5151515 0.688172
vt 0.5004888 0.688172
vt 0.4848485 0.688172
vt 0.4692082 0.688172
vt 0.5620723 0.688172
vt 0.5620723 0.4711632
vt 0.5777126 0.688172
vt 0.5777126 0.4711632
vt 0.5620723 0.3128055
vt 0.5777126 0.3128055
vt 0.5933529 0.4711632
vt 0.5933529 0.3128055
vt 0.6089932 0.4711632
vt 0.6089932 0.3128055
vt 0.6246334 0.4711632
vt 0.6246334 0.3128055
vt 0.6246334 0.688172
vt 0.6089932 0.688172
vt 0.5933529 0.688172
vt 0.6109482 0.0459433
vt 0.5004888 0.1495601
vt 0.6441838 0.09677419
vt 0.5601173 0.01173021
vt 0.5004888 0
vt 0.4398827 0.01173021
vt 0.3890518 0.0459433
vt 0.3558162 0.09677419
vt 0.344086 0.1564027
vt 0.3558162 0.2160313
vt 0.3890518 0.2668622
vt 0.4398827 0.3010753
vt 0.4995112 0.3128055
vt 0.5601173 0.3010753
vt 0.6109482 0.2668622
vt 0.6441838 0.2160313
vt 0.6559139 0.1564027
vt 0.6441838 0.9032258
vt 0.5004888 0.8377321
vt 0.6109482 0.9540567
vt 0.5601173 0.9882698
vt 0.4995112 1
vt 0.4398827 0.9882698
vt 0.3890518 0.9540567
vt 0.3558162 0.9032258
vt 0.344086 0.8435972
vt 0.3558162 0.7839687
vt 0.3890518 0.7331378
vt 0.4398827 0.6989247
vt 0.5004888 0.6871945
vt 0.5601173 0.6989247
vt 0.6109482 0.7331378
vt 0.6441838 0.7839687
vt 0.6559139 0.8435972
vt 0.3910069 0.688172
vt 0.3753666 0.688172
vt 0 0
vt 0 1
vt 1 1
vt 1 0
vt 0 0
vt 0 1
vt 1 1
vt 1 0
vt 0 0
vt 0 1
vt 1 1
vt 1 0
vt 0 0
vt 0 1
vt 1 1
vt 1 0
vt 0 0
vt 0 1
vt 1 1
vt 1 0
vt 0 0
vt 0 1
vt 1 1
vt 1 0
vt 0 0
vt 0 1
vt 1 1
vt 1 0
vt 0 0
vt 0 1
vt 1 1
vt 1 0
vt 0 0
vt 0 1
vt 1 1
vt 1 0
vt 0 0
vt 0 1
vt 1 1
vt 1 0
vt 0 0
vt 0 1
vt 1 1
vt 1 0
vt 0 0
vt 0 1
vt 1 1
vt 1 0
vt 0 0
vt 0 1
vt 1 1
vt 1 0
vt 0 0
vt 0 1
vt 1 1
vt 1 0
vt 0 0
vt 0 1
vt 1 1
vt 1 0
vt 0 0
vt 0 1
vt 1 1
vt 1 0
vt 0 0
vt 0 1
vt 1 1
vt 1 0
vt 0 0
vt 0 1
vt 1 1
vt 1 0
vn 0.9215616 0.003921509 -0.3882124
vn 0.9215616 0.003921509 -0.3882124
vn 0.7097985 0.003921509 -0.7043939
vn 0.7097985 0.003921509 -0.7043939
vn 0.4274477 0.003921509 -0.9040315
vn 0.552937 0.003921509 -0.8332139
vn 0.3803893 0.003921509 -0.9248182
vn 0.003921568 0.003921509 -0.9999846
vn 0.003921568 0.003921509 -0.9999846
vn -0.3803892 0.003921509 -0.9248182
vn -0.4274477 0.003921509 -0.9040316
vn -0.7097985 0.003921509 -0.7043939
vn -0.7097985 0.003921509 -0.7043939
vn -0.5529369 0.003921509 -0.8332139
vn -0.7097985 0.003921509 -0.7043939
vn -0.9215615 0.003921509 -0.3882126
vn -0.9215615 0.003921509 -0.3882126
vn -0.9999923 0.003921509 -0.0003449296
vn -0.9999923 0.003921509 -0.0003449296
vn -0.9215615 0.003921509 0.3882126
vn -0.9215615 0.003921509 0.3882126
vn -0.7097985 0.003921509 0.7043939
vn -0.7097985 0.003921509 0.7043939
vn -0.4274477 0.003921509 0.9040316
vn -0.5529369 0.003921509 0.8332139
vn -0.3803892 0.003921509 0.9248182
vn -0.003921509 0.003921509 0.9999846
vn -0.003921509 0.003921509 0.9999846
vn -0.7097985 0.003921509 0.7043939
vn -0.9215615 0.003921509 0.3882126
vn -0.9999923 0.003921509 -0.0003449296
vn -0.9215615 0.003921509 -0.3882126
vn 0.3803893 0.003921509 0.9248182
vn 0.4274477 0.003921509 0.9040315
vn 0.7097985 0.003921509 0.7043939
vn 0.7097985 0.003921509 0.7043939
vn 0.552937 0.003921509 0.8332139
vn 0.7097985 0.003921509 0.7043939
vn 0.9215616 0.003921509 0.3882124
vn 0.9215616 0.003921509 0.3882124
vn 0.9999924 0.003921509 0
vn 0.9999924 0.003921509 0
vn 0.9215616 0.003921509 -0.3882124
vn 0.9215616 0.003921509 -0.3882124
vn 0.9215616 0.003921509 -0.3882124
vn 0.9999924 0.003921509 0
vn 0.9215616 0.003921509 0.3882124
vn -0.003921509 -0.9999924 0
vn -0.003921509 -0.9999924 0
vn -0.003921509 -0.9999924 0
vn -0.003921509 -0.9999924 0
vn -0.003921509 -0.9999924 0
vn -0.003921509 -0.9999924 0
vn -0.003921509 -0.9999924 0
vn -0.003921509 -0.9999924 0
vn -0.003921509 -0.9999924 0
vn -0.003921509 -0.9999924 0
vn -0.003921509 -0.9999924 0
vn -0.003921509 -0.9999924 0
vn -0.003921509 -0.9999924 0
vn -0.003921509 -0.9999924 0
vn -0.003921509 -0.9999924 0
vn -0.003921509 -0.9999924 0
vn -0.003921509 -0.9999924 0
vn -0.003921509 0.9999923 -0.000345267
vn -0.003921509 0.9999923 -0.000345267
vn -0.003921509 0.9999923 -0.000345267
vn -0.003921509 0.9999923 -0.000345267
vn -0.003921509 0.9999923 -0.000345267
vn -0.003921509 0.9999923 -0.000345267
vn -0.003921509 0.9999923 -0.000345267
vn -0.003921509 0.9999923 -0.000345267
vn -0.003921509 0.9999923 -0.000345267
vn -0.003921509 0.9999923 -0.000345267
vn -0.003921509 0.9999923 -0.000345267
vn -0.003921509 0.9999923 -0.000345267
vn -0.003921509 0.9999923 -0.000345267
vn -0.003921509 0.9999923 -0.000345267
vn -0.003921509 0.9999923 -0.000345267
vn -0.003921509 0.9999923 -0.000345267
vn -0.003921509 0.9999923 -0.000345267
vn 0.7097985 0.003921509 -0.7043939
vn 0.9215616 0.003921509 -0.3882124
vn -0.003921509 -0.9999924 0
vn -0.003921509 -0.9999924 0
vn -0.003921509 -0.9999924 0
vn -0.003921509 -0.9999924 0
vn -0.003921509 -0.9999924 0
vn -0.003921509 -0.9999924 0
vn -0.003921509 -0.9999924 0
vn -0.003921509 -0.9999924 0
vn -0.9999923 0.003921509 -0.0003449296
vn -0.9999923 0.003921509 -0.0003449296
vn -0.9999923 0.003921509 -0.0003449296
vn -0.9999923 0.003921509 -0.0003449296
vn 0.9999924 0.003921509 0
vn 0.9999924 0.003921509 0
vn 0.9999924 0.003921509 0
vn 0.9999924 0.003921509 0
vn -0.003921509 0.9999923 -0.000345267
vn -0.003921509 0.9999923 -0.000345267
vn -0.003921509 0.9999923 -0.000345267
vn -0.003921509 0.9999923 -0.000345267
vn -0.003921509 0.9999923 -0.000345267
vn -0.003921509 0.9999923 -0.000345267
vn -0.003921509 0.9999923 -0.000345267
vn -0.003921509 0.9999923 -0.000345267
vn -0.04313684 -0.9372478 -0.3459854
vn -0.04313684 -0.9372478 -0.3459854
vn -0.04313684 -0.9372478 -0.3459854
vn -0.04313684 -0.9372478 -0.3459854
vn -0.1607831 -0.8666601 -0.4722808
vn -0.1607831 -0.8666601 -0.4722808
vn -0.1607831 -0.8666601 -0.4722808
vn -0.1607831 -0.8666601 -0.4722808
vn 0.9843062 0.003921509 -0.1764254
vn 0.9843062 0.003921509 -0.1764254
vn 0.9843062 0.003921509 -0.1764254
vn 0.9843062 0.003921509 -0.1764254
vn -0.9921492 0.003921509 0.1249981
vn -0.9921492 0.003921509 0.1249981
vn -0.9921492 0.003921509 0.1249981
vn -0.9921492 0.003921509 0.1249981
vn 0.1607831 0.86666 0.4722809
vn 0.1607831 0.86666 0.4722809
vn 0.1607831 0.86666 0.4722809
vn 0.1607831 0.86666 0.4722809
vn 0.04313695 0.9372476 0.3459857
vn 0.04313695 0.9372476 0.3459857
vn 0.04313695 0.9372476 0.3459857
vn 0.04313695 0.9372476 0.3459857
vn -0.2235277 -0.9137185 -0.3393432
vn -0.2235277 -0.9137185 -0.3393432
vn -0.2235277 -0.9137185 -0.3393432
vn -0.2235277 -0.9137185 -0.3393432
vn -0.262743 -0.8823462 -0.3904245
vn -0.262743 -0.8823462 -0.3904245
vn -0.262743 -0.8823462 -0.3904245
vn -0.262743 -0.8823462 -0.3904245
vn 0.858817 0.003921509 -0.5122675
vn 0.858817 0.003921509 -0.5122675
vn 0.858817 0.003921509 -0.5122675
vn 0.858817 0.003921509 -0.5122675
vn -0.86666 0.003921509 0.4988838
vn -0.86666 0.003921509 0.4988838
vn -0.86666 0.003921509 0.4988838
vn -0.86666 0.003921509 0.4988838
vn 0.2627431 0.8823462 0.3904246
vn 0.2627431 0.8823462 0.3904246
vn 0.2627431 0.8823462 0.3904246
vn 0.2627431 0.8823462 0.3904246
vn 0.2235277 0.9137185 0.3393433
vn 0.2235277 0.9137185 0.3393433
vn 0.2235277 0.9137185 0.3393433
vn 0.2235277 0.9137185 0.3393433
g harazuelDio_stairsBlocker_0
f 3/3/3 2/2/2 1/1/1
f 4/4/4 3/3/3 1/1/1
f 5/5/5 3/3/3 4/4/4
f 6/6/6 5/5/5 4/4/4
f 5/5/5 7/7/7 3/3/3
f 8/8/8 7/7/7 5/5/5
f 9/9/9 8/8/8 5/5/5
f 10/10/10 8/8/8 9/9/9
f 11/11/11 10/10/10 9/9/9
f 12/12/12 10/10/10 11/11/11
f 13/13/13 12/12/12 11/11/11
f 13/13/13 11/11/11 14/14/14
f 15/15/15 13/13/13 14/14/14
f 16/16/16 13/13/13 15/15/15
f 17/17/17 16/16/16 15/15/15
f 18/18/18 16/16/16 17/17/17
f 19/19/19 18/18/18 17/17/17
f 20/20/20 18/18/18 19/19/19
f 21/21/21 20/20/20 19/19/19
f 22/22/22 20/20/20 21/21/21
f 23/23/23 22/22/22 21/21/21
f 24/24/24 22/22/22 23/23/23
f 25/25/25 24/24/24 23/23/23
f 24/24/24 26/26/26 22/22/22
f 27/27/27 26/26/26 24/24/24
f 28/28/28 27/27/27 24/24/24
f 26/26/26 29/29/29 22/22/22
f 22/22/22 29/29/29 20/20/20
f 29/29/29 30/30/30 20/20/20
f 20/20/20 30/30/30 18/18/18
f 30/30/30 31/31/31 18/18/18
f 18/18/18 31/31/31 16/16/16
f 31/31/31 32/32/32 16/16/16
f 33/33/33 27/27/27 28/28/28
f 34/34/34 33/33/33 28/28/28
f 35/35/35 33/33/33 34/34/34
f 36/36/36 35/35/35 34/34/34
f 36/36/36 34/34/34 37/37/37
f 38/38/38 36/36/36 37/37/37
f 39/39/39 36/36/36 38/38/38
f 40/40/40 39/39/39 38/38/38
f 41/41/41 39/39/39 40/40/40
f 42/42/42 41/41/41 40/40/40
f 43/43/43 41/41/41 42/42/42
f 44/44/44 43/43/43 42/42/42
f 43/43/43 45/45/45 41/41/41
f 45/45/45 46/46/46 41/41/41
f 41/41/41 46/46/46 39/39/39
f 46/46/46 47/47/47 39/39/39
f 47/47/47 35/35/35 36/36/36
f 39/39/39 47/47/47 36/36/36
f 32/32/32 12/12/12 13/13/13
f 16/16/16 32/32/32 13/13/13
f 50/50/50 49/49/49 48/48/48
f 48/48/48 49/49/49 51/51/51
f 51/51/51 49/49/49 52/52/52
f 52/52/52 49/49/49 53/53/53
f 53/53/53 49/49/49 54/54/54
f 54/54/54 49/49/49 55/55/55
f 55/55/55 49/49/49 56/56/56
f 56/56/56 49/49/49 57/57/57
f 57/57/57 49/49/49 58/58/58
f 58/58/58 49/49/49 59/59/59
f 59/59/59 49/49/49 60/60/60
f 60/60/60 49/49/49 61/61/61
f 61/61/61 49/49/49 62/62/62
f 62/62/62 49/49/49 63/63/63
f 63/63/63 49/49/49 64/64/64
f 64/64/64 49/49/49 50/50/50
f 67/67/67 66/66/66 65/65/65
f 68/68/68 66/66/66 67/67/67
f 69/69/69 66/66/66 68/68/68
f 70/70/70 66/66/66 69/69/69
f 71/71/71 66/66/66 70/70/70
f 72/72/72 66/66/66 71/71/71
f 73/73/73 66/66/66 72/72/72
f 74/74/74 66/66/66 73/73/73
f 75/75/75 66/66/66 74/74/74
f 76/76/76 66/66/66 75/75/75
f 77/77/77 66/66/66 76/76/76
f 78/78/78 66/66/66 77/77/77
f 79/79/79 66/66/66 78/78/78
f 80/80/80 66/66/66 79/79/79
f 81/81/81 66/66/66 80/80/80
f 65/65/65 66/66/66 81/81/81
f 7/7/7 82/82/82 3/3/3
f 3/3/3 82/82/82 2/2/2
f 82/82/82 83/83/83 2/2/2
f 86/86/86 85/85/85 84/84/84
f 87/87/87 86/86/86 84/84/84
f 90/90/90 89/89/89 88/88/88
f 91/91/91 90/90/90 88/88/88
f 94/94/94 93/93/93 92/92/92
f 95/95/95 94/94/94 92/92/92
f 98/98/98 97/97/97 96/96/96
f 99/99/99 98/98/98 96/96/96
f 102/102/102 101/101/101 100/100/100
f 103/103/103 102/102/102 100/100/100
f 106/106/106 105/105/105 104/104/104
f 107/107/107 106/106/106 104/104/104
f 110/110/110 109/109/109 108/108/108
f 111/111/111 110/110/110 108/108/108
f 114/114/114 113/113/113 112/112/112
f 115/115/115 114/114/114 112/112/112
f 118/118/118 117/117/117 116/116/116
f 119/119/119 118/118/118 116/116/116
f 122/122/122 121/121/121 120/120/120
f 123/123/123 122/122/122 120/120/120
f 126/126/126 125/125/125 124/124/124
f 127/127/127 126/126/126 124/124/124
f 130/130/130 129/129/129 128/128/128
f 131/131/131 130/130/130 128/128/128
f 134/134/134 133/133/133 132/132/132
f 135/135/135 134/134/134 132/132/132
f 138/138/138 137/137/137 136/136/136
f 139/139/139 138/138/138 136/136/136
f 142/142/142 141/141/141 140/140/140
f 143/143/143 142/142/142 140/140/140
f 146/146/146 145/145/145 144/144/144
f 147/147/147 146/146/146 144/144/144
f 150/150/150 149/149/149 148/148/148
f 151/151/151 150/150/150 148/148/148
f 154/154/154 153/153/153 152/152/152
f 155/155/155 154/154/154 152/152/152
