g hildebrantWebs
v -5.079635 4.757625 -4.536541
v -5.079635 6.480204 -4.536541
v -3.376762 6.480204 -4.795884
v -3.376762 4.757625 -4.795884
v 4.097275 5.961518 -4.621675
v 5.152973 5.961518 -4.621675
v 5.152973 4.90582 -4.621675
v 4.097275 4.90582 -4.621675
v 6.394507 6.520406 5.307644
v 6.246509 6.520406 3.923431
v 6.246509 5.128114 3.923431
v 6.394507 5.128114 5.307644
v 5.512624 2.201049 -4.683555
v 5.695898 1.058049 -4.683555
v 4.552898 0.8747749 -4.683555
v 4.369821 2.017775 -4.683555
v -3.102837 -0.1878209 -4.717254
v -4.254113 0.03939962 -4.717254
v -4.026695 1.190676 -4.717254
v -2.875616 0.9632587 -4.717254
v 4.55881 0.08098125 3.714539
v 4.55881 0.7750578 3.748828
v 4.559598 0.7835317 4.719393
v 4.559402 0.08945513 4.685102
v -5.592014 1.060414 4.530798
v -4.645295 1.063961 4.548337
v -4.65239 0.2839622 5.085153
v -5.599109 0.2804151 5.067416
v -5.763464 2.463347 -0.3738542
v -5.436724 2.463347 -1.304611
v -5.436724 1.477017 -1.304611
v -5.763464 1.477017 -0.3738542
v -4.231056 0.04826784 -3.330282
v -4.870544 0.06738329 -3.148191
v -4.882172 0.6166143 -3.246528
v -4.242486 0.5974989 -3.42862
v 4.251777 2.003388 2.602084
v 4.622266 2.003388 2.438911
v 4.622266 1.424006 2.438911
v 4.251777 1.424006 2.602084
vt 0 0
vt 0 1
vt 1 1
vt 1 0
vt 0 0
vt 0 1
vt 1 1
vt 1 0
vt 0 0
vt 0 1
vt 1 1
vt 1 0
vt 0 0
vt 0 1
vt 1 1
vt 1 0
vt 0 0
vt 0 1
vt 1 1
vt 1 0
vt 0 0
vt 0 1
vt 1 1
vt 1 0
vt 0 0
vt 0 1
vt 1 1
vt 1 0
vt 0 0
vt 0 1
vt 1 1
vt 1 0
vt 0 0
vt 0 1
vt 1 1
vt 1 0
vt 0 0
vt 0 1
vt 1 1
vt 1 0
vn 0.1496788 -0.001080871 0.9887341
vn 0.1496788 -0.001080871 0.9887341
vn 0.1496788 -0.001080871 0.9887341
vn 0.1496788 -0.001080871 0.9887341
vn 0.001080871 -0.001080871 0.9999988
vn 0.001080871 -0.001080871 0.9999988
vn 0.001080871 -0.001080871 0.9999988
vn 0.001080871 -0.001080871 0.9999988
vn 0.9943403 -0.001080871 -0.1062366
vn 0.9943403 -0.001080871 -0.1062366
vn 0.9943403 -0.001080871 -0.1062366
vn 0.9943403 -0.001080871 -0.1062366
vn 0.001080871 -0.001080871 0.9999988
vn 0.001080871 -0.001080871 0.9999988
vn 0.001080871 -0.001080871 0.9999988
vn 0.001080871 -0.001080871 0.9999988
vn 0.001080871 -0.001080871 0.9999988
vn 0.001080871 -0.001080871 0.9999988
vn 0.001080871 -0.001080871 0.9999988
vn 0.001080871 -0.001080871 0.9999988
vn -0.9999994 -0.001080871 0
vn -0.9999994 -0.001080871 0
vn -0.9999994 -0.001080871 0
vn -0.9999994 -0.001080871 0
vn -0.01456106 0.5698478 0.8216212
vn -0.01456106 0.5698478 0.8216212
vn -0.01456106 0.5698478 0.8216212
vn -0.01456106 0.5698478 0.8216212
vn 0.9474146 -0.001080871 0.3200068
vn 0.9474146 -0.001080871 0.3200068
vn 0.9474146 -0.001080871 0.3200068
vn 0.9474146 -0.001080871 0.3200068
vn 0.2748138 0.1788007 0.9447263
vn 0.2748138 0.1788007 0.9447263
vn 0.2748138 0.1788007 0.9447263
vn 0.2748138 0.1788007 0.9447263
vn 0.3999488 -0.001080871 0.9165368
vn 0.3999488 -0.001080871 0.9165368
vn 0.3999488 -0.001080871 0.9165368
vn 0.3999488 -0.001080871 0.9165368
g hildebrantWebs_0
f 3/3/3 2/2/2 1/1/1
f 4/4/4 3/3/3 1/1/1
f 7/7/7 6/6/6 5/5/5
f 8/8/8 7/7/7 5/5/5
f 11/11/11 10/10/10 9/9/9
f 12/12/12 11/11/11 9/9/9
f 15/15/15 14/14/14 13/13/13
f 16/16/16 15/15/15 13/13/13
f 19/19/19 18/18/18 17/17/17
f 20/20/20 19/19/19 17/17/17
f 23/23/23 22/22/22 21/21/21
f 24/24/24 23/23/23 21/21/21
f 27/27/27 26/26/26 25/25/25
f 28/28/28 27/27/27 25/25/25
f 31/31/31 30/30/30 29/29/29
f 32/32/32 31/31/31 29/29/29
f 35/35/35 34/34/34 33/33/33
f 36/36/36 35/35/35 33/33/33
f 39/39/39 38/38/38 37/37/37
f 40/40/40 39/39/39 37/37/37
