g islandBG
v 70.61357 -7.996239 -30.4437
v 54.04538 -7.996239 -55.23957
v 54.04538 38.85921 -55.23957
v 70.61357 38.85921 -30.4437
v 29.24951 38.85921 -71.80776
v 29.24951 -7.996239 -71.80776
v 76.43172 -7.996239 -1.195473
v 76.43172 38.85921 -1.195473
v 75.86989 -7.996239 28.0551
v 75.86989 38.85921 28.0551
v 29.24951 -7.996239 -71.80776
v -0.001068115 -7.996239 -77.62591
v -0.001068115 38.85921 -77.62591
v 29.24951 38.85921 -71.80776
v -29.24929 38.85921 -71.80776
v -29.24929 -7.996239 -71.80776
v -54.04516 38.85921 -55.23957
v -54.04516 -7.996239 -55.23957
v -54.04516 -7.996239 -55.23957
v -70.61335 -7.996239 -30.4437
v -70.61335 38.85921 -30.4437
v -54.04516 38.85921 -55.23957
v -76.4315 38.85921 -1.195473
v -76.4315 -7.996239 -1.195473
v -75.86967 38.85921 28.0551
v -75.86967 -7.996239 28.0551
vt 0.2006711 0.01887794
vt 0.2998309 0.01887794
vt 0.2998309 0.9822843
vt 0.2006711 0.9822843
vt 0.3989908 0.9822843
vt 0.3989908 0.01887794
vt 0.100539 0.01887794
vt 0.100539 0.9822843
vt 0.001379132 0.01887794
vt 0.001379132 0.9822843
vt 0.3989908 0.01887794
vt 0.4981507 0.01887794
vt 0.4981507 0.9822843
vt 0.3989908 0.9822843
vt 0.5982828 0.9822843
vt 0.5982828 0.01887794
vt 0.6974427 0.9822843
vt 0.6974427 0.01887794
vt 0.6974427 0.01887794
vt 0.7966025 0.01887794
vt 0.7966025 0.9822843
vt 0.6974427 0.9822843
vt 0.8967346 0.9822843
vt 0.8967346 0.01887794
vt 0.9958945 0.9822843
vt 0.9958945 0.01887794
vn -0.9213991 0.003920853 0.388598
vn -0.7096733 0.003920853 0.70452
vn -0.7096733 0.003920853 0.70452
vn -0.9213991 0.003920853 0.388598
vn -0.3803222 0.003920853 0.9248458
vn -0.3803222 0.003920853 0.9248458
vn -0.9998161 0.003920853 0.0187704
vn -0.9998161 0.003920853 0.0187704
vn -0.9998161 0.003920853 -0.0187704
vn -0.9998161 0.003920853 -0.0187704
vn -0.3803222 0.003920853 0.9248458
vn -0.003920853 0.003920853 0.9999846
vn -0.003920853 0.003920853 0.9999846
vn -0.3803222 0.003920853 0.9248458
vn 0.3803222 0.003920853 0.9248458
vn 0.3803222 0.003920853 0.9248458
vn 0.7096734 0.003920853 0.7045199
vn 0.7096734 0.003920853 0.7045199
vn 0.7096734 0.003920853 0.7045199
vn 0.9213992 0.003920853 0.3885977
vn 0.9213992 0.003920853 0.3885977
vn 0.7096734 0.003920853 0.7045199
vn 0.9998161 0.003920853 0.0187704
vn 0.9998161 0.003920853 0.0187704
vn 0.9998161 0.003920853 -0.0187704
vn 0.9998161 0.003920853 -0.0187704
g islandBG_0
f 3/3/3 2/2/2 1/1/1
f 4/4/4 3/3/3 1/1/1
f 3/3/3 5/5/5 2/2/2
f 5/5/5 6/6/6 2/2/2
f 4/4/4 1/1/1 7/7/7
f 8/8/8 4/4/4 7/7/7
f 8/8/8 7/7/7 9/9/9
f 10/10/10 8/8/8 9/9/9
f 13/13/13 12/12/12 11/11/11
f 14/14/14 13/13/13 11/11/11
f 13/13/13 15/15/15 12/12/12
f 15/15/15 16/16/16 12/12/12
f 15/15/15 17/17/17 16/16/16
f 17/17/17 18/18/18 16/16/16
f 21/21/21 20/20/20 19/19/19
f 22/22/22 21/21/21 19/19/19
f 21/21/21 23/23/23 20/20/20
f 23/23/23 24/24/24 20/20/20
f 23/23/23 25/25/25 24/24/24
f 25/25/25 26/26/26 24/24/24
