g lavaCaveBanner01
v -0.344625 -1.530059 0.009503841
v -0.344625 -2.384186E-06 0.02823973
v 2.384186E-06 -1.530059 0.03442335
v 2.384186E-06 -2.384186E-06 0.05445147
v -0.344625 -2.696568 0.01227283
v 0.8857517 -1.530059 0.03091621
v 0.6643376 -1.530059 0.03442335
v 0.8857517 -2.384186E-06 0.03183937
v 0.8857517 -2.656144 0.009411812
v 0.6643376 -1.530059 0.03442335
v 0.6643376 -2.384186E-06 0.04900599
v 0.8857517 -2.384186E-06 0.03183937
v 2.384186E-06 -4.75455 0.02943945
v -0.344625 -4.706833 0.04559088
v 2.384186E-06 -3.896581 0.04835987
v -0.344625 -4.706833 0.04559088
v -0.344625 -3.692702 0.01310349
v 2.384186E-06 -3.896581 0.04835987
v 2.384186E-06 -2.858176 0.02990103
v 0.6643376 -4.716063 0.0385766
v 0.6643376 -3.846742 0.02611685
v 0.8857517 -4.770147 0.002305031
v 0.6643376 -3.846742 0.02611685
v 0.8857517 -3.801702 0.02380943
v 0.8857517 -4.770147 0.002305031
v 0.8857517 -2.985265 0.03073168
v -0.344625 -3.692702 0.01310349
v -0.344625 -2.696568 0.01227283
v 2.384186E-06 -2.858176 0.02990103
v 2.384186E-06 -1.530059 0.03442335
v 0.6643376 -2.745854 0.05325174
v 0.6643376 -1.530059 0.03442335
v 0.8857517 -2.656144 0.009411812
v -0.344625 -1.530059 0.009503841
v -0.6643329 -1.530059 0.008119583
v -0.344625 -2.384186E-06 0.02823973
v -0.344625 -2.696568 0.01227283
v -0.6643329 -1.530059 0.008119583
v -0.6643329 -2.384186E-06 0.04955959
v -0.344625 -2.384186E-06 0.02823973
v -0.6643329 -2.840917 0.05648184
v -0.6643329 -1.530059 0.008119583
v -0.344625 -2.696568 0.01227283
v -0.344625 -3.692702 0.01310349
v -0.6643329 -3.905349 0.00442791
v -0.6643329 -2.840917 0.05648184
v -0.344625 -3.692702 0.01310349
v -0.6643329 -4.584728 0.05389738
v -0.6643329 -3.905349 0.00442791
v -0.344625 -4.706833 0.04559088
v -0.6643329 -3.905349 0.00442791
v -0.344625 -3.692702 0.01310349
v -0.344625 -4.706833 0.04559088
v -0.5431504 -5.052384 0.03626919
v -0.6643329 -4.584728 0.05389738
v -0.344625 -4.706833 0.04559088
v 0.3446298 -1.530059 0.00701189
v 2.384186E-06 -1.530059 0.03442335
v 0.3446298 -2.384186E-06 0.004981518
v 0.3446298 -2.705706 0.03248549
v 2.384186E-06 -1.530059 0.03442335
v 2.384186E-06 -2.384186E-06 0.05445147
v 0.3446298 -2.384186E-06 0.004981518
v 2.384186E-06 -2.858176 0.02990103
v 2.384186E-06 -1.530059 0.03442335
v 0.3446298 -2.705706 0.03248549
v 0.3446298 -3.650985 0.00535059
v 2.384186E-06 -3.896581 0.04835987
v 2.384186E-06 -2.858176 0.02990103
v 0.3446298 -3.650985 0.00535059
v 0.3446298 -4.538304 0.03986883
v 2.384186E-06 -4.75455 0.02943945
v 2.384186E-06 -3.896581 0.04835987
v 0.3446298 -4.538304 0.03986883
v 0.3605042 -5.162768 0.04734468
v -0.8857474 -1.530059 0.006458282
v -0.8857474 -2.384186E-06 0.03793049
v -0.6643329 -1.530059 0.008119583
v -0.6643329 -2.384186E-06 0.04955959
v -0.8857474 -2.921305 0.01854897
v -0.8857474 -1.530059 0.006458282
v -0.6643329 -2.840917 0.05648184
v -0.8857474 -3.801702 0.04272985
v -0.8857474 -1.530059 0.006458282
v -0.6643329 -1.530059 0.008119583
v -0.6643329 -2.840917 0.05648184
v -0.6643329 -3.905349 0.00442791
v -0.8857474 -3.801702 0.04272985
v -0.6643329 -2.840917 0.05648184
v -0.8857474 -4.637243 0.03470039
v -0.6643329 -4.584728 0.05389738
v -0.8857474 -4.637243 0.03470039
v -0.6643329 -3.905349 0.00442791
v 0.3446298 -1.530059 0.00701189
v 0.3446298 -2.384186E-06 0.004981518
v 0.6643376 -1.530059 0.03442335
v 0.3446298 -2.705706 0.03248549
v 0.3446298 -2.384186E-06 0.004981518
v 0.6643376 -2.384186E-06 0.04900599
v 0.6643376 -1.530059 0.03442335
v 0.6643376 -2.745854 0.05325174
v 0.3446298 -2.705706 0.03248549
v 0.6643376 -1.530059 0.03442335
v 0.3446298 -3.650985 0.00535059
v 0.6643376 -3.846742 0.02611685
v 0.3446298 -3.650985 0.00535059
v 0.6643376 -2.745854 0.05325174
v 0.6643376 -4.716063 0.0385766
v 0.3446298 -4.538304 0.03986883
v 0.6643376 -3.846742 0.02611685
v 0.3605042 -5.162768 0.04734468
v 0.3446298 -4.538304 0.03986883
v 0.3446298 -3.650985 0.00535059
v 0.6643376 -3.846742 0.02611685
v 0.6643376 -3.846742 0.02611685
v 0.6643376 -2.745854 0.05325174
v 0.8857517 -2.985265 0.03073168
vt 0.8024174 0.8921115
vt 0.8024174 0.9512913
vt 0.8190616 0.8921115
vt 0.8190616 0.9512913
vt 0.8024174 0.8458775
vt 0.5213139 0.8708439
vt 0.5157658 0.8708439
vt 0.5213139 0.9078312
vt 0.5213139 0.8421787
vt 0.5157658 0.8708439
vt 0.5157658 0.9078312
vt 0.5213139 0.9078312
vt 0.8190616 0.7728275
vt 0.8024174 0.7728275
vt 0.8190616 0.8051914
vt 0.8024174 0.7728275
vt 0.8024174 0.8051914
vt 0.8190616 0.8051914
vt 0.8190616 0.8458775
vt 0.5157658 0.7968693
vt 0.5157658 0.8162876
vt 0.5213139 0.7968693
vt 0.5157658 0.8162876
vt 0.5213139 0.8162876
vt 0.5213139 0.7968693
vt 0.5213139 0.8366306
vt 0.8024174 0.8051914
vt 0.8024174 0.8458775
vt 0.8190616 0.8458775
vt 0.8190616 0.8921115
vt 0.5157658 0.8421787
vt 0.5157658 0.8708439
vt 0.5213139 0.8421787
vt 0.8024174 0.8921115
vt 0.7940953 0.8921115
vt 0.8024174 0.9512913
vt 0.8024174 0.8458775
vt 0.7940953 0.8921115
vt 0.7940953 0.9512913
vt 0.8024174 0.9512913
vt 0.7940953 0.8458775
vt 0.7940953 0.8921115
vt 0.8024174 0.8458775
vt 0.8024174 0.8051914
vt 0.7940953 0.8051914
vt 0.7940953 0.8458775
vt 0.8024174 0.8051914
vt 0.7940953 0.7728275
vt 0.7940953 0.8051914
vt 0.8024174 0.7728275
vt 0.7940953 0.8051914
vt 0.8024174 0.8051914
vt 0.8024174 0.7728275
vt 0.7940953 0.7478611
vt 0.7940953 0.7728275
vt 0.8024174 0.7728275
vt 0.8366306 0.8921115
vt 0.8190616 0.8921115
vt 0.8366306 0.9512913
vt 0.8366306 0.8458775
vt 0.8190616 0.8921115
vt 0.8190616 0.9512913
vt 0.8366306 0.9512913
vt 0.8190616 0.8458775
vt 0.8190616 0.8921115
vt 0.8366306 0.8458775
vt 0.8366306 0.8051914
vt 0.8190616 0.8051914
vt 0.8190616 0.8458775
vt 0.8366306 0.8051914
vt 0.8366306 0.7728275
vt 0.8190616 0.7728275
vt 0.8190616 0.8051914
vt 0.8366306 0.7728275
vt 0.8366306 0.7478611
vt 0.4787785 0.8708439
vt 0.4787785 0.9078312
vt 0.4843266 0.8708439
vt 0.4843266 0.9078312
vt 0.4787785 0.8421787
vt 0.4787785 0.8708439
vt 0.4843266 0.8421787
vt 0.4787785 0.8162876
vt 0.4787785 0.8708439
vt 0.4843266 0.8708439
vt 0.4843266 0.8421787
vt 0.4843266 0.8162876
vt 0.4787785 0.8162876
vt 0.4843266 0.8421787
vt 0.4787785 0.800568
vt 0.4843266 0.7968693
vt 0.4787785 0.800568
vt 0.4843266 0.8162876
vt 0.8366306 0.8921115
vt 0.8366306 0.9512913
vt 0.8449528 0.8921115
vt 0.8366306 0.8458775
vt 0.8366306 0.9512913
vt 0.8449528 0.9512913
vt 0.8449528 0.8921115
vt 0.8449528 0.8458775
vt 0.8366306 0.8458775
vt 0.8449528 0.8921115
vt 0.8366306 0.8051914
vt 0.8449528 0.8051914
vt 0.8366306 0.8051914
vt 0.8449528 0.8458775
vt 0.8449528 0.7728275
vt 0.8366306 0.7728275
vt 0.8449528 0.8051914
vt 0.8366306 0.7478611
vt 0.8366306 0.7728275
vt 0.8366306 0.8051914
vt 0.8449528 0.8051914
vt 0.5157658 0.8162876
vt 0.5157658 0.8421787
vt 0.5213139 0.8366306
vn -0.07193571 -0.01280852 0.997327
vn -0.07193571 -0.01280852 0.997327
vn -0.07193571 -0.01280852 0.997327
vn -0.07624474 -0.01280852 0.9970069
vn -0.07193571 0.002991259 0.9974048
vn 0.01568119 0.0001185834 0.999877
vn 0.01568119 0.0001185834 0.999877
vn 0.01568119 0.0001185834 0.999877
vn 0.01568119 -0.01855388 0.9997049
vn 0.07744394 -0.009935826 0.9969472
vn 0.07744394 -0.009935826 0.9969472
vn 0.07744394 -0.009935826 0.9969472
vn 0.04440805 -0.02142657 0.9987837
vn 0.04440805 -0.02142657 0.9987837
vn 0.04440805 -0.02142657 0.9987837
vn -0.08342648 0.03171812 0.996009
vn -0.08342648 0.03171812 0.996009
vn -0.08342648 0.03171812 0.996009
vn -0.09204453 0.0173547 0.9956036
vn 0.1650608 0.01448201 0.986177
vn 0.1650608 0.01448201 0.986177
vn 0.1650608 0.01448201 0.986177
vn 0.01568119 -0.02286291 0.9996156
vn 0.01568119 -0.02286291 0.9996156
vn 0.01568119 -0.02286291 0.9996156
vn 0.01280852 -0.008499488 0.9998819
vn -0.05039057 0.001554921 0.9987283
vn -0.05039057 0.001554921 0.9987283
vn -0.05039057 0.001554921 0.9987283
vn -0.05326326 -0.002754107 0.9985767
vn 0.1880423 0.01448201 0.9820541
vn 0.1880423 0.01448201 0.9820541
vn 0.1880423 0.01448201 0.9820541
vn -0.004427612 -0.01280852 0.9999081
vn -0.004427612 -0.01280852 0.9999081
vn -0.004427612 -0.01280852 0.9999081
vn -0.004427612 0.002991259 0.9999857
vn 0.0659532 -0.02717194 0.9974527
vn 0.0659532 -0.02717194 0.9974527
vn 0.0659532 -0.02717194 0.9974527
vn 0.1205342 0.03602715 0.9920552
vn 0.1205342 0.03602715 0.9920552
vn 0.1205342 0.03602715 0.9920552
vn 0.136334 0.0001185834 0.9906629
vn 0.005626798 -0.04871708 0.9987968
vn 0.005626798 -0.04871708 0.9987968
vn 0.005626798 -0.04871708 0.9987968
vn 0.05302611 0.07193571 0.9959987
vn 0.05302611 0.07193571 0.9959987
vn 0.05302611 0.07193571 0.9959987
vn -0.04895423 0.03171812 0.9982973
vn -0.04895423 0.03171812 0.9982973
vn -0.04895423 0.03171812 0.9982973
vn 0.01280852 -0.03435366 0.9993277
vn 0.01280852 -0.03435366 0.9993277
vn 0.01280852 -0.03435366 0.9993277
vn 0.07888028 0.001554921 0.9968829
vn 0.07888028 0.001554921 0.9968829
vn 0.07888028 0.001554921 0.9968829
vn 0.07888028 0.02166373 0.9966487
vn 0.1420794 -0.01280852 0.9897724
vn 0.1420794 -0.01280852 0.9897724
vn 0.1420794 -0.01280852 0.9897724
vn -0.00586395 -0.002754107 0.999979
vn -0.00586395 -0.002754107 0.999979
vn -0.00586395 -0.002754107 0.999979
vn 0.005626798 -0.02860828 0.9995748
vn 0.1119162 0.0173547 0.9935661
vn 0.1119162 0.0173547 0.9935661
vn 0.1119162 0.0173547 0.9935661
vn 0.09611639 0.03889984 0.9946097
vn -0.01591834 -0.02142657 0.9996437
vn -0.01591834 -0.02142657 0.9996437
vn -0.01591834 -0.02142657 0.9996437
vn -0.03746349 0.01160932 0.9992306
vn -0.007300287 -0.01999022 0.9997736
vn -0.007300287 -0.01999022 0.9997736
vn -0.007300287 -0.01999022 0.9997736
vn -0.05326326 -0.02717194 0.9982107
vn -0.1710434 0.00873664 0.9852248
vn -0.1710434 0.00873664 0.9852248
vn -0.1710434 0.00873664 0.9852248
vn -0.1782251 0.02740909 0.9836079
vn -0.007300287 0.03746349 0.9992713
vn -0.007300287 0.03746349 0.9992713
vn -0.007300287 0.03746349 0.9992713
vn 0.1478247 -0.04871708 0.987813
vn 0.1478247 -0.04871708 0.987813
vn 0.1478247 -0.04871708 0.987813
vn 0.1664972 -0.009935826 0.9859918
vn -0.1035353 0.07193571 0.992021
vn -0.1035353 0.07193571 0.992021
vn -0.1035353 0.07193571 0.992021
vn -0.0848628 0.001554921 0.9963914
vn -0.0848628 0.001554921 0.9963914
vn -0.0848628 0.001554921 0.9963914
vn -0.0848628 0.02166373 0.9961571
vn -0.1365711 -0.009935826 0.9905804
vn -0.1365711 -0.009935826 0.9905804
vn -0.1365711 -0.009935826 0.9905804
vn -0.06331766 0.01591834 0.9978665
vn -0.06331766 0.01591834 0.9978665
vn -0.06331766 0.01591834 0.9978665
vn -0.06762668 -0.02860828 0.9973004
vn -0.07911745 -0.02429925 0.9965691
vn -0.07911745 -0.02429925 0.9965691
vn -0.07911745 -0.02429925 0.9965691
vn 0.01137216 0.01448201 0.9998304
vn 0.01137216 0.01448201 0.9998304
vn 0.01137216 0.01448201 0.9998304
vn 0.01137216 0.01160932 0.9998679
vn -0.04177251 0.03889984 0.9983696
vn -0.04177251 0.03889984 0.9983696
vn -0.04177251 0.03889984 0.9983696
vn 0.07457125 -0.02429925 0.9969196
vn 0.07457125 -0.02429925 0.9969196
vn 0.07457125 -0.02429925 0.9969196
g lavaCaveBanner01_0
f 3/3/3 2/2/2 1/1/1
f 3/3/3 4/4/4 2/2/2
f 3/3/3 1/1/1 5/5/5
f 8/8/8 7/7/7 6/6/6
f 9/9/9 6/6/6 7/7/7
f 12/12/12 11/11/11 10/10/10
f 15/15/15 14/14/14 13/13/13
f 18/18/18 17/17/17 16/16/16
f 19/19/19 17/17/17 18/18/18
f 22/22/22 21/21/21 20/20/20
f 25/25/25 24/24/24 23/23/23
f 26/26/26 23/23/23 24/24/24
f 29/29/29 28/28/28 27/27/27
f 30/30/30 28/28/28 29/29/29
f 33/33/33 32/32/32 31/31/31
f 36/36/36 35/35/35 34/34/34
f 37/37/37 34/34/34 35/35/35
f 40/40/40 39/39/39 38/38/38
f 43/43/43 42/42/42 41/41/41
f 44/44/44 43/43/43 41/41/41
f 47/47/47 46/46/46 45/45/45
f 50/50/50 49/49/49 48/48/48
f 53/53/53 52/52/52 51/51/51
f 56/56/56 55/55/55 54/54/54
f 59/59/59 58/58/58 57/57/57
f 60/60/60 57/57/57 58/58/58
f 63/63/63 62/62/62 61/61/61
f 66/66/66 65/65/65 64/64/64
f 67/67/67 66/66/66 64/64/64
f 70/70/70 69/69/69 68/68/68
f 71/71/71 70/70/70 68/68/68
f 74/74/74 73/73/73 72/72/72
f 75/75/75 74/74/74 72/72/72
f 78/78/78 77/77/77 76/76/76
f 78/78/78 79/79/79 77/77/77
f 82/82/82 81/81/81 80/80/80
f 82/82/82 80/80/80 83/83/83
f 86/86/86 85/85/85 84/84/84
f 89/89/89 88/88/88 87/87/87
f 87/87/87 88/88/88 90/90/90
f 93/93/93 92/92/92 91/91/91
f 96/96/96 95/95/95 94/94/94
f 96/96/96 94/94/94 97/97/97
f 100/100/100 99/99/99 98/98/98
f 103/103/103 102/102/102 101/101/101
f 101/101/101 102/102/102 104/104/104
f 107/107/107 106/106/106 105/105/105
f 110/110/110 109/109/109 108/108/108
f 108/108/108 109/109/109 111/111/111
f 114/114/114 113/113/113 112/112/112
f 117/117/117 116/116/116 115/115/115
