g lavacaveDio_Lava
v 3.672525 -4.768372E-06 8.220427
v 5.809934 -4.768372E-06 6.929039
v 6.179466 -4.768372E-06 7.443228
v 5.285226 -4.768372E-06 9.468855
v 4.298055 -4.768372E-06 11.5541
v 2.909791 -4.768372E-06 9.931318
v 3.27757 -4.768372E-06 13.06247
v 2.153633 -4.768372E-06 10.96101
v 0.5830145 -4.768372E-06 11.43268
v 1.60613 -4.768372E-06 13.72877
v -0.05435085 -4.768372E-06 13.21064
v -0.04733753 -4.768372E-06 14.23156
v 2.539383 -4.768372E-06 15.74475
v 0.3699751 -4.768372E-06 15.3213
v 3.918442 -4.768372E-06 15.0618
v 5.538155 -4.768372E-06 12.97875
v 6.49508 -4.768372E-06 10.40561
v 6.678311 -4.768372E-06 8.137577
v 7.107459 -4.768372E-06 -1.56887
v 10.44245 -4.768372E-06 -0.8319988
v 8.608379 -4.768372E-06 0.8333035
v 6.618695 -4.768372E-06 3.132465
v 5.200185 -4.768372E-06 2.158444
v 4.078002 -4.768372E-06 3.164026
v 5.240514 -4.768372E-06 4.636454
v 2.773902 -4.768372E-06 4.332237
v 3.48491 -4.768372E-06 6.018141
v 1.845909 -4.768372E-06 6.173758
v 2.054127 -4.768372E-06 6.804546
v 4.112632 -4.768372E-06 7.50635
v 2.254454 -4.768372E-06 7.410351
v 6.129055 -4.768372E-06 5.897594
v 7.608057 -4.768372E-06 4.13936
v 9.790178 -4.768372E-06 3.045233
v 5.182213 -4.768372E-06 -10.87642
v 6.441601 -4.768372E-06 -11.66896
v 7.116226 -4.768372E-06 -9.408812
v 5.630648 -4.768372E-06 -8.108656
v 3.569074 -4.768372E-06 -7.729043
v 3.342884 -4.768372E-06 -10.45121
v 2.282509 -4.768372E-06 -8.994129
v 2.350891 -4.768372E-06 -7.598414
v 8.750405 -4.768372E-06 -11.62775
v 8.529037 -4.768372E-06 -12.9827
v 3.795703 -4.768372E-06 -5.006433
v 2.419274 -4.768372E-06 -6.202698
v 6.079083 -4.768372E-06 -5.341335
v 7.791289 -4.768372E-06 -7.148664
v 8.971773 -4.768372E-06 -10.27237
v -5.991402 -4.768372E-06 -6.98472
v -4.638645 -4.768372E-06 -6.739681
v -4.770151 -4.768372E-06 -5.234815
v -7.334515 -4.768372E-06 -5.64862
v -6.614302 -4.768372E-06 -3.436254
v -4.527742 -4.768372E-06 -2.940038
v -5.268559 -4.768372E-06 -2.074291
v -4.363798 -4.768372E-06 -2.004154
v -2.440743 -4.768372E-06 -2.444261
v -3.459476 -4.768372E-06 -1.934456
v -2.205787 -4.768372E-06 -4.820572
v -3.286327 -4.768372E-06 -6.494641
v -3.331476 -4.768372E-06 7.818018
v -2.319758 -4.768372E-06 8.050783
v -2.496414 -4.768372E-06 8.720148
v -3.825062 -4.768372E-06 9.063379
v -4.951191 -4.768372E-06 7.414734
v -5.92565 -4.768372E-06 8.776697
v -6.221975 -4.768372E-06 6.342085
v -7.635225 -4.768372E-06 7.294188
v -7.066681 -4.768372E-06 5.048506
v -9.051544 -4.768372E-06 5.348778
v -8.335276 -4.768372E-06 3.795692
v -6.584494 -4.768372E-06 3.893446
v -6.442028 -4.768372E-06 2.603373
v -8.563658 -4.768372E-06 1.915597
v -5.783184 -4.768372E-06 1.431217
v -8.447931 -4.768372E-06 0.1928701
v -5.229107 -4.768372E-06 0.3213081
v -7.302954 -4.768372E-06 -0.6570959
v -4.319086 -4.768372E-06 -0.2783594
v -5.209381 -4.768372E-06 -0.8398895
v -3.118437 -4.768372E-06 2.669564
v -4.319963 -4.768372E-06 3.29071
v -6.442028 -4.768372E-06 2.603373
v -4.833712 -4.768372E-06 3.990759
v -6.584494 -4.768372E-06 3.893446
v -5.081381 -4.768372E-06 4.748234
v -6.221975 -4.768372E-06 6.342085
v -4.809164 -4.768372E-06 5.390421
v -4.951191 -4.768372E-06 7.414734
v -3.976732 -4.768372E-06 6.053209
v -3.331476 -4.768372E-06 7.818018
v -2.83833 -4.768372E-06 6.57222
v -2.143103 -4.768372E-06 7.381418
v -3.154821 -4.768372E-06 1.299273
v -3.428791 -4.768372E-06 0.2831707
vt 0.04486054 1.218716
vt 0.1368282 1.750245
vt 0.3917307 1.687968
vt 0.4525598 1.15499
vt 0.5597346 0.6068048
vt 0.05282623 0.6241844
vt 0.4641462 0.2070712
vt 0.02168757 0.1665186
vt 0.005032063 -0.2266975
vt 0.4460424 -0.2281458
vt 0.1100345 -0.5438774
vt 0.393179 -0.6430866
vt 0.9464334 -0.2216284
vt 0.8312928 -0.659018
vt 0.9413643 0.1505871
vt 0.9377435 0.5959424
vt 0.865328 1.107196
vt 0.8088439 1.603242
vt 0.02820498 1.380202
vt 0.3120736 1.984872
vt 0.4330075 1.397582
vt 0.4525598 0.6480816
vt 0.0767234 0.5640796
vt 0.07455093 0.1991056
vt 0.4836984 0.1556563
vt 0.0767234 -0.3744251
vt 0.4873192 -0.3700802
vt 0.131035 -0.7517098
vt 0.5314927 -0.7632963
vt 0.9058807 -0.3671836
vt 0.860259 -0.7741586
vt 0.9000874 0.09917217
vt 0.8856043 0.6524265
vt 0.9442609 1.370788
vt 0.03110164 0.4453182
vt 0.07020599 0.8588106
vt 0.5018023 0.8276719
vt 0.5206303 0.4040413
vt 0.5046989 -0.1028671
vt 0.03254992 -0.0123477
vt 0.1657944 -0.3396657
vt 0.4779052 -0.3975981
vt 0.4264901 1.423651
vt 0.1390007 1.483756
vt 0.9645372 -0.1941106
vt 0.8588106 -0.4555305
vt 0.9768479 0.3634887
vt 0.9384677 0.7965333
vt 0.8385343 1.362823
vt 0.1375523 1.058677
vt 0.4873192 0.9992967
vt 0.4554563 0.6350468
vt 0.02023929 0.7349802
vt 0.05065376 0.1998298
vt 0.5141129 0.07961994
vt 0.3345225 -0.1303849
vt 0.5539414 -0.1470405
vt 0.9594682 -0.04058975
vt 0.8689488 -0.1644202
vt 0.9804687 0.5351134
vt 0.884156 0.939916
vt 0.4344559 -0.7068123
vt 0.4612496 -0.9566457
vt 0.1440697 -0.9689563
vt 0.08251661 -0.691605
vt 0.3924549 -0.3121478
vt 0.05210215 -0.2549396
vt 0.3924549 0.1621737
vt 0.04920548 0.168691
vt 0.3671095 0.5466999
vt 0.02458423 0.5568381
vt 0.04920548 0.8559141
vt 0.4018689 0.8327411
vt 0.4518356 1.11661
vt 0.03254992 1.122403
vt 0.4742844 1.436686
vt 0.02965331 1.454066
vt 0.4902158 1.736486
vt 0.03834313 1.753866
vt 0.79943 1.958078
vt 0.1773809 1.996458
vt 0.9667097 1.419307
vt 0.9333985 1.111541
vt 0.4518356 1.11661
vt 0.9044324 0.8088439
vt 0.4018689 0.8327411
vt 0.9087773 0.5365617
vt 0.3924549 0.1621737
vt 0.9008116 0.1556563
vt 0.3924549 -0.3121478
vt 0.8986391 -0.369356
vt 0.4344559 -0.7068123
vt 0.8928459 -0.7212954
vt 0.7755328 -0.944335
vt 0.9420884 1.719831
vt 0.9145706 1.918973
vn 0 1 0
vn 0 1 0
vn 0 1 0
vn 0 1 0
vn 0 1 0
vn 0 1 0
vn 0 1 0
vn 0 1 0
vn 0 1 0
vn 0 1 0
vn 0 1 0
vn 0 1 0
vn 0 1 0
vn 0 1 0
vn 0 1 0
vn 0 1 0
vn 0 1 0
vn 0 1 0
vn 0 1 0
vn 0 1 0
vn 0 1 0
vn 0 1 0
vn 0 1 0
vn 0 1 0
vn 0 1 0
vn 0 1 0
vn 0 1 0
vn 0 1 0
vn 0 1 0
vn 0 1 0
vn 0 1 0
vn 0 1 0
vn 0 1 0
vn 0 1 0
vn 0 1 0
vn 0 1 0
vn 0 1 0
vn 0 1 0
vn 0 1 0
vn 0 1 0
vn 0 1 0
vn 0 1 0
vn 0 1 0
vn 0 1 0
vn 0 1 0
vn 0 1 0
vn 0 1 0
vn 0 1 0
vn 0 1 0
vn 0 1 0
vn 0 1 0
vn 0 1 0
vn 0 1 0
vn 0 1 0
vn 0 1 0
vn 0 1 0
vn 0 1 0
vn 0 1 0
vn 0 1 0
vn 0 1 0
vn 0 1 0
vn 0 1 0
vn 0 1 0
vn 0 1 0
vn 0 1 0
vn 0 1 0
vn 0 1 0
vn 0 1 0
vn 0 1 0
vn 0 1 0
vn 0 1 0
vn 0 1 0
vn 0 1 0
vn 0 1 0
vn 0 1 0
vn 0 1 0
vn 0 1 0
vn 0 1 0
vn 0 1 0
vn 0 1 0
vn 0 1 0
vn 0 1 0
vn 0 1 0
vn 0 1 0
vn 0 1 0
vn 0 1 0
vn 0 1 0
vn 0 1 0
vn 0 1 0
vn 0 1 0
vn 0 1 0
vn 0 1 0
vn 0 1 0
vn 0 1 0
vn 0 1 0
vn 0 1 0
g lavacaveDio_Lava_0
f 3/3/3 2/2/2 1/1/1
f 4/4/4 3/3/3 1/1/1
f 5/5/5 4/4/4 1/1/1
f 6/6/6 5/5/5 1/1/1
f 7/7/7 5/5/5 6/6/6
f 8/8/8 7/7/7 6/6/6
f 8/8/8 9/9/9 7/7/7
f 9/9/9 10/10/10 7/7/7
f 9/9/9 11/11/11 10/10/10
f 11/11/11 12/12/12 10/10/10
f 10/10/10 12/12/12 13/13/13
f 12/12/12 14/14/14 13/13/13
f 10/10/10 13/13/13 15/15/15
f 7/7/7 10/10/10 15/15/15
f 7/7/7 15/15/15 5/5/5
f 15/15/15 16/16/16 5/5/5
f 5/5/5 16/16/16 4/4/4
f 16/16/16 17/17/17 4/4/4
f 4/4/4 17/17/17 3/3/3
f 17/17/17 18/18/18 3/3/3
f 21/21/21 20/20/20 19/19/19
f 22/22/22 21/21/21 19/19/19
f 23/23/23 22/22/22 19/19/19
f 23/23/23 24/24/24 22/22/22
f 24/24/24 25/25/25 22/22/22
f 24/24/24 26/26/26 25/25/25
f 26/26/26 27/27/27 25/25/25
f 26/26/26 28/28/28 27/27/27
f 28/28/28 29/29/29 27/27/27
f 27/27/27 29/29/29 30/30/30
f 29/29/29 31/31/31 30/30/30
f 27/27/27 30/30/30 32/32/32
f 25/25/25 27/27/27 32/32/32
f 25/25/25 32/32/32 33/33/33
f 22/22/22 25/25/25 33/33/33
f 22/22/22 33/33/33 21/21/21
f 33/33/33 34/34/34 21/21/21
f 21/21/21 34/34/34 20/20/20
f 37/37/37 36/36/36 35/35/35
f 38/38/38 37/37/37 35/35/35
f 39/39/39 38/38/38 35/35/35
f 40/40/40 39/39/39 35/35/35
f 40/40/40 41/41/41 39/39/39
f 41/41/41 42/42/42 39/39/39
f 37/37/37 43/43/43 36/36/36
f 43/43/43 44/44/44 36/36/36
f 39/39/39 42/42/42 45/45/45
f 39/39/39 45/45/45 38/38/38
f 42/42/42 46/46/46 45/45/45
f 45/45/45 47/47/47 38/38/38
f 38/38/38 47/47/47 37/37/37
f 47/47/47 48/48/48 37/37/37
f 37/37/37 48/48/48 43/43/43
f 48/48/48 49/49/49 43/43/43
f 52/52/52 51/51/51 50/50/50
f 53/53/53 52/52/52 50/50/50
f 53/53/53 54/54/54 52/52/52
f 54/54/54 55/55/55 52/52/52
f 54/54/54 56/56/56 55/55/55
f 56/56/56 57/57/57 55/55/55
f 55/55/55 57/57/57 58/58/58
f 57/57/57 59/59/59 58/58/58
f 55/55/55 58/58/58 60/60/60
f 52/52/52 55/55/55 60/60/60
f 52/52/52 60/60/60 51/51/51
f 60/60/60 61/61/61 51/51/51
f 64/64/64 63/63/63 62/62/62
f 65/65/65 64/64/64 62/62/62
f 65/65/65 62/62/62 66/66/66
f 67/67/67 65/65/65 66/66/66
f 67/67/67 66/66/66 68/68/68
f 69/69/69 67/67/67 68/68/68
f 69/69/69 68/68/68 70/70/70
f 71/71/71 69/69/69 70/70/70
f 71/71/71 70/70/70 72/72/72
f 70/70/70 73/73/73 72/72/72
f 73/73/73 74/74/74 72/72/72
f 74/74/74 75/75/75 72/72/72
f 74/74/74 76/76/76 75/75/75
f 76/76/76 77/77/77 75/75/75
f 76/76/76 78/78/78 77/77/77
f 78/78/78 79/79/79 77/77/77
f 78/78/78 80/80/80 79/79/79
f 80/80/80 81/81/81 79/79/79
f 76/76/76 82/82/82 78/78/78
f 83/83/83 82/82/82 76/76/76
f 84/84/84 83/83/83 76/76/76
f 85/85/85 83/83/83 84/84/84
f 86/86/86 85/85/85 84/84/84
f 87/87/87 85/85/85 86/86/86
f 70/70/70 87/87/87 86/86/86
f 70/70/70 88/88/88 87/87/87
f 88/88/88 89/89/89 87/87/87
f 88/88/88 90/90/90 89/89/89
f 90/90/90 91/91/91 89/89/89
f 90/90/90 92/92/92 91/91/91
f 92/92/92 93/93/93 91/91/91
f 92/92/92 63/63/63 93/93/93
f 63/63/63 94/94/94 93/93/93
f 82/82/82 95/95/95 78/78/78
f 78/78/78 95/95/95 80/80/80
f 95/95/95 96/96/96 80/80/80
