g lavaCaveBanner03
v -0.3915277 -1.738146 0.01804638
v -0.3915277 8.106232E-06 0.01843548
v -8.106232E-06 -1.738146 0.0209012
v -0.3915277 -3.237911 0.06878662
v -0.3915277 8.106232E-06 0.01843548
v -8.106232E-06 8.106232E-06 0.0452981
v -8.106232E-06 -1.738146 0.0209012
v 0.7547407 -1.738146 0.02505398
v 0.7547407 8.106232E-06 0.0275197
v 1.006237 -1.738146 0.01921415
v 1.006237 -3.11943 0.01830578
v 0.7547407 8.106232E-06 0.0275197
v 1.006237 8.106232E-06 0.001695156
v 1.006237 -1.738146 0.01921415
v -0.3915277 -6.12947 0.04062653
v -8.106232E-06 -5.920798 0.09824467
v -8.106232E-06 -6.843081 0.08422947
v 0.5031142 -6.843081 0.1121302
v 0.2516179 -6.843081 0.0728097
v 0.4574351 -6.492829 0.02518368
v 0.5031142 -6.843081 0.1121302
v 0.3390837 -7.197746 0.0484128
v 0.2516179 -6.843081 0.0728097
v 0.3390837 -7.197746 0.0484128
v 0.1737552 -7.024761 0.0520463
v 0.2516179 -6.843081 0.0728097
v -8.106232E-06 -5.920798 0.09824467
v -0.3915277 -6.12947 0.04062653
v -8.106232E-06 -5.333454 0.0138936
v -0.3915277 -6.12947 0.04062653
v -0.3915277 -5.251958 0.04062653
v -8.106232E-06 -5.333454 0.0138936
v -0.3915277 -4.443484 0.04724503
v -0.3915277 -4.443484 0.04724503
v -8.106232E-06 -4.282179 0.0794282
v -8.106232E-06 -5.333454 0.0138936
v -0.3915277 -3.237911 0.06878662
v 0.7547407 -5.413783 0.004809856
v 0.7547407 -4.231308 0.09253502
v 1.006237 -5.251958 0.05451202
v 0.7547407 -4.231308 0.09253502
v 1.006237 -4.318904 0.01441288
v 1.006237 -5.251958 0.05451202
v 1.006237 -3.11943 0.01830578
v -0.3915277 -3.237911 0.06878662
v -8.106232E-06 -3.218185 0.0763135
v -8.106232E-06 -4.282179 0.0794282
v -8.106232E-06 -1.738146 0.0209012
v 0.7547407 -4.231308 0.09253502
v 0.7547407 -3.243231 0.1212144
v 1.006237 -3.11943 0.01830578
v 0.7547407 -3.243231 0.1212144
v 0.7547407 -1.738146 0.02505398
v 1.006237 -3.11943 0.01830578
v -0.7546272 -1.738146 0.1140771
v -0.7546272 8.106232E-06 0.1053824
v -0.3915277 -1.738146 0.01804638
v -0.3915277 8.106232E-06 0.01843548
v -0.3915277 -3.237911 0.06878662
v -0.7546272 -3.026514 0.04724503
v -0.3915277 -1.738146 0.01804638
v -0.7546272 -4.318904 0.1244588
v -0.7546272 -3.026514 0.04724503
v -0.7546272 -1.738146 0.1140771
v -0.3915277 -1.738146 0.01804638
v -0.3915277 -4.443484 0.04724503
v -0.7546272 -4.318904 0.1244588
v -0.3915277 -3.237911 0.06878662
v -0.3915277 -5.251958 0.04062653
v -0.7546272 -5.251958 0.03751183
v -0.3915277 -4.443484 0.04724503
v -0.7546272 -5.987241 0.02129078
v -0.7546272 -5.251958 0.03751183
v -0.7546272 -4.318904 0.1244588
v -0.3915277 -4.443484 0.04724503
v -0.3915277 -6.12947 0.04062653
v -0.7546272 -5.987241 0.02129078
v -0.3915277 -5.251958 0.04062653
v -0.7546272 -5.987241 0.02129078
v -0.3915277 -6.12947 0.04062653
v -0.314703 -6.777936 0.1161532
v -0.3915277 -6.12947 0.04062653
v -8.106232E-06 -6.843081 0.08422947
v -0.314703 -6.777936 0.1161532
v -8.106232E-06 -1.738146 0.0209012
v -8.106232E-06 8.106232E-06 0.0452981
v 0.3915114 -1.738146 0.07722187
v 0.3915114 8.106232E-06 0.1052523
v 0.3915114 -3.061681 0.02479458
v -8.106232E-06 -3.218185 0.0763135
v -8.106232E-06 -1.738146 0.0209012
v 0.3915114 -3.061681 0.02479458
v 0.3915114 -4.373278 0.05295467
v -8.106232E-06 -4.282179 0.0794282
v -8.106232E-06 -3.218185 0.0763135
v 0.3915114 -4.373278 0.05295467
v 0.3915114 -5.251958 0.03751183
v -8.106232E-06 -5.333454 0.0138936
v 0.3915114 -4.373278 0.05295467
v -8.106232E-06 -5.333454 0.0138936
v -8.106232E-06 -4.282179 0.0794282
v 0.3915114 -4.373278 0.05295467
v 0.3915114 -5.91976 0.08487844
v -8.106232E-06 -5.920798 0.09824467
v 0.3915114 -5.251958 0.03751183
v -8.106232E-06 -5.920798 0.09824467
v -8.106232E-06 -5.333454 0.0138936
v 0.3915114 -5.251958 0.03751183
v -8.106232E-06 -6.843081 0.08422947
v -8.106232E-06 -5.920798 0.09824467
v 0.3915114 -5.91976 0.08487844
v 0.2516179 -6.843081 0.0728097
v -0.7546272 -1.738146 0.1140771
v -1.006253 -1.738146 0.1110921
v -0.7546272 8.106232E-06 0.1053824
v -1.006253 -1.738146 0.1110921
v -1.006253 8.106232E-06 0.0382905
v -0.7546272 8.106232E-06 0.1053824
v -1.006253 -3.194048 0.0314126
v -1.006253 -1.738146 0.1110921
v -0.7546272 -3.026514 0.04724503
v -1.006253 -1.738146 0.1110921
v -0.7546272 -1.738146 0.1140771
v -0.7546272 -3.026514 0.04724503
v -0.7546272 -4.318904 0.1244588
v -1.006253 -4.318904 0.03673315
v -0.7546272 -3.026514 0.04724503
v -1.006253 -4.318904 0.03673315
v -1.006253 -3.194048 0.0314126
v -0.7546272 -3.026514 0.04724503
v -1.006253 -5.131401 0.004809856
v -1.006253 -4.318904 0.03673315
v -0.7546272 -5.251958 0.03751183
v -1.006253 -4.318904 0.03673315
v -0.7546272 -4.318904 0.1244588
v -0.7546272 -5.251958 0.03751183
v -1.006253 -5.987241 0.1014891
v -1.006253 -5.494111 0.09344339
v -0.7546272 -5.987241 0.02129078
v -1.006253 -5.494111 0.09344339
v -0.7546272 -5.251958 0.03751183
v -0.7546272 -5.987241 0.02129078
v -0.8618183 -6.233027 0.04023695
v -0.7546272 -5.987241 0.02129078
v -0.5031309 -6.843081 0.01843548
v -0.7546272 -5.987241 0.02129078
v -0.314703 -6.777936 0.1161532
v -0.5031309 -6.843081 0.01843548
v 0.7547407 -1.738146 0.02505398
v 0.3915114 -1.738146 0.07722187
v 0.7547407 8.106232E-06 0.0275197
v 0.3915114 -3.061681 0.02479458
v 0.3915114 -1.738146 0.07722187
v 0.3915114 8.106232E-06 0.1052523
v 0.7547407 8.106232E-06 0.0275197
v 0.7547407 -3.243231 0.1212144
v 0.3915114 -3.061681 0.02479458
v 0.7547407 -1.738146 0.02505398
v 0.3915114 -4.373278 0.05295467
v 0.7547407 -4.231308 0.09253502
v 0.3915114 -4.373278 0.05295467
v 0.7547407 -3.243231 0.1212144
v 0.3915114 -5.251958 0.03751183
v 0.3915114 -4.373278 0.05295467
v 0.7547407 -5.413783 0.004809856
v 0.3915114 -4.373278 0.05295467
v 0.7547407 -4.231308 0.09253502
v 0.7547407 -5.413783 0.004809856
v 0.3915114 -5.91976 0.08487844
v 0.3915114 -5.251958 0.03751183
v 0.7547407 -5.987241 0.07203102
v 0.3915114 -5.251958 0.03751183
v 0.7547407 -5.413783 0.004809856
v 0.7547407 -5.987241 0.07203102
v 0.4574351 -6.492829 0.02518368
v 0.2516179 -6.843081 0.0728097
v 0.3915114 -5.91976 0.08487844
v 0.1737552 -7.024761 0.0520463
v -8.106232E-06 -6.843081 0.08422947
v 0.2516179 -6.843081 0.0728097
v -0.314703 -6.777936 0.1161532
v -8.106232E-06 -6.843081 0.08422947
v -0.1047335 -7.186196 0.04945087
v -0.5031309 -6.843081 0.01843548
v -0.314703 -6.777936 0.1161532
v -0.2001152 -7.498296 0.009740829
v -0.314703 -6.777936 0.1161532
v -0.1047335 -7.186196 0.04945087
v -0.2001152 -7.498296 0.009740829
v -1.006253 -5.987241 0.1014891
v -0.7546272 -5.987241 0.02129078
v -0.8618183 -6.233027 0.04023695
v 1.006237 -5.987241 0.08409977
v 0.7547407 -5.987241 0.07203102
v 1.006237 -5.522141 0.09032869
v 0.659359 -6.57744 0.06502342
v 0.7547407 -5.987241 0.07203102
v 0.7547407 -5.413783 0.004809856
v 1.006237 -5.522141 0.09032869
v 0.659359 -6.57744 0.06502342
v 0.4574351 -6.492829 0.02518368
v 0.7547407 -5.987241 0.07203102
v 0.3915114 -5.91976 0.08487844
v 0.7547407 -5.987241 0.07203102
v 0.4574351 -6.492829 0.02518368
vt 0.8024174 0.8921115
vt 0.8024174 0.9512913
vt 0.8190616 0.8921115
vt 0.8024174 0.8458775
vt 0.8024174 0.9512913
vt 0.8190616 0.9512913
vt 0.8190616 0.8921115
vt 0.5157658 0.8708439
vt 0.5157658 0.9078312
vt 0.5213139 0.8708439
vt 0.5213139 0.8421787
vt 0.5157658 0.9078312
vt 0.5213139 0.9078312
vt 0.5213139 0.8708439
vt 0.8024174 0.7478611
vt 0.8190616 0.7478611
vt 0.8190616 0.719196
vt 0.5102177 0.7635807
vt 0.5055943 0.7635807
vt 0.5092931 0.7709782
vt 0.5102177 0.7635807
vt 0.5074437 0.7561833
vt 0.5055943 0.7635807
vt 0.5074437 0.7561833
vt 0.503745 0.759882
vt 0.5055943 0.7635807
vt 0.8190616 0.7478611
vt 0.8024174 0.7478611
vt 0.8190616 0.7728275
vt 0.8024174 0.7478611
vt 0.8024174 0.7728275
vt 0.8190616 0.7728275
vt 0.8024174 0.8051914
vt 0.8024174 0.8051914
vt 0.8190616 0.8051914
vt 0.8190616 0.7728275
vt 0.8024174 0.8458775
vt 0.5157658 0.7968693
vt 0.5157658 0.8162876
vt 0.5213139 0.7968693
vt 0.5157658 0.8162876
vt 0.5213139 0.8162876
vt 0.5213139 0.7968693
vt 0.5213139 0.8421787
vt 0.8024174 0.8458775
vt 0.8190616 0.8458775
vt 0.8190616 0.8051914
vt 0.8190616 0.8921115
vt 0.5157658 0.8162876
vt 0.5157658 0.8421787
vt 0.5213139 0.8421787
vt 0.5157658 0.8421787
vt 0.5157658 0.8708439
vt 0.5213139 0.8421787
vt 0.7940953 0.8921115
vt 0.7940953 0.9512913
vt 0.8024174 0.8921115
vt 0.8024174 0.9512913
vt 0.8024174 0.8458775
vt 0.7940953 0.8458775
vt 0.8024174 0.8921115
vt 0.7940953 0.8051914
vt 0.7940953 0.8458775
vt 0.7940953 0.8921115
vt 0.8024174 0.8921115
vt 0.8024174 0.8051914
vt 0.7940953 0.8051914
vt 0.8024174 0.8458775
vt 0.8024174 0.7728275
vt 0.7940953 0.7728275
vt 0.8024174 0.8051914
vt 0.7940953 0.7478611
vt 0.7940953 0.7728275
vt 0.7940953 0.8051914
vt 0.8024174 0.8051914
vt 0.8024174 0.7478611
vt 0.7940953 0.7478611
vt 0.8024174 0.7728275
vt 0.7940953 0.7478611
vt 0.8024174 0.7478611
vt 0.8107395 0.719196
vt 0.8024174 0.7478611
vt 0.8190616 0.719196
vt 0.8107395 0.719196
vt 0.8190616 0.8921115
vt 0.8190616 0.9512913
vt 0.8366306 0.8921115
vt 0.8366306 0.9512913
vt 0.8366306 0.8458775
vt 0.8190616 0.8458775
vt 0.8190616 0.8921115
vt 0.8366306 0.8458775
vt 0.8366306 0.8051914
vt 0.8190616 0.8051914
vt 0.8190616 0.8458775
vt 0.8366306 0.8051914
vt 0.8366306 0.7728275
vt 0.8190616 0.7728275
vt 0.8366306 0.8051914
vt 0.8190616 0.7728275
vt 0.8190616 0.8051914
vt 0.8366306 0.8051914
vt 0.8366306 0.7478611
vt 0.8190616 0.7478611
vt 0.8366306 0.7728275
vt 0.8190616 0.7478611
vt 0.8190616 0.7728275
vt 0.8366306 0.7728275
vt 0.8190616 0.719196
vt 0.8190616 0.7478611
vt 0.8366306 0.7478611
vt 0.8283085 0.719196
vt 0.4843266 0.8708439
vt 0.4787785 0.8708439
vt 0.4843266 0.9078312
vt 0.4787785 0.8708439
vt 0.4787785 0.9078312
vt 0.4843266 0.9078312
vt 0.4787785 0.8421787
vt 0.4787785 0.8708439
vt 0.4843266 0.8421787
vt 0.4787785 0.8708439
vt 0.4843266 0.8708439
vt 0.4843266 0.8421787
vt 0.4843266 0.8162876
vt 0.4787785 0.8162876
vt 0.4843266 0.8421787
vt 0.4787785 0.8162876
vt 0.4787785 0.8421787
vt 0.4843266 0.8421787
vt 0.4787785 0.7968693
vt 0.4787785 0.8162876
vt 0.4843266 0.7968693
vt 0.4787785 0.8162876
vt 0.4843266 0.8162876
vt 0.4843266 0.7968693
vt 0.4787785 0.7811497
vt 0.4787785 0.7922459
vt 0.4843266 0.7811497
vt 0.4787785 0.7922459
vt 0.4843266 0.7968693
vt 0.4843266 0.7811497
vt 0.4815526 0.7765263
vt 0.4843266 0.7811497
vt 0.48895 0.7635807
vt 0.4843266 0.7811497
vt 0.4944981 0.7635807
vt 0.48895 0.7635807
vt 0.8449528 0.8921115
vt 0.8366306 0.8921115
vt 0.8449528 0.9512913
vt 0.8366306 0.8458775
vt 0.8366306 0.8921115
vt 0.8366306 0.9512913
vt 0.8449528 0.9512913
vt 0.8449528 0.8458775
vt 0.8366306 0.8458775
vt 0.8449528 0.8921115
vt 0.8366306 0.8051914
vt 0.8449528 0.8051914
vt 0.8366306 0.8051914
vt 0.8449528 0.8458775
vt 0.8366306 0.7728275
vt 0.8366306 0.8051914
vt 0.8449528 0.7728275
vt 0.8366306 0.8051914
vt 0.8449528 0.8051914
vt 0.8449528 0.7728275
vt 0.8366306 0.7478611
vt 0.8366306 0.7728275
vt 0.8449528 0.7478611
vt 0.8366306 0.7728275
vt 0.8449528 0.7728275
vt 0.8449528 0.7478611
vt 0.8347813 0.7312168
vt 0.8283085 0.719196
vt 0.8366306 0.7478611
vt 0.8255345 0.7127232
vt 0.8190616 0.719196
vt 0.8283085 0.719196
vt 0.8107395 0.719196
vt 0.8190616 0.719196
vt 0.8162876 0.7071751
vt 0.48895 0.7635807
vt 0.4944981 0.7635807
vt 0.4954228 0.7497105
vt 0.4944981 0.7635807
vt 0.4981969 0.7561833
vt 0.4954228 0.7497105
vt 0.4787785 0.7811497
vt 0.4843266 0.7811497
vt 0.4815526 0.7765263
vt 0.5213139 0.7811497
vt 0.5157658 0.7811497
vt 0.5213139 0.7922459
vt 0.5139165 0.7691288
vt 0.5157658 0.7811497
vt 0.5157658 0.7968693
vt 0.5213139 0.7922459
vt 0.5139165 0.7691288
vt 0.5092931 0.7709782
vt 0.5157658 0.7811497
vt 0.8366306 0.7478611
vt 0.8449528 0.7478611
vt 0.8347813 0.7312168
vn -0.008105189 -0.001439899 0.9999661
vn -0.008105189 -0.001439899 0.9999661
vn -0.008105189 -0.001439899 0.9999661
vn -0.008105189 0.03355882 0.9994039
vn -0.06855753 -0.01416671 0.9975466
vn -0.06855753 -0.01416671 0.9975466
vn -0.06855753 -0.01416671 0.9975466
vn 0.02371183 -0.001439899 0.9997178
vn 0.02371183 -0.001439899 0.9997178
vn 0.02371183 -0.001439899 0.9997178
vn 0.02371183 -0.001439899 0.9997178
vn 0.1032544 0.01128688 0.9945909
vn 0.1032544 0.01128688 0.9945909
vn 0.1032544 0.01128688 0.9945909
vn -0.138555 -0.01416671 0.9902534
vn -0.138555 -0.01416671 0.9902534
vn -0.138555 -0.01416671 0.9902534
vn -0.1512818 0.2180976 0.9641303
vn -0.1512818 0.2180976 0.9641303
vn -0.1512818 0.2180976 0.9641303
vn -0.1544635 -0.1064361 0.9822487
vn -0.1544635 -0.1064361 0.9822487
vn -0.1544635 -0.1064361 0.9822487
vn -0.06855753 -0.08416417 0.9940907
vn -0.06855753 -0.08416417 0.9940907
vn -0.06855753 -0.08416417 0.9940907
vn -0.2149159 0.138555 0.9667542
vn -0.2149159 0.138555 0.9667542
vn -0.2149159 0.138555 0.9667542
vn 0.06825566 -0.001439899 0.9976668
vn 0.06825566 -0.001439899 0.9976668
vn 0.06825566 -0.001439899 0.9976668
vn 0.06507397 -0.007803321 0.9978499
vn -0.05583072 -0.06189227 0.99652
vn -0.05583072 -0.06189227 0.99652
vn -0.05583072 -0.06189227 0.99652
vn -0.07492095 -0.01734844 0.9970385
vn -0.1481001 -0.07461905 0.9861533
vn -0.1481001 -0.07461905 0.9861533
vn -0.1481001 -0.07461905 0.9861533
vn 0.310065 0.03992221 0.9498768
vn 0.310065 0.03992221 0.9498768
vn 0.310065 0.03992221 0.9498768
vn 0.2941566 -0.004621625 0.9557461
vn -0.01765031 0.001741797 0.9998427
vn -0.01765031 0.001741797 0.9998427
vn -0.01765031 0.001741797 0.9998427
vn -0.020832 0.03674051 0.9991077
vn 0.3896076 -0.02689353 0.9205883
vn 0.3896076 -0.02689353 0.9205883
vn 0.3896076 -0.02689353 0.9205883
vn 0.3514272 0.05901244 0.9343535
vn 0.3514272 0.05901244 0.9343535
vn 0.3514272 0.05901244 0.9343535
vn 0.2559761 0.004923493 0.9666706
vn 0.2559761 0.004923493 0.9666706
vn 0.2559761 0.004923493 0.9666706
vn 0.2337042 -0.001439899 0.9723067
vn -0.03992221 0.03355882 0.9986391
vn -0.03992221 0.03355882 0.9986391
vn -0.03992221 0.03355882 0.9986391
vn -0.0240137 0.05901244 0.9979684
vn 0.2559761 -0.04916546 0.965432
vn 0.2559761 -0.04916546 0.965432
vn 0.2559761 -0.04916546 0.965432
vn 0.2018872 -0.01734844 0.9792551
vn 0.2018872 -0.01734844 0.9792551
vn 0.2018872 -0.01734844 0.9792551
vn -0.008105189 -0.007803321 0.9999367
vn -0.008105189 -0.007803321 0.9999367
vn -0.008105189 -0.007803321 0.9999367
vn -0.008105189 -0.02053013 0.9997564
vn 0.1764335 -0.09052759 0.9801408
vn 0.1764335 -0.09052759 0.9801408
vn 0.1764335 -0.09052759 0.9801408
vn -0.05264902 -0.001439899 0.998612
vn -0.05264902 -0.001439899 0.998612
vn -0.05264902 -0.001439899 0.998612
vn -0.008105189 0.1162831 0.9931831
vn -0.008105189 0.1162831 0.9931831
vn -0.008105189 0.1162831 0.9931831
vn 0.1255263 0.1290099 0.9836664
vn 0.1255263 0.1290099 0.9836664
vn 0.1255263 0.1290099 0.9836664
vn -0.1417367 -0.01416671 0.989803
vn -0.1417367 -0.01416671 0.989803
vn -0.1417367 -0.01416671 0.989803
vn -0.1512818 -0.01734844 0.9883385
vn -0.1417367 -0.03962034 0.9891112
vn 0.1159812 0.03674051 0.9925717
vn 0.1159812 0.03674051 0.9925717
vn 0.1159812 0.03674051 0.9925717
vn 0.1223446 0.020832 0.992269
vn 0.06825566 0.001741797 0.9976664
vn 0.06825566 0.001741797 0.9976664
vn 0.06825566 0.001741797 0.9976664
vn -0.05583072 -0.01734844 0.9982895
vn -0.05583072 -0.01734844 0.9982895
vn -0.05583072 -0.01734844 0.9982895
vn 0.05234715 -0.06189227 0.9967092
vn 0.05234715 -0.06189227 0.9967092
vn 0.05234715 -0.06189227 0.9967092
vn 0.03325695 0.07173926 0.9968688
vn 0.03325695 0.07173926 0.9968688
vn 0.03325695 0.07173926 0.9968688
vn -0.08764777 0.1417367 0.9860165
vn -0.08764777 0.1417367 0.9860165
vn -0.08764777 0.1417367 0.9860165
vn 0.03325695 -0.01416671 0.9993464
vn 0.03325695 -0.01416671 0.9993464
vn 0.03325695 -0.01416671 0.9993464
vn 0.04598376 -0.02053013 0.9987312
vn -0.01128688 0.004923493 0.9999242
vn -0.01128688 0.004923493 0.9999242
vn -0.01128688 0.004923493 0.9999242
vn -0.256278 0.03992221 0.9657784
vn -0.256278 0.03992221 0.9657784
vn -0.256278 0.03992221 0.9657784
vn -0.02719539 -0.05552885 0.9980866
vn -0.02719539 -0.05552885 0.9980866
vn -0.02719539 -0.05552885 0.9980866
vn -0.01128688 -0.05234715 0.9985652
vn -0.01128688 -0.05234715 0.9985652
vn -0.01128688 -0.05234715 0.9985652
vn -0.3294572 0.05583072 0.9425184
vn -0.3294572 0.05583072 0.9425184
vn -0.3294572 0.05583072 0.9425184
vn -0.06537583 0.004923493 0.9978486
vn -0.06537583 0.004923493 0.9978486
vn -0.06537583 0.004923493 0.9978486
vn -0.1481001 -0.03962034 0.9881784
vn -0.1481001 -0.03962034 0.9881784
vn -0.1481001 -0.03962034 0.9881784
vn -0.3294572 -0.08734587 0.9401217
vn -0.3294572 -0.08734587 0.9401217
vn -0.3294572 -0.08734587 0.9401217
vn 0.3037016 0.01446861 0.9526573
vn 0.3037016 0.01446861 0.9526573
vn 0.3037016 0.01446861 0.9526573
vn 0.2368859 -0.02053013 0.9713206
vn 0.2368859 -0.02053013 0.9713206
vn 0.2368859 -0.02053013 0.9713206
vn 0.1096178 0.02719539 0.9936017
vn 0.1096178 0.02719539 0.9936017
vn 0.1096178 0.02719539 0.9936017
vn -0.4217265 -0.1255263 0.8979922
vn -0.4217265 -0.1255263 0.8979922
vn -0.4217265 -0.1255263 0.8979922
vn 0.1414348 -0.001439899 0.9899465
vn 0.1414348 -0.001439899 0.9899465
vn 0.1414348 -0.001439899 0.9899465
vn 0.1414348 -0.03962034 0.9891544
vn 0.2082506 -0.01734844 0.9779217
vn 0.2082506 -0.01734844 0.9779217
vn 0.2082506 -0.01734844 0.9779217
vn -0.2276427 0.06219414 0.9717565
vn -0.2276427 0.06219414 0.9717565
vn -0.2276427 0.06219414 0.9717565
vn -0.2467329 0.020832 0.9688596
vn -0.09719285 -0.03007522 0.9948111
vn -0.09719285 -0.03007522 0.9948111
vn -0.09719285 -0.03007522 0.9948111
vn 0.08098248 -0.01734844 0.9965645
vn 0.08098248 -0.01734844 0.9965645
vn 0.08098248 -0.01734844 0.9965645
vn -0.07810265 -0.07461905 0.9941489
vn -0.07810265 -0.07461905 0.9941489
vn -0.07810265 -0.07461905 0.9941489
vn 0.04916546 0.07173926 0.9962109
vn 0.04916546 0.07173926 0.9962109
vn 0.04916546 0.07173926 0.9962109
vn 0.1382531 0.1162831 0.9835469
vn 0.1382531 0.1162831 0.9835469
vn 0.1382531 0.1162831 0.9835469
vn 0.3227919 -0.06189227 0.9444441
vn 0.3227919 -0.06189227 0.9444441
vn 0.3227919 -0.06189227 0.9444441
vn 0.04598376 -0.1318897 0.9901972
vn 0.04598376 -0.1318897 0.9901972
vn 0.04598376 -0.1318897 0.9901972
vn 0.07461905 -0.1223446 0.9896786
vn 0.07461905 -0.1223446 0.9896786
vn 0.07461905 -0.1223446 0.9896786
vn -0.3962729 -0.1955238 0.8970721
vn -0.3962729 -0.1955238 0.8970721
vn -0.3962729 -0.1955238 0.8970721
vn 0.04280204 -0.1382531 0.9894716
vn 0.04280204 -0.1382531 0.9894716
vn 0.04280204 -0.1382531 0.9894716
vn 0.3037016 -0.05871055 0.9509566
vn 0.3037016 -0.05871055 0.9509566
vn 0.3037016 -0.05871055 0.9509566
vn -0.04946733 -0.01416671 0.9986753
vn -0.04946733 -0.01416671 0.9986753
vn -0.04946733 -0.01416671 0.9986753
vn -0.04946733 -0.004621625 0.9987651
vn -0.2753682 0.1131014 0.9546624
vn -0.2753682 0.1131014 0.9546624
vn -0.2753682 0.1131014 0.9546624
vn -0.1862805 0.01765031 0.982338
vn -0.1862805 0.01765031 0.982338
vn -0.1862805 0.01765031 0.982338
vn 0.01734844 -0.1000727 0.9948289
vn 0.01734844 -0.1000727 0.9948289
vn 0.01734844 -0.1000727 0.9948289
g lavaCaveBanner03_0
f 3/3/3 2/2/2 1/1/1
f 3/3/3 1/1/1 4/4/4
f 7/7/7 6/6/6 5/5/5
f 10/10/10 9/9/9 8/8/8
f 11/11/11 10/10/10 8/8/8
f 14/14/14 13/13/13 12/12/12
f 17/17/17 16/16/16 15/15/15
f 20/20/20 19/19/19 18/18/18
f 23/23/23 22/22/22 21/21/21
f 26/26/26 25/25/25 24/24/24
f 29/29/29 28/28/28 27/27/27
f 32/32/32 31/31/31 30/30/30
f 32/32/32 33/33/33 31/31/31
f 36/36/36 35/35/35 34/34/34
f 35/35/35 37/37/37 34/34/34
f 40/40/40 39/39/39 38/38/38
f 43/43/43 42/42/42 41/41/41
f 44/44/44 41/41/41 42/42/42
f 47/47/47 46/46/46 45/45/45
f 48/48/48 45/45/45 46/46/46
f 51/51/51 50/50/50 49/49/49
f 54/54/54 53/53/53 52/52/52
f 57/57/57 56/56/56 55/55/55
f 57/57/57 58/58/58 56/56/56
f 61/61/61 60/60/60 59/59/59
f 59/59/59 60/60/60 62/62/62
f 65/65/65 64/64/64 63/63/63
f 68/68/68 67/67/67 66/66/66
f 71/71/71 70/70/70 69/69/69
f 69/69/69 70/70/70 72/72/72
f 75/75/75 74/74/74 73/73/73
f 78/78/78 77/77/77 76/76/76
f 81/81/81 80/80/80 79/79/79
f 84/84/84 83/83/83 82/82/82
f 87/87/87 86/86/86 85/85/85
f 87/87/87 88/88/88 86/86/86
f 89/89/89 87/87/87 85/85/85
f 92/92/92 91/91/91 90/90/90
f 93/93/93 92/92/92 90/90/90
f 96/96/96 95/95/95 94/94/94
f 99/99/99 98/98/98 97/97/97
f 102/102/102 101/101/101 100/100/100
f 105/105/105 104/104/104 103/103/103
f 108/108/108 107/107/107 106/106/106
f 111/111/111 110/110/110 109/109/109
f 111/111/111 109/109/109 112/112/112
f 115/115/115 114/114/114 113/113/113
f 118/118/118 117/117/117 116/116/116
f 121/121/121 120/120/120 119/119/119
f 124/124/124 123/123/123 122/122/122
f 127/127/127 126/126/126 125/125/125
f 130/130/130 129/129/129 128/128/128
f 133/133/133 132/132/132 131/131/131
f 136/136/136 135/135/135 134/134/134
f 139/139/139 138/138/138 137/137/137
f 142/142/142 141/141/141 140/140/140
f 145/145/145 144/144/144 143/143/143
f 148/148/148 147/147/147 146/146/146
f 151/151/151 150/150/150 149/149/149
f 149/149/149 150/150/150 152/152/152
f 155/155/155 154/154/154 153/153/153
f 158/158/158 157/157/157 156/156/156
f 156/156/156 157/157/157 159/159/159
f 162/162/162 161/161/161 160/160/160
f 165/165/165 164/164/164 163/163/163
f 168/168/168 167/167/167 166/166/166
f 171/171/171 170/170/170 169/169/169
f 174/174/174 173/173/173 172/172/172
f 177/177/177 176/176/176 175/175/175
f 180/180/180 179/179/179 178/178/178
f 183/183/183 182/182/182 181/181/181
f 186/186/186 185/185/185 184/184/184
f 189/189/189 188/188/188 187/187/187
f 192/192/192 191/191/191 190/190/190
f 195/195/195 194/194/194 193/193/193
f 194/194/194 196/196/196 193/193/193
f 199/199/199 198/198/198 197/197/197
f 202/202/202 201/201/201 200/200/200
f 205/205/205 204/204/204 203/203/203
