g laveTrapLava
v -0.5517678 -4.935454 0.1701188
v -0.5255251 -4.041343 0.1773119
v -0.0005412102 -4.049869 0.2008905
v 0.008517265 -4.920935 0.2219377
v -0.6141105 -5.916019 0.1733155
v -0.0005412102 -5.908426 0.2030215
v 0.001723289 -3.396736 0.2160764
v -0.4630494 -3.400465 0.1730494
v -0.653008 -6.94534 0.1674542
v -0.0004081726 -6.91257 0.2062187
v -0.7751627 -7.150884 0.2158098
v -8.106232E-06 -7.077752 0.289609
v -0.8789339 -7.11212 0.3009315
v 0.0001249313 -7.067894 0.4196224
v -0.9974909 -7.211362 0.3981757
v -0.01239681 -7.190315 0.5901327
v -1.173197 -7.182189 0.5484376
v 0.04261923 -7.172864 0.8038025
v -1.406848 -7.29009 0.696701
v 0.003721714 -7.283429 1.030261
v -0.4630494 -3.400465 0.1730494
v -0.3873854 -2.896129 0.1651897
v 0.002789021 -2.89533 0.1839724
v 0.001723289 -3.396736 0.2160764
v -0.3698015 -2.789161 0.122829
v -0.002938747 -2.772243 0.122962
v 0.04261923 -7.172864 0.8038025
v 1.262298 -7.15981 0.5949283
v 1.519528 -7.295951 0.7747631
v 0.003721714 -7.283429 1.030261
v -0.01239681 -7.190315 0.5901327
v 1.045431 -7.189382 0.4221535
v 0.0001249313 -7.067894 0.4196224
v 0.8913054 -7.092271 0.3094573
v -8.106232E-06 -7.077752 0.289609
v 0.7884669 -7.132634 0.2223372
v -0.0004081726 -6.91257 0.2062187
v 0.6620498 -6.927223 0.1725163
v -0.0005412102 -5.908426 0.2030215
v 0.6164918 -5.916819 0.1682539
v 0.008517265 -4.920935 0.2219377
v 0.5452237 -4.92573 0.1721168
v -0.0005412102 -4.049869 0.2008905
v 0.5380301 -4.03375 0.1743813
v 0.001723289 -3.396736 0.2160764
v 0.4699597 -3.396336 0.1701188
v 0.3752465 -2.914646 0.15027
v 0.4699597 -3.396336 0.1701188
v 0.001723289 -3.396736 0.2160764
v 0.002789021 -2.89533 0.1839724
v -0.002938747 -2.772243 0.122962
v 0.3795094 -2.798219 0.1186991
v -0.5255251 -4.041343 0.1773119
v -0.5676198 -4.044407 0.03397703
v -0.4884925 -3.403529 0.03104639
v -0.4630494 -3.400465 0.1730494
v 0.4699597 -3.396336 0.1701188
v 0.4944706 -3.393272 0.0233202
v 0.5584116 -4.048803 0.02811575
v 0.5380301 -4.03375 0.1743813
v -0.6141105 -5.916019 0.1733155
v -0.6454148 -5.920282 0.03051376
v -0.5782766 -4.938118 0.02971458
v -0.5517678 -4.935454 0.1701188
v -0.6887083 -6.937214 0.03304482
v -0.653008 -6.94534 0.1674542
v -0.8180561 -7.142625 0.0334444
v -0.7751627 -7.150884 0.2158098
v -0.9342165 -7.107058 -0.03116322
v -0.8789339 -7.11212 0.3009315
v -1.067027 -7.209764 -0.1049619
v -0.9974909 -7.211362 0.3981757
v -1.211295 -7.184587 -0.1851549
v -1.173197 -7.182189 0.5484376
v -1.406848 -7.29009 0.696701
v -1.434023 -7.28183 -0.2983842
v 0.5452237 -4.92573 0.1721168
v 0.580658 -4.930659 0.02665043
v 0.6388712 -5.920815 0.02811575
v 0.6164918 -5.916819 0.1682539
v 0.6858945 -6.932818 0.02571821
v 0.6620498 -6.927223 0.1725163
v 0.8167076 -7.138229 0.02545166
v 0.7884669 -7.132634 0.2223372
v 0.9608417 -7.101596 -0.0712595
v 0.8913054 -7.092271 0.3094573
v 1.061549 -7.20297 -0.1220126
v 1.045431 -7.189382 0.4221535
v 1.211678 -7.176461 -0.2349758
v 1.262298 -7.15981 0.5949283
v 1.423749 -7.277301 -0.30651
v 1.519528 -7.295951 0.7747631
v -0.5517678 -4.935454 0.1701188
v -0.5782766 -4.938118 0.02971458
v -0.5676198 -4.044407 0.03397703
v -0.5255251 -4.041343 0.1773119
v 0.5380301 -4.03375 0.1743813
v 0.5584116 -4.048803 0.02811575
v 0.580658 -4.930659 0.02665043
v 0.5452237 -4.92573 0.1721168
v -0.4630494 -3.400465 0.1730494
v -0.4884925 -3.403529 0.03104639
v -0.4152265 -2.940089 0.06914473
v -0.3873854 -2.896129 0.1651897
v -0.4017725 -2.864691 0.06368303
v -0.3698015 -2.789161 0.122829
v 0.3752465 -2.914646 0.15027
v 0.4190731 -2.952344 0.08086729
v 0.4944706 -3.393272 0.0233202
v 0.4699597 -3.396336 0.1701188
v 0.402555 -2.865624 0.07100964
v 0.3795094 -2.798219 0.1186991
v -0.002938747 -2.772243 0.122962
v -0.002006531 -2.669671 -0.01477814
v 0.3125043 -2.694714 -0.006785393
v 0.3795094 -2.798219 0.1186991
v 0.292789 -2.581219 -0.1471896
v -0.001873493 -2.556042 -0.1554489
v 0.3725824 -2.240066 -0.5692015
v -0.00240612 -2.215022 -0.5771942
v -0.4017725 -2.864691 0.06368303
v -0.3301048 -2.77917 -0.02516842
v -0.3039956 -2.684857 -0.00731802
v -0.3698015 -2.789161 0.122829
v 0.3795094 -2.798219 0.1186991
v 0.3125043 -2.694714 -0.006785393
v 0.3314204 -2.776506 -0.01824141
v 0.402555 -2.865624 0.07100964
v -0.3698015 -2.789161 0.122829
v -0.3039956 -2.684857 -0.00731802
v -0.002006531 -2.669671 -0.01477814
v -0.002938747 -2.772243 0.122962
v -0.001873493 -2.556042 -0.1554489
v -0.2846799 -2.571361 -0.1477227
v -0.00240612 -2.215022 -0.5771942
v -0.3624749 -2.230075 -0.5696015
v -0.3301048 -2.77917 -0.02516842
v -0.3089242 -2.665674 -0.1655726
v -0.2846799 -2.571361 -0.1477227
v -0.3039956 -2.684857 -0.00731802
v -0.3624749 -2.230075 -0.5696015
v -0.3929806 -2.324388 -0.587585
v 0.3125043 -2.694714 -0.006785393
v 0.292789 -2.581219 -0.1471896
v 0.3103728 -2.66301 -0.1586456
v 0.3314204 -2.776506 -0.01824141
v 0.3946953 -2.321724 -0.580658
v 0.3725824 -2.240066 -0.5692015
vt 0.1188418 0.1674648
vt 0.1188418 0.2355371
vt 0.4981016 0.2355371
vt 0.5058812 0.1684373
vt 0.1081447 0.113007
vt 0.4981016 0.113007
vt 0.5019914 0.2851326
vt 0.1246765 0.2851326
vt 0.1168968 0.06827378
vt 0.5000465 0.06827378
vt 0.1188418 0.05465932
vt 0.5000465 0.05465932
vt 0.1188418 0.04493471
vt 0.5000465 0.04493471
vt 0.1188418 0.03132026
vt 0.5000465 0.03132026
vt 0.1188418 0.01867826
vt 0.5000465 0.01867826
vt 0.1198142 0.004091349
vt 0.5000465 0.00506381
vt 0.1246765 0.2851326
vt 0.1237041 0.3318107
vt 0.5029639 0.3318107
vt 0.5019914 0.2851326
vt 0.1071722 0.3512599
vt 0.4971291 0.3532048
vt 0.5000465 0.01867826
vt 0.8880584 0.02062319
vt 0.8880584 0.006036271
vt 0.5000465 0.00506381
vt 0.5000465 0.03132026
vt 0.8880584 0.03229272
vt 0.5000465 0.04493471
vt 0.8880584 0.04590717
vt 0.5000465 0.05465932
vt 0.8880584 0.05563178
vt 0.5000465 0.06827378
vt 0.8880584 0.06924624
vt 0.4981016 0.113007
vt 0.8900033 0.113007
vt 0.5058812 0.1684373
vt 0.8773613 0.1684373
vt 0.4981016 0.2355371
vt 0.8870859 0.2365095
vt 0.5019914 0.2851326
vt 0.8812512 0.2851326
vt 0.8647194 0.3298658
vt 0.8812512 0.2851326
vt 0.5019914 0.2851326
vt 0.5029639 0.3318107
vt 0.4971291 0.3532048
vt 0.874444 0.3502875
vt 0.1188418 0.2355371
vt -0.0007709563 0.2355371
vt 0.01867826 0.2851326
vt 0.1246765 0.2851326
vt 0.8812512 0.2851326
vt 0.9882219 0.286105
vt 0.9882219 0.2355371
vt 0.8870859 0.2365095
vt 0.1081447 0.113007
vt -0.0007709563 0.113007
vt 0.01381596 0.1674648
vt 0.1188418 0.1674648
vt 0.008953654 0.06827378
vt 0.1168968 0.06827378
vt 0.009926115 0.05563178
vt 0.1188418 0.05465932
vt 0.009926115 0.04493471
vt 0.1188418 0.04493471
vt 0.01089858 0.03132026
vt 0.1188418 0.03132026
vt 0.01089858 0.01867826
vt 0.1188418 0.01867826
vt 0.1198142 0.004091349
vt 0.01089858 0.00506381
vt 0.8773613 0.1684373
vt 0.9891944 0.1674648
vt 0.9921118 0.113007
vt 0.8900033 0.113007
vt 0.9891944 0.06924624
vt 0.8880584 0.06924624
vt 0.9891944 0.05563178
vt 0.8880584 0.05563178
vt 0.9891944 0.04590717
vt 0.8880584 0.04590717
vt 0.9891944 0.03229272
vt 0.8880584 0.03229272
vt 0.9882219 0.01965073
vt 0.8880584 0.02062319
vt 0.9882219 0.00506381
vt 0.8880584 0.006036271
vt 0.1188418 0.1674648
vt 0.01381596 0.1674648
vt -0.0007709563 0.2355371
vt 0.1188418 0.2355371
vt 0.8870859 0.2365095
vt 0.9882219 0.2355371
vt 0.9891944 0.1674648
vt 0.8773613 0.1684373
vt 0.1246765 0.2851326
vt 0.01867826 0.2851326
vt 0.01089858 0.3279209
vt 0.1237041 0.3318107
vt 0.0303478 0.3454252
vt 0.1071722 0.3512599
vt 0.8647194 0.3298658
vt 0.9940567 0.3279209
vt 0.9882219 0.286105
vt 0.8812512 0.2851326
vt 0.9697452 0.3454252
vt 0.874444 0.3502875
vt 0.4971291 0.3532048
vt 0.4961566 0.3804338
vt 0.8783338 0.3765439
vt 0.874444 0.3502875
vt 0.872499 0.4203047
vt 0.4951842 0.4241945
vt 0.9104251 0.4922668
vt 0.4893494 0.4971291
vt 0.0303478 0.3454252
vt 0.03326518 0.374599
vt 0.09842007 0.3775164
vt 0.1071722 0.3512599
vt 0.874444 0.3502875
vt 0.8783338 0.3765439
vt 0.9784973 0.374599
vt 0.9697452 0.3454252
vt 0.1071722 0.3512599
vt 0.09842007 0.3775164
vt 0.4961566 0.3804338
vt 0.4971291 0.3532048
vt 0.4951842 0.4241945
vt 0.1013374 0.4212771
vt 0.4893494 0.4971291
vt 0.08577807 0.4932393
vt 0.03326518 0.374599
vt 0.01965073 0.4183598
vt 0.1013374 0.4212771
vt 0.09842007 0.3775164
vt 0.08577807 0.4932393
vt 0.05076948 0.4815697
vt 0.8783338 0.3765439
vt 0.872499 0.4203047
vt 0.9755799 0.4183598
vt 0.9784973 0.374599
vt 0.9347365 0.4815697
vt 0.9104251 0.4922668
vn -0.06625986 0.01180583 0.9977326
vn -0.06625986 0.01180583 0.9977326
vn -0.06625986 0.01180583 0.9977326
vn -0.06625986 0.01180583 0.9977326
vn -0.06625986 -0.00375247 0.9977953
vn -0.06625986 -0.00375247 0.9977953
vn -0.06625986 -0.00375247 0.9977953
vn -0.06625986 -0.00375247 0.9977953
vn -0.06625986 0.08959723 0.9937716
vn -0.06625986 0.06625986 0.9956
vn -0.0818181 0.9608612 0.2646725
vn -0.09737647 0.8130575 0.5739819
vn -0.1207138 0.8752906 0.4682889
vn -0.1051556 0.9375238 0.3316495
vn -0.02736054 0.9996256 0
vn -0.04292238 0.9841987 0.1717865
vn -0.0818181 0.9375238 0.3381639
vn -0.07403898 0.9608612 0.2669531
vn -0.1051556 0.890849 0.441962
vn -0.1051556 0.890849 0.441962
vn -0.07403898 0.04292238 0.9963312
vn -0.06625986 0.1051556 0.9922459
vn -0.06625986 0.1129347 0.9913906
vn -0.07403898 0.04292238 0.9963312
vn -0.03514326 0.4085422 0.9120626
vn -0.03514326 0.4085422 0.9120626
vn 0.04264814 0.9608612 0.2737278
vn 0.05820644 0.9219655 0.3828729
vn 0.08154386 0.8675115 0.4906877
vn 0.08154386 0.8675115 0.4906877
vn 0.02708989 0.9841987 0.1749831
vn 0.00375247 0.9997569 0.02172577
vn 0.07376474 0.9297446 0.3607405
vn 0.08154386 0.8830698 0.4621022
vn 0.07376474 0.8130575 0.5774913
vn 0.05820644 0.9608612 0.2708464
vn 0.05820644 0.06625986 0.9961032
vn 0.05820644 0.08959723 0.9942758
vn 0.07376474 -0.01153159 0.997209
vn 0.07376474 -0.01153159 0.997209
vn 0.07376474 -0.01153159 0.997209
vn 0.07376474 -0.01153159 0.997209
vn 0.07376474 0.01180583 0.9972058
vn 0.07376474 0.01180583 0.9972058
vn 0.07376474 -0.00375247 0.9972686
vn 0.07376474 -0.00375247 0.9972686
vn 0.08932298 0.1129347 0.9895793
vn 0.09710217 0.05848074 0.9935548
vn 0.09710217 0.05848074 0.9935548
vn 0.08932298 0.1207138 0.9886605
vn 0.06598556 0.3618673 0.9298913
vn 0.06598556 0.3618673 0.9298913
vn -0.9686403 0.1051556 0.2251183
vn -0.9686403 0.1051556 0.2251183
vn -0.9686403 0.1051556 0.2251183
vn -0.9686403 0.1051556 0.2251183
vn 0.9839244 0.1051556 0.1443436
vn 0.9839244 0.1051556 0.1443436
vn 0.9839244 0.1051556 0.1443436
vn 0.9839244 0.1051556 0.1443436
vn -0.9764194 0.06625986 0.2054621
vn -0.9764194 0.06625986 0.2054621
vn -0.9764194 0.06625986 0.2054621
vn -0.9764194 0.06625986 0.2054621
vn -0.9608612 0.1518304 0.2317181
vn -0.9608612 0.1518304 0.2317181
vn -0.2607384 0.9608612 0.09360143
vn -0.2996341 0.945303 0.1289252
vn -0.4941127 0.8675115 0.05723939
vn -0.4707752 0.8752906 0.110621
vn -0.02736054 0.9996256 0
vn -0.0428933 0.9990796 0
vn -0.3069733 0.9517181 0
vn -0.3151923 0.945303 0.08400034
vn -0.4080032 0.9129804 0
vn -0.4080032 0.9129804 0
vn 0.9761453 0.06625986 0.2067609
vn 0.9761453 0.06625986 0.2067609
vn 0.9761453 0.06625986 0.2067609
vn 0.9761453 0.06625986 0.2067609
vn 0.9761453 0.1673887 0.1382803
vn 0.9761453 0.1596096 0.1471911
vn 0.2286632 0.9735057 0
vn 0.2524184 0.9676182 0
vn 0.4854801 0.8742477 0
vn 0.4548097 0.8905885 0
vn 0.0348563 0.9993923 0
vn 0.01931071 0.9997569 -0.01063904
vn 0.3369082 0.9415375 0
vn 0.3692132 0.9293447 0
vn 0.4548097 0.8905885 0
vn 0.4548097 0.8905885 0
vn -0.9686403 0.01958501 0.2476941
vn -0.9686403 0.01958501 0.2476941
vn -0.9686403 0.01958501 0.2476941
vn -0.9686403 0.01958501 0.2476941
vn 0.9839244 0.01958501 0.1775083
vn 0.9839244 0.01958501 0.1775083
vn 0.9839244 0.01958501 0.1775083
vn 0.9839244 0.01958501 0.1775083
vn -0.9686403 0.1440513 0.2024479
vn -0.9686403 0.1440513 0.2024479
vn -0.9686403 0.1518304 0.1966811
vn -0.9686403 0.1596096 0.1904225
vn -0.9530821 0.2140635 0.2140358
vn -0.9530821 0.2140635 0.2140358
vn 0.9450287 0.1596096 0.2853868
vn 0.9450287 0.1596096 0.2853868
vn 0.9450287 0.1673887 0.2808948
vn 0.9450287 0.1673887 0.2808948
vn 0.9061329 0.1362721 0.4004411
vn 0.9061329 0.1362721 0.4004411
vn 0.05820644 0.7897201 0.6106998
vn 0.05820644 0.7897201 0.6106998
vn 0.05820644 0.7897201 0.6106998
vn 0.05820644 0.7897201 0.6106998
vn 0.04264814 0.7741618 0.6315494
vn 0.04264814 0.7741618 0.6315494
vn 0.04264814 0.7741618 0.6315494
vn 0.04264814 0.7741618 0.6315494
vn -0.890849 0.4007629 -0.2139559
vn -0.890849 0.4007629 -0.2139559
vn -0.890849 0.4007629 -0.2139559
vn -0.890849 0.4007629 -0.2139559
vn 0.8983538 0.3540881 -0.2599655
vn 0.8983538 0.3540881 -0.2599655
vn 0.8983538 0.3540881 -0.2599655
vn 0.8983538 0.3540881 -0.2599655
vn -0.03514326 0.7974992 0.6022956
vn -0.03514326 0.7974992 0.6022956
vn -0.03514326 0.7974992 0.6022956
vn -0.03514326 0.7974992 0.6022956
vn -0.01958501 0.7741618 0.6326847
vn -0.01958501 0.7741618 0.6326847
vn -0.01958501 0.7741618 0.6326847
vn -0.01958501 0.7741618 0.6326847
vn -0.9686403 0.2451801 0.04028191
vn -0.945303 0.2218426 0.2391404
vn -0.9297446 0.2062844 0.3049947
vn -0.9686403 0.2451801 0.04028191
vn -0.9219655 0.1985053 0.3325287
vn -0.9219655 0.1985053 0.3325287
vn 0.9761453 0.2140635 0.0362936
vn 0.9372495 0.1829469 0.2968059
vn 0.960587 0.1985053 0.1945978
vn 0.9761453 0.2140635 0.0362936
vn 0.9294704 0.1829469 0.320336
vn 0.9294704 0.1829469 0.320336
g laveTrapLava_0
f 3/3/3 2/2/2 1/1/1
f 4/4/4 3/3/3 1/1/1
f 4/4/4 1/1/1 5/5/5
f 6/6/6 4/4/4 5/5/5
f 3/3/3 7/7/7 2/2/2
f 7/7/7 8/8/8 2/2/2
f 6/6/6 5/5/5 9/9/9
f 10/10/10 6/6/6 9/9/9
f 10/10/10 9/9/9 11/11/11
f 12/12/12 10/10/10 11/11/11
f 12/12/12 11/11/11 13/13/13
f 14/14/14 12/12/12 13/13/13
f 14/14/14 13/13/13 15/15/15
f 16/16/16 14/14/14 15/15/15
f 16/16/16 15/15/15 17/17/17
f 18/18/18 16/16/16 17/17/17
f 18/18/18 17/17/17 19/19/19
f 20/20/20 18/18/18 19/19/19
f 23/23/23 22/22/22 21/21/21
f 24/24/24 23/23/23 21/21/21
f 22/22/22 23/23/23 25/25/25
f 23/23/23 26/26/26 25/25/25
f 29/29/29 28/28/28 27/27/27
f 30/30/30 29/29/29 27/27/27
f 27/27/27 28/28/28 31/31/31
f 28/28/28 32/32/32 31/31/31
f 31/31/31 32/32/32 33/33/33
f 32/32/32 34/34/34 33/33/33
f 33/33/33 34/34/34 35/35/35
f 34/34/34 36/36/36 35/35/35
f 35/35/35 36/36/36 37/37/37
f 36/36/36 38/38/38 37/37/37
f 37/37/37 38/38/38 39/39/39
f 38/38/38 40/40/40 39/39/39
f 39/39/39 40/40/40 41/41/41
f 40/40/40 42/42/42 41/41/41
f 41/41/41 42/42/42 43/43/43
f 42/42/42 44/44/44 43/43/43
f 43/43/43 44/44/44 45/45/45
f 44/44/44 46/46/46 45/45/45
f 49/49/49 48/48/48 47/47/47
f 50/50/50 49/49/49 47/47/47
f 50/50/50 47/47/47 51/51/51
f 47/47/47 52/52/52 51/51/51
f 55/55/55 54/54/54 53/53/53
f 56/56/56 55/55/55 53/53/53
f 59/59/59 58/58/58 57/57/57
f 60/60/60 59/59/59 57/57/57
f 63/63/63 62/62/62 61/61/61
f 64/64/64 63/63/63 61/61/61
f 61/61/61 62/62/62 65/65/65
f 66/66/66 61/61/61 65/65/65
f 66/66/66 65/65/65 67/67/67
f 68/68/68 66/66/66 67/67/67
f 68/68/68 67/67/67 69/69/69
f 70/70/70 68/68/68 69/69/69
f 70/70/70 69/69/69 71/71/71
f 72/72/72 70/70/70 71/71/71
f 72/72/72 71/71/71 73/73/73
f 74/74/74 72/72/72 73/73/73
f 74/74/74 73/73/73 75/75/75
f 73/73/73 76/76/76 75/75/75
f 79/79/79 78/78/78 77/77/77
f 80/80/80 79/79/79 77/77/77
f 81/81/81 79/79/79 80/80/80
f 82/82/82 81/81/81 80/80/80
f 83/83/83 81/81/81 82/82/82
f 84/84/84 83/83/83 82/82/82
f 85/85/85 83/83/83 84/84/84
f 86/86/86 85/85/85 84/84/84
f 87/87/87 85/85/85 86/86/86
f 88/88/88 87/87/87 86/86/86
f 89/89/89 87/87/87 88/88/88
f 90/90/90 89/89/89 88/88/88
f 91/91/91 89/89/89 90/90/90
f 92/92/92 91/91/91 90/90/90
f 95/95/95 94/94/94 93/93/93
f 96/96/96 95/95/95 93/93/93
f 99/99/99 98/98/98 97/97/97
f 100/100/100 99/99/99 97/97/97
f 103/103/103 102/102/102 101/101/101
f 104/104/104 103/103/103 101/101/101
f 105/105/105 103/103/103 104/104/104
f 106/106/106 105/105/105 104/104/104
f 109/109/109 108/108/108 107/107/107
f 110/110/110 109/109/109 107/107/107
f 107/107/107 108/108/108 111/111/111
f 112/112/112 107/107/107 111/111/111
f 115/115/115 114/114/114 113/113/113
f 116/116/116 115/115/115 113/113/113
f 115/115/115 117/117/117 114/114/114
f 117/117/117 118/118/118 114/114/114
f 117/117/117 119/119/119 118/118/118
f 119/119/119 120/120/120 118/118/118
f 123/123/123 122/122/122 121/121/121
f 124/124/124 123/123/123 121/121/121
f 127/127/127 126/126/126 125/125/125
f 128/128/128 127/127/127 125/125/125
f 131/131/131 130/130/130 129/129/129
f 132/132/132 131/131/131 129/129/129
f 131/131/131 133/133/133 130/130/130
f 133/133/133 134/134/134 130/130/130
f 133/133/133 135/135/135 134/134/134
f 135/135/135 136/136/136 134/134/134
f 139/139/139 138/138/138 137/137/137
f 140/140/140 139/139/139 137/137/137
f 139/139/139 141/141/141 138/138/138
f 141/141/141 142/142/142 138/138/138
f 145/145/145 144/144/144 143/143/143
f 146/146/146 145/145/145 143/143/143
f 145/145/145 147/147/147 144/144/144
f 147/147/147 148/148/148 144/144/144
