g lightbeam
v -7.254062 -0.545571 7.140803
v -7.480094 -1.808751 6.282252
v 7.04262 1.616923 -7.554317
v 7.263916 1.935524 -7.491486
v -7.449391 -1.933094 6.251161
v 7.000404 1.474851 -7.525919
v 7.358479 1.995203 -7.426654
v -7.19076 -0.4837991 7.235496
v 7.422225 1.933333 -7.33223
v -7.096467 -0.5435788 7.300773
v -6.219564 -1.80781 7.554317
v 7.480094 1.615726 -7.116637
v 7.450723 1.474131 -7.075642
v -6.187137 -1.932499 7.524791
v -7.354487 -1.995203 6.315891
v -6.251139 -1.995202 7.428923
v 7.353471 1.403225 -7.137585
v 7.062657 1.403225 -7.428141
v 7.000404 1.474851 -7.525919
v -7.449391 -1.933094 6.251161
v -6.187137 -1.932499 7.524791
v 7.450723 1.474131 -7.075642
vt 0.4428362 0
vt 0.05722001 0
vt 0.1497283 0.9999794
vt 0.3725073 0.9999794
vt 0 0
vt 0 1.000021
vt 0.4984549 1.000021
vt 0.4984549 0
vt 0.6259233 1.000021
vt 0.5534658 0
vt 0.9394021 0
vt 0.8480145 1.000021
vt 1 1.000021
vt 1 0
vt 0.1115336 0
vt 0.883563 0
vt 0.7328303 1.000021
vt 0.2689996 1.000021
vt 0 1.000021
vt 0 0
vt 1 0
vt 1 1.000021
vn -0.6288015 0.5728543 -0.525782
vn -0.6644634 0.4680107 -0.5826271
vn -0.6606653 0.4824633 -0.575109
vn -0.6237097 0.584702 -0.5187578
vn -0.5680012 -0.4294306 -0.7021139
vn -0.6000459 -0.3543917 -0.7171831
vn -0.08637702 0.992855 0.08232907
vn -0.08217558 0.9928572 0.08649746
vn 0.5183271 0.594083 0.6151441
vn 0.5263422 0.5809209 0.6208822
vn 0.5835418 0.4783976 0.6562123
vn 0.5755041 0.4933976 0.6521917
vn 0.7231439 -0.3547933 0.5926083
vn 0.7088584 -0.4250856 0.5628694
vn 0.07516778 -0.9835369 -0.1643318
vn 0.1664328 -0.9832742 -0.07397327
vn 0.1675463 -0.9831646 -0.0729076
vn 0.07277774 -0.9833043 -0.1667817
vn -0.6000459 -0.3543917 -0.7171831
vn -0.5680012 -0.4294306 -0.7021139
vn 0.7088584 -0.4250856 0.5628694
vn 0.7231439 -0.3547933 0.5926083
g lightbeam_0
f 3/3/3 2/2/2 1/1/1
f 4/4/4 3/3/3 1/1/1
f 2/2/2 3/3/3 5/5/5
f 3/3/3 6/6/6 5/5/5
f 7/7/7 4/4/4 1/1/1
f 8/8/8 7/7/7 1/1/1
f 9/9/9 7/7/7 8/8/8
f 10/10/10 9/9/9 8/8/8
f 9/9/9 10/10/10 11/11/11
f 12/12/12 9/9/9 11/11/11
f 13/13/13 12/12/12 11/11/11
f 14/14/14 13/13/13 11/11/11
f 17/17/17 16/16/16 15/15/15
f 18/18/18 17/17/17 15/15/15
f 19/19/19 18/18/18 15/15/15
f 20/20/20 19/19/19 15/15/15
f 16/16/16 17/17/17 21/21/21
f 17/17/17 22/22/22 21/21/21
