g loreShopFlag
v 0.009093165 3.847646 -0.03859299
v 0.2050614 3.804128 -0.07032454
v 0.06516379 3.738433 -0.03524548
v 0.2050614 3.804128 -0.07032454
v 0.2055496 3.701611 -0.06983632
v 0.06516379 3.738433 -0.03524548
v 0.3750865 3.784113 -0.07325357
v 0.5080799 3.748406 -0.1073563
v 0.3711114 3.684385 -0.07694978
v 0.5006875 3.650841 -0.1142604
v 0.2050614 3.804128 -0.07032454
v 0.3750865 3.784113 -0.07325357
v 0.2055496 3.701611 -0.06983632
v 0.3750865 3.784113 -0.07325357
v 0.3711114 3.684385 -0.07694978
v 0.2055496 3.701611 -0.06983632
v 0.06516379 3.738433 -0.03524548
v 0.2055496 3.701611 -0.06983632
v 0.01118535 3.629291 -0.03196776
v 0.2055496 3.701611 -0.06983632
v 0.2253556 3.587029 -0.05128562
v 0.01118535 3.629291 -0.03196776
v 0.2055496 3.701611 -0.06983632
v 0.3711114 3.684385 -0.07694978
v 0.2253556 3.587029 -0.05128562
v 0.3711114 3.684385 -0.07694978
v 0.3476789 3.596862 -0.09884799
v 0.2253556 3.587029 -0.05128562
v 0.3711114 3.684385 -0.07694978
v 0.5006875 3.650841 -0.1142604
v 0.3476789 3.596862 -0.09884799
v 0.5006875 3.650841 -0.1142604
v 0.5165184 3.538769 -0.09947568
v 0.3476789 3.596862 -0.09884799
v 0.6332625 3.713955 -0.09745324
v 0.7226686 3.690802 -0.1303703
v 0.60983 3.65384 -0.1193514
v 0.5006875 3.650841 -0.1142604
v 0.5080799 3.748406 -0.1073563
v 0.60983 3.65384 -0.1193514
v 0.5080799 3.748406 -0.1073563
v 0.6332625 3.713955 -0.09745324
v 0.60983 3.65384 -0.1193514
v 0.5006875 3.650841 -0.1142604
v 0.622941 3.590865 -0.107147
v 0.5165184 3.538769 -0.09947568
v 0.622941 3.590865 -0.107147
v 0.5971374 3.532144 -0.1312769
v 0.5165184 3.538769 -0.09947568
v 0.7227384 3.5251 -0.1303006
v 0.5971374 3.532144 -0.1312769
v 0.622941 3.590865 -0.107147
vt 0.08836219 0.145382
vt 0.2945108 0.145382
vt 0.1181879 0.0795899
vt 0.2945108 0.145382
vt 0.2945108 0.0795899
vt 0.1181879 0.0795899
vt 0.4997822 0.145382
vt 0.7059308 0.145382
vt 0.4997822 0.0795899
vt 0.7059308 0.0795899
vt 0.2945108 0.145382
vt 0.4997822 0.145382
vt 0.2945108 0.0795899
vt 0.4997822 0.145382
vt 0.4997822 0.0795899
vt 0.2945108 0.0795899
vt 0.1181879 0.0795899
vt 0.2945108 0.0795899
vt 0.08836219 0.01379779
vt 0.2945108 0.0795899
vt 0.2945108 0.01379779
vt 0.08836219 0.01379779
vt 0.2945108 0.0795899
vt 0.4997822 0.0795899
vt 0.2945108 0.01379779
vt 0.4997822 0.0795899
vt 0.4997822 0.01379779
vt 0.2945108 0.01379779
vt 0.4997822 0.0795899
vt 0.7059308 0.0795899
vt 0.4997822 0.01379779
vt 0.7059308 0.0795899
vt 0.7059308 0.01379779
vt 0.4997822 0.01379779
vt 0.8085666 0.145382
vt 0.9112022 0.145382
vt 0.8085666 0.1120474
vt 0.7059308 0.0795899
vt 0.7059308 0.145382
vt 0.8085666 0.1120474
vt 0.7059308 0.145382
vt 0.8085666 0.145382
vt 0.8085666 0.1120474
vt 0.7059308 0.0795899
vt 0.8085666 0.04625523
vt 0.7059308 0.01379779
vt 0.8085666 0.04625523
vt 0.8085666 0.01379779
vt 0.7059308 0.01379779
vt 0.9112022 0.01379779
vt 0.8085666 0.01379779
vt 0.8085666 0.04625523
vn 0.1847638 0.1256616 0.9747161
vn 0.1847638 0.1256616 0.9747161
vn 0.1847638 0.1256616 0.9747161
vn 0.2407422 0.006071478 0.9705701
vn 0.2407422 0.006071478 0.9705701
vn 0.2407422 0.006071478 0.9705701
vn 0.2356532 -0.04481795 0.9708032
vn 0.2356532 -0.04481795 0.9708032
vn 0.2356532 -0.04481795 0.9708032
vn 0.2534645 -0.08807394 0.9633269
vn 0.01682878 0.003526986 0.9998522
vn 0.01682878 0.003526986 0.9998522
vn 0.01682878 0.003526986 0.9998522
vn 0.039729 -0.039729 0.9984204
vn 0.039729 -0.039729 0.9984204
vn 0.039729 -0.039729 0.9984204
vn 0.217842 -0.07789606 0.9728705
vn 0.217842 -0.07789606 0.9728705
vn 0.217842 -0.07789606 0.9728705
vn 0.1236965 0.1790955 0.9760246
vn 0.1236965 0.1790955 0.9760246
vn 0.1236965 0.1790955 0.9760246
vn 0.06008476 0.1689176 0.9837971
vn 0.06008476 0.1689176 0.9837971
vn 0.06008476 0.1689176 0.9837971
vn 0.3654212 -0.3170763 0.8751743
vn 0.3654212 -0.3170763 0.8751743
vn 0.3654212 -0.3170763 0.8751743
vn 0.1949417 -0.2865427 0.9380251
vn 0.1949417 -0.2865427 0.9380251
vn 0.1949417 -0.2865427 0.9380251
vn 0.04990688 0.138384 0.9891204
vn 0.04990688 0.138384 0.9891204
vn 0.04990688 0.138384 0.9891204
vn 0.2203864 -0.4086773 0.8856708
vn 0.2203864 -0.4086773 0.8856708
vn 0.2203864 -0.4086773 0.8856708
vn 0.04990688 -0.0753516 0.9959073
vn 0.04990688 -0.0753516 0.9959073
vn 0.04990688 -0.0753516 0.9959073
vn -0.1536507 -0.2865427 0.9456663
vn -0.1536507 -0.2865427 0.9456663
vn -0.1536507 -0.2865427 0.9456663
vn 0.006650895 0.1307505 0.991393
vn 0.006650895 0.1307505 0.991393
vn 0.006650895 0.1307505 0.991393
vn 0.2890871 -0.4697445 0.8341275
vn 0.2890871 -0.4697445 0.8341275
vn 0.2890871 -0.4697445 0.8341275
vn -0.02642724 -0.3679657 0.9294637
vn -0.02642724 -0.3679657 0.9294637
vn -0.02642724 -0.3679657 0.9294637
g loreShopFlag_0
f 3/3/3 2/2/2 1/1/1
f 6/6/6 5/5/5 4/4/4
f 9/9/9 8/8/8 7/7/7
f 9/9/9 10/10/10 8/8/8
f 13/13/13 12/12/12 11/11/11
f 16/16/16 15/15/15 14/14/14
f 19/19/19 18/18/18 17/17/17
f 22/22/22 21/21/21 20/20/20
f 25/25/25 24/24/24 23/23/23
f 28/28/28 27/27/27 26/26/26
f 31/31/31 30/30/30 29/29/29
f 34/34/34 33/33/33 32/32/32
f 37/37/37 36/36/36 35/35/35
f 40/40/40 39/39/39 38/38/38
f 43/43/43 42/42/42 41/41/41
f 46/46/46 45/45/45 44/44/44
f 49/49/49 48/48/48 47/47/47
f 52/52/52 51/51/51 50/50/50
