g magicTrapGeo
v -0.09596625 0.5137267 -2.712011E-06
v -0.08653909 0.2346131 -2.712011E-06
v -0.03711292 0.2346131 -0.07194366
v -0.04805332 0.5123566 -0.09351776
v 0.03740464 0.2346131 -0.05856976
v 0.06268008 0.2346131 -2.712011E-06
v 0.08192295 0.5063446 -2.712011E-06
v 0.0471181 0.507551 -0.08494946
v -0.03711292 0.2346131 -0.07194366
v 0.03740464 0.2346131 -0.05856976
v 0.0471181 0.507551 -0.08494946
v -0.04805332 0.5123566 -0.09351776
v -0.09191728 0.6260347 -2.712011E-06
v -0.04909626 0.6266073 -0.09083889
v -0.05664209 0.7460726 -0.1050103
v -0.1090743 0.7460726 -2.712011E-06
v 0.04343721 0.6271186 -0.08654451
v 0.07861015 0.6268528 -2.712011E-06
v 0.1082209 0.7460726 -2.712011E-06
v 0.0621075 0.7460726 -0.1022496
v -0.04909626 0.6266073 -0.09083889
v 0.04343721 0.6271186 -0.08654451
v 0.0621075 0.7460726 -0.1022496
v -0.05664209 0.7460726 -0.1050103
v -0.03711292 0.2346131 0.07193822
v -0.04805332 0.5123566 0.09351233
v 0.0471181 0.507551 0.08496448
v 0.03740464 0.2346131 0.05856431
v -0.09596625 0.5137267 -2.712011E-06
v -0.04805332 0.5123566 0.09351233
v -0.03711292 0.2346131 0.07193822
v -0.08653909 0.2346131 -2.712011E-06
v 0.03740464 0.2346131 0.05856431
v 0.0471181 0.507551 0.08496448
v 0.08192295 0.5063446 -2.712011E-06
v 0.06268008 0.2346131 -2.712011E-06
v -0.09191728 0.6260347 -2.712011E-06
v -0.1090743 0.7460726 -2.712011E-06
v -0.05664209 0.7460726 0.1050253
v -0.04909626 0.6266073 0.09083346
v 0.04343721 0.6271186 0.08655953
v 0.0621075 0.7460726 0.1022442
v 0.1082209 0.7460726 -2.712011E-06
v 0.07861015 0.6268528 -2.712011E-06
v -0.04909626 0.6266073 0.09083346
v -0.05664209 0.7460726 0.1050253
v 0.0621075 0.7460726 0.1022442
v 0.04343721 0.6271186 0.08655953
v -0.04786929 1.126758 -2.712011E-06
v -0.02191903 1.126758 -0.04625922
v 0.02531905 1.126758 -0.04527766
v 0.04824282 1.126758 -2.712011E-06
v -0.02191903 1.126758 0.0462538
v 0.02531905 1.126758 0.04527223
v 0.0621075 0.7460726 -0.1022496
v 0.07568589 0.7705506 -0.1343756
v -0.06795058 0.7705506 -0.1377293
v -0.05664209 0.7460726 -0.1050103
v -0.05664209 0.7460726 -0.1050103
v -0.06795058 0.7705506 -0.1377293
v -0.1367219 0.7705506 -2.712011E-06
v -0.1090743 0.7460726 -2.712011E-06
v -0.1090743 0.7460726 -2.712011E-06
v -0.1367219 0.7705506 -2.712011E-06
v -0.06795058 0.7705506 0.1377239
v -0.05664209 0.7460726 0.1050253
v -0.05664209 0.7460726 0.1050253
v -0.06795058 0.7705506 0.1377239
v 0.07568589 0.7705506 0.1343702
v 0.0621075 0.7460726 0.1022442
v 0.0621075 0.7460726 0.1022442
v 0.07568589 0.7705506 0.1343702
v 0.1362365 0.7705506 -2.712011E-06
v 0.1082209 0.7460726 -2.712011E-06
v 0.1082209 0.7460726 -2.712011E-06
v 0.1362365 0.7705506 -2.712011E-06
v 0.07568589 0.7705506 -0.1343756
v 0.0621075 0.7460726 -0.1022496
v 0.07568589 0.7705506 -0.1343756
v 0.1144579 0.903676 -0.1952534
v -0.1014467 0.903676 -0.1997319
v -0.06795058 0.7705506 -0.1377293
v -0.06795058 0.7705506 -0.1377293
v -0.1014467 0.903676 -0.1997319
v -0.2133866 0.903676 -2.712011E-06
v -0.1367219 0.7705506 -2.712011E-06
v -0.1367219 0.7705506 -2.712011E-06
v -0.2133866 0.903676 -2.712011E-06
v -0.1014467 0.903676 0.1997469
v -0.06795058 0.7705506 0.1377239
v -0.06795058 0.7705506 0.1377239
v -0.1014467 0.903676 0.1997469
v 0.1144579 0.903676 0.195248
v 0.07568589 0.7705506 0.1343702
v 0.07568589 0.7705506 0.1343702
v 0.1144579 0.903676 0.195248
v 0.213392 0.903676 -2.712011E-06
v 0.1362365 0.7705506 -2.712011E-06
v 0.1362365 0.7705506 -2.712011E-06
v 0.213392 0.903676 -2.712011E-06
v 0.1144579 0.903676 -0.1952534
v 0.07568589 0.7705506 -0.1343756
v 0.1144579 0.903676 -0.1952534
v 0.02531905 1.126758 -0.04527766
v -0.02191903 1.126758 -0.04625922
v -0.1014467 0.903676 -0.1997319
v -0.1014467 0.903676 -0.1997319
v -0.02191903 1.126758 -0.04625922
v -0.04786929 1.126758 -2.712011E-06
v -0.2133866 0.903676 -2.712011E-06
v -0.2133866 0.903676 -2.712011E-06
v -0.04786929 1.126758 -2.712011E-06
v -0.02191903 1.126758 0.0462538
v -0.1014467 0.903676 0.1997469
v -0.1014467 0.903676 0.1997469
v -0.02191903 1.126758 0.0462538
v 0.02531905 1.126758 0.04527223
v 0.1144579 0.903676 0.195248
v 0.1144579 0.903676 0.195248
v 0.02531905 1.126758 0.04527223
v 0.04824282 1.126758 -2.712011E-06
v 0.213392 0.903676 -2.712011E-06
v 0.213392 0.903676 -2.712011E-06
v 0.04824282 1.126758 -2.712011E-06
v 0.02531905 1.126758 -0.04527766
v 0.1144579 0.903676 -0.1952534
v 0.0471181 0.507551 0.08496448
v 0.04343721 0.6271186 0.08655953
v 0.07861015 0.6268528 -2.712011E-06
v 0.08192295 0.5063446 -2.712011E-06
v 0.0471181 0.507551 -0.08494946
v 0.08192295 0.5063446 -2.712011E-06
v 0.07861015 0.6268528 -2.712011E-06
v 0.04343721 0.6271186 -0.08654451
v -0.04805332 0.5123566 -0.09351776
v 0.0471181 0.507551 -0.08494946
v 0.04343721 0.6271186 -0.08654451
v -0.04909626 0.6266073 -0.09083889
v -0.09596625 0.5137267 -2.712011E-06
v -0.04805332 0.5123566 -0.09351776
v -0.04909626 0.6266073 -0.09083889
v -0.09191728 0.6260347 -2.712011E-06
v -0.09596625 0.5137267 -2.712011E-06
v -0.09191728 0.6260347 -2.712011E-06
v -0.04909626 0.6266073 0.09083346
v -0.04805332 0.5123566 0.09351233
v -0.04805332 0.5123566 0.09351233
v -0.04909626 0.6266073 0.09083346
v 0.04343721 0.6271186 0.08655953
v 0.0471181 0.507551 0.08496448
v -0.07273576 -2.712011E-06 -0.1614915
v -0.06578296 0.2036527 -0.1440073
v -0.1618746 0.2041844 -2.712011E-06
v -0.1844916 -2.712011E-06 -2.712011E-06
v 0.09940718 -2.712011E-06 -0.1332918
v 0.08889619 0.2030188 -0.1220855
v -0.06578296 0.2036527 -0.1440073
v -0.07273576 -2.712011E-06 -0.1614915
v 0.162514 -2.712011E-06 -2.712011E-06
v 0.1476882 0.2029165 -2.712011E-06
v 0.08889619 0.2030188 -0.1220855
v 0.09940718 -2.712011E-06 -0.1332918
v 0.09940718 -2.712011E-06 0.1332864
v 0.08889619 0.2030188 0.1220801
v 0.1476882 0.2029165 -2.712011E-06
v 0.162514 -2.712011E-06 -2.712011E-06
v -0.07273576 -2.712011E-06 0.1614861
v -0.06578296 0.2036527 0.1440018
v 0.08889619 0.2030188 0.1220801
v 0.09940718 -2.712011E-06 0.1332864
v -0.1618746 0.2041844 -2.712011E-06
v -0.06578296 0.2036527 0.1440018
v -0.07273576 -2.712011E-06 0.1614861
v -0.1844916 -2.712011E-06 -2.712011E-06
v -0.08653909 0.2346131 -2.712011E-06
v -0.1618746 0.2041844 -2.712011E-06
v -0.06578296 0.2036527 -0.1440073
v -0.03711292 0.2346131 -0.07194366
v -0.03711292 0.2346131 -0.07194366
v -0.06578296 0.2036527 -0.1440073
v 0.08889619 0.2030188 -0.1220855
v 0.03740464 0.2346131 -0.05856976
v 0.03740464 0.2346131 -0.05856976
v 0.08889619 0.2030188 -0.1220855
v 0.1476882 0.2029165 -2.712011E-06
v 0.06268008 0.2346131 -2.712011E-06
v 0.06268008 0.2346131 -2.712011E-06
v 0.1476882 0.2029165 -2.712011E-06
v 0.08889619 0.2030188 0.1220801
v 0.03740464 0.2346131 0.05856431
v 0.03740464 0.2346131 0.05856431
v 0.08889619 0.2030188 0.1220801
v -0.06578296 0.2036527 0.1440018
v -0.03711292 0.2346131 0.07193822
v -0.03711292 0.2346131 0.07193822
v -0.06578296 0.2036527 0.1440018
v -0.1618746 0.2041844 -2.712011E-06
v -0.08653909 0.2346131 -2.712011E-06
vt 0.0605249 0.5805805
vt 0.06324296 0.5715203
vt 0.06867909 0.5715203
vt 0.06686705 0.5796745
vt 0.07592725 0.5715203
vt 0.07773929 0.5715203
vt 0.08226939 0.5796745
vt 0.07773929 0.5796745
vt 0.06867909 0.5715203
vt 0.07592725 0.5715203
vt 0.07773929 0.5796745
vt 0.06686705 0.5796745
vt 0.1629052 0.6566862
vt 0.1764955 0.6575922
vt 0.1737774 0.7146716
vt 0.1574691 0.7146716
vt 0.2054881 0.6575922
vt 0.2163604 0.6575922
vt 0.2254206 0.7146716
vt 0.2109243 0.7146716
vt 0.1764955 0.6575922
vt 0.2054881 0.6575922
vt 0.2109243 0.7146716
vt 0.1737774 0.7146716
vt 0.06867909 0.5715203
vt 0.06686705 0.5796745
vt 0.07773929 0.5796745
vt 0.07592725 0.5715203
vt 0.0605249 0.5805805
vt 0.06686705 0.5796745
vt 0.06867909 0.5715203
vt 0.06324296 0.5715203
vt 0.07592725 0.5715203
vt 0.07773929 0.5796745
vt 0.08226939 0.5796745
vt 0.07773929 0.5715203
vt 0.1629052 0.6566862
vt 0.1574691 0.7146716
vt 0.1737774 0.7146716
vt 0.1764955 0.6575922
vt 0.2054881 0.6575922
vt 0.2109243 0.7146716
vt 0.2254206 0.7146716
vt 0.2163604 0.6575922
vt 0.1764955 0.6575922
vt 0.1737774 0.7146716
vt 0.2109243 0.7146716
vt 0.2054881 0.6575922
vt 0.7998375 0.9810415
vt 0.8052736 0.9810415
vt 0.8161458 0.9810415
vt 0.8206759 0.9810415
vt 0.8052736 0.9810415
vt 0.8161458 0.9810415
vt 0.2109243 0.7146716
vt 0.2154544 0.7264498
vt 0.1701533 0.7264498
vt 0.1737774 0.7146716
vt 0.1737774 0.7146716
vt 0.1701533 0.7264498
vt 0.1493149 0.7264498
vt 0.1574691 0.7146716
vt 0.1574691 0.7146716
vt 0.1493149 0.7264498
vt 0.1701533 0.7264498
vt 0.1737774 0.7146716
vt 0.1737774 0.7146716
vt 0.1701533 0.7264498
vt 0.2154544 0.7264498
vt 0.2109243 0.7146716
vt 0.2109243 0.7146716
vt 0.2154544 0.7264498
vt 0.2344808 0.7264498
vt 0.2254206 0.7146716
vt 0.2254206 0.7146716
vt 0.2344808 0.7264498
vt 0.2154544 0.7264498
vt 0.2109243 0.7146716
vt 0.826112 0.8877214
vt 0.8351722 0.9221502
vt 0.7880592 0.9221502
vt 0.7962134 0.8877214
vt 0.7962134 0.8877214
vt 0.7880592 0.9221502
vt 0.7645026 0.9221502
vt 0.7817171 0.8877214
vt 0.7817171 0.8877214
vt 0.7645026 0.9221502
vt 0.7880592 0.9221502
vt 0.7962134 0.8877214
vt 0.7962134 0.8877214
vt 0.7880592 0.9221502
vt 0.8351722 0.9221502
vt 0.826112 0.8877214
vt 0.826112 0.8877214
vt 0.8351722 0.9221502
vt 0.8560107 0.9221502
vt 0.8387963 0.8877214
vt 0.8387963 0.8877214
vt 0.8560107 0.9221502
vt 0.8351722 0.9221502
vt 0.826112 0.8877214
vt 0.8351722 0.9221502
vt 0.8161458 0.9810415
vt 0.8052736 0.9810415
vt 0.7880592 0.9221502
vt 0.7880592 0.9221502
vt 0.8052736 0.9810415
vt 0.7998375 0.9810415
vt 0.7645026 0.9221502
vt 0.7645026 0.9221502
vt 0.7998375 0.9810415
vt 0.8052736 0.9810415
vt 0.7880592 0.9221502
vt 0.7880592 0.9221502
vt 0.8052736 0.9810415
vt 0.8161458 0.9810415
vt 0.8351722 0.9221502
vt 0.8351722 0.9221502
vt 0.8161458 0.9810415
vt 0.8206759 0.9810415
vt 0.8560107 0.9221502
vt 0.8560107 0.9221502
vt 0.8206759 0.9810415
vt 0.8161458 0.9810415
vt 0.8351722 0.9221502
vt 0.07320919 0.5307494
vt 0.07411521 0.5470578
vt 0.07773929 0.5470578
vt 0.07592725 0.5307494
vt 0.07320919 0.5307494
vt 0.07592725 0.5307494
vt 0.07773929 0.5470578
vt 0.07411521 0.5470578
vt 0.06505501 0.5307494
vt 0.07320919 0.5307494
vt 0.07411521 0.5470578
vt 0.06505501 0.5470578
vt 0.06143092 0.5316554
vt 0.06505501 0.5307494
vt 0.06505501 0.5470578
vt 0.0605249 0.5470578
vt 0.06143092 0.5316554
vt 0.0605249 0.5470578
vt 0.06505501 0.5470578
vt 0.06505501 0.5307494
vt 0.06505501 0.5307494
vt 0.06505501 0.5470578
vt 0.07411521 0.5470578
vt 0.07320919 0.5307494
vt 0.9284923 0.8188639
vt 0.9293984 0.8632588
vt 0.8922515 0.8415144
vt 0.8859094 0.7944013
vt 0.9774174 0.8070856
vt 0.9728873 0.8532926
vt 0.9293984 0.8632588
vt 0.9284923 0.8188639
vt 0.9873837 0.780811
vt 0.9828535 0.8297361
vt 0.9728873 0.8532926
vt 0.9774174 0.8070856
vt 0.961109 0.7599726
vt 0.958391 0.8098037
vt 0.9828535 0.8297361
vt 0.9873837 0.780811
vt 0.9085599 0.7608786
vt 0.9121839 0.8125218
vt 0.958391 0.8098037
vt 0.961109 0.7599726
vt 0.8922515 0.8415144
vt 0.9121839 0.8125218
vt 0.9085599 0.7608786
vt 0.8859094 0.7944013
vt 0.914902 0.8460445
vt 0.8922515 0.8415144
vt 0.9293984 0.8632588
vt 0.9330224 0.8569167
vt 0.9330224 0.8569167
vt 0.9293984 0.8632588
vt 0.9728873 0.8532926
vt 0.9547669 0.8514806
vt 0.9547669 0.8514806
vt 0.9728873 0.8532926
vt 0.9828535 0.8297361
vt 0.958391 0.8406084
vt 0.958391 0.8406084
vt 0.9828535 0.8297361
vt 0.958391 0.8098037
vt 0.9475188 0.8306422
vt 0.9475188 0.8306422
vt 0.958391 0.8098037
vt 0.9121839 0.8125218
vt 0.9248682 0.8315482
vt 0.9248682 0.8315482
vt 0.9121839 0.8125218
vt 0.8922515 0.8415144
vt 0.914902 0.8460445
vn -0.8640645 -0.04969084 -0.5009225
vn -0.8640645 -0.04969084 -0.5009225
vn -0.8640645 -0.04969084 -0.5009225
vn -0.8640645 -0.04969084 -0.5009225
vn 0.9181361 -0.06479424 -0.3909321
vn 0.9181361 -0.06479424 -0.3909321
vn 0.9181361 -0.06479424 -0.3909321
vn 0.9181361 -0.06479424 -0.3909321
vn 0.1252078 -0.08744931 -0.988269
vn 0.1252078 -0.08744931 -0.988269
vn 0.1252078 -0.08744931 -0.988269
vn 0.1252078 -0.08744931 -0.988269
vn -0.8942713 -0.1176561 -0.4317822
vn -0.8942713 -0.1176561 -0.4317822
vn -0.8942713 -0.1176561 -0.4317822
vn -0.8942713 -0.1176561 -0.4317822
vn 0.8954809 -0.2082765 -0.3933635
vn 0.8954809 -0.2082765 -0.3933635
vn 0.8954809 -0.2082765 -0.3933635
vn 0.8954809 -0.2082765 -0.3933635
vn 0.03458744 -0.1252078 -0.9915275
vn 0.03458744 -0.1252078 -0.9915275
vn 0.03458744 -0.1252078 -0.9915275
vn 0.03458744 -0.1252078 -0.9915275
vn 0.1252078 -0.08744931 0.988269
vn 0.1252078 -0.08744931 0.988269
vn 0.1252078 -0.08744931 0.988269
vn 0.1252078 -0.08744931 0.988269
vn -0.8640645 -0.04969084 0.5009225
vn -0.8640645 -0.04969084 0.5009225
vn -0.8640645 -0.04969084 0.5009225
vn -0.8640645 -0.04969084 0.5009225
vn 0.9181361 -0.06479424 0.3909321
vn 0.9181361 -0.06479424 0.3909321
vn 0.9181361 -0.06479424 0.3909321
vn 0.9181361 -0.06479424 0.3909321
vn -0.8942713 -0.1176561 0.4317822
vn -0.8942713 -0.1176561 0.4317822
vn -0.8942713 -0.1176561 0.4317822
vn -0.8942713 -0.1176561 0.4317822
vn 0.8954809 -0.2082765 0.3933635
vn 0.8954809 -0.2082765 0.3933635
vn 0.8954809 -0.2082765 0.3933635
vn 0.8954809 -0.2082765 0.3933635
vn 0.03458744 -0.1252078 0.9915275
vn 0.03458744 -0.1252078 0.9915275
vn 0.03458744 -0.1252078 0.9915275
vn 0.03458744 -0.1252078 0.9915275
vn -0.003171027 0.9999951 0
vn -0.003171027 0.9999951 0
vn -0.003171027 0.9999951 0
vn -0.003171027 0.9999951 0
vn -0.003171027 0.9999951 0
vn -0.003171027 0.9999951 0
vn 0.01193237 -0.7973089 -0.6034536
vn 0.01193237 -0.7973089 -0.6034536
vn 0.01193237 -0.7973089 -0.6034536
vn 0.01193237 -0.7973089 -0.6034536
vn -0.6299619 -0.7142402 -0.3049737
vn -0.6299619 -0.7142402 -0.3049737
vn -0.6299619 -0.7142402 -0.3049737
vn -0.6299619 -0.7142402 -0.3049737
vn -0.6299619 -0.7142402 0.3049737
vn -0.6299619 -0.7142402 0.3049737
vn -0.6299619 -0.7142402 0.3049737
vn -0.6299619 -0.7142402 0.3049737
vn 0.01193237 -0.7973089 0.6034536
vn 0.01193237 -0.7973089 0.6034536
vn 0.01193237 -0.7973089 0.6034536
vn 0.01193237 -0.7973089 0.6034536
vn 0.6311715 -0.7217919 0.2839699
vn 0.6311715 -0.7217919 0.2839699
vn 0.6311715 -0.7217919 0.2839699
vn 0.6311715 -0.7217919 0.2839699
vn 0.6311715 -0.7217919 -0.2839699
vn 0.6311715 -0.7217919 -0.2839699
vn 0.6311715 -0.7217919 -0.2839699
vn 0.6311715 -0.7217919 -0.2839699
vn 0.01948404 -0.419724 -0.9074426
vn 0.01948404 -0.419724 -0.9074426
vn 0.01948404 -0.419724 -0.9074426
vn 0.01948404 -0.419724 -0.9074426
vn -0.7960992 -0.4272757 -0.4285574
vn -0.7960992 -0.4272757 -0.4285574
vn -0.7960992 -0.4272757 -0.4285574
vn -0.7960992 -0.4272757 -0.4285574
vn -0.7960992 -0.4272757 0.4285574
vn -0.7960992 -0.4272757 0.4285574
vn -0.7960992 -0.4272757 0.4285574
vn -0.7960992 -0.4272757 0.4285574
vn 0.01948404 -0.419724 0.9074426
vn 0.01948404 -0.419724 0.9074426
vn 0.01948404 -0.419724 0.9074426
vn 0.01948404 -0.419724 0.9074426
vn 0.8048606 -0.4423791 0.395601
vn 0.8048606 -0.4423791 0.395601
vn 0.8048606 -0.4423791 0.395601
vn 0.8048606 -0.4423791 0.395601
vn 0.8048606 -0.4423791 -0.395601
vn 0.8048606 -0.4423791 -0.395601
vn 0.8048606 -0.4423791 -0.395601
vn 0.8048606 -0.4423791 -0.395601
vn 0.01948404 0.5619966 -0.82691
vn 0.01948404 0.5619966 -0.82691
vn 0.01948404 0.5619966 -0.82691
vn 0.01948404 0.5619966 -0.82691
vn -0.7356856 0.5468932 -0.3995929
vn -0.7356856 0.5468932 -0.3995929
vn -0.7356856 0.5468932 -0.3995929
vn -0.7356856 0.5468932 -0.3995929
vn -0.7356856 0.5468932 0.3995929
vn -0.7356856 0.5468932 0.3995929
vn -0.7356856 0.5468932 0.3995929
vn -0.7356856 0.5468932 0.3995929
vn 0.01948404 0.5619966 0.82691
vn 0.01948404 0.5619966 0.82691
vn 0.01948404 0.5619966 0.82691
vn 0.01948404 0.5619966 0.82691
vn 0.744447 0.554445 0.3720073
vn 0.744447 0.554445 0.3720073
vn 0.744447 0.554445 0.3720073
vn 0.744447 0.554445 0.3720073
vn 0.744447 0.554445 -0.3720073
vn 0.744447 0.554445 -0.3720073
vn 0.744447 0.554445 -0.3720073
vn 0.744447 0.554445 -0.3720073
vn 0.9256877 0.0258261 0.3774059
vn 0.9256877 0.0258261 0.3774059
vn 0.9256877 0.0258261 0.3774059
vn 0.9256877 0.0258261 0.3774059
vn 0.9256877 0.0258261 -0.3774059
vn 0.9256877 0.0258261 -0.3774059
vn 0.9256877 0.0258261 -0.3774059
vn 0.9256877 0.0258261 -0.3774059
vn 0.06479424 0.003171027 -0.9978936
vn 0.06479424 0.003171027 -0.9978936
vn 0.06479424 0.003171027 -0.9978936
vn 0.06479424 0.003171027 -0.9978936
vn -0.8942713 0.01827443 -0.447152
vn -0.8942713 0.01827443 -0.447152
vn -0.8942713 0.01827443 -0.447152
vn -0.8942713 0.01827443 -0.447152
vn -0.8942713 0.01827443 0.447152
vn -0.8942713 0.01827443 0.447152
vn -0.8942713 0.01827443 0.447152
vn -0.8942713 0.01827443 0.447152
vn 0.06479424 0.003171027 0.9978936
vn 0.06479424 0.003171027 0.9978936
vn 0.06479424 0.003171027 0.9978936
vn 0.06479424 0.003171027 0.9978936
vn -0.826306 0.08623976 -0.5565798
vn -0.826306 0.08623976 -0.5565798
vn -0.826306 0.08623976 -0.5565798
vn -0.826306 0.08623976 -0.5565798
vn 0.1478629 0.0711363 -0.9864462
vn 0.1478629 0.0711363 -0.9864462
vn 0.1478629 0.0711363 -0.9864462
vn 0.1478629 0.0711363 -0.9864462
vn 0.9030327 0.0711363 -0.4236409
vn 0.9030327 0.0711363 -0.4236409
vn 0.9030327 0.0711363 -0.4236409
vn 0.9030327 0.0711363 -0.4236409
vn 0.9030327 0.0711363 0.4236409
vn 0.9030327 0.0711363 0.4236409
vn 0.9030327 0.0711363 0.4236409
vn 0.9030327 0.0711363 0.4236409
vn 0.1478629 0.0711363 0.9864462
vn 0.1478629 0.0711363 0.9864462
vn 0.1478629 0.0711363 0.9864462
vn 0.1478629 0.0711363 0.9864462
vn -0.826306 0.08623976 0.5565798
vn -0.826306 0.08623976 0.5565798
vn -0.826306 0.08623976 0.5565798
vn -0.826306 0.08623976 0.5565798
vn -0.3581008 0.901823 -0.2418246
vn -0.3581008 0.901823 -0.2418246
vn -0.3581008 0.901823 -0.2418246
vn -0.3581008 0.901823 -0.2418246
vn 0.06479424 0.9093747 -0.4109008
vn 0.06479424 0.9093747 -0.4109008
vn 0.06479424 0.9093747 -0.4109008
vn 0.06479424 0.9093747 -0.4109008
vn 0.3517587 0.9244781 -0.1469899
vn 0.3517587 0.9244781 -0.1469899
vn 0.3517587 0.9244781 -0.1469899
vn 0.3517587 0.9244781 -0.1469899
vn 0.3517587 0.9244781 0.1469899
vn 0.3517587 0.9244781 0.1469899
vn 0.3517587 0.9244781 0.1469899
vn 0.3517587 0.9244781 0.1469899
vn 0.06479424 0.9093747 0.4109008
vn 0.06479424 0.9093747 0.4109008
vn 0.06479424 0.9093747 0.4109008
vn 0.06479424 0.9093747 0.4109008
vn -0.3581008 0.901823 0.2418246
vn -0.3581008 0.901823 0.2418246
vn -0.3581008 0.901823 0.2418246
vn -0.3581008 0.901823 0.2418246
g magicTrapGeo_0
f 3/3/3 2/2/2 1/1/1
f 4/4/4 3/3/3 1/1/1
f 7/7/7 6/6/6 5/5/5
f 8/8/8 7/7/7 5/5/5
f 11/11/11 10/10/10 9/9/9
f 12/12/12 11/11/11 9/9/9
f 15/15/15 14/14/14 13/13/13
f 16/16/16 15/15/15 13/13/13
f 19/19/19 18/18/18 17/17/17
f 20/20/20 19/19/19 17/17/17
f 23/23/23 22/22/22 21/21/21
f 24/24/24 23/23/23 21/21/21
f 27/27/27 26/26/26 25/25/25
f 28/28/28 27/27/27 25/25/25
f 31/31/31 30/30/30 29/29/29
f 32/32/32 31/31/31 29/29/29
f 35/35/35 34/34/34 33/33/33
f 36/36/36 35/35/35 33/33/33
f 39/39/39 38/38/38 37/37/37
f 40/40/40 39/39/39 37/37/37
f 43/43/43 42/42/42 41/41/41
f 44/44/44 43/43/43 41/41/41
f 47/47/47 46/46/46 45/45/45
f 48/48/48 47/47/47 45/45/45
f 51/51/51 50/50/50 49/49/49
f 49/49/49 52/52/52 51/51/51
f 49/49/49 53/53/53 52/52/52
f 53/53/53 54/54/54 52/52/52
f 57/57/57 56/56/56 55/55/55
f 58/58/58 57/57/57 55/55/55
f 61/61/61 60/60/60 59/59/59
f 62/62/62 61/61/61 59/59/59
f 65/65/65 64/64/64 63/63/63
f 66/66/66 65/65/65 63/63/63
f 69/69/69 68/68/68 67/67/67
f 70/70/70 69/69/69 67/67/67
f 73/73/73 72/72/72 71/71/71
f 74/74/74 73/73/73 71/71/71
f 77/77/77 76/76/76 75/75/75
f 78/78/78 77/77/77 75/75/75
f 81/81/81 80/80/80 79/79/79
f 82/82/82 81/81/81 79/79/79
f 85/85/85 84/84/84 83/83/83
f 86/86/86 85/85/85 83/83/83
f 89/89/89 88/88/88 87/87/87
f 90/90/90 89/89/89 87/87/87
f 93/93/93 92/92/92 91/91/91
f 94/94/94 93/93/93 91/91/91
f 97/97/97 96/96/96 95/95/95
f 98/98/98 97/97/97 95/95/95
f 101/101/101 100/100/100 99/99/99
f 102/102/102 101/101/101 99/99/99
f 105/105/105 104/104/104 103/103/103
f 106/106/106 105/105/105 103/103/103
f 109/109/109 108/108/108 107/107/107
f 110/110/110 109/109/109 107/107/107
f 113/113/113 112/112/112 111/111/111
f 114/114/114 113/113/113 111/111/111
f 117/117/117 116/116/116 115/115/115
f 118/118/118 117/117/117 115/115/115
f 121/121/121 120/120/120 119/119/119
f 122/122/122 121/121/121 119/119/119
f 125/125/125 124/124/124 123/123/123
f 126/126/126 125/125/125 123/123/123
f 129/129/129 128/128/128 127/127/127
f 130/130/130 129/129/129 127/127/127
f 133/133/133 132/132/132 131/131/131
f 134/134/134 133/133/133 131/131/131
f 137/137/137 136/136/136 135/135/135
f 138/138/138 137/137/137 135/135/135
f 141/141/141 140/140/140 139/139/139
f 142/142/142 141/141/141 139/139/139
f 145/145/145 144/144/144 143/143/143
f 146/146/146 145/145/145 143/143/143
f 149/149/149 148/148/148 147/147/147
f 150/150/150 149/149/149 147/147/147
f 153/153/153 152/152/152 151/151/151
f 154/154/154 153/153/153 151/151/151
f 157/157/157 156/156/156 155/155/155
f 158/158/158 157/157/157 155/155/155
f 161/161/161 160/160/160 159/159/159
f 162/162/162 161/161/161 159/159/159
f 165/165/165 164/164/164 163/163/163
f 166/166/166 165/165/165 163/163/163
f 169/169/169 168/168/168 167/167/167
f 170/170/170 169/169/169 167/167/167
f 173/173/173 172/172/172 171/171/171
f 174/174/174 173/173/173 171/171/171
f 177/177/177 176/176/176 175/175/175
f 178/178/178 177/177/177 175/175/175
f 181/181/181 180/180/180 179/179/179
f 182/182/182 181/181/181 179/179/179
f 185/185/185 184/184/184 183/183/183
f 186/186/186 185/185/185 183/183/183
f 189/189/189 188/188/188 187/187/187
f 190/190/190 189/189/189 187/187/187
f 193/193/193 192/192/192 191/191/191
f 194/194/194 193/193/193 191/191/191
f 197/197/197 196/196/196 195/195/195
f 198/198/198 197/197/197 195/195/195
