g magnetTrapBase
v 0.04712093 5.980628 1.065958
v 0.02499723 6.579571 1.040949
v 1.674977 6.014615 0.7839609
v 1.673213 6.789586 0.7559055
v 0.006240249 8.701363 -1.0895
v 0.02932584 7.509248 -1.055192
v 1.723713 8.710501 -0.8026937
v 1.725637 7.294744 -0.7606907
v 0.04519713 6.580052 -1.050062
v 1.698383 6.776119 -0.7494686
v 1.665679 5.9056 -0.703137
v 0.04519713 6.580052 -1.050062
v 0.0296464 5.898065 -0.9852945
v 0.04519713 6.524582 0.5813206
v 1.434983 6.036098 0.5534254
v 0.03189087 6.596886 -0.5291934
v 1.419432 6.10824 -0.5540425
v 1.674977 6.014615 0.7839609
v 1.673213 6.789586 0.7559055
v 1.665679 5.9056 -0.703137
v 1.673213 6.789586 0.7559055
v 1.698383 6.776119 -0.7494686
v 1.665679 5.9056 -0.703137
v 1.725637 7.294744 -0.7606907
v 1.707361 7.329693 0.7676085
v -1.585224 5.949687 0.820994
v -1.601897 5.917944 -0.7393686
v -1.617929 6.369717 0.751577
v -1.601897 5.917944 -0.7393686
v -1.613279 6.383985 -0.8105492
v -1.617929 6.369717 0.751577
v -1.66923 7.724233 -0.7954794
v -1.663619 7.691047 0.8174671
v -1.706263 8.742244 0.8293306
v 0.0296464 5.898065 -0.9852945
v 0.03413534 5.850611 -0.7436972
v 1.665679 5.9056 -0.703137
v 1.464481 5.8551 -0.4854269
v 1.665679 5.9056 -0.703137
v 1.464481 5.8551 -0.4854269
v 1.674977 6.014615 0.7839609
v 1.464481 5.8551 -0.4854269
v 1.437067 5.869207 0.5761904
v 1.674977 6.014615 0.7839609
v 0.04712093 5.980628 1.065958
v 1.674977 6.014615 0.7839609
v 0.01457667 5.876903 0.8030387
v 1.674977 6.014615 0.7839609
v 1.437067 5.869207 0.5761904
v 0.01457667 5.876903 0.8030387
v -1.585224 5.949687 0.820994
v -1.402142 5.882995 0.5710603
v -1.601897 5.917944 -0.7393686
v -1.402303 5.859268 -0.5384917
v 0.03189087 6.596886 -0.5291934
v 1.419432 6.10824 -0.5540425
v 0.03413534 5.850611 -0.7436972
v 1.419432 6.10824 -0.5540425
v 1.464481 5.8551 -0.4854269
v 0.03413534 5.850611 -0.7436972
v 1.437067 5.869207 0.5761904
v 1.464481 5.8551 -0.4854269
v 1.434983 6.036098 0.5534254
v 1.464481 5.8551 -0.4854269
v 1.419432 6.10824 -0.5540425
v 1.434983 6.036098 0.5534254
v 1.437067 5.869207 0.5761904
v 1.434983 6.036098 0.5534254
v 0.01457667 5.876903 0.8030387
v 1.434983 6.036098 0.5534254
v 0.04519713 6.524582 0.5813206
v 0.01457667 5.876903 0.8030387
v -1.402303 5.859268 -0.5384917
v -1.402142 5.882995 0.5710603
v -1.374407 6.134692 -0.5269489
v -1.402142 5.882995 0.5710603
v -1.363025 6.071367 0.5894967
v -1.374407 6.134692 -0.5269489
v 0.02499723 6.579571 1.040949
v 0.02066875 7.510691 1.06692
v 1.673213 6.789586 0.7559055
v 1.707361 7.329693 0.7676085
v 1.747921 8.758435 0.802718
v 0.0229131 8.757474 1.094975
v 1.725637 7.294744 -0.7606907
v 1.707361 7.329693 0.7676085
v 1.723713 8.710501 -0.8026937
v 1.707361 7.329693 0.7676085
v 1.747921 8.758435 0.802718
v 1.723713 8.710501 -0.8026937
v -1.66923 7.724233 -0.7954794
v -1.706904 8.706493 -0.8222523
v -1.706263 8.742244 0.8293306
v 0.02066875 7.510691 1.06692
v -1.663619 7.691047 0.8174671
v 0.0229131 8.757474 1.094975
v -1.706263 8.742244 0.8293306
v 0.02499723 6.579571 1.040949
v -1.617929 6.369717 0.751577
v 0.04712093 5.980628 1.065958
v -1.585224 5.949687 0.820994
v 0.02499723 6.579571 1.040949
v -1.585224 5.949687 0.820994
v -1.617929 6.369717 0.751577
v 0.02499723 6.579571 1.040949
v 0.04712093 5.980628 1.065958
v 0.01457667 5.876903 0.8030387
v -1.585224 5.949687 0.820994
v 0.01457667 5.876903 0.8030387
v -1.402142 5.882995 0.5710603
v -1.585224 5.949687 0.820994
v 0.04519713 6.524582 0.5813206
v -1.363025 6.071367 0.5894967
v 0.01457667 5.876903 0.8030387
v -1.363025 6.071367 0.5894967
v -1.402142 5.882995 0.5710603
v 0.01457667 5.876903 0.8030387
v 0.03189087 6.596886 -0.5291934
v -1.374407 6.134692 -0.5269489
v 0.04519713 6.524582 0.5813206
v -1.363025 6.071367 0.5894967
v -1.402303 5.859268 -0.5384917
v -1.374407 6.134692 -0.5269489
v 0.03413534 5.850611 -0.7436972
v -1.374407 6.134692 -0.5269489
v 0.03189087 6.596886 -0.5291934
v 0.03413534 5.850611 -0.7436972
v 0.0296464 5.898065 -0.9852945
v -1.601897 5.917944 -0.7393686
v 0.03413534 5.850611 -0.7436972
v -1.601897 5.917944 -0.7393686
v -1.402303 5.859268 -0.5384917
v 0.03413534 5.850611 -0.7436972
v 0.04519713 6.580052 -1.050062
v -1.613279 6.383985 -0.8105492
v 0.0296464 5.898065 -0.9852945
v -1.613279 6.383985 -0.8105492
v -1.601897 5.917944 -0.7393686
v 0.0296464 5.898065 -0.9852945
v -1.66923 7.724233 -0.7954794
v -1.613279 6.383985 -0.8105492
v 0.02932584 7.509248 -1.055192
v 0.04519713 6.580052 -1.050062
v 0.006240249 8.701363 -1.0895
v -1.706904 8.706493 -0.8222523
vt 0.1777864 0.6570756
vt 0.1777864 0.6703716
vt 0.2126093 0.6570756
vt 0.2132424 0.6748036
vt 0.1777864 0.7178573
vt 0.1771533 0.6918985
vt 0.2151418 0.7178573
vt 0.2138755 0.6880996
vt 0.1777864 0.672271
vt 0.2132424 0.676703
vt 0.2126093 0.6570756
vt 0.1777864 0.672271
vt 0.1777864 0.6570756
vt 0.1948813 0.0701521
vt 0.2347693 0.0701521
vt 0.1948813 0.0701521
vt 0.2347693 0.0701521
vt 0.2126093 0.6570756
vt 0.2132424 0.6748036
vt 0.2126093 0.6570756
vt 0.2132424 0.6748036
vt 0.2132424 0.676703
vt 0.2126093 0.6570756
vt 0.2138755 0.6880996
vt 0.2138755 0.6862001
vt 0.1423304 0.6570756
vt 0.1423304 0.6570756
vt 0.1423304 0.6665727
vt 0.1423304 0.6570756
vt 0.1423304 0.667839
vt 0.1423304 0.6665727
vt 0.1410641 0.6963304
vt 0.1410641 0.694431
vt 0.140431 0.7178573
vt 0.1777864 0.6570756
vt 0.1777864 0.6558093
vt 0.2126093 0.6570756
vt 0.2088104 0.6558093
vt 0.2126093 0.6570756
vt 0.2088104 0.6558093
vt 0.2126093 0.6570756
vt 0.2088104 0.6558093
vt 0.2088104 0.6558093
vt 0.2126093 0.6570756
vt 0.1777864 0.6570756
vt 0.2126093 0.6570756
vt 0.1777864 0.6558093
vt 0.2126093 0.6570756
vt 0.2088104 0.6558093
vt 0.1777864 0.6558093
vt 0.1423304 0.6570756
vt 0.1467624 0.6558093
vt 0.1423304 0.6570756
vt 0.1467624 0.6558093
vt 0.1777864 0.6608744
vt 0.2088104 0.6608744
vt 0.1777864 0.6558093
vt 0.2088104 0.6608744
vt 0.2088104 0.6558093
vt 0.1777864 0.6558093
vt 0.2088104 0.6558093
vt 0.2088104 0.6558093
vt 0.2088104 0.6608744
vt 0.2088104 0.6558093
vt 0.2088104 0.6608744
vt 0.2088104 0.6608744
vt 0.2088104 0.6558093
vt 0.2088104 0.6608744
vt 0.1777864 0.6558093
vt 0.2088104 0.6608744
vt 0.1777864 0.6608744
vt 0.1777864 0.6558093
vt 0.1467624 0.6558093
vt 0.1467624 0.6558093
vt 0.1467624 0.6608744
vt 0.1467624 0.6558093
vt 0.1467624 0.6608744
vt 0.1467624 0.6608744
vt 0.1777864 0.6703716
vt 0.1771533 0.6906322
vt 0.2132424 0.6748036
vt 0.2138755 0.6862001
vt 0.2151418 0.7178573
vt 0.1777864 0.7178573
vt 0.2138755 0.6880996
vt 0.2138755 0.6862001
vt 0.2151418 0.7178573
vt 0.2138755 0.6862001
vt 0.2151418 0.7178573
vt 0.2151418 0.7178573
vt 0.1410641 0.6963304
vt 0.140431 0.7178573
vt 0.140431 0.7178573
vt 0.1771533 0.6906322
vt 0.1410641 0.694431
vt 0.1777864 0.7178573
vt 0.140431 0.7178573
vt 0.1777864 0.6703716
vt 0.1423304 0.6665727
vt 0.1777864 0.6570756
vt 0.1423304 0.6570756
vt 0.1777864 0.6703716
vt 0.1423304 0.6570756
vt 0.1423304 0.6665727
vt 0.1777864 0.6703716
vt 0.1777864 0.6570756
vt 0.1777864 0.6558093
vt 0.1423304 0.6570756
vt 0.1777864 0.6558093
vt 0.1467624 0.6558093
vt 0.1423304 0.6570756
vt 0.1777864 0.6608744
vt 0.1467624 0.6608744
vt 0.1777864 0.6558093
vt 0.1467624 0.6608744
vt 0.1467624 0.6558093
vt 0.1777864 0.6558093
vt 0.1948813 0.0701521
vt 0.1549933 0.0701521
vt 0.1948813 0.0701521
vt 0.1549933 0.0701521
vt 0.1467624 0.6558093
vt 0.1467624 0.6608744
vt 0.1777864 0.6558093
vt 0.1467624 0.6608744
vt 0.1777864 0.6608744
vt 0.1777864 0.6558093
vt 0.1777864 0.6570756
vt 0.1423304 0.6570756
vt 0.1777864 0.6558093
vt 0.1423304 0.6570756
vt 0.1467624 0.6558093
vt 0.1777864 0.6558093
vt 0.1777864 0.672271
vt 0.1423304 0.667839
vt 0.1777864 0.6570756
vt 0.1423304 0.667839
vt 0.1423304 0.6570756
vt 0.1777864 0.6570756
vt 0.1410641 0.6963304
vt 0.1423304 0.667839
vt 0.1771533 0.6918985
vt 0.1777864 0.672271
vt 0.1777864 0.7178573
vt 0.140431 0.7178573
vn 0.1687453 0.05082536 0.9843484
vn 0.1687453 0.05082536 0.9843484
vn 0.1687453 0.05082536 0.9843484
vn 0.1687453 0.03514183 0.985033
vn 0.1609035 -0.02759272 -0.9865844
vn 0.1609035 -0.02759272 -0.9865844
vn 0.1609035 -0.02759272 -0.9865844
vn 0.1687453 -0.02759272 -0.9852734
vn 0.1687453 -0.004067242 -0.9856513
vn 0.1844289 -0.05895996 -0.9810758
vn 0.1687453 -0.09816897 -0.9807588
vn 0.1687453 -0.09816897 -0.9807588
vn 0.1687453 -0.09816897 -0.9807588
vn -0.3324397 -0.9431245 0
vn -0.3324397 -0.9431245 0
vn -0.3324397 -0.9431245 0
vn -0.3324397 -0.9431245 0
vn 0.9999771 0.003774524 -0.005615099
vn 0.9999771 0.003774524 -0.005615099
vn 0.9999771 0.003774524 -0.005615099
vn 0.9993727 -0.03541307 0
vn 0.9993727 -0.03541307 0
vn 0.9993727 -0.03541307 0
vn 0.998696 -0.05105264 0
vn 0.997776 -0.06665469 0
vn -0.997224 -0.07445985 0
vn -0.997224 -0.07445985 0
vn -0.997224 -0.07445985 0
vn -0.9996192 -0.02759092 0
vn -0.9996192 -0.02759092 0
vn -0.9996192 -0.02759092 0
vn -0.9990643 -0.04324947 0
vn -0.9993724 -0.03542342 0
vn -0.9990643 -0.04324947 0
vn 0.03543448 -0.9842935 -0.1729469
vn 0.03543448 -0.9842935 -0.1729469
vn 0.03543448 -0.9842935 -0.1729469
vn 0.03543448 -0.9842935 -0.1729469
vn 0.3098978 -0.9450845 0.1038206
vn 0.3098978 -0.9450845 0.1038206
vn 0.3098978 -0.9450845 0.1038206
vn 0.5059431 -0.8588246 0.0802625
vn 0.5059431 -0.8588246 0.0802625
vn 0.5059431 -0.8588246 0.0802625
vn 0.08248538 -0.9294008 0.3597365
vn 0.08248538 -0.9294008 0.3597365
vn 0.08248538 -0.9294008 0.3597365
vn 0.07464355 -0.8588246 0.5068025
vn 0.07464355 -0.8588246 0.5068025
vn 0.07464355 -0.8588246 0.5068025
vn -0.3174469 -0.9450845 -0.07773569
vn -0.3174469 -0.9450845 -0.07773569
vn -0.3174469 -0.9450845 -0.07773569
vn -0.3017633 -0.9529263 0.02950265
vn -0.08219266 -0.2785306 0.9569039
vn -0.08219266 -0.2785306 0.9569039
vn -0.08219266 -0.2785306 0.9569039
vn -0.1762943 0.231187 0.9568034
vn -0.1762943 0.231187 0.9568034
vn -0.1762943 0.231187 0.9568034
vn -0.9996843 -0.01975089 -0.01552789
vn -0.9996843 -0.01975089 -0.01552789
vn -0.9996843 -0.01975089 -0.01552789
vn -0.9840008 -0.1765871 0.02365138
vn -0.9840008 -0.1765871 0.02365138
vn -0.9840008 -0.1765871 0.02365138
vn -0.152769 -0.137378 -0.9786669
vn -0.152769 -0.137378 -0.9786669
vn -0.152769 -0.137378 -0.9786669
vn -0.1292435 -0.3177397 -0.9393283
vn -0.1292435 -0.3177397 -0.9393283
vn -0.1292435 -0.3177397 -0.9393283
vn 0.9921353 -0.09816897 0.07765573
vn 0.9921353 -0.09816897 0.07765573
vn 0.9921353 -0.09816897 0.07765573
vn 0.9764517 -0.2001125 -0.0806045
vn 0.9764517 -0.2001125 -0.0806045
vn 0.9764517 -0.2001125 -0.0806045
vn 0.1765871 -0.02759272 0.9838982
vn 0.1765871 -0.02759272 0.9838982
vn 0.1765871 -0.02759272 0.9838982
vn 0.1687453 -0.03543448 0.9850225
vn 0.1687453 -0.01975089 0.9854618
vn 0.1687453 -0.01975089 0.9854618
vn 0.9999771 0.003774524 0.005615099
vn 0.9999771 0.003774524 0.005615099
vn 0.9999771 0.003774524 0.005615099
vn 0.9996195 -0.02758285 0
vn 0.9996195 -0.02758285 0
vn 0.9996195 -0.02758285 0
vn -0.9993724 -0.03542342 0
vn -0.9993724 -0.03542342 0
vn -0.9993724 -0.03542342 0
vn -0.1449271 -0.01975089 0.9892452
vn -0.1449271 -0.01975089 0.9892452
vn -0.1449271 -0.01975089 0.9892452
vn -0.152769 -0.01975089 0.9880645
vn -0.1684525 -0.05111814 0.9843834
vn -0.1684525 -0.05111814 0.9843834
vn -0.152769 0.03514183 0.9876369
vn -0.152769 0.03514183 0.9876369
vn -0.152769 0.03514183 0.9876369
vn -0.191978 0.1449271 0.9706393
vn -0.191978 0.1449271 0.9706393
vn -0.191978 0.1449271 0.9706393
vn -0.03514183 -0.9294008 0.3673951
vn -0.03514183 -0.9294008 0.3673951
vn -0.03514183 -0.9294008 0.3673951
vn -0.04298353 -0.9764517 0.2114108
vn -0.04298353 -0.9764517 0.2114108
vn -0.04298353 -0.9764517 0.2114108
vn 0.09816897 -0.3255815 -0.9404039
vn 0.09816897 -0.3255815 -0.9404039
vn 0.09816897 -0.3255815 -0.9404039
vn 0.1609035 0.06650901 -0.9847267
vn 0.1609035 0.06650901 -0.9847267
vn 0.1609035 0.06650901 -0.9847267
vn 0.3098978 -0.9450845 -0.1038206
vn 0.3098978 -0.9450845 -0.1038206
vn 0.3098978 -0.9450845 -0.1038206
vn 0.302056 -0.9529263 -0.02633778
vn 0.137378 -0.05895996 0.9887624
vn 0.137378 -0.05895996 0.9887624
vn 0.137378 -0.05895996 0.9887624
vn 0.0903272 -0.2785306 0.9561703
vn 0.0903272 -0.2785306 0.9561703
vn 0.0903272 -0.2785306 0.9561703
vn -0.04298353 -0.9842935 -0.171227
vn -0.04298353 -0.9842935 -0.171227
vn -0.04298353 -0.9842935 -0.171227
vn -0.04298353 -0.9686099 -0.2448415
vn -0.04298353 -0.9686099 -0.2448415
vn -0.04298353 -0.9686099 -0.2448415
vn -0.1292435 -0.0903272 -0.9874903
vn -0.1292435 -0.0903272 -0.9874903
vn -0.1292435 -0.0903272 -0.9874903
vn -0.152769 -0.1530616 -0.9763369
vn -0.152769 -0.1530616 -0.9763369
vn -0.152769 -0.1530616 -0.9763369
vn -0.152769 0.003774524 -0.9882547
vn -0.152769 0.003774524 -0.9882547
vn -0.152769 0.003774524 -0.9882547
vn -0.1449271 -0.004067242 -0.9894339
vn -0.152769 -0.03543448 -0.9876264
vn -0.152769 -0.03543448 -0.9876264
g magnetTrapBase_0
f 3/3/3 2/2/2 1/1/1
f 3/3/3 4/4/4 2/2/2
f 7/7/7 6/6/6 5/5/5
f 7/7/7 8/8/8 6/6/6
f 8/8/8 9/9/9 6/6/6
f 8/8/8 10/10/10 9/9/9
f 12/12/12 10/10/10 11/11/11
f 12/12/12 11/11/11 13/13/13
f 16/16/16 15/15/15 14/14/14
f 16/16/16 17/17/17 15/15/15
f 20/20/20 19/19/19 18/18/18
f 23/23/23 22/22/22 21/21/21
f 24/24/24 21/21/21 22/22/22
f 24/24/24 25/25/25 21/21/21
f 28/28/28 27/27/27 26/26/26
f 31/31/31 30/30/30 29/29/29
f 31/31/31 32/32/32 30/30/30
f 31/31/31 33/33/33 32/32/32
f 34/34/34 32/32/32 33/33/33
f 37/37/37 36/36/36 35/35/35
f 37/37/37 38/38/38 36/36/36
f 41/41/41 40/40/40 39/39/39
f 44/44/44 43/43/43 42/42/42
f 47/47/47 46/46/46 45/45/45
f 50/50/50 49/49/49 48/48/48
f 53/53/53 52/52/52 51/51/51
f 53/53/53 54/54/54 52/52/52
f 57/57/57 56/56/56 55/55/55
f 60/60/60 59/59/59 58/58/58
f 63/63/63 62/62/62 61/61/61
f 66/66/66 65/65/65 64/64/64
f 69/69/69 68/68/68 67/67/67
f 72/72/72 71/71/71 70/70/70
f 75/75/75 74/74/74 73/73/73
f 78/78/78 77/77/77 76/76/76
f 81/81/81 80/80/80 79/79/79
f 81/81/81 82/82/82 80/80/80
f 80/80/80 82/82/82 83/83/83
f 80/80/80 83/83/83 84/84/84
f 87/87/87 86/86/86 85/85/85
f 90/90/90 89/89/89 88/88/88
f 93/93/93 92/92/92 91/91/91
f 96/96/96 95/95/95 94/94/94
f 96/96/96 97/97/97 95/95/95
f 98/98/98 94/94/94 95/95/95
f 98/98/98 95/95/95 99/99/99
f 102/102/102 101/101/101 100/100/100
f 105/105/105 104/104/104 103/103/103
f 108/108/108 107/107/107 106/106/106
f 111/111/111 110/110/110 109/109/109
f 114/114/114 113/113/113 112/112/112
f 117/117/117 116/116/116 115/115/115
f 120/120/120 119/119/119 118/118/118
f 120/120/120 121/121/121 119/119/119
f 124/124/124 123/123/123 122/122/122
f 127/127/127 126/126/126 125/125/125
f 130/130/130 129/129/129 128/128/128
f 133/133/133 132/132/132 131/131/131
f 136/136/136 135/135/135 134/134/134
f 139/139/139 138/138/138 137/137/137
f 142/142/142 141/141/141 140/140/140
f 142/142/142 143/143/143 141/141/141
f 144/144/144 142/142/142 140/140/140
f 144/144/144 140/140/140 145/145/145
