g midnightLanternLamp
v -0.02432871 -0.6306345 0.005692601
v -0.02432871 0.02388322 0.005692601
v 0.001855969 -0.6306345 0.03061509
v 0.001855969 0.02388322 0.03061509
v 0.000742197 0.02388322 -0.02034354
v 0.000742197 -0.6306345 -0.02034354
v 0.02700114 0.02388322 0.004554152
v 0.02700114 -0.6306345 0.004554152
v 0.02700114 -0.6306345 0.004554152
v 0.000742197 -0.6306345 -0.02034354
v 0.001855969 -0.6306345 0.03061509
v -0.02432871 -0.6306345 0.005692601
v 0.001855969 -0.6306345 0.03061509
v 0.001855969 0.02388322 0.03061509
v 0.02700114 -0.6306345 0.004554152
v 0.02700114 0.02388322 0.004554152
v 0.000742197 -0.6306345 -0.02034354
v 0.000742197 0.02388322 -0.02034354
v -0.02432871 -0.6306345 0.005692601
v -0.02432871 0.02388322 0.005692601
v 0.04375637 -0.8495414 -0.09837782
v 0.04516709 -0.5994753 -0.03610885
v 0.0428406 -0.8063293 -0.1435205
v 0.04447412 -0.5509421 -0.06964397
v 0.04788947 -0.5500511 0.0849396
v 0.04724598 -0.6003663 0.05623055
v 0.04952288 -0.806453 0.1546581
v 0.04848349 -0.8494177 0.1095403
v -0.04316294 -0.5509421 -0.06786203
v -0.04249465 -0.5994753 -0.03430212
v -0.04487062 -0.8063293 -0.1417385
v -0.04380643 -0.8495414 -0.09657121
v -0.039698 -0.5500511 0.08674634
v -0.0403167 -0.6003663 0.05803716
v -0.03808928 -0.806453 0.1564896
v -0.03915358 -0.8494177 0.1113718
v -0.04316294 -0.5509421 -0.06786203
v -0.04487062 -0.8063293 -0.1417385
v 0.04447412 -0.5509421 -0.06964397
v 0.0428406 -0.8063293 -0.1435205
v -0.04487062 -0.8063293 -0.1417385
v -0.04380643 -0.8495414 -0.09657121
v 0.0428406 -0.8063293 -0.1435205
v 0.04375637 -0.8495414 -0.09837782
v -0.04380643 -0.8495414 -0.09657121
v -0.04249465 -0.5994753 -0.03430212
v 0.04375637 -0.8495414 -0.09837782
v 0.04516709 -0.5994753 -0.03610885
v -0.03915358 -0.8494177 0.1113718
v -0.03808928 -0.806453 0.1564896
v 0.04848349 -0.8494177 0.1095403
v 0.04952288 -0.806453 0.1546581
v -0.03808928 -0.806453 0.1564896
v -0.039698 -0.5500511 0.08674634
v 0.04952288 -0.806453 0.1546581
v 0.04788947 -0.5500511 0.0849396
v -0.0403167 -0.6003663 0.05803716
v -0.03915358 -0.8494177 0.1113718
v 0.04724598 -0.6003663 0.05623055
v 0.04848349 -0.8494177 0.1095403
v 0.04788947 -0.5500511 0.0849396
v -0.039698 -0.5500511 0.08674634
v 0.04447412 -0.5509421 -0.06964397
v -0.04316294 -0.5509421 -0.06786203
v -0.04249465 -0.5994753 -0.03430212
v -0.0403167 -0.6003663 0.05803716
v 0.04516709 -0.5994753 -0.03610885
v 0.04724598 -0.6003663 0.05623055
v -0.1151088 -1.311906 0.1678742
v -0.118054 -0.9017375 0.1555738
v 0.1400555 -1.317376 0.153693
v 0.1318388 -0.9033214 0.1516882
v -0.2110368 -0.8353848 -0.205542
v 0.2055668 -0.8380578 -0.2102939
v 0.004256606 -0.6499389 0.0003714561
v -0.1285973 -0.8982478 -0.1469358
v -0.1251323 -1.314084 -0.158469
v 0.1243893 -0.9037422 -0.1572562
v 0.1359472 -1.319678 -0.1576523
v 0.1705219 -1.313738 0.1232266
v 0.1546328 -0.8958967 0.1289685
v 0.1541132 -1.321212 -0.1394368
v 0.1572562 -0.9048806 -0.1260227
v -0.1632708 -1.310991 -0.1191424
v -0.1566628 -0.9074546 -0.1158508
v -0.1533959 -1.314035 0.1300575
v -0.1444615 -0.9003763 0.1309484
v -0.207077 -0.8321427 0.2211097
v 0.004256606 -0.6499389 0.0003714561
v 0.2252918 -0.832217 0.2113585
v 0.004256606 -0.6499389 0.0003714561
v 0.2055668 -0.8380578 -0.2102939
v 0.2252918 -0.832217 0.2113585
v -0.207077 -0.8321427 0.2211097
v -0.2110368 -0.8353848 -0.205542
v 0.004256606 -0.6499389 0.0003714561
v -0.2050971 -1.383209 0.2208128
v -0.1269391 -1.322573 0.213685
v 0.2305387 -1.387144 0.2154175
v 0.1462923 -1.32386 0.2322717
v 0.2252918 -0.832217 0.2113585
v 0.2305387 -1.387144 0.2154175
v 0.1438174 -0.8955997 0.2216048
v 0.1462923 -1.32386 0.2322717
v 0.2252918 -0.832217 0.2113585
v 0.1438174 -0.8955997 0.2216048
v -0.207077 -0.8321427 0.2211097
v -0.1251323 -0.8955255 0.2266784
v -0.207077 -0.8321427 0.2211097
v -0.1251323 -0.8955255 0.2266784
v -0.2050971 -1.383209 0.2208128
v -0.1269391 -1.322573 0.213685
v -0.2110368 -0.8353848 -0.205542
v -0.134933 -0.8952532 -0.2155654
v 0.2055668 -0.8380578 -0.2102939
v 0.1335713 -0.8952037 -0.2203915
v 0.2055668 -0.8380578 -0.2102939
v 0.1335713 -0.8952037 -0.2203915
v 0.2090564 -1.376922 -0.21314
v 0.1371351 -1.322969 -0.2219754
v 0.2090564 -1.376922 -0.21314
v 0.1371351 -1.322969 -0.2219754
v -0.2224958 -1.389668 -0.2180651
v -0.1365169 -1.322499 -0.2067795
v -0.2110368 -0.8353848 -0.205542
v -0.2224958 -1.389668 -0.2180651
v -0.134933 -0.8952532 -0.2155654
v -0.1365169 -1.322499 -0.2067795
v 0.2305387 -1.387144 0.2154175
v 0.2241782 -1.322845 0.1312206
v 0.2090564 -1.376922 -0.21314
v 0.2335581 -1.323613 -0.140897
v 0.2127193 -0.894486 0.1293892
v 0.2252918 -0.832217 0.2113585
v 0.2055668 -0.8380578 -0.2102939
v 0.2090564 -1.376922 -0.21314
v 0.2068784 -0.894486 -0.1386448
v 0.2335581 -1.323613 -0.140897
v 0.2055668 -0.8380578 -0.2102939
v 0.2068784 -0.894486 -0.1386448
v 0.2252918 -0.832217 0.2113585
v 0.2127193 -0.894486 0.1293892
v -0.2224958 -1.389668 -0.2180651
v -0.2126455 -1.322796 -0.1325318
v -0.2050971 -1.383209 0.2208128
v -0.2022262 -1.322573 0.141739
v -0.207077 -0.8321427 0.2211097
v -0.2050971 -1.383209 0.2208128
v -0.2177687 -0.8956245 0.1401056
v -0.2022262 -1.322573 0.141739
v -0.207077 -0.8321427 0.2211097
v -0.2177687 -0.8956245 0.1401056
v -0.2110368 -0.8353848 -0.205542
v -0.2181894 -0.8953027 -0.1288195
v -0.2110368 -0.8353848 -0.205542
v -0.2181894 -0.8953027 -0.1288195
v -0.2224958 -1.389668 -0.2180651
v -0.2126455 -1.322796 -0.1325318
v -0.1269391 -1.322573 0.213685
v -0.1151088 -1.311906 0.1678742
v 0.1462923 -1.32386 0.2322717
v 0.1400555 -1.317376 0.153693
v 0.1438174 -0.8955997 0.2216048
v 0.1462923 -1.32386 0.2322717
v 0.1318388 -0.9033214 0.1516882
v 0.1400555 -1.317376 0.153693
v 0.1438174 -0.8955997 0.2216048
v 0.1318388 -0.9033214 0.1516882
v -0.1251323 -0.8955255 0.2266784
v -0.118054 -0.9017375 0.1555738
v -0.1251323 -0.8955255 0.2266784
v -0.118054 -0.9017375 0.1555738
v -0.1269391 -1.322573 0.213685
v -0.1151088 -1.311906 0.1678742
v -0.134933 -0.8952532 -0.2155654
v -0.1285973 -0.8982478 -0.1469358
v 0.1335713 -0.8952037 -0.2203915
v 0.1243893 -0.9037422 -0.1572562
v 0.1335713 -0.8952037 -0.2203915
v 0.1243893 -0.9037422 -0.1572562
v 0.1371351 -1.322969 -0.2219754
v 0.1359472 -1.319678 -0.1576523
v 0.1371351 -1.322969 -0.2219754
v 0.1359472 -1.319678 -0.1576523
v -0.1365169 -1.322499 -0.2067795
v -0.1251323 -1.314084 -0.158469
v -0.134933 -0.8952532 -0.2155654
v -0.1365169 -1.322499 -0.2067795
v -0.1285973 -0.8982478 -0.1469358
v -0.1251323 -1.314084 -0.158469
v 0.2241782 -1.322845 0.1312206
v 0.1705219 -1.313738 0.1232266
v 0.2335581 -1.323613 -0.140897
v 0.1541132 -1.321212 -0.1394368
v 0.2068784 -0.894486 -0.1386448
v 0.2335581 -1.323613 -0.140897
v 0.1572562 -0.9048806 -0.1260227
v 0.1541132 -1.321212 -0.1394368
v 0.2068784 -0.894486 -0.1386448
v 0.1572562 -0.9048806 -0.1260227
v 0.2127193 -0.894486 0.1293892
v 0.1546328 -0.8958967 0.1289685
v 0.2127193 -0.894486 0.1293892
v 0.1546328 -0.8958967 0.1289685
v 0.2241782 -1.322845 0.1312206
v 0.1705219 -1.313738 0.1232266
v -0.2126455 -1.322796 -0.1325318
v -0.1632708 -1.310991 -0.1191424
v -0.2022262 -1.322573 0.141739
v -0.1533959 -1.314035 0.1300575
v -0.2177687 -0.8956245 0.1401056
v -0.2022262 -1.322573 0.141739
v -0.1444615 -0.9003763 0.1309484
v -0.1533959 -1.314035 0.1300575
v -0.2177687 -0.8956245 0.1401056
v -0.1444615 -0.9003763 0.1309484
v -0.2181894 -0.8953027 -0.1288195
v -0.1566628 -0.9074546 -0.1158508
v -0.2181894 -0.8953027 -0.1288195
v -0.1566628 -0.9074546 -0.1158508
v -0.2126455 -1.322796 -0.1325318
v -0.1632708 -1.310991 -0.1191424
vt 0.1878294 0.430507
vt 0.1878294 0.4665807
vt 0.2239031 0.430507
vt 0.2239031 0.4665807
vt 0.1878294 0.5026544
vt 0.1878294 0.5387281
vt 0.2239031 0.5026544
vt 0.2239031 0.5387281
vt 0.2239031 0.5387281
vt 0.1878294 0.5387281
vt 0.2239031 0.5748017
vt 0.1878294 0.5748017
vt 0.2239031 0.430507
vt 0.2239031 0.4665807
vt 0.2591569 0.430507
vt 0.2591569 0.4665807
vt 0.1517557 0.430507
vt 0.1517557 0.4665807
vt 0.1878294 0.430507
vt 0.1878294 0.4665807
vt 0.7600893 0.830597
vt 0.7600893 0.8109205
vt 0.819119 0.830597
vt 0.819119 0.8109205
vt 0.819119 0.7912439
vt 0.7600893 0.7912439
vt 0.819119 0.7715673
vt 0.7600893 0.7715673
vt 0.819119 0.8109205
vt 0.7600893 0.8109205
vt 0.819119 0.830597
vt 0.7600893 0.830597
vt 0.819119 0.7912439
vt 0.7600893 0.7912439
vt 0.819119 0.7715673
vt 0.7600893 0.7715673
vt 0.819119 0.8109205
vt 0.819119 0.830597
vt 0.819119 0.8109205
vt 0.819119 0.830597
vt 0.819119 0.830597
vt 0.7600893 0.830597
vt 0.819119 0.830597
vt 0.7600893 0.830597
vt 0.7600893 0.830597
vt 0.7600893 0.8109205
vt 0.7600893 0.830597
vt 0.7600893 0.8109205
vt 0.7600893 0.7715673
vt 0.819119 0.7715673
vt 0.7600893 0.7715673
vt 0.819119 0.7715673
vt 0.819119 0.7715673
vt 0.819119 0.7912439
vt 0.819119 0.7715673
vt 0.819119 0.7912439
vt 0.7600893 0.7912439
vt 0.7600893 0.7715673
vt 0.7600893 0.7912439
vt 0.7600893 0.7715673
vt 0.819119 0.7912439
vt 0.819119 0.7912439
vt 0.819119 0.8109205
vt 0.819119 0.8109205
vt 0.7600893 0.8109205
vt 0.7600893 0.7912439
vt 0.7600893 0.8109205
vt 0.7600893 0.7912439
vt 0.69942 0.327205
vt 0.69942 0.6330116
vt 0.9904691 0.327205
vt 0.9904691 0.6330116
vt 0.4731395 0.8060014
vt 0.5092132 0.8060014
vt 0.4911764 0.7879645
vt 0.69942 0.327205
vt 0.69942 0.6330116
vt 0.9904691 0.327205
vt 0.9904691 0.6330116
vt 0.69942 0.327205
vt 0.69942 0.6330116
vt 0.9904691 0.327205
vt 0.9904691 0.6330116
vt 0.69942 0.327205
vt 0.69942 0.6330116
vt 0.9904691 0.327205
vt 0.9904691 0.6330116
vt 0.4731395 0.7699276
vt 0.4911764 0.7879645
vt 0.5092132 0.7699276
vt 0.4911764 0.7879645
vt 0.5092132 0.8060014
vt 0.5092132 0.7699276
vt 0.4731395 0.7699276
vt 0.4731395 0.8060014
vt 0.4911764 0.7879645
vt 0.4731395 0.7338539
vt 0.4731395 0.7338539
vt 0.5092132 0.7338539
vt 0.5092132 0.7338539
vt 0.5092132 0.7699276
vt 0.5092132 0.7338539
vt 0.5092132 0.7699276
vt 0.5092132 0.7338539
vt 0.5092132 0.7699276
vt 0.5092132 0.7699276
vt 0.4731395 0.7699276
vt 0.4731395 0.7699276
vt 0.4731395 0.7699276
vt 0.4731395 0.7699276
vt 0.4731395 0.7338539
vt 0.4731395 0.7338539
vt 0.4731395 0.8060014
vt 0.4731395 0.8060014
vt 0.5092132 0.8060014
vt 0.5092132 0.8060014
vt 0.5092132 0.8060014
vt 0.5092132 0.8060014
vt 0.5092132 0.842075
vt 0.5092132 0.842075
vt 0.5092132 0.842075
vt 0.5092132 0.842075
vt 0.4731395 0.842075
vt 0.4731395 0.842075
vt 0.4731395 0.8060014
vt 0.4731395 0.842075
vt 0.4731395 0.8060014
vt 0.4731395 0.842075
vt 0.5092132 0.7338539
vt 0.5092132 0.7338539
vt 0.5452869 0.7338539
vt 0.5452869 0.7338539
vt 0.5092132 0.7699276
vt 0.5092132 0.7699276
vt 0.5452869 0.7699276
vt 0.5452869 0.7338539
vt 0.5452869 0.7699276
vt 0.5452869 0.7338539
vt 0.5452869 0.7699276
vt 0.5452869 0.7699276
vt 0.5092132 0.7699276
vt 0.5092132 0.7699276
vt 0.4370658 0.7338539
vt 0.4370658 0.7338539
vt 0.4731395 0.7338539
vt 0.4731395 0.7338539
vt 0.4731395 0.7699276
vt 0.4731395 0.7338539
vt 0.4731395 0.7699276
vt 0.4731395 0.7338539
vt 0.4731395 0.7699276
vt 0.4731395 0.7699276
vt 0.4370658 0.7699276
vt 0.4370658 0.7699276
vt 0.4370658 0.7699276
vt 0.4370658 0.7699276
vt 0.4370658 0.7338539
vt 0.4370658 0.7338539
vt 0.4731395 0.7338539
vt 0.4731395 0.7338539
vt 0.5092132 0.7338539
vt 0.5092132 0.7338539
vt 0.5092132 0.7699276
vt 0.5092132 0.7338539
vt 0.5092132 0.7699276
vt 0.5092132 0.7338539
vt 0.5092132 0.7699276
vt 0.5092132 0.7699276
vt 0.4731395 0.7699276
vt 0.4731395 0.7699276
vt 0.4731395 0.7699276
vt 0.4731395 0.7699276
vt 0.4731395 0.7338539
vt 0.4731395 0.7338539
vt 0.4731395 0.8060014
vt 0.4731395 0.8060014
vt 0.5092132 0.8060014
vt 0.5092132 0.8060014
vt 0.5092132 0.8060014
vt 0.5092132 0.8060014
vt 0.5092132 0.842075
vt 0.5092132 0.842075
vt 0.5092132 0.842075
vt 0.5092132 0.842075
vt 0.4731395 0.842075
vt 0.4731395 0.842075
vt 0.4731395 0.8060014
vt 0.4731395 0.842075
vt 0.4731395 0.8060014
vt 0.4731395 0.842075
vt 0.5092132 0.7338539
vt 0.5092132 0.7338539
vt 0.5452869 0.7338539
vt 0.5452869 0.7338539
vt 0.5452869 0.7699276
vt 0.5452869 0.7338539
vt 0.5452869 0.7699276
vt 0.5452869 0.7338539
vt 0.5452869 0.7699276
vt 0.5452869 0.7699276
vt 0.5092132 0.7699276
vt 0.5092132 0.7699276
vt 0.5092132 0.7699276
vt 0.5092132 0.7699276
vt 0.5092132 0.7338539
vt 0.5092132 0.7338539
vt 0.4370658 0.7338539
vt 0.4370658 0.7338539
vt 0.4731395 0.7338539
vt 0.4731395 0.7338539
vt 0.4731395 0.7699276
vt 0.4731395 0.7338539
vt 0.4731395 0.7699276
vt 0.4731395 0.7338539
vt 0.4731395 0.7699276
vt 0.4731395 0.7699276
vt 0.4370658 0.7699276
vt 0.4370658 0.7699276
vt 0.4370658 0.7699276
vt 0.4370658 0.7699276
vt 0.4370658 0.7338539
vt 0.4370658 0.7338539
vn -0.6862622 0.003917336 0.7273437
vn -0.6862622 0.003917336 0.7273437
vn -0.6862622 0.003917336 0.7273437
vn -0.6862622 0.003917336 0.7273437
vn 0.6862706 0.003917336 -0.7273358
vn 0.6862706 0.003917336 -0.7273358
vn 0.6862706 0.003917336 -0.7273358
vn 0.6862706 0.003917336 -0.7273358
vn -0.003917336 -0.9999924 0
vn -0.003917336 -0.9999924 0
vn -0.003917336 -0.9999924 0
vn -0.003917336 -0.9999924 0
vn 0.7176428 0.003917336 0.6964003
vn 0.7176428 0.003917336 0.6964003
vn 0.7176428 0.003917336 0.6964003
vn 0.7176428 0.003917336 0.6964003
vn -0.7176344 0.003917336 -0.696409
vn -0.7176344 0.003917336 -0.696409
vn -0.7176344 0.003917336 -0.696409
vn -0.7176344 0.003917336 -0.696409
vn 0.9999924 -0.003925681 0
vn 0.9999924 -0.003925681 0
vn 0.9999924 -0.003925681 0
vn 0.9999924 -0.003925681 0
vn 0.9999924 0.003917336 0
vn 0.9999924 0.003917336 0
vn 0.9999924 0.003917336 0
vn 0.9999924 0.003917336 0
vn -0.999984 0.003917336 0.004074624
vn -0.999984 0.003917336 0.004074624
vn -0.999984 -0.003925681 0.004066586
vn -0.999984 -0.003925681 0.004066586
vn -0.999984 0.003917336 0.004074624
vn -0.999984 0.003917336 0.004074624
vn -0.999984 0.003917336 0.004074624
vn -0.999984 0.003917336 0.004074624
vn -0.01960349 0.2784239 -0.9602582
vn -0.01960349 0.2784239 -0.9602582
vn -0.01960349 0.2784239 -0.9602582
vn -0.01960349 0.2784239 -0.9602582
vn -0.01176035 -0.7254858 -0.6881367
vn -0.01176035 -0.7254858 -0.6881367
vn -0.01176035 -0.7254858 -0.6881367
vn -0.01176035 -0.7254858 -0.6881367
vn 0.01961178 -0.239217 0.970768
vn 0.01961178 -0.239217 0.970768
vn 0.01961178 -0.239217 0.970768
vn 0.01961178 -0.239217 0.970768
vn 0.0117687 -0.7254858 0.6881365
vn 0.0117687 -0.7254858 0.6881365
vn 0.0117687 -0.7254858 0.6881365
vn 0.0117687 -0.7254858 0.6881365
vn 0.01961178 0.2627379 0.9646679
vn 0.01961178 0.2627379 0.9646679
vn 0.01961178 0.2627379 0.9646679
vn 0.01961178 0.2627379 0.9646679
vn -0.01960349 -0.2078449 -0.9779654
vn -0.01960349 -0.2078449 -0.9779654
vn -0.01960349 -0.2078449 -0.9779654
vn -0.01960349 -0.2078449 -0.9779654
vn -0.003917336 0.999984 -0.004077952
vn -0.003917336 0.999984 -0.004077952
vn -0.003917336 0.999984 -0.004077952
vn -0.003917336 0.999984 -0.004077952
vn -0.003917336 -0.9999924 0
vn -0.003917336 -0.9999924 0
vn -0.003917336 -0.9999924 0
vn -0.003917336 -0.9999924 0
vn 0.05882698 0.02744651 0.9978908
vn 0.02745479 0.01176035 0.9995539
vn 0.04314089 0.01960349 0.9988766
vn 0.0117687 0.003917336 0.9999231
vn -0.003917336 0.7411636 -0.671313
vn -0.003917336 0.7411636 -0.671313
vn -0.003917336 0.7411636 -0.671313
vn -0.04313254 0.02744651 -0.9986923
vn -0.01176035 0.01176035 -0.9998617
vn -0.02744651 0.01960349 -0.9994311
vn 0.003925681 0.003917336 -0.9999846
vn 0.9993778 0.03526784 0
vn 0.9999309 0.01175963 0
vn 0.9998079 0.01959987 0
vn 0.9999307 -0.01176797 0
vn -0.9998079 0.01960004 0
vn -0.9998079 0.01960004 0
vn -0.9998079 0.01960004 0
vn -0.9998079 0.01960004 0
vn 0.0117687 0.7646927 0.6442876
vn 0.0117687 0.7646927 0.6442876
vn 0.0117687 0.7646927 0.6442876
vn 0.6626629 0.7489179 0
vn 0.6626629 0.7489179 0
vn 0.6626629 0.7489179 0
vn -0.6543334 0.7562063 0
vn -0.6543334 0.7562063 0
vn -0.6543334 0.7562063 0
vn 0.0117687 0.09803391 0.9951135
vn 0.0117687 0.07450473 0.9971512
vn -0.04313254 -0.1921588 0.9804155
vn -0.06666172 -0.3333336 0.9404494
vn 0.1215714 0.01176035 0.9925131
vn 0.1921588 0.01960349 0.9811681
vn 0.1215714 0.01176035 0.9925131
vn 0.2156879 0.02744651 0.9760765
vn 0.01961178 0.1294061 0.9913977
vn 0.01961178 0.1294061 0.9913977
vn 0.01961178 0.1215631 0.9923899
vn 0.01961178 0.1137199 0.9933193
vn -0.06666172 -0.003925681 0.9977679
vn -0.0588187 -0.003925681 0.998261
vn 0.07451308 -0.02745479 0.996842
vn 0.1137283 -0.02745479 0.9931325
vn -0.01176035 0.1529353 -0.9881662
vn -0.01176035 0.1529353 -0.9881662
vn -0.01176035 0.1764643 -0.9842368
vn -0.01960349 0.1921505 -0.9811697
vn 0.1372575 0.003917336 -0.9905277
vn 0.1372575 0.003917336 -0.9905277
vn 0.1294144 0.003917336 -0.9915829
vn 0.1215714 0.003917336 -0.992575
vn 0.0117687 -0.1372575 -0.9904655
vn 0.0117687 -0.1215714 -0.9925129
vn -0.03528953 0.1215631 -0.9919562
vn -0.05097568 0.2313657 -0.9715304
vn -0.1137199 0.02744651 -0.9931337
vn 0.09804219 -0.0117687 -0.9951127
vn -0.09803391 0.01960349 -0.99499
vn 0.1451005 -0.01961178 -0.9892225
vn 0.9993778 0.03526784 0
vn 0.9999309 0.01175963 0
vn 0.9583621 -0.2855557 0
vn 0.8901898 -0.4509792 0.06465245
vn 0.9921494 0.01176035 -0.1245044
vn 0.9843063 0.01176035 -0.1760763
vn 0.9999924 0.003917336 0
vn 0.9529341 0.05097568 -0.2988614
vn 0.9999309 0.01175963 0
vn 0.929405 0.0588187 -0.3643443
vn 0.9993776 -0.03527617 0
vn 0.9990708 -0.04310113 0
vn 0.9915999 -0.1293427 0
vn 0.9843063 -0.1686296 -0.05201159
vn -0.992141 0.09803391 0.07775337
vn -0.992141 0.09803391 0.07775337
vn -0.992141 0.09803391 0.07775337
vn -0.992141 0.09803391 0.07775337
vn -0.992141 -0.003925681 0.1250633
vn -0.9996233 -0.02744489 0
vn -0.992141 -0.003925681 0.1250633
vn -0.9993776 -0.03527647 0
vn -0.984298 0.1529353 0.08813795
vn -0.984298 0.1529353 0.08813795
vn -0.9905667 0.1370313 0
vn -0.992141 0.1215631 0.02964204
vn -0.9998079 0.01960004 0
vn -0.9998079 0.01960004 0
vn -0.999984 -0.003925681 0.004066586
vn -0.992141 -0.0117687 0.1245702
vn -0.01176035 0.976455 0.2154005
vn -0.003917336 0.984298 0.1764715
vn 0.01961178 0.992141 0.1235783
vn 0.02744489 0.9996233 0
vn -0.984298 -0.003925681 0.1764712
vn -0.992141 -0.01961178 0.1235784
vn -0.984298 -0.003925681 0.1764712
vn -0.9998078 -0.01960832 0
vn 0.003925681 -0.9921494 0.1249969
vn 0.003925681 -0.9921494 0.1249969
vn -0.003917336 -0.9921494 0.1249974
vn -0.003917336 -0.9999924 0
vn 0.9921494 -0.003925681 0.124997
vn 0.9921494 -0.003925681 0.124997
vn 0.9764633 0.01176035 0.215363
vn 0.9686202 0.01176035 0.2482673
vn -0.003917336 -0.9999924 0
vn -0.003917336 -0.9999924 0
vn -0.01960349 -0.9921494 -0.1235127
vn -0.02744651 -0.9921494 -0.1220098
vn -0.992141 -0.0117687 -0.1245702
vn -0.992141 -0.0117687 -0.1245702
vn -0.9996233 -0.02744489 0
vn -0.9996233 -0.02744489 0
vn -0.003917336 0.999984 -0.004077952
vn 0.003925681 0.999984 -0.00406331
vn 0.01961178 0.992141 -0.1235783
vn 0.01961178 0.984298 -0.175422
vn 0.9921494 -0.003925681 -0.124997
vn 0.9764633 0.01176035 -0.215363
vn 0.9921494 -0.003925681 -0.124997
vn 0.9764633 0.01176035 -0.215363
vn 0.1686296 0.984298 0.05216846
vn 0.1370395 0.9905656 0
vn 0.04310149 0.9990708 0
vn 0.02744489 0.9996233 0
vn 0.2470601 0.01176035 0.9689288
vn 0.02745479 -0.02745479 0.9992459
vn 0.2078449 0.003917336 0.978154
vn 0.01961178 -0.03529787 0.9991844
vn 0.2000018 -0.9764633 -0.08073897
vn 0.1764725 -0.9843056 0
vn 0.04310113 -0.9990708 0
vn 0.02744466 -0.9996233 0
vn 0.003925681 -0.003925681 -0.9999846
vn 0.01961178 -0.003925681 -0.9998
vn 0.1372575 0.01960349 -0.9903414
vn 0.1529436 0.01960349 -0.9880405
vn -0.2313657 0.9686118 0.09089018
vn -0.2305608 0.973058 0
vn -0.1764643 0.984298 0.004221586
vn -0.1686213 0.984298 0.0521953
vn -0.1215631 -0.0117687 -0.9925139
vn -0.2156795 0.003917336 -0.9764563
vn -0.1294061 -0.003925681 -0.9915839
vn -0.2313657 0.003917336 -0.972859
vn -0.0665146 -0.9977854 0
vn -0.08207069 -0.9966264 0
vn -0.1686213 -0.9843063 0.05203862
vn -0.1999935 -0.9764633 0.08075964
vn -0.2078365 -0.0117687 0.9780928
vn -0.2078365 -0.0117687 0.9780928
vn -0.2548949 -0.003925681 0.9669608
vn -0.2627379 -0.003925681 0.9648592
g midnightLanternLamp_0
f 3/3/3 2/2/2 1/1/1
f 3/3/3 4/4/4 2/2/2
f 7/7/7 6/6/6 5/5/5
f 7/7/7 8/8/8 6/6/6
f 11/11/11 10/10/10 9/9/9
f 11/11/11 12/12/12 10/10/10
f 15/15/15 14/14/14 13/13/13
f 15/15/15 16/16/16 14/14/14
f 19/19/19 18/18/18 17/17/17
f 19/19/19 20/20/20 18/18/18
f 23/23/23 22/22/22 21/21/21
f 23/23/23 24/24/24 22/22/22
f 22/22/22 24/24/24 25/25/25
f 22/22/22 25/25/25 26/26/26
f 26/26/26 25/25/25 27/27/27
f 26/26/26 27/27/27 28/28/28
f 31/31/31 30/30/30 29/29/29
f 31/31/31 32/32/32 30/30/30
f 33/33/33 29/29/29 30/30/30
f 33/33/33 30/30/30 34/34/34
f 35/35/35 33/33/33 34/34/34
f 35/35/35 34/34/34 36/36/36
f 39/39/39 38/38/38 37/37/37
f 39/39/39 40/40/40 38/38/38
f 43/43/43 42/42/42 41/41/41
f 43/43/43 44/44/44 42/42/42
f 47/47/47 46/46/46 45/45/45
f 47/47/47 48/48/48 46/46/46
f 51/51/51 50/50/50 49/49/49
f 51/51/51 52/52/52 50/50/50
f 55/55/55 54/54/54 53/53/53
f 55/55/55 56/56/56 54/54/54
f 59/59/59 58/58/58 57/57/57
f 59/59/59 60/60/60 58/58/58
f 63/63/63 62/62/62 61/61/61
f 63/63/63 64/64/64 62/62/62
f 67/67/67 66/66/66 65/65/65
f 67/67/67 68/68/68 66/66/66
f 71/71/71 70/70/70 69/69/69
f 71/71/71 72/72/72 70/70/70
f 75/75/75 74/74/74 73/73/73
f 78/78/78 77/77/77 76/76/76
f 78/78/78 79/79/79 77/77/77
f 82/82/82 81/81/81 80/80/80
f 82/82/82 83/83/83 81/81/81
f 86/86/86 85/85/85 84/84/84
f 86/86/86 87/87/87 85/85/85
f 90/90/90 89/89/89 88/88/88
f 93/93/93 92/92/92 91/91/91
f 96/96/96 95/95/95 94/94/94
f 99/99/99 98/98/98 97/97/97
f 99/99/99 100/100/100 98/98/98
f 103/103/103 102/102/102 101/101/101
f 103/103/103 104/104/104 102/102/102
f 107/107/107 106/106/106 105/105/105
f 107/107/107 108/108/108 106/106/106
f 111/111/111 110/110/110 109/109/109
f 111/111/111 112/112/112 110/110/110
f 115/115/115 114/114/114 113/113/113
f 115/115/115 116/116/116 114/114/114
f 119/119/119 118/118/118 117/117/117
f 119/119/119 120/120/120 118/118/118
f 123/123/123 122/122/122 121/121/121
f 123/123/123 124/124/124 122/122/122
f 127/127/127 126/126/126 125/125/125
f 127/127/127 128/128/128 126/126/126
f 131/131/131 130/130/130 129/129/129
f 131/131/131 132/132/132 130/130/130
f 129/129/129 130/130/130 133/133/133
f 129/129/129 133/133/133 134/134/134
f 137/137/137 136/136/136 135/135/135
f 137/137/137 138/138/138 136/136/136
f 141/141/141 140/140/140 139/139/139
f 141/141/141 142/142/142 140/140/140
f 145/145/145 144/144/144 143/143/143
f 145/145/145 146/146/146 144/144/144
f 149/149/149 148/148/148 147/147/147
f 149/149/149 150/150/150 148/148/148
f 153/153/153 152/152/152 151/151/151
f 153/153/153 154/154/154 152/152/152
f 157/157/157 156/156/156 155/155/155
f 157/157/157 158/158/158 156/156/156
f 161/161/161 160/160/160 159/159/159
f 161/161/161 162/162/162 160/160/160
f 165/165/165 164/164/164 163/163/163
f 165/165/165 166/166/166 164/164/164
f 169/169/169 168/168/168 167/167/167
f 169/169/169 170/170/170 168/168/168
f 173/173/173 172/172/172 171/171/171
f 173/173/173 174/174/174 172/172/172
f 177/177/177 176/176/176 175/175/175
f 177/177/177 178/178/178 176/176/176
f 181/181/181 180/180/180 179/179/179
f 181/181/181 182/182/182 180/180/180
f 185/185/185 184/184/184 183/183/183
f 185/185/185 186/186/186 184/184/184
f 189/189/189 188/188/188 187/187/187
f 189/189/189 190/190/190 188/188/188
f 193/193/193 192/192/192 191/191/191
f 193/193/193 194/194/194 192/192/192
f 197/197/197 196/196/196 195/195/195
f 197/197/197 198/198/198 196/196/196
f 201/201/201 200/200/200 199/199/199
f 201/201/201 202/202/202 200/200/200
f 205/205/205 204/204/204 203/203/203
f 205/205/205 206/206/206 204/204/204
f 209/209/209 208/208/208 207/207/207
f 209/209/209 210/210/210 208/208/208
f 213/213/213 212/212/212 211/211/211
f 213/213/213 214/214/214 212/212/212
f 217/217/217 216/216/216 215/215/215
f 217/217/217 218/218/218 216/216/216
f 221/221/221 220/220/220 219/219/219
f 221/221/221 222/222/222 220/220/220
