g mimicPiece4
v -0.07332711 -0.01259849 0.057634
v -0.07623462 -0.01353202 -0.09510665
v -0.04927748 0.06246202 0.02765009
v -0.07623462 -0.01353202 -0.09510665
v -0.05629744 0.07713525 -0.08235805
v -0.04927748 0.06246202 0.02765009
v -0.003193334 0.1347548 -0.004241988
v 0.006680667 0.1300091 -0.003612787
v -0.002000719 0.1263284 0.003176883
v 0.006680667 0.1300091 -0.003612787
v 0.01191994 0.1301941 0.01161152
v -0.002000719 0.1263284 0.003176883
v 0.04937205 0.05716929 -0.07209336
v 0.07933539 -0.01304264 -0.09758236
v 0.05386285 0.04952423 0.02774879
v 0.07933539 -0.01304264 -0.09758236
v 0.07102413 -0.0146465 0.0491171
v 0.05386285 0.04952423 0.02774879
v 0.07102413 -0.0146465 0.0491171
v -0.07332711 -0.01259849 0.057634
v 0.05386285 0.04952423 0.02774879
v -0.04927748 0.06246202 0.02765009
v 0.07933539 -0.01304264 -0.09758236
v 0.04937205 0.05716929 -0.07209336
v -0.07623462 -0.01353202 -0.09510665
v 0.04937205 0.05716929 -0.07209336
v -0.05629744 0.07713525 -0.08235805
v -0.07623462 -0.01353202 -0.09510665
v -0.07933541 -0.133044 0.09758237
v -0.06947786 -0.1347548 -0.08863366
v -0.07332711 -0.01259849 0.057634
v -0.06947786 -0.1347548 -0.08863366
v -0.07623462 -0.01353202 -0.09510665
v -0.07332711 -0.01259849 0.057634
v -0.07933541 -0.133044 0.09758237
v -0.07332711 -0.01259849 0.057634
v 0.07129554 -0.1344752 0.08166306
v 0.07102413 -0.0146465 0.0491171
v 0.07933539 -0.01304264 -0.09758236
v 0.06993432 -0.1347548 -0.08829643
v 0.07102413 -0.0146465 0.0491171
v 0.06993432 -0.1347548 -0.08829643
v 0.07129554 -0.1344752 0.08166306
v 0.07102413 -0.0146465 0.0491171
v 0.06993432 -0.1347548 -0.08829643
v 0.07933539 -0.01304264 -0.09758236
v -0.06947786 -0.1347548 -0.08863366
v -0.07623462 -0.01353202 -0.09510665
v 0.006680667 0.1300091 -0.003612787
v 0.04937205 0.05716929 -0.07209336
v 0.01191994 0.1301941 0.01161152
v 0.01191994 0.1301941 0.01161152
v 0.04937205 0.05716929 -0.07209336
v 0.05386285 0.04952423 0.02774879
v -0.002000719 0.1263284 0.003176883
v 0.01191994 0.1301941 0.01161152
v -0.04927748 0.06246202 0.02765009
v -0.04927748 0.06246202 0.02765009
v 0.01191994 0.1301941 0.01161152
v 0.05386285 0.04952423 0.02774879
v -0.003193334 0.1347548 -0.004241988
v -0.002000719 0.1263284 0.003176883
v -0.05629744 0.07713525 -0.08235805
v -0.05629744 0.07713525 -0.08235805
v -0.002000719 0.1263284 0.003176883
v -0.04927748 0.06246202 0.02765009
v -0.003193334 0.1347548 -0.004241988
v -0.05629744 0.07713525 -0.08235805
v 0.006680667 0.1300091 -0.003612787
v 0.04937205 0.05716929 -0.07209336
v 0.006680667 0.1300091 -0.003612787
v -0.05629744 0.07713525 -0.08235805
vt 0.1240147 0.3158548
vt 0.1219238 0.3163776
vt 0.1381283 0.2719459
vt 0.1219238 0.3163776
vt 0.1339465 0.2635823
vt 0.1381283 0.2719459
vt 0.1647873 0.1846508
vt 0.1705373 0.1872645
vt 0.16531 0.1898781
vt 0.1705373 0.1872645
vt 0.1736736 0.1872645
vt 0.16531 0.1898781
vt 0.1956281 0.2750823
vt 0.212878 0.3163776
vt 0.1982417 0.2797868
vt 0.212878 0.3163776
vt 0.2081735 0.317423
vt 0.1982417 0.2797868
vt 0.2081735 0.317423
vt 0.1240147 0.3158548
vt 0.1982417 0.2797868
vt 0.1381283 0.2719459
vt 0.212878 0.3163776
vt 0.1956281 0.2750823
vt 0.1219238 0.3163776
vt 0.1956281 0.2750823
vt 0.1339465 0.2635823
vt 0.1219238 0.3163776
vt 0.1203557 0.3864227
vt 0.1261056 0.3874682
vt 0.1240147 0.3158548
vt 0.1261056 0.3874682
vt 0.1219238 0.3163776
vt 0.1240147 0.3158548
vt 0.1203557 0.3864227
vt 0.1240147 0.3158548
vt 0.2081735 0.3874682
vt 0.2081735 0.317423
vt 0.212878 0.3163776
vt 0.2076508 0.3874682
vt 0.2081735 0.317423
vt 0.2076508 0.3874682
vt 0.2081735 0.3874682
vt 0.2081735 0.317423
vt 0.2076508 0.3874682
vt 0.212878 0.3163776
vt 0.1261056 0.3874682
vt 0.1219238 0.3163776
vt 0.1705373 0.1872645
vt 0.1956281 0.2750823
vt 0.1736736 0.1872645
vt 0.1736736 0.1872645
vt 0.1956281 0.2750823
vt 0.1982417 0.2797868
vt 0.16531 0.1898781
vt 0.1736736 0.1872645
vt 0.1381283 0.2719459
vt 0.1381283 0.2719459
vt 0.1736736 0.1872645
vt 0.1982417 0.2797868
vt 0.1647873 0.1846508
vt 0.16531 0.1898781
vt 0.1339465 0.2635823
vt 0.1339465 0.2635823
vt 0.16531 0.1898781
vt 0.1381283 0.2719459
vt 0.1647873 0.1846508
vt 0.1339465 0.2635823
vt 0.1705373 0.1872645
vt 0.1956281 0.2750823
vt 0.1705373 0.1872645
vt 0.1339465 0.2635823
vn -0.9510224 0.3091221 0
vn -0.9510224 0.3091221 0
vn -0.9510224 0.3091221 0
vn -0.9762691 0.1998903 0.08332159
vn -0.9762691 0.1998903 0.08332159
vn -0.9762691 0.1998903 0.08332159
vn 0.2706425 0.6547384 0.7057409
vn 0.2706425 0.6547384 0.7057409
vn 0.2706425 0.6547384 0.7057409
vn -0.3253655 0.9449003 0.03606594
vn -0.3253655 0.9449003 0.03606594
vn -0.3253655 0.9449003 0.03606594
vn 0.9187846 0.3947591 0
vn 0.9187846 0.3947591 0
vn 0.9187846 0.3947591 0
vn 0.9605113 0.2782412 0
vn 0.9605113 0.2782412 0
vn 0.9605113 0.2782412 0
vn 0.05890274 0.3332078 0.9410117
vn 0.05890274 0.3332078 0.9410117
vn 0.05890274 0.3332078 0.9410117
vn 0.04321831 0.3567344 0.9332056
vn -0.01951933 0.3332078 -0.9426513
vn -0.01951933 0.3332078 -0.9426513
vn -0.01951933 0.3332078 -0.9426513
vn 0.1137982 0.1136259 -0.9869849
vn 0.1137982 0.1136259 -0.9869849
vn 0.1137982 0.1136259 -0.9869849
vn -0.9993806 0.0351892 0
vn -0.9997957 -0.01184946 -0.0163762
vn -0.9997957 0.003834963 -0.01984648
vn -0.9997957 -0.01184946 -0.0163762
vn -0.9986985 -0.05100452 0
vn -0.9997957 0.003834963 -0.01984648
vn 0.105956 0.3096812 0.9449185
vn 0.08242935 0.2861545 0.9546314
vn 0.08242935 0.2861545 0.9546314
vn 0.05890274 0.262628 0.9630976
vn 0.9921259 -0.07458717 0.1006133
vn 0.9993747 -0.03535514 0
vn 0.9996212 -0.02752434 0
vn 0.9993747 -0.03535514 0
vn 0.9999681 0.003834963 -0.007013504
vn 0.9996212 -0.02752434 0
vn 0.00400728 -0.07458717 -0.9972064
vn -0.003834963 -0.06674492 -0.9977627
vn -0.01167715 -0.06674492 -0.9977017
vn -0.01951933 -0.05106056 -0.9985048
vn 0.7098062 0.6547384 -0.2597937
vn 0.7098062 0.6547384 -0.2597937
vn 0.7098062 0.6547384 -0.2597937
vn 0.888931 0.4580411 0
vn 0.888931 0.4580411 0
vn 0.888931 0.4580411 0
vn -0.529263 0.6155274 0.5839578
vn -0.529263 0.6155274 0.5839578
vn -0.529263 0.6155274 0.5839578
vn 0.02753389 0.2077324 0.9777981
vn 0.02753389 0.2077324 0.9777981
vn 0.02753389 0.2077324 0.9777981
vn -0.8743204 0.2391013 0.4223677
vn -0.8743204 0.2391013 0.4223677
vn -0.8743204 0.2391013 0.4223677
vn -0.7723716 0.6233696 0.1218704
vn -0.7723716 0.6233696 0.1218704
vn -0.7723716 0.6233696 0.1218704
vn 0.3490645 0.6233696 -0.6996887
vn 0.3490645 0.6233696 -0.6996887
vn 0.3490645 0.6233696 -0.6996887
vn 0.2000625 0.7331606 -0.6499619
vn 0.2000625 0.7331606 -0.6499619
vn 0.2000625 0.7331606 -0.6499619
g mimicPiece4_0
f 3/3/3 2/2/2 1/1/1
f 6/6/6 5/5/5 4/4/4
f 9/9/9 8/8/8 7/7/7
f 12/12/12 11/11/11 10/10/10
f 15/15/15 14/14/14 13/13/13
f 18/18/18 17/17/17 16/16/16
f 21/21/21 20/20/20 19/19/19
f 21/21/21 22/22/22 20/20/20
f 25/25/25 24/24/24 23/23/23
f 28/28/28 27/27/27 26/26/26
f 31/31/31 30/30/30 29/29/29
f 34/34/34 33/33/33 32/32/32
f 37/37/37 36/36/36 35/35/35
f 37/37/37 38/38/38 36/36/36
f 41/41/41 40/40/40 39/39/39
f 44/44/44 43/43/43 42/42/42
f 47/47/47 46/46/46 45/45/45
f 47/47/47 48/48/48 46/46/46
f 51/51/51 50/50/50 49/49/49
f 54/54/54 53/53/53 52/52/52
f 57/57/57 56/56/56 55/55/55
f 60/60/60 59/59/59 58/58/58
f 63/63/63 62/62/62 61/61/61
f 66/66/66 65/65/65 64/64/64
f 69/69/69 68/68/68 67/67/67
f 72/72/72 71/71/71 70/70/70
