g mimicPiece1
v -0.09866081 0.0159613 -0.06998713
v -0.09866081 0.0159613 -0.1586567
v 0.09866081 0.0159613 -0.06998713
v 0.09866081 0.0159613 -0.1586567
v -0.09866081 0.0159613 -0.1586567
v -0.09866081 -0.0159613 -0.1586567
v 0.09866081 0.0159613 -0.1586567
v 0.09866081 -0.0159613 -0.1586567
v -0.09866081 -0.0159613 -0.1586567
v -0.09866081 -0.0159613 -0.06998713
v 0.09866081 -0.0159613 -0.1586567
v 0.09866081 -0.0159613 -0.06998713
v -0.09866081 -0.0159613 0.1586567
v -0.09866081 0.0159613 0.1586567
v 0.09866081 -0.0159613 0.1586567
v 0.09866081 0.0159613 0.1586567
v 0.09866081 0.0159613 -0.06998713
v 0.09866081 0.0159613 -0.1586567
v 0.09866081 -0.0159613 -0.06998713
v 0.09866081 -0.0159613 -0.1586567
v 0.09866081 -0.0159613 0.1586567
v 0.09866081 0.0159613 0.1586567
v -0.09866081 -0.0159613 -0.06998713
v -0.09866081 -0.0159613 -0.1586567
v -0.09866081 0.0159613 -0.06998713
v -0.09866081 0.0159613 -0.1586567
v -0.09866081 0.0159613 0.1586567
v -0.09866081 -0.0159613 0.1586567
v -0.09866081 0.0159613 0.1586567
v -0.03203638 0.0159613 0.1250491
v 0.09866081 0.0159613 0.1586567
v 0.03203154 0.0159613 0.1250491
v 0.09866081 0.0159613 -0.06998713
v 0.03203154 0.0159613 -0.04464951
v -0.09866081 0.0159613 -0.06998713
v -0.03203638 0.0159613 -0.04464951
v -0.09866081 -0.0159613 -0.06998713
v -0.03204122 -0.0159613 -0.04464951
v 0.09866081 -0.0159613 -0.06998713
v 0.03203154 -0.0159613 -0.04464951
v 0.03203154 -0.0159613 0.1250491
v 0.09866081 -0.0159613 0.1586567
v -0.09866081 -0.0159613 0.1586567
v -0.03204122 -0.0159613 0.1250491
v 0.03203154 0.0159613 0.1250491
v 0.03203154 -0.0159613 -0.04464951
v 0.03203154 0.0159613 -0.04464951
v 0.03203154 -0.0159613 0.1250491
v 0.03203154 0.0159613 -0.04464951
v -0.03204122 -0.0159613 -0.04464951
v -0.03203638 0.0159613 -0.04464951
v 0.03203154 -0.0159613 -0.04464951
v -0.03204122 -0.0159613 0.1250491
v 0.03203154 -0.0159613 0.1250491
v -0.03203638 0.0159613 0.1250491
v 0.03203154 0.0159613 0.1250491
v -0.03204122 -0.0159613 -0.04464951
v -0.03204122 -0.0159613 0.1250491
v -0.03203638 0.0159613 -0.04464951
v -0.03203638 0.0159613 0.1250491
vt 0.9263454 0.9388502
vt 0.9263454 0.945671
vt 0.939987 0.9388502
vt 0.939987 0.945671
vt 0.9263454 0.945671
vt 0.9263454 0.9587443
vt 0.939987 0.945671
vt 0.939987 0.9587443
vt 0.9263454 0.9587443
vt 0.9263454 0.9655651
vt 0.939987 0.9587443
vt 0.939987 0.9655651
vt 0.9263454 0.9723859
vt 0.9263454 0.9854591
vt 0.939987 0.9723859
vt 0.939987 0.9854591
vt 0.939987 0.9388502
vt 0.939987 0.945671
vt 0.9530603 0.9388502
vt 0.9530603 0.945671
vt 0.9530603 0.9325978
vt 0.939987 0.9325978
vt 0.9132721 0.9388502
vt 0.9132721 0.945671
vt 0.9263454 0.9388502
vt 0.9263454 0.945671
vt 0.9263454 0.9325978
vt 0.9132721 0.9325978
vt 0.9263454 0.9325978
vt 0.9263454 0.9325978
vt 0.939987 0.9325978
vt 0.939987 0.9325978
vt 0.939987 0.9388502
vt 0.939987 0.9388502
vt 0.9263454 0.9388502
vt 0.9263454 0.9388502
vt 0.9263454 0.9655651
vt 0.9263454 0.9655651
vt 0.939987 0.9655651
vt 0.939987 0.9655651
vt 0.939987 0.9723859
vt 0.939987 0.9723859
vt 0.9263454 0.9723859
vt 0.9263454 0.9723859
vt 0.939987 0.9325978
vt 0.939987 0.9655651
vt 0.939987 0.9388502
vt 0.939987 0.9723859
vt 0.939987 0.9388502
vt 0.9263454 0.9655651
vt 0.9263454 0.9388502
vt 0.939987 0.9655651
vt 0.9263454 0.9723859
vt 0.939987 0.9723859
vt 0.9263454 0.9325978
vt 0.939987 0.9325978
vt 0.9263454 0.9655651
vt 0.9263454 0.9723859
vt 0.9263454 0.9388502
vt 0.9263454 0.9325978
vn -0.003921509 0.9999923 -0.000345267
vn -0.003921509 0.9999923 -0.000345267
vn -0.003921509 0.9999923 -0.000345267
vn -0.003921509 0.9999923 -0.000345267
vn -0.003921509 0.003921509 -0.9999846
vn -0.003921509 0.003921509 -0.9999846
vn -0.003921509 0.003921509 -0.9999846
vn -0.003921509 0.003921509 -0.9999846
vn -0.003921509 -0.9999924 0
vn -0.003921509 -0.9999924 0
vn -0.003921509 -0.9999924 0
vn -0.003921509 -0.9999924 0
vn -0.003921509 0.003921509 0.9999846
vn -0.003921509 0.003921509 0.9999846
vn -0.003921509 0.003921509 0.9999846
vn -0.003921509 0.003921509 0.9999846
vn 0.9999924 0.003921509 0
vn 0.9999924 0.003921509 0
vn 0.9999924 0.003921509 0
vn 0.9999924 0.003921509 0
vn 0.9999924 0.003921509 0
vn 0.9999924 0.003921509 0
vn -0.9999923 0.003921509 -0.0003449296
vn -0.9999923 0.003921509 -0.0003449296
vn -0.9999923 0.003921509 -0.0003449296
vn -0.9999923 0.003921509 -0.0003449296
vn -0.9999923 0.003921509 -0.0003449296
vn -0.9999923 0.003921509 -0.0003449296
vn -0.003921509 0.9999923 -0.000345267
vn 0.003921568 0.9999923 -0.000345267
vn 0.003921568 0.9999923 -0.000345267
vn 0.003921568 0.9999923 -0.000345267
vn -0.003921509 0.9999923 -0.000345267
vn -0.003921509 0.9999923 -0.000345267
vn 0.003921568 0.9999923 -0.000345267
vn 0.003921568 0.9999923 -0.000345267
vn -0.003921509 -0.9999924 0
vn 0.003921568 -0.9999924 0
vn 0.003921568 -0.9999924 0
vn 0.003921568 -0.9999924 0
vn -0.003921509 -0.9999924 0
vn -0.003921509 -0.9999924 0
vn -0.003921509 -0.9999924 0
vn -0.003921509 -0.9999924 0
vn -0.9999923 0.003921509 -0.0003449296
vn -0.9999923 0.003921509 -0.0003449296
vn -0.9999923 0.003921509 -0.0003449296
vn -0.9999923 0.003921509 -0.0003449296
vn -0.003921509 0.003921509 0.9999846
vn -0.003921509 0.003921509 0.9999846
vn -0.003921509 0.003921509 0.9999846
vn -0.003921509 0.003921509 0.9999846
vn -0.003921509 0.003921509 -0.9999846
vn 0.003921568 0.003921509 -0.9999846
vn 0.003921568 0.003921509 -0.9999846
vn 0.003921568 0.003921509 -0.9999846
vn 0.9999924 -0.003921568 0
vn 0.9999924 -0.003921568 0
vn 0.9999924 -0.003921568 0
vn 0.9999924 -0.003921568 0
g mimicPiece1_0
f 3/3/3 2/2/2 1/1/1
f 3/3/3 4/4/4 2/2/2
f 7/7/7 6/6/6 5/5/5
f 7/7/7 8/8/8 6/6/6
f 11/11/11 10/10/10 9/9/9
f 11/11/11 12/12/12 10/10/10
f 15/15/15 14/14/14 13/13/13
f 15/15/15 16/16/16 14/14/14
f 19/19/19 18/18/18 17/17/17
f 19/19/19 20/20/20 18/18/18
f 21/21/21 19/19/19 17/17/17
f 21/21/21 17/17/17 22/22/22
f 25/25/25 24/24/24 23/23/23
f 25/25/25 26/26/26 24/24/24
f 27/27/27 25/25/25 23/23/23
f 27/27/27 23/23/23 28/28/28
f 31/31/31 30/30/30 29/29/29
f 31/31/31 32/32/32 30/30/30
f 33/33/33 32/32/32 31/31/31
f 33/33/33 34/34/34 32/32/32
f 35/35/35 34/34/34 33/33/33
f 30/30/30 35/35/35 29/29/29
f 35/35/35 36/36/36 34/34/34
f 30/30/30 36/36/36 35/35/35
f 39/39/39 38/38/38 37/37/37
f 39/39/39 40/40/40 38/38/38
f 41/41/41 40/40/40 39/39/39
f 41/41/41 39/39/39 42/42/42
f 43/43/43 41/41/41 42/42/42
f 43/43/43 44/44/44 41/41/41
f 37/37/37 44/44/44 43/43/43
f 37/37/37 38/38/38 44/44/44
f 47/47/47 46/46/46 45/45/45
f 45/45/45 46/46/46 48/48/48
f 51/51/51 50/50/50 49/49/49
f 49/49/49 50/50/50 52/52/52
f 55/55/55 54/54/54 53/53/53
f 56/56/56 54/54/54 55/55/55
f 59/59/59 58/58/58 57/57/57
f 60/60/60 58/58/58 59/59/59
