g mimicPiece
v 0.4635995 -0.4479658 0.07265779
v 0.4524366 -0.2440485 0.06054702
v 0.4635995 -0.4147742 -0.04951146
v 0.4524366 -0.2440485 -0.05855212
v 0.2425771 0.4479658 0.06054702
v 0.2770844 0.4358833 -0.03758457
v 0.4295024 0.3862232 0.06054702
v 0.3804933 0.400145 -0.05993864
v 0.4295024 0.3862232 -0.05855212
v 0.2511367 -0.4200656 0.07265779
v 0.4635995 -0.4479658 0.07265779
v 0.2511367 -0.429078 -0.04951146
v -0.3418405 -0.429078 -0.06719664
v 0.4635995 -0.4479658 0.07265779
v 0.4635995 -0.4147742 -0.04951146
v 0.2511367 -0.429078 -0.04951146
v 0.2425771 -0.2440485 0.06054702
v 0.4524366 -0.2440485 0.06054702
v 0.2511367 -0.4200656 0.07265779
v 0.4635995 -0.4479658 0.07265779
v 0.4155382 -0.08904138 0.05103943
v 0.2372998 -0.08904138 0.05103943
v -0.3418405 -0.4479658 0.07265779
v -0.3175906 -0.2440485 0.06054702
v 0.2425771 0.4479658 0.06054702
v 0.4295024 0.3862232 0.06054702
v 0.2425771 0.2858846 0.06054702
v 0.4524366 0.2858846 0.06054702
v -0.4219898 0.2858846 0.06054702
v -0.4351758 0.4479658 0.06054702
v 0.4524366 0.2858846 0.06054702
v 0.4295024 0.3862232 0.06054702
v 0.4524366 0.2858846 -0.05855212
v 0.4295024 0.3862232 -0.05855212
v 0.4524366 -0.2440485 0.06054702
v 0.4155382 -0.08904138 0.05103943
v 0.4524366 -0.2440485 -0.05855212
v 0.4155382 -0.08904138 -0.06565449
v 0.2372998 -0.08904138 0.05103943
v 0.2425771 -0.2440485 0.06054702
v 0.2374413 -0.08902723 0.01249987
v 0.2425771 -0.2440485 0.0210878
v 0.2374413 0.1308775 0.01249987
v 0.2372998 0.1308916 0.05103943
v 0.2425771 0.2858846 0.06054702
v 0.2425771 0.2858846 0.0210878
v 0.2425771 0.2858846 0.06054702
v 0.2425771 0.2858846 0.0210878
v -0.4219898 0.2858846 0.06054702
v -0.4416981 0.2858846 0.0210878
v 0.4155382 -0.08904138 -0.06565449
v 0.2880492 -0.08902723 -0.06545642
v 0.4524366 -0.2440485 -0.05855212
v 0.2448408 -0.2440485 -0.05855212
v 0.3166568 0.1308775 -0.06545642
v 0.4455606 0.1308916 -0.06565449
v 0.4524366 0.2858846 -0.05855212
v 0.3118323 0.2858846 -0.05855212
v 0.2511367 -0.429078 -0.04951146
v 0.4635995 -0.4147742 -0.04951146
v -0.3390109 -0.2440485 -0.05855212
v -0.3418405 -0.429078 -0.06719664
v 0.2511367 -0.429078 -0.04951146
v 0.4455606 0.1308916 -0.06565449
v 0.4455606 0.1308916 0.05103943
v 0.4524366 0.2858846 -0.05855212
v 0.4524366 0.2858846 0.06054702
v 0.2372998 0.1308916 0.05103943
v 0.2425771 0.2858846 0.06054702
v 0.4455606 0.1308916 0.05103943
v 0.4524366 0.2858846 0.06054702
v 0.4155382 -0.08904138 0.05103943
v 0.4455606 0.1308916 0.05103943
v 0.4155382 -0.08904138 -0.06565449
v 0.4455606 0.1308916 -0.06565449
v 0.2372998 0.1308916 0.05103943
v 0.4455606 0.1308916 0.05103943
v 0.2372998 -0.08904138 0.05103943
v 0.4155382 -0.08904138 0.05103943
v -0.4351758 0.4479658 0.06054702
v -0.4352324 0.4424338 -0.04969537
v 0.2425771 0.4479658 0.06054702
v 0.2770844 0.4358833 -0.03758457
v -0.3418405 -0.4479658 0.07265779
v 0.2511367 -0.4200656 0.07265779
v -0.3418405 -0.429078 -0.06719664
v -0.3418405 -0.2440485 0.0210878
v 0.2425771 -0.2440485 0.0210878
v -0.3175906 -0.2440485 0.06054702
v 0.2425771 -0.2440485 0.06054702
v 0.4295024 0.3862232 -0.05855212
v 0.3804933 0.400145 -0.05993864
v 0.3118323 0.2858846 -0.05855212
v 0.4524366 0.2858846 -0.05855212
v 0.2770844 0.4358833 -0.03758457
v 0.3118323 0.2858846 -0.05855212
v 0.3804933 0.400145 -0.05993864
v -0.4352324 0.4424338 -0.04969537
v -0.4558604 0.3191468 -0.07265782
v 0.3118323 0.2858846 -0.05855212
v 0.2770844 0.4358833 -0.03758457
v 0.2880492 -0.08902723 -0.06545642
v 0.2880492 -0.08902723 -0.02601138
v 0.2448408 -0.2440485 -0.01910707
v 0.2448408 -0.2440485 -0.05855212
v 0.3118323 0.2858846 -0.05855212
v 0.3118323 0.2858846 -0.01910707
v 0.3166568 0.1308775 -0.02601138
v 0.3166568 0.1308775 -0.06545642
v 0.3166568 0.1308775 -0.06545642
v 0.3166568 0.1308775 -0.02601138
v 0.2880492 -0.08902723 -0.02601138
v 0.2880492 -0.08902723 -0.06545642
v -0.4558604 0.3191468 -0.07265782
v -0.4614206 0.3191468 -0.03321278
v 0.3118323 0.2858846 -0.01910707
v 0.3118323 0.2858846 -0.05855212
v 0.2448408 -0.2440485 -0.05855212
v 0.2448408 -0.2440485 -0.01910707
v -0.3556066 -0.2440485 -0.01910707
v -0.3390109 -0.2440485 -0.05855212
v -0.4614206 0.3191468 -0.03321278
v -0.4558604 0.3191468 -0.07265782
v -0.4352324 0.4424338 -0.04969537
v -0.3418405 -0.429078 -0.06719664
v -0.3390109 -0.2440485 -0.05855212
v -0.3556066 -0.2440485 -0.01910707
v -0.4614206 0.3191468 -0.03321278
v -0.4352324 0.4424338 -0.04969537
v -0.4351758 0.4479658 0.06054702
v -0.4416981 0.2858846 0.0210878
v -0.4219898 0.2858846 0.06054702
v -0.3418405 -0.2440485 0.0210878
v -0.3175906 -0.2440485 0.06054702
v -0.3418405 -0.4479658 0.07265779
v -0.3418405 -0.429078 -0.06719664
v -0.3556066 -0.2440485 -0.01910707
v 0.2374413 -0.08902723 0.01249987
v 0.2425771 -0.2440485 0.0210878
v -0.303499 -0.1011805 0.01249987
v -0.3418405 -0.2440485 0.0210878
v -0.4635995 0.139437 0.01249987
v 0.2374413 0.1308775 0.01249987
v -0.303499 -0.1011805 0.01249987
v 0.2374413 -0.08902723 0.01249987
v -0.4635995 0.139437 0.01249987
v -0.4416981 0.2858846 0.0210878
v 0.2374413 0.1308775 0.01249987
v 0.2425771 0.2858846 0.0210878
v 0.2880492 -0.08902723 -0.02601138
v -0.3067389 -0.08902723 -0.02601138
v -0.3556066 -0.2440485 -0.01910707
v 0.2448408 -0.2440485 -0.01910707
v 0.3166568 0.1308775 -0.02601138
v -0.4550681 0.1308775 -0.02601138
v 0.3118323 0.2858846 -0.01910707
v -0.4614206 0.3191468 -0.03321278
v -0.4550681 0.1308775 -0.02601138
v -0.4614206 0.3191468 -0.03321278
v -0.4416981 0.2858846 0.0210878
v -0.4635995 0.139437 0.01249987
v -0.3067389 -0.08902723 -0.02601138
v -0.4550681 0.1308775 -0.02601138
v -0.4635995 0.139437 0.01249987
v -0.303499 -0.1011805 0.01249987
v -0.3418405 -0.2440485 0.0210878
v -0.3556066 -0.2440485 -0.01910707
v -0.3067389 -0.08902723 -0.02601138
v -0.303499 -0.1011805 0.01249987
vt 0.9723458 0.8995693
vt 0.9715461 0.9147644
vt 0.9723458 0.9019686
vt 0.9715461 0.9147644
vt 0.9555513 0.9683471
vt 0.9579505 0.9675474
vt 0.9699466 0.9635487
vt 0.9659479 0.9643484
vt 0.9699466 0.9635487
vt 0.9555513 0.9011688
vt 0.9723458 0.8995693
vt 0.9555513 0.900369
vt 0.909966 0.900369
vt 0.9723458 0.8995693
vt 0.9723458 0.9019686
vt 0.9555513 0.900369
vt 0.9555513 0.9147644
vt 0.9715461 0.9147644
vt 0.9555513 0.9011688
vt 0.9723458 0.8995693
vt 0.9683471 0.9267606
vt 0.9547515 0.9267606
vt 0.909966 0.8995693
vt 0.9123652 0.9147644
vt 0.9555513 0.9683471
vt 0.9699466 0.9635487
vt 0.9555513 0.9555513
vt 0.9715461 0.9555513
vt 0.9043678 0.9555513
vt 0.9027683 0.9683471
vt 0.9715461 0.9555513
vt 0.9699466 0.9635487
vt 0.9715461 0.9555513
vt 0.9699466 0.9635487
vt 0.9715461 0.9147644
vt 0.9683471 0.9267606
vt 0.9715461 0.9147644
vt 0.9683471 0.9267606
vt 0.9547515 0.9267606
vt 0.9555513 0.9147644
vt 0.9547515 0.9267606
vt 0.9555513 0.9147644
vt 0.9547515 0.9435551
vt 0.9547515 0.9435551
vt 0.9555513 0.9555513
vt 0.9555513 0.9555513
vt 0.9555513 0.9555513
vt 0.9555513 0.9555513
vt 0.9043678 0.9555513
vt 0.9027683 0.9555513
vt 0.9683471 0.9267606
vt 0.9587502 0.9267606
vt 0.9715461 0.9147644
vt 0.9555513 0.9147644
vt 0.9611495 0.9435551
vt 0.9707464 0.9435551
vt 0.9715461 0.9555513
vt 0.9603497 0.9555513
vt 0.9555513 0.900369
vt 0.9723458 0.9019686
vt 0.9107656 0.9147644
vt 0.909966 0.900369
vt 0.9555513 0.900369
vt 0.9707464 0.9435551
vt 0.9707464 0.9435551
vt 0.9715461 0.9555513
vt 0.9715461 0.9555513
vt 0.9547515 0.9435551
vt 0.9555513 0.9555513
vt 0.9707464 0.9435551
vt 0.9715461 0.9555513
vt 0.9683471 0.9267606
vt 0.9707464 0.9435551
vt 0.9683471 0.9267606
vt 0.9707464 0.9435551
vt 0.9547515 0.9435551
vt 0.9707464 0.9435551
vt 0.9547515 0.9267606
vt 0.9683471 0.9267606
vt 0.9027683 0.9683471
vt 0.9027683 0.9675474
vt 0.9555513 0.9683471
vt 0.9579505 0.9675474
vt 0.909966 0.8995693
vt 0.9555513 0.9011688
vt 0.909966 0.900369
vt 0.909966 0.9147644
vt 0.9555513 0.9147644
vt 0.9123652 0.9147644
vt 0.9555513 0.9147644
vt 0.9699466 0.9635487
vt 0.9659479 0.9643484
vt 0.9603497 0.9555513
vt 0.9715461 0.9555513
vt 0.9579505 0.9675474
vt 0.9603497 0.9555513
vt 0.9659479 0.9643484
vt 0.9027683 0.9675474
vt 0.9011688 0.9579505
vt 0.9603497 0.9555513
vt 0.9579505 0.9675474
vt 0.9587502 0.9267606
vt 0.9587502 0.9267606
vt 0.9555513 0.9147644
vt 0.9555513 0.9147644
vt 0.9603497 0.9555513
vt 0.9603497 0.9555513
vt 0.9611495 0.9435551
vt 0.9611495 0.9435551
vt 0.9611495 0.9435551
vt 0.9611495 0.9435551
vt 0.9587502 0.9267606
vt 0.9587502 0.9267606
vt 0.9011688 0.9579505
vt 0.9011688 0.9579505
vt 0.9603497 0.9555513
vt 0.9603497 0.9555513
vt 0.9555513 0.9147644
vt 0.9555513 0.9147644
vt 0.9091662 0.9147644
vt 0.9107656 0.9147644
vt 0.9011688 0.9579505
vt 0.9011688 0.9579505
vt 0.9027683 0.9675474
vt 0.909966 0.900369
vt 0.9107656 0.9147644
vt 0.9091662 0.9147644
vt 0.9011688 0.9579505
vt 0.9027683 0.9675474
vt 0.9027683 0.9683471
vt 0.9027683 0.9555513
vt 0.9043678 0.9555513
vt 0.909966 0.9147644
vt 0.9123652 0.9147644
vt 0.909966 0.8995693
vt 0.909966 0.900369
vt 0.9091662 0.9147644
vt -0.05692214 0.6788405
vt -0.05212373 0.5500821
vt -0.4919818 0.6684439
vt -0.522372 0.5500821
vt -0.6207403 0.8499854
vt -0.05692214 0.860382
vt -0.4919818 0.6684439
vt -0.05692214 0.6788405
vt -0.6207403 0.8499854
vt -0.603146 0.9891404
vt -0.05692214 0.860382
vt -0.05212373 0.9891404
vt -0.01613533 0.6788405
vt -0.4943811 0.6788405
vt -0.5335684 0.5500821
vt -0.05052423 0.5500821
vt 0.00705719 0.860382
vt -0.6135426 0.8435874
vt 0.003058493 0.9891404
vt -0.6191408 1.016332
vt -0.6135426 0.8435874
vt -0.6191408 1.016332
vt -0.603146 0.9891404
vt -0.6207403 0.8499854
vt -0.4943811 0.6788405
vt -0.6135426 0.8435874
vt -0.6207403 0.8499854
vt -0.4919818 0.6684439
vt -0.522372 0.5500821
vt -0.5335684 0.5500821
vt -0.4943811 0.6788405
vt -0.4919818 0.6684439
vn 0.9982743 0.05872193 0
vn 0.9982743 0.05872193 0
vn 0.9982743 0.05872193 0
vn 0.9977852 0.06651898 0
vn 0.3091746 0.9510053 0
vn 0.3176447 0.9450908 -0.07684576
vn 0.3091746 0.9510053 0
vn 0.3091746 0.9510053 0
vn 0.2705862 0.9607769 -0.06075178
vn -0.02744055 -0.9996234 0
vn 0.003921568 -0.9843062 -0.1764254
vn -0.01960405 -0.9998079 0
vn 0.04313695 -0.9921493 -0.1173839
vn 0.003921568 -0.9843062 -0.1764254
vn 0.06666619 -0.960777 -0.2691899
vn -0.01960405 -0.9998079 0
vn -0.003921509 0.06666613 0.9977676
vn 0.003921568 0.06666613 0.9977676
vn -0.003921509 0.06666613 0.9977676
vn 0.003921568 0.05882299 0.9982607
vn -0.003921509 0.05882299 0.9982607
vn -0.003921509 0.05882299 0.9982607
vn -0.003921509 0.05882299 0.9982607
vn -0.003921509 0.05882299 0.9982607
vn -0.003921509 0.003921509 0.9999846
vn -0.003921509 0.003921509 0.9999846
vn -0.003921509 0.003921509 0.9999846
vn -0.003921509 -0.003921568 0.9999846
vn -0.003921509 0.003921509 0.9999846
vn -0.003921509 0.003921509 0.9999846
vn 0.9747855 0.2231436 0
vn 0.9747855 0.2231436 0
vn 0.9747855 0.2231436 0
vn 0.9747855 0.2231436 0
vn 0.9730572 0.2305637 0
vn 0.9730572 0.2305637 0
vn 0.9730572 0.2305637 0
vn 0.9730572 0.2305637 0
vn -0.9993777 -0.03527219 0
vn -0.9993777 -0.03527219 0
vn -0.9993777 -0.03527219 0
vn -0.9993777 -0.03527219 0
vn -0.9999923 0.003921509 -0.0003449296
vn -0.9999923 0.003921509 -0.0003449296
vn -0.9993777 0.03527213 0
vn -0.9993777 0.03527213 0
vn -0.003921509 -0.9999924 0
vn -0.003921509 -0.9999924 0
vn -0.003921509 -0.9999924 0
vn -0.003921509 -0.9999924 0
vn -0.003921509 -0.04313695 -0.9990615
vn -0.003921509 -0.04313695 -0.9990615
vn -0.003921509 -0.04313695 -0.9990615
vn -0.003921509 -0.04313695 -0.9990615
vn -0.003921509 0.04313684 -0.9990615
vn -0.003921509 0.04313684 -0.9990615
vn -0.003921509 0.04313684 -0.9990615
vn -0.003921509 0.04313684 -0.9990615
vn 0.003921568 -0.05098003 -0.998692
vn 0.003921568 -0.05098003 -0.998692
vn 0.01176465 -0.003921568 -0.9999231
vn 0.01176465 -0.003921568 -0.9999231
vn 0.01176465 -0.003921568 -0.9999231
vn 0.9990709 -0.04309721 0
vn 0.9990709 -0.04309721 0
vn 0.9990709 -0.04309721 0
vn 0.9990709 -0.04309721 0
vn -0.003921509 -0.05882311 0.9982607
vn -0.003921509 -0.05882311 0.9982607
vn -0.003921509 -0.05882311 0.9982607
vn -0.003921509 -0.05882311 0.9982607
vn 0.9905663 -0.1370349 0
vn 0.9905663 -0.1370349 0
vn 0.9905663 -0.1370349 0
vn 0.9905663 -0.1370349 0
vn -0.003921509 0.003921509 0.9999846
vn -0.003921509 0.003921509 0.9999846
vn -0.003921509 0.003921509 0.9999846
vn -0.003921509 0.003921509 0.9999846
vn -0.003921509 0.9999923 -0.000345267
vn 0.003921568 0.9999923 -0.000345267
vn 0.01176465 0.9921492 -0.124505
vn 0.01176465 0.9921492 -0.124505
vn 0.04313695 -0.9921493 -0.1173839
vn -0.02744055 -0.9996234 0
vn 0.04313695 -0.9921493 -0.1173839
vn -0.003921509 0.9999923 -0.000345267
vn -0.003921509 0.9999923 -0.000345267
vn -0.003921509 0.9999923 -0.000345267
vn -0.003921509 0.9999923 -0.000345267
vn 0.003921568 -0.01176465 -0.9999231
vn 0.003921568 -0.01176465 -0.9999231
vn 0.003921568 -0.01176465 -0.9999231
vn 0.003921568 -0.01176465 -0.9999231
vn -0.1764692 0.09803843 -0.9794116
vn -0.1764692 0.09803843 -0.9794116
vn -0.1764692 0.09803843 -0.9794116
vn 0.01960772 0.1607831 -0.986795
vn 0.01960772 0.1607831 -0.986795
vn 0.01960772 0.1607831 -0.986795
vn 0.01960772 0.1607831 -0.986795
vn -0.9607769 0.2705861 -0.06075227
vn -0.9607769 0.2705861 -0.06075227
vn -0.9607769 0.2705861 -0.06075227
vn -0.9607769 0.2705861 -0.06075227
vn -0.9996234 -0.02744067 0
vn -0.9996234 -0.02744067 0
vn -0.9996234 -0.02744067 0
vn -0.9996234 -0.02744067 0
vn -0.9916004 0.1293392 0
vn -0.9916004 0.1293392 0
vn -0.9916004 0.1293392 0
vn -0.9916004 0.1293392 0
vn -0.04309709 -0.9990709 0
vn -0.04309709 -0.9990709 0
vn -0.04309709 -0.9990709 0
vn -0.04309709 -0.9990709 0
vn -0.003921509 0.9999923 -0.000345267
vn -0.003921509 0.9999923 -0.000345267
vn -0.003921509 0.9999923 -0.000345267
vn -0.003921509 0.9999923 -0.000345267
vn -0.9921492 0.09803843 0.07764255
vn -0.9686199 0.1843122 -0.1667465
vn -0.9843061 0.1058815 0.1411759
vn -0.9993777 -0.03527219 0
vn -0.9215615 0.03529382 -0.3866248
vn -0.9990709 0.04309709 0
vn -0.9921492 0.09803843 0.07764255
vn -0.9843061 0.1058815 0.1411759
vn -0.9843061 0.0901953 0.1516784
vn -0.9843061 0.05097997 0.1689454
vn -0.8901892 -0.07450926 0.449457
vn -0.9843061 0.05882299 0.1663772
vn -0.8431307 0.1294107 0.5219037
vn -0.9921492 -0.0274508 0.1220096
vn -0.9993777 -0.03527219 0
vn -0.9990709 0.04309709 0
vn -0.003921509 0.05882299 0.9982607
vn -0.003921509 0.05882299 0.9982607
vn -0.003921509 0.05882299 0.9982607
vn 0.003921568 0.05882299 0.9982607
vn -0.003921509 0.003921509 0.9999846
vn 0.003921568 0.003921509 0.9999846
vn -0.003921509 0.003921509 0.9999846
vn 0.003921568 0.003921509 0.9999846
vn -0.003921509 -0.05882311 0.9982607
vn -0.003921509 -0.05882311 0.9982607
vn -0.003921509 -0.05882311 0.9982607
vn 0.003921568 -0.05882311 0.9982607
vn -0.003921509 -0.04313695 -0.9990615
vn -0.003921509 -0.04313695 -0.9990615
vn -0.003921509 -0.04313695 -0.9990615
vn -0.003921509 -0.04313695 -0.9990615
vn 0.01176465 -0.003921568 -0.9999231
vn 0.01176465 -0.003921568 -0.9999231
vn 0.01176465 -0.003921568 -0.9999231
vn 0.01176465 -0.003921568 -0.9999231
vn -0.9294046 -0.3647031 -0.0565569
vn -0.9921492 0.09803843 0.07764255
vn -0.9843061 0.05097997 0.1689454
vn -0.9607769 -0.2627431 0.08873416
vn -0.9371324 -0.3489741 0
vn -0.9294046 -0.3647031 -0.0565569
vn -0.9607769 -0.2627431 0.08873416
vn -0.9764631 -0.1843123 0.1120216
vn -0.9843061 0.05882299 0.1663772
vn -0.9990709 0.04309709 0
vn -0.9371324 -0.3489741 0
vn -0.9764631 -0.1843123 0.1120216
g mimicPiece_0
f 3/3/3 2/2/2 1/1/1
f 3/3/3 4/4/4 2/2/2
f 7/7/7 6/6/6 5/5/5
f 8/8/8 6/6/6 7/7/7
f 8/8/8 7/7/7 9/9/9
f 12/12/12 11/11/11 10/10/10
f 13/13/13 12/12/12 10/10/10
f 16/16/16 15/15/15 14/14/14
f 19/19/19 18/18/18 17/17/17
f 19/19/19 20/20/20 18/18/18
f 17/17/17 18/18/18 21/21/21
f 17/17/17 21/21/21 22/22/22
f 23/23/23 19/19/19 17/17/17
f 23/23/23 17/17/17 24/24/24
f 27/27/27 26/26/26 25/25/25
f 27/27/27 28/28/28 26/26/26
f 29/29/29 27/27/27 25/25/25
f 29/29/29 25/25/25 30/30/30
f 33/33/33 32/32/32 31/31/31
f 33/33/33 34/34/34 32/32/32
f 37/37/37 36/36/36 35/35/35
f 37/37/37 38/38/38 36/36/36
f 41/41/41 40/40/40 39/39/39
f 41/41/41 42/42/42 40/40/40
f 39/39/39 43/43/43 41/41/41
f 39/39/39 44/44/44 43/43/43
f 45/45/45 43/43/43 44/44/44
f 45/45/45 46/46/46 43/43/43
f 49/49/49 48/48/48 47/47/47
f 49/49/49 50/50/50 48/48/48
f 53/53/53 52/52/52 51/51/51
f 53/53/53 54/54/54 52/52/52
f 51/51/51 52/52/52 55/55/55
f 51/51/51 55/55/55 56/56/56
f 55/55/55 57/57/57 56/56/56
f 55/55/55 58/58/58 57/57/57
f 59/59/59 54/54/54 53/53/53
f 60/60/60 59/59/59 53/53/53
f 62/62/62 61/61/61 54/54/54
f 63/63/63 62/62/62 54/54/54
f 66/66/66 65/65/65 64/64/64
f 66/66/66 67/67/67 65/65/65
f 70/70/70 69/69/69 68/68/68
f 70/70/70 71/71/71 69/69/69
f 74/74/74 73/73/73 72/72/72
f 74/74/74 75/75/75 73/73/73
f 78/78/78 77/77/77 76/76/76
f 78/78/78 79/79/79 77/77/77
f 82/82/82 81/81/81 80/80/80
f 82/82/82 83/83/83 81/81/81
f 86/86/86 85/85/85 84/84/84
f 89/89/89 88/88/88 87/87/87
f 89/89/89 90/90/90 88/88/88
f 93/93/93 92/92/92 91/91/91
f 94/94/94 93/93/93 91/91/91
f 97/97/97 96/96/96 95/95/95
f 100/100/100 99/99/99 98/98/98
f 101/101/101 100/100/100 98/98/98
f 104/104/104 103/103/103 102/102/102
f 105/105/105 104/104/104 102/102/102
f 108/108/108 107/107/107 106/106/106
f 109/109/109 108/108/108 106/106/106
f 112/112/112 111/111/111 110/110/110
f 113/113/113 112/112/112 110/110/110
f 116/116/116 115/115/115 114/114/114
f 117/117/117 116/116/116 114/114/114
f 120/120/120 119/119/119 118/118/118
f 121/121/121 120/120/120 118/118/118
f 124/124/124 123/123/123 122/122/122
f 127/127/127 126/126/126 125/125/125
f 130/130/130 129/129/129 128/128/128
f 131/131/131 130/130/130 128/128/128
f 131/131/131 132/132/132 130/130/130
f 135/135/135 134/134/134 133/133/133
f 136/136/136 135/135/135 133/133/133
f 137/137/137 136/136/136 133/133/133
g mimicPiece_1
f 140/140/140 139/139/139 138/138/138
f 140/140/140 141/141/141 139/139/139
f 144/144/144 143/143/143 142/142/142
f 144/144/144 145/145/145 143/143/143
f 148/148/148 147/147/147 146/146/146
f 148/148/148 149/149/149 147/147/147
f 152/152/152 151/151/151 150/150/150
f 153/153/153 152/152/152 150/150/150
f 150/150/150 151/151/151 154/154/154
f 151/151/151 155/155/155 154/154/154
f 154/154/154 155/155/155 156/156/156
f 155/155/155 157/157/157 156/156/156
f 160/160/160 159/159/159 158/158/158
f 161/161/161 160/160/160 158/158/158
f 164/164/164 163/163/163 162/162/162
f 165/165/165 164/164/164 162/162/162
f 168/168/168 167/167/167 166/166/166
f 169/169/169 168/168/168 166/166/166
