g mudPitPool
v 0.006146908 1.448393E-05 0.2358466
v 1.430511E-05 -1.430511E-05 -1.430511E-05
v 0.2073427 1.448393E-05 0.1125897
v 0.01230836 -1.430511E-05 0.4717076
v 0.4146712 -1.430511E-05 0.2251937
v 0.01846975 -1.430511E-05 0.7075684
v 0.6219996 -1.430511E-05 0.3377978
v 0.02463114 1.448393E-05 0.9434294
v 0.8293568 1.448393E-05 0.4504018
v -0.2011815 1.448393E-05 0.1232713
v 1.430511E-05 -1.430511E-05 -1.430511E-05
v 0.006146908 1.448393E-05 0.2358466
v -0.4023485 -1.430511E-05 0.2465283
v 0.01230836 -1.430511E-05 0.4717076
v -0.6035444 -1.430511E-05 0.3697852
v 0.01846975 -1.430511E-05 0.7075684
v -0.8047402 1.448393E-05 0.4930421
v 0.02463114 1.448393E-05 0.9434294
v -0.2073429 1.448393E-05 -0.1125895
v 1.430511E-05 -1.430511E-05 -1.430511E-05
v -0.2011815 1.448393E-05 0.1232713
v -0.4146713 -1.430511E-05 -0.2251936
v -0.4023485 -1.430511E-05 0.2465283
v -0.6219997 -1.430511E-05 -0.3377976
v -0.6035444 -1.430511E-05 0.3697852
v -0.829357 1.448393E-05 -0.4504016
v -0.8047402 1.448393E-05 0.4930421
v -0.006147087 1.448393E-05 -0.2358465
v 1.430511E-05 -1.430511E-05 -1.430511E-05
v -0.2073429 1.448393E-05 -0.1125895
v -0.01230848 -1.430511E-05 -0.4717074
v -0.4146713 -1.430511E-05 -0.2251936
v -0.01846987 -1.430511E-05 -0.7075683
v -0.6219997 -1.430511E-05 -0.3377976
v -0.02460253 1.448393E-05 -0.9434292
v -0.829357 1.448393E-05 -0.4504016
v 0.2011814 1.448393E-05 -0.1232712
v 1.430511E-05 -1.430511E-05 -1.430511E-05
v -0.006147087 1.448393E-05 -0.2358465
v 0.4023772 -1.430511E-05 -0.2465281
v -0.01230848 -1.430511E-05 -0.4717074
v 0.6035442 -1.430511E-05 -0.3697851
v -0.01846987 -1.430511E-05 -0.7075683
v 0.8047112 1.448393E-05 -0.493042
v -0.02460253 1.448393E-05 -0.9434292
v 0.2073427 1.448393E-05 0.1125897
v 1.430511E-05 -1.430511E-05 -1.430511E-05
v 0.2011814 1.448393E-05 -0.1232712
v 0.4146712 -1.430511E-05 0.2251937
v 0.4023772 -1.430511E-05 -0.2465281
v 0.6219996 -1.430511E-05 0.3377978
v 0.6035442 -1.430511E-05 -0.3697851
v 0.8293568 1.448393E-05 0.4504018
v 0.8047112 1.448393E-05 -0.493042
vt 0.3751832 0.749878
vt 0.4997558 1
vt 0.6248169 0.749878
vt 0.2501221 0.5002443
vt 0.749878 0.5002443
vt 0.125061 0.2501221
vt 0.8749391 0.2501221
vt -5.960464E-08 -5.960464E-08
vt 1 -5.960464E-08
vt 0.3751832 0.749878
vt 0.4997558 1
vt 0.6248169 0.749878
vt 0.2501221 0.5002443
vt 0.749878 0.5002443
vt 0.125061 0.2501221
vt 0.8749391 0.2501221
vt -5.960464E-08 -5.960464E-08
vt 1 -5.960464E-08
vt 0.3751832 0.749878
vt 0.4997558 1
vt 0.6248169 0.749878
vt 0.2501221 0.5002443
vt 0.749878 0.5002443
vt 0.125061 0.2501221
vt 0.8749391 0.2501221
vt -5.960464E-08 -5.960464E-08
vt 1 -5.960464E-08
vt 0.3751832 0.749878
vt 0.4997558 1
vt 0.6248169 0.749878
vt 0.2501221 0.5002443
vt 0.749878 0.5002443
vt 0.125061 0.2501221
vt 0.8749391 0.2501221
vt -5.960464E-08 -5.960464E-08
vt 1 -5.960464E-08
vt 0.3751832 0.749878
vt 0.4997558 1
vt 0.6248169 0.749878
vt 0.2501221 0.5002443
vt 0.749878 0.5002443
vt 0.125061 0.2501221
vt 0.8749391 0.2501221
vt -5.960464E-08 -5.960464E-08
vt 1 -5.960464E-08
vt 0.3751832 0.749878
vt 0.4997558 1
vt 0.6248169 0.749878
vt 0.2501221 0.5002443
vt 0.749878 0.5002443
vt 0.125061 0.2501221
vt 0.8749391 0.2501221
vt -5.960464E-08 -5.960464E-08
vt 1 -5.960464E-08
vn 0 1 0
vn 0 1 0
vn 0 1 0
vn 0 1 0
vn 0 1 0
vn 0 1 0
vn 0 1 0
vn 0 1 0
vn 0 1 0
vn 0 1 0
vn 0 1 0
vn 0 1 0
vn 0 1 0
vn 0 1 0
vn 0 1 0
vn 0 1 0
vn 0 1 0
vn 0 1 0
vn 0 1 0
vn 0 1 0
vn 0 1 0
vn 0 1 0
vn 0 1 0
vn 0 1 0
vn 0 1 0
vn 0 1 0
vn 0 1 0
vn 0 1 0
vn 0 1 0
vn 0 1 0
vn 0 1 0
vn 0 1 0
vn 0 1 0
vn 0 1 0
vn 0 1 0
vn 0 1 0
vn 0 1 0
vn 0 1 0
vn 0 1 0
vn 0 1 0
vn 0 1 0
vn 0 1 0
vn 0 1 0
vn 0 1 0
vn 0 1 0
vn 0 1 0
vn 0 1 0
vn 0 1 0
vn 0 1 0
vn 0 1 0
vn 0 1 0
vn 0 1 0
vn 0 1 0
vn 0 1 0
g mudPitPool_0
f 3/3/3 2/2/2 1/1/1
f 3/3/3 1/1/1 4/4/4
f 5/5/5 3/3/3 4/4/4
f 5/5/5 4/4/4 6/6/6
f 7/7/7 5/5/5 6/6/6
f 7/7/7 6/6/6 8/8/8
f 9/9/9 7/7/7 8/8/8
f 12/12/12 11/11/11 10/10/10
f 12/12/12 10/10/10 13/13/13
f 14/14/14 12/12/12 13/13/13
f 14/14/14 13/13/13 15/15/15
f 16/16/16 14/14/14 15/15/15
f 16/16/16 15/15/15 17/17/17
f 18/18/18 16/16/16 17/17/17
f 21/21/21 20/20/20 19/19/19
f 21/21/21 19/19/19 22/22/22
f 23/23/23 21/21/21 22/22/22
f 23/23/23 22/22/22 24/24/24
f 25/25/25 23/23/23 24/24/24
f 25/25/25 24/24/24 26/26/26
f 27/27/27 25/25/25 26/26/26
f 30/30/30 29/29/29 28/28/28
f 30/30/30 28/28/28 31/31/31
f 32/32/32 30/30/30 31/31/31
f 32/32/32 31/31/31 33/33/33
f 34/34/34 32/32/32 33/33/33
f 34/34/34 33/33/33 35/35/35
f 36/36/36 34/34/34 35/35/35
f 39/39/39 38/38/38 37/37/37
f 39/39/39 37/37/37 40/40/40
f 41/41/41 39/39/39 40/40/40
f 41/41/41 40/40/40 42/42/42
f 43/43/43 41/41/41 42/42/42
f 43/43/43 42/42/42 44/44/44
f 45/45/45 43/43/43 44/44/44
f 48/48/48 47/47/47 46/46/46
f 48/48/48 46/46/46 49/49/49
f 50/50/50 48/48/48 49/49/49
f 50/50/50 49/49/49 51/51/51
f 52/52/52 50/50/50 51/51/51
f 52/52/52 51/51/51 53/53/53
f 54/54/54 52/52/52 53/53/53
