g omusshard
v -0.4267049 -0.3126255 -0.1251542
v -0.1896452 -0.03240851 -0.2595833
v -0.2209673 -0.05183598 -0.1941998
v -0.2962208 -0.1320766 -0.1279083
v -0.2076584 -0.01653904 -0.1034044
v -0.2686353 -0.02347636 -0.07334763
v -0.2496991 0.07413736 0.008456141
v 0.04504752 0.2935709 0.0406715
v -0.2800238 0.009795964 -0.03471601
v -0.3090087 -0.00317055 -0.01287684
v -0.4267049 -0.3126255 -0.1251542
v -0.3129537 0.00275445 0.02917877
v -0.3375767 -0.04332066 0.05808923
v -0.4267049 -0.3126255 -0.1251542
v -0.1542886 0.2616087 0.1219691
v -0.07098132 0.3016992 0.10144
v 0.04504752 0.2935709 0.0406715
v 0.124782 0.3083686 -0.2358982
v 0.3513613 0.6242546 0.0413712
v 0.03385255 0.3811657 -0.1565508
v -0.1896452 -0.03240851 -0.2595833
v -0.4267049 -0.3126255 -0.1251542
v -0.002233416 -0.1743109 -0.2958182
v -0.2652411 -0.1490477 0.1736268
v -0.4267049 -0.3126255 -0.1251542
v -0.3375767 -0.04332066 0.05808923
v -0.4267049 -0.3126255 -0.1251542
v -0.2652411 -0.1490477 0.1736268
v -0.1205995 -0.2680093 0.1551968
v 0.008887142 0.2105018 0.2708981
v 0.3513613 0.6242546 0.0413712
v 0.1630415 0.1932329 0.1178603
v 0.04504752 0.2935709 0.0406715
v 0.3513613 0.6242546 0.0413712
v -0.07098132 0.3016992 0.10144
v -0.002233416 -0.1743109 -0.2958182
v -0.4267049 -0.3126255 -0.1251542
v -0.1844794 -0.328495 -0.1017519
v -0.02969983 -0.2581988 -0.1892872
v 0.3513613 0.6242546 0.0413712
v 0.2321616 0.2869462 -0.04497311
v 0.3231357 0.207584 0.01476821
v 0.1630415 0.1932329 0.1178603
v 0.3513613 0.6242546 0.0413712
v 0.2880025 0.1612409 0.09579787
v 0.007070929 0.3740646 -0.05805874
v 0.04504752 0.2935709 0.0406715
v -0.2076584 -0.01653904 -0.1034044
v -0.2209673 -0.05183598 -0.1941998
v -0.04052263 0.3528805 -0.135843
v -0.1896452 -0.03240851 -0.2595833
v -0.1896452 -0.03240851 -0.2595833
v 0.124782 0.3083686 -0.2358982
v 0.03385255 0.3811657 -0.1565508
v -0.04052263 0.3528805 -0.135843
v -0.1896452 -0.03240851 -0.2595833
v -0.002233416 -0.1743109 -0.2958182
v 0.124782 0.3083686 -0.2358982
v -0.002233416 -0.1743109 -0.2958182
v 0.2321616 0.2869462 -0.04497311
v 0.124782 0.3083686 -0.2358982
v -0.002233416 -0.1743109 -0.2958182
v -0.02969983 -0.2581988 -0.1892872
v -0.005061924 -0.2216365 -0.06304586
v 0.2321616 0.2869462 -0.04497311
v 0.3231357 0.207584 0.01476821
v 0.2321616 0.2869462 -0.04497311
v -0.005061924 -0.2216365 -0.06304586
v -0.3375767 -0.04332066 0.05808923
v -0.3129537 0.00275445 0.02917877
v -0.1542886 0.2616087 0.1219691
v -0.3375767 -0.04332066 0.05808923
v -0.1542886 0.2616087 0.1219691
v -0.1428555 0.2558772 0.1358438
v -0.2652411 -0.1490477 0.1736268
v -0.2652411 -0.1490477 0.1736268
v 0.008887142 0.2105018 0.2708981
v -0.1205995 -0.2680093 0.1551968
v 0.008887142 0.2105018 0.2708981
v 0.1630415 0.1932329 0.1178603
v -0.1205995 -0.2680093 0.1551968
v -0.1205995 -0.2680093 0.1551968
v 0.1630415 0.1932329 0.1178603
v -0.005061924 -0.2216365 -0.06304586
v -0.08772913 -0.3028001 0.03179887
v 0.1630415 0.1932329 0.1178603
v 0.2880025 0.1612409 0.09579787
v -0.005061924 -0.2216365 -0.06304586
v -0.04052263 0.3528805 -0.135843
v 0.03385255 0.3811657 -0.1565508
v 0.007070929 0.3740646 -0.05805874
v 0.3513613 0.6242546 0.0413712
v -0.09496418 0.2828076 0.1647542
v 0.008887142 0.2105018 0.2708981
v -0.2652411 -0.1490477 0.1736268
v -0.1428555 0.2558772 0.1358438
v -0.07098132 0.3016992 0.10144
v 0.3513613 0.6242546 0.0413712
v -0.09496418 0.2828076 0.1647542
v -0.1428555 0.2558772 0.1358438
v -0.1542886 0.2616087 0.1219691
v -0.1844794 -0.328495 -0.1017519
v -0.4267049 -0.3126255 -0.1251542
v -0.1205995 -0.2680093 0.1551968
v -0.08772913 -0.3028001 0.03179887
v 0.3513613 0.6242546 0.0413712
v 0.008887142 0.2105018 0.2708981
v -0.09496418 0.2828076 0.1647542
v 0.3513613 0.6242546 0.0413712
v 0.124782 0.3083686 -0.2358982
v 0.2321616 0.2869462 -0.04497311
v 0.3513613 0.6242546 0.0413712
v 0.04504752 0.2935709 0.0406715
v 0.007070929 0.3740646 -0.05805874
v 0.2880025 0.1612409 0.09579787
v 0.3513613 0.6242546 0.0413712
v 0.3231357 0.207584 0.01476821
v 0.3231357 0.207584 0.01476821
v -0.005061924 -0.2216365 -0.06304586
v 0.2880025 0.1612409 0.09579787
v -0.005061924 -0.2216365 -0.06304586
v -0.02969983 -0.2581988 -0.1892872
v -0.1844794 -0.328495 -0.1017519
v -0.08772913 -0.3028001 0.03179887
vt 0.9660807 0.2337084
vt 0.9644604 0.1996823
vt 0.9604096 0.2045431
vt 0.9587893 0.2158852
vt 0.9523082 0.2045431
vt 0.9506879 0.209404
vt 0.9409661 0.2061634
vt 0.9271936 0.1778083
vt 0.9466372 0.209404
vt 0.945827 0.2126446
vt 0.9660807 0.2337084
vt 0.9425864 0.2142649
vt 0.9417763 0.2191258
vt 0.9660807 0.2337084
vt 0.9239531 0.1932011
vt 0.9231429 0.1859098
vt 0.9271936 0.1778083
vt 0.9474473 0.1632257
vt 0.9118009 0.1413517
vt 0.940156 0.1664663
vt 0.9644604 0.1996823
vt 0.9660807 0.2337084
vt 0.9701314 0.1956315
vt 0.9352951 0.2247968
vt 0.9660807 0.2337084
vt 0.9417763 0.2191258
vt 0.9660807 0.2337084
vt 0.9352951 0.2247968
vt 0.9393458 0.2223664
vt 0.9118009 0.1915808
vt 0.9118009 0.1413517
vt 0.9231429 0.1786185
vt 0.9271936 0.1778083
vt 0.9118009 0.1413517
vt 0.9231429 0.1859098
vt 0.9701314 0.1956315
vt 0.9660807 0.2337084
vt 0.9620299 0.2207461
vt 0.9652705 0.2053533
vt 0.9118009 0.1413517
vt 0.9320545 0.1640358
vt 0.9288139 0.1656561
vt 0.9231429 0.1786185
vt 0.9118009 0.1413517
vt 0.9239531 0.1729474
vt 0.9328647 0.1721373
vt 0.9271936 0.1778083
vt 0.9523082 0.2045431
vt 0.9604096 0.2045431
vt 0.940156 0.1729474
vt 0.9644604 0.1996823
vt 0.9644604 0.1996823
vt 0.9474473 0.1632257
vt 0.940156 0.1664663
vt 0.940156 0.1729474
vt 0.9644604 0.1996823
vt 0.9701314 0.1956315
vt 0.9474473 0.1632257
vt 0.9701314 0.1956315
vt 0.9320545 0.1640358
vt 0.9474473 0.1632257
vt 0.9701314 0.1956315
vt 0.9652705 0.2053533
vt 0.9531183 0.2061634
vt 0.9320545 0.1640358
vt 0.9288139 0.1656561
vt 0.9320545 0.1640358
vt 0.9531183 0.2061634
vt 0.9417763 0.2191258
vt 0.9425864 0.2142649
vt 0.9239531 0.1932011
vt 0.9417763 0.2191258
vt 0.9239531 0.1932011
vt 0.9231429 0.1940112
vt 0.9352951 0.2247968
vt 0.9352951 0.2247968
vt 0.9118009 0.1915808
vt 0.9393458 0.2223664
vt 0.9118009 0.1915808
vt 0.9231429 0.1786185
vt 0.9393458 0.2223664
vt 0.9393458 0.2223664
vt 0.9231429 0.1786185
vt 0.9531183 0.2061634
vt 0.9498777 0.2183156
vt 0.9231429 0.1786185
vt 0.9239531 0.1729474
vt 0.9531183 0.2061634
vt 0.940156 0.1729474
vt 0.940156 0.1664663
vt 0.9328647 0.1721373
vt 0.9118009 0.1413517
vt 0.9190922 0.1899605
vt 0.9118009 0.1915808
vt 0.9352951 0.2247968
vt 0.9231429 0.1940112
vt 0.9231429 0.1859098
vt 0.9118009 0.1413517
vt 0.9190922 0.1899605
vt 0.9231429 0.1940112
vt 0.9239531 0.1932011
vt 0.9620299 0.2207461
vt 0.9660807 0.2337084
vt 0.9393458 0.2223664
vt 0.9498777 0.2183156
vt 0.9118009 0.1413517
vt 0.9118009 0.1915808
vt 0.9190922 0.1899605
vt 0.9118009 0.1413517
vt 0.9474473 0.1632257
vt 0.9320545 0.1640358
vt 0.9118009 0.1413517
vt 0.9271936 0.1778083
vt 0.9328647 0.1721373
vt 0.9239531 0.1729474
vt 0.9118009 0.1413517
vt 0.9288139 0.1656561
vt 0.9288139 0.1656561
vt 0.9531183 0.2061634
vt 0.9239531 0.1729474
vt 0.9531183 0.2061634
vt 0.9652705 0.2053533
vt 0.9620299 0.2207461
vt 0.9498777 0.2183156
vn -0.796845 0.5664421 -0.2101937
vn -0.796845 0.5664421 -0.2101937
vn -0.7671157 0.5813068 -0.2713228
vn -0.7299538 0.5292802 -0.4324695
vn -0.4623891 0.6333333 -0.6205524
vn -0.544145 0.5738744 -0.6120248
vn -0.4772539 0.6333333 -0.6091943
vn -0.3954979 0.6333333 -0.6651845
vn -0.5069832 0.5887391 -0.6295667
vn -0.7819803 0.4698214 -0.409603
vn -0.6556303 0.4623891 -0.5969467
vn -0.8488715 0.4772539 -0.2272573
vn -0.9083304 0.3954979 -0.1360786
vn -0.9083304 0.3954979 -0.1360786
vn -0.6110362 0.6110362 -0.5032588
vn -0.417795 0.5887391 -0.691978
vn -0.3434715 0.5738744 -0.743435
vn -0.1205007 0.6556303 -0.745405
vn -0.07590669 0.6853598 -0.7242376
vn -0.07590669 0.6853598 -0.7242376
vn -0.313742 -0.1767934 -0.9329041
vn -0.313742 -0.1767934 -0.9329041
vn -0.313742 -0.1767934 -0.9329041
vn -0.8637362 -0.05044341 0.5014132
vn -0.8637362 -0.05044341 0.5014132
vn -0.8637362 -0.05044341 0.5014132
vn -0.4549567 -0.6524642 0.6060569
vn -0.4549567 -0.6524642 0.6060569
vn -0.4549567 -0.6524642 0.6060569
vn 0.6747612 -0.2362522 0.6992011
vn 0.6821935 -0.1767934 0.7094759
vn 0.6747612 -0.2362522 0.6992011
vn -0.4029302 0.3954979 -0.8253658
vn -0.4103627 0.3806332 -0.8286862
vn -0.4103627 0.3806332 -0.8286862
vn 0.005849242 -0.7862465 -0.6178852
vn 0.005849242 -0.7862465 -0.6178852
vn 0.005849242 -0.7862465 -0.6178852
vn 0.005849242 -0.7862465 -0.6178852
vn 0.5558435 0.01644778 -0.8311242
vn 0.5484111 -0.005849242 -0.8361884
vn 0.5558435 0.01644778 -0.8311242
vn 0.1842258 0.02388018 0.9825938
vn 0.1916581 0.09077138 0.9772552
vn 0.1916581 0.09077138 0.9772552
vn -0.8414392 0.3880655 0.3760123
vn -0.7448186 0.3434715 0.5720774
vn -0.878601 0.4103627 0.2442596
vn -0.900898 0.4326597 -0.03447228
vn -0.8934657 0.417795 0.1648223
vn -0.8563039 0.4252273 -0.2931303
vn -0.3880655 0.4103627 -0.8252319
vn -0.3880655 0.4103627 -0.8252319
vn -0.3880655 0.4103627 -0.8252319
vn -0.3880655 0.4103627 -0.8252319
vn -0.08333904 0.1427979 -0.986237
vn -0.08333904 0.1427979 -0.986237
vn -0.08333904 0.1427979 -0.986237
vn 0.8531377 -0.1619287 -0.4959185
vn 0.8531377 -0.1619287 -0.4959185
vn 0.8531377 -0.1619287 -0.4959185
vn 0.9051642 -0.4146288 -0.09359904
vn 0.9051642 -0.4146288 -0.09359904
vn 0.9051642 -0.4146288 -0.09359904
vn 0.9051642 -0.4146288 -0.09359904
vn 0.4294935 -0.1693611 -0.8870469
vn 0.4517906 -0.147064 -0.879919
vn 0.4294935 -0.1693611 -0.8870469
vn -0.8637362 0.4995509 0.06639795
vn -0.8637362 0.4995509 0.06639795
vn -0.8637362 0.4995509 0.06639795
vn -0.6853598 0.2691478 0.6766399
vn -0.6853598 0.2691478 0.6766399
vn -0.6853598 0.2691478 0.6766399
vn -0.6853598 0.2691478 0.6766399
vn -0.05360955 -0.2213876 0.9737113
vn -0.05360955 -0.2213876 0.9737113
vn -0.05360955 -0.2213876 0.9737113
vn 0.6450318 -0.3403052 0.6841975
vn 0.6450318 -0.3403052 0.6841975
vn 0.6450318 -0.3403052 0.6841975
vn 0.8085436 -0.4740876 0.348566
vn 0.8085436 -0.4740876 0.348566
vn 0.8159759 -0.4740876 0.3307934
vn 0.8159759 -0.4740876 0.3307934
vn 0.06530809 -0.3848994 0.9206451
vn 0.05044341 -0.4146288 0.9085914
vn 0.05044341 -0.4146288 0.9085914
vn -0.3657685 0.9306274 -0.01208681
vn -0.544145 0.8340068 -0.09131675
vn -0.5515774 0.8265745 -0.1119688
vn -0.5664421 0.8191422 -0.09027461
vn -0.5961714 0.2542831 0.7615246
vn -0.5961714 0.2542831 0.7615246
vn -0.5961714 0.2542831 0.7615246
vn -0.5961714 0.2542831 0.7615246
vn -0.5954922 0.8033611 0
vn -0.6036038 0.796845 -0.02646646
vn -0.573781 0.8190088 0
vn -0.4549567 0.8637362 0.2167353
vn -0.4549567 0.8637362 0.2167353
vn -0.08333904 -0.964623 0.2501141
vn -0.08333904 -0.964623 0.2501141
vn -0.08333904 -0.964623 0.2501141
vn -0.08333904 -0.964623 0.2501141
vn -0.291445 0.6333333 0.7169022
vn -0.336039 0.5887391 0.7351626
vn -0.291445 0.6333333 0.7169022
vn 0.8531377 -0.1767934 -0.4908158
vn 0.838273 -0.2139552 -0.5015192
vn 0.838273 -0.2139552 -0.5015192
vn -0.5664421 0.5218479 0.6378229
vn -0.5961714 0.4921185 0.6343493
vn -0.5664421 0.5218479 0.6378229
vn 0.9274613 -0.08760518 0.363512
vn 0.9274613 -0.08760518 0.363512
vn 0.9274613 -0.08760518 0.363512
vn 0.7936789 -0.60787 -0.02383155
vn 0.7936789 -0.60787 -0.02383155
vn 0.7936789 -0.60787 -0.02383155
vn 0.5186818 -0.8531377 -0.0559034
vn 0.5186818 -0.8531377 -0.0559034
vn 0.5186818 -0.8531377 -0.0559034
vn 0.5186818 -0.8531377 -0.0559034
g omusshard_0
f 3/3/3 2/2/2 1/1/1
f 4/4/4 3/3/3 1/1/1
f 3/3/3 4/4/4 5/5/5
f 4/4/4 6/6/6 5/5/5
f 5/5/5 6/6/6 7/7/7
f 7/7/7 8/8/8 5/5/5
f 6/6/6 9/9/9 7/7/7
f 10/10/10 6/6/6 4/4/4
f 10/10/10 9/9/9 6/6/6
f 9/9/9 10/10/10 7/7/7
f 4/4/4 11/11/11 10/10/10
f 10/10/10 12/12/12 7/7/7
f 12/12/12 10/10/10 13/13/13
f 10/10/10 14/14/14 13/13/13
f 7/7/7 12/12/12 15/15/15
f 16/16/16 7/7/7 15/15/15
f 16/16/16 17/17/17 7/7/7
f 20/20/20 19/19/19 18/18/18
f 23/23/23 22/22/22 21/21/21
f 26/26/26 25/25/25 24/24/24
f 29/29/29 28/28/28 27/27/27
f 32/32/32 31/31/31 30/30/30
f 35/35/35 34/34/34 33/33/33
f 38/38/38 37/37/37 36/36/36
f 39/39/39 38/38/38 36/36/36
f 42/42/42 41/41/41 40/40/40
f 45/45/45 44/44/44 43/43/43
f 48/48/48 47/47/47 46/46/46
f 49/49/49 48/48/48 46/46/46
f 50/50/50 49/49/49 46/46/46
f 50/50/50 51/51/51 49/49/49
f 54/54/54 53/53/53 52/52/52
f 55/55/55 54/54/54 52/52/52
f 58/58/58 57/57/57 56/56/56
f 61/61/61 60/60/60 59/59/59
f 64/64/64 63/63/63 62/62/62
f 65/65/65 64/64/64 62/62/62
f 68/68/68 67/67/67 66/66/66
f 71/71/71 70/70/70 69/69/69
f 74/74/74 73/73/73 72/72/72
f 75/75/75 74/74/74 72/72/72
f 78/78/78 77/77/77 76/76/76
f 81/81/81 80/80/80 79/79/79
f 84/84/84 83/83/83 82/82/82
f 85/85/85 84/84/84 82/82/82
f 88/88/88 87/87/87 86/86/86
f 91/91/91 90/90/90 89/89/89
f 90/90/90 91/91/91 92/92/92
f 95/95/95 94/94/94 93/93/93
f 96/96/96 95/95/95 93/93/93
f 99/99/99 98/98/98 97/97/97
f 100/100/100 99/99/99 97/97/97
f 101/101/101 100/100/100 97/97/97
f 104/104/104 103/103/103 102/102/102
f 105/105/105 104/104/104 102/102/102
f 108/108/108 107/107/107 106/106/106
f 111/111/111 110/110/110 109/109/109
f 114/114/114 113/113/113 112/112/112
f 117/117/117 116/116/116 115/115/115
f 120/120/120 119/119/119 118/118/118
f 123/123/123 122/122/122 121/121/121
f 124/124/124 123/123/123 121/121/121
