g sealInnerRing
v -0.4263797 1.902696 0.1416007
v -0.2414128 1.795928 0.1416007
v -0.2414128 1.517162 0.1416007
v -0.4263797 1.410355 0.1416007
v -1.66893E-05 1.377778 0.1416007
v -1.66893E-05 1.164204 0.1416007
v 0.2414187 1.517162 0.1416007
v 0.4263856 1.410355 0.1416007
v 0.2414187 1.795928 0.1416007
v 0.4263856 1.902696 0.1416007
v -1.66893E-05 1.935312 0.1416007
v -1.66893E-05 2.148886 0.1416007
v -0.4263797 1.902696 -0.08698493
v -0.4263797 1.410355 -0.08698493
v -0.2414128 1.517162 -0.08698493
v -0.2414128 1.795928 -0.08698493
v -1.66893E-05 1.377778 -0.08698493
v -1.66893E-05 1.164204 -0.08698493
v 0.2414187 1.517162 -0.08698493
v 0.4263856 1.410355 -0.08698493
v 0.2414187 1.795928 -0.08698493
v 0.4263856 1.902696 -0.08698493
v -1.66893E-05 1.935312 -0.08698493
v -1.66893E-05 2.148886 -0.08698493
v -0.4263797 1.902696 -0.08698493
v -0.4263797 1.902696 0.1416007
v -0.4263797 1.410355 0.1416007
v -0.4263797 1.410355 -0.08698493
v -0.2414128 1.517162 -0.08698493
v -0.2414128 1.517162 0.1416007
v -0.2414128 1.795928 0.1416007
v -0.2414128 1.795928 -0.08698493
v -0.4263797 1.410355 -0.08698493
v -0.4263797 1.410355 0.1416007
v -1.66893E-05 1.164204 0.1416007
v -1.66893E-05 1.164204 -0.08698493
v -1.66893E-05 1.377778 -0.08698493
v -1.66893E-05 1.377778 0.1416007
v -0.2414128 1.517162 0.1416007
v -0.2414128 1.517162 -0.08698493
v -1.66893E-05 1.164204 -0.08698493
v -1.66893E-05 1.164204 0.1416007
v 0.4263856 1.410355 0.1416007
v 0.4263856 1.410355 -0.08698493
v 0.2414187 1.517162 -0.08698493
v 0.2414187 1.517162 0.1416007
v -1.66893E-05 1.377778 0.1416007
v -1.66893E-05 1.377778 -0.08698493
v 0.4263856 1.410355 -0.08698493
v 0.4263856 1.410355 0.1416007
v 0.4263856 1.902696 0.1416007
v 0.4263856 1.902696 -0.08698493
v 0.2414187 1.795928 -0.08698493
v 0.2414187 1.795928 0.1416007
v 0.2414187 1.517162 0.1416007
v 0.2414187 1.517162 -0.08698493
v 0.4263856 1.902696 -0.08698493
v 0.4263856 1.902696 0.1416007
v -1.66893E-05 2.148886 0.1416007
v -1.66893E-05 2.148886 -0.08698493
v -1.66893E-05 1.935312 -0.08698493
v -1.66893E-05 1.935312 0.1416007
v 0.2414187 1.795928 0.1416007
v 0.2414187 1.795928 -0.08698493
v -1.66893E-05 2.148886 -0.08698493
v -1.66893E-05 2.148886 0.1416007
v -0.4263797 1.902696 0.1416007
v -0.4263797 1.902696 -0.08698493
v -0.2414128 1.795928 -0.08698493
v -0.2414128 1.795928 0.1416007
v -1.66893E-05 1.935312 0.1416007
v -1.66893E-05 1.935312 -0.08698493
vt 0.7894275 0.9502649
vt 0.7982127 0.9448586
vt 0.7982127 0.9313428
vt 0.7894275 0.9266123
vt 0.8097011 0.9245849
vt 0.8097011 0.9144481
vt 0.8211895 0.9313428
vt 0.8299747 0.9266123
vt 0.8211895 0.9448586
vt 0.8299747 0.9502649
vt 0.8097011 0.9516164
vt 0.8097011 0.9617532
vt 0.7894275 0.9502649
vt 0.7894275 0.9266123
vt 0.7982127 0.9313428
vt 0.7982127 0.9448586
vt 0.8097011 0.9245849
vt 0.8097011 0.9144481
vt 0.8211895 0.9313428
vt 0.8299747 0.9266123
vt 0.8211895 0.9448586
vt 0.8299747 0.9502649
vt 0.8097011 0.9516164
vt 0.8097011 0.9617532
vt 0.7894275 0.9502649
vt 0.7894275 0.9502649
vt 0.7894275 0.9266123
vt 0.7894275 0.9266123
vt 0.7982127 0.9313428
vt 0.7982127 0.9313428
vt 0.7982127 0.9448586
vt 0.7982127 0.9448586
vt 0.7894275 0.9266123
vt 0.7894275 0.9266123
vt 0.8097011 0.9144481
vt 0.8097011 0.9144481
vt 0.8097011 0.9245849
vt 0.8097011 0.9245849
vt 0.7982127 0.9313428
vt 0.7982127 0.9313428
vt 0.8097011 0.9144481
vt 0.8097011 0.9144481
vt 0.8299747 0.9266123
vt 0.8299747 0.9266123
vt 0.8211895 0.9313428
vt 0.8211895 0.9313428
vt 0.8097011 0.9245849
vt 0.8097011 0.9245849
vt 0.8299747 0.9266123
vt 0.8299747 0.9266123
vt 0.8299747 0.9502649
vt 0.8299747 0.9502649
vt 0.8211895 0.9448586
vt 0.8211895 0.9448586
vt 0.8211895 0.9313428
vt 0.8211895 0.9313428
vt 0.8299747 0.9502649
vt 0.8299747 0.9502649
vt 0.8097011 0.9617532
vt 0.8097011 0.9617532
vt 0.8097011 0.9516164
vt 0.8097011 0.9516164
vt 0.8211895 0.9448586
vt 0.8211895 0.9448586
vt 0.8097011 0.9617532
vt 0.8097011 0.9617532
vt 0.7894275 0.9502649
vt 0.7894275 0.9502649
vt 0.7982127 0.9448586
vt 0.7982127 0.9448586
vt 0.8097011 0.9516164
vt 0.8097011 0.9516164
vn -0.003921509 0.003921509 0.9999846
vn -0.003921509 0.003921509 0.9999846
vn -0.003921509 0.003921509 0.9999846
vn -0.003921509 0.003921509 0.9999846
vn -0.003921509 0.003921509 0.9999846
vn -0.003921509 0.003921509 0.9999846
vn -0.003921509 0.003921509 0.9999846
vn -0.003921509 0.003921509 0.9999846
vn -0.003921509 0.003921509 0.9999846
vn -0.003921509 0.003921509 0.9999846
vn -0.003921509 0.003921509 0.9999846
vn -0.003921509 0.003921509 0.9999846
vn -0.003921509 0.003921509 -0.9999846
vn -0.003921509 0.003921509 -0.9999846
vn -0.003921509 0.003921509 -0.9999846
vn -0.003921509 0.003921509 -0.9999846
vn -0.003921509 0.003921509 -0.9999846
vn -0.003921509 0.003921509 -0.9999846
vn -0.003921509 0.003921509 -0.9999846
vn -0.003921509 0.003921509 -0.9999846
vn -0.003921509 0.003921509 -0.9999846
vn -0.003921509 0.003921509 -0.9999846
vn -0.003921509 0.003921509 -0.9999846
vn -0.003921509 0.003921509 -0.9999846
vn -0.9999923 0.003921509 -0.0003449296
vn -0.9999923 0.003921509 -0.0003449296
vn -0.9999923 0.003921509 -0.0003449296
vn -0.9999923 0.003921509 -0.0003449296
vn 0.9999924 0.003921509 0
vn 0.9999924 0.003921509 0
vn 0.9999924 0.003921509 0
vn 0.9999924 0.003921509 0
vn -0.4980353 -0.8666601 -0.02934566
vn -0.4980353 -0.8666601 -0.02934566
vn -0.4980353 -0.8666601 -0.02934566
vn -0.4980353 -0.8666601 -0.02934566
vn 0.4980354 0.86666 -0.02934566
vn 0.4980354 0.86666 -0.02934566
vn 0.4980354 0.86666 -0.02934566
vn 0.4980354 0.86666 -0.02934566
vn 0.4980354 -0.8666601 -0.02934363
vn 0.4980354 -0.8666601 -0.02934363
vn 0.4980354 -0.8666601 -0.02934363
vn 0.4980354 -0.8666601 -0.02934363
vn -0.4980353 0.86666 -0.02934769
vn -0.4980353 0.86666 -0.02934769
vn -0.4980353 0.86666 -0.02934769
vn -0.4980353 0.86666 -0.02934769
vn 0.9999924 0.003921509 0
vn 0.9999924 0.003921509 0
vn 0.9999924 0.003921509 0
vn 0.9999924 0.003921509 0
vn -0.9999923 0.003921509 -0.0003449296
vn -0.9999923 0.003921509 -0.0003449296
vn -0.9999923 0.003921509 -0.0003449296
vn -0.9999923 0.003921509 -0.0003449296
vn 0.4980354 0.86666 -0.02934566
vn 0.4980354 0.86666 -0.02934566
vn 0.4980354 0.86666 -0.02934566
vn 0.4980354 0.86666 -0.02934566
vn -0.4980353 -0.8666601 -0.02934566
vn -0.4980353 -0.8666601 -0.02934566
vn -0.4980353 -0.8666601 -0.02934566
vn -0.4980353 -0.8666601 -0.02934566
vn -0.4980353 0.86666 -0.02934769
vn -0.4980353 0.86666 -0.02934769
vn -0.4980353 0.86666 -0.02934769
vn -0.4980353 0.86666 -0.02934769
vn 0.4980354 -0.8666601 -0.02934363
vn 0.4980354 -0.8666601 -0.02934363
vn 0.4980354 -0.8666601 -0.02934363
vn 0.4980354 -0.8666601 -0.02934363
g sealInnerRing_0
f 3/3/3 2/2/2 1/1/1
f 4/4/4 3/3/3 1/1/1
f 5/5/5 3/3/3 4/4/4
f 6/6/6 5/5/5 4/4/4
f 7/7/7 5/5/5 6/6/6
f 8/8/8 7/7/7 6/6/6
f 9/9/9 7/7/7 8/8/8
f 10/10/10 9/9/9 8/8/8
f 11/11/11 9/9/9 10/10/10
f 12/12/12 11/11/11 10/10/10
f 2/2/2 11/11/11 12/12/12
f 1/1/1 2/2/2 12/12/12
f 15/15/15 14/14/14 13/13/13
f 16/16/16 15/15/15 13/13/13
f 15/15/15 17/17/17 14/14/14
f 17/17/17 18/18/18 14/14/14
f 17/17/17 19/19/19 18/18/18
f 19/19/19 20/20/20 18/18/18
f 19/19/19 21/21/21 20/20/20
f 21/21/21 22/22/22 20/20/20
f 21/21/21 23/23/23 22/22/22
f 23/23/23 24/24/24 22/22/22
f 16/16/16 13/13/13 24/24/24
f 23/23/23 16/16/16 24/24/24
f 27/27/27 26/26/26 25/25/25
f 28/28/28 27/27/27 25/25/25
f 31/31/31 30/30/30 29/29/29
f 32/32/32 31/31/31 29/29/29
f 35/35/35 34/34/34 33/33/33
f 36/36/36 35/35/35 33/33/33
f 39/39/39 38/38/38 37/37/37
f 40/40/40 39/39/39 37/37/37
f 43/43/43 42/42/42 41/41/41
f 44/44/44 43/43/43 41/41/41
f 47/47/47 46/46/46 45/45/45
f 48/48/48 47/47/47 45/45/45
f 51/51/51 50/50/50 49/49/49
f 52/52/52 51/51/51 49/49/49
f 55/55/55 54/54/54 53/53/53
f 56/56/56 55/55/55 53/53/53
f 59/59/59 58/58/58 57/57/57
f 60/60/60 59/59/59 57/57/57
f 63/63/63 62/62/62 61/61/61
f 64/64/64 63/63/63 61/61/61
f 67/67/67 66/66/66 65/65/65
f 68/68/68 67/67/67 65/65/65
f 71/71/71 70/70/70 69/69/69
f 72/72/72 71/71/71 69/69/69
