g singleDoor
v -2.043309 0.01550931 0.2508998
v -2.52774 0.006905243 0.1825983
v -2.041503 0.5072694 0.2083043
v -2.52774 0.006905243 0.1825983
v -2.517702 0.6552383 0.1989567
v -2.041503 0.5072694 0.2083043
v -2.01192 1.772547 0.184829
v -2.505486 3.189723 0.1994878
v -2.468521 3.22143 -0.1638485
v -1.770794 3.196574 0.2063392
v -1.809193 3.229185 -0.1899794
v -1.809193 3.229185 -0.1899794
v -2.468521 3.22143 -0.1638485
v -1.866713 2.59328 -0.1994332
v -2.468521 3.22143 -0.1638485
v -2.514568 2.571982 -0.2027793
v -1.866713 2.59328 -0.1994332
v -2.504105 0.05794546 -0.2324686
v -2.52774 0.006905243 0.1825983
v -2.05271 0.06904578 -0.2159509
v -2.52774 0.006905243 0.1825983
v -2.043309 0.01550931 0.2508998
v -2.05271 0.06904578 -0.2159509
v -0.007011458 0.04774803 -0.2051162
v -0.00743635 0.01625288 0.1727196
v -0.01014504 0.7249738 -0.1856242
v -0.01051682 0.7427661 0.1966198
v -0.009560823 1.696756 0.1566268
v -2.52774 0.006905243 0.1825983
v -2.504105 0.05794546 -0.2324686
v -2.517702 0.6552383 0.1989567
v -2.504105 0.05794546 -0.2324686
v -2.542186 0.672765 -0.2021419
v -2.517702 0.6552383 0.1989567
v -2.514037 2.463794 0.1990629
v -2.505486 3.189723 0.1994878
v -2.00475 2.707363 0.2130844
v -1.770794 3.196574 0.2063392
v -2.01192 1.772547 0.184829
v -0.9622232 3.225307 0.2013467
v -0.5116776 2.691749 0.1978413
v -0.006214783 3.201566 0.2020903
v -2.514568 2.571982 -0.2027793
v -2.528059 1.885409 -0.2024606
v -1.866713 2.59328 -0.1994332
v -1.923596 1.804466 -0.1910416
v -2.542186 0.672765 -0.2021419
v -2.012664 0.6917259 -0.1889703
v -2.05271 0.06904578 -0.2159509
v -0.9399164 2.693554 -0.1917852
v -1.809193 3.229185 -0.1899794
v -0.8930719 1.702864 -0.1837122
v -0.8520167 0.7278949 -0.1802068
v -0.01051682 1.736218 -0.1995395
v -0.01014504 0.7249738 -0.1856242
v -2.542186 0.672765 -0.2021419
v -2.504105 0.05794546 -0.2324686
v -0.6025516 0.08869708 -0.2214745
v -2.012664 0.6917259 -0.1889703
v -0.8520167 0.7278949 -0.1802068
v -0.01014504 0.7249738 -0.1856242
v -0.007011458 0.04774803 -0.2051162
v -0.01014504 0.7249738 -0.1856242
v -0.009560823 2.701468 0.156255
v -0.006214783 3.201566 0.2020903
v -0.009454593 2.822509 -0.1556162
v -0.01030438 3.237045 -0.1999112
v -0.01051682 1.736218 -0.1995395
v -0.009560823 1.696756 0.1566268
v -0.01014504 0.7249738 -0.1856242
v -2.514037 2.463794 0.1990629
v -2.514568 2.571982 -0.2027793
v -2.505486 3.189723 0.1994878
v -2.528059 1.885409 -0.2024606
v -2.514568 2.571982 -0.2027793
v -2.468521 3.22143 -0.1638485
v -2.505486 3.189723 0.1994878
v -2.534379 1.845894 0.1985849
v -2.514037 2.463794 0.1990629
v -2.01192 1.772547 0.184829
v -2.517702 0.6552383 0.1989567
v -2.534379 1.845894 0.1985849
v -2.528059 1.885409 -0.2024606
v -2.514037 2.463794 0.1990629
v -2.542186 0.672765 -0.2021419
v -2.517702 0.6552383 0.1989567
v -2.542186 0.672765 -0.2021419
v -2.534379 1.845894 0.1985849
v -2.043309 0.01550931 0.2508998
v -2.041503 0.5072694 0.2083043
v -0.6333563 0.01789933 0.1936986
v -2.041503 0.5072694 0.2083043
v -0.4791734 0.5429072 0.1942298
v -0.6333563 0.01789933 0.1936986
v -0.00743635 0.01625288 0.1727196
v -0.01051682 0.7427661 0.1966198
v -0.4479969 1.536997 0.2018778
v -1.809193 3.229185 -0.1899794
v -0.9506449 3.248199 -0.1614054
v -1.770794 3.196574 0.2063392
v -0.9506449 3.248199 -0.1614054
v -0.9622232 3.225307 0.2013467
v -1.770794 3.196574 0.2063392
v -0.9399164 2.693554 -0.1917852
v -0.9506449 3.248199 -0.1614054
v -1.809193 3.229185 -0.1899794
v -0.009454593 2.822509 -0.1556162
v -0.01051682 1.736218 -0.1995395
v -2.043309 0.01550931 0.2508998
v -0.6333563 0.01789933 0.1936986
v -2.05271 0.06904578 -0.2159509
v -0.6333563 0.01789933 0.1936986
v -0.6025516 0.08869708 -0.2214745
v -2.05271 0.06904578 -0.2159509
v -1.6736 2.32188 0.2297614
v -0.8152635 2.377169 0.2136686
v -1.674768 1.77244 0.204799
v -0.8152635 2.377169 0.2136686
v -0.7858397 1.534978 0.2212104
v -1.674768 1.77244 0.204799
v -1.64561 0.9085805 0.2259905
v -0.7858397 1.534978 0.2212104
v -0.766082 0.842191 0.2117035
v -1.64561 0.9085805 0.2259905
v -0.9622232 3.225307 0.2013467
v -0.9506449 3.248199 -0.1614054
v -0.006214783 3.201566 0.2020903
v -0.9506449 3.248199 -0.1614054
v -0.01030438 3.237045 -0.1999112
v -0.006214783 3.201566 0.2020903
v -0.009454593 2.822509 -0.1556162
v -0.01030438 3.237045 -0.1999112
v -0.9506449 3.248199 -0.1614054
v -0.6333563 0.01789933 0.1936986
v -0.00743635 0.01625288 0.1727196
v -0.6025516 0.08869708 -0.2214745
v -0.00743635 0.01625288 0.1727196
v -0.007011458 0.04774803 -0.2051162
v -0.6025516 0.08869708 -0.2214745
v -0.006214783 3.201566 0.2020903
v -0.009560823 2.701468 0.156255
v -0.5116776 2.691749 0.1978413
v -0.4479969 1.536997 0.2018778
v -0.5116776 2.691749 0.1978413
v -0.009560823 1.696756 0.1566268
v -0.009560823 2.701468 0.156255
v -0.01051682 0.7427661 0.1966198
v -2.00475 2.707363 0.2130844
v -1.912283 2.598166 0.1106853
v -2.01192 1.772547 0.184829
v -1.912283 2.598166 0.1106853
v -1.918816 1.772759 0.08343902
v -2.01192 1.772547 0.184829
v -1.910424 0.6457844 0.1062239
v -0.5116776 2.691749 0.1978413
v -0.4479969 1.536997 0.2018778
v -0.6002146 2.567945 0.09522977
v -0.4479969 1.536997 0.2018778
v -0.5491213 1.538271 0.1003285
v -0.6002146 2.567945 0.09522977
v -0.5657984 0.6358526 0.09209621
v -2.00475 2.707363 0.2130844
v -0.5116776 2.691749 0.1978413
v -1.912283 2.598166 0.1106853
v -0.5116776 2.691749 0.1978413
v -0.6002146 2.567945 0.09522977
v -1.912283 2.598166 0.1106853
v -2.041503 0.5072694 0.2083043
v -2.01192 1.772547 0.184829
v -1.910424 0.6457844 0.1062239
v -2.041503 0.5072694 0.2083043
v -1.910424 0.6457844 0.1062239
v -0.4791734 0.5429072 0.1942298
v -1.910424 0.6457844 0.1062239
v -0.5657984 0.6358526 0.09209621
v -0.4791734 0.5429072 0.1942298
v -0.4791734 0.5429072 0.1942298
v -0.5657984 0.6358526 0.09209621
v -0.4479969 1.536997 0.2018778
v -1.912283 2.598166 0.1106853
v -1.772387 2.451578 0.1092512
v -1.918816 1.772759 0.08343902
v -1.772387 2.451578 0.1092512
v -1.777805 1.772759 0.08359835
v -1.918816 1.772759 0.08343902
v -1.912283 2.598166 0.1106853
v -0.6002146 2.567945 0.09522977
v -0.73464 2.461298 0.09337088
v -0.5491213 1.538271 0.1003285
v -0.6901857 1.536147 0.100116
v -0.7042071 0.7778729 0.09103397
v -0.5657984 0.6358526 0.09209621
v -1.910424 0.6457844 0.1062239
v -1.770475 0.7857865 0.1052679
v -1.918816 1.772759 0.08343902
v -1.777805 1.772759 0.08359835
v -0.6002146 2.567945 0.09522977
v -0.5491213 1.538271 0.1003285
v -0.73464 2.461298 0.09337088
v -1.772387 2.451578 0.1092512
v -1.6736 2.32188 0.2297614
v -1.777805 1.772759 0.08359835
v -1.6736 2.32188 0.2297614
v -1.674768 1.77244 0.204799
v -1.777805 1.772759 0.08359835
v -1.64561 0.9085805 0.2259905
v -0.73464 2.461298 0.09337088
v -0.6901857 1.536147 0.100116
v -0.8152635 2.377169 0.2136686
v -0.6901857 1.536147 0.100116
v -0.7858397 1.534978 0.2212104
v -0.8152635 2.377169 0.2136686
v -0.766082 0.842191 0.2117035
v -0.73464 2.461298 0.09337088
v -0.8152635 2.377169 0.2136686
v -1.772387 2.451578 0.1092512
v -0.8152635 2.377169 0.2136686
v -1.6736 2.32188 0.2297614
v -1.772387 2.451578 0.1092512
v -1.770475 0.7857865 0.1052679
v -1.777805 1.772759 0.08359835
v -1.64561 0.9085805 0.2259905
v -0.7042071 0.7778729 0.09103397
v -1.770475 0.7857865 0.1052679
v -0.766082 0.842191 0.2117035
v -1.770475 0.7857865 0.1052679
v -1.64561 0.9085805 0.2259905
v -0.766082 0.842191 0.2117035
v -0.7042071 0.7778729 0.09103397
v -0.766082 0.842191 0.2117035
v -0.6901857 1.536147 0.100116
vt 0.2981873 0.653451
vt 0.2870853 0.653451
vt 0.2990413 0.6654069
vt 0.2870853 0.653451
vt 0.2879393 0.667115
vt 0.2990413 0.6654069
vt 0.2981873 0.6918809
vt 0.2879393 0.7226249
vt 0.2887933 0.7234789
vt 0.3041653 0.7226249
vt 0.3033113 0.7234789
vt 0.3033113 0.7234789
vt 0.2887933 0.7234789
vt 0.3016033 0.708961
vt 0.2887933 0.7234789
vt 0.2879393 0.708961
vt 0.3016033 0.708961
vt 0.2879393 0.654305
vt 0.2870853 0.653451
vt 0.2973333 0.654305
vt 0.2870853 0.653451
vt 0.2981873 0.653451
vt 0.2973333 0.654305
vt 0.3417413 0.654305
vt 0.3417413 0.653451
vt 0.3417413 0.668823
vt 0.3417413 0.668823
vt 0.3417413 0.6901729
vt 0.2870853 0.653451
vt 0.2879393 0.654305
vt 0.2879393 0.667115
vt 0.2879393 0.654305
vt 0.2870853 0.667969
vt 0.2879393 0.667115
vt 0.2879393 0.706399
vt 0.2879393 0.7226249
vt 0.2990413 0.7115229
vt 0.3041653 0.7226249
vt 0.2981873 0.6918809
vt 0.3212453 0.7226249
vt 0.3314933 0.7115229
vt 0.3417413 0.7226249
vt 0.2879393 0.708961
vt 0.2870853 0.693589
vt 0.3016033 0.708961
vt 0.3007493 0.6918809
vt 0.2870853 0.667969
vt 0.2981873 0.667969
vt 0.2973333 0.654305
vt 0.3220993 0.7115229
vt 0.3033113 0.7234789
vt 0.3229533 0.6901729
vt 0.3238073 0.668823
vt 0.3417413 0.6910269
vt 0.3417413 0.668823
vt 0.2870853 0.667969
vt 0.2879393 0.654305
vt 0.3289313 0.655159
vt 0.2981873 0.667969
vt 0.3238073 0.668823
vt 0.3417413 0.668823
vt 0.3417413 0.654305
vt 0.3417413 0.668823
vt 0.3417413 0.7115229
vt 0.3417413 0.7226249
vt 0.3417413 0.7140849
vt 0.3417413 0.7234789
vt 0.3417413 0.6910269
vt 0.3417413 0.6901729
vt 0.3417413 0.668823
vt 0.2879393 0.706399
vt 0.2879393 0.708961
vt 0.2879393 0.7226249
vt 0.2870853 0.693589
vt 0.2879393 0.708961
vt 0.2887933 0.7234789
vt 0.2879393 0.7226249
vt 0.2870853 0.692735
vt 0.2879393 0.706399
vt 0.2981873 0.6918809
vt 0.2879393 0.667115
vt 0.2870853 0.692735
vt 0.2870853 0.693589
vt 0.2879393 0.706399
vt 0.2870853 0.667969
vt 0.2879393 0.667115
vt 0.2870853 0.667969
vt 0.2870853 0.692735
vt 0.2981873 0.653451
vt 0.2990413 0.6654069
vt 0.3280773 0.653451
vt 0.2990413 0.6654069
vt 0.3314933 0.664553
vt 0.3280773 0.653451
vt 0.3417413 0.653451
vt 0.3417413 0.668823
vt 0.3323472 0.686757
vt 0.3033113 0.7234789
vt 0.3212453 0.7234789
vt 0.3041653 0.7226249
vt 0.3212453 0.7234789
vt 0.3212453 0.7226249
vt 0.3041653 0.7226249
vt 0.3220993 0.7115229
vt 0.3212453 0.7234789
vt 0.3033113 0.7234789
vt 0.3417413 0.7140849
vt 0.3417413 0.6910269
vt 0.2981873 0.653451
vt 0.3280773 0.653451
vt 0.2973333 0.654305
vt 0.3280773 0.653451
vt 0.3289313 0.655159
vt 0.2973333 0.654305
vt 0.3280773 0.660283
vt 0.2998953 0.660283
vt 0.3280773 0.679925
vt 0.2998953 0.660283
vt 0.2990413 0.686757
vt 0.3280773 0.679925
vt 0.3280773 0.7081069
vt 0.2990413 0.686757
vt 0.2990413 0.7081069
vt 0.3280773 0.7081069
vt 0.3212453 0.7226249
vt 0.3212453 0.7234789
vt 0.3417413 0.7226249
vt 0.3212453 0.7234789
vt 0.3417413 0.7234789
vt 0.3417413 0.7226249
vt 0.3417413 0.7140849
vt 0.3417413 0.7234789
vt 0.3212453 0.7234789
vt 0.3280773 0.653451
vt 0.3417413 0.653451
vt 0.3289313 0.655159
vt 0.3417413 0.653451
vt 0.3417413 0.654305
vt 0.3289313 0.655159
vt 0.3417413 0.7226249
vt 0.3417413 0.7115229
vt 0.3314933 0.7115229
vt 0.3323472 0.686757
vt 0.3314933 0.7115229
vt 0.3417413 0.6901729
vt 0.3417413 0.7115229
vt 0.3417413 0.668823
vt 0.2990413 0.7115229
vt 0.3007493 0.7098149
vt 0.2981873 0.6918809
vt 0.3007493 0.7098149
vt 0.3007493 0.6918809
vt 0.2981873 0.6918809
vt 0.3007493 0.667115
vt 0.3314933 0.7115229
vt 0.3323472 0.686757
vt 0.3289313 0.7098149
vt 0.3323472 0.686757
vt 0.3306392 0.686757
vt 0.3289313 0.7098149
vt 0.3297853 0.667115
vt 0.2990413 0.7115229
vt 0.3314933 0.7115229
vt 0.3007493 0.7098149
vt 0.3314933 0.7115229
vt 0.3289313 0.7098149
vt 0.3007493 0.7098149
vt 0.2990413 0.6654069
vt 0.2981873 0.6918809
vt 0.3007493 0.667115
vt 0.2990413 0.6654069
vt 0.3007493 0.667115
vt 0.3314933 0.664553
vt 0.3007493 0.667115
vt 0.3297853 0.667115
vt 0.3314933 0.664553
vt 0.3314933 0.664553
vt 0.3297853 0.667115
vt 0.3323472 0.686757
vt 0.3050193 0.6850489
vt 0.3041653 0.685903
vt 0.3050193 0.6901729
vt 0.3041653 0.685903
vt 0.3041653 0.6901729
vt 0.3050193 0.6901729
vt 0.3050193 0.6850489
vt 0.2964793 0.6850489
vt 0.2973333 0.685903
vt 0.2964793 0.6918809
vt 0.2973333 0.6918809
vt 0.2973333 0.6970049
vt 0.2964793 0.6978589
vt 0.3050193 0.6978589
vt 0.3041653 0.6970049
vt 0.3050193 0.6901729
vt 0.3041653 0.6901729
vt 0.2964793 0.6850489
vt 0.2964793 0.6918809
vt 0.2973333 0.685903
vt 0.3297853 0.6585749
vt 0.3280773 0.660283
vt 0.3306392 0.679925
vt 0.3280773 0.660283
vt 0.3280773 0.679925
vt 0.3306392 0.679925
vt 0.3280773 0.7081069
vt 0.2981873 0.6585749
vt 0.2964793 0.686757
vt 0.2998953 0.660283
vt 0.2964793 0.686757
vt 0.2990413 0.686757
vt 0.2998953 0.660283
vt 0.2990413 0.7081069
vt 0.2981873 0.6585749
vt 0.2998953 0.660283
vt 0.3297853 0.6585749
vt 0.2998953 0.660283
vt 0.3280773 0.660283
vt 0.3297853 0.6585749
vt 0.3297853 0.7098149
vt 0.3306392 0.679925
vt 0.3280773 0.7081069
vt 0.2973333 0.7106689
vt 0.3297853 0.7098149
vt 0.2990413 0.7081069
vt 0.3297853 0.7098149
vt 0.3280773 0.7081069
vt 0.2990413 0.7081069
vt 0.2973333 0.7106689
vt 0.2990413 0.7081069
vt 0.2964793 0.686757
vn -0.1372126 0.08231306 0.9871156
vn -0.1372126 0.08231306 0.9871156
vn -0.1372126 0.08231306 0.9871156
vn -0.02741361 -0.02748603 0.9992462
vn -0.02741361 -0.02748603 0.9992462
vn -0.02741361 -0.02748603 0.9992462
vn -0.01172793 0.01957071 0.9997396
vn -0.01172793 0.99992 0.004734063
vn -0.01172793 0.99992 0.004734063
vn -0.01172793 0.99992 0.004734063
vn -0.01172793 0.99992 0.004734063
vn -0.04309916 0.01957071 -0.9988791
vn -0.04309916 0.01957071 -0.9988791
vn -0.04309916 0.01957071 -0.9988791
vn 0.003957629 0.05878472 -0.9982628
vn 0.003957629 0.05878472 -0.9982628
vn 0.003957629 0.05878472 -0.9982628
vn 0.02748603 -0.9921497 -0.1219978
vn 0.02748603 -0.9921497 -0.1219978
vn 0.02748603 -0.9921497 -0.1219978
vn 0.03532881 -0.9921497 -0.1199618
vn 0.03532881 -0.9921497 -0.1199618
vn 0.03532881 -0.9921497 -0.1199618
vn 0.9999925 0.00388515 0
vn 0.9999925 0.00388515 0
vn 0.9999925 0.00388515 0
vn 0.9999925 0.00388515 0
vn 0.9999923 -0.003957628 0
vn -0.9998085 0.01956853 0
vn -0.9998085 0.01956853 0
vn -0.9998085 0.01956853 0
vn -0.9977826 -0.06655741 0
vn -0.9977826 -0.06655741 0
vn -0.9977826 -0.06655741 0
vn -0.02741361 -0.003957629 0.9996163
vn -0.02741361 -0.003957629 0.9996163
vn -0.02741361 -0.003957629 0.9996163
vn -0.01172793 0.01957071 0.9997396
vn -0.01172793 -0.02748603 0.9995534
vn 0.003957629 0.01172793 0.9999233
vn 0.01180041 0.00388515 0.9999228
vn -0.00388515 -0.003957629 0.9999846
vn 0.003957629 -0.003957629 -0.9999843
vn 0.003957629 -0.003957629 -0.9999843
vn 0.003957629 -0.003957629 -0.9999843
vn 0.01964319 -0.01180041 -0.9997374
vn 0.01964319 -0.003957629 -0.9997992
vn 0.02748603 -0.003957629 -0.9996144
vn 0.01964319 0.04309916 -0.9988776
vn 0.003957629 0.01172793 -0.9999233
vn 0.003957629 0.01172793 -0.9999233
vn 0.003957629 -0.01180041 -0.9999225
vn 0.003957629 -0.003957629 -0.9999843
vn -0.01957071 -0.01180041 -0.9997388
vn -0.00388515 -0.003957629 -0.9999846
vn 0.03532881 0.05094194 -0.9980766
vn 0.03532881 0.05094194 -0.9980766
vn -0.00388515 0.04309916 -0.9990633
vn -0.00388515 0.04309916 -0.9990633
vn 0.003957629 0.0666275 -0.9977701
vn -0.00388515 0.05878472 -0.9982631
vn 0.02748603 0.02741361 -0.9992462
vn 0.02748603 0.02741361 -0.9992462
vn 0.9999923 -0.003957628 0
vn 0.9999923 -0.003957628 0
vn 0.9999923 -0.003957628 0
vn 0.9999925 0.00388515 0
vn 0.9999925 0.00388515 0
vn 0.9999925 0.00388515 0
vn 0.9999925 0.00388515 0
vn -0.99992 0.01172793 0.004736512
vn -0.99992 0.01172793 0.004736512
vn -0.99992 0.01172793 0.004736512
vn -0.9998085 0.01956853 0
vn -0.9920772 0.07447028 -0.1011778
vn -0.9920772 0.07447028 -0.1011778
vn -0.9920772 0.07447028 -0.1011778
vn 0.02748603 -0.003957629 0.9996144
vn 0.02748603 -0.003957629 0.9996144
vn 0.02748603 -0.003957629 0.9996144
vn 0.02748603 0.00388515 0.9996147
vn -0.999379 0.03523731 0
vn -0.999379 0.03523731 0
vn -0.999379 0.03523731 0
vn -0.99992 0.01172793 -0.004736512
vn -0.99992 -0.01180041 0.004552937
vn -0.99992 -0.01180041 0.004552937
vn -0.99992 -0.01180041 0.004552937
vn 0.04317158 0.08231306 0.995671
vn 0.04317158 0.08231306 0.995671
vn 0.04317158 0.08231306 0.995671
vn 0.01180041 -0.003957629 0.9999225
vn 0.01180041 -0.003957629 0.9999225
vn 0.01180041 -0.003957629 0.9999225
vn 0.03532881 -0.01180041 0.9993061
vn 0.01180041 -0.03532881 0.9993061
vn -0.00388515 -0.003957629 0.9999846
vn -0.0274055 0.9996243 0
vn -0.0274055 0.9996243 0
vn -0.0274055 0.9996243 0
vn -0.03523731 0.999379 0
vn -0.03523731 0.999379 0
vn -0.03523731 0.999379 0
vn 0.03532881 0.05878472 -0.9976453
vn 0.03532881 0.05878472 -0.9976453
vn 0.03532881 0.05878472 -0.9976453
vn 0.02748603 0.05878472 -0.9978922
vn 0.03532881 0.04309916 -0.998446
vn -0.00388515 -0.9921497 -0.1249955
vn -0.00388515 -0.9921497 -0.1249955
vn -0.00388515 -0.9921497 -0.1249955
vn 0.01180041 -0.9843069 -0.1760699
vn 0.01180041 -0.9843069 -0.1760699
vn 0.01180041 -0.9843069 -0.1760699
vn 0.01964319 -0.04317158 0.9988745
vn 0.01964319 -0.04317158 0.9988745
vn 0.01964319 -0.04317158 0.9988745
vn -0.01957071 0.01172793 0.9997396
vn -0.01957071 0.01172793 0.9997396
vn -0.01957071 0.01172793 0.9997396
vn -0.01172793 0.02741361 0.9995553
vn 0.01180041 -0.01180041 0.9998608
vn 0.01180041 -0.01180041 0.9998608
vn 0.01180041 -0.01180041 0.9998608
vn 0.02747785 0.9996224 0
vn 0.02747785 0.9996224 0
vn 0.02747785 0.9996224 0
vn 0.01180041 0.99992 0.004554384
vn 0.01180041 0.99992 0.004554384
vn 0.01180041 0.99992 0.004554384
vn -0.04309916 -0.1059139 -0.9934409
vn -0.04309916 -0.1059139 -0.9934409
vn -0.04309916 -0.1059139 -0.9934409
vn -0.01172793 -0.9843069 -0.1760747
vn -0.01172793 -0.9843069 -0.1760747
vn -0.01172793 -0.9843069 -0.1760747
vn -0.0666275 -0.9921497 -0.1058287
vn -0.0666275 -0.9921497 -0.1058287
vn -0.0666275 -0.9921497 -0.1058287
vn 0.08238554 -0.09022838 0.9925077
vn 0.08238554 -0.09022838 0.9925077
vn 0.08238554 -0.09022838 0.9925077
vn 0.09807116 0.01172793 0.9951103
vn 0.09807116 0.01172793 0.9951103
vn 0.09807116 0.01172793 0.9951103
vn 0.08238554 0.00388515 0.996593
vn 0.09022838 0.04309916 0.9949881
vn 0.7254947 -0.02748603 0.6876787
vn 0.7254947 -0.02748603 0.6876787
vn 0.7254947 -0.02748603 0.6876787
vn 0.7333375 -0.02748603 0.6793089
vn 0.7333375 -0.02748603 0.6793089
vn 0.7333375 -0.02748603 0.6793089
vn 0.7333375 0.01957071 0.679583
vn -0.733265 -0.03532881 0.6790245
vn -0.733265 -0.03532881 0.6790245
vn -0.733265 -0.03532881 0.6790245
vn -0.7097366 -0.03532881 0.7035807
vn -0.7097366 -0.03532881 0.7035807
vn -0.7097366 -0.03532881 0.7035807
vn -0.7097366 0.00388515 0.7044564
vn 0.003957629 -0.6862807 0.727326
vn 0.003957629 -0.6862807 0.727326
vn 0.003957629 -0.6862807 0.727326
vn -0.00388515 -0.6392239 0.7690108
vn -0.00388515 -0.6392239 0.7690108
vn -0.00388515 -0.6392239 0.7690108
vn 0.6156956 0.00388515 0.7879745
vn 0.6156956 0.00388515 0.7879745
vn 0.6156956 0.00388515 0.7879745
vn -0.00388515 0.5999376 0.8000374
vn -0.00388515 0.5999376 0.8000374
vn -0.00388515 0.5999376 0.8000374
vn 0.01180041 0.7411078 0.6712823
vn 0.01180041 0.7411078 0.6712823
vn 0.01180041 0.7411078 0.6712823
vn -0.7567934 0.01957071 0.6533611
vn -0.7567934 0.01957071 0.6533611
vn -0.7567934 0.01957071 0.6533611
vn -0.02741361 -0.03532881 0.9989997
vn -0.02741361 -0.03532881 0.9989997
vn -0.02741361 -0.03532881 0.9989997
vn -0.00388515 -0.03532881 0.9993682
vn -0.00388515 -0.03532881 0.9993682
vn -0.00388515 -0.03532881 0.9993682
vn 0.01180041 0.00388515 0.9999228
vn 0.01180041 0.00388515 0.9999228
vn -0.00388515 0.00388515 0.9999849
vn -0.00388515 0.00388515 0.9999849
vn -0.00388515 0.00388515 0.9999849
vn 0.01180041 0.01957071 0.9997388
vn 0.01180041 0.01957071 0.9997388
vn -0.01172793 0.01957071 0.9997396
vn -0.01172793 0.01957071 0.9997396
vn -0.01172793 0.01957071 0.9997396
vn -0.00388515 0.01957071 0.9998009
vn -0.01957071 0.00388515 0.9998009
vn -0.01957071 0.00388515 0.9998009
vn -0.01957071 0.00388515 0.9998009
vn -0.7803218 -0.01964319 0.6250696
vn -0.7803218 -0.01964319 0.6250696
vn -0.7803218 -0.01964319 0.6250696
vn -0.7646362 -0.02748603 0.6438758
vn -0.7646362 -0.02748603 0.6438758
vn -0.7646362 -0.02748603 0.6438758
vn -0.7646362 -0.01180041 0.6443542
vn 0.8196082 0.04309916 0.571301
vn 0.8196082 0.04309916 0.571301
vn 0.8196082 0.04309916 0.571301
vn 0.7803943 0.03525639 0.624293
vn 0.7803943 0.03525639 0.624293
vn 0.7803943 0.03525639 0.624293
vn 0.788237 0.01172793 0.61526
vn 0.003957629 0.8195357 0.5730144
vn 0.003957629 0.8195357 0.5730144
vn 0.003957629 0.8195357 0.5730144
vn -0.02741361 0.6705227 0.7413824
vn -0.02741361 0.6705227 0.7413824
vn -0.02741361 0.6705227 0.7413824
vn -0.7018938 0.01172793 0.712185
vn -0.7018938 0.01172793 0.712185
vn -0.7018938 0.01172793 0.712185
vn -0.00388515 -0.8823506 0.4705767
vn -0.00388515 -0.8823506 0.4705767
vn -0.00388515 -0.8823506 0.4705767
vn -0.04309916 -0.6784379 0.7333924
vn -0.04309916 -0.6784379 0.7333924
vn -0.04309916 -0.6784379 0.7333924
vn 0.8823506 -0.01964319 0.4701825
vn 0.8823506 -0.01964319 0.4701825
vn 0.8823506 -0.01964319 0.4701825
g singleDoor_0
f 3/3/3 2/2/2 1/1/1
f 6/6/6 5/5/5 4/4/4
f 7/7/7 5/5/5 6/6/6
f 10/10/10 9/9/9 8/8/8
f 10/10/10 11/11/11 9/9/9
f 14/14/14 13/13/13 12/12/12
f 17/17/17 16/16/16 15/15/15
f 20/20/20 19/19/19 18/18/18
f 23/23/23 22/22/22 21/21/21
f 26/26/26 25/25/25 24/24/24
f 26/26/26 27/27/27 25/25/25
f 26/26/26 28/28/28 27/27/27
f 31/31/31 30/30/30 29/29/29
f 34/34/34 33/33/33 32/32/32
f 37/37/37 36/36/36 35/35/35
f 37/37/37 38/38/38 36/36/36
f 39/39/39 37/37/37 35/35/35
f 37/37/37 40/40/40 38/38/38
f 37/37/37 41/41/41 40/40/40
f 41/41/41 42/42/42 40/40/40
f 45/45/45 44/44/44 43/43/43
f 45/45/45 46/46/46 44/44/44
f 46/46/46 47/47/47 44/44/44
f 46/46/46 48/48/48 47/47/47
f 49/49/49 47/47/47 48/48/48
f 50/50/50 46/46/46 45/45/45
f 51/51/51 50/50/50 45/45/45
f 50/50/50 52/52/52 46/46/46
f 52/52/52 48/48/48 46/46/46
f 52/52/52 53/53/53 48/48/48
f 50/50/50 54/54/54 52/52/52
f 52/52/52 55/55/55 53/53/53
f 52/52/52 54/54/54 55/55/55
f 49/49/49 57/57/57 56/56/56
f 59/59/59 58/58/58 49/49/49
f 59/59/59 60/60/60 58/58/58
f 61/61/61 58/58/58 60/60/60
f 63/63/63 62/62/62 58/58/58
f 66/66/66 65/65/65 64/64/64
f 66/66/66 67/67/67 65/65/65
f 68/68/68 66/66/66 64/64/64
f 68/68/68 64/64/64 69/69/69
f 70/70/70 68/68/68 69/69/69
f 73/73/73 72/72/72 71/71/71
f 71/71/71 72/72/72 74/74/74
f 77/77/77 76/76/76 75/75/75
f 80/80/80 79/79/79 78/78/78
f 80/80/80 78/78/78 81/81/81
f 84/84/84 83/83/83 82/82/82
f 82/82/82 83/83/83 85/85/85
f 88/88/88 87/87/87 86/86/86
f 91/91/91 90/90/90 89/89/89
f 94/94/94 93/93/93 92/92/92
f 95/95/95 93/93/93 94/94/94
f 95/95/95 96/96/96 93/93/93
f 96/96/96 97/97/97 93/93/93
f 100/100/100 99/99/99 98/98/98
f 103/103/103 102/102/102 101/101/101
f 106/106/106 105/105/105 104/104/104
f 105/105/105 107/107/107 104/104/104
f 104/104/104 107/107/107 108/108/108
f 111/111/111 110/110/110 109/109/109
f 114/114/114 113/113/113 112/112/112
f 117/117/117 116/116/116 115/115/115
f 120/120/120 119/119/119 118/118/118
f 121/121/121 119/119/119 120/120/120
f 124/124/124 123/123/123 122/122/122
f 127/127/127 126/126/126 125/125/125
f 130/130/130 129/129/129 128/128/128
f 133/133/133 132/132/132 131/131/131
f 136/136/136 135/135/135 134/134/134
f 139/139/139 138/138/138 137/137/137
f 142/142/142 141/141/141 140/140/140
f 145/145/145 144/144/144 143/143/143
f 145/145/145 146/146/146 144/144/144
f 147/147/147 145/145/145 143/143/143
f 150/150/150 149/149/149 148/148/148
f 153/153/153 152/152/152 151/151/151
f 154/154/154 152/152/152 153/153/153
f 157/157/157 156/156/156 155/155/155
f 160/160/160 159/159/159 158/158/158
f 158/158/158 159/159/159 161/161/161
f 164/164/164 163/163/163 162/162/162
f 167/167/167 166/166/166 165/165/165
f 170/170/170 169/169/169 168/168/168
f 173/173/173 172/172/172 171/171/171
f 176/176/176 175/175/175 174/174/174
f 179/179/179 178/178/178 177/177/177
f 182/182/182 181/181/181 180/180/180
f 185/185/185 184/184/184 183/183/183
f 183/183/183 187/187/187 186/186/186
f 183/183/183 188/188/188 187/187/187
f 188/188/188 190/190/190 189/189/189
f 189/189/189 190/190/190 191/191/191
f 189/189/189 191/191/191 192/192/192
f 191/191/191 193/193/193 192/192/192
f 191/191/191 194/194/194 193/193/193
f 194/194/194 195/195/195 193/193/193
f 194/194/194 196/196/196 195/195/195
f 199/199/199 198/198/198 197/197/197
f 202/202/202 201/201/201 200/200/200
f 205/205/205 204/204/204 203/203/203
f 206/206/206 204/204/204 205/205/205
f 209/209/209 208/208/208 207/207/207
f 212/212/212 211/211/211 210/210/210
f 210/210/210 211/211/211 213/213/213
f 216/216/216 215/215/215 214/214/214
f 219/219/219 218/218/218 217/217/217
f 222/222/222 221/221/221 220/220/220
f 225/225/225 224/224/224 223/223/223
f 228/228/228 227/227/227 226/226/226
f 231/231/231 230/230/230 229/229/229
