g swampWater2
v -36.05994 0.4337959 -16.31417
v -36.05994 0.4337959 -26.29186
v -27.04612 0.4337959 -26.29186
v -27.04612 0.4337959 -16.31417
v -36.05994 0.4337959 -6.335369
v -27.04612 0.4337959 -6.335369
v -36.05994 0.4337959 3.64233
v -27.04612 0.4337959 3.64233
v -36.05994 0.4337959 13.62112
v -27.04612 0.4337959 13.62112
v -18.03231 0.4337959 3.64233
v -18.03231 0.4337959 13.62112
v -9.01849 0.4337959 3.64233
v -9.01849 0.4337959 13.62112
v -18.03231 0.4337959 -6.335369
v -9.01849 0.4337959 -6.335369
v -18.03231 0.4337959 -16.31417
v -9.01849 0.4337959 -16.31417
v -18.03231 0.4337959 -26.29186
v -9.01849 0.4337959 -26.29186
v -0.004673004 0.4337959 3.64233
v -0.004673004 0.4337959 13.62112
v 9.008045 0.4337959 3.64233
v 9.008045 0.4337959 -6.335369
v -0.004673004 0.4337959 -6.335369
v 9.008045 0.4337959 13.62112
v 9.008045 0.4337959 -16.31417
v -0.004673004 0.4337959 -16.31417
v 9.008045 0.4337959 -26.29186
v -0.004673004 0.4337959 -26.29186
v 18.02186 0.4337959 3.64233
v 18.02186 0.4337959 13.62112
v 27.03568 0.4337959 3.64233
v 27.03568 0.4337959 13.62112
v 18.02186 0.4337959 -6.335369
v 27.03568 0.4337959 -6.335369
v 18.02186 0.4337959 -16.31417
v 27.03568 0.4337959 -16.31417
v 18.02186 0.4337959 -26.29186
v 27.03568 0.4337959 -26.29186
v 36.0495 0.4337959 3.64233
v 36.0495 0.4337959 13.62112
v 36.0495 0.4337959 -6.335369
v 36.0495 0.4337959 -16.31417
v 36.0495 0.4337959 -26.29186
vt -0.3987539 0.7489464
vt -0.3987539 0.9974538
vt -0.1739557 0.9974538
vt -0.1739557 0.7489464
vt -0.3987539 0.500439
vt -0.1739557 0.500439
vt -0.3987539 0.2510535
vt -0.1739557 0.2510535
vt -0.3987539 0.002546072
vt -0.1739557 0.002546072
vt 0.05084255 0.2510535
vt 0.05084255 0.002546072
vt 0.2756408 0.2510535
vt 0.2756408 0.002546072
vt 0.05084255 0.500439
vt 0.2756408 0.500439
vt 0.05084255 0.7489464
vt 0.2756408 0.7489464
vt 0.05084255 0.9974538
vt 0.2756408 0.9974538
vt 0.500439 0.2510535
vt 0.500439 0.002546072
vt 0.724359 0.2510535
vt 0.724359 0.500439
vt 0.500439 0.500439
vt 0.724359 0.002546072
vt 0.724359 0.7489464
vt 0.500439 0.7489464
vt 0.724359 0.9974538
vt 0.500439 0.9974538
vt 0.9491572 0.2510535
vt 0.9491572 0.002546072
vt 1.173956 0.2510535
vt 1.173956 0.002546072
vt 0.9491572 0.500439
vt 1.173956 0.500439
vt 0.9491572 0.7489464
vt 1.173956 0.7489464
vt 0.9491572 0.9974538
vt 1.173956 0.9974538
vt 1.398754 0.2510535
vt 1.398754 0.002546072
vt 1.398754 0.500439
vt 1.398754 0.7489464
vt 1.398754 0.9974538
vn 0 1 0
vn 0 1 0
vn 0 1 0
vn 0 1 0
vn 0 1 0
vn 0 1 0
vn 0 1 0
vn 0 1 0
vn 0 1 0
vn 0 1 0
vn 0 1 0
vn 0 1 0
vn 0 1 0
vn 0 1 0
vn 0 1 0
vn 0 1 0
vn 0 1 0
vn 0 1 0
vn 0 1 0
vn 0 1 0
vn 0 1 0
vn 0 1 0
vn 0 1 0
vn 0 1 0
vn 0 1 0
vn 0 1 0
vn 0 1 0
vn 0 1 0
vn 0 1 0
vn 0 1 0
vn 0 1 0
vn 0 1 0
vn 0 1 0
vn 0 1 0
vn 0 1 0
vn 0 1 0
vn 0 1 0
vn 0 1 0
vn 0 1 0
vn 0 1 0
vn 0 1 0
vn 0 1 0
vn 0 1 0
vn 0 1 0
vn 0 1 0
g swampWater2_0
f 3/3/3 2/2/2 1/1/1
f 4/4/4 3/3/3 1/1/1
f 4/4/4 1/1/1 5/5/5
f 6/6/6 4/4/4 5/5/5
f 6/6/6 5/5/5 7/7/7
f 8/8/8 6/6/6 7/7/7
f 8/8/8 7/7/7 9/9/9
f 10/10/10 8/8/8 9/9/9
f 11/11/11 8/8/8 10/10/10
f 8/8/8 11/11/11 6/6/6
f 12/12/12 11/11/11 10/10/10
f 13/13/13 11/11/11 12/12/12
f 14/14/14 13/13/13 12/12/12
f 11/11/11 13/13/13 15/15/15
f 11/11/11 15/15/15 6/6/6
f 6/6/6 15/15/15 4/4/4
f 13/13/13 16/16/16 15/15/15
f 15/15/15 16/16/16 17/17/17
f 15/15/15 17/17/17 4/4/4
f 4/4/4 17/17/17 3/3/3
f 16/16/16 18/18/18 17/17/17
f 17/17/17 18/18/18 19/19/19
f 18/18/18 20/20/20 19/19/19
f 21/21/21 13/13/13 14/14/14
f 13/13/13 21/21/21 16/16/16
f 22/22/22 21/21/21 14/14/14
f 23/23/23 21/21/21 22/22/22
f 23/23/23 24/24/24 21/21/21
f 24/24/24 25/25/25 21/21/21
f 21/21/21 25/25/25 16/16/16
f 16/16/16 25/25/25 18/18/18
f 26/26/26 23/23/23 22/22/22
f 24/24/24 27/27/27 25/25/25
f 27/27/27 28/28/28 25/25/25
f 25/25/25 28/28/28 18/18/18
f 18/18/18 28/28/28 20/20/20
f 27/27/27 29/29/29 28/28/28
f 29/29/29 30/30/30 28/28/28
f 28/28/28 30/30/30 20/20/20
f 31/31/31 23/23/23 26/26/26
f 23/23/23 31/31/31 24/24/24
f 32/32/32 31/31/31 26/26/26
f 33/33/33 31/31/31 32/32/32
f 34/34/34 33/33/33 32/32/32
f 31/31/31 33/33/33 35/35/35
f 31/31/31 35/35/35 24/24/24
f 24/24/24 35/35/35 27/27/27
f 33/33/33 36/36/36 35/35/35
f 35/35/35 36/36/36 37/37/37
f 35/35/35 37/37/37 27/27/27
f 27/27/27 37/37/37 29/29/29
f 36/36/36 38/38/38 37/37/37
f 37/37/37 38/38/38 39/39/39
f 37/37/37 39/39/39 29/29/29
f 38/38/38 40/40/40 39/39/39
f 41/41/41 33/33/33 34/34/34
f 33/33/33 41/41/41 36/36/36
f 42/42/42 41/41/41 34/34/34
f 41/41/41 43/43/43 36/36/36
f 36/36/36 43/43/43 38/38/38
f 43/43/43 44/44/44 38/38/38
f 38/38/38 44/44/44 40/40/40
f 44/44/44 45/45/45 40/40/40
f 17/17/17 19/19/19 3/3/3
