g townBaseDioBG
v 28.84319 -2.285814 -12.43519
v 22.07566 -2.285814 -22.56345
v 22.07566 11.10906 -22.56345
v 28.84319 11.10906 -12.43519
v 11.94741 11.10906 -29.33098
v 11.94741 -2.285814 -29.33098
v -0.0004348755 11.10906 -31.70749
v -0.0004348755 -2.285814 -31.70749
v -11.94732 11.10906 -29.33098
v -11.94732 -2.285814 -29.33098
v -22.07557 11.10906 -22.56345
v -22.07557 -2.285814 -22.56345
v -28.84311 11.10906 -12.43519
v -28.84311 -2.285814 -12.43519
v -31.21962 11.10906 -0.4883099
v -31.21962 -2.285814 -0.4883099
v -30.99013 11.10906 11.45953
v -30.99013 -2.285814 11.45953
v 31.2197 -2.285814 -0.4883099
v 31.2197 11.10906 -0.4883099
v 30.99022 -2.285814 11.45953
v 30.99022 11.10906 11.45953
vt 0.2006711 0.01887794
vt 0.2998309 0.01887794
vt 0.2998309 0.9822843
vt 0.2006711 0.9822843
vt 0.3989908 0.9822843
vt 0.3989908 0.01887794
vt 0.4981507 0.9822843
vt 0.4981507 0.01887794
vt 0.5982828 0.9822843
vt 0.5982828 0.01887794
vt 0.6974427 0.9822843
vt 0.6974427 0.01887794
vt 0.7966025 0.9822843
vt 0.7966025 0.01887794
vt 0.8967346 0.9822843
vt 0.8967346 0.01887794
vt 0.9958945 0.9822843
vt 0.9958945 0.01887794
vt 0.100539 0.01887794
vt 0.100539 0.9822843
vt 0.001379132 0.01887794
vt 0.001379132 0.9822843
vn -0.9213991 0.003920853 0.388598
vn -0.7096733 0.003920853 0.70452
vn -0.7096733 0.003920853 0.70452
vn -0.9213991 0.003920853 0.388598
vn -0.3803222 0.003920853 0.9248458
vn -0.3803222 0.003920853 0.9248458
vn -0.003920853 0.003920853 0.9999846
vn -0.003920853 0.003920853 0.9999846
vn 0.3803222 0.003920853 0.9248458
vn 0.3803222 0.003920853 0.9248458
vn 0.7096734 0.003920853 0.7045199
vn 0.7096734 0.003920853 0.7045199
vn 0.9213992 0.003920853 0.3885977
vn 0.9213992 0.003920853 0.3885977
vn 0.9998161 0.003920853 0.0187704
vn 0.9998161 0.003920853 0.0187704
vn 0.9998161 0.003920853 -0.0187704
vn 0.9998161 0.003920853 -0.0187704
vn -0.9998161 0.003920853 0.0187704
vn -0.9998161 0.003920853 0.0187704
vn -0.9998161 0.003920853 -0.0187704
vn -0.9998161 0.003920853 -0.0187704
g townBaseDioBG_0
f 3/3/3 2/2/2 1/1/1
f 4/4/4 3/3/3 1/1/1
f 3/3/3 5/5/5 2/2/2
f 5/5/5 6/6/6 2/2/2
f 5/5/5 7/7/7 6/6/6
f 7/7/7 8/8/8 6/6/6
f 7/7/7 9/9/9 8/8/8
f 9/9/9 10/10/10 8/8/8
f 9/9/9 11/11/11 10/10/10
f 11/11/11 12/12/12 10/10/10
f 11/11/11 13/13/13 12/12/12
f 13/13/13 14/14/14 12/12/12
f 13/13/13 15/15/15 14/14/14
f 15/15/15 16/16/16 14/14/14
f 15/15/15 17/17/17 16/16/16
f 17/17/17 18/18/18 16/16/16
f 4/4/4 1/1/1 19/19/19
f 20/20/20 4/4/4 19/19/19
f 20/20/20 19/19/19 21/21/21
f 22/22/22 20/20/20 21/21/21
