g trinketLumote
v -0.5745648 -0.3774869 -0.3495579
v -0.2425659 -0.5844268 0.4409282
v 0.5745646 -0.5003497 0.1197446
v 0.2425658 -0.2934099 -0.6707415
v 0.5793507 -0.4910262 0.1343514
v -0.2377799 -0.575124 0.455535
v -0.2377799 0.2781402 0.6789048
v 0.5793507 0.3622172 0.3577213
v -0.2543342 0.2799013 0.6721504
v -0.2543342 -0.5733422 0.4487806
v -0.586333 -0.3664024 -0.3417055
v -0.586333 0.4868411 -0.1183357
v 0.2543341 -0.2799012 -0.6721504
v 0.5863329 -0.486841 0.1183357
v 0.5863329 0.3664024 0.3417056
v 0.2543341 0.5733423 -0.4487805
v 0.5745646 0.377487 0.3495581
v -0.2425659 0.29341 0.6707416
v -0.5745648 0.5003498 -0.1197445
v 0.2425658 0.5844268 -0.440928
v 0.2377798 0.5751241 -0.4555348
v -0.5793508 0.4910263 -0.1343513
v -0.5793508 -0.3622172 -0.3577212
v 0.2377798 -0.2781401 -0.6789047
v -0.2425659 -0.5844268 0.4409282
v -0.5745648 -0.3774869 -0.3495579
v -0.586333 -0.3664024 -0.3417055
v -0.2543342 -0.5733422 0.4487806
v -0.2377799 -0.575124 0.455535
v 0.5793507 -0.4910262 0.1343514
v 0.5745646 -0.5003497 0.1197446
v -0.2425659 -0.5844268 0.4409282
v -0.2543342 -0.5733422 0.4487806
v -0.2543342 0.2799013 0.6721504
v -0.2377799 0.2781402 0.6789048
v -0.2377799 -0.575124 0.455535
v 0.5863329 -0.486841 0.1183357
v 0.2543341 -0.2799012 -0.6721504
v 0.2425658 -0.2934099 -0.6707415
v 0.5745646 -0.5003497 0.1197446
v 0.5793507 -0.4910262 0.1343514
v 0.5793507 0.3622172 0.3577213
v 0.5863329 0.3664024 0.3417056
v 0.5863329 -0.486841 0.1183357
v -0.2543342 0.2799013 0.6721504
v -0.586333 0.4868411 -0.1183357
v -0.5745648 0.5003498 -0.1197445
v -0.2425659 0.29341 0.6707416
v -0.2425659 0.29341 0.6707416
v 0.5745646 0.377487 0.3495581
v 0.5793507 0.3622172 0.3577213
v -0.2377799 0.2781402 0.6789048
v 0.5745646 0.377487 0.3495581
v 0.2425658 0.5844268 -0.440928
v 0.2543341 0.5733423 -0.4487805
v 0.5863329 0.3664024 0.3417056
v -0.586333 0.4868411 -0.1183357
v -0.586333 -0.3664024 -0.3417055
v -0.5793508 -0.3622172 -0.3577212
v -0.5793508 0.4910263 -0.1343513
v -0.5793508 0.4910263 -0.1343513
v 0.2377798 0.5751241 -0.4555348
v 0.2425658 0.5844268 -0.440928
v -0.5745648 0.5003498 -0.1197445
v 0.2377798 0.5751241 -0.4555348
v 0.2377798 -0.2781401 -0.6789047
v 0.2543341 -0.2799012 -0.6721504
v 0.2543341 0.5733423 -0.4487805
v -0.5745648 -0.3774869 -0.3495579
v 0.2425658 -0.2934099 -0.6707415
v 0.2377798 -0.2781401 -0.6789047
v -0.5793508 -0.3622172 -0.3577212
v -0.2543342 -0.5733422 0.4487806
v -0.2377799 -0.575124 0.455535
v -0.2425659 -0.5844268 0.4409282
v 0.5745646 -0.5003497 0.1197446
v 0.5793507 -0.4910262 0.1343514
v 0.5863329 -0.486841 0.1183357
v -0.2425659 0.29341 0.6707416
v -0.2377799 0.2781402 0.6789048
v -0.2543342 0.2799013 0.6721504
v 0.5863329 0.3664024 0.3417056
v 0.5793507 0.3622172 0.3577213
v 0.5745646 0.377487 0.3495581
v -0.5793508 0.4910263 -0.1343513
v -0.5745648 0.5003498 -0.1197445
v -0.586333 0.4868411 -0.1183357
v 0.2543341 0.5733423 -0.4487805
v 0.2425658 0.5844268 -0.440928
v 0.2377798 0.5751241 -0.4555348
v -0.5745648 -0.3774869 -0.3495579
v -0.5793508 -0.3622172 -0.3577212
v -0.586333 -0.3664024 -0.3417055
v 0.2543341 -0.2799012 -0.6721504
v 0.2377798 -0.2781401 -0.6789047
v 0.2425658 -0.2934099 -0.6707415
vt 0.01368521 0.01368521
vt 0.01368521 0.9863148
vt 0.9863148 0.9863148
vt 0.9863148 0.01368521
vt 0.9863148 0.01368521
vt 0.01368521 0.01368521
vt 0.01368521 0.9863148
vt 0.9863148 0.9863148
vt 0.9863148 0.9863148
vt 0.9863148 0.01368521
vt 0.01368521 0.01368521
vt 0.01368521 0.9863148
vt 0.9863148 0.01368521
vt 0.01368521 0.01368521
vt 0.01368521 0.9863148
vt 0.9863148 0.9863148
vt 0.9863148 0.01368521
vt 0.01368521 0.01368521
vt 0.01368521 0.9863148
vt 0.9863148 0.9863148
vt 0.9863148 0.01368521
vt 0.01368521 0.01368521
vt 0.01368521 0.9863148
vt 0.9863148 0.9863148
vt 0.01368521 0.9863148
vt 0.01368521 0.01368521
vt -2.700835E-08 0.01368521
vt -2.700835E-08 0.9863148
vt 0.01368521 0.01368521
vt 0.9863148 0.01368521
vt 0.9863148 -2.700835E-08
vt 0.01368521 -2.700835E-08
vt -2.700835E-08 0.01368521
vt -2.700835E-08 0.9863148
vt 0.01368521 0.9863148
vt 0.01368521 0.01368521
vt 1 0.9863148
vt 1 0.01368521
vt 0.9863148 0.01368521
vt 0.9863148 0.9863148
vt 0.9863148 0.01368521
vt 0.9863148 0.9863148
vt 1 0.9863148
vt 1 0.01368521
vt -2.700835E-08 0.01368521
vt -2.700835E-08 0.9863148
vt 0.01368521 0.9863148
vt 0.01368521 0.01368521
vt 0.01368521 1
vt 0.9863148 1
vt 0.9863148 0.9863148
vt 0.01368521 0.9863148
vt 0.9863148 0.01368521
vt 0.9863148 0.9863148
vt 1 0.9863148
vt 1 0.01368521
vt -2.700835E-08 0.01368521
vt -2.700835E-08 0.9863148
vt 0.01368521 0.9863148
vt 0.01368521 0.01368521
vt 0.01368521 1
vt 0.9863148 1
vt 0.9863148 0.9863148
vt 0.01368521 0.9863148
vt 0.9863148 0.01368521
vt 0.9863148 0.9863148
vt 1 0.9863148
vt 1 0.01368521
vt 0.01368521 1
vt 0.9863148 1
vt 0.9863148 0.9863148
vt 0.01368521 0.9863148
vt -2.700835E-08 0.01368521
vt 0.01368521 0.01368521
vt 0.01368521 -2.700835E-08
vt 0.9863148 -2.700835E-08
vt 0.9863148 0.01368521
vt 1 0.01368521
vt 0.01368521 1
vt 0.01368521 0.9863148
vt -2.700835E-08 0.9863148
vt 1 0.9863148
vt 0.9863148 0.9863148
vt 0.9863148 1
vt 0.01368521 1
vt 0.01368521 0.9863148
vt -2.700835E-08 0.9863148
vt 1 0.9863148
vt 0.9863148 0.9863148
vt 0.9863148 1
vt 0.01368521 1
vt 0.01368521 0.9863148
vt -2.700835E-08 0.9863148
vt 1 0.9863148
vt 0.9863148 0.9863148
vt 0.9863148 1
vn -0.003793716 -0.9673997 -0.2532262
vn -0.003793716 -0.9673997 -0.2532262
vn -0.003793716 -0.9673997 -0.2532262
vn -0.003793716 -0.9673997 -0.2532262
vn 0.3755787 -0.2314172 0.8974335
vn 0.3755787 -0.2314172 0.8974335
vn 0.3755787 -0.2314172 0.8974335
vn 0.3755787 -0.2314172 0.8974335
vn -0.9294624 -0.09484309 0.3565172
vn -0.9294624 -0.09484309 0.3565172
vn -0.9294624 -0.09484309 0.3565172
vn -0.9294624 -0.09484309 0.3565172
vn 0.9294624 0.09484309 -0.356517
vn 0.9294624 0.09484309 -0.356517
vn 0.9294624 0.09484309 -0.356517
vn 0.9294624 0.09484309 -0.356517
vn -0.003793716 0.9673997 0.2532262
vn -0.003793716 0.9673997 0.2532262
vn -0.003793716 0.9673997 0.2532262
vn -0.003793716 0.9673997 0.2532262
vn -0.3755787 0.2314171 -0.8974335
vn -0.3755787 0.2314171 -0.8974335
vn -0.3755787 0.2314171 -0.8974335
vn -0.3755787 0.2314171 -0.8974335
vn -0.6560848 -0.7546871 0
vn -0.6560848 -0.7546871 0
vn -0.6560848 -0.7546871 0
vn -0.6560848 -0.7546871 0
vn 0.2693544 -0.8535879 0.4459101
vn 0.2693544 -0.8535879 0.4459101
vn 0.2693544 -0.8535879 0.4459101
vn 0.2693544 -0.8535879 0.4459101
vn -0.3907536 -0.2314172 0.8909308
vn -0.3907536 -0.2314172 0.8909308
vn -0.3907536 -0.2314172 0.8909308
vn -0.3907536 -0.2314172 0.8909308
vn 0.6563143 -0.618377 -0.4322748
vn 0.6563143 -0.618377 -0.4322748
vn 0.6563143 -0.618377 -0.4322748
vn 0.6563143 -0.618377 -0.4322748
vn 0.9218749 -0.09484309 0.3757012
vn 0.9218749 -0.09484309 0.3757012
vn 0.9218749 -0.09484309 0.3757012
vn 0.9218749 -0.09484309 0.3757012
vn -0.6563143 0.618377 0.4322747
vn -0.6563143 0.618377 0.4322747
vn -0.6563143 0.618377 0.4322747
vn -0.6563143 0.618377 0.4322747
vn 0.2693544 0.5197402 0.8107517
vn 0.2693544 0.5197402 0.8107517
vn 0.2693544 0.5197402 0.8107517
vn 0.2693544 0.5197402 0.8107517
vn 0.6560848 0.7546872 0
vn 0.6560848 0.7546872 0
vn 0.6560848 0.7546872 0
vn 0.6560848 0.7546872 0
vn -0.9218749 0.09484309 -0.3757012
vn -0.9218749 0.09484309 -0.3757012
vn -0.9218749 0.09484309 -0.3757012
vn -0.9218749 0.09484309 -0.3757012
vn -0.2693544 0.8535879 -0.4459101
vn -0.2693544 0.8535879 -0.4459101
vn -0.2693544 0.8535879 -0.4459101
vn -0.2693544 0.8535879 -0.4459101
vn 0.3907536 0.2314171 -0.8909308
vn 0.3907536 0.2314171 -0.8909308
vn 0.3907536 0.2314171 -0.8909308
vn 0.3907536 0.2314171 -0.8909308
vn -0.2693544 -0.5197402 -0.8107517
vn -0.2693544 -0.5197402 -0.8107517
vn -0.2693544 -0.5197402 -0.8107517
vn -0.2693544 -0.5197402 -0.8107517
vn -0.3148791 -0.7473637 0.5850629
vn -0.3148791 -0.7473637 0.5850629
vn -0.3148791 -0.7473637 0.5850629
vn 0.7549511 -0.6411394 0.137801
vn 0.7549511 -0.6411394 0.137801
vn 0.7549511 -0.6411394 0.137801
vn -0.3148791 0.3679913 0.8748906
vn -0.3148791 0.3679913 0.8748906
vn -0.3148791 0.3679913 0.8748906
vn 0.7549511 0.481803 0.444876
vn 0.7549511 0.481803 0.444876
vn 0.7549511 0.481803 0.444876
vn -0.7549511 0.6411393 -0.1378014
vn -0.7549511 0.6411393 -0.1378014
vn -0.7549511 0.6411393 -0.1378014
vn 0.3148791 0.7473636 -0.585063
vn 0.3148791 0.7473636 -0.585063
vn 0.3148791 0.7473636 -0.585063
vn -0.7549511 -0.481803 -0.4448761
vn -0.7549511 -0.481803 -0.4448761
vn -0.7549511 -0.481803 -0.4448761
vn 0.3148791 -0.3679913 -0.8748906
vn 0.3148791 -0.3679913 -0.8748906
vn 0.3148791 -0.3679913 -0.8748906
g trinketLumote_0
f 3/3/3 2/2/2 1/1/1
f 4/4/4 3/3/3 1/1/1
f 7/7/7 6/6/6 5/5/5
f 8/8/8 7/7/7 5/5/5
f 11/11/11 10/10/10 9/9/9
f 12/12/12 11/11/11 9/9/9
f 15/15/15 14/14/14 13/13/13
f 16/16/16 15/15/15 13/13/13
f 19/19/19 18/18/18 17/17/17
f 20/20/20 19/19/19 17/17/17
f 23/23/23 22/22/22 21/21/21
f 24/24/24 23/23/23 21/21/21
f 27/27/27 26/26/26 25/25/25
f 28/28/28 27/27/27 25/25/25
f 31/31/31 30/30/30 29/29/29
f 32/32/32 31/31/31 29/29/29
f 35/35/35 34/34/34 33/33/33
f 36/36/36 35/35/35 33/33/33
f 39/39/39 38/38/38 37/37/37
f 40/40/40 39/39/39 37/37/37
f 43/43/43 42/42/42 41/41/41
f 44/44/44 43/43/43 41/41/41
f 47/47/47 46/46/46 45/45/45
f 48/48/48 47/47/47 45/45/45
f 51/51/51 50/50/50 49/49/49
f 52/52/52 51/51/51 49/49/49
f 55/55/55 54/54/54 53/53/53
f 56/56/56 55/55/55 53/53/53
f 59/59/59 58/58/58 57/57/57
f 60/60/60 59/59/59 57/57/57
f 63/63/63 62/62/62 61/61/61
f 64/64/64 63/63/63 61/61/61
f 67/67/67 66/66/66 65/65/65
f 68/68/68 67/67/67 65/65/65
f 71/71/71 70/70/70 69/69/69
f 72/72/72 71/71/71 69/69/69
f 75/75/75 74/74/74 73/73/73
f 78/78/78 77/77/77 76/76/76
f 81/81/81 80/80/80 79/79/79
f 84/84/84 83/83/83 82/82/82
f 87/87/87 86/86/86 85/85/85
f 90/90/90 89/89/89 88/88/88
f 93/93/93 92/92/92 91/91/91
f 96/96/96 95/95/95 94/94/94
