g waterTempleBottom
v 16.40581 -0.9719467 -2.799291
v 0.0001621246 -0.9719467 3.996033
v 6.795485 -0.9719467 -9.526005
v -6.795673 -0.9719467 -9.526005
v -16.406 -0.9719467 -2.799291
v -16.406 -0.9719467 10.79187
v -2.792311 -0.9719467 10.7376
v -6.795673 -0.9719467 17.14841
v 16.40581 -0.9719467 10.79187
v 6.795485 -0.9719467 17.14841
v 2.792634 -0.9719467 10.7376
v 2.892987 -0.9719467 17.14841
v -2.792311 -0.9719467 17.14841
vt 0.9999999 0.7018572
vt 0.5004886 0.4946236
vt 0.7067448 0.9061582
vt 0.2932551 0.9061582
vt -2.980232E-08 0.7018572
vt -2.980232E-08 0.28739
vt 0.4144672 0.289345
vt 0.2932551 0.0938416
vt 0.9999999 0.28739
vt 0.7067448 0.0938416
vt 0.5855327 0.289345
vt 0.5884652 0.0938416
vt 0.4144672 0.0938416
vn 0 1 0
vn 0 1 0
vn 0 1 0
vn 0 1 0
vn 0 1 0
vn 0 1 0
vn 0 1 0
vn 0 1 0
vn 0 1 0
vn 0 1 0
vn 0 1 0
vn 0 1 0
vn 0 1 0
g waterTempleBottom_0
f 3/3/3 2/2/2 1/1/1
f 4/4/4 2/2/2 3/3/3
f 5/5/5 2/2/2 4/4/4
f 6/6/6 2/2/2 5/5/5
f 7/7/7 2/2/2 6/6/6
f 8/8/8 7/7/7 6/6/6
f 1/1/1 2/2/2 9/9/9
f 9/9/9 2/2/2 10/10/10
f 2/2/2 11/11/11 10/10/10
f 11/11/11 2/2/2 7/7/7
f 12/12/12 10/10/10 11/11/11
f 13/13/13 7/7/7 8/8/8
