g waterTempleFloorCOL
v 6.681916 -1.768892 1.228428
v 6.681916 -0.0001249313 1.228428
v 2.767735 -0.0001249313 -2.685752
v 2.767735 -1.768892 -2.685752
v 2.767735 -1.768892 -8.981393
v 2.767735 -0.0001249313 -8.981393
v -2.767881 -0.0001249313 -8.981393
v -2.767881 -1.768892 -8.981393
v -2.767881 -1.768892 -2.685752
v -2.767881 -0.0001249313 -2.685752
v -6.682062 -0.0001249313 1.228428
v -6.682062 -1.768892 1.228428
v -6.682062 -1.768892 1.228428
v -6.682062 -0.0001249313 1.228428
v -6.682062 -0.0001249313 6.764045
v -6.682062 -1.768892 6.764045
v -6.682062 -1.768892 6.764045
v -6.682062 -0.0001249313 6.764045
v -2.767881 -0.0001249313 10.67823
v -2.767881 -1.768892 10.67823
v -2.767881 -1.768892 16.97387
v -2.767881 -0.0001249313 16.97387
v 2.767735 -0.0001249313 16.97387
v 2.767735 -1.768892 16.97387
v 2.767735 -1.768892 10.67823
v 2.767735 -0.0001249313 10.67823
v 6.681916 -0.0001249313 6.764045
v 6.681916 -1.768892 6.764045
v 6.681916 -1.768892 6.764045
v 6.681916 -0.0001249313 6.764045
v 6.681916 -0.0001249313 1.228428
v 6.681916 -1.768892 1.228428
v 2.767735 -1.768892 -2.685752
v 0.0001249313 -1.768892 3.996434
v 6.681916 -1.768892 1.228428
v -2.767881 -1.768892 -2.685752
v -6.682062 -1.768892 1.228428
v -6.682062 -1.768892 6.764045
v -2.767881 -1.768892 10.67823
v 2.767735 -1.768892 10.67823
v 6.681916 -1.768892 6.764045
v 6.681916 -0.0001249313 1.228428
v 0.0001249313 -0.0001249313 3.996434
v 2.767735 -0.0001249313 -2.685752
v -2.767881 -0.0001249313 -2.685752
v -6.682062 -0.0001249313 1.228428
v -6.682062 -0.0001249313 6.764045
v -2.767881 -0.0001249313 10.67823
v 2.767735 -0.0001249313 10.67823
v 6.681916 -0.0001249313 6.764045
v 2.767735 -1.768892 -2.685752
v 2.767735 -1.768892 -8.981393
v -2.767881 -1.768892 -8.981393
v -2.767881 -1.768892 -2.685752
v -2.767881 -1.768892 -2.685752
v -2.767881 -1.768892 -8.981393
v -2.767881 -0.0001249313 -8.981393
v -2.767881 -0.0001249313 -2.685752
v -2.767881 -0.0001249313 -2.685752
v -2.767881 -0.0001249313 -8.981393
v 2.767735 -0.0001249313 -8.981393
v 2.767735 -0.0001249313 -2.685752
v 2.767735 -0.0001249313 -2.685752
v 2.767735 -0.0001249313 -8.981393
v 2.767735 -1.768892 -8.981393
v 2.767735 -1.768892 -2.685752
v -2.767881 -1.768892 10.67823
v -2.767881 -1.768892 16.97387
v 2.767735 -1.768892 16.97387
v 2.767735 -1.768892 10.67823
v 2.767735 -1.768892 10.67823
v 2.767735 -1.768892 16.97387
v 2.767735 -0.0001249313 16.97387
v 2.767735 -0.0001249313 10.67823
v 2.767735 -0.0001249313 10.67823
v 2.767735 -0.0001249313 16.97387
v -2.767881 -0.0001249313 16.97387
v -2.767881 -0.0001249313 10.67823
v -2.767881 -0.0001249313 10.67823
v -2.767881 -0.0001249313 16.97387
v -2.767881 -1.768892 16.97387
v -2.767881 -1.768892 10.67823
vt 0.3753666 0.3128055
vt 0.3753666 0.688172
vt 0.4066471 0.688172
vt 0.4066471 0.3128055
vt 0.4066471 0.3128055
vt 0.4066471 0.688172
vt 0.4379277 0.688172
vt 0.4379277 0.3128055
vt 0.4379277 0.3128055
vt 0.4379277 0.688172
vt 0.4692082 0.688172
vt 0.4692082 0.3128055
vt 0.4692082 0.3128055
vt 0.4692082 0.688172
vt 0.5004888 0.688172
vt 0.5004888 0.3128055
vt 0.5004888 0.3128055
vt 0.5004888 0.688172
vt 0.5307918 0.688172
vt 0.5307918 0.3128055
vt 0.5307918 0.3128055
vt 0.5307918 0.688172
vt 0.5620723 0.688172
vt 0.5620723 0.3128055
vt 0.5620723 0.3128055
vt 0.5620723 0.688172
vt 0.5933529 0.688172
vt 0.5933529 0.3128055
vt 0.5933529 0.3128055
vt 0.5933529 0.688172
vt 0.6246334 0.688172
vt 0.6246334 0.3128055
vt 0.5004888 1.490116E-08
vt 0.5004888 0.1495601
vt 0.6109482 0.04594332
vt 0.3890518 0.04594332
vt 0.3440861 0.1564028
vt 0.3890518 0.2668622
vt 0.5004888 0.3128055
vt 0.6109482 0.2668622
vt 0.6559139 0.1564028
vt 0.6109482 0.9540567
vt 0.5004888 0.8377321
vt 0.5004888 1
vt 0.3890518 0.9540567
vt 0.3440861 0.8435972
vt 0.3890518 0.7331378
vt 0.5004888 0.6871945
vt 0.6109482 0.7331378
vt 0.6559139 0.8435972
vt 0.4066471 0.3128055
vt 0.4066471 0.3128055
vt 0.4379277 0.3128055
vt 0.4379277 0.3128055
vt 0.4379277 0.3128055
vt 0.4379277 0.3128055
vt 0.4379277 0.688172
vt 0.4379277 0.688172
vt 0.4379277 0.688172
vt 0.4379277 0.688172
vt 0.4066471 0.688172
vt 0.4066471 0.688172
vt 0.4066471 0.688172
vt 0.4066471 0.688172
vt 0.4066471 0.3128055
vt 0.4066471 0.3128055
vt 0.5307918 0.3128055
vt 0.5307918 0.3128055
vt 0.5620723 0.3128055
vt 0.5620723 0.3128055
vt 0.5620723 0.3128055
vt 0.5620723 0.3128055
vt 0.5620723 0.688172
vt 0.5620723 0.688172
vt 0.5620723 0.688172
vt 0.5620723 0.688172
vt 0.5307918 0.688172
vt 0.5307918 0.688172
vt 0.5307918 0.688172
vt 0.5307918 0.688172
vt 0.5307918 0.3128055
vt 0.5307918 0.3128055
vn 0.7097985 0.003921509 -0.7043939
vn 0.7097985 0.003921509 -0.7043939
vn 0.7097985 0.003921509 -0.7043939
vn 0.7097985 0.003921509 -0.7043939
vn 0.003921568 0.003921509 -0.9999846
vn 0.003921568 0.003921509 -0.9999846
vn 0.003921568 0.003921509 -0.9999846
vn 0.003921568 0.003921509 -0.9999846
vn -0.7097985 0.003921509 -0.7043939
vn -0.7097985 0.003921509 -0.7043939
vn -0.7097985 0.003921509 -0.7043939
vn -0.7097985 0.003921509 -0.7043939
vn -0.9999923 0.003921509 -0.0003449296
vn -0.9999923 0.003921509 -0.0003449296
vn -0.9999923 0.003921509 -0.0003449296
vn -0.9999923 0.003921509 -0.0003449296
vn -0.7097985 0.003921509 0.7043939
vn -0.7097985 0.003921509 0.7043939
vn -0.7097985 0.003921509 0.7043939
vn -0.7097985 0.003921509 0.7043939
vn -0.003921509 0.003921509 0.9999846
vn -0.003921509 0.003921509 0.9999846
vn -0.003921509 0.003921509 0.9999846
vn -0.003921509 0.003921509 0.9999846
vn 0.7097985 0.003921509 0.7043939
vn 0.7097985 0.003921509 0.7043939
vn 0.7097985 0.003921509 0.7043939
vn 0.7097985 0.003921509 0.7043939
vn 0.9999924 0.003921509 0
vn 0.9999924 0.003921509 0
vn 0.9999924 0.003921509 0
vn 0.9999924 0.003921509 0
vn -0.003921509 -0.9999924 0
vn -0.003921509 -0.9999924 0
vn -0.003921509 -0.9999924 0
vn -0.003921509 -0.9999924 0
vn -0.003921509 -0.9999924 0
vn -0.003921509 -0.9999924 0
vn -0.003921509 -0.9999924 0
vn -0.003921509 -0.9999924 0
vn -0.003921509 -0.9999924 0
vn -0.003921509 0.9999923 -0.000345267
vn -0.003921509 0.9999923 -0.000345267
vn -0.003921509 0.9999923 -0.000345267
vn -0.003921509 0.9999923 -0.000345267
vn -0.003921509 0.9999923 -0.000345267
vn -0.003921509 0.9999923 -0.000345267
vn -0.003921509 0.9999923 -0.000345267
vn -0.003921509 0.9999923 -0.000345267
vn -0.003921509 0.9999923 -0.000345267
vn -0.003921509 -0.9999924 0
vn -0.003921509 -0.9999924 0
vn -0.003921509 -0.9999924 0
vn -0.003921509 -0.9999924 0
vn -0.9999923 0.003921509 -0.0003449296
vn -0.9999923 0.003921509 -0.0003449296
vn -0.9999923 0.003921509 -0.0003449296
vn -0.9999923 0.003921509 -0.0003449296
vn -0.003921509 0.9999923 -0.000345267
vn -0.003921509 0.9999923 -0.000345267
vn -0.003921509 0.9999923 -0.000345267
vn -0.003921509 0.9999923 -0.000345267
vn 0.9999924 0.003921509 0
vn 0.9999924 0.003921509 0
vn 0.9999924 0.003921509 0
vn 0.9999924 0.003921509 0
vn -0.003921509 -0.9999924 0
vn -0.003921509 -0.9999924 0
vn -0.003921509 -0.9999924 0
vn -0.003921509 -0.9999924 0
vn 0.9999924 0.003921509 0
vn 0.9999924 0.003921509 0
vn 0.9999924 0.003921509 0
vn 0.9999924 0.003921509 0
vn -0.003921509 0.9999923 -0.000345267
vn -0.003921509 0.9999923 -0.000345267
vn -0.003921509 0.9999923 -0.000345267
vn -0.003921509 0.9999923 -0.000345267
vn -0.9999923 0.003921509 -0.0003449296
vn -0.9999923 0.003921509 -0.0003449296
vn -0.9999923 0.003921509 -0.0003449296
vn -0.9999923 0.003921509 -0.0003449296
g waterTempleFloorCOL_0
f 3/3/3 2/2/2 1/1/1
f 4/4/4 3/3/3 1/1/1
f 7/7/7 6/6/6 5/5/5
f 8/8/8 7/7/7 5/5/5
f 11/11/11 10/10/10 9/9/9
f 12/12/12 11/11/11 9/9/9
f 15/15/15 14/14/14 13/13/13
f 16/16/16 15/15/15 13/13/13
f 19/19/19 18/18/18 17/17/17
f 20/20/20 19/19/19 17/17/17
f 23/23/23 22/22/22 21/21/21
f 24/24/24 23/23/23 21/21/21
f 27/27/27 26/26/26 25/25/25
f 28/28/28 27/27/27 25/25/25
f 31/31/31 30/30/30 29/29/29
f 32/32/32 31/31/31 29/29/29
f 35/35/35 34/34/34 33/33/33
f 33/33/33 34/34/34 36/36/36
f 36/36/36 34/34/34 37/37/37
f 37/37/37 34/34/34 38/38/38
f 38/38/38 34/34/34 39/39/39
f 39/39/39 34/34/34 40/40/40
f 40/40/40 34/34/34 41/41/41
f 41/41/41 34/34/34 35/35/35
f 44/44/44 43/43/43 42/42/42
f 45/45/45 43/43/43 44/44/44
f 46/46/46 43/43/43 45/45/45
f 47/47/47 43/43/43 46/46/46
f 48/48/48 43/43/43 47/47/47
f 49/49/49 43/43/43 48/48/48
f 50/50/50 43/43/43 49/49/49
f 42/42/42 43/43/43 50/50/50
f 53/53/53 52/52/52 51/51/51
f 54/54/54 53/53/53 51/51/51
f 57/57/57 56/56/56 55/55/55
f 58/58/58 57/57/57 55/55/55
f 61/61/61 60/60/60 59/59/59
f 62/62/62 61/61/61 59/59/59
f 65/65/65 64/64/64 63/63/63
f 66/66/66 65/65/65 63/63/63
f 69/69/69 68/68/68 67/67/67
f 70/70/70 69/69/69 67/67/67
f 73/73/73 72/72/72 71/71/71
f 74/74/74 73/73/73 71/71/71
f 77/77/77 76/76/76 75/75/75
f 78/78/78 77/77/77 75/75/75
f 81/81/81 80/80/80 79/79/79
f 82/82/82 81/81/81 79/79/79
