g wingR2
v 0.2937541 -0.1918761 -0.2189505
v 0.129396 -0.06914151 -0.1571889
v 0.2571231 -0.1895398 -0.05872675
v -0.003274888 -0.005074274 -0.03828027
v 0.03152552 -0.03417517 -0.004801093
v 0.129396 -0.06914151 -0.1571889
v 0.111812 -0.05524887 -0.1813178
v -0.008131385 -0.01551915 0.03203273
v 0.111812 -0.05524887 -0.1813178
v 0.129396 -0.06914151 -0.1571889
v 0.2937541 -0.1918761 -0.2189505
v 0.2916586 -0.1774763 -0.2969815
v 0.2916586 -0.1774763 -0.2969815
v 0.2937541 -0.1918761 -0.2189505
v 0.4017104 -0.3397411 -0.183247
v 0.4226044 -0.3289107 -0.2862772
v 0.2309862 -0.2268636 0.149109
v 0.03152552 -0.03417517 -0.004801093
v -0.008131385 -0.01551915 0.03203273
v 0.03152552 -0.03417517 -0.004801093
v 0.2571231 -0.1895398 -0.05872675
v 0.129396 -0.06914151 -0.1571889
v 0.4017104 -0.3397411 -0.183247
v 0.2937541 -0.1918761 -0.2189505
v 0.2571231 -0.1895398 -0.05872675
v 0.2309862 -0.2268636 0.149109
v 0.3187242 -0.3216338 0.002081247
v 0.2571231 -0.1895398 -0.05872675
v 0.3187242 -0.3216338 0.002081247
v 0.4017104 -0.3397411 -0.183247
v 0.2571231 -0.1895398 -0.05872675
v 0.03152552 -0.03417517 -0.004801093
v 0.2309862 -0.2268636 0.149109
v 0.2571231 -0.1895398 -0.05872675
v 0.1500137 -0.2997611 0.1361978
v 0.09087166 -0.1542195 0.05727938
v 0.07618698 -0.1579387 0.2056059
v 0.001979083 -0.14244 0.4250507
v 0.125677 -0.3417337 0.3359033
v 0.03339627 -0.1555673 0.3539349
v -0.02911609 -0.009492051 0.09720594
v -0.05043083 -0.02772857 0.2515064
v -0.01335505 -0.05789913 0.2393822
v -0.01335505 -0.05789913 0.2393822
v 0.07618698 -0.1579387 0.2056059
v 0.09087166 -0.1542195 0.05727938
v -0.009846866 -0.02147163 0.04707486
v -0.02911609 -0.009492051 0.09720594
v 0.03339627 -0.1555673 0.3539349
v 0.125677 -0.3417337 0.3359033
v 0.1500137 -0.2997611 0.1361978
v 0.07618698 -0.1579387 0.2056059
v -0.01335505 -0.05789913 0.2393822
v 0.03339627 -0.1555673 0.3539349
v 0.07618698 -0.1579387 0.2056059
v -0.05043083 -0.02772857 0.2515064
v 0.001979083 -0.14244 0.4250507
v 0.03339627 -0.1555673 0.3539349
v -0.01335505 -0.05789913 0.2393822
v 0.2937541 -0.1918761 -0.2189505
v 0.2571231 -0.1895398 -0.05872675
v 0.129396 -0.06914151 -0.1571889
v -0.003274888 -0.005074274 -0.03828027
v 0.111812 -0.05524887 -0.1813178
v 0.129396 -0.06914151 -0.1571889
v 0.03152552 -0.03417517 -0.004801093
v -0.008131385 -0.01551915 0.03203273
v 0.111812 -0.05524887 -0.1813178
v 0.2916586 -0.1774763 -0.2969815
v 0.2937541 -0.1918761 -0.2189505
v 0.129396 -0.06914151 -0.1571889
v 0.2916586 -0.1774763 -0.2969815
v 0.4226044 -0.3289107 -0.2862772
v 0.4017104 -0.3397411 -0.183247
v 0.2937541 -0.1918761 -0.2189505
v 0.2309862 -0.2268636 0.149109
v -0.008131385 -0.01551915 0.03203273
v 0.03152552 -0.03417517 -0.004801093
v 0.03152552 -0.03417517 -0.004801093
v 0.129396 -0.06914151 -0.1571889
v 0.2571231 -0.1895398 -0.05872675
v 0.4017104 -0.3397411 -0.183247
v 0.2571231 -0.1895398 -0.05872675
v 0.2937541 -0.1918761 -0.2189505
v 0.2309862 -0.2268636 0.149109
v 0.2571231 -0.1895398 -0.05872675
v 0.3187242 -0.3216338 0.002081247
v 0.3187242 -0.3216338 0.002081247
v 0.2571231 -0.1895398 -0.05872675
v 0.4017104 -0.3397411 -0.183247
v 0.03152552 -0.03417517 -0.004801093
v 0.2571231 -0.1895398 -0.05872675
v 0.2309862 -0.2268636 0.149109
v 0.1500137 -0.2997611 0.1361978
v 0.07618698 -0.1579387 0.2056059
v 0.09087166 -0.1542195 0.05727938
v 0.001979083 -0.14244 0.4250507
v 0.03339627 -0.1555673 0.3539349
v 0.125677 -0.3417337 0.3359033
v -0.02911609 -0.009492051 0.09720594
v -0.01335505 -0.05789913 0.2393822
v -0.05043083 -0.02772857 0.2515064
v 0.09087166 -0.1542195 0.05727938
v 0.07618698 -0.1579387 0.2056059
v -0.01335505 -0.05789913 0.2393822
v -0.009846866 -0.02147163 0.04707486
v -0.02911609 -0.009492051 0.09720594
v 0.03339627 -0.1555673 0.3539349
v 0.07618698 -0.1579387 0.2056059
v 0.1500137 -0.2997611 0.1361978
v 0.125677 -0.3417337 0.3359033
v -0.01335505 -0.05789913 0.2393822
v 0.07618698 -0.1579387 0.2056059
v 0.03339627 -0.1555673 0.3539349
v -0.05043083 -0.02772857 0.2515064
v -0.01335505 -0.05789913 0.2393822
v 0.03339627 -0.1555673 0.3539349
v 0.001979083 -0.14244 0.4250507
vt 0.1855197 0.3507093
vt 0.2321607 0.3313168
vt 0.1886886 0.3121663
vt 0.09700078 0.1940055
vt 0.09056211 0.190218
vt 0.07983029 0.2121407
vt 0.08310872 0.2149905
vt 0.09568661 0.1846247
vt 0.08310872 0.2149905
vt 0.07983029 0.2121407
vt 0.05348623 0.2230941
vt 0.05600181 0.2333517
vt 0.05600181 0.2333517
vt 0.05348623 0.2230941
vt 0.02896577 0.2198023
vt 0.02919593 0.2338349
vt 0.05203646 0.1732707
vt 0.09056211 0.190218
vt 0.09568661 0.1846247
vt 0.2313473 0.4197533
vt 0.1811903 0.4355398
vt 0.2160926 0.450915
vt 0.1437917 0.4618055
vt 0.1786461 0.4664848
vt 0.1811903 0.4355398
vt 0.1765853 0.3956637
vt 0.1542991 0.4248343
vt 0.1811903 0.4355398
vt 0.1551947 0.2988321
vt 0.1421074 0.3448811
vt 0.1886886 0.3121663
vt 0.2511609 0.2925036
vt 0.182953 0.2624992
vt 0.1886886 0.3121663
vt 0.1623091 0.4588051
vt 0.1918036 0.472974
vt 0.1913546 0.4451551
vt 0.08009946 0.1309541
vt 0.0499596 0.1437814
vt 0.07684052 0.140754
vt 0.09901232 0.1735581
vt 0.09756738 0.1530175
vt 0.09164798 0.1552054
vt 0.2303101 0.310699
vt 0.2028645 0.3197144
vt 0.2033663 0.3508061
vt 0.2382517 0.3508253
vt 0.2420488 0.3399529
vt 0.2067073 0.2876635
vt 0.1638595 0.2924892
vt 0.1704019 0.3349702
vt 0.2028645 0.3197144
vt 0.2159113 0.4370887
vt 0.1947929 0.416478
vt 0.1913546 0.4451551
vt 0.09756738 0.1530175
vt 0.08009946 0.1309541
vt 0.07684052 0.140754
vt 0.09164798 0.1552054
vt 0.1855197 0.3507093
vt 0.1886886 0.3121663
vt 0.2321607 0.3313168
vt 0.09700078 0.1940055
vt 0.08310872 0.2149905
vt 0.07983029 0.2121407
vt 0.09056211 0.190218
vt 0.09568661 0.1846247
vt 0.08310872 0.2149905
vt 0.05600181 0.2333517
vt 0.05348623 0.2230941
vt 0.07983029 0.2121407
vt 0.05600181 0.2333517
vt 0.02919593 0.2338349
vt 0.02896577 0.2198023
vt 0.05348623 0.2230941
vt 0.05203646 0.1732707
vt 0.09568661 0.1846247
vt 0.09056211 0.190218
vt 0.2313473 0.4197533
vt 0.2160926 0.450915
vt 0.1811903 0.4355398
vt 0.1437917 0.4618055
vt 0.1811903 0.4355398
vt 0.1786461 0.4664848
vt 0.1765853 0.3956637
vt 0.1811903 0.4355398
vt 0.1542991 0.4248343
vt 0.1551947 0.2988321
vt 0.1886886 0.3121663
vt 0.1421074 0.3448811
vt 0.2511609 0.2925036
vt 0.1886886 0.3121663
vt 0.182953 0.2624992
vt 0.1623091 0.4588051
vt 0.1913546 0.4451551
vt 0.1918036 0.472974
vt 0.08009946 0.1309541
vt 0.07684052 0.140754
vt 0.0499596 0.1437814
vt 0.09901232 0.1735581
vt 0.09164798 0.1552054
vt 0.09756738 0.1530175
vt 0.2033663 0.3508061
vt 0.2028645 0.3197144
vt 0.2303101 0.310699
vt 0.2382517 0.3508253
vt 0.2420488 0.3399529
vt 0.2067073 0.2876635
vt 0.2028645 0.3197144
vt 0.1704019 0.3349702
vt 0.1638595 0.2924892
vt 0.2159113 0.4370887
vt 0.1913546 0.4451551
vt 0.1947929 0.416478
vt 0.09756738 0.1530175
vt 0.09164798 0.1552054
vt 0.07684052 0.140754
vt 0.08009946 0.1309541
vn -0.6243913 -0.7699591 -0.1315237
vn -0.6243913 -0.7699592 -0.1315237
vn -0.6243913 -0.7699591 -0.1315237
vn -0.5304264 -0.8358437 -0.1414682
vn -0.5304263 -0.8358437 -0.1414682
vn -0.5304263 -0.8358437 -0.1414682
vn -0.5304264 -0.8358437 -0.1414682
vn -0.5380265 -0.8275846 -0.1600983
vn -0.6106083 -0.785601 -0.09994258
vn -0.6106083 -0.785601 -0.09994256
vn -0.6106084 -0.785601 -0.09994258
vn -0.6106084 -0.785601 -0.09994258
vn -0.7578785 -0.63077 -0.1665819
vn -0.7578784 -0.63077 -0.1665819
vn -0.7578785 -0.63077 -0.1665819
vn -0.7578783 -0.63077 -0.1665819
vn -0.5797561 -0.7822421 -0.2279915
vn -0.5797561 -0.7822421 -0.2279915
vn -0.579756 -0.7822422 -0.2279914
vn -0.5875928 -0.784729 -0.1973194
vn -0.5875928 -0.784729 -0.1973193
vn -0.5875929 -0.784729 -0.1973194
vn -0.7762528 -0.6074548 -0.1686127
vn -0.7762528 -0.6074547 -0.1686127
vn -0.7762528 -0.6074547 -0.1686127
vn -0.8516436 -0.4866948 -0.1945031
vn -0.8516436 -0.4866947 -0.1945031
vn -0.8516436 -0.4866948 -0.1945031
vn -0.8000562 -0.5148594 -0.3079446
vn -0.8000562 -0.5148593 -0.3079446
vn -0.8000562 -0.5148593 -0.3079446
vn -0.5882313 -0.7798576 -0.2140239
vn -0.5882312 -0.7798576 -0.2140239
vn -0.5882312 -0.7798576 -0.2140239
vn -0.9017553 -0.4205629 -0.09982078
vn -0.9017553 -0.420563 -0.0998208
vn -0.9017553 -0.420563 -0.09982078
vn -0.8639148 -0.3983893 -0.3081188
vn -0.8639148 -0.3983893 -0.3081188
vn -0.8639148 -0.3983893 -0.3081188
vn -0.6554103 -0.7341661 -0.1773059
vn -0.6554104 -0.7341661 -0.1773059
vn -0.6554103 -0.7341661 -0.1773059
vn -0.7728081 -0.6238231 -0.1166723
vn -0.7728081 -0.6238231 -0.1166723
vn -0.7728081 -0.6238232 -0.1166723
vn -0.7728081 -0.6238232 -0.1166723
vn -0.7728081 -0.6238232 -0.1166723
vn -0.8929483 -0.3943497 -0.2170987
vn -0.8929483 -0.3943495 -0.2170986
vn -0.8929483 -0.3943497 -0.2170987
vn -0.8929483 -0.3943496 -0.2170986
vn -0.7626742 -0.611659 -0.2102413
vn -0.7626741 -0.611659 -0.2102413
vn -0.7626741 -0.611659 -0.2102413
vn -0.7111829 -0.6601034 -0.2418312
vn -0.7111829 -0.6601034 -0.2418311
vn -0.7111829 -0.6601034 -0.2418312
vn -0.7111828 -0.6601034 -0.2418311
vn 0.6243911 0.7699594 0.1315234
vn 0.624391 0.7699594 0.1315234
vn 0.624391 0.7699594 0.1315234
vn 0.5304262 0.8358437 0.141468
vn 0.5304263 0.8358437 0.141468
vn 0.5304262 0.8358437 0.141468
vn 0.5304263 0.8358437 0.141468
vn 0.5380265 0.8275846 0.160098
vn 0.6106085 0.7856009 0.09994224
vn 0.6106085 0.7856009 0.09994224
vn 0.6106086 0.7856008 0.09994224
vn 0.6106085 0.7856009 0.09994224
vn 0.7578781 0.6307703 0.1665821
vn 0.7578781 0.6307704 0.1665821
vn 0.7578781 0.6307704 0.1665821
vn 0.7578781 0.6307703 0.1665822
vn 0.5797563 0.7822419 0.2279915
vn 0.5797563 0.7822419 0.2279915
vn 0.5797563 0.7822419 0.2279915
vn 0.587593 0.784729 0.197319
vn 0.5875931 0.784729 0.197319
vn 0.587593 0.784729 0.197319
vn 0.7762528 0.6074548 0.1686127
vn 0.7762528 0.6074547 0.1686127
vn 0.7762528 0.6074547 0.1686127
vn 0.8516436 0.4866948 0.1945029
vn 0.8516436 0.4866948 0.1945029
vn 0.8516436 0.4866948 0.1945029
vn 0.8000562 0.5148594 0.3079444
vn 0.8000562 0.5148595 0.3079443
vn 0.8000562 0.5148595 0.3079444
vn 0.5882313 0.7798576 0.2140239
vn 0.5882312 0.7798576 0.2140239
vn 0.5882312 0.7798576 0.2140239
vn 0.9017553 0.4205629 0.09982078
vn 0.9017553 0.420563 0.09982078
vn 0.9017553 0.420563 0.0998208
vn 0.8639147 0.3983894 0.3081191
vn 0.8639147 0.3983894 0.3081191
vn 0.8639147 0.3983894 0.3081191
vn 0.6554097 0.7341666 0.1773063
vn 0.6554098 0.7341666 0.1773063
vn 0.6554098 0.7341665 0.1773063
vn 0.7728081 0.6238232 0.1166722
vn 0.7728081 0.6238231 0.1166722
vn 0.7728081 0.6238232 0.1166722
vn 0.7728081 0.6238232 0.1166722
vn 0.7728081 0.6238232 0.1166722
vn 0.8929483 0.3943495 0.2170986
vn 0.8929483 0.3943495 0.2170986
vn 0.8929483 0.3943495 0.2170986
vn 0.8929483 0.3943495 0.2170986
vn 0.7626742 0.611659 0.2102413
vn 0.7626742 0.611659 0.2102413
vn 0.7626742 0.611659 0.2102413
vn 0.7111825 0.6601037 0.2418312
vn 0.7111825 0.6601037 0.2418312
vn 0.7111825 0.6601037 0.2418312
vn 0.7111825 0.6601037 0.2418313
g wingR2_0
f 3/3/3 2/2/2 1/1/1
f 6/6/6 5/5/5 4/4/4
f 7/7/7 6/6/6 4/4/4
f 4/4/4 5/5/5 8/8/8
f 11/11/11 10/10/10 9/9/9
f 12/12/12 11/11/11 9/9/9
f 15/15/15 14/14/14 13/13/13
f 16/16/16 15/15/15 13/13/13
f 19/19/19 18/18/18 17/17/17
f 22/22/22 21/21/21 20/20/20
f 25/25/25 24/24/24 23/23/23
f 28/28/28 27/27/27 26/26/26
f 31/31/31 30/30/30 29/29/29
f 34/34/34 33/33/33 32/32/32
f 37/37/37 36/36/36 35/35/35
f 40/40/40 39/39/39 38/38/38
f 43/43/43 42/42/42 41/41/41
f 46/46/46 45/45/45 44/44/44
f 44/44/44 47/47/47 46/46/46
f 44/44/44 48/48/48 47/47/47
f 51/51/51 50/50/50 49/49/49
f 52/52/52 51/51/51 49/49/49
f 55/55/55 54/54/54 53/53/53
f 58/58/58 57/57/57 56/56/56
f 59/59/59 58/58/58 56/56/56
f 62/62/62 61/61/61 60/60/60
f 65/65/65 64/64/64 63/63/63
f 66/66/66 65/65/65 63/63/63
f 66/66/66 63/63/63 67/67/67
f 70/70/70 69/69/69 68/68/68
f 71/71/71 70/70/70 68/68/68
f 74/74/74 73/73/73 72/72/72
f 75/75/75 74/74/74 72/72/72
f 78/78/78 77/77/77 76/76/76
f 81/81/81 80/80/80 79/79/79
f 84/84/84 83/83/83 82/82/82
f 87/87/87 86/86/86 85/85/85
f 90/90/90 89/89/89 88/88/88
f 93/93/93 92/92/92 91/91/91
f 96/96/96 95/95/95 94/94/94
f 99/99/99 98/98/98 97/97/97
f 102/102/102 101/101/101 100/100/100
f 105/105/105 104/104/104 103/103/103
f 103/103/103 106/106/106 105/105/105
f 106/106/106 107/107/107 105/105/105
f 110/110/110 109/109/109 108/108/108
f 111/111/111 110/110/110 108/108/108
f 114/114/114 113/113/113 112/112/112
f 117/117/117 116/116/116 115/115/115
f 118/118/118 117/117/117 115/115/115
