g wingL3
v -0.1753018 -0.2977475 0.1145839
v -0.09845781 -0.1580758 0.1850696
v -0.1027089 -0.1582191 0.0360323
v -0.03869998 -0.1397819 0.4086705
v -0.06586605 -0.1533947 0.335914
v -0.1671335 -0.334696 0.3165848
v 0.0222981 -0.01910528 0.08027963
v -0.00589597 -0.06208429 0.2222784
v 0.03191793 -0.03362605 0.236139
v 0.005859079 -0.03157958 0.02926887
v -0.1027089 -0.1582191 0.0360323
v -0.09845781 -0.1580758 0.1850696
v -0.00589597 -0.06208429 0.2222784
v 0.0222981 -0.01910528 0.08027963
v -0.06586605 -0.1533947 0.335914
v -0.09845781 -0.1580758 0.1850696
v -0.1753018 -0.2977475 0.1145839
v -0.1671335 -0.334696 0.3165848
v -0.00589597 -0.06208429 0.2222784
v -0.09845781 -0.1580758 0.1850696
v -0.06586605 -0.1533947 0.335914
v 0.03191793 -0.03362605 0.236139
v -0.00589597 -0.06208429 0.2222784
v -0.06586605 -0.1533947 0.335914
v -0.03869998 -0.1397819 0.4086705
v -0.2695048 -0.2331281 -0.2560318
v -0.2453758 -0.2267736 -0.09356212
v -0.1192525 -0.09855369 -0.1838799
v -0.0007632953 -0.0242202 -0.05628574
v -0.1009009 -0.08367249 -0.2068184
v -0.1192525 -0.09855369 -0.1838799
v -0.03588903 -0.05540195 -0.02509787
v -0.0005345327 -0.03366426 0.01433552
v -0.1009009 -0.08367249 -0.2068184
v -0.2625092 -0.2193179 -0.3338837
v -0.2695048 -0.2331281 -0.2560318
v -0.1192525 -0.09855369 -0.1838799
v -0.2625092 -0.2193179 -0.3338837
v -0.3830197 -0.379511 -0.3308657
v -0.3692916 -0.3879143 -0.2264147
v -0.2695048 -0.2331281 -0.2560318
v -0.232531 -0.2602915 0.1161601
v -0.0005345327 -0.03366426 0.01433552
v -0.03588903 -0.05540195 -0.02509787
v -0.03588903 -0.05540195 -0.02509787
v -0.1192525 -0.09855369 -0.1838799
v -0.2453758 -0.2267736 -0.09356212
v -0.3692916 -0.3879143 -0.2264147
v -0.2453758 -0.2267736 -0.09356212
v -0.2695048 -0.2331281 -0.2560318
v -0.232531 -0.2602915 0.1161601
v -0.2453758 -0.2267736 -0.09356212
v -0.3020557 -0.3623329 -0.03566341
v -0.3020557 -0.3623329 -0.03566341
v -0.2453758 -0.2267736 -0.09356212
v -0.3692916 -0.3879143 -0.2264147
v -0.03588903 -0.05540195 -0.02509787
v -0.2453758 -0.2267736 -0.09356212
v -0.232531 -0.2602915 0.1161601
v -0.1753018 -0.2977475 0.1145839
v -0.1027089 -0.1582191 0.0360323
v -0.09845781 -0.1580758 0.1850696
v -0.03869998 -0.1397819 0.4086705
v -0.1671335 -0.334696 0.3165848
v -0.06586605 -0.1533947 0.335914
v 0.0222981 -0.01910528 0.08027963
v 0.03191793 -0.03362605 0.236139
v -0.00589597 -0.06208429 0.2222784
v -0.09845781 -0.1580758 0.1850696
v -0.1027089 -0.1582191 0.0360323
v 0.005859079 -0.03157958 0.02926887
v -0.00589597 -0.06208429 0.2222784
v 0.0222981 -0.01910528 0.08027963
v -0.06586605 -0.1533947 0.335914
v -0.1671335 -0.334696 0.3165848
v -0.1753018 -0.2977475 0.1145839
v -0.09845781 -0.1580758 0.1850696
v -0.00589597 -0.06208429 0.2222784
v -0.06586605 -0.1533947 0.335914
v -0.09845781 -0.1580758 0.1850696
v 0.03191793 -0.03362605 0.236139
v -0.03869998 -0.1397819 0.4086705
v -0.06586605 -0.1533947 0.335914
v -0.00589597 -0.06208429 0.2222784
v -0.2695048 -0.2331281 -0.2560318
v -0.1192525 -0.09855369 -0.1838799
v -0.2453758 -0.2267736 -0.09356212
v -0.0007632953 -0.0242202 -0.05628574
v -0.03588903 -0.05540195 -0.02509787
v -0.1192525 -0.09855369 -0.1838799
v -0.1009009 -0.08367249 -0.2068184
v -0.0005345327 -0.03366426 0.01433552
v -0.1009009 -0.08367249 -0.2068184
v -0.1192525 -0.09855369 -0.1838799
v -0.2695048 -0.2331281 -0.2560318
v -0.2625092 -0.2193179 -0.3338837
v -0.2625092 -0.2193179 -0.3338837
v -0.2695048 -0.2331281 -0.2560318
v -0.3692916 -0.3879143 -0.2264147
v -0.3830197 -0.379511 -0.3308657
v -0.232531 -0.2602915 0.1161601
v -0.03588903 -0.05540195 -0.02509787
v -0.0005345327 -0.03366426 0.01433552
v -0.03588903 -0.05540195 -0.02509787
v -0.2453758 -0.2267736 -0.09356212
v -0.1192525 -0.09855369 -0.1838799
v -0.3692916 -0.3879143 -0.2264147
v -0.2695048 -0.2331281 -0.2560318
v -0.2453758 -0.2267736 -0.09356212
v -0.232531 -0.2602915 0.1161601
v -0.3020557 -0.3623329 -0.03566341
v -0.2453758 -0.2267736 -0.09356212
v -0.3020557 -0.3623329 -0.03566341
v -0.3692916 -0.3879143 -0.2264147
v -0.2453758 -0.2267736 -0.09356212
v -0.03588903 -0.05540195 -0.02509787
v -0.232531 -0.2602915 0.1161601
v -0.2453758 -0.2267736 -0.09356212
vt 0.1686292 0.5839435
vt 0.1976747 0.5702935
vt 0.1981237 0.5981125
vt 0.4517227 0.3888152
vt 0.4484637 0.398615
vt 0.4215828 0.4016424
vt 0.4706355 0.4314191
vt 0.4632712 0.4130664
vt 0.4691906 0.4108785
vt 0.354542 0.9765174
vt 0.3196566 0.9764982
vt 0.3191547 0.9454065
vt 0.3466004 0.9363911
vt 0.3583391 0.965645
vt 0.3229976 0.9133556
vt 0.3191547 0.9454065
vt 0.2866921 0.9606624
vt 0.2801498 0.9181813
vt 0.2222314 0.5622271
vt 0.1976747 0.5702935
vt 0.201113 0.5416164
vt 0.4691906 0.4108785
vt 0.4632712 0.4130664
vt 0.4484637 0.398615
vt 0.4517227 0.3888152
vt 0.30181 0.9764014
vt 0.3049789 0.9378585
vt 0.348451 0.9570089
vt 0.468624 0.4518665
vt 0.4547319 0.4728515
vt 0.4514535 0.4700017
vt 0.4621853 0.448079
vt 0.4673098 0.4424857
vt 0.4547319 0.4728515
vt 0.427625 0.4912127
vt 0.4251094 0.4809551
vt 0.4514535 0.4700017
vt 0.427625 0.4912127
vt 0.4008192 0.4916959
vt 0.400589 0.4776633
vt 0.4251094 0.4809551
vt 0.4236597 0.4311317
vt 0.4673098 0.4424857
vt 0.4621853 0.448079
vt 0.2376674 0.5448917
vt 0.2224127 0.5760535
vt 0.1875104 0.5606782
vt 0.1501118 0.5869439
vt 0.1875104 0.5606782
vt 0.1849662 0.5916232
vt 0.1829054 0.5208021
vt 0.1875104 0.5606782
vt 0.1606192 0.5499727
vt 0.271485 0.9245242
vt 0.3049789 0.9378585
vt 0.2583976 0.9705732
vt 0.3674511 0.9181957
vt 0.3049789 0.9378585
vt 0.2992433 0.8881913
vt 0.1686292 0.5839435
vt 0.1981237 0.5981125
vt 0.1976747 0.5702935
vt 0.4517227 0.3888152
vt 0.4215828 0.4016424
vt 0.4484637 0.398615
vt 0.4706355 0.4314191
vt 0.4691906 0.4108785
vt 0.4632712 0.4130664
vt 0.3191547 0.9454065
vt 0.3196566 0.9764982
vt 0.354542 0.9765174
vt 0.3466004 0.9363911
vt 0.3583391 0.965645
vt 0.3229976 0.9133556
vt 0.2801498 0.9181813
vt 0.2866921 0.9606624
vt 0.3191547 0.9454065
vt 0.2222314 0.5622271
vt 0.201113 0.5416164
vt 0.1976747 0.5702935
vt 0.4691906 0.4108785
vt 0.4517227 0.3888152
vt 0.4484637 0.398615
vt 0.4632712 0.4130664
vt 0.30181 0.9764014
vt 0.348451 0.9570089
vt 0.3049789 0.9378585
vt 0.468624 0.4518665
vt 0.4621853 0.448079
vt 0.4514535 0.4700017
vt 0.4547319 0.4728515
vt 0.4673098 0.4424857
vt 0.4547319 0.4728515
vt 0.4514535 0.4700017
vt 0.4251094 0.4809551
vt 0.427625 0.4912127
vt 0.427625 0.4912127
vt 0.4251094 0.4809551
vt 0.400589 0.4776633
vt 0.4008192 0.4916959
vt 0.4236597 0.4311317
vt 0.4621853 0.448079
vt 0.4673098 0.4424857
vt 0.2376674 0.5448917
vt 0.1875104 0.5606782
vt 0.2224127 0.5760535
vt 0.1501118 0.5869439
vt 0.1849662 0.5916232
vt 0.1875104 0.5606782
vt 0.1829054 0.5208021
vt 0.1606192 0.5499727
vt 0.1875104 0.5606782
vt 0.271485 0.9245242
vt 0.2583976 0.9705732
vt 0.3049789 0.9378585
vt 0.3674511 0.9181957
vt 0.2992433 0.8881913
vt 0.3049789 0.9378585
vn 0.8810914 -0.4723018 -0.0246776
vn 0.8810914 -0.4723018 -0.0246776
vn 0.8810914 -0.4723019 -0.02467762
vn 0.8589358 -0.4546422 -0.2356477
vn 0.8589358 -0.4546423 -0.2356477
vn 0.8589358 -0.4546423 -0.2356477
vn 0.6231955 -0.774207 -0.1105934
vn 0.6231954 -0.774207 -0.1105934
vn 0.6231955 -0.774207 -0.1105935
vn 0.7422502 -0.6686147 -0.04493253
vn 0.7422503 -0.6686147 -0.04493257
vn 0.7422502 -0.6686147 -0.04493253
vn 0.7422503 -0.6686147 -0.04493257
vn 0.7422503 -0.6686147 -0.04493255
vn 0.8818464 -0.4493426 -0.1429616
vn 0.8818464 -0.4493427 -0.1429616
vn 0.8818464 -0.4493427 -0.1429616
vn 0.8818464 -0.4493426 -0.1429617
vn 0.7392606 -0.6588587 -0.1392804
vn 0.7392607 -0.6588587 -0.1392804
vn 0.7392606 -0.6588587 -0.1392804
vn 0.6873821 -0.7053763 -0.1730615
vn 0.6873821 -0.7053762 -0.1730615
vn 0.6873821 -0.7053763 -0.1730615
vn 0.6873821 -0.7053763 -0.1730615
vn 0.6846862 -0.7251402 -0.07332432
vn 0.6846863 -0.7251403 -0.07332428
vn 0.6846862 -0.7251402 -0.0733243
vn 0.5965659 -0.7975754 -0.08934613
vn 0.596566 -0.7975753 -0.08934613
vn 0.5965659 -0.7975754 -0.08934608
vn 0.5965658 -0.7975754 -0.0893461
vn 0.6049623 -0.7889686 -0.1074671
vn 0.6696727 -0.741431 -0.04264386
vn 0.6696727 -0.7414311 -0.04264384
vn 0.6696727 -0.7414311 -0.0426438
vn 0.6696727 -0.741431 -0.04264386
vn 0.8104244 -0.5772002 -0.1002611
vn 0.8104244 -0.5772002 -0.1002611
vn 0.8104244 -0.5772001 -0.1002611
vn 0.8104244 -0.5772002 -0.1002611
vn 0.6484571 -0.7414072 -0.1726815
vn 0.6484571 -0.7414072 -0.1726815
vn 0.6484571 -0.7414072 -0.1726816
vn 0.6541007 -0.7430592 -0.141476
vn 0.6541006 -0.7430592 -0.141476
vn 0.6541007 -0.7430592 -0.1414761
vn 0.8272307 -0.5526661 -0.1012401
vn 0.8272308 -0.5526661 -0.1012402
vn 0.8272307 -0.5526661 -0.1012401
vn 0.8957692 -0.4271269 -0.1231264
vn 0.8957692 -0.427127 -0.1231263
vn 0.8957692 -0.427127 -0.1231263
vn 0.8550174 -0.4598785 -0.2397019
vn 0.8550174 -0.4598785 -0.2397019
vn 0.8550174 -0.4598785 -0.2397019
vn 0.6556618 -0.7383056 -0.1581531
vn 0.6556618 -0.7383056 -0.1581531
vn 0.6556618 -0.7383056 -0.1581531
vn -0.8810914 0.4723017 0.02467775
vn -0.8810914 0.4723016 0.02467778
vn -0.8810914 0.4723017 0.02467774
vn -0.8589357 0.4546421 0.235648
vn -0.8589357 0.4546422 0.2356479
vn -0.8589358 0.4546421 0.235648
vn -0.6231955 0.774207 0.1105934
vn -0.6231955 0.774207 0.1105935
vn -0.6231954 0.774207 0.1105934
vn -0.7422503 0.6686147 0.04493252
vn -0.7422503 0.6686147 0.04493256
vn -0.7422503 0.6686147 0.04493251
vn -0.7422503 0.6686147 0.04493254
vn -0.7422503 0.6686147 0.04493255
vn -0.8818464 0.4493427 0.1429616
vn -0.8818464 0.4493427 0.1429617
vn -0.8818464 0.4493427 0.1429616
vn -0.8818464 0.4493427 0.1429616
vn -0.7392606 0.6588587 0.1392805
vn -0.7392606 0.6588587 0.1392805
vn -0.7392606 0.6588587 0.1392806
vn -0.687382 0.7053763 0.1730613
vn -0.687382 0.7053764 0.1730613
vn -0.687382 0.7053763 0.1730613
vn -0.687382 0.7053764 0.1730613
vn -0.6846862 0.7251402 0.07332432
vn -0.6846862 0.7251402 0.0733243
vn -0.6846863 0.7251403 0.07332428
vn -0.5965657 0.7975756 0.08934588
vn -0.5965657 0.7975755 0.08934586
vn -0.5965657 0.7975754 0.08934585
vn -0.5965657 0.7975754 0.08934585
vn -0.6049622 0.7889686 0.1074669
vn -0.669673 0.7414307 0.0426442
vn -0.669673 0.7414308 0.04264421
vn -0.669673 0.7414308 0.04264421
vn -0.669673 0.7414308 0.04264421
vn -0.8104243 0.5772003 0.100261
vn -0.8104243 0.5772003 0.100261
vn -0.8104243 0.5772004 0.100261
vn -0.8104243 0.5772003 0.1002611
vn -0.6484568 0.7414074 0.1726813
vn -0.6484568 0.7414074 0.1726813
vn -0.6484568 0.7414074 0.1726813
vn -0.6541006 0.7430592 0.1414761
vn -0.6541006 0.7430592 0.1414761
vn -0.6541007 0.7430592 0.1414761
vn -0.8272309 0.5526659 0.1012404
vn -0.8272308 0.5526659 0.1012403
vn -0.8272308 0.5526659 0.1012403
vn -0.8957691 0.4271271 0.1231262
vn -0.8957692 0.427127 0.1231262
vn -0.8957692 0.4271271 0.1231262
vn -0.8550174 0.4598787 0.239702
vn -0.8550173 0.4598786 0.239702
vn -0.8550173 0.4598786 0.239702
vn -0.655662 0.7383054 0.1581532
vn -0.6556621 0.7383054 0.1581532
vn -0.6556621 0.7383054 0.1581533
g wingL3_0
f 3/3/3 2/2/2 1/1/1
f 6/6/6 5/5/5 4/4/4
f 9/9/9 8/8/8 7/7/7
f 12/12/12 11/11/11 10/10/10
f 10/10/10 13/13/13 12/12/12
f 10/10/10 14/14/14 13/13/13
f 17/17/17 16/16/16 15/15/15
f 18/18/18 17/17/17 15/15/15
f 21/21/21 20/20/20 19/19/19
f 24/24/24 23/23/23 22/22/22
f 25/25/25 24/24/24 22/22/22
f 28/28/28 27/27/27 26/26/26
f 31/31/31 30/30/30 29/29/29
f 32/32/32 31/31/31 29/29/29
f 32/32/32 29/29/29 33/33/33
f 36/36/36 35/35/35 34/34/34
f 37/37/37 36/36/36 34/34/34
f 40/40/40 39/39/39 38/38/38
f 41/41/41 40/40/40 38/38/38
f 44/44/44 43/43/43 42/42/42
f 47/47/47 46/46/46 45/45/45
f 50/50/50 49/49/49 48/48/48
f 53/53/53 52/52/52 51/51/51
f 56/56/56 55/55/55 54/54/54
f 59/59/59 58/58/58 57/57/57
f 62/62/62 61/61/61 60/60/60
f 65/65/65 64/64/64 63/63/63
f 68/68/68 67/67/67 66/66/66
f 71/71/71 70/70/70 69/69/69
f 69/69/69 72/72/72 71/71/71
f 72/72/72 73/73/73 71/71/71
f 76/76/76 75/75/75 74/74/74
f 77/77/77 76/76/76 74/74/74
f 80/80/80 79/79/79 78/78/78
f 83/83/83 82/82/82 81/81/81
f 84/84/84 83/83/83 81/81/81
f 87/87/87 86/86/86 85/85/85
f 90/90/90 89/89/89 88/88/88
f 91/91/91 90/90/90 88/88/88
f 88/88/88 89/89/89 92/92/92
f 95/95/95 94/94/94 93/93/93
f 96/96/96 95/95/95 93/93/93
f 99/99/99 98/98/98 97/97/97
f 100/100/100 99/99/99 97/97/97
f 103/103/103 102/102/102 101/101/101
f 106/106/106 105/105/105 104/104/104
f 109/109/109 108/108/108 107/107/107
f 112/112/112 111/111/111 110/110/110
f 115/115/115 114/114/114 113/113/113
f 118/118/118 117/117/117 116/116/116
