g wingR3
v 0.2751659 -0.1738525 -0.2551077
v 0.1161687 -0.05953659 -0.1682532
v 0.2495315 -0.1904783 -0.09359784
v -0.007699923 -0.01015903 -0.03385142
v 0.02911185 -0.0429423 -0.006484825
v 0.1161687 -0.05953659 -0.1682532
v 0.09707282 -0.04292764 -0.189322
v -0.007829503 -0.02882584 0.03490994
v 0.09707282 -0.04292764 -0.189322
v 0.1161687 -0.05953659 -0.1682532
v 0.2751659 -0.1738525 -0.2551077
v 0.2678598 -0.1503608 -0.3305751
v 0.2678598 -0.1503608 -0.3305751
v 0.2751659 -0.1738525 -0.2551077
v 0.3843617 -0.3247078 -0.2445099
v 0.3982688 -0.3017744 -0.3467339
v 0.2373537 -0.2520805 0.1096969
v 0.02911185 -0.0429423 -0.006484825
v -0.007829503 -0.02882584 0.03490994
v 0.02911185 -0.0429423 -0.006484825
v 0.2495315 -0.1904783 -0.09359784
v 0.1161687 -0.05953659 -0.1682532
v 0.3843617 -0.3247078 -0.2445099
v 0.2751659 -0.1738525 -0.2551077
v 0.2495315 -0.1904783 -0.09359784
v 0.2373537 -0.2520805 0.1096969
v 0.3142879 -0.3287113 -0.05310788
v 0.2495315 -0.1904783 -0.09359784
v 0.3142879 -0.3287113 -0.05310788
v 0.3843617 -0.3247078 -0.2445099
v 0.2495315 -0.1904783 -0.09359784
v 0.02911185 -0.0429423 -0.006484825
v 0.2373537 -0.2520805 0.1096969
v 0.2495315 -0.1904783 -0.09359784
v 0.1663002 -0.3160148 0.0963429
v 0.09721021 -0.1651753 0.03818586
v 0.0924141 -0.1859097 0.1857572
v 0.03226696 -0.1978863 0.4096811
v 0.1565438 -0.380825 0.2911267
v 0.05938224 -0.2017503 0.3357444
v -0.02474208 -0.03081311 0.101524
v -0.03526612 -0.06689747 0.2537827
v 0.001937254 -0.09399058 0.2360698
v 0.001937254 -0.09399058 0.2360698
v 0.0924141 -0.1859097 0.1857572
v 0.09721021 -0.1651753 0.03818586
v -0.008404867 -0.03636183 0.04927215
v -0.02474208 -0.03081311 0.101524
v 0.05938224 -0.2017503 0.3357444
v 0.1565438 -0.380825 0.2911267
v 0.1663002 -0.3160148 0.0963429
v 0.0924141 -0.1859097 0.1857572
v 0.001937254 -0.09399058 0.2360698
v 0.05938224 -0.2017503 0.3357444
v 0.0924141 -0.1859097 0.1857572
v -0.03526612 -0.06689747 0.2537827
v 0.03226696 -0.1978863 0.4096811
v 0.05938224 -0.2017503 0.3357444
v 0.001937254 -0.09399058 0.2360698
v 0.2751659 -0.1738525 -0.2551077
v 0.2495315 -0.1904783 -0.09359784
v 0.1161687 -0.05953659 -0.1682532
v -0.007699923 -0.01015903 -0.03385142
v 0.09707282 -0.04292764 -0.189322
v 0.1161687 -0.05953659 -0.1682532
v 0.02911185 -0.0429423 -0.006484825
v -0.007829503 -0.02882584 0.03490994
v 0.09707282 -0.04292764 -0.189322
v 0.2678598 -0.1503608 -0.3305751
v 0.2751659 -0.1738525 -0.2551077
v 0.1161687 -0.05953659 -0.1682532
v 0.2678598 -0.1503608 -0.3305751
v 0.3982688 -0.3017744 -0.3467339
v 0.3843617 -0.3247078 -0.2445099
v 0.2751659 -0.1738525 -0.2551077
v 0.2373537 -0.2520805 0.1096969
v -0.007829503 -0.02882584 0.03490994
v 0.02911185 -0.0429423 -0.006484825
v 0.02911185 -0.0429423 -0.006484825
v 0.1161687 -0.05953659 -0.1682532
v 0.2495315 -0.1904783 -0.09359784
v 0.3843617 -0.3247078 -0.2445099
v 0.2495315 -0.1904783 -0.09359784
v 0.2751659 -0.1738525 -0.2551077
v 0.2373537 -0.2520805 0.1096969
v 0.2495315 -0.1904783 -0.09359784
v 0.3142879 -0.3287113 -0.05310788
v 0.3142879 -0.3287113 -0.05310788
v 0.2495315 -0.1904783 -0.09359784
v 0.3843617 -0.3247078 -0.2445099
v 0.02911185 -0.0429423 -0.006484825
v 0.2495315 -0.1904783 -0.09359784
v 0.2373537 -0.2520805 0.1096969
v 0.1663002 -0.3160148 0.0963429
v 0.0924141 -0.1859097 0.1857572
v 0.09721021 -0.1651753 0.03818586
v 0.03226696 -0.1978863 0.4096811
v 0.05938224 -0.2017503 0.3357444
v 0.1565438 -0.380825 0.2911267
v -0.02474208 -0.03081311 0.101524
v 0.001937254 -0.09399058 0.2360698
v -0.03526612 -0.06689747 0.2537827
v 0.09721021 -0.1651753 0.03818586
v 0.0924141 -0.1859097 0.1857572
v 0.001937254 -0.09399058 0.2360698
v -0.008404867 -0.03636183 0.04927215
v -0.02474208 -0.03081311 0.101524
v 0.05938224 -0.2017503 0.3357444
v 0.0924141 -0.1859097 0.1857572
v 0.1663002 -0.3160148 0.0963429
v 0.1565438 -0.380825 0.2911267
v 0.001937254 -0.09399058 0.2360698
v 0.0924141 -0.1859097 0.1857572
v 0.05938224 -0.2017503 0.3357444
v -0.03526612 -0.06689747 0.2537827
v 0.001937254 -0.09399058 0.2360698
v 0.05938224 -0.2017503 0.3357444
v 0.03226696 -0.1978863 0.4096811
vt 0.30181 0.9764014
vt 0.348451 0.9570089
vt 0.3049789 0.9378585
vt 0.468624 0.4518665
vt 0.4621853 0.448079
vt 0.4514535 0.4700017
vt 0.4547319 0.4728515
vt 0.4673098 0.4424857
vt 0.4547319 0.4728515
vt 0.4514535 0.4700017
vt 0.4251094 0.4809551
vt 0.427625 0.4912127
vt 0.427625 0.4912127
vt 0.4251094 0.4809551
vt 0.400589 0.4776633
vt 0.4008192 0.4916959
vt 0.4236597 0.4311317
vt 0.4621853 0.448079
vt 0.4673098 0.4424857
vt 0.2376674 0.5448917
vt 0.1875104 0.5606782
vt 0.2224127 0.5760535
vt 0.1501118 0.5869439
vt 0.1849662 0.5916232
vt 0.1875104 0.5606782
vt 0.1829054 0.5208021
vt 0.1606192 0.5499727
vt 0.1875104 0.5606782
vt 0.271485 0.9245242
vt 0.2583976 0.9705732
vt 0.3049789 0.9378585
vt 0.3674511 0.9181957
vt 0.2992433 0.8881913
vt 0.3049789 0.9378585
vt 0.1686292 0.5839435
vt 0.1981237 0.5981125
vt 0.1976747 0.5702935
vt 0.4517227 0.3888152
vt 0.4215828 0.4016424
vt 0.4484637 0.398615
vt 0.4706355 0.4314191
vt 0.4691906 0.4108785
vt 0.4632712 0.4130664
vt 0.3466004 0.9363911
vt 0.3191547 0.9454065
vt 0.3196566 0.9764982
vt 0.354542 0.9765174
vt 0.3583391 0.965645
vt 0.3229976 0.9133556
vt 0.2801498 0.9181813
vt 0.2866921 0.9606624
vt 0.3191547 0.9454065
vt 0.2222314 0.5622271
vt 0.201113 0.5416164
vt 0.1976747 0.5702935
vt 0.4691906 0.4108785
vt 0.4517227 0.3888152
vt 0.4484637 0.398615
vt 0.4632712 0.4130664
vt 0.30181 0.9764014
vt 0.3049789 0.9378585
vt 0.348451 0.9570089
vt 0.468624 0.4518665
vt 0.4547319 0.4728515
vt 0.4514535 0.4700017
vt 0.4621853 0.448079
vt 0.4673098 0.4424857
vt 0.4547319 0.4728515
vt 0.427625 0.4912127
vt 0.4251094 0.4809551
vt 0.4514535 0.4700017
vt 0.427625 0.4912127
vt 0.4008192 0.4916959
vt 0.400589 0.4776633
vt 0.4251094 0.4809551
vt 0.4236597 0.4311317
vt 0.4673098 0.4424857
vt 0.4621853 0.448079
vt 0.2376674 0.5448917
vt 0.2224127 0.5760535
vt 0.1875104 0.5606782
vt 0.1501118 0.5869439
vt 0.1875104 0.5606782
vt 0.1849662 0.5916232
vt 0.1829054 0.5208021
vt 0.1875104 0.5606782
vt 0.1606192 0.5499727
vt 0.271485 0.9245242
vt 0.3049789 0.9378585
vt 0.2583976 0.9705732
vt 0.3674511 0.9181957
vt 0.3049789 0.9378585
vt 0.2992433 0.8881913
vt 0.1686292 0.5839435
vt 0.1976747 0.5702935
vt 0.1981237 0.5981125
vt 0.4517227 0.3888152
vt 0.4484637 0.398615
vt 0.4215828 0.4016424
vt 0.4706355 0.4314191
vt 0.4632712 0.4130664
vt 0.4691906 0.4108785
vt 0.3196566 0.9764982
vt 0.3191547 0.9454065
vt 0.3466004 0.9363911
vt 0.354542 0.9765174
vt 0.3583391 0.965645
vt 0.3229976 0.9133556
vt 0.3191547 0.9454065
vt 0.2866921 0.9606624
vt 0.2801498 0.9181813
vt 0.2222314 0.5622271
vt 0.1976747 0.5702935
vt 0.201113 0.5416164
vt 0.4691906 0.4108785
vt 0.4632712 0.4130664
vt 0.4484637 0.398615
vt 0.4517227 0.3888152
vn -0.6367519 -0.750174 -0.1782867
vn -0.6367519 -0.750174 -0.1782867
vn -0.6367518 -0.7501739 -0.1782867
vn -0.5441008 -0.8142637 -0.2023093
vn -0.5441007 -0.8142637 -0.2023093
vn -0.5441007 -0.8142637 -0.2023093
vn -0.5441008 -0.8142637 -0.2023093
vn -0.5528966 -0.803881 -0.2192732
vn -0.6209538 -0.7694042 -0.1497791
vn -0.6209538 -0.7694042 -0.1497791
vn -0.6209538 -0.7694042 -0.1497791
vn -0.6209538 -0.7694041 -0.1497791
vn -0.7714314 -0.6080537 -0.1875216
vn -0.7714314 -0.6080537 -0.1875216
vn -0.7714314 -0.6080537 -0.1875216
vn -0.7714314 -0.6080537 -0.1875216
vn -0.5988592 -0.750925 -0.2783509
vn -0.5988592 -0.750925 -0.2783509
vn -0.5988592 -0.750925 -0.2783509
vn -0.6046087 -0.7570229 -0.2477189
vn -0.6046087 -0.7570229 -0.247719
vn -0.6046088 -0.7570229 -0.2477189
vn -0.7897531 -0.5846933 -0.1855365
vn -0.7897531 -0.5846933 -0.1855365
vn -0.7897531 -0.5846933 -0.1855364
vn -0.8659632 -0.4618562 -0.1918242
vn -0.8659632 -0.4618562 -0.1918242
vn -0.8659632 -0.4618562 -0.1918242
vn -0.8223908 -0.4763647 -0.311047
vn -0.8223908 -0.4763647 -0.311047
vn -0.8223908 -0.4763646 -0.311047
vn -0.606351 -0.7502176 -0.2636516
vn -0.606351 -0.7502176 -0.2636516
vn -0.606351 -0.7502176 -0.2636516
vn -0.8915745 -0.4435756 -0.09129994
vn -0.8915744 -0.4435756 -0.09129997
vn -0.8915744 -0.4435756 -0.09129998
vn -0.8682423 -0.3969205 -0.2976733
vn -0.8682423 -0.3969204 -0.2976733
vn -0.8682423 -0.3969205 -0.2976733
vn -0.640343 -0.7362797 -0.2187536
vn -0.640343 -0.7362797 -0.2187536
vn -0.6403429 -0.7362797 -0.2187536
vn -0.75719 -0.6382487 -0.1389315
vn -0.7571899 -0.6382487 -0.1389315
vn -0.7571899 -0.6382487 -0.1389315
vn -0.7571899 -0.6382487 -0.1389315
vn -0.7571899 -0.6382487 -0.1389315
vn -0.8913676 -0.4041871 -0.2051744
vn -0.8913676 -0.4041872 -0.2051745
vn -0.8913676 -0.4041871 -0.2051745
vn -0.8913676 -0.4041872 -0.2051745
vn -0.7536297 -0.615384 -0.2309649
vn -0.7536297 -0.6153841 -0.2309649
vn -0.7536297 -0.6153841 -0.2309649
vn -0.7027051 -0.6578749 -0.2709357
vn -0.7027051 -0.6578749 -0.2709356
vn -0.7027051 -0.6578749 -0.2709356
vn -0.7027051 -0.6578749 -0.2709356
vn 0.636752 0.7501739 0.1782865
vn 0.6367521 0.7501737 0.1782865
vn 0.6367522 0.7501737 0.1782864
vn 0.5441006 0.8142638 0.2023093
vn 0.5441006 0.8142638 0.2023093
vn 0.5441006 0.8142638 0.2023093
vn 0.5441006 0.8142638 0.2023093
vn 0.5528972 0.8038808 0.2192727
vn 0.6209536 0.7694042 0.1497792
vn 0.6209537 0.7694042 0.1497792
vn 0.6209536 0.7694042 0.1497792
vn 0.6209536 0.7694042 0.1497792
vn 0.7714313 0.6080538 0.1875217
vn 0.7714312 0.6080537 0.1875217
vn 0.7714312 0.6080537 0.1875217
vn 0.7714312 0.6080537 0.1875217
vn 0.5988592 0.750925 0.278351
vn 0.5988592 0.750925 0.278351
vn 0.5988592 0.750925 0.278351
vn 0.6046087 0.7570229 0.2477189
vn 0.6046088 0.7570229 0.2477189
vn 0.6046087 0.7570229 0.247719
vn 0.7897534 0.584693 0.1855363
vn 0.7897534 0.584693 0.1855363
vn 0.7897533 0.5846931 0.1855363
vn 0.8659632 0.4618563 0.1918243
vn 0.8659632 0.4618563 0.1918243
vn 0.8659632 0.4618563 0.1918243
vn 0.8223908 0.4763647 0.311047
vn 0.8223908 0.4763646 0.311047
vn 0.8223908 0.4763647 0.311047
vn 0.606351 0.7502176 0.2636516
vn 0.606351 0.7502176 0.2636516
vn 0.606351 0.7502176 0.2636516
vn 0.8915746 0.4435753 0.09129984
vn 0.8915746 0.4435753 0.09129981
vn 0.8915746 0.4435753 0.09129985
vn 0.8682423 0.3969205 0.2976733
vn 0.8682423 0.3969205 0.2976733
vn 0.8682423 0.3969204 0.2976733
vn 0.6403419 0.7362804 0.2187544
vn 0.6403419 0.7362803 0.2187544
vn 0.6403419 0.7362804 0.2187544
vn 0.7571897 0.6382489 0.1389318
vn 0.7571897 0.6382489 0.1389318
vn 0.7571897 0.6382489 0.1389318
vn 0.7571897 0.6382489 0.1389318
vn 0.7571897 0.6382489 0.1389318
vn 0.8913676 0.4041871 0.2051744
vn 0.8913676 0.4041872 0.2051744
vn 0.8913676 0.4041871 0.2051744
vn 0.8913676 0.4041872 0.2051744
vn 0.7536296 0.6153841 0.2309649
vn 0.7536296 0.6153841 0.2309649
vn 0.7536296 0.6153841 0.2309649
vn 0.7027051 0.6578749 0.2709356
vn 0.7027051 0.6578749 0.2709356
vn 0.7027051 0.6578749 0.2709356
vn 0.7027051 0.6578749 0.2709356
g wingR3_0
f 3/3/3 2/2/2 1/1/1
f 6/6/6 5/5/5 4/4/4
f 7/7/7 6/6/6 4/4/4
f 4/4/4 5/5/5 8/8/8
f 11/11/11 10/10/10 9/9/9
f 12/12/12 11/11/11 9/9/9
f 15/15/15 14/14/14 13/13/13
f 16/16/16 15/15/15 13/13/13
f 19/19/19 18/18/18 17/17/17
f 22/22/22 21/21/21 20/20/20
f 25/25/25 24/24/24 23/23/23
f 28/28/28 27/27/27 26/26/26
f 31/31/31 30/30/30 29/29/29
f 34/34/34 33/33/33 32/32/32
f 37/37/37 36/36/36 35/35/35
f 40/40/40 39/39/39 38/38/38
f 43/43/43 42/42/42 41/41/41
f 46/46/46 45/45/45 44/44/44
f 44/44/44 47/47/47 46/46/46
f 44/44/44 48/48/48 47/47/47
f 51/51/51 50/50/50 49/49/49
f 52/52/52 51/51/51 49/49/49
f 55/55/55 54/54/54 53/53/53
f 58/58/58 57/57/57 56/56/56
f 59/59/59 58/58/58 56/56/56
f 62/62/62 61/61/61 60/60/60
f 65/65/65 64/64/64 63/63/63
f 66/66/66 65/65/65 63/63/63
f 66/66/66 63/63/63 67/67/67
f 70/70/70 69/69/69 68/68/68
f 71/71/71 70/70/70 68/68/68
f 74/74/74 73/73/73 72/72/72
f 75/75/75 74/74/74 72/72/72
f 78/78/78 77/77/77 76/76/76
f 81/81/81 80/80/80 79/79/79
f 84/84/84 83/83/83 82/82/82
f 87/87/87 86/86/86 85/85/85
f 90/90/90 89/89/89 88/88/88
f 93/93/93 92/92/92 91/91/91
f 96/96/96 95/95/95 94/94/94
f 99/99/99 98/98/98 97/97/97
f 102/102/102 101/101/101 100/100/100
f 105/105/105 104/104/104 103/103/103
f 103/103/103 106/106/106 105/105/105
f 106/106/106 107/107/107 105/105/105
f 110/110/110 109/109/109 108/108/108
f 111/111/111 110/110/110 108/108/108
f 114/114/114 113/113/113 112/112/112
f 117/117/117 116/116/116 115/115/115
f 118/118/118 117/117/117 115/115/115
