g wingL2
v -0.142743 -0.2951879 0.1321237
v -0.09241558 -0.1423656 0.1991604
v -0.08744148 -0.1497256 0.05032728
v -0.04995469 -0.1052429 0.4243759
v -0.07022829 -0.1260747 0.3510831
v -0.1414843 -0.321503 0.3359427
v 0.01209625 0.008822038 0.09382615
v -0.01792265 -0.03169779 0.2361735
v 0.01422121 0.00283642 0.2505271
v 0.0008983213 -0.00827317 0.04273505
v -0.08744148 -0.1497256 0.05032728
v -0.09241558 -0.1423656 0.1991604
v -0.01792265 -0.03169779 0.2361735
v 0.01209625 0.008822038 0.09382615
v -0.07022829 -0.1260747 0.3510831
v -0.09241558 -0.1423656 0.1991604
v -0.142743 -0.2951879 0.1321237
v -0.1414843 -0.321503 0.3359427
v -0.01792265 -0.03169779 0.2361735
v -0.09241558 -0.1423656 0.1991604
v -0.07022829 -0.1260747 0.3510831
v 0.01422121 0.00283642 0.2505271
v -0.01792265 -0.03169779 0.2361735
v -0.07022829 -0.1260747 0.3510831
v -0.04995469 -0.1052429 0.4243759
v -0.2669164 -0.21361 -0.2449668
v -0.2513352 -0.1978505 -0.0820932
v -0.112861 -0.08340339 -0.1728207
v 0.002826949 -0.007683442 -0.04348307
v -0.09240953 -0.07116394 -0.1955437
v -0.112861 -0.08340339 -0.1728207
v -0.03579001 -0.03464513 -0.01248973
v -0.001372675 -0.01240139 0.02748669
v -0.09240953 -0.07116394 -0.1955437
v -0.2548551 -0.2054403 -0.3229948
v -0.2669164 -0.21361 -0.2449668
v -0.112861 -0.08340339 -0.1728207
v -0.2548551 -0.2054403 -0.3229948
v -0.3849352 -0.3578729 -0.316894
v -0.3774612 -0.3600785 -0.2114978
v -0.2669164 -0.21361 -0.2449668
v -0.2520176 -0.2180125 0.1297203
v -0.001372675 -0.01240139 0.02748669
v -0.03579001 -0.03464513 -0.01248973
v -0.03579001 -0.03464513 -0.01248973
v -0.112861 -0.08340339 -0.1728207
v -0.2513352 -0.1978505 -0.0820932
v -0.3774612 -0.3600785 -0.2114978
v -0.2513352 -0.1978505 -0.0820932
v -0.2669164 -0.21361 -0.2449668
v -0.2520176 -0.2180125 0.1297203
v -0.2513352 -0.1978505 -0.0820932
v -0.3192822 -0.3257651 -0.01914679
v -0.3192822 -0.3257651 -0.01914679
v -0.2513352 -0.1978505 -0.0820932
v -0.3774612 -0.3600785 -0.2114978
v -0.03579001 -0.03464513 -0.01248973
v -0.2513352 -0.1978505 -0.0820932
v -0.2520176 -0.2180125 0.1297203
v -0.142743 -0.2951879 0.1321237
v -0.08744148 -0.1497256 0.05032728
v -0.09241558 -0.1423656 0.1991604
v -0.04995469 -0.1052429 0.4243759
v -0.1414843 -0.321503 0.3359427
v -0.07022829 -0.1260747 0.3510831
v 0.01209625 0.008822038 0.09382615
v 0.01422121 0.00283642 0.2505271
v -0.01792265 -0.03169779 0.2361735
v -0.09241558 -0.1423656 0.1991604
v -0.08744148 -0.1497256 0.05032728
v 0.0008983213 -0.00827317 0.04273505
v -0.01792265 -0.03169779 0.2361735
v 0.01209625 0.008822038 0.09382615
v -0.07022829 -0.1260747 0.3510831
v -0.1414843 -0.321503 0.3359427
v -0.142743 -0.2951879 0.1321237
v -0.09241558 -0.1423656 0.1991604
v -0.01792265 -0.03169779 0.2361735
v -0.07022829 -0.1260747 0.3510831
v -0.09241558 -0.1423656 0.1991604
v 0.01422121 0.00283642 0.2505271
v -0.04995469 -0.1052429 0.4243759
v -0.07022829 -0.1260747 0.3510831
v -0.01792265 -0.03169779 0.2361735
v -0.2669164 -0.21361 -0.2449668
v -0.112861 -0.08340339 -0.1728207
v -0.2513352 -0.1978505 -0.0820932
v 0.002826949 -0.007683442 -0.04348307
v -0.03579001 -0.03464513 -0.01248973
v -0.112861 -0.08340339 -0.1728207
v -0.09240953 -0.07116394 -0.1955437
v -0.001372675 -0.01240139 0.02748669
v -0.09240953 -0.07116394 -0.1955437
v -0.112861 -0.08340339 -0.1728207
v -0.2669164 -0.21361 -0.2449668
v -0.2548551 -0.2054403 -0.3229948
v -0.2548551 -0.2054403 -0.3229948
v -0.2669164 -0.21361 -0.2449668
v -0.3774612 -0.3600785 -0.2114978
v -0.3849352 -0.3578729 -0.316894
v -0.2520176 -0.2180125 0.1297203
v -0.03579001 -0.03464513 -0.01248973
v -0.001372675 -0.01240139 0.02748669
v -0.03579001 -0.03464513 -0.01248973
v -0.2513352 -0.1978505 -0.0820932
v -0.112861 -0.08340339 -0.1728207
v -0.3774612 -0.3600785 -0.2114978
v -0.2669164 -0.21361 -0.2449668
v -0.2513352 -0.1978505 -0.0820932
v -0.2520176 -0.2180125 0.1297203
v -0.3192822 -0.3257651 -0.01914679
v -0.2513352 -0.1978505 -0.0820932
v -0.3192822 -0.3257651 -0.01914679
v -0.3774612 -0.3600785 -0.2114978
v -0.2513352 -0.1978505 -0.0820932
v -0.03579001 -0.03464513 -0.01248973
v -0.2520176 -0.2180125 0.1297203
v -0.2513352 -0.1978505 -0.0820932
vt 0.1623091 0.4588051
vt 0.1913546 0.4451551
vt 0.1918036 0.472974
vt 0.08009946 0.1309541
vt 0.07684052 0.140754
vt 0.0499596 0.1437814
vt 0.09901232 0.1735581
vt 0.09164798 0.1552054
vt 0.09756738 0.1530175
vt 0.2382517 0.3508253
vt 0.2033663 0.3508061
vt 0.2028645 0.3197144
vt 0.2303101 0.310699
vt 0.2420488 0.3399529
vt 0.2067073 0.2876635
vt 0.2028645 0.3197144
vt 0.1704019 0.3349702
vt 0.1638595 0.2924892
vt 0.2159113 0.4370887
vt 0.1913546 0.4451551
vt 0.1947929 0.416478
vt 0.09756738 0.1530175
vt 0.09164798 0.1552054
vt 0.07684052 0.140754
vt 0.08009946 0.1309541
vt 0.1855197 0.3507093
vt 0.1886886 0.3121663
vt 0.2321607 0.3313168
vt 0.09700078 0.1940055
vt 0.08310872 0.2149905
vt 0.07983029 0.2121407
vt 0.09056211 0.190218
vt 0.09568661 0.1846247
vt 0.08310872 0.2149905
vt 0.05600181 0.2333517
vt 0.05348623 0.2230941
vt 0.07983029 0.2121407
vt 0.05600181 0.2333517
vt 0.02919593 0.2338349
vt 0.02896577 0.2198023
vt 0.05348623 0.2230941
vt 0.05203646 0.1732707
vt 0.09568661 0.1846247
vt 0.09056211 0.190218
vt 0.2313473 0.4197533
vt 0.2160926 0.450915
vt 0.1811903 0.4355398
vt 0.1437917 0.4618055
vt 0.1811903 0.4355398
vt 0.1786461 0.4664848
vt 0.1765853 0.3956637
vt 0.1811903 0.4355398
vt 0.1542991 0.4248343
vt 0.1551947 0.2988321
vt 0.1886886 0.3121663
vt 0.1421074 0.3448811
vt 0.2511609 0.2925036
vt 0.1886886 0.3121663
vt 0.182953 0.2624992
vt 0.1623091 0.4588051
vt 0.1918036 0.472974
vt 0.1913546 0.4451551
vt 0.08009946 0.1309541
vt 0.0499596 0.1437814
vt 0.07684052 0.140754
vt 0.09901232 0.1735581
vt 0.09756738 0.1530175
vt 0.09164798 0.1552054
vt 0.2028645 0.3197144
vt 0.2033663 0.3508061
vt 0.2382517 0.3508253
vt 0.2303101 0.310699
vt 0.2420488 0.3399529
vt 0.2067073 0.2876635
vt 0.1638595 0.2924892
vt 0.1704019 0.3349702
vt 0.2028645 0.3197144
vt 0.2159113 0.4370887
vt 0.1947929 0.416478
vt 0.1913546 0.4451551
vt 0.09756738 0.1530175
vt 0.08009946 0.1309541
vt 0.07684052 0.140754
vt 0.09164798 0.1552054
vt 0.1855197 0.3507093
vt 0.2321607 0.3313168
vt 0.1886886 0.3121663
vt 0.09700078 0.1940055
vt 0.09056211 0.190218
vt 0.07983029 0.2121407
vt 0.08310872 0.2149905
vt 0.09568661 0.1846247
vt 0.08310872 0.2149905
vt 0.07983029 0.2121407
vt 0.05348623 0.2230941
vt 0.05600181 0.2333517
vt 0.05600181 0.2333517
vt 0.05348623 0.2230941
vt 0.02896577 0.2198023
vt 0.02919593 0.2338349
vt 0.05203646 0.1732707
vt 0.09056211 0.190218
vt 0.09568661 0.1846247
vt 0.2313473 0.4197533
vt 0.1811903 0.4355398
vt 0.2160926 0.450915
vt 0.1437917 0.4618055
vt 0.1786461 0.4664848
vt 0.1811903 0.4355398
vt 0.1765853 0.3956637
vt 0.1542991 0.4248343
vt 0.1811903 0.4355398
vt 0.1551947 0.2988321
vt 0.1421074 0.3448811
vt 0.1886886 0.3121663
vt 0.2511609 0.2925036
vt 0.182953 0.2624992
vt 0.1886886 0.3121663
vn 0.9423028 -0.3313203 0.04787845
vn 0.9423028 -0.3313202 0.04787847
vn 0.9423028 -0.3313202 0.04787844
vn 0.9307163 -0.3265994 -0.1646209
vn 0.9307163 -0.3265993 -0.164621
vn 0.9307163 -0.3265993 -0.164621
vn 0.7388807 -0.6728887 -0.03572242
vn 0.7388807 -0.6728888 -0.0357224
vn 0.7388807 -0.6728888 -0.03572243
vn 0.8363088 -0.547405 0.03058236
vn 0.8363088 -0.547405 0.03058235
vn 0.8363089 -0.5474051 0.03058238
vn 0.8363088 -0.547405 0.03058236
vn 0.8363089 -0.5474051 0.03058238
vn 0.9468287 -0.3137511 -0.07124329
vn 0.9468287 -0.313751 -0.07124329
vn 0.9468287 -0.3137511 -0.07124332
vn 0.9468287 -0.313751 -0.0712433
vn 0.8376712 -0.5423917 -0.06417456
vn 0.8376712 -0.5423917 -0.06417457
vn 0.8376712 -0.5423917 -0.06417456
vn 0.7956105 -0.5977979 -0.0981927
vn 0.7956105 -0.5977979 -0.09819271
vn 0.7956105 -0.5977979 -0.09819271
vn 0.7956105 -0.5977979 -0.09819269
vn 0.641968 -0.7666252 0.01276322
vn 0.641968 -0.7666252 0.01276321
vn 0.641968 -0.7666252 0.01276322
vn 0.5505816 -0.8347728 -0.003762409
vn 0.5505816 -0.8347728 -0.003762408
vn 0.5505816 -0.8347728 -0.003762409
vn 0.5505816 -0.8347728 -0.003762378
vn 0.5604638 -0.8278901 -0.02186912
vn 0.6243356 -0.7799451 0.04348211
vn 0.6243356 -0.7799451 0.04348211
vn 0.6243356 -0.7799451 0.04348213
vn 0.6243357 -0.7799451 0.04348212
vn 0.7778115 -0.6282918 -0.01608581
vn 0.7778114 -0.6282918 -0.01608587
vn 0.7778115 -0.6282918 -0.01608583
vn 0.7778114 -0.6282918 -0.01608588
vn 0.6102806 -0.7873591 -0.08731228
vn 0.6102806 -0.7873591 -0.0873123
vn 0.6102804 -0.7873591 -0.08731229
vn 0.6141019 -0.7872527 -0.05578588
vn 0.6141019 -0.7872527 -0.05578588
vn 0.6141019 -0.7872527 -0.05578588
vn 0.7961174 -0.6048854 -0.01763161
vn 0.7961174 -0.6048854 -0.01763164
vn 0.7961174 -0.6048854 -0.01763161
vn 0.8733062 -0.485237 -0.04337538
vn 0.8733062 -0.485237 -0.04337537
vn 0.8733062 -0.485237 -0.04337538
vn 0.8370399 -0.5232782 -0.1598254
vn 0.8370399 -0.5232782 -0.1598254
vn 0.8370399 -0.5232782 -0.1598254
vn 0.6168589 -0.7837172 -0.07261259
vn 0.6168588 -0.7837172 -0.07261261
vn 0.6168589 -0.7837172 -0.07261262
vn -0.9423028 0.3313203 -0.04787845
vn -0.9423028 0.3313202 -0.04787842
vn -0.9423028 0.3313202 -0.04787844
vn -0.9307163 0.3265994 0.1646209
vn -0.9307163 0.3265994 0.164621
vn -0.9307163 0.3265994 0.164621
vn -0.7388806 0.6728887 0.03572342
vn -0.7388807 0.6728886 0.03572334
vn -0.7388807 0.6728887 0.03572338
vn -0.8363088 0.547405 -0.03058231
vn -0.8363089 0.547405 -0.0305823
vn -0.8363088 0.547405 -0.03058229
vn -0.8363088 0.547405 -0.03058226
vn -0.8363088 0.547405 -0.03058229
vn -0.9468287 0.3137511 0.07124372
vn -0.9468287 0.3137511 0.07124373
vn -0.9468287 0.3137511 0.07124373
vn -0.9468287 0.3137511 0.0712437
vn -0.8376712 0.5423917 0.06417526
vn -0.8376712 0.5423917 0.06417532
vn -0.8376712 0.5423916 0.06417529
vn -0.7956105 0.5977979 0.09819272
vn -0.7956105 0.5977979 0.09819275
vn -0.7956105 0.5977979 0.09819275
vn -0.7956105 0.5977979 0.09819274
vn -0.6419682 0.7666251 -0.01276291
vn -0.6419682 0.7666251 -0.01276291
vn -0.6419682 0.7666251 -0.01276291
vn -0.5505815 0.8347729 0.003762409
vn -0.5505813 0.834773 0.003762439
vn -0.5505813 0.834773 0.003762439
vn -0.5505814 0.834773 0.003762409
vn -0.5604641 0.8278899 0.0218695
vn -0.6243356 0.7799451 -0.04348244
vn -0.6243356 0.7799451 -0.04348244
vn -0.6243356 0.7799451 -0.04348243
vn -0.6243356 0.7799451 -0.04348242
vn -0.7778113 0.628292 0.0160863
vn -0.7778114 0.6282919 0.01608624
vn -0.7778113 0.628292 0.01608629
vn -0.7778114 0.628292 0.01608627
vn -0.6102805 0.7873591 0.08731228
vn -0.6102804 0.7873591 0.0873123
vn -0.6102804 0.7873591 0.0873123
vn -0.614102 0.7872525 0.05578583
vn -0.6141019 0.7872527 0.05578588
vn -0.6141019 0.7872527 0.05578588
vn -0.7961174 0.6048854 0.01763161
vn -0.7961174 0.6048854 0.01763161
vn -0.7961174 0.6048854 0.01763164
vn -0.8733062 0.485237 0.04337518
vn -0.8733062 0.485237 0.04337516
vn -0.8733062 0.485237 0.04337516
vn -0.8370398 0.5232783 0.1598256
vn -0.8370398 0.5232783 0.1598256
vn -0.8370398 0.5232783 0.1598256
vn -0.6168589 0.7837172 0.07261259
vn -0.6168589 0.7837172 0.07261262
vn -0.6168588 0.7837172 0.07261261
g wingL2_0
f 3/3/3 2/2/2 1/1/1
f 6/6/6 5/5/5 4/4/4
f 9/9/9 8/8/8 7/7/7
f 12/12/12 11/11/11 10/10/10
f 10/10/10 13/13/13 12/12/12
f 10/10/10 14/14/14 13/13/13
f 17/17/17 16/16/16 15/15/15
f 18/18/18 17/17/17 15/15/15
f 21/21/21 20/20/20 19/19/19
f 24/24/24 23/23/23 22/22/22
f 25/25/25 24/24/24 22/22/22
f 28/28/28 27/27/27 26/26/26
f 31/31/31 30/30/30 29/29/29
f 32/32/32 31/31/31 29/29/29
f 32/32/32 29/29/29 33/33/33
f 36/36/36 35/35/35 34/34/34
f 37/37/37 36/36/36 34/34/34
f 40/40/40 39/39/39 38/38/38
f 41/41/41 40/40/40 38/38/38
f 44/44/44 43/43/43 42/42/42
f 47/47/47 46/46/46 45/45/45
f 50/50/50 49/49/49 48/48/48
f 53/53/53 52/52/52 51/51/51
f 56/56/56 55/55/55 54/54/54
f 59/59/59 58/58/58 57/57/57
f 62/62/62 61/61/61 60/60/60
f 65/65/65 64/64/64 63/63/63
f 68/68/68 67/67/67 66/66/66
f 71/71/71 70/70/70 69/69/69
f 69/69/69 72/72/72 71/71/71
f 72/72/72 73/73/73 71/71/71
f 76/76/76 75/75/75 74/74/74
f 77/77/77 76/76/76 74/74/74
f 80/80/80 79/79/79 78/78/78
f 83/83/83 82/82/82 81/81/81
f 84/84/84 83/83/83 81/81/81
f 87/87/87 86/86/86 85/85/85
f 90/90/90 89/89/89 88/88/88
f 91/91/91 90/90/90 88/88/88
f 88/88/88 89/89/89 92/92/92
f 95/95/95 94/94/94 93/93/93
f 96/96/96 95/95/95 93/93/93
f 99/99/99 98/98/98 97/97/97
f 100/100/100 99/99/99 97/97/97
f 103/103/103 102/102/102 101/101/101
f 106/106/106 105/105/105 104/104/104
f 109/109/109 108/108/108 107/107/107
f 112/112/112 111/111/111 110/110/110
f 115/115/115 114/114/114 113/113/113
f 118/118/118 117/117/117 116/116/116
