g hexCursorGeo01
v 1.437625 0.09985268 0.8814864
v -2.622604E-05 0.09985268 1.711475
v -1.437624 0.09985268 0.8814864
v 1.437625 0.09985268 -0.778545
v -1.437624 0.09985268 -0.778545
v -2.622604E-05 0.09985268 -1.608534
v -2.622604E-05 0.09985268 1.711475
v -2.622604E-05 0.6976295 1.812
v -1.524663 0.6976295 0.9317219
v -1.437624 0.09985268 0.8814864
v 1.437625 0.09985268 0.8814864
v 1.524665 0.6976295 0.9317219
v -2.622604E-05 0.6976295 1.812
v -2.622604E-05 0.09985268 1.711475
v -2.622604E-05 0.09985268 -1.608534
v -2.622604E-05 0.6976295 -1.709059
v 1.524665 0.6976295 -0.8287806
v 1.437625 0.09985268 -0.778545
v -1.437624 0.09985268 -0.778545
v -1.524663 0.6976295 -0.8287806
v -2.622604E-05 0.6976295 -1.709059
v -2.622604E-05 0.09985268 -1.608534
v 1.437625 0.09985268 -0.778545
v 1.524665 0.6976295 -0.8287806
v 1.524665 0.6976295 0.9317219
v 1.437625 0.09985268 0.8814864
v -1.437624 0.09985268 0.8814864
v -1.524663 0.6976295 0.9317219
v -1.524663 0.6976295 -0.8287806
v -1.437624 0.09985268 -0.778545
vt 1 0.2502444
vt 0.5004888 0
vt 0 0.2502444
vt 1 0.7497556
vt 0 0.7497556
vt 0.5004888 1
vt 0.9022483 0.005865103
vt 0.8993157 0.1026393
vt 0.9237537 0.1026393
vt 0.9257087 0.005865103
vt 0.9257087 0.005865103
vt 0.9237537 0.1026393
vt 0.8993157 0.1026393
vt 0.9022483 0.005865103
vt 0.9941349 0.005865103
vt 0.9960899 0.1026393
vt 0.9726295 0.1026393
vt 0.9706745 0.005865103
vt 0.9706745 0.005865103
vt 0.9726295 0.1026393
vt 0.9960899 0.1026393
vt 0.9941349 0.005865103
vt 0.9706745 0.005865103
vt 0.9726295 0.1026393
vt 0.9237537 0.1026393
vt 0.9257087 0.005865103
vt 0.9257087 0.005865103
vt 0.9237537 0.1026393
vt 0.9726295 0.1026393
vt 0.9706745 0.005865103
vn -0.001320779 0.999999 -0.000422864
vn -0.001320779 0.999999 -0.000422864
vn -0.001320779 0.999999 -0.000422864
vn -0.001320779 0.999999 -0.000422864
vn -0.001320779 0.999999 -0.000422864
vn -0.001320779 0.999999 -0.000422864
vn 0.4980184 0.1417599 -0.8555009
vn 0.4980184 0.1417599 -0.8555009
vn 0.4980184 0.1417599 -0.8555009
vn 0.4980184 0.1417599 -0.8555009
vn -0.4928577 0.1417599 -0.8584844
vn -0.4928577 0.1417599 -0.8584844
vn -0.4928577 0.1417599 -0.8584844
vn -0.4928577 0.1417599 -0.8584844
vn -0.4928577 0.1417599 0.8584844
vn -0.4928577 0.1417599 0.8584844
vn -0.4928577 0.1417599 0.8584844
vn -0.4928577 0.1417599 0.8584844
vn 0.4980184 0.1417599 0.8555009
vn 0.4980184 0.1417599 0.8555009
vn 0.4980184 0.1417599 0.8555009
vn 0.4980184 0.1417599 0.8555009
vn -0.989947 0.1414384 0
vn -0.989947 0.1414384 0
vn -0.989947 0.1414384 0
vn -0.989947 0.1414384 0
vn 0.9895554 0.1417599 -0.02615999
vn 0.9895554 0.1417599 -0.02615999
vn 0.9895554 0.1417599 -0.02615999
vn 0.9895554 0.1417599 -0.02615999
g hexCursorGeo01_0
f 3/3/3 2/2/2 1/1/1
f 3/3/3 1/1/1 4/4/4
f 5/5/5 3/3/3 4/4/4
f 6/6/6 5/5/5 4/4/4
f 9/9/9 8/8/8 7/7/7
f 10/10/10 9/9/9 7/7/7
f 13/13/13 12/12/12 11/11/11
f 14/14/14 13/13/13 11/11/11
f 17/17/17 16/16/16 15/15/15
f 18/18/18 17/17/17 15/15/15
f 21/21/21 20/20/20 19/19/19
f 22/22/22 21/21/21 19/19/19
f 25/25/25 24/24/24 23/23/23
f 26/26/26 25/25/25 23/23/23
f 29/29/29 28/28/28 27/27/27
f 30/30/30 29/29/29 27/27/27
